<?xml version="1.0" encoding="utf-8"?>
<!-- Generator: Adobe Illustrator 19.2.1, SVG Export Plug-In . SVG Version: 6.00 Build 0)  -->
<svg version="1.1" id="Слой_1" xmlns="http://www.w3.org/2000/svg" xmlns:xlink="http://www.w3.org/1999/xlink" x="0px" y="0px"
	 viewBox="0 0 1440 370" style="enable-background:new 0 0 1440 370;" xml:space="preserve">
<style type="text/css">
	.st0{fill:#101F34;}
	.st1{fill:#101F34;stroke:#FFFFFF;stroke-width:0.25;stroke-miterlimit:10;}
	.st2{fill:#101F34;stroke:#FFFFFF;stroke-width:0.5;stroke-linejoin:round;stroke-miterlimit:10;}
	.st3{fill:#101F34;stroke:#FFFFFF;stroke-linejoin:round;stroke-miterlimit:10;}
	.st4{fill:none;stroke:#FFFFFF;stroke-width:0.5;stroke-linejoin:round;stroke-miterlimit:10;}
	.st5{fill:#FFFFFF;stroke:#FFFFFF;stroke-linejoin:round;stroke-miterlimit:10;}
	.st6{fill:#101F34;stroke:#0074FF;stroke-width:0.5;stroke-linejoin:round;stroke-miterlimit:10;}
	.st7{fill:#101F34;stroke:#FFFFFF;stroke-linecap:round;stroke-linejoin:round;stroke-miterlimit:10;}
	.st8{fill:#FFFFFF;stroke:#FFFFFF;stroke-width:0.5;stroke-linejoin:round;stroke-miterlimit:10;}
	.st9{fill:#101F34;stroke:#0074FF;stroke-width:0.5;stroke-miterlimit:10;}
	.st10{fill:#101F34;stroke:#0074FF;stroke-miterlimit:10;}
	.st11{fill:none;stroke:#0074FF;stroke-width:0.5;stroke-miterlimit:10;}
	.st12{fill:#FFFFFF;stroke:#0074FF;stroke-width:0.5;stroke-miterlimit:10;}
	.st13{fill:none;stroke:#FFFFFF;stroke-linejoin:round;stroke-miterlimit:10;}
	.st14{fill:#101F34;stroke:#0074FF;stroke-linejoin:round;stroke-miterlimit:10;}
	.st15{fill:none;stroke:#0074FF;stroke-width:0.5;stroke-linejoin:round;stroke-miterlimit:10;}
	.st16{fill:#101F34;stroke:#FFFFFF;stroke-miterlimit:10;}
	.st17{fill:none;stroke:#FFFFFF;stroke-width:0.25;stroke-linejoin:round;stroke-miterlimit:10;}
	.st18{fill:none;stroke:#0074FF;stroke-linecap:round;stroke-linejoin:round;stroke-miterlimit:10;}
	.st19{fill:none;stroke:#FFFFFF;stroke-width:0.5;stroke-miterlimit:10;}
	.st20{fill:none;stroke:#00C3FF;stroke-linejoin:round;stroke-miterlimit:10;}
	.st21{fill:#00C3FF;}
	.st22{fill:none;stroke:#00C3FF;stroke-width:0.5;stroke-miterlimit:10;}
</style>
<rect y="-0.2" class="st0" width="1440" height="370"/>
<path class="st1" d="M45.9,224.9C23.8,224.9,6,207.1,6,185s17.9-39.9,39.9-39.9c4.2,0,8.2,0.6,11.9,1.8c0-0.9,0-1.8,0-2.7
	c0-44.5,36.1-80.6,80.6-80.6c33.8,0,62.8,20.8,74.7,50.4c8.7-5,18.8-7.9,29.6-7.9c32.8,0,59.4,26.6,59.4,59.4s-26.6,59.4-59.4,59.4
	H45.9z"/>
<path class="st1" d="M618.3,168.9c22.4,0,40.6-18.2,40.6-40.6s-18.2-40.6-40.6-40.6c-4.2,0-8.3,0.6-12.1,1.8c0-0.9,0-1.8,0-2.7
	c0-45.3-36.8-82.1-82.1-82.1c-34.4,0-63.9,21.2-76.1,51.3c-8.9-5.1-19.2-8.1-30.2-8.1c-33.4,0-60.5,27.1-60.5,60.5
	s27.1,60.5,60.5,60.5H618.3z"/>
<path class="st1" d="M133.7,370c4.3-11,15-18.9,27.6-18.9c5.7,0,10.9,1.6,15.4,4.4c-3-8.5-4.6-17.7-4.6-27.2
	c0-45.3,36.8-82.1,82.1-82.1c17.5,0,33.6,5.5,47,14.8c14.6-46.8,58.3-80.7,109.9-80.7c63.6,0,115.1,51.5,115.1,115.1
	c0,2.9-0.1,5.9-0.4,8.7c8.6-5.1,18.6-8.1,29.3-8.1c31.6,0,57.2,25.6,57.2,57.2c0,5.9-0.9,11.5-2.5,16.8"/>
<path class="st1" d="M1396.8,181.8c12.8,0,23.1-10.3,23.1-23.1c0-12.8-10.3-23.1-23.1-23.1c-4.4,0-8.5,1.3-12,3.4
	c2.3-6.7,3.6-13.8,3.6-21.3c0-35.4-28.7-64-64-64c-13.6,0-26.2,4.3-36.6,11.5c-11.4-36.5-45.4-63-85.7-63
	c-49.6,0-89.8,40.2-89.8,89.8c0,2.3,0.1,4.6,0.3,6.8c-6.7-4-14.5-6.3-22.9-6.3c-24.6,0-44.6,20-44.6,44.6s20,44.6,44.6,44.6H1396.8z
	"/>
<path class="st1" d="M603.5,296.3c-17.5,0-31.7-14.2-31.7-31.7c0-17.5,14.2-31.7,31.7-31.7c6,0,11.7,1.7,16.5,4.7
	c-3.2-9.1-5-18.9-5-29.1c0-48.5,39.3-87.8,87.8-87.8c18.7,0,36,5.8,50.2,15.8c15.6-50,62.3-86.3,117.5-86.3c68,0,123,55.1,123,123
	c0,3.2-0.2,6.3-0.4,9.4c9.2-5.5,19.9-8.6,31.3-8.6c33.8,0,61.2,27.4,61.2,61.2s-27.4,61.2-61.2,61.2H603.5z"/>
<g>
	
		<ellipse transform="matrix(0.1065 -0.9943 0.9943 0.1065 562.6926 1094.5748)" class="st2" cx="890.4" cy="234.2" rx="3.3" ry="3.3"/>
	
		<ellipse transform="matrix(0.1065 -0.9943 0.9943 0.1065 531.3163 1053.8784)" class="st2" cx="852.1" cy="231.3" rx="3.3" ry="3.3"/>
	<circle class="st2" cx="836.7" cy="250.8" r="3.3"/>
	<circle class="st2" cx="862.9" cy="265.8" r="3.3"/>
	
		<ellipse transform="matrix(0.1065 -0.9943 0.9943 0.1065 543.8615 1115.9965)" class="st2" cx="892.9" cy="255.4" rx="3.3" ry="3.3"/>
	<path class="st3" d="M844.8,217.8l0.7-9.5l-9.3-0.2l-0.1,4.5c-0.4,0-1-0.1-1.7-0.3c-2.7-0.5-7-1.5-8.3,0.8c-1.7,3,1.7,4.8,3.2,5.7
		c1,0.6,2,1,2.5,1.2c1.3,0.5,2.8,1.5,3.5,2.5c0.6,0.7,1.3,1.6,2.4,2.4c2.3,1.7,5.9,0.8,7-0.2C845.8,223.8,845.1,219.8,844.8,217.8
		C844.8,217.8,844.8,217.8,844.8,217.8z"/>
	<path class="st4" d="M836.3,212.1c-1,3.9,5.3,7.4,8,5.2"/>
	<path class="st3" d="M861.3,187.2l-24.1,15.6c-1.3,0.9-2.5,2.9-2.5,4.5v0c0,1,0.5,1.9,1.3,2.4l23.8,14.2c5,3,11.2,2.8,16.1-0.4
		l21.5-14.3l-31.5-20.8L861.3,187.2z"/>
	<path class="st5" d="M834.9,203.5"/>
	<path class="st4" d="M835.9,205.1l23.8,14.2c5,3,11.2,2.8,16.1-0.4l21.5-14.3"/>
	<path class="st3" d="M894,251l-19.5-11.2l17.9-8.2l-1.8-0.6l-19.9,4.7v-9.9H865v8.5l-10.9-5.9c-0.9-0.5-2-0.5-2.9,0.1l-0.5,0.3
		l10.7,9l-24.2,8.9c-1.3,0.5-2.3,1.4-2.9,2.6l-0.1,0.2l29.9-6.8l-2.4,21.7c-0.1,0.7,0.5,1.3,1.2,1.3c0.7,0,1.4-0.5,1.6-1.2l5.7-20.8
		l25.4,10.8l0-0.4C895.7,252.8,895.1,251.6,894,251z"/>
	<path class="st4" d="M865.4,228.2V239c0,0,0.8,1.4,2.3,1.4s2.5-1.3,2.5-1.3v-10.9"/>
	<path class="st3" d="M817.4,233.1c2.3,1.7,6,1.2,6.5-0.3c0.5-1.3,1.1-5.7,0.3-7.9l4.1-23.4c0.2-1.2,1.5-1.7,2.7-1.2
		c5.5,1.8,16.6,9.4,20.3,11.7c13.1,7.9,26.2,3.9,31.2,0.3c5-3.7,7.2-15.5,7.2-15.5s-32.1-19.3-35-20.9c-3.7-2-14.1-1.4-14.1,7.4
		c0,5.9-1.5,7.1-1.5,7.1s-2.5-1.5-6.7-3.3c-7-2.9-13.6,3.4-14.1,10.2c-0.9,11.4-1.2,16.6-2.3,22.3c-0.7,0.4-1.7,0-3.2-0.3
		c-3.1-0.7-6.6-1-7.8,1.4c-1.4,3,3.2,5.8,4.9,6.6C813.9,229.4,814.5,231.1,817.4,233.1z"/>
	<path class="st4" d="M815.8,219.6c-0.3,4,6.5,6.3,8.8,3.6"/>
	<polygon class="st3" points="788.2,272.3 798.1,266.4 798.1,212.7 885.4,161.5 885.4,209.7 894.9,203.9 894.9,144.5 827.7,104.6 
		721,167.4 721,230.9 	"/>
	<line class="st4" x1="894.5" y1="144.7" x2="788.6" y2="207.2"/>
	<polyline class="st4" points="721,167.4 788.2,207.3 788.2,272.3 	"/>
	<polygon class="st6" points="814.5,146.7 783.2,165 796.5,172.4 826.6,154.5 	"/>
	<path class="st4" d="M839.4,190.8c0,0,9.6,5.9,13.7,6.4s3.9-2.7,3.9-3.9c0.1-1.6-3.4-6.1-5.8-4.2c-1.2,0.9-1.1,7.2-1.1,7.2"/>
	<path class="st7" d="M854.8,197.2c0,0,0.7-5.6,0.5-10.9c-0.2-5-0.6-8.4-0.8-10.1c-0.1-0.4-0.6-0.6-0.9-0.3
		c-2.7,3.1-12.5,14.1-15.7,13.7c-5.6-0.6-18.2-18.4-18.2-18.4s-2.3-3.4-4.5-3.8c-2.2-0.4-3.9,0.7-3.9,0.7c-1.4,0.8-3,0.3-2.5-0.7
		c0.4-1,4.2-2.3,4.2-2.3s-3.5,0-4.8,0.5s-2.3-0.8-0.6-1.7c1.7-1,4.4-0.9,4.4-0.9s-2.2-1-4.2-1.2c-1.9-0.2-1.6-2.2,1.7-1.7
		c3.3,0.4,5.7,1.4,5.7,1.4s-1-1.7-2.8-2.4c-1.9-0.8-0.8-1.8,1.7-1.2c2.6,0.6,6.4,3.9,6.4,3.9s-0.2-1.3,0.1-2.4
		c0.3-1.1,1.4-2,2.2,0.8s0.8,2.8,0.8,2.8s4.8,4.6,6.7,6.7s6.7,7.4,6.7,7.4l9.1-10.7c0,0-5.8-2.2-8.7-1.8c-2.9,0.4-3.3-0.8-2.5-1.7
		c1-0.9,3.1-0.9,3.1-0.9s-3.3-1.6-6.4-1.4c-3.2,0.3-2.8-1.6-2-2c-0.6-0.1-1.5-2.1,1.1-2.6c2.2-0.4,3.9,0,3.9,0s-0.1-1.2,1.8-1.2
		c1.7-0.1,3.4,0.1,5.5,0.9c2.1,0.8,3.5,2.3,3.5,2.3s3.9,1.1,7.4,0.3c3.6-0.9,5.5-3.2,5.5-3.2s-0.1-1.7,0.7-3.3c0.7-1.5,2-2.6,2-2.6
		s-0.8-2.9-3.9-3c-3.1-0.1-4.3,0.5-5.2-1.8s-1.1-5.8-1.1-5.8s-2.3,0.1-2-1.3c0.3-1.4,2.2-5.3,2.2-5.3s-0.2-1.1-0.2-2.1
		s0.3-2.1,0.3-2.1s-1.7-1.5-1.8-2.9s2.1-2.3,2.1-2.3s-0.9-2.6,1.5-3.3s5.8-1.6,11-0.8c5.1,0.8,7.3,5.1,7.3,5.1s4,0.9,3.9,7.2
		s-5.8,10.6-5.8,10.6l0.7,2.2c0,0,2.3-1.3,4.5-1.2c2.2,0.1,3.6,1.1,3.6,1.1s6.9-1.6,9.1,8.5c2.1,10.1,1.8,27.9,1.8,27.9l-2.6,16.1
		c0,0-4,6-15.1,6.2S854.8,197.2,854.8,197.2z"/>
	<path class="st4" d="M851.2,127.9c2.6,1,5.6,1,5.6,1s-1.8,2.6-1.3,4.6s1.9,2.8,1.9,2.8s0.9-3,3-2.4c2.1,0.5,2.6,2.2,3,4.1
		c0.4,1.9,2.1,5.4,5.4,3.9"/>
	<path class="st8" d="M856.8,128.9c3.9-0.8,10.8-3.9,10.8-3.9"/>
	<path class="st8" d="M861.1,149.6c2.1-2.2,6.8-5,9.6-5.9"/>
	<path class="st8" d="M858.2,155.7c3.4-3.8,8.4-4.6,12.8-7.9c2.6-2,5.7-3.9,7.8-4"/>
	<path class="st5" d="M844.8,168.1c3.1-3.9,4.1-7.4,8.9-10.2"/>
	<path class="st4" d="M819.5,171c0-4.8,3.2-6.5,6.2-5.6"/>
	<path class="st4" d="M843.7,165.6c-1.3-4.6,1.3-7.2,4.4-7"/>
	<path class="st9" d="M772.3,142.5l0.6,3.4c0.2,1.3,1,2.4,2.1,3.1l7.5,4.4c2.1,1.2,4.6,1.2,6.7,0l8.9-5.1c1-0.6,0.9-2-0.1-2.5
		l-11.9-5.3l-1.3-9.8L772.3,142.5z"/>
	<path class="st10" d="M748.6,112.5l6.7,37.1c0.5,2.7,3.5,4.1,5.8,2.7l45.7-26.8c2-1.2,3.2-3.5,2.8-5.9L803.6,80
		c-0.2-1.6-2-2.4-3.4-1.6l-48.7,27.9C749.3,107.5,748.2,110,748.6,112.5z"/>
	<path class="st11" d="M803.4,79.6l-48.1,27.7c-2.2,1.2-3.3,3.7-2.9,6.2l6.5,36c0.3,1.7,2.2,2.6,3.8,1.7"/>
	<line class="st12" x1="758.3" y1="146" x2="809" y2="116.3"/>
	<path class="st3" d="M872.7,224.9l16.4-48.5c0.9-2.5,2.6-4.6,4.8-6l24.3-14.6c0.7-0.4,1.5-0.4,2.2,0.1l0,0c0.7,0.5,1.1,1.4,0.8,2.2
		l-12.4,45.7c-0.7,2.6-2.4,4.9-4.7,6.3L878,225.8C876.3,226.9,874,226.5,872.7,224.9L872.7,224.9z"/>
	<path class="st4" d="M877.3,226l16-47.2c0.9-2.5,2.6-4.6,4.8-6l22.7-13.6"/>
</g>
<g>
	<path class="st3" d="M432.1,343.6"/>
	<path class="st13" d="M364.3,322.2l-21.5-12.6c-4.4-2.6-7.2-7.1-7.5-12.1l-5.5-58.5c-0.2-3.1,1.3-6,3.9-7.7
		c3.5-2.3,10.3-5.5,16-7.9c6.7-2.8,12.8-3.2,16-3.2c1.3,0,2.5,1,2.6,2.4l4.5,60.3l35.7,18L364.3,322.2z"/>
	<path class="st4" d="M368.1,319l-21.5-12.6c-4.4-2.6-7.2-7.1-7.5-12.1l-4.1-54.6c-0.2-3.1,1.3-6,3.9-7.7c3.5-2.3,8.9-5.5,14.6-7.9
		c6.7-2.8,11.1-3,14.3-3"/>
	<path class="st3" d="M417.8,277.3c1.3,0.5,3.4,1.4,3.7,1c0.6-0.8-1-2.2-2.6-2.9c-1.3-0.5-2.6-1-4.4-1.6c-1.3-0.5-2.3-1.1-2.3-1.1
		s-0.1-0.5-1.1-1.1c-1-0.7-17.5-8.5-20.9-12.1s-13.7-22.9-16.7-25c-3.1-2-7.8,1.1-7.8,1.1s0.5-3.3-0.2-6.9c-0.7-3.5-1.8-7.9-1.8-7.9
		s0.8-1.7,0.2-3.6c-0.7-2-4.2-5.2-9.3-5.6c-5.1-0.4-8.4,3.2-8.4,3.2s-4.3,0.8-5.6,4.6c-1.3,3.7,0.5,10.7,3.3,13.7
		c2.8,3,4.6,2.2,4.6,2.2s0.4,1,0.7,2.8s0.7,4.5,0.7,4.5s-12.3,7.1-14.5,12.3c-2.2,5.2-5.6,28.4-1.3,29.9s9.7-2,9.7-2s0.2,5,0.7,7.2
		c0.6,2.2,3.2,4.6,3.2,4.6s0.2,6.1,3.7,10.2c3.5,4.1,26,14.5,26,14.5l37.8-22.7c0,0-7.4-3.8-12.8-6c-5.4-2.2-22.1-8.7-22.1-8.7
		s0.6-1.7,0.5-3.5c-0.1-1.9-3.2-18.9-3.2-18.9s5.4,6.6,9.4,9.8s13.8,9.2,15.7,9.6c1.9,0.4,3.2-0.6,3.2-0.6s2,0.6,3.2,3.3
		c1.2,2.7,3.2,3,3.7,2.5c1-1-2-4.9-2-4.9s2.3,1.1,4.1,2.8c1.6,1.5,2.3,2.6,3.1,2.9c0.8,0.3,1.6-0.5,1.1-1.7c-0.8-2-4.1-4.5-4.1-4.5
		s2.3,0.9,4.3,2.7c0.8,0.7,2.4,1.9,2.7,0.7C422.4,280.9,420,278.5,417.8,277.3z"/>
	<path class="st4" d="M387,310.6c-7.8-6.1-10.3-7.4-8.4-9.3c1.9-1.9,9-1,14,1.2c5,2.2,7.9,3.7,7.9,3.7"/>
	<path class="st4" d="M347.8,294.5c7.5,2.4,29.2-0.4,32.6-12.7"/>
	<path class="st4" d="M348.7,243.9c2.8-1.7,11,1.1,11,1.1s0.9-2.2,1.5-3.2c0.6-1,0.9-2,0.9-2"/>
	<path class="st4" d="M349,234.8c2,3.1,7.8,5.2,11.6,5c3.8-0.2,4.7-1.7,5-4.2"/>
	<path class="st4" d="M345.3,233.6c-1.2-3-0.5-4.2,0.9-4.7c1.4-0.5,3.1,3.8,3.7,2c0.6-1.9-0.9-4.2-0.5-6.8c0.4-2.6,2.2-3.3,2.2-3.3
		s4,1.5,6.8,1.1s4.8-0.7,5.3-2.2"/>
	<path class="st4" d="M361.7,232c0,0,2.1-1.6,2-2.7c-0.1-1.1-1.6-2.5-2.8-4.7c0,0,0.1-1.9,1.4-2.1c1.2-0.2,2,0.7,2,0.7"/>
	<path class="st4" d="M341.8,283.5c0,0,6.1-2.7,9.5-4.7c3.5-2,11.8-7.8,11.8-7.8s4.6-0.9,6.8-2.8c2.2-2,5.5-8.5,4.6-9.7
		s-2.2,1.4-4.6,2.2c-2.4,0.9-4.5,0.6-4.5,0.6s0.5-5-0.6-4.8c-1.1,0.1-0.9,1.6-1.4,3c-0.5,1.4-2.6,2.6-4.6,4.8c-2,2.2-3,3.3-5.3,4.5
		c-2.4,1.1-11.3,5-11.3,5l1.5-10.2l1,5.9"/>
	<path class="st4" d="M355.8,267.4c-1,4.1,1.4,6.7,4.3,5.5"/>
	<path class="st4" d="M364.8,256.5l0.1-1.2c0.1-1.2,1.2-2.1,2.4-2.1l4.2,0.3c1.2,0.1,2.1,1.1,2.1,2.3l-0.1,2.5"/>
	<polygon class="st4" points="443.4,331.4 443.4,272.4 502.9,306.9 502.9,367.3 	"/>
	<path class="st4" d="M372.5,264.8l-0.2,4.9c0,1.2-1.1,2.2-2.4,2.1l-5.4-0.4v-0.7"/>
	<path class="st4" d="M406,278.2c0-3.5,2.1-6.5,5.7-5.7"/>
	<polyline class="st3" points="413.8,370.1 502.7,318.1 502.7,367.1 512.3,361.2 512.3,300.7 452.9,266.3 344.4,330.2 344.4,370 	
		"/>
	<polyline class="st4" points="512,301 404.2,364.5 344.4,330.2 	"/>
	<line class="st4" x1="403.8" y1="364.7" x2="403.8" y2="371"/>
	<path class="st14" d="M423.7,327.7l2.7-32.2c0.3-3.4,2.2-6.5,5.2-8.2l45.5-26.8c1.1-0.7,2.5,0.3,2.3,1.5l-4.3,34.8
		c-0.4,3.3-2.3,6.1-5.1,7.8l-42.8,25.3C425.6,330.9,423.6,329.6,423.7,327.7z"/>
	<path class="st15" d="M425.7,329.8l2.8-32.6c0.3-3.5,2.2-6.6,5.2-8.3l46-27.1"/>
	<path class="st6" d="M453,299.8c0,0,1.9,11.3,2.8,17.8c1.1,7.5-1.2,9.3-1.2,9.3l9-5.6c2.2-1.4,3.3-4.1,2.5-6.6l-5.6-19.4L453,299.8
		z"/>
	<path class="st15" d="M454.6,326.9c-2.7,2-13-4.5-13-4.5"/>
	<polygon class="st6" points="382.5,315.8 393.6,322.1 421.1,306.1 410.1,299.7 	"/>
</g>
<g>
	<g>
		<path class="st16" d="M464.4,133.1c13.9,28.2,85.9,33.9,112.9,6.5c15.3-15.5,17-43-2.2-61.3C556,60,529.6,69,520.3,79.3
			c-9.7,10.8-19.2,10.5-35.5,15.1C465.5,99.7,457.7,119.4,464.4,133.1z"/>
		<path class="st17" d="M575.2,78.2c6.5,22.6,7.5,49.5-25.8,58.1c-33.3,8.6-77.4-9.7-83.9-22.6"/>
		<path class="st17" d="M524.6,76.1c17.2-5.4,40.9,8.6,40.9,21.5"/>
	</g>
	<path class="st13" d="M460.7,90.9l26.6-10.5l11.8,1.6l-35.2,12.1C463.9,94.1,459.6,94.4,460.7,90.9z"/>
	<path class="st3" d="M388.3,90.2c-2.6,0.9-0.5,9.3,1.8,12.2c2.3,2.9,5.2,5.7,6.1,8.2s2.5,6.5,4.1,7c1.6,0.5,8.1-2.7,8.1-2.7
		l1.3,1.4l33.2-16.5c0,0,23.9,6.1,30.9,7.9c7,1.8,36.6,12.5,36.6,12.5l-7.2,0.7c0,0-11.5,0.2-14.9,2.7s0.7,5.4,3,6.6
		s7.2-1.3,7.2-1.3l5.7-0.4l0.5,1.4c0,0,29.9-0.4,35.1-3.2c5.2-2.9,17.4-18.3,20.4-38.2s-1.8-27.8-1.8-27.8s2.7-3.8,3.8-6.8
		c1.1-3-1.8-5.9-1.8-5.9s0.4-4.7-8.6-6.6c-9-2-12.9,0-14,2.7c-1.1,2.7,0.9,4.5,0.9,4.5s-0.9,3.8-1.1,4.7c-0.2,0.9-0.2,3.2-0.2,3.2
		s-2.2,3.4-2,4.3c0.2,0.9,2.3,1.4,2.3,1.4l-0.5,3c0,0-8.4,5.6-14,9.1c-5.6,3.6-15.1,9-15.1,9l-1.6,0.7l-1.7-1.6l-14.4-1.5l-3.5-8.9
		l-3.4-7.3l-1.1,15c0,0-11.3-1.2-19.7-1.4c-12.3-0.4-25.9,6.8-25.9,6.8l-25.8,5.9L410,92c0,0-3-4.1-4.7-9.3c-1.6-5.2-3.6-7.2-5-7.2
		c-1.4,0-3.4,0.5-3.4,0.5s-1.3,5.7,0.9,11.8c2.2,6.1,5,12.2,5,12.2l2.3,2.5c0,0-2.5-0.2-6.1-3.2C395.5,96.3,394.4,88,388.3,90.2z"/>
	<path class="st4" d="M537.4,65.4c0,0-0.2,3.8,2.3,4.1c2.5,0.4,6.3-1.3,7.5-0.5s1.8,3.8,1.8,3.8s4.5,2.2,7.2-1.1s2.3-10.8,2.3-10.8"
		/>
	<path class="st4" d="M538.8,48.8c2.3,1.3,7.5,1.4,7.5,1.4s-3.8,2.2-3,3.6c0.7,1.4,4.7,2.3,5.2,3.8c0.5,1.4-1.6,3-0.7,4.5
		c0.9,1.4,2.3,0.9,2.3,0.9s-0.4-4.1,2.9-3.8c3.2,0.4,2.2,3.2,2.2,3.2s2.5,0.2,4.3-2.5"/>
	<path class="st4" d="M538.1,68.8c0,0-7.9,7.2-10.4,10.2c-2.5,3-7.9,10.6-6.5,21.5c1.4,10.9,13.3,16.8,13.3,16.8"/>
	<path class="st4" d="M511.4,91.6c0,0,7.3-4.3,12.5-6.8"/>
	<path class="st4" d="M545.6,99.5c0,0-8.4,18.1-12.5,18.5c-4.1,0.4-22.8,2.3-22.8,2.3"/>
	<path class="st4" d="M504.2,128.7c0-2.5-1.1-7.7-1.1-7.7"/>
	<path class="st4" d="M509.1,120.6c0.9,3.6,0.5,9.3,0.5,9.3"/>
	<path class="st4" d="M512.3,81.7c3,2.5,3.6,4.7,2.9,7.5"/>
	<line class="st4" x1="405.2" y1="102.5" x2="438.5" y2="85.1"/>
	<path class="st4" d="M442.8,99.8c0,0,18-6.6,23.8-6.8c5.7-0.2,19.7,2.5,19.7,2.5"/>
	<path class="st4" d="M406.8,102.2c-5,4.3-1.3,10.2,1.6,12.7"/>
	<path class="st4" d="M410,92c-3.6,3-4.1,7.9-2.3,10"/>
	<path class="st4" d="M550.6,73.5c0,0-1.8,4.3-1.3,5.2c0.5,0.9,9.7,0.5,11.3-9.1"/>
	<polyline class="st14" points="510.8,92.5 513.2,107.9 512.3,110.2 490.8,107.4 483.1,86.2 482.7,80.1 482.2,61.7 485.2,62 
		490.9,79.8 506.4,81.9 506.7,84.2 	"/>
	<polyline class="st15" points="490.9,79.8 492.7,105.4 508.7,107.4 507.4,95.5 	"/>
	<polyline class="st15" points="492.7,105.4 485.9,85.5 485,61.7 	"/>
	<path class="st4" d="M506.7,84.2c0,0-7,5.2-9.9,8.4c-2.9,3.2-2.2,5-1.3,5s6.8-5,8.4-4.5c1.6,0.5,0.4,3.6,0.9,3.9
		c0.5,0.4,3.9-2.7,5.9-4.7S512.1,83.2,506.7,84.2z"/>
</g>
<g>
	<path class="st2" d="M188,49.5c-1.3-0.1-2.7,0-2.7,1.3c0,1.3,1.3,3.4,1.3,3.4l3.6-1.1L188,49.5z"/>
	<path class="st3" d="M185.7,60.8c-1.2,4.4-1.2,4.7-3.1,9.9c-1,2.8-3.2,8.4-5.2,8.5c-0.9,0-3.4-5.4-3.8-6.3
		c-1.5-4.2-1.1-4.1-3.9-9.9c-3-6.3-7.9-8.4-9.5-9.6s-6-3.5-6-3.5l1.4-1.2c0,0,4.4,0,5.6-1.4c1.2-1.4,2.8-9.7,2.8-12.3
		s-1.6-5.6-1.6-5.6l3-1.9c0,0-1.6-5.1-11.1-5.8s-10.7,5.6-10.7,5.6s-2.3,2.3-1.6,6.3c0.7,3.9,4.4,9.5,4.4,9.5l-0.2,2.6
		c0,0-1.6-0.5-2.3,0c-0.7,0.5-2.1,1.9-2.1,1.9s-8.8-0.9-11.6,1.6c-2.8,2.6-10.9,21.6-9.5,27.6c1.4,6,10.7-0.5,10.7-0.5
		s-2.1,19.5-2.1,21.3c0,1.9,1.4,4.4,1.4,4.4s-0.2,26.2-0.5,42.9c-0.2,16.7-3.5,47.3-3.5,47.3l0.9,0.7l-0.9,8.8c0,0,0.5,2.3,3.9,2.3
		c3.5,0,4.4-4.9,4.4-6c0-1.2,2.3-3.2,3.2-6c0.9-2.8-1.2-4.4-1.2-4.4s3.2-17.4,4.9-33.6s1.4-30.1,1.9-32.9s2.3-3.5,3.9-1.9
		c1.6,1.6,1.2,18.3,0.7,33.2c-0.5,14.8-3.2,47.3-3.2,47.3l1.4,0.7c0,0-1.9,5.8-1.6,7c0.2,1.2,4.9,2.6,8.6,1.4c3.3-1,4.9-0.2,9-0.5
		c4.2-0.2,6.3-2.8,5.1-5.1c-0.9-1.7-5.6-2.7-9-2.8c-3.5-0.2-3.3-1.4-3.3-1.4s3.3-20.5,5.6-41.4c2.3-20.9,4-53.4,4-53.4
		s0.9-1.1,1-3.5S165.5,81,165.5,81s9.8,9.9,11.8,10.1c6.3,0.8,11.6-20,14-28.9c0,0,3.8-3.4,4.2-5.8c0.4-2.4-1.6-5.8-1.6-5.8l1.2-5.5
		l-6.7-1.5l-3.1,13l2.4,0.7L185.7,60.8z"/>
	<path class="st4" d="M164.8,104.1c-4.3,2.7-13.7,3.3-23.4,1.3c-9.7-2-10.3-3.2-11.4-4.7"/>
	<path class="st4" d="M131.4,76.6c0.6-7.4,0-13-0.5-13.4c-0.5-0.3-3.3,15-3.3,15"/>
	<path class="st4" d="M158.5,52.5c-2,0.7-11,0.7-14.2-1s-2.8-4-2.8-4"/>
	<path class="st4" d="M154.8,50.4c-3.9-2-7.7-4.7-9.7-4.6"/>
	<path class="st4" d="M162.5,29.2c-1.7,1.1-1.7,7.5-1.7,7.5s-1.4-1.8-3.3-0.9c-1.9,1,0.1,3.9-3.2,6.3c-3.3,2.3-6.3,2.6-7.7,1.4"/>
	<path class="st4" d="M157.4,48.6c-3.2,0.3-4.2-3.1-4.2-3.1"/>
	<path class="st4" d="M185.7,60.8c2.3,2.3,5.6,1.5,5.6,1.5"/>
	<path class="st2" d="M146.5,200.4c3.9,0.3,8.8-1.4,8.8-1.4"/>
	<path class="st2" d="M127.5,192.9c6.2,3.4,9.5-5.3,9.5-5.3"/>
	<polyline class="st18" points="193.9,50.7 195.1,45.2 188.4,43.7 185.3,56.7 187.7,57.4 	"/>
	<path class="st4" d="M194.3,51.9c0,0-1.2-2.4-2.3-2c-1.1,0.4-0.9,2.3-0.4,4.3s-1.7,3.6-3.9,3.2"/>
</g>
<g>
	<g>
		<path class="st16" d="M1299.4,122.7c-12.5,25.7-66.7,38.7-91,13.7c-13.8-14.2-19.4-46.9-2.2-63.5c17.2-16.6,39.7-13.9,49.2-5.6
			c8.2,7.2,16.9,12.7,34,19.1C1303.6,91.8,1305.4,110.3,1299.4,122.7z"/>
		<path class="st19" d="M1300.5,99.8c-6.7-9.8-25.8-3.5-42.8,13.7c-10.3,10.4-36.1,16.7-46.6,7.8s-17.1-22.5-12.4-37.2"/>
	</g>
	<g>
		<path class="st3" d="M1272.2,47.7c-1-5.3-11.4-12.9-11.4-12.9l0.5-4.3c0,0,4.5-2.4,4.5-7.9c0,0,1-3.2,1-4.6s-0.8-2.7-0.8-2.7
			s2-7.8-7-9s-12,2.4-13.1,4.1s0.5,3.9,0.5,3.9l-1.5,4.9l0.8,1.2c0,0-0.7,3.7-0.8,4.7c-0.2,1-0.2,3.2-0.2,3.2s-8.2-1.5-10.7,3.9
			c-0.9,2.1-2.7,6.4-4.6,11.7c-2,5.1-5.5,12-8.4,12.6c-2.9,0.6-17-11-17-11s-2.2-0.7-3.3,1.5c-1.1,2.2,0.4,5.2,0.4,5.2
			s16.2,14.5,20.5,14.6c2.9,0.1,8.7-4.5,12-7.3c-0.3,4-0.9,11.7-1.1,14.2c-0.2,3.6,0,6,0,6s-27.4,12.8-29.1,22.1
			c-1.6,8.9-3.2,19.7-3.2,19.7s-14.1,23.9-15.6,25.1c-1.5,1.2-6.6,1.9-11.4,2s-8.1,0.7-8,3.2c0,0,1.4,3.6,7,4.7
			c5.6,1.2,16.6,2.5,16.6,2.5s-9.5,6.3-10,8c-0.5,1.7-0.3,5.9,6.3,5.9c6.6,0,10.3-5.8,10.3-5.8s6.3-1.5,7.1-3.7
			c0.8-2.2,1.4-6.3,1.4-6.3l1.7-1.5c0,0,7.7-28.6,9-32.6c1.4-4.1,17.7-11.9,29.7-17.3c12.4-5.6,18.8-10.7,19.3-16.8
			c0.2-2.4,0.3-3.8,0.3-3.8s2-1.5,2.2-4.1c0.2-2.5-0.3-17.8,0.5-20.5C1267.5,58,1273.3,52.9,1272.2,47.7z"/>
		<path class="st4" d="M1236.3,90.7c0,0-23.7,10.9-28.5,18.1c-3.7,5.6-8.7,14.8-8.7,14.8"/>
		<path class="st4" d="M1188.8,159.2c3.2-1.5,6.3-7.8,6.3-7.8s14.9-20.9,20.5-29.9"/>
		<path class="st4" d="M1185.9,145c0.2,4.6,7.8,5.9,9.7,5.3"/>
		<path class="st4" d="M1194.6,152.6c1,3.1,5.9,5.6,9.7,4.2"/>
		<path class="st4" d="M1232.6,79.7c5.6,5.8,17.8,12,31.4,5.6"/>
		<path class="st4" d="M1244.8,28.4c0.2,4.1,3.4,5.1,5.3,5.6c1.9,0.5,8.8-2.5,8.8-2.5"/>
		<path class="st4" d="M1246.5,14.3c0,0,1.5-3.1,3.1-2.7c1.5,0.3,4.1,5.4,6.6,6.1c2.5,0.7,6.6-0.5,6.6-0.5s-2.9,4.2-0.8,8.1"/>
		<path class="st4" d="M1244.9,19.2c2.7,1,3.7,2.2,3.7,2.2s-1.5,3.9-1.9,5.3s2.5,1.7,2.5,1.7"/>
		<path class="st4" d="M1248.7,33.8c0,0-0.3,3.9,2.4,5.1c2.7,1.2,5.9-0.3,5.9-0.3"/>
		<path class="st4" d="M1232.2,81.3c5.1,6.1,15.1,12.9,31.7,5.8"/>
		<path class="st4" d="M1167.8,149.2c-1.7,3.9,6.3,5.6,10.5,6.3c4.2,0.7,13.1,1.7,13.1,1.7"/>
		<path class="st4" d="M1178.8,167.2c0,0,0.8,4.2,6.8,4.1c5.9-0.2,8.8-5.4,8.8-5.4s5.4-0.2,8.5-4.1"/>
		<line class="st4" x1="1266" y1="15.3" x2="1262.7" y2="17.2"/>
		<polygon class="st14" points="1202.3,42.8 1199.6,28.6 1206.4,32.6 1208.9,46.7 		"/>
		<path class="st3" d="M1205.4,42.3c0.4-1.3,0.4-4.8-0.9-5.8c-1.3-1-6.9,1.7-7.4,3.6c-0.5,1.9,1.7,7.7,1.7,7.7s1.6,3.1,3.7,2.2
			c2.1-0.9,1.5-3,1.5-3L1205.4,42.3z"/>
		<path class="st3" d="M1267.2,59.7c0,0-10.7,14.6-17.6,13.1c-7-1.5-30.3-25.1-30.3-25.1s0-3.2,2.2-4.1c2.2-0.8,4.1-0.5,4.1-0.5
			s20.7,17.8,22.9,18c2.2,0.2,9.2-9,9.2-9"/>
		<path class="st3" d="M1225,43.7c0,0-7.5-5.1-11.2-5.8s-5.1-0.2-5.1,0.5c0,0.7,5.3,2,5.3,2s-0.5,3.7,0.3,5.1
			c0.8,1.4,6.6,3.7,6.6,3.7"/>
		<path class="st2" d="M1221.6,49.6c2.9-2.4,2.9-4.2,2.5-6.4"/>
	</g>
</g>
<path class="st1" d="M1266.8,370.7c7.1-8.4,11.4-19.3,11.4-31.2c0-26.7-21.7-48.4-48.4-48.4c-5,0-9.9,0.8-14.5,2.2
	c0-1.1,0.1-2.2,0.1-3.2c0-54-43.8-97.8-97.8-97.8c-41.1,0-76.2,25.3-90.7,61.1c-10.6-6.1-22.9-9.6-36-9.6
	c-39.8,0-72.1,32.3-72.1,72.1c0,21.6,9.5,40.9,24.5,54.1"/>
<g>
	<polygon class="st2" points="1123.3,328.8 1126.4,326.2 1136.4,290.4 1131.6,289.7 1122.3,325.6 	"/>
	<polygon class="st2" points="1171.2,345.4 1173.4,343.4 1166.3,297.9 1160.3,294.7 	"/>
	<path class="st2" d="M1123.3,328.8l8.6-33.5c0.8-2.7,3.6-4.1,6.3-3.2l15.9,8.5c2.4,0.8,4,3,4,5.5l8.3,37.8l4.8,1.6l-7.2-43
		c-0.2-3.8-2.7-7-6.2-8.3l-21.8-10.6c-3.5-1.2-7.3,0.7-8.3,4.3l-8.1,39.5L1123.3,328.8z"/>
	<polygon class="st3" points="1117.4,315.2 1122.1,311.2 1132.1,285.1 1125.7,285.8 1116.3,311.9 	"/>
	<polygon class="st2" points="1093.8,351.4 1097,349 1107,313.2 1102,312.3 1092.7,348.1 	"/>
	<polygon class="st2" points="1141.6,368 1144.3,365.6 1142.5,317.9 1136.1,317.3 	"/>
	<path class="st3" d="M1100,301.1v-0.5c0-1.7,0.7-3.4,1.9-4.7l20.7-22.2l41.9,15.1l-3.8,15.9l-11.9,10.1c-4.4,3.8-10.5,4.9-16,2.9
		l-28.2-10C1101.9,306.7,1100,304.1,1100,301.1z"/>
	<path class="st4" d="M1161.6,299.6l-11.9,10.1c-4.4,3.8-10.5,4.9-16,2.9l-28.2-10c-2.7-1-4.4-2.5-4.4-5.4"/>
	<path class="st3" d="M1168.4,235.2c0,0,2.3-3.6,3.4-7.3c1.1-3.8-2-7.9-2-7.9s0.2-4.1-3.2-4.8c-3.4-0.7-7.7,0.9-10.9,0.9
		s-6.8-2.9-6.8-2.9s-4.1,2-3.6,5.4c0.5,3.4,2,4.8,2,4.8s-0.7,3.6-0.7,4.1c0,0.5,0.4,1.8,0.4,1.8s-1.8,4.1-1.8,4.8c0,0.7,2.2,2,2.2,2
		l0.5,3.9c0,0-5.7,4.3-14.2,3.2c-8.4-1.1-15.1-2-17.5-2.7c-2.3-0.7-5.9-1.1-5.9-1.1s-5.9-3.2-7.7-3.2c-1.8,0-6.1,3.2-6.1,3.2
		s-6.3-1.3-7.2-0.7c-0.9,0.5,2.2,2.2,5.4,3c3.2,0.9,7.9,1.8,8.2,2.7c0.4,0.9-3.8,1.8-3.2,2.7c0.5,0.9,4.1,0.5,5.7,0.2
		c1.6-0.4,3,0.2,3,0.2s1.6,1.8,6.1,3.2c4.5,1.4,21.8,3,21.8,3l-8.4,13.4c0,0-29-16.8-35.5-16.3c-6.5,0.5-11.8,35.1-11.8,35.1
		s-6.1-0.5-8.2,2.2c-2.2,2.7-3,5.7-3,5.7s-6.8,0.5-7.9,3c-1.1,2.5,5,4.3,5,4.3s-11.7,27.8-12,28.7c-0.4,0.9,0.2,2.5,0.2,2.5
		s-3.6,2.9-8.4,3.8c-4.8,0.9-10.4,1.1-10.8,3.6c-0.4,2.5,3.8,4.1,7.5,4.8c3.8,0.7,8.4-0.5,8.4-0.5s3.9,1.4,7.3,1.4
		c3.4,0,4.7-1.4,4.7-1.4l0.7-7.2l2.2-0.5l13.6-33c0,0,5.9,1.6,8.8,1.1s2.5-5,2.5-5s19.9,2.7,33.9,3.9c14,1.3,23.1,2.2,29.2-9.1
		c6.1-11.3,21.7-45,21.3-51.6C1175.2,236.1,1168.4,235.2,1168.4,235.2z M1115.9,284.7c-3.8,0.4-21.1,0.2-22.8-0.2
		c0,0,3.8-17.2,4.7-17.2c0.9,0,21,12.9,21.5,13.8C1119.8,282,1119.7,284.3,1115.9,284.7z"/>
	<path class="st4" d="M1054.6,332.5c3,6.3,9.5,4.5,9.5,4.5"/>
	<path class="st4" d="M1066.4,301.3c7,0.9,9.1,1.1,13.4,2.2"/>
	<path class="st4" d="M1069.3,294c4.1,0.5,9-2.2,9.9-3c0.9-0.9,1.4-2.3,1.4-2.3v-3.2"/>
	<path class="st4" d="M1093.1,284.5l-1.6,7l-0.7,0.5c0,0,0.5,3.6,0.4,7.5"/>
	<path class="st4" d="M1062.1,299.4c-1.8-2,4.1-3,8.2-2.7s10.9,2.5,10.9,2.5s9.1-0.2,9.1,3"/>
	<path class="st4" d="M1080.6,288.6c4.8-0.7,9.1,1.4,10.2,3.4"/>
	<path class="st4" d="M1108.9,247.4c-1.1-4.5-0.4-7.2,1.8-8.1"/>
	<path class="st4" d="M1148.1,301.3c-8.2,0.9-16.5-1.3-19.4-7.5c-2.9-6.3,2-13.8,2-13.8"/>
	<path class="st4" d="M1127.9,267.3c0,0-3.4,8.6-1.8,11.1c1.6,2.5,6.5,1.8,10,0.4c3.6-1.4,16.8-8.8,16.8-8.8"/>
	<path class="st4" d="M1135.6,255.3c0,0,8.6-9.7,10.2-11.7c1.6-2,2-3.6,2-3.6s0.5-4.5,2-5.6c1.4-1.1,3-1.3,3-1.3s0.4,5.9,1.3,7.2
		c0.9,1.3,4.5,0.4,4.5,0.4s-0.5,4.8-2.7,6.6c-2.2,1.8-5.7,2.7-5.7,2.7s-10.4,14.3-10.2,15.2c0.2,0.9,7.2-4.7,10.6-8.4
		c3.4-3.8,7.7-5.9,10-5.4"/>
	<path class="st4" d="M1147.3,223.4c2.3,1.3,6.5,1.1,6.5,1.1s-2.3,5.9-0.9,8.8"/>
	<polyline class="st4" points="1158.5,240.8 1162.1,234.7 1155.3,230.4 1152.8,234.3 	"/>
	<path class="st4" d="M1168.4,235.2c0,0-2.9,2.7-2.3,3.8c0.5,1.1,1.8,3.8,1.8,3.8s-2.2,5-6.1,4.7s-4.7-1.6-4.7-1.6"/>
	<path class="st4" d="M1166.1,239c-2.7,1.8-5,2-5.7-1.6"/>
	<line class="st4" x1="1061.2" y1="337" x2="1076.3" y2="302.8"/>
	<path class="st4" d="M1091.9,296.9c0,0,37.1,6.1,43.6,3"/>
	<path class="st4" d="M1089,289.9c1.3-6.6,6.1-28.5,7.9-29.2c1.8-0.7,22.6,11.5,23.7,16.3c1.1,4.8-1.6,6.6-1.6,6.6"/>
	<path class="st4" d="M1144.2,245.4c3.9-1.1,6.8,1.6,5.9,4.7"/>
	<path class="st3" d="M1184.4,248.7l-7,42.1c-0.5,3-1.8,5.7-3.6,7.3l-20.1,18.6c-4.3,3.5-13.6,5.2-14.7,3.5l-3.9-3.6l3.4-0.3
		c6.6-0.6,12.1-5.5,13.5-12l7.5-34.9c0.6-2.9,1.9-5.4,3.6-7l16.8-15.7C1181.8,245,1185,246,1184.4,248.7z"/>
	<path class="st4" d="M1184.1,248.8l-17.5,16.1c-1.8,1.6-3,4.1-3.6,7l-8.1,37.2c-1.7,8.3-15.9,11-15.9,11"/>
	<g>
		<path class="st14" d="M1092.5,272.5l-22.5-9.9l-5.4-24.2c-0.2-1,0.2-2.1,1-2.7l21.6-16.1c0.6-0.5,1.5-0.1,1.6,0.6l5.9,25.1
			l24.2,9.3L1096,272C1095,272.8,1093.6,273,1092.5,272.5z"/>
		<line class="st15" x1="1070" y1="262.5" x2="1094.4" y2="244.4"/>
		<polygon class="st15" points="1075.2,262.2 1095.5,247.3 1108.2,252 1086.7,267.2 		"/>
		<polygon class="st15" points="1066.6,237.5 1071.4,258.6 1092.4,243.4 1087.4,221.9 		"/>
	</g>
	<path class="st3" d="M1116.3,240.7c-2.3-0.7-5.9-1.1-5.9-1.1s-5.9-3.2-7.7-3.2c-1.8,0-6.1,3.2-6.1,3.2s-6.3-1.3-7.2-0.7
		c-0.9,0.5,2.2,2.2,5.4,3c3.2,0.9,7.9,1.8,8.2,2.7c0.4,0.9-3.8,1.8-3.2,2.7c0.5,0.9,4.1,0.5,5.7,0.2c1.6-0.4,3,0.2,3,0.2
		s1.6,1.8,6.1,3.2"/>
	<path class="st4" d="M1108.6,247.7c-1.1-4.5-0.4-7.2,1.8-8.1"/>
	<path class="st2" d="M1093.8,351.4l8.6-33.5c0.8-2.7,3.6-4.1,6.3-3.2l21.4,7.4c2.4,0.8,4,3,4,5.5l2.8,38.9l4.8,1.6l-1.7-44.1
		c-0.2-3.8-2.7-7-6.2-8.3l-27.3-9.5c-3.5-1.2-7.3,0.7-8.3,4.3l-8.1,39.5L1093.8,351.4z"/>
</g>
<path class="st20" d="M195.5,56.5l174.9,107.5c6,3.6,13.6,3.7,19.7,0.3l101-56.9"/>
<path class="st20" d="M509.7,110.3l83.8,50.2c6.5,3.9,6.4,13.3-0.1,17.1l-126.3,74.9c-3,1.8-3.2,6.1-0.3,8.1l3.7,2.6"/>
<path class="st20" d="M1070.5,231.8l-87.2-51.2c-6.6-3.9-6.6-13.4,0-17.2l143.3-82.8"/>
<path class="st20" d="M487.1,64.2l84.5-50.6c3.3-1.9,7.4-1.9,10.6,0L748,110.3"/>
<line class="st20" x1="482.2" y1="77.9" x2="351" y2="0"/>
<line class="st20" x1="1200.9" y1="33.8" x2="1138.5" y2="0"/>
<path class="st20" d="M749.9,129.9l-108.7,63.2c-6.6,3.8-6.6,10.3-0.1,14.2l240,145c3.1,1.9,7,1.9,10.2,0l175.3-102.9"/>
<path class="st20" d="M394,162.2L135.9,315.4c-6.5,3.9-6.5,13.3,0.1,17.2l65.9,38.6"/>
<line class="st20" x1="806.8" y1="95.6" x2="974.5" y2="0"/>
<path class="st20" d="M620.5,370l135.4-76.9c9-5.1,20-4.8,28.7,0.8l2.6,1.7"/>
<path class="st20" d="M1440,279L1126.7,96.8c-6.2-3.6-6.2-12.6,0-16.1l70.4-40.5"/>
<circle class="st21" cx="301.9" cy="122.1" r="3.4"/>
<circle class="st21" cx="487.8" cy="240.6" r="3.4"/>
<circle class="st21" cx="721.6" cy="146.5" r="3.4"/>
<circle class="st21" cx="990.3" cy="294.1" r="3.4"/>
<circle class="st21" cx="1009.7" cy="195.6" r="3.4"/>
<circle class="st21" cx="1153.1" cy="65.7" r="3.4"/>
<circle class="st21" cx="923.1" cy="29.9" r="3.4"/>
<circle class="st21" cx="648" cy="51.9" r="3.4"/>
<circle class="st21" cx="1244.7" cy="165.5" r="3.4"/>
<circle class="st21" cx="272.6" cy="235" r="3.4"/>
<circle class="st21" cx="447.4" cy="132.4" r="3.4"/>
<circle class="st22" cx="648" cy="51.9" r="8.4"/>
<circle class="st22" cx="447.4" cy="132.4" r="8.4"/>
<circle class="st22" cx="923.2" cy="30" r="8.4"/>
<circle class="st22" cx="990.3" cy="294.1" r="8.4"/>
<circle class="st22" cx="1244.7" cy="165.5" r="8.4"/>
<circle class="st22" cx="1010.1" cy="195.6" r="10.5"/>
<circle class="st22" cx="487.8" cy="240.6" r="10.5"/>
<circle class="st22" cx="301.9" cy="122.1" r="10.5"/>
<circle class="st22" cx="721.6" cy="146.5" r="6.7"/>
<circle class="st22" cx="272.6" cy="235" r="6.7"/>
<circle class="st22" cx="1153.1" cy="65.7" r="6.7"/>
</svg>
