<?xml version="1.0" encoding="UTF-8"?>
<svg width="100px" height="52px" viewBox="0 0 100 52" version="1.1" xmlns="http://www.w3.org/2000/svg" xmlns:xlink="http://www.w3.org/1999/xlink">
    <!-- Generator: Sketch 49.1 (51147) - http://www.bohemiancoding.com/sketch -->
    <title>icBbs</title>
    <desc>Created with Sketch.</desc>
    <defs></defs>
    <g id="icBbs" stroke="none" stroke-width="1" fill="none" fill-rule="evenodd">
        <g id="bbs" transform="translate(10.000000, 0.000000)" fill-rule="nonzero">
            <g id="path0-fill-10" transform="translate(30.000000, 28.000000)" fill="#0072FF">
                <g id="path0_fill-link" transform="translate(0.190000, 0.800000)">
                    <path d="M11.4159,1.53841 L6.35922,12.5381 L4.67364,12.5381 L10.1134,0.461525 C10.6497,0.769209 11.0328,1.15381 11.4159,1.53841 Z M8.198,-4.69488e-06 C8.81093,-4.69488e-06 9.34728,0.153837 9.80698,0.3846 L4.29056,12.615 L4.06071,12.615 C3.5244,12.615 3.06468,12.4612 2.60497,12.3073 L8.198,-4.69488e-06 Z M14.7871,5.07678 C15.1702,5.38446 15.4,5.69215 15.7064,5.99984 L12.7184,12.615 C12.5652,12.615 12.4119,12.6919 12.3353,12.6919 L11.4159,12.6919 L14.7871,5.07678 Z M13.7144,12.3073 L16.1662,6.92287 C16.3194,7.3844 16.396,7.84592 16.396,8.38437 C16.396,10.1535 15.2468,11.692 13.7144,12.3073 Z M12.2587,4.15372 L8.42784,12.5381 L6.8955,12.5381 L11.7224,1.99994 C12.0289,2.69223 12.2587,3.38451 12.2587,4.15372 Z M7.89156,-4.69488e-06 L2.37513,12.2304 C0.996029,11.5381 -1.87053e-05,10.0766 -1.87053e-05,8.38437 C-1.87053e-05,6.07674 1.83882,4.15372 4.06071,4.15372 C4.06071,1.99993 5.74629,0.153837 7.89156,-4.69488e-06 Z M14.1741,4.69217 L10.5731,12.615 L9.11741,12.615 L12.8717,4.30757 C13.408,4.30757 13.791,4.46141 14.1741,4.69217 Z" id="path0_fill"></path>
                </g>
            </g>
            <g id="path0-fill-9" transform="translate(57.000000, 30.000000)" fill="#0072FF">
                <g id="path1_fill-link" transform="translate(0.850000, 0.400000)">
                    <path d="M7.96814,1.07688 L4.44378,8.76897 L3.29453,8.76897 L7.12537,0.3846 C7.43184,0.538441 7.73829,0.769199 7.96814,1.07688 Z M5.74628,-4.69488e-06 C6.12936,-4.69488e-06 6.51245,0.0769303 6.89553,0.230772 L3.06469,8.76897 L2.91144,8.76897 C2.52836,8.76897 2.2219,8.69206 1.91543,8.53822 L5.74628,-4.69488e-06 Z M10.3433,3.53836 C10.5731,3.76912 10.803,3.92296 10.9562,4.23064 L8.88755,8.8459 C8.81093,8.8459 8.73434,8.8459 8.58111,8.8459 L7.89154,8.8459 L10.3433,3.53836 Z M9.57712,8.53822 L11.2627,4.7691 C11.3393,5.07678 11.4159,5.46138 11.4159,5.76906 C11.4925,7.07672 10.6498,8.15361 9.57712,8.53822 Z M8.58111,2.923 L5.89952,8.76897 L4.82686,8.76897 L8.19803,1.38459 C8.42788,1.84611 8.58111,2.38456 8.58111,2.923 Z M5.51644,-4.69488e-06 L1.68559,8.53822 C0.689571,8.07669 9.35265e-06,7.07673 9.35265e-06,5.92291 C9.35265e-06,4.30757 1.30251,2.9999 2.83484,2.9999 C2.83484,1.38457 4.06071,0.0769162 5.51644,-4.69488e-06 Z M9.88356,3.23068 L7.35521,8.76897 L6.3592,8.76897 L8.9642,2.9999 C9.34728,2.9999 9.65371,3.07684 9.88356,3.23068 Z" id="path1_fill"></path>
                </g>
            </g>
            <g id="path0-fill-8" transform="translate(7.000000, 30.000000)" fill="#0072FF">
                <g id="path2_fill-link" transform="translate(0.820000, 0.400000)">
                    <path d="M7.96815,1.07688 L4.44379,8.76897 L3.29454,8.76897 L7.12538,0.3846 C7.43185,0.538441 7.7383,0.769199 7.96815,1.07688 Z M5.74629,-4.69488e-06 C6.12937,-4.69488e-06 6.51245,0.0769303 6.89554,0.230772 L3.06469,8.76897 L2.91145,8.76897 C2.52837,8.76897 2.22191,8.69206 1.91544,8.53822 L5.74629,-4.69488e-06 Z M10.3433,3.53836 C10.5731,3.76912 10.803,3.92296 10.9562,4.23064 L8.88756,8.8459 C8.81094,8.8459 8.73431,8.8459 8.58107,8.8459 L7.89155,8.8459 L10.3433,3.53836 Z M9.57713,8.53822 L11.2627,4.7691 C11.3393,5.07678 11.4159,5.46138 11.4159,5.76906 C11.4159,7.07672 10.6498,8.15361 9.57713,8.53822 Z M8.58107,2.923 L5.89948,8.76897 L4.82687,8.76897 L8.19799,1.38459 C8.42784,1.84611 8.58107,2.38456 8.58107,2.923 Z M5.5164,-4.69488e-06 L1.68555,8.53822 C0.689533,8.07669 1.87053e-05,7.07673 1.87053e-05,5.92291 C1.87053e-05,4.30757 1.30247,2.9999 2.83481,2.9999 C2.83481,1.38457 3.98406,0.0769162 5.5164,-4.69488e-06 Z M9.88357,3.23068 L7.35522,8.76897 L6.35921,8.76897 L8.96416,2.9999 C9.34724,2.9999 9.5771,3.07684 9.88357,3.23068 Z" id="path2_fill"></path>
                </g>
            </g>
            <g id="Vector" transform="translate(31.000000, 0.000000)" fill="#FFFFFF">
                <g id="path3_stroke-link" transform="translate(0.570000, 0.000000)">
                    <path d="M7.05272,15.4611 C4.23759,15.4611 2.00001,13.2203 2.00001,10.38434 L9e-06,10.38434 C9e-06,14.3174 3.12555,17.4611 7.05272,17.4611 L7.05272,15.4611 Z M2.00001,10.38434 L2.00001,7.07675 L9e-06,7.07675 L9e-06,10.38434 L2.00001,10.38434 Z M2.00001,7.07675 C2.00001,4.24078 4.23759,2.00001 7.05272,2.00001 L7.05272,9e-06 C3.12555,9e-06 9e-06,3.14369 9e-06,7.07675 L2.00001,7.07675 Z M7.05272,2.00001 C9.86785,2.00001 12.1055,4.24079 12.1055,7.07675 L14.1055,7.07675 C14.1055,3.14368 10.97987,9e-06 7.05272,9e-06 L7.05272,2.00001 Z M12.1055,7.07675 L12.1055,10.38434 L14.1055,10.38434 L14.1055,7.07675 L12.1055,7.07675 Z M12.1055,10.38434 C12.1055,13.2121 9.79947,15.4611 7.05272,15.4611 L7.05272,17.4611 C10.89502,17.4611 14.1055,14.3256 14.1055,10.38434 L12.1055,10.38434 Z" id="path3_stroke"></path>
                </g>
            </g>
            <g id="Vector" transform="translate(21.000000, 20.000000)" fill="#FFFFFF">
                <g id="path4_stroke-link" transform="translate(0.380000, 0.800000)">
                    <path d="M1.9e-05,30.153 C1.9e-05,30.7053 0.447734,31.153 1.00001871,31.153 C1.552303,31.153 2.00002,30.7053 2.00002,30.153 L1.9e-05,30.153 Z M6.5164,2.53841 L6.22312,1.582375 L6.21964,1.583454 L6.5164,2.53841 Z M28.2756,2.46151 L28.5513,1.500244 L28.5442,1.498262 L28.2756,2.46151 Z M32.792,30.0761 C32.792,30.6284 33.2398,31.0761 33.792,31.0761 C34.3443,31.0761 34.792,30.6284 34.792,30.0761 L32.792,30.0761 Z M2.00002,30.153 L2.00002,10.5382 L1.9e-05,10.5382 L1.9e-05,30.153 L2.00002,30.153 Z M2.00002,10.5382 C2.00002,7.16185 4.0551,4.35043 6.81315,3.49336 L6.21964,1.583454 C2.54187,2.72633 1.9e-05,6.3763 1.9e-05,10.5382 L2.00002,10.5382 Z M6.80968,3.49444 C9.48024,2.67519 13.0591,1.999991 17.1662,1.999991 L17.1662,-1e-05 C12.8454,-1e-05 9.06897,0.709366 6.22312,1.582381 L6.80968,3.49444 Z M17.1662,1.999991 C21.7377,1.999991 25.3247,2.6767 28.007,3.42475 L28.5442,1.498262 C25.7101,0.70789 21.9419,-1e-05 17.1662,-1e-05 L17.1662,1.999991 Z M27.9999,3.42274 C30.7299,4.20584 32.792,7.07361 32.792,10.38435 L34.792,10.38435 C34.792,6.31068 32.2571,2.56327 28.5513,1.500271 L27.9999,3.42274 Z M32.792,10.38435 L32.792,30.0761 L34.792,30.0761 L34.792,10.38435 L32.792,10.38435 Z" id="path4_stroke"></path>
                </g>
            </g>
            <g id="Vector" transform="translate(9.000000, 4.000000)" fill="#FFFFFF">
                <g id="path5_stroke-link" transform="translate(0.500000, 0.200000)">
                    <path d="M6.89948,13.5381 L6.3632,13.5381 L6.3632,15.5381 L6.89948,15.5381 L6.89948,13.5381 Z M6.3632,13.5381 C3.93116,13.5381 2.00002,11.605 2.00002,9.15362 L1.9e-05,9.15362 C1.9e-05,12.7021 2.81913,15.5381 6.3632,15.5381 L6.3632,13.5381 Z M2.00002,9.15362 L2.00002,6.38447 L1.9e-05,6.38447 L1.9e-05,9.15362 L2.00002,9.15362 Z M2.00002,6.38447 C2.00002,3.9331 3.93116,2 6.3632,2 L6.3632,5e-06 C2.81913,5e-06 1.9e-05,2.836 1.9e-05,6.38447 L2.00002,6.38447 Z M6.3632,2 L6.89948,2 L6.89948,5e-06 L6.3632,5e-06 L6.3632,2 Z M6.89948,2 C9.33153,2 11.2627,3.9331 11.2627,6.38447 L13.2627,6.38447 C13.2627,2.836 10.44356,5e-06 6.89948,5e-06 L6.89948,2 Z M11.2627,6.38447 L11.2627,9.15362 L13.2627,9.15362 L13.2627,6.38447 L11.2627,6.38447 Z M11.2627,9.15362 C11.2627,11.5281 9.25491,13.5381 6.89948,13.5381 L6.89948,15.5381 C10.36694,15.5381 13.2627,12.6252 13.2627,9.15362 L11.2627,9.15362 Z" id="path5_stroke"></path>
                </g>
            </g>
            <g id="Vector" transform="translate(0.000000, 22.000000)" fill="#FFFFFF">
                <g id="path6_stroke-link" transform="translate(0.000000, 0.600000)">
                    <path d="M0,26.0762 C0,26.6285 0.447715,27.0762 1,27.0762 C1.552285,27.0762 2,26.6285 2,26.0762 L0,26.0762 Z M6.13334,2.4615 L5.85012,1.50236 L5.83819,1.506046 L6.13334,2.4615 Z M25.0235,3.11832 C25.5562,3.26417 26.1062,2.95058 26.2521,2.41791 C26.3979,1.885229 26.0843,1.335171 25.5517,1.189319 L25.0235,3.11832 Z M2,26.0762 L2,9.92283 L0,9.92283 L0,26.0762 L2,26.0762 Z M2,9.92283 C2,6.77629 3.90253,4.19725 6.42849,3.41695 L5.83819,1.506046 C2.38804,2.57184 0,5.99265 0,9.92283 L2,9.92283 Z M6.41654,3.42056 C8.95097,2.67218 12.302,2 16.0935,2 L16.0935,5e-06 C12.0702,5e-06 8.52567,0.712394 5.85015,1.502435 L6.41654,3.42056 Z M16.0935,2 C20.3636,2 22.5732,2.44741 25.0235,3.11832 L25.5517,1.189319 C22.9452,0.475653 20.5578,5e-06 16.0935,5e-06 L16.0935,2 Z" id="path6_stroke"></path>
                </g>
            </g>
            <g id="Vector" transform="translate(56.000000, 4.000000)" fill="#FFFFFF">
                <g id="path7_stroke-link" transform="translate(0.240000, 0.200000)">
                    <path d="M6.3632,15.5381 L6.89948,15.5381 L6.89948,13.5381 L6.3632,13.5381 L6.3632,15.5381 Z M6.89948,15.5381 C10.44356,15.5381 13.2627,12.7021 13.2627,9.15362 L11.2627,9.15362 C11.2627,11.605 9.33153,13.5381 6.89948,13.5381 L6.89948,15.5381 Z M13.2627,9.15362 L13.2627,6.38447 L11.2627,6.38447 L11.2627,9.15362 L13.2627,9.15362 Z M13.2627,6.38447 C13.2627,2.836 10.44356,5e-06 6.89948,5e-06 L6.89948,2 C9.33153,2 11.2627,3.9331 11.2627,6.38447 L13.2627,6.38447 Z M6.89948,5e-06 L6.3632,5e-06 L6.3632,2 L6.89948,2 L6.89948,5e-06 Z M6.3632,5e-06 C2.81913,5e-06 1.9e-05,2.836 1.9e-05,6.38447 L2.00002,6.38447 C2.00002,3.9331 3.93116,2 6.3632,2 L6.3632,5e-06 Z M1.9e-05,6.38447 L1.9e-05,9.15362 L2.00002,9.15362 L2.00002,6.38447 L1.9e-05,6.38447 Z M1.9e-05,9.15362 C1.9e-05,12.6158 2.80988,15.5381 6.3632,15.5381 L6.3632,13.5381 C3.9404,13.5381 2.00002,11.5374 2.00002,9.15362 L1.9e-05,9.15362 Z" id="path7_stroke"></path>
                </g>
            </g>
            <g id="Vector" transform="translate(52.000000, 22.000000)" fill="#FFFFFF">
                <g id="path8_stroke-link" transform="translate(0.710000, 0.600000)">
                    <path d="M24.2876,26.0762 C24.2876,26.6285 24.7353,27.0762 25.2876,27.0762 C25.8398,27.0762 26.2876,26.6285 26.2876,26.0762 L24.2876,26.0762 Z M20.1542,2.4615 L20.4494,1.505971 L20.4374,1.502435 L20.1542,2.4615 Z M0.735902,1.189319 C0.203224,1.335171 -0.11036,1.885229 0.035492,2.41791 C0.181344,2.95058 0.731402,3.26417 1.264079,3.11832 L0.735902,1.189319 Z M26.2876,26.0762 L26.2876,9.92283 L24.2876,9.92283 L24.2876,26.0762 L26.2876,26.0762 Z M26.2876,9.92283 C26.2876,5.99265 23.8995,2.57184 20.4494,1.506046 L19.8591,3.41695 C22.385,4.19725 24.2876,6.77629 24.2876,9.92283 L26.2876,9.92283 Z M20.4374,1.502435 C17.7619,0.712394 14.2174,5e-06 10.19402,5e-06 L10.19402,2 C13.9856,2 17.3366,2.67218 19.871,3.42056 L20.4374,1.502435 Z M10.19402,5e-06 C5.72973,5e-06 3.34234,0.475653 0.735902,1.189319 L1.264079,3.11832 C3.71436,2.44741 5.92398,2 10.19402,2 L10.19402,5e-06 Z" id="path8_stroke"></path>
                </g>
            </g>
        </g>
    </g>
</svg>