<?xml version="1.0" encoding="UTF-8"?>
<svg width="100px" height="72px" viewBox="0 0 100 72" version="1.1" xmlns="http://www.w3.org/2000/svg" xmlns:xlink="http://www.w3.org/1999/xlink">
    <!-- Generator: Sketch 49.1 (51147) - http://www.bohemiancoding.com/sketch -->
    <title>icCoinJoin</title>
    <desc>Created with Sketch.</desc>
    <defs></defs>
    <g id="icCoinJoin" stroke="none" stroke-width="1" fill="none" fill-rule="evenodd">
        <g id="coin-join" transform="translate(10.000000, 0.000000)" fill-rule="nonzero">
            <g id="Vector" transform="translate(10.000000, 34.000000)" fill="#0072FF">
                <g id="path0_stroke-link" transform="translate(0.270000, 0.800000)">
                    <path d="M34.4791,27.85 C34.747,27.7831 34.9099,27.5116 34.8429,27.2437 C34.776,26.9758 34.5045,26.8129 34.2366,26.8798 L34.4791,27.85 Z M1.50002,1.00000125 C1.50002,0.723859 1.276162,0.500001 1.00002006,0.500001 C0.723878,0.500001 0.50002,0.723859 0.50002,1.00000125 L1.50002,1.00000125 Z M34.2366,26.8798 C32.3078,27.3619 30.2126,27.6041 28.1135,27.6041 L28.1135,28.6041 C30.2869,28.6041 32.4641,28.3536 34.4791,27.85 L34.2366,26.8798 Z M28.1135,27.6041 C13.436,27.6041 1.50002,15.672 1.50002,1.00000125 L0.50002,1.00000125 C0.50002,16.2246 12.884,28.6041 28.1135,28.6041 L28.1135,27.6041 Z" id="path0_stroke"></path>
                </g>
            </g>
            <g id="Vector" transform="translate(62.000000, 24.000000)" fill="#0072FF">
                <g id="path1_stroke-link" transform="translate(0.280000, 0.100000)">
                    <path d="M1.460151,0.804372 C1.352109,0.550243 1.0585113,0.431816 0.804382,0.539858 C0.550253,0.6479 0.431827,0.9414981 0.539869,1.195627 L1.460151,0.804372 Z M2.7184,11.7595 C2.7184,12.0357 2.94226,12.2595 3.2184,12.2595 C3.49454,12.2595 3.7184,12.0357 3.7184,11.7595 L2.7184,11.7595 Z M0.539869,1.195627 C1.912022,4.4231 2.7184,8.0528 2.7184,11.7595 L3.7184,11.7595 C3.7184,7.90993 2.88151,4.14759 1.460151,0.804372 L0.539869,1.195627 Z" id="path1_stroke"></path>
                </g>
            </g>
            <g id="Vector" transform="translate(32.000000, 7.000000)" fill="#0072FF">
                <g id="path2_stroke-link" transform="translate(0.620000, 0.800000)">
                    <path d="M0.922025,0.916783 C0.649259,0.9598363 0.463041,1.215858 0.506094,1.488624 C0.549148,1.761389 0.805169,1.947608 1.0779349,1.904554 L0.922025,0.916783 Z M18.5872,4.80504 C18.8289,4.93867 19.1331,4.8511 19.2667,4.60945 C19.4004,4.3678 19.3128,4.06356 19.0711,3.92993 L18.5872,4.80504 Z M1.0779349,1.904554 C2.62203,1.660834 4.1559,1.5 5.76543,1.5 L5.76543,0.5 C4.08847,0.5 2.50009,0.667701 0.922025,0.916783 L1.0779349,1.904554 Z M5.76543,1.5 C10.44316,1.5 14.797,2.70903 18.5872,4.80504 L19.0711,3.92993 C15.1382,1.754984 10.6185,0.5 5.76543,0.5 L5.76543,1.5 Z" id="path2_stroke"></path>
                </g>
            </g>
            <g id="Vector" fill="#FFFFFF">
                <g id="path3_stroke-link" transform="translate(0.000000, 0.600000)">
                    <path d="M35.6584,18.823 C35.6584,28.1138 28.124,35.646 18.8292,35.646 L18.8292,37.646 C29.2279,37.646 37.6584,29.219 37.6584,18.823 L35.6584,18.823 Z M18.8292,35.646 C9.53434,35.646 2.00002,28.1138 2.00002,18.823 L2e-05,18.823 C2e-05,29.219 8.43042,37.646 18.8292,37.646 L18.8292,35.646 Z M2.00002,18.823 C2.00002,9.53224 9.53434,2 18.8292,2 L18.8292,0 C8.43042,0 2e-05,8.42703 2e-05,18.823 L2.00002,18.823 Z M18.8292,2 C28.124,2 35.6584,9.53225 35.6584,18.823 L37.6584,18.823 C37.6584,8.42702 29.2279,0 18.8292,0 L18.8292,2 Z" id="path3_stroke"></path>
                </g>
            </g>
            <g id="path0-fill-7" transform="translate(9.000000, 10.000000)" fill="#0072FF">
                <g id="path4_fill-link" transform="translate(0.380000, 0.900000)">
                    <path d="M13.1459,1.80694 L7.31243,14.4555 L5.34052,14.4555 L11.667,0.574936 C12.3243,0.903471 12.8173,1.31414 13.1459,1.80694 Z M9.44863,3.13315e-07 C10.1059,3.13315e-07 10.7633,0.164268 11.3384,0.410669 L4.92971,14.5377 L4.68323,14.5377 C4.1081,14.5377 3.53296,14.3734 3.03999,14.2091 L9.44863,3.13315e-07 Z M17.0897,5.83149 C17.5006,6.16003 17.8292,6.48856 18.1578,6.89923 L14.707,14.4555 C14.5427,14.4555 14.3784,14.5377 14.2962,14.5377 L13.2281,14.5377 L17.0897,5.83149 Z M15.8573,14.2091 L18.733,7.96697 C18.8973,8.45977 18.9795,9.03471 18.9795,9.60964 C18.9795,11.7451 17.6649,13.4699 15.8573,14.2091 Z M14.2141,4.84589 L9.7773,14.4555 L7.96972,14.4555 L13.4746,2.29974 C13.9676,3.12108 14.2141,3.94242 14.2141,4.84589 Z M9.12001,3.13315e-07 L2.71137,14.0449 C1.06813,13.3057 -2.00591e-05,11.5809 -2.00591e-05,9.69178 C-2.00591e-05,7.0635 2.13624,4.84589 4.76543,4.84589 C4.68326,2.29974 6.65514,0.164268 9.12001,3.13315e-07 Z M16.3503,5.33869 L12.2422,14.4555 L10.5989,14.4555 L14.9535,4.84589 C15.4465,4.92802 15.9395,5.17442 16.3503,5.33869 Z" id="path4_fill"></path>
                </g>
            </g>
            <g id="Vector" transform="translate(41.000000, 34.000000)" fill="#FFFFFF">
                <g id="path5_stroke-link" transform="translate(0.330000, 0.000000)">
                    <path d="M35.6584,18.823 C35.6584,28.1138 28.124,35.646 18.8292,35.646 L18.8292,37.646 C29.228,37.646 37.6584,29.219 37.6584,18.823 L35.6584,18.823 Z M18.8292,35.646 C9.53438,35.646 2.00001,28.1138 2.00001,18.823 L1e-05,18.823 C1e-05,29.219 8.43046,37.646 18.8292,37.646 L18.8292,35.646 Z M2.00001,18.823 C2.00001,9.53225 9.53438,2 18.8292,2 L18.8292,1e-06 C8.43046,1e-06 1e-05,8.42702 1e-05,18.823 L2.00001,18.823 Z M18.8292,2 C28.124,2 35.6584,9.53224 35.6584,18.823 L37.6584,18.823 C37.6584,8.42703 29.228,1e-06 18.8292,1e-06 L18.8292,2 Z" id="path5_stroke"></path>
                </g>
            </g>
            <g id="path0-fill-6" transform="translate(50.000000, 44.000000)" fill="#0072FF">
                <g id="path6_fill-link" transform="translate(0.710000, 0.400000)">
                    <path d="M13.146,1.80694 L7.31242,14.4555 L5.4227,14.4555 L11.7492,0.574936 C12.3243,0.903471 12.7352,1.31414 13.146,1.80694 Z M9.44867,-6.26631e-07 C10.106,-6.26631e-07 10.7633,0.164267 11.3384,0.410668 L4.92975,14.5377 L4.68322,14.5377 C4.10809,14.5377 3.53295,14.3734 3.03998,14.2091 L9.44867,-6.26631e-07 Z M17.0897,5.83149 C17.5006,6.16003 17.8292,6.48856 18.1578,6.89923 L14.707,14.4555 C14.5427,14.4555 14.3784,14.5377 14.2962,14.5377 L13.2281,14.5377 L17.0897,5.83149 Z M15.8573,14.2091 L18.733,7.96697 C18.8973,8.45977 18.9795,9.03471 18.9795,9.60964 C18.9795,11.7451 17.6649,13.5521 15.8573,14.2091 Z M14.2141,4.84589 L9.77729,14.5377 L7.96971,14.5377 L13.4746,2.38188 C13.9676,3.12108 14.2141,3.94242 14.2141,4.84589 Z M9.12,-6.26631e-07 L2.71136,14.0449 C1.06812,13.3057 2.00591e-05,11.5809 2.00591e-05,9.69178 C2.00591e-05,7.0635 2.13623,4.84589 4.76542,4.84589 C4.68325,2.29974 6.65514,0.164267 9.12,-6.26631e-07 Z M16.3503,5.42083 L12.2422,14.5377 L10.5989,14.5377 L14.9535,4.92802 C15.4465,5.01016 15.9394,5.17443 16.3503,5.42083 Z" id="path6_fill"></path>
                </g>
            </g>
            <g id="Vector" transform="translate(50.000000, 10.000000)" fill="#FFFFFF">
                <g id="path7_stroke-link" transform="translate(0.450000, 0.400000)">
                    <path d="M0.99999,1 L0.99999,0 L-1e-05,0 L-1e-05,1 L0.99999,1 Z M17.0216,1 L18.0216,1 L18.0216,0 L17.0216,0 L17.0216,1 Z M17.0216,8.22777 L18.0216,8.22777 L17.0216,8.22777 Z M10.20216,14.0449 L7.81944,14.0449 L7.81944,16.0449 L10.20216,16.0449 L10.20216,14.0449 Z M7.81944,14.0449 C4.59194,14.0449 1.99999,11.4533 1.99999,8.22777 L-1e-05,8.22777 C-1e-05,12.5585 3.48802,16.0449 7.81944,16.0449 L7.81944,14.0449 Z M1.99999,8.22777 L1.99999,0.999999843 L-1e-05,0.999999843 L-1e-05,8.22777 L1.99999,8.22777 Z M0.99998997,2 L17.0216,2 L17.0216,0 L0.99998997,0 L0.99998997,2 Z M16.0216,0.999999843 L16.0216,8.22777 L18.0216,8.22777 L18.0216,0.999999843 L16.0216,0.999999843 Z M16.0216,8.22777 C16.0216,11.4455 13.3553,14.0449 10.20216,14.0449 L10.20216,16.0449 C14.4436,16.0449 18.0216,12.5663 18.0216,8.22777 L16.0216,8.22777 Z" id="path7_stroke"></path>
                </g>
            </g>
            <g id="Vector" transform="translate(53.000000, 0.000000)" fill="#FFFFFF">
                <g id="path8_stroke-link" transform="translate(0.410000, 0.000000)">
                    <path d="M2.00002,10.93818 L2.00002,6.01016 L2e-05,6.01016 L2e-05,10.93818 L2.00002,10.93818 Z M2.00002,6.01016 C2.00002,3.84167 3.78097,2 6.01189,2 L6.01189,0 C2.65579,0 2e-05,2.75782 2e-05,6.01016 L2.00002,6.01016 Z M6.01189,2 C8.18196,2 10.02376,3.78084 10.02376,6.01016 L12.0238,6.01016 C12.0238,2.65438 9.26452,0 6.01189,0 L6.01189,2 Z M10.02376,6.01016 L10.02376,11.431 L12.0238,11.431 L12.0238,6.01016 L10.02376,6.01016 Z" id="path8_stroke"></path>
                </g>
            </g>
        </g>
    </g>
</svg>