<?xml version="1.0" encoding="UTF-8"?>
<svg width="100px" height="59px" viewBox="0 0 100 59" version="1.1" xmlns="http://www.w3.org/2000/svg" xmlns:xlink="http://www.w3.org/1999/xlink">
    <!-- Generator: Sketch 49.1 (51147) - http://www.bohemiancoding.com/sketch -->
    <title>icCx</title>
    <desc>Created with Sketch.</desc>
    <defs></defs>
    <g id="icCx" stroke="none" stroke-width="1" fill="none" fill-rule="evenodd">
        <g id="cx" transform="translate(13.000000, 0.000000)" fill-rule="nonzero">
            <g id="Vector" transform="translate(4.000000, 0.000000)" fill="#FFFFFF">
                <g id="path0_stroke-link" transform="translate(0.930000, 0.000000)">
                    <path d="M54.7341,44.6807 L7.90163,44.6807 L7.90163,46.6807 L54.7341,46.6807 L54.7341,44.6807 Z M7.90163,44.6807 C4.67413,44.6807 1.99999,42.007 1.99999,38.7815 L-1e-05,38.7815 C-1e-05,43.1123 3.57022,46.6807 7.90163,46.6807 L7.90163,44.6807 Z M1.99999,38.7815 L1.99999,7.89923 L-1e-05,7.89923 L-1e-05,38.7815 L1.99999,38.7815 Z M1.99999,7.89923 C1.99999,4.6737 4.67413,1.999995 7.90163,1.999995 L7.90163,-1e-05 C3.57022,-1e-05 -1e-05,3.56847 -1e-05,7.89923 L1.99999,7.89923 Z M7.90163,1.999995 L54.7341,1.999995 L54.7341,-1e-05 L7.90163,-1e-05 L7.90163,1.999995 Z M54.7341,1.999995 C57.9615,1.999995 60.6356,4.67369 60.6356,7.89923 L62.6356,7.89923 C62.6356,3.56848 59.0655,-1e-05 54.7341,-1e-05 L54.7341,1.999995 Z M60.6356,7.89923 L60.6356,38.7815 L62.6356,38.7815 L62.6356,7.89923 L60.6356,7.89923 Z M60.6356,38.7815 C60.6356,42.0148 58.036,44.6807 54.7341,44.6807 L54.7341,46.6807 C59.1554,46.6807 62.6356,43.1045 62.6356,38.7815 L60.6356,38.7815 Z" id="path0_stroke"></path>
                </g>
            </g>
            <g id="Vector" transform="translate(0.000000, 51.000000)" fill="#FFFFFF">
                <g id="path1_stroke-link" transform="translate(0.000000, 0.700000)">
                    <path d="M70.5092,4.92801 L3.46485,4.92801 L3.46485,6.92801 L70.5092,6.92801 L70.5092,4.92801 Z M3.46485,4.92801 C2.68042,4.92801 1.99999,4.28612 1.99999,3.464 L-1e-05,3.464 C-1e-05,5.43443 1.620103,6.92801 3.46485,6.92801 L3.46485,4.92801 Z M1.99999,3.464 C1.99999,2.68069 2.6416,2 3.46485,2 L3.46485,3e-06 C1.494595,3e-06 -1e-05,1.619038 -1e-05,3.464 L1.99999,3.464 Z M3.46485,2 L70.5092,2 L70.5092,3e-06 L3.46485,3e-06 L3.46485,2 Z M70.5092,2 C71.2936,2 71.9741,2.64189 71.9741,3.464 L73.9741,3.464 C73.9741,1.493567 72.354,3e-06 70.5092,3e-06 L70.5092,2 Z M71.9741,3.464 C71.9741,4.30766 71.354,4.92801 70.5092,4.92801 L70.5092,6.92801 C72.4579,6.92801 73.9741,5.41289 73.9741,3.464 L71.9741,3.464 Z" id="path1_stroke"></path>
                </g>
            </g>
            <g id="Vector" transform="translate(15.000000, 10.000000)" fill="#0072FF">
                <g id="path2_stroke-link" transform="translate(0.610000, 0.700000)">
                    <path d="M0.99998997,0.499994 C0.723848,0.499994 0.49999,0.723852 0.49999,0.999993896 C0.49999,1.276136 0.723848,1.499994 0.99998997,1.499994 L0.99998997,0.499994 Z M36.8227,1.499994 C37.0989,1.499994 37.3227,1.276136 37.3227,0.999993896 C37.3227,0.723852 37.0989,0.499994 36.8227,0.499994 L36.8227,1.499994 Z M0.99998997,1.499994 L36.8227,1.499994 L36.8227,0.499994 L0.99998997,0.499994 L0.99998997,1.499994 Z" id="path2_stroke"></path>
                </g>
            </g>
            <g id="Vector" transform="translate(15.000000, 20.000000)" fill="#0072FF">
                <g id="path3_stroke-link" transform="translate(0.610000, 0.500000)">
                    <path d="M0.99998997,0.500003 C0.723848,0.500003 0.49999,0.723861 0.49999,1.00000305 C0.49999,1.276145 0.723848,1.500003 0.99998997,1.500003 L0.99998997,0.500003 Z M36.8227,1.500003 C37.0989,1.500003 37.3227,1.276145 37.3227,1.00000305 C37.3227,0.723861 37.0989,0.500003 36.8227,0.500003 L36.8227,1.500003 Z M0.99998997,1.500003 L36.8227,1.500003 L36.8227,0.500003 L0.99998997,0.500003 L0.99998997,1.500003 Z" id="path3_stroke"></path>
                </g>
            </g>
            <g id="Vector" transform="translate(15.000000, 30.000000)" fill="#0072FF">
                <g id="path4_stroke-link" transform="translate(0.610000, 0.300000)">
                    <path d="M0.99998997,0.500003 C0.723848,0.500003 0.49999,0.723861 0.49999,1.00000305 C0.49999,1.276145 0.723848,1.500003 0.99998997,1.500003 L0.99998997,0.500003 Z M21.5405,1.500003 C21.8167,1.500003 22.0405,1.276145 22.0405,1.00000305 C22.0405,0.723861 21.8167,0.500003 21.5405,0.500003 L21.5405,1.500003 Z M0.99998997,1.500003 L21.5405,1.500003 L21.5405,0.500003 L0.99998997,0.500003 L0.99998997,1.500003 Z" id="path4_stroke"></path>
                </g>
            </g>
            <g id="Vector" transform="translate(39.000000, 26.000000)" fill="#0072FF">
                <g id="path5_stroke-link" transform="translate(0.520000, 0.900000)">
                    <path d="M1.349229,0.642152 C1.151596,0.44929 0.835037,0.453156 0.642175,0.650789 C0.449312,0.848421 0.453179,1.16498 0.650811,1.357843 L1.349229,0.642152 Z M4.45079,4.36749 L4.80428,4.7211 C4.89883,4.62659 4.95159,4.49815 4.95078,4.36447 C4.94998,4.23079 4.89567,4.10301 4.8,4.00964 L4.45079,4.36749 Z M0.646526,7.46349 C0.451231,7.65872 0.451178,7.9753 0.646407,8.17059 C0.841637,8.36589 1.158219,8.36594 1.353514,8.17071 L0.646526,7.46349 Z M0.650811,1.357843 L4.10158,4.72533 L4.8,4.00964 L1.349229,0.642152 L0.650811,1.357843 Z M4.0973,4.01387 L0.646526,7.46349 L1.353514,8.17071 L4.80428,4.7211 L4.0973,4.01387 Z" id="path5_stroke"></path>
                </g>
            </g>
        </g>
    </g>
</svg>