<?xml version="1.0" encoding="UTF-8"?>
<svg width="100px" height="62px" viewBox="0 0 100 62" version="1.1" xmlns="http://www.w3.org/2000/svg" xmlns:xlink="http://www.w3.org/1999/xlink">
    <!-- Generator: Sketch 49.1 (51147) - http://www.bohemiancoding.com/sketch -->
    <title>icCxo</title>
    <desc>Created with Sketch.</desc>
    <defs></defs>
    <g id="icCxo" stroke="none" stroke-width="1" fill="none" fill-rule="evenodd">
        <g id="cxo" transform="translate(11.000000, 0.000000)" fill-rule="nonzero">
            <g id="Vector" transform="translate(19.000000, 0.000000)" fill="#0072FF">
                <g id="path0_stroke-link" transform="translate(0.390000, 0.000000)">
                    <path d="M30.5784,28.254 C30.0261,28.254 29.5784,28.7017 29.5784,29.254 C29.5784,29.8063 30.0261,30.254 30.5784,30.254 L30.5784,28.254 Z M42.9849,11.0203 L42.0259,11.304 C42.1133,11.5991 42.3316,11.8376 42.6179,11.9505 C42.9041,12.0635 43.2265,12.0383 43.4917,11.8823 L42.9849,11.0203 Z M15.3784,13.5665 L14.7589,14.3514 C15.045,14.5772 15.4312,14.6295 15.7671,14.4878 C16.1029,14.3462 16.335,14.033 16.373,13.6706 L15.3784,13.5665 Z M6.49003,29.5361 C7.00871,29.7258 7.58297,29.4591 7.77266,28.9404 C7.96236,28.4217 7.69566,27.8475 7.17698,27.6578 L6.49003,29.5361 Z M30.5784,30.254 L47.9146,30.254 L47.9146,28.254 L30.5784,28.254 L30.5784,30.254 Z M47.9146,30.254 C53.8892,30.254 58.6919,25.4535 58.6919,19.4801 L56.6919,19.4801 C56.6919,24.3483 52.7853,28.254 47.9146,28.254 L47.9146,30.254 Z M58.6919,19.4801 C58.6919,13.5067 53.8892,8.70617 47.9146,8.70617 L47.9146,10.70617 C52.7853,10.70617 56.6919,14.6119 56.6919,19.4801 L58.6919,19.4801 Z M47.9146,8.70617 C45.9297,8.70617 44.0292,9.24615 42.478,10.1583 L43.4917,11.8823 C44.7341,11.1518 46.2843,10.70617 47.9146,10.70617 L47.9146,8.70617 Z M43.9438,10.7366 C42.0932,4.48202 36.2815,5e-06 29.4281,5e-06 L29.4281,2.00001 C35.3919,2.00001 40.4257,5.89562 42.0259,11.304 L43.9438,10.7366 Z M29.4281,5e-06 C21.6031,5e-06 15.1765,5.89018 14.3838,13.4623 L16.373,13.6706 C17.0592,7.11572 22.6282,2.00001 29.4281,2.00001 L29.4281,5e-06 Z M15.9979,12.7815 C14.2986,11.4404 12.1967,10.51311 9.79137,10.51311 L9.79137,12.5131 C11.6584,12.5131 13.336,13.2285 14.7589,14.3514 L15.9979,12.7815 Z M9.79137,10.51311 C4.39185,10.51311 1e-05,14.9029 1e-05,20.3014 L2.00001,20.3014 C2.00001,16.0082 5.49576,12.5131 9.79137,12.5131 L9.79137,10.51311 Z M1e-05,20.3014 C1e-05,24.6057 2.75031,28.1684 6.49003,29.5361 L7.17698,27.6578 C4.1794,26.5615 2.00001,23.7177 2.00001,20.3014 L1e-05,20.3014 Z" id="path0_stroke"></path>
                </g>
            </g>
            <g id="Vector" transform="translate(0.000000, 23.000000)" fill="#FFFFFF">
                <g id="path1_stroke-link" transform="translate(0.000000, 0.600000)">
                    <path d="M58.5135,37.1388 L57.5135,37.1388 L57.5135,38.1388 L58.5135,38.1388 L58.5135,37.1388 Z M55.8021,19.6444 L54.8021,19.6444 L54.8021,20.9535 L56.0652,20.6091 L55.8021,19.6444 Z M20.9654,12.2523 L20.4617,13.1162 L21.4524,13.6939 L21.8898,12.6338 L20.9654,12.2523 Z M58.5135,37.0567 L59.5135,37.0567 L59.5135,36.0567 L58.5135,36.0567 L58.5135,37.0567 Z M58.5135,38.1388 C63.9952,38.1388 68.4692,33.6669 68.4692,28.1863 L66.4692,28.1863 C66.4692,32.5617 62.8913,36.1388 58.5135,36.1388 L58.5135,38.1388 Z M68.4692,28.1863 C68.4692,22.7056 63.9952,18.2337 58.5135,18.2337 L58.5135,20.2337 C62.8913,20.2337 66.4692,23.8108 66.4692,28.1863 L68.4692,28.1863 Z M58.5135,18.2337 C57.4908,18.2337 56.4937,18.4193 55.5391,18.6796 L56.0652,20.6091 C56.9181,20.3766 57.7286,20.2337 58.5135,20.2337 L58.5135,18.2337 Z M56.8021,19.6444 C56.8021,19.644 56.8021,19.6437 56.8021,19.6434 C56.8021,19.6431 56.8021,19.6427 56.8021,19.6424 C56.8021,19.6421 56.8021,19.6418 56.8021,19.6415 C56.8021,19.6411 56.8021,19.6408 56.8021,19.6405 C56.8021,19.6402 56.8021,19.6398 56.8021,19.6395 C56.8021,19.6392 56.8021,19.6389 56.8021,19.6385 C56.8021,19.6382 56.8021,19.6379 56.8021,19.6376 C56.8021,19.6372 56.8021,19.6369 56.8021,19.6366 C56.8021,19.6363 56.8021,19.6359 56.8021,19.6356 C56.8021,19.6353 56.8021,19.635 56.8021,19.6346 C56.8021,19.6343 56.8021,19.634 56.8021,19.6337 C56.8021,19.6333 56.8021,19.633 56.8021,19.6327 C56.8021,19.6323 56.8021,19.632 56.8021,19.6317 C56.8021,19.6314 56.8021,19.631 56.8021,19.6307 C56.8021,19.6304 56.8021,19.63 56.8021,19.6297 C56.8021,19.6294 56.8021,19.629 56.8021,19.6287 C56.8021,19.6284 56.8021,19.6281 56.8021,19.6277 C56.8021,19.6274 56.8021,19.6271 56.8021,19.6267 C56.8021,19.6264 56.8021,19.6261 56.8021,19.6257 C56.8021,19.6254 56.8021,19.6251 56.8021,19.6247 C56.8021,19.6244 56.8021,19.6241 56.8021,19.6237 C56.8021,19.6234 56.8021,19.6231 56.8021,19.6227 C56.8021,19.6224 56.8021,19.6221 56.8021,19.6217 C56.8021,19.6214 56.8021,19.6211 56.8021,19.6207 C56.8021,19.6204 56.8021,19.6201 56.8021,19.6197 C56.8021,19.6194 56.8021,19.6191 56.8021,19.6187 C56.8021,19.6184 56.8021,19.618 56.8021,19.6177 C56.8021,19.6174 56.8021,19.617 56.8021,19.6167 C56.8021,19.6164 56.8021,19.616 56.8021,19.6157 C56.8021,19.6153 56.8021,19.615 56.8021,19.6147 C56.8021,19.6143 56.8021,19.614 56.8021,19.6136 C56.8021,19.6133 56.8021,19.613 56.8021,19.6126 C56.8021,19.6123 56.8021,19.612 56.8021,19.6116 C56.8021,19.6113 56.8021,19.6109 56.8021,19.6106 C56.8021,19.6103 56.8021,19.6099 56.8021,19.6096 C56.8021,19.6092 56.8021,19.6089 56.8021,19.6085 C56.8021,19.6082 56.8021,19.6079 56.8021,19.6075 C56.8021,19.6072 56.8021,19.6068 56.8021,19.6065 C56.8021,19.6061 56.8021,19.6058 56.8021,19.6055 C56.8021,19.6051 56.8021,19.6048 56.8021,19.6044 C56.8021,19.6041 56.8021,19.6037 56.8021,19.6034 C56.8021,19.6031 56.8021,19.6027 56.8021,19.6024 C56.8021,19.602 56.8021,19.6017 56.8021,19.6013 C56.8021,19.601 56.8021,19.6006 56.8021,19.6003 C56.8021,19.5999 56.8021,19.5996 56.8021,19.5992 C56.8021,19.5989 56.8021,19.5986 56.8021,19.5982 C56.8021,19.5979 56.8021,19.5975 56.8021,19.5972 C56.8021,19.5968 56.8021,19.5965 56.8021,19.5961 C56.8021,19.5958 56.8021,19.5954 56.8021,19.5951 C56.8021,19.5947 56.8021,19.5944 56.8021,19.594 C56.8021,19.5937 56.8021,19.5933 56.8021,19.593 C56.8021,19.5926 56.8021,19.5923 56.8021,19.5919 C56.8021,19.5916 56.8021,19.5912 56.8021,19.5909 C56.8021,19.5905 56.8021,19.5902 56.8021,19.5898 C56.8021,19.5895 56.8021,19.5891 56.8021,19.5888 C56.8021,19.5884 56.8021,19.5881 56.8021,19.5877 C56.8021,19.5874 56.8021,19.587 56.8021,19.5867 C56.8021,19.5863 56.8021,19.586 56.8021,19.5856 C56.8021,19.5853 56.8021,19.5849 56.8021,19.5845 C56.8021,19.5842 56.8021,19.5838 56.8021,19.5835 C56.8021,19.5831 56.8021,19.5828 56.8021,19.5824 C56.8021,19.5821 56.8021,19.5817 56.8021,19.5814 C56.8021,19.581 56.8021,19.5806 56.8021,19.5803 C56.8021,19.5799 56.8021,19.5796 56.8021,19.5792 C56.8021,19.5789 56.8021,19.5785 56.8021,19.5782 C56.8021,19.5778 56.8021,19.5774 56.8021,19.5771 C56.8021,19.5767 56.8021,19.5764 56.8021,19.576 C56.8021,19.5757 56.8021,19.5753 56.8021,19.5749 C56.8021,19.5746 56.8021,19.5742 56.8021,19.5739 C56.8021,19.5735 56.8021,19.5732 56.8021,19.5728 C56.8021,19.5724 56.8021,19.5721 56.8021,19.5717 C56.8021,19.5714 56.8021,19.571 56.8021,19.5706 C56.8021,19.5703 56.8021,19.5699 56.8021,19.5696 C56.8021,19.5692 56.8021,19.5688 56.8021,19.5685 C56.8021,19.5681 56.8021,19.5678 56.8021,19.5674 C56.8021,19.567 56.8021,19.5667 56.8021,19.5663 C56.8021,19.566 56.8021,19.5656 56.8021,19.5652 C56.8021,19.5649 56.8021,19.5645 56.8021,19.5641 C56.8021,19.5638 56.8021,19.5634 56.8021,19.5631 C56.8021,19.5627 56.8021,19.5623 56.8021,19.562 C56.8021,19.5616 56.8021,19.5612 56.8021,19.5609 C56.8021,19.5605 56.8021,19.5601 56.8021,19.5598 C56.8021,19.5594 56.8021,19.5591 56.8021,19.5587 C56.8021,19.5583 56.8021,19.558 56.8021,19.5576 C56.8021,19.5572 56.8021,19.5569 56.8021,19.5565 C56.8021,19.5561 56.8021,19.5558 56.8021,19.5554 C56.8021,19.555 56.8021,19.5547 56.8021,19.5543 C56.8021,19.5539 56.8021,19.5536 56.8021,19.5532 C56.8021,19.5528 56.8021,19.5525 56.8021,19.5521 C56.8021,19.5517 56.8021,19.5514 56.8021,19.551 C56.8021,19.5506 56.8021,19.5503 56.8021,19.5499 C56.8021,19.5495 56.8021,19.5492 56.8021,19.5488 C56.8021,19.5484 56.8021,19.5481 56.8021,19.5477 C56.8021,19.5473 56.8021,19.547 56.8021,19.5466 C56.8021,19.5462 56.8021,19.5459 56.8021,19.5455 C56.8021,19.5451 56.8021,19.5447 56.8021,19.5444 C56.8021,19.544 56.8021,19.5436 56.8021,19.5433 C56.8021,19.5429 56.8021,19.5425 56.8021,19.5422 C56.8021,19.5418 56.8021,19.5414 56.8021,19.541 C56.8021,19.5407 56.8021,19.5403 56.8021,19.5399 C56.8021,19.5396 56.8021,19.5392 56.8021,19.5388 C56.8021,19.5384 56.8021,19.5381 56.8021,19.5377 C56.8021,19.5373 56.8021,19.537 56.8021,19.5366 C56.8021,19.5362 56.8021,19.5358 56.8021,19.5355 C56.8021,19.5351 56.8021,19.5347 56.8021,19.5343 C56.8021,19.534 56.8021,19.5336 56.8021,19.5332 C56.8021,19.5329 56.8021,19.5325 56.8021,19.5321 C56.8021,19.5317 56.8021,19.5314 56.8021,19.531 C56.8021,19.5306 56.8021,19.5302 56.8021,19.5299 C56.8021,19.5295 56.8021,19.5291 56.8021,19.5287 C56.8021,19.5284 56.8021,19.528 56.8021,19.5276 C56.8021,19.5272 56.8021,19.5269 56.8021,19.5265 C56.8021,19.5261 56.8021,19.5257 56.8021,19.5254 C56.8021,19.525 56.8021,19.5246 56.8021,19.5242 C56.8021,19.5238 56.8021,19.5235 56.8021,19.5231 C56.8021,19.5227 56.8021,19.5223 56.8021,19.522 C56.8021,19.5216 56.8021,19.5212 56.8021,19.5208 C56.8021,19.5205 56.8021,19.5201 56.8021,19.5197 C56.8021,19.5193 56.8021,19.5189 56.8021,19.5186 C56.8021,19.5182 56.8021,19.5178 56.8021,19.5174 C56.8021,19.5171 56.8021,19.5167 56.8021,19.5163 C56.8021,19.5159 56.8021,19.5155 56.8021,19.5152 C56.8021,19.5148 56.8021,19.5144 56.8021,19.514 C56.8021,19.5136 56.8021,19.5133 56.8021,19.5129 C56.8021,19.5125 56.8021,19.5121 56.8021,19.5117 C56.8021,19.5114 56.8021,19.511 56.8021,19.5106 C56.8021,19.5102 56.8021,19.5098 56.8021,19.5095 C56.8021,19.5091 56.8021,19.5087 56.8021,19.5083 C56.8021,19.5079 56.8021,19.5076 56.8021,19.5072 C56.8021,19.5068 56.8021,19.5064 56.8021,19.506 C56.8021,19.5057 56.8021,19.5053 56.8021,19.5049 C56.8021,19.5045 56.8021,19.5041 56.8021,19.5037 C56.8021,19.5034 56.8021,19.503 56.8021,19.5026 C56.8021,19.5022 56.8021,19.5018 56.8021,19.5014 C56.8021,19.5011 56.8021,19.5007 56.8021,19.5003 C56.8021,19.4999 56.8021,19.4995 56.8021,19.4991 C56.8021,19.4988 56.8021,19.4984 56.8021,19.498 C56.8021,19.4976 56.8021,19.4972 56.8021,19.4968 C56.8021,19.4965 56.8021,19.4961 56.8021,19.4957 C56.8021,19.4953 56.8021,19.4949 56.8021,19.4945 C56.8021,19.4942 56.8021,19.4938 56.8021,19.4934 C56.8021,19.493 56.8021,19.4926 56.8021,19.4922 C56.8021,19.4918 56.8021,19.4915 56.8021,19.4911 C56.8021,19.4907 56.8021,19.4903 56.8021,19.4899 C56.8021,19.4895 56.8021,19.4891 56.8021,19.4888 C56.8021,19.4884 56.8021,19.488 56.8021,19.4876 C56.8021,19.4872 56.8021,19.4868 56.8021,19.4864 C56.8021,19.4861 56.8021,19.4857 56.8021,19.4853 C56.8021,19.4849 56.8021,19.4845 56.8021,19.4841 C56.8021,19.4837 56.8021,19.4833 56.8021,19.483 C56.8021,19.4826 56.8021,19.4822 56.8021,19.4818 C56.8021,19.4814 56.8021,19.481 56.8021,19.4806 C56.8021,19.4802 56.8021,19.4799 56.8021,19.4795 C56.8021,19.4791 56.8021,19.4787 56.8021,19.4783 C56.8021,19.4779 56.8021,19.4775 56.8021,19.4771 C56.8021,19.4768 56.8021,19.4764 56.8021,19.476 C56.8021,19.4756 56.8021,19.4752 56.8021,19.4748 C56.8021,19.4744 56.8021,19.474 56.8021,19.4736 C56.8021,19.4733 56.8021,19.4729 56.8021,19.4725 C56.8021,19.4721 56.8021,19.4717 56.8021,19.4713 C56.8021,19.4709 56.8021,19.4705 56.8021,19.4701 C56.8021,19.4697 56.8021,19.4694 56.8021,19.469 C56.8021,19.4686 56.8021,19.4682 56.8021,19.4678 C56.8021,19.4674 56.8021,19.467 56.8021,19.4666 C56.8021,19.4662 56.8021,19.4658 56.8021,19.4655 C56.8021,19.4651 56.8021,19.4647 56.8021,19.4643 C56.8021,19.4639 56.8021,19.4635 56.8021,19.4631 C56.8021,19.4627 56.8021,19.4623 56.8021,19.4619 C56.8021,19.4615 56.8021,19.4611 56.8021,19.4608 C56.8021,19.4604 56.8021,19.46 56.8021,19.4596 C56.8021,19.4592 56.8021,19.4588 56.8021,19.4584 C56.8021,19.458 56.8021,19.4576 56.8021,19.4572 C56.8021,19.4568 56.8021,19.4564 56.8021,19.456 C56.8021,19.4557 56.8021,19.4553 56.8021,19.4549 C56.8021,19.4545 56.8021,19.4541 56.8021,19.4537 C56.8021,19.4533 56.8021,19.4529 56.8021,19.4525 C56.8021,19.4521 56.8021,19.4517 56.8021,19.4513 C56.8021,19.4509 56.8021,19.4505 56.8021,19.4501 C56.8021,19.4498 56.8021,19.4494 56.8021,19.449 C56.8021,19.4486 56.8021,19.4482 56.8021,19.4478 C56.8021,19.4474 56.8021,19.447 56.8021,19.4466 C56.8021,19.4462 56.8021,19.4458 56.8021,19.4454 C56.8021,19.445 56.8021,19.4446 56.8021,19.4442 C56.8021,19.4438 56.8021,19.4435 56.8021,19.4431 C56.8021,19.4427 56.8021,19.4423 56.8021,19.4419 C56.8021,19.4415 56.8021,19.4411 56.8021,19.4407 C56.8021,19.4403 56.8021,19.4399 56.8021,19.4395 C56.8021,19.4391 56.8021,19.4387 56.8021,19.4383 C56.8021,19.4379 56.8021,19.4375 56.8021,19.4371 C56.8021,19.4367 56.8021,19.4363 56.8021,19.4359 C56.8021,19.4355 56.8021,19.4352 56.8021,19.4348 C56.8021,19.4344 56.8021,19.434 56.8021,19.4336 C56.8021,19.4332 56.8021,19.4328 56.8021,19.4324 C56.8021,19.432 56.8021,19.4316 56.8021,19.4312 C56.8021,19.4308 56.8021,19.4304 56.8021,19.43 C56.8021,19.4296 56.8021,19.4292 56.8021,19.4288 C56.8021,19.4284 56.8021,19.428 56.8021,19.4276 C56.8021,19.4272 56.8021,19.4268 56.8021,19.4264 C56.8021,19.426 56.8021,19.4256 56.8021,19.4252 C56.8021,19.4248 56.8021,19.4244 56.8021,19.424 C56.8021,19.4237 56.8021,19.4233 56.8021,19.4229 C56.8021,19.4225 56.8021,19.4221 56.8021,19.4217 C56.8021,19.4213 56.8021,19.4209 56.8021,19.4205 C56.8021,19.4201 56.8021,19.4197 56.8021,19.4193 C56.8021,19.4189 56.8021,19.4185 56.8021,19.4181 C56.8021,19.4177 56.8021,19.4173 56.8021,19.4169 C56.8021,19.4165 56.8021,19.4161 56.8021,19.4157 C56.8021,19.4153 56.8021,19.4149 56.8021,19.4145 C56.8021,19.4141 56.8021,19.4137 56.8021,19.4133 C56.8021,19.4129 56.8021,19.4125 56.8021,19.4121 C56.8021,19.4117 56.8021,19.4113 56.8021,19.4109 C56.8021,19.4105 56.8021,19.4101 56.8021,19.4097 C56.8021,19.4093 56.8021,19.4089 56.8021,19.4085 C56.8021,19.4081 56.8021,19.4077 56.8021,19.4073 C56.8021,19.4069 56.8021,19.4065 56.8021,19.4061 C56.8021,19.4057 56.8021,19.4053 56.8021,19.4049 C56.8021,19.4045 56.8021,19.4041 56.8021,19.4037 C56.8021,19.4033 56.8021,19.4029 56.8021,19.4025 C56.8021,19.4021 56.8021,19.4017 56.8021,19.4013 C56.8021,19.4009 56.8021,19.4005 56.8021,19.4001 C56.8021,19.3997 56.8021,19.3993 56.8021,19.3989 C56.8021,19.3985 56.8021,19.3981 56.8021,19.3977 C56.8021,19.3973 56.8021,19.3969 56.8021,19.3965 C56.8021,19.3961 56.8021,19.3957 56.8021,19.3953 C56.8021,19.3949 56.8021,19.3945 56.8021,19.3941 C56.8021,19.3937 56.8021,19.3933 56.8021,19.3929 C56.8021,19.3925 56.8021,19.3921 56.8021,19.3917 C56.8021,19.3913 56.8021,19.3909 56.8021,19.3905 C56.8021,19.3901 56.8021,19.3897 56.8021,19.3893 C56.8021,19.3889 56.8021,19.3885 56.8021,19.3881 C56.8021,19.3877 56.8021,19.3873 56.8021,19.3869 C56.8021,19.3865 56.8021,19.3861 56.8021,19.3857 C56.8021,19.3853 56.8021,19.3849 56.8021,19.3845 C56.8021,19.3841 56.8021,19.3837 56.8021,19.3833 C56.8021,19.3829 56.8021,19.3825 56.8021,19.3821 C56.8021,19.3817 56.8021,19.3813 56.8021,19.3809 C56.8021,19.3805 56.8021,19.3801 56.8021,19.3797 C56.8021,19.3793 56.8021,19.3789 56.8021,19.3785 C56.8021,19.3781 56.8021,19.3777 56.8021,19.3773 C56.8021,19.3769 56.8021,19.3765 56.8021,19.3761 C56.8021,19.3757 56.8021,19.3753 56.8021,19.3749 C56.8021,19.3745 56.8021,19.3741 56.8021,19.3737 C56.8021,19.3733 56.8021,19.3729 56.8021,19.3725 C56.8021,19.3721 56.8021,19.3717 56.8021,19.3713 C56.8021,19.3709 56.8021,19.3705 56.8021,19.3701 C56.8021,19.3697 56.8021,19.3693 56.8021,19.3689 C56.8021,19.3685 56.8021,19.3681 56.8021,19.3677 C56.8021,19.3673 56.8021,19.3669 56.8021,19.3665 C56.8021,19.3661 56.8021,19.3657 56.8021,19.3653 C56.8021,19.3649 56.8021,19.3645 56.8021,19.3641 C56.8021,19.3637 56.8021,19.3633 56.8021,19.3629 C56.8021,19.3625 56.8021,19.3621 56.8021,19.3617 C56.8021,19.3613 56.8021,19.3609 56.8021,19.3605 C56.8021,19.3601 56.8021,19.3597 56.8021,19.3593 C56.8021,19.3589 56.8021,19.3585 56.8021,19.3581 C56.8021,19.3577 56.8021,19.3573 56.8021,19.3569 C56.8021,19.3565 56.8021,19.3561 56.8021,19.3557 C56.8021,19.3553 56.8021,19.3549 56.8021,19.3545 C56.8021,19.3541 56.8021,19.3537 56.8021,19.3533 C56.8021,19.3529 56.8021,19.3525 56.8021,19.3521 C56.8021,19.3517 56.8021,19.3513 56.8021,19.3509 C56.8021,19.3505 56.8021,19.3501 56.8021,19.3497 C56.8021,19.3493 56.8021,19.3489 56.8021,19.3485 C56.8021,19.3481 56.8021,19.3477 56.8021,19.3473 C56.8021,19.3469 56.8021,19.3465 56.8021,19.3461 C56.8021,19.3457 56.8021,19.3453 56.8021,19.3449 C56.8021,19.3445 56.8021,19.3441 56.8021,19.3437 C56.8021,19.3433 56.8021,19.3429 56.8021,19.3425 C56.8021,19.3421 56.8021,19.3417 56.8021,19.3412 C56.8021,19.3408 56.8021,19.3404 56.8021,19.34 C56.8021,19.3396 56.8021,19.3392 56.8021,19.3388 C56.8021,19.3384 56.8021,19.338 56.8021,19.3376 C56.8021,19.3372 56.8021,19.3368 56.8021,19.3364 C56.8021,19.336 56.8021,19.3356 56.8021,19.3352 C56.8021,19.3348 56.8021,19.3344 56.8021,19.334 C56.8021,19.3336 56.8021,19.3332 56.8021,19.3328 C56.8021,19.3324 56.8021,19.332 56.8021,19.3316 C56.8021,19.3312 56.8021,19.3308 56.8021,19.3304 C56.8021,19.33 56.8021,19.3296 56.8021,19.3292 C56.8021,19.3288 56.8021,19.3284 56.8021,19.328 C56.8021,19.3276 56.8021,19.3272 56.8021,19.3268 C56.8021,19.3264 56.8021,19.326 56.8021,19.3256 C56.8021,19.3252 56.8021,19.3248 56.8021,19.3244 C56.8021,19.324 56.8021,19.3236 56.8021,19.3232 C56.8021,19.3228 56.8021,19.3224 56.8021,19.322 C56.8021,19.3216 56.8021,19.3212 56.8021,19.3208 C56.8021,19.3204 56.8021,19.32 56.8021,19.3196 C56.8021,19.3192 56.8021,19.3188 56.8021,19.3184 C56.8021,19.318 56.8021,19.3176 56.8021,19.3172 C56.8021,19.3168 56.8021,19.3164 56.8021,19.316 C56.8021,19.3156 56.8021,19.3152 56.8021,19.3148 C56.8021,19.3144 56.8021,19.314 56.8021,19.3136 C56.8021,19.3132 56.8021,19.3128 56.8021,19.3124 C56.8021,19.312 56.8021,19.3116 56.8021,19.3112 C56.8021,19.3108 56.8021,19.3104 56.8021,19.31 C56.8021,19.3096 56.8021,19.3092 56.8021,19.3088 C56.8021,19.3084 56.8021,19.308 56.8021,19.3076 C56.8021,19.3072 56.8021,19.3068 56.8021,19.3064 C56.8021,19.306 56.8021,19.3056 56.8021,19.3053 C56.8021,19.3049 56.8021,19.3045 56.8021,19.3041 C56.8021,19.3037 56.8021,19.3033 56.8021,19.3029 C56.8021,19.3025 56.8021,19.3021 56.8021,19.3017 C56.8021,19.3013 56.8021,19.3009 56.8021,19.3005 C56.8021,19.3001 56.8021,19.2997 56.8021,19.2993 C56.8021,19.2989 56.8021,19.2985 56.8021,19.2981 C56.8021,19.2977 56.8021,19.2973 56.8021,19.2969 C56.8021,19.2965 56.8021,19.2961 56.8021,19.2957 C56.8021,19.2953 56.8021,19.2949 56.8021,19.2945 C56.8021,19.2941 56.8021,19.2937 56.8021,19.2933 C56.8021,19.2929 56.8021,19.2925 56.8021,19.2921 C56.8021,19.2917 56.8021,19.2913 56.8021,19.2909 C56.8021,19.2905 56.8021,19.2901 56.8021,19.2897 C56.8021,19.2893 56.8021,19.2889 56.8021,19.2885 C56.8021,19.2881 56.8021,19.2877 56.8021,19.2873 C56.8021,19.2869 56.8021,19.2866 56.8021,19.2862 C56.8021,19.2858 56.8021,19.2854 56.8021,19.285 C56.8021,19.2846 56.8021,19.2842 56.8021,19.2838 C56.8021,19.2834 56.8021,19.283 56.8021,19.2826 C56.8021,19.2822 56.8021,19.2818 56.8021,19.2814 C56.8021,19.281 56.8021,19.2806 56.8021,19.2802 C56.8021,19.2798 56.8021,19.2794 56.8021,19.279 C56.8021,19.2786 56.8021,19.2782 56.8021,19.2778 C56.8021,19.2774 56.8021,19.277 56.8021,19.2766 C56.8021,19.2763 56.8021,19.2759 56.8021,19.2755 C56.8021,19.2751 56.8021,19.2747 56.8021,19.2743 C56.8021,19.2739 56.8021,19.2735 56.8021,19.2731 C56.8021,19.2727 56.8021,19.2723 56.8021,19.2719 C56.8021,19.2715 56.8021,19.2711 56.8021,19.2707 C56.8021,19.2703 56.8021,19.2699 56.8021,19.2695 C56.8021,19.2691 56.8021,19.2687 56.8021,19.2684 C56.8021,19.268 56.8021,19.2676 56.8021,19.2672 C56.8021,19.2668 56.8021,19.2664 56.8021,19.266 C56.8021,19.2656 56.8021,19.2652 56.8021,19.2648 C56.8021,19.2644 56.8021,19.264 56.8021,19.2636 C56.8021,19.2632 56.8021,19.2628 56.8021,19.2624 C56.8021,19.2621 56.8021,19.2617 56.8021,19.2613 C56.8021,19.2609 56.8021,19.2605 56.8021,19.2601 C56.8021,19.2597 56.8021,19.2593 56.8021,19.2589 C56.8021,19.2585 56.8021,19.2581 56.8021,19.2577 C56.8021,19.2573 56.8021,19.2569 56.8021,19.2565 C56.8021,19.2562 56.8021,19.2558 56.8021,19.2554 C56.8021,19.255 56.8021,19.2546 56.8021,19.2542 C56.8021,19.2538 56.8021,19.2534 56.8021,19.253 C56.8021,19.2526 56.8021,19.2522 56.8021,19.2518 C56.8021,19.2515 56.8021,19.2511 56.8021,19.2507 C56.8021,19.2503 56.8021,19.2499 56.8021,19.2495 C56.8021,19.2491 56.8021,19.2487 56.8021,19.2483 C56.8021,19.2479 56.8021,19.2475 56.8021,19.2472 C56.8021,19.2468 56.8021,19.2464 56.8021,19.246 C56.8021,19.2456 56.8021,19.2452 56.8021,19.2448 C56.8021,19.2444 56.8021,19.244 56.8021,19.2436 C56.8021,19.2432 56.8021,19.2429 56.8021,19.2425 C56.8021,19.2421 56.8021,19.2417 56.8021,19.2413 C56.8021,19.2409 56.8021,19.2405 56.8021,19.2401 C56.8021,19.2397 56.8021,19.2394 56.8021,19.239 C56.8021,19.2386 56.8021,19.2382 56.8021,19.2378 C56.8021,19.2374 56.8021,19.237 56.8021,19.2366 C56.8021,19.2362 56.8021,19.2359 56.8021,19.2355 C56.8021,19.2351 56.8021,19.2347 56.8021,19.2343 C56.8021,19.2339 56.8021,19.2335 56.8021,19.2331 C56.8021,19.2328 56.8021,19.2324 56.8021,19.232 C56.8021,19.2316 56.8021,19.2312 56.8021,19.2308 C56.8021,19.2304 56.8021,19.23 56.8021,19.2297 C56.8021,19.2293 56.8021,19.2289 56.8021,19.2285 C56.8021,19.2281 56.8021,19.2277 56.8021,19.2273 C56.8021,19.2269 56.8021,19.2266 56.8021,19.2262 C56.8021,19.2258 56.8021,19.2254 56.8021,19.225 C56.8021,19.2246 56.8021,19.2242 56.8021,19.2239 C56.8021,19.2235 56.8021,19.2231 56.8021,19.2227 C56.8021,19.2223 56.8021,19.2219 56.8021,19.2215 C56.8021,19.2212 56.8021,19.2208 56.8021,19.2204 C56.8021,19.22 56.8021,19.2196 56.8021,19.2192 C56.8021,19.2189 56.8021,19.2185 56.8021,19.2181 C56.8021,19.2177 56.8021,19.2173 56.8021,19.2169 C56.8021,19.2165 56.8021,19.2162 56.8021,19.2158 C56.8021,19.2154 56.8021,19.215 56.8021,19.2146 C56.8021,19.2142 56.8021,19.2139 56.8021,19.2135 C56.8021,19.2131 56.8021,19.2127 56.8021,19.2123 C56.8021,19.2119 56.8021,19.2116 56.8021,19.2112 C56.8021,19.2108 56.8021,19.2104 56.8021,19.21 C56.8021,19.2097 56.8021,19.2093 56.8021,19.2089 C56.8021,19.2085 56.8021,19.2081 56.8021,19.2077 C56.8021,19.2074 56.8021,19.207 56.8021,19.2066 C56.8021,19.2062 56.8021,19.2058 56.8021,19.2055 C56.8021,19.2051 56.8021,19.2047 56.8021,19.2043 C56.8021,19.2039 56.8021,19.2036 56.8021,19.2032 C56.8021,19.2028 56.8021,19.2024 56.8021,19.202 C56.8021,19.2016 56.8021,19.2013 56.8021,19.2009 C56.8021,19.2005 56.8021,19.2001 56.8021,19.1998 C56.8021,19.1994 56.8021,19.199 56.8021,19.1986 C56.8021,19.1982 56.8021,19.1979 56.8021,19.1975 C56.8021,19.1971 56.8021,19.1967 56.8021,19.1963 C56.8021,19.196 56.8021,19.1956 56.8021,19.1952 C56.8021,19.1948 56.8021,19.1945 56.8021,19.1941 C56.8021,19.1937 56.8021,19.1933 56.8021,19.1929 C56.8021,19.1926 56.8021,19.1922 56.8021,19.1918 C56.8021,19.1914 56.8021,19.1911 56.8021,19.1907 C56.8021,19.1903 56.8021,19.1899 56.8021,19.1895 C56.8021,19.1892 56.8021,19.1888 56.8021,19.1884 C56.8021,19.188 56.8021,19.1877 56.8021,19.1873 C56.8021,19.1869 56.8021,19.1865 56.8021,19.1862 C56.8021,19.1858 56.8021,19.1854 56.8021,19.185 C56.8021,19.1847 56.8021,19.1843 56.8021,19.1839 C56.8021,19.1835 56.8021,19.1832 56.8021,19.1828 C56.8021,19.1824 56.8021,19.182 56.8021,19.1817 C56.8021,19.1813 56.8021,19.1809 56.8021,19.1805 C56.8021,19.1802 56.8021,19.1798 56.8021,19.1794 C56.8021,19.1791 56.8021,19.1787 56.8021,19.1783 C56.8021,19.1779 56.8021,19.1776 56.8021,19.1772 C56.8021,19.1768 56.8021,19.1764 56.8021,19.1761 C56.8021,19.1757 56.8021,19.1753 56.8021,19.175 C56.8021,19.1746 56.8021,19.1742 56.8021,19.1738 C56.8021,19.1735 56.8021,19.1731 56.8021,19.1727 C56.8021,19.1724 56.8021,19.172 56.8021,19.1716 C56.8021,19.1713 56.8021,19.1709 56.8021,19.1705 C56.8021,19.1701 56.8021,19.1698 56.8021,19.1694 C56.8021,19.169 56.8021,19.1687 56.8021,19.1683 C56.8021,19.1679 56.8021,19.1676 56.8021,19.1672 C56.8021,19.1668 56.8021,19.1664 56.8021,19.1661 C56.8021,19.1657 56.8021,19.1653 56.8021,19.165 C56.8021,19.1646 56.8021,19.1642 56.8021,19.1639 C56.8021,19.1635 56.8021,19.1631 56.8021,19.1628 C56.8021,19.1624 56.8021,19.162 56.8021,19.1617 C56.8021,19.1613 56.8021,19.1609 56.8021,19.1606 C56.8021,19.1602 56.8021,19.1598 56.8021,19.1595 C56.8021,19.1591 56.8021,19.1587 56.8021,19.1584 C56.8021,19.158 56.8021,19.1576 56.8021,19.1573 C56.8021,19.1569 56.8021,19.1565 56.8021,19.1562 C56.8021,19.1558 56.8021,19.1554 56.8021,19.1551 C56.8021,19.1547 56.8021,19.1544 56.8021,19.154 C56.8021,19.1536 56.8021,19.1533 56.8021,19.1529 C56.8021,19.1525 56.8021,19.1522 56.8021,19.1518 C56.8021,19.1514 56.8021,19.1511 56.8021,19.1507 C56.8021,19.1504 56.8021,19.15 56.8021,19.1496 C56.8021,19.1493 56.8021,19.1489 56.8021,19.1485 C56.8021,19.1482 56.8021,19.1478 56.8021,19.1475 C56.8021,19.1471 56.8021,19.1467 56.8021,19.1464 C56.8021,19.146 56.8021,19.1457 56.8021,19.1453 C56.8021,19.1449 56.8021,19.1446 56.8021,19.1442 C56.8021,19.1439 56.8021,19.1435 56.8021,19.1431 C56.8021,19.1428 56.8021,19.1424 56.8021,19.1421 C56.8021,19.1417 56.8021,19.1413 56.8021,19.141 C56.8021,19.1406 56.8021,19.1403 56.8021,19.1399 C56.8021,19.1395 56.8021,19.1392 56.8021,19.1388 C56.8021,19.1385 56.8021,19.1381 56.8021,19.1378 C56.8021,19.1374 56.8021,19.137 56.8021,19.1367 C56.8021,19.1363 56.8021,19.136 56.8021,19.1356 C56.8021,19.1353 56.8021,19.1349 56.8021,19.1346 C56.8021,19.1342 56.8021,19.1338 56.8021,19.1335 C56.8021,19.1331 56.8021,19.1328 56.8021,19.1324 C56.8021,19.1321 56.8021,19.1317 56.8021,19.1314 C56.8021,19.131 56.8021,19.1306 56.8021,19.1303 C56.8021,19.1299 56.8021,19.1296 56.8021,19.1292 C56.8021,19.1289 56.8021,19.1285 56.8021,19.1282 C56.8021,19.1278 56.8021,19.1275 56.8021,19.1271 C56.8021,19.1268 56.8021,19.1264 56.8021,19.1261 C56.8021,19.1257 56.8021,19.1253 56.8021,19.125 C56.8021,19.1246 56.8021,19.1243 56.8021,19.1239 C56.8021,19.1236 56.8021,19.1232 56.8021,19.1229 C56.8021,19.1225 56.8021,19.1222 56.8021,19.1218 C56.8021,19.1215 56.8021,19.1211 56.8021,19.1208 C56.8021,19.1204 56.8021,19.1201 56.8021,19.1197 C56.8021,19.1194 56.8021,19.119 56.8021,19.1187 C56.8021,19.1183 56.8021,19.118 56.8021,19.1177 C56.8021,19.1173 56.8021,19.117 56.8021,19.1166 C56.8021,19.1163 56.8021,19.1159 56.8021,19.1156 C56.8021,19.1152 56.8021,19.1149 56.8021,19.1145 C56.8021,19.1142 56.8021,19.1138 56.8021,19.1135 C56.8021,19.1131 56.8021,19.1128 56.8021,19.1124 C56.8021,19.1121 56.8021,19.1118 56.8021,19.1114 C56.8021,19.1111 56.8021,19.1107 56.8021,19.1104 C56.8021,19.11 56.8021,19.1097 56.8021,19.1093 C56.8021,19.109 56.8021,19.1087 56.8021,19.1083 C56.8021,19.108 56.8021,19.1076 56.8021,19.1073 C56.8021,19.1069 56.8021,19.1066 56.8021,19.1063 C56.8021,19.1059 56.8021,19.1056 56.8021,19.1052 C56.8021,19.1049 56.8021,19.1045 56.8021,19.1042 C56.8021,19.1039 56.8021,19.1035 56.8021,19.1032 C56.8021,19.1028 56.8021,19.1025 56.8021,19.1022 C56.8021,19.1018 56.8021,19.1015 56.8021,19.1011 C56.8021,19.1008 56.8021,19.1005 56.8021,19.1001 C56.8021,19.0998 56.8021,19.0994 56.8021,19.0991 C56.8021,19.0988 56.8021,19.0984 56.8021,19.0981 C56.8021,19.0978 56.8021,19.0974 56.8021,19.0971 C56.8021,19.0967 56.8021,19.0964 56.8021,19.0961 C56.8021,19.0957 56.8021,19.0954 56.8021,19.0951 C56.8021,19.0947 56.8021,19.0944 56.8021,19.0941 C56.8021,19.0937 56.8021,19.0934 56.8021,19.093 C56.8021,19.0927 56.8021,19.0924 56.8021,19.092 C56.8021,19.0917 56.8021,19.0914 56.8021,19.091 C56.8021,19.0907 56.8021,19.0904 56.8021,19.09 C56.8021,19.0897 56.8021,19.0894 56.8021,19.089 C56.8021,19.0887 56.8021,19.0884 56.8021,19.088 C56.8021,19.0877 56.8021,19.0874 56.8021,19.087 C56.8021,19.0867 56.8021,19.0864 56.8021,19.086 C56.8021,19.0857 56.8021,19.0854 56.8021,19.0851 C56.8021,19.0847 56.8021,19.0844 56.8021,19.0841 C56.8021,19.0837 56.8021,19.0834 56.8021,19.0831 C56.8021,19.0827 56.8021,19.0824 56.8021,19.0821 C56.8021,19.0818 56.8021,19.0814 56.8021,19.0811 C56.8021,19.0808 56.8021,19.0804 56.8021,19.0801 C56.8021,19.0798 56.8021,19.0795 56.8021,19.0791 C56.8021,19.0788 56.8021,19.0785 56.8021,19.0782 C56.8021,19.0778 56.8021,19.0775 56.8021,19.0772 C56.8021,19.0769 56.8021,19.0765 56.8021,19.0762 C56.8021,19.0759 56.8021,19.0756 56.8021,19.0752 C56.8021,19.0749 56.8021,19.0746 56.8021,19.0743 C56.8021,19.0739 56.8021,19.0736 56.8021,19.0733 C56.8021,19.073 56.8021,19.0726 56.8021,19.0723 C56.8021,19.072 56.8021,19.0717 56.8021,19.0714 C56.8021,19.071 56.8021,19.0707 56.8021,19.0704 C56.8021,19.0701 56.8021,19.0697 56.8021,19.0694 L54.8021,19.0694 C54.8021,19.0697 54.8021,19.0701 54.8021,19.0704 C54.8021,19.0707 54.8021,19.071 54.8021,19.0714 C54.8021,19.0717 54.8021,19.072 54.8021,19.0723 C54.8021,19.0726 54.8021,19.073 54.8021,19.0733 C54.8021,19.0736 54.8021,19.0739 54.8021,19.0743 C54.8021,19.0746 54.8021,19.0749 54.8021,19.0752 C54.8021,19.0756 54.8021,19.0759 54.8021,19.0762 C54.8021,19.0765 54.8021,19.0769 54.8021,19.0772 C54.8021,19.0775 54.8021,19.0778 54.8021,19.0782 C54.8021,19.0785 54.8021,19.0788 54.8021,19.0791 C54.8021,19.0795 54.8021,19.0798 54.8021,19.0801 C54.8021,19.0804 54.8021,19.0808 54.8021,19.0811 C54.8021,19.0814 54.8021,19.0818 54.8021,19.0821 C54.8021,19.0824 54.8021,19.0827 54.8021,19.0831 C54.8021,19.0834 54.8021,19.0837 54.8021,19.0841 C54.8021,19.0844 54.8021,19.0847 54.8021,19.0851 C54.8021,19.0854 54.8021,19.0857 54.8021,19.086 C54.8021,19.0864 54.8021,19.0867 54.8021,19.087 C54.8021,19.0874 54.8021,19.0877 54.8021,19.088 C54.8021,19.0884 54.8021,19.0887 54.8021,19.089 C54.8021,19.0894 54.8021,19.0897 54.8021,19.09 C54.8021,19.0904 54.8021,19.0907 54.8021,19.091 C54.8021,19.0914 54.8021,19.0917 54.8021,19.092 C54.8021,19.0924 54.8021,19.0927 54.8021,19.093 C54.8021,19.0934 54.8021,19.0937 54.8021,19.0941 C54.8021,19.0944 54.8021,19.0947 54.8021,19.0951 C54.8021,19.0954 54.8021,19.0957 54.8021,19.0961 C54.8021,19.0964 54.8021,19.0967 54.8021,19.0971 C54.8021,19.0974 54.8021,19.0978 54.8021,19.0981 C54.8021,19.0984 54.8021,19.0988 54.8021,19.0991 C54.8021,19.0994 54.8021,19.0998 54.8021,19.1001 C54.8021,19.1005 54.8021,19.1008 54.8021,19.1011 C54.8021,19.1015 54.8021,19.1018 54.8021,19.1022 C54.8021,19.1025 54.8021,19.1028 54.8021,19.1032 C54.8021,19.1035 54.8021,19.1039 54.8021,19.1042 C54.8021,19.1045 54.8021,19.1049 54.8021,19.1052 C54.8021,19.1056 54.8021,19.1059 54.8021,19.1063 C54.8021,19.1066 54.8021,19.1069 54.8021,19.1073 C54.8021,19.1076 54.8021,19.108 54.8021,19.1083 C54.8021,19.1087 54.8021,19.109 54.8021,19.1093 C54.8021,19.1097 54.8021,19.11 54.8021,19.1104 C54.8021,19.1107 54.8021,19.1111 54.8021,19.1114 C54.8021,19.1118 54.8021,19.1121 54.8021,19.1124 C54.8021,19.1128 54.8021,19.1131 54.8021,19.1135 C54.8021,19.1138 54.8021,19.1142 54.8021,19.1145 C54.8021,19.1149 54.8021,19.1152 54.8021,19.1156 C54.8021,19.1159 54.8021,19.1163 54.8021,19.1166 C54.8021,19.117 54.8021,19.1173 54.8021,19.1177 C54.8021,19.118 54.8021,19.1183 54.8021,19.1187 C54.8021,19.119 54.8021,19.1194 54.8021,19.1197 C54.8021,19.1201 54.8021,19.1204 54.8021,19.1208 C54.8021,19.1211 54.8021,19.1215 54.8021,19.1218 C54.8021,19.1222 54.8021,19.1225 54.8021,19.1229 C54.8021,19.1232 54.8021,19.1236 54.8021,19.1239 C54.8021,19.1243 54.8021,19.1246 54.8021,19.125 C54.8021,19.1253 54.8021,19.1257 54.8021,19.1261 C54.8021,19.1264 54.8021,19.1268 54.8021,19.1271 C54.8021,19.1275 54.8021,19.1278 54.8021,19.1282 C54.8021,19.1285 54.8021,19.1289 54.8021,19.1292 C54.8021,19.1296 54.8021,19.1299 54.8021,19.1303 C54.8021,19.1306 54.8021,19.131 54.8021,19.1314 C54.8021,19.1317 54.8021,19.1321 54.8021,19.1324 C54.8021,19.1328 54.8021,19.1331 54.8021,19.1335 C54.8021,19.1338 54.8021,19.1342 54.8021,19.1346 C54.8021,19.1349 54.8021,19.1353 54.8021,19.1356 C54.8021,19.136 54.8021,19.1363 54.8021,19.1367 C54.8021,19.137 54.8021,19.1374 54.8021,19.1378 C54.8021,19.1381 54.8021,19.1385 54.8021,19.1388 C54.8021,19.1392 54.8021,19.1395 54.8021,19.1399 C54.8021,19.1403 54.8021,19.1406 54.8021,19.141 C54.8021,19.1413 54.8021,19.1417 54.8021,19.1421 C54.8021,19.1424 54.8021,19.1428 54.8021,19.1431 C54.8021,19.1435 54.8021,19.1439 54.8021,19.1442 C54.8021,19.1446 54.8021,19.1449 54.8021,19.1453 C54.8021,19.1457 54.8021,19.146 54.8021,19.1464 C54.8021,19.1467 54.8021,19.1471 54.8021,19.1475 C54.8021,19.1478 54.8021,19.1482 54.8021,19.1485 C54.8021,19.1489 54.8021,19.1493 54.8021,19.1496 C54.8021,19.15 54.8021,19.1504 54.8021,19.1507 C54.8021,19.1511 54.8021,19.1514 54.8021,19.1518 C54.8021,19.1522 54.8021,19.1525 54.8021,19.1529 C54.8021,19.1533 54.8021,19.1536 54.8021,19.154 C54.8021,19.1544 54.8021,19.1547 54.8021,19.1551 C54.8021,19.1554 54.8021,19.1558 54.8021,19.1562 C54.8021,19.1565 54.8021,19.1569 54.8021,19.1573 C54.8021,19.1576 54.8021,19.158 54.8021,19.1584 C54.8021,19.1587 54.8021,19.1591 54.8021,19.1595 C54.8021,19.1598 54.8021,19.1602 54.8021,19.1606 C54.8021,19.1609 54.8021,19.1613 54.8021,19.1617 C54.8021,19.162 54.8021,19.1624 54.8021,19.1628 C54.8021,19.1631 54.8021,19.1635 54.8021,19.1639 C54.8021,19.1642 54.8021,19.1646 54.8021,19.165 C54.8021,19.1653 54.8021,19.1657 54.8021,19.1661 C54.8021,19.1664 54.8021,19.1668 54.8021,19.1672 C54.8021,19.1676 54.8021,19.1679 54.8021,19.1683 C54.8021,19.1687 54.8021,19.169 54.8021,19.1694 C54.8021,19.1698 54.8021,19.1701 54.8021,19.1705 C54.8021,19.1709 54.8021,19.1713 54.8021,19.1716 C54.8021,19.172 54.8021,19.1724 54.8021,19.1727 C54.8021,19.1731 54.8021,19.1735 54.8021,19.1738 C54.8021,19.1742 54.8021,19.1746 54.8021,19.175 C54.8021,19.1753 54.8021,19.1757 54.8021,19.1761 C54.8021,19.1764 54.8021,19.1768 54.8021,19.1772 C54.8021,19.1776 54.8021,19.1779 54.8021,19.1783 C54.8021,19.1787 54.8021,19.1791 54.8021,19.1794 C54.8021,19.1798 54.8021,19.1802 54.8021,19.1805 C54.8021,19.1809 54.8021,19.1813 54.8021,19.1817 C54.8021,19.182 54.8021,19.1824 54.8021,19.1828 C54.8021,19.1832 54.8021,19.1835 54.8021,19.1839 C54.8021,19.1843 54.8021,19.1847 54.8021,19.185 C54.8021,19.1854 54.8021,19.1858 54.8021,19.1862 C54.8021,19.1865 54.8021,19.1869 54.8021,19.1873 C54.8021,19.1877 54.8021,19.188 54.8021,19.1884 C54.8021,19.1888 54.8021,19.1892 54.8021,19.1895 C54.8021,19.1899 54.8021,19.1903 54.8021,19.1907 C54.8021,19.1911 54.8021,19.1914 54.8021,19.1918 C54.8021,19.1922 54.8021,19.1926 54.8021,19.1929 C54.8021,19.1933 54.8021,19.1937 54.8021,19.1941 C54.8021,19.1945 54.8021,19.1948 54.8021,19.1952 C54.8021,19.1956 54.8021,19.196 54.8021,19.1963 C54.8021,19.1967 54.8021,19.1971 54.8021,19.1975 C54.8021,19.1979 54.8021,19.1982 54.8021,19.1986 C54.8021,19.199 54.8021,19.1994 54.8021,19.1998 C54.8021,19.2001 54.8021,19.2005 54.8021,19.2009 C54.8021,19.2013 54.8021,19.2016 54.8021,19.202 C54.8021,19.2024 54.8021,19.2028 54.8021,19.2032 C54.8021,19.2036 54.8021,19.2039 54.8021,19.2043 C54.8021,19.2047 54.8021,19.2051 54.8021,19.2055 C54.8021,19.2058 54.8021,19.2062 54.8021,19.2066 C54.8021,19.207 54.8021,19.2074 54.8021,19.2077 C54.8021,19.2081 54.8021,19.2085 54.8021,19.2089 C54.8021,19.2093 54.8021,19.2097 54.8021,19.21 C54.8021,19.2104 54.8021,19.2108 54.8021,19.2112 C54.8021,19.2116 54.8021,19.2119 54.8021,19.2123 C54.8021,19.2127 54.8021,19.2131 54.8021,19.2135 C54.8021,19.2139 54.8021,19.2142 54.8021,19.2146 C54.8021,19.215 54.8021,19.2154 54.8021,19.2158 C54.8021,19.2162 54.8021,19.2165 54.8021,19.2169 C54.8021,19.2173 54.8021,19.2177 54.8021,19.2181 C54.8021,19.2185 54.8021,19.2189 54.8021,19.2192 C54.8021,19.2196 54.8021,19.22 54.8021,19.2204 C54.8021,19.2208 54.8021,19.2212 54.8021,19.2215 C54.8021,19.2219 54.8021,19.2223 54.8021,19.2227 C54.8021,19.2231 54.8021,19.2235 54.8021,19.2239 C54.8021,19.2242 54.8021,19.2246 54.8021,19.225 C54.8021,19.2254 54.8021,19.2258 54.8021,19.2262 C54.8021,19.2266 54.8021,19.2269 54.8021,19.2273 C54.8021,19.2277 54.8021,19.2281 54.8021,19.2285 C54.8021,19.2289 54.8021,19.2293 54.8021,19.2297 C54.8021,19.23 54.8021,19.2304 54.8021,19.2308 C54.8021,19.2312 54.8021,19.2316 54.8021,19.232 C54.8021,19.2324 54.8021,19.2328 54.8021,19.2331 C54.8021,19.2335 54.8021,19.2339 54.8021,19.2343 C54.8021,19.2347 54.8021,19.2351 54.8021,19.2355 C54.8021,19.2359 54.8021,19.2362 54.8021,19.2366 C54.8021,19.237 54.8021,19.2374 54.8021,19.2378 C54.8021,19.2382 54.8021,19.2386 54.8021,19.239 C54.8021,19.2394 54.8021,19.2397 54.8021,19.2401 C54.8021,19.2405 54.8021,19.2409 54.8021,19.2413 C54.8021,19.2417 54.8021,19.2421 54.8021,19.2425 C54.8021,19.2429 54.8021,19.2432 54.8021,19.2436 C54.8021,19.244 54.8021,19.2444 54.8021,19.2448 C54.8021,19.2452 54.8021,19.2456 54.8021,19.246 C54.8021,19.2464 54.8021,19.2468 54.8021,19.2472 C54.8021,19.2475 54.8021,19.2479 54.8021,19.2483 C54.8021,19.2487 54.8021,19.2491 54.8021,19.2495 C54.8021,19.2499 54.8021,19.2503 54.8021,19.2507 C54.8021,19.2511 54.8021,19.2515 54.8021,19.2518 C54.8021,19.2522 54.8021,19.2526 54.8021,19.253 C54.8021,19.2534 54.8021,19.2538 54.8021,19.2542 C54.8021,19.2546 54.8021,19.255 54.8021,19.2554 C54.8021,19.2558 54.8021,19.2562 54.8021,19.2565 C54.8021,19.2569 54.8021,19.2573 54.8021,19.2577 C54.8021,19.2581 54.8021,19.2585 54.8021,19.2589 C54.8021,19.2593 54.8021,19.2597 54.8021,19.2601 C54.8021,19.2605 54.8021,19.2609 54.8021,19.2613 C54.8021,19.2617 54.8021,19.2621 54.8021,19.2624 C54.8021,19.2628 54.8021,19.2632 54.8021,19.2636 C54.8021,19.264 54.8021,19.2644 54.8021,19.2648 C54.8021,19.2652 54.8021,19.2656 54.8021,19.266 C54.8021,19.2664 54.8021,19.2668 54.8021,19.2672 C54.8021,19.2676 54.8021,19.268 54.8021,19.2684 C54.8021,19.2687 54.8021,19.2691 54.8021,19.2695 C54.8021,19.2699 54.8021,19.2703 54.8021,19.2707 C54.8021,19.2711 54.8021,19.2715 54.8021,19.2719 C54.8021,19.2723 54.8021,19.2727 54.8021,19.2731 C54.8021,19.2735 54.8021,19.2739 54.8021,19.2743 C54.8021,19.2747 54.8021,19.2751 54.8021,19.2755 C54.8021,19.2759 54.8021,19.2763 54.8021,19.2766 C54.8021,19.277 54.8021,19.2774 54.8021,19.2778 C54.8021,19.2782 54.8021,19.2786 54.8021,19.279 C54.8021,19.2794 54.8021,19.2798 54.8021,19.2802 C54.8021,19.2806 54.8021,19.281 54.8021,19.2814 C54.8021,19.2818 54.8021,19.2822 54.8021,19.2826 C54.8021,19.283 54.8021,19.2834 54.8021,19.2838 C54.8021,19.2842 54.8021,19.2846 54.8021,19.285 C54.8021,19.2854 54.8021,19.2858 54.8021,19.2862 C54.8021,19.2866 54.8021,19.2869 54.8021,19.2873 C54.8021,19.2877 54.8021,19.2881 54.8021,19.2885 C54.8021,19.2889 54.8021,19.2893 54.8021,19.2897 C54.8021,19.2901 54.8021,19.2905 54.8021,19.2909 C54.8021,19.2913 54.8021,19.2917 54.8021,19.2921 C54.8021,19.2925 54.8021,19.2929 54.8021,19.2933 C54.8021,19.2937 54.8021,19.2941 54.8021,19.2945 C54.8021,19.2949 54.8021,19.2953 54.8021,19.2957 C54.8021,19.2961 54.8021,19.2965 54.8021,19.2969 C54.8021,19.2973 54.8021,19.2977 54.8021,19.2981 C54.8021,19.2985 54.8021,19.2989 54.8021,19.2993 C54.8021,19.2997 54.8021,19.3001 54.8021,19.3005 C54.8021,19.3009 54.8021,19.3013 54.8021,19.3017 C54.8021,19.3021 54.8021,19.3025 54.8021,19.3029 C54.8021,19.3033 54.8021,19.3037 54.8021,19.3041 C54.8021,19.3045 54.8021,19.3049 54.8021,19.3053 C54.8021,19.3056 54.8021,19.306 54.8021,19.3064 C54.8021,19.3068 54.8021,19.3072 54.8021,19.3076 C54.8021,19.308 54.8021,19.3084 54.8021,19.3088 C54.8021,19.3092 54.8021,19.3096 54.8021,19.31 C54.8021,19.3104 54.8021,19.3108 54.8021,19.3112 C54.8021,19.3116 54.8021,19.312 54.8021,19.3124 C54.8021,19.3128 54.8021,19.3132 54.8021,19.3136 C54.8021,19.314 54.8021,19.3144 54.8021,19.3148 C54.8021,19.3152 54.8021,19.3156 54.8021,19.316 C54.8021,19.3164 54.8021,19.3168 54.8021,19.3172 C54.8021,19.3176 54.8021,19.318 54.8021,19.3184 C54.8021,19.3188 54.8021,19.3192 54.8021,19.3196 C54.8021,19.32 54.8021,19.3204 54.8021,19.3208 C54.8021,19.3212 54.8021,19.3216 54.8021,19.322 C54.8021,19.3224 54.8021,19.3228 54.8021,19.3232 C54.8021,19.3236 54.8021,19.324 54.8021,19.3244 C54.8021,19.3248 54.8021,19.3252 54.8021,19.3256 C54.8021,19.326 54.8021,19.3264 54.8021,19.3268 C54.8021,19.3272 54.8021,19.3276 54.8021,19.328 C54.8021,19.3284 54.8021,19.3288 54.8021,19.3292 C54.8021,19.3296 54.8021,19.33 54.8021,19.3304 C54.8021,19.3308 54.8021,19.3312 54.8021,19.3316 C54.8021,19.332 54.8021,19.3324 54.8021,19.3328 C54.8021,19.3332 54.8021,19.3336 54.8021,19.334 C54.8021,19.3344 54.8021,19.3348 54.8021,19.3352 C54.8021,19.3356 54.8021,19.336 54.8021,19.3364 C54.8021,19.3368 54.8021,19.3372 54.8021,19.3376 C54.8021,19.338 54.8021,19.3384 54.8021,19.3388 C54.8021,19.3392 54.8021,19.3396 54.8021,19.34 C54.8021,19.3404 54.8021,19.3408 54.8021,19.3412 C54.8021,19.3417 54.8021,19.3421 54.8021,19.3425 C54.8021,19.3429 54.8021,19.3433 54.8021,19.3437 C54.8021,19.3441 54.8021,19.3445 54.8021,19.3449 C54.8021,19.3453 54.8021,19.3457 54.8021,19.3461 C54.8021,19.3465 54.8021,19.3469 54.8021,19.3473 C54.8021,19.3477 54.8021,19.3481 54.8021,19.3485 C54.8021,19.3489 54.8021,19.3493 54.8021,19.3497 C54.8021,19.3501 54.8021,19.3505 54.8021,19.3509 C54.8021,19.3513 54.8021,19.3517 54.8021,19.3521 C54.8021,19.3525 54.8021,19.3529 54.8021,19.3533 C54.8021,19.3537 54.8021,19.3541 54.8021,19.3545 C54.8021,19.3549 54.8021,19.3553 54.8021,19.3557 C54.8021,19.3561 54.8021,19.3565 54.8021,19.3569 C54.8021,19.3573 54.8021,19.3577 54.8021,19.3581 C54.8021,19.3585 54.8021,19.3589 54.8021,19.3593 C54.8021,19.3597 54.8021,19.3601 54.8021,19.3605 C54.8021,19.3609 54.8021,19.3613 54.8021,19.3617 C54.8021,19.3621 54.8021,19.3625 54.8021,19.3629 C54.8021,19.3633 54.8021,19.3637 54.8021,19.3641 C54.8021,19.3645 54.8021,19.3649 54.8021,19.3653 C54.8021,19.3657 54.8021,19.3661 54.8021,19.3665 C54.8021,19.3669 54.8021,19.3673 54.8021,19.3677 C54.8021,19.3681 54.8021,19.3685 54.8021,19.3689 C54.8021,19.3693 54.8021,19.3697 54.8021,19.3701 C54.8021,19.3705 54.8021,19.3709 54.8021,19.3713 C54.8021,19.3717 54.8021,19.3721 54.8021,19.3725 C54.8021,19.3729 54.8021,19.3733 54.8021,19.3737 C54.8021,19.3741 54.8021,19.3745 54.8021,19.3749 C54.8021,19.3753 54.8021,19.3757 54.8021,19.3761 C54.8021,19.3765 54.8021,19.3769 54.8021,19.3773 C54.8021,19.3777 54.8021,19.3781 54.8021,19.3785 C54.8021,19.3789 54.8021,19.3793 54.8021,19.3797 C54.8021,19.3801 54.8021,19.3805 54.8021,19.3809 C54.8021,19.3813 54.8021,19.3817 54.8021,19.3821 C54.8021,19.3825 54.8021,19.3829 54.8021,19.3833 C54.8021,19.3837 54.8021,19.3841 54.8021,19.3845 C54.8021,19.3849 54.8021,19.3853 54.8021,19.3857 C54.8021,19.3861 54.8021,19.3865 54.8021,19.3869 C54.8021,19.3873 54.8021,19.3877 54.8021,19.3881 C54.8021,19.3885 54.8021,19.3889 54.8021,19.3893 C54.8021,19.3897 54.8021,19.3901 54.8021,19.3905 C54.8021,19.3909 54.8021,19.3913 54.8021,19.3917 C54.8021,19.3921 54.8021,19.3925 54.8021,19.3929 C54.8021,19.3933 54.8021,19.3937 54.8021,19.3941 C54.8021,19.3945 54.8021,19.3949 54.8021,19.3953 C54.8021,19.3957 54.8021,19.3961 54.8021,19.3965 C54.8021,19.3969 54.8021,19.3973 54.8021,19.3977 C54.8021,19.3981 54.8021,19.3985 54.8021,19.3989 C54.8021,19.3993 54.8021,19.3997 54.8021,19.4001 C54.8021,19.4005 54.8021,19.4009 54.8021,19.4013 C54.8021,19.4017 54.8021,19.4021 54.8021,19.4025 C54.8021,19.4029 54.8021,19.4033 54.8021,19.4037 C54.8021,19.4041 54.8021,19.4045 54.8021,19.4049 C54.8021,19.4053 54.8021,19.4057 54.8021,19.4061 C54.8021,19.4065 54.8021,19.4069 54.8021,19.4073 C54.8021,19.4077 54.8021,19.4081 54.8021,19.4085 C54.8021,19.4089 54.8021,19.4093 54.8021,19.4097 C54.8021,19.4101 54.8021,19.4105 54.8021,19.4109 C54.8021,19.4113 54.8021,19.4117 54.8021,19.4121 C54.8021,19.4125 54.8021,19.4129 54.8021,19.4133 C54.8021,19.4137 54.8021,19.4141 54.8021,19.4145 C54.8021,19.4149 54.8021,19.4153 54.8021,19.4157 C54.8021,19.4161 54.8021,19.4165 54.8021,19.4169 C54.8021,19.4173 54.8021,19.4177 54.8021,19.4181 C54.8021,19.4185 54.8021,19.4189 54.8021,19.4193 C54.8021,19.4197 54.8021,19.4201 54.8021,19.4205 C54.8021,19.4209 54.8021,19.4213 54.8021,19.4217 C54.8021,19.4221 54.8021,19.4225 54.8021,19.4229 C54.8021,19.4233 54.8021,19.4237 54.8021,19.424 C54.8021,19.4244 54.8021,19.4248 54.8021,19.4252 C54.8021,19.4256 54.8021,19.426 54.8021,19.4264 C54.8021,19.4268 54.8021,19.4272 54.8021,19.4276 C54.8021,19.428 54.8021,19.4284 54.8021,19.4288 C54.8021,19.4292 54.8021,19.4296 54.8021,19.43 C54.8021,19.4304 54.8021,19.4308 54.8021,19.4312 C54.8021,19.4316 54.8021,19.432 54.8021,19.4324 C54.8021,19.4328 54.8021,19.4332 54.8021,19.4336 C54.8021,19.434 54.8021,19.4344 54.8021,19.4348 C54.8021,19.4352 54.8021,19.4355 54.8021,19.4359 C54.8021,19.4363 54.8021,19.4367 54.8021,19.4371 C54.8021,19.4375 54.8021,19.4379 54.8021,19.4383 C54.8021,19.4387 54.8021,19.4391 54.8021,19.4395 C54.8021,19.4399 54.8021,19.4403 54.8021,19.4407 C54.8021,19.4411 54.8021,19.4415 54.8021,19.4419 C54.8021,19.4423 54.8021,19.4427 54.8021,19.4431 C54.8021,19.4435 54.8021,19.4438 54.8021,19.4442 C54.8021,19.4446 54.8021,19.445 54.8021,19.4454 C54.8021,19.4458 54.8021,19.4462 54.8021,19.4466 C54.8021,19.447 54.8021,19.4474 54.8021,19.4478 C54.8021,19.4482 54.8021,19.4486 54.8021,19.449 C54.8021,19.4494 54.8021,19.4498 54.8021,19.4501 C54.8021,19.4505 54.8021,19.4509 54.8021,19.4513 C54.8021,19.4517 54.8021,19.4521 54.8021,19.4525 C54.8021,19.4529 54.8021,19.4533 54.8021,19.4537 C54.8021,19.4541 54.8021,19.4545 54.8021,19.4549 C54.8021,19.4553 54.8021,19.4557 54.8021,19.456 C54.8021,19.4564 54.8021,19.4568 54.8021,19.4572 C54.8021,19.4576 54.8021,19.458 54.8021,19.4584 C54.8021,19.4588 54.8021,19.4592 54.8021,19.4596 C54.8021,19.46 54.8021,19.4604 54.8021,19.4608 C54.8021,19.4611 54.8021,19.4615 54.8021,19.4619 C54.8021,19.4623 54.8021,19.4627 54.8021,19.4631 C54.8021,19.4635 54.8021,19.4639 54.8021,19.4643 C54.8021,19.4647 54.8021,19.4651 54.8021,19.4655 C54.8021,19.4658 54.8021,19.4662 54.8021,19.4666 C54.8021,19.467 54.8021,19.4674 54.8021,19.4678 C54.8021,19.4682 54.8021,19.4686 54.8021,19.469 C54.8021,19.4694 54.8021,19.4697 54.8021,19.4701 C54.8021,19.4705 54.8021,19.4709 54.8021,19.4713 C54.8021,19.4717 54.8021,19.4721 54.8021,19.4725 C54.8021,19.4729 54.8021,19.4733 54.8021,19.4736 C54.8021,19.474 54.8021,19.4744 54.8021,19.4748 C54.8021,19.4752 54.8021,19.4756 54.8021,19.476 C54.8021,19.4764 54.8021,19.4768 54.8021,19.4771 C54.8021,19.4775 54.8021,19.4779 54.8021,19.4783 C54.8021,19.4787 54.8021,19.4791 54.8021,19.4795 C54.8021,19.4799 54.8021,19.4802 54.8021,19.4806 C54.8021,19.481 54.8021,19.4814 54.8021,19.4818 C54.8021,19.4822 54.8021,19.4826 54.8021,19.483 C54.8021,19.4833 54.8021,19.4837 54.8021,19.4841 C54.8021,19.4845 54.8021,19.4849 54.8021,19.4853 C54.8021,19.4857 54.8021,19.4861 54.8021,19.4864 C54.8021,19.4868 54.8021,19.4872 54.8021,19.4876 C54.8021,19.488 54.8021,19.4884 54.8021,19.4888 C54.8021,19.4891 54.8021,19.4895 54.8021,19.4899 C54.8021,19.4903 54.8021,19.4907 54.8021,19.4911 C54.8021,19.4915 54.8021,19.4918 54.8021,19.4922 C54.8021,19.4926 54.8021,19.493 54.8021,19.4934 C54.8021,19.4938 54.8021,19.4942 54.8021,19.4945 C54.8021,19.4949 54.8021,19.4953 54.8021,19.4957 C54.8021,19.4961 54.8021,19.4965 54.8021,19.4968 C54.8021,19.4972 54.8021,19.4976 54.8021,19.498 C54.8021,19.4984 54.8021,19.4988 54.8021,19.4991 C54.8021,19.4995 54.8021,19.4999 54.8021,19.5003 C54.8021,19.5007 54.8021,19.5011 54.8021,19.5014 C54.8021,19.5018 54.8021,19.5022 54.8021,19.5026 C54.8021,19.503 54.8021,19.5034 54.8021,19.5037 C54.8021,19.5041 54.8021,19.5045 54.8021,19.5049 C54.8021,19.5053 54.8021,19.5057 54.8021,19.506 C54.8021,19.5064 54.8021,19.5068 54.8021,19.5072 C54.8021,19.5076 54.8021,19.5079 54.8021,19.5083 C54.8021,19.5087 54.8021,19.5091 54.8021,19.5095 C54.8021,19.5098 54.8021,19.5102 54.8021,19.5106 C54.8021,19.511 54.8021,19.5114 54.8021,19.5117 C54.8021,19.5121 54.8021,19.5125 54.8021,19.5129 C54.8021,19.5133 54.8021,19.5136 54.8021,19.514 C54.8021,19.5144 54.8021,19.5148 54.8021,19.5152 C54.8021,19.5155 54.8021,19.5159 54.8021,19.5163 C54.8021,19.5167 54.8021,19.5171 54.8021,19.5174 C54.8021,19.5178 54.8021,19.5182 54.8021,19.5186 C54.8021,19.5189 54.8021,19.5193 54.8021,19.5197 C54.8021,19.5201 54.8021,19.5205 54.8021,19.5208 C54.8021,19.5212 54.8021,19.5216 54.8021,19.522 C54.8021,19.5223 54.8021,19.5227 54.8021,19.5231 C54.8021,19.5235 54.8021,19.5238 54.8021,19.5242 C54.8021,19.5246 54.8021,19.525 54.8021,19.5254 C54.8021,19.5257 54.8021,19.5261 54.8021,19.5265 C54.8021,19.5269 54.8021,19.5272 54.8021,19.5276 C54.8021,19.528 54.8021,19.5284 54.8021,19.5287 C54.8021,19.5291 54.8021,19.5295 54.8021,19.5299 C54.8021,19.5302 54.8021,19.5306 54.8021,19.531 C54.8021,19.5314 54.8021,19.5317 54.8021,19.5321 C54.8021,19.5325 54.8021,19.5329 54.8021,19.5332 C54.8021,19.5336 54.8021,19.534 54.8021,19.5343 C54.8021,19.5347 54.8021,19.5351 54.8021,19.5355 C54.8021,19.5358 54.8021,19.5362 54.8021,19.5366 C54.8021,19.537 54.8021,19.5373 54.8021,19.5377 C54.8021,19.5381 54.8021,19.5384 54.8021,19.5388 C54.8021,19.5392 54.8021,19.5396 54.8021,19.5399 C54.8021,19.5403 54.8021,19.5407 54.8021,19.541 C54.8021,19.5414 54.8021,19.5418 54.8021,19.5422 C54.8021,19.5425 54.8021,19.5429 54.8021,19.5433 C54.8021,19.5436 54.8021,19.544 54.8021,19.5444 C54.8021,19.5447 54.8021,19.5451 54.8021,19.5455 C54.8021,19.5459 54.8021,19.5462 54.8021,19.5466 C54.8021,19.547 54.8021,19.5473 54.8021,19.5477 C54.8021,19.5481 54.8021,19.5484 54.8021,19.5488 C54.8021,19.5492 54.8021,19.5495 54.8021,19.5499 C54.8021,19.5503 54.8021,19.5506 54.8021,19.551 C54.8021,19.5514 54.8021,19.5517 54.8021,19.5521 C54.8021,19.5525 54.8021,19.5528 54.8021,19.5532 C54.8021,19.5536 54.8021,19.5539 54.8021,19.5543 C54.8021,19.5547 54.8021,19.555 54.8021,19.5554 C54.8021,19.5558 54.8021,19.5561 54.8021,19.5565 C54.8021,19.5569 54.8021,19.5572 54.8021,19.5576 C54.8021,19.558 54.8021,19.5583 54.8021,19.5587 C54.8021,19.5591 54.8021,19.5594 54.8021,19.5598 C54.8021,19.5601 54.8021,19.5605 54.8021,19.5609 C54.8021,19.5612 54.8021,19.5616 54.8021,19.562 C54.8021,19.5623 54.8021,19.5627 54.8021,19.5631 C54.8021,19.5634 54.8021,19.5638 54.8021,19.5641 C54.8021,19.5645 54.8021,19.5649 54.8021,19.5652 C54.8021,19.5656 54.8021,19.566 54.8021,19.5663 C54.8021,19.5667 54.8021,19.567 54.8021,19.5674 C54.8021,19.5678 54.8021,19.5681 54.8021,19.5685 C54.8021,19.5688 54.8021,19.5692 54.8021,19.5696 C54.8021,19.5699 54.8021,19.5703 54.8021,19.5706 C54.8021,19.571 54.8021,19.5714 54.8021,19.5717 C54.8021,19.5721 54.8021,19.5724 54.8021,19.5728 C54.8021,19.5732 54.8021,19.5735 54.8021,19.5739 C54.8021,19.5742 54.8021,19.5746 54.8021,19.5749 C54.8021,19.5753 54.8021,19.5757 54.8021,19.576 C54.8021,19.5764 54.8021,19.5767 54.8021,19.5771 C54.8021,19.5774 54.8021,19.5778 54.8021,19.5782 C54.8021,19.5785 54.8021,19.5789 54.8021,19.5792 C54.8021,19.5796 54.8021,19.5799 54.8021,19.5803 C54.8021,19.5806 54.8021,19.581 54.8021,19.5814 C54.8021,19.5817 54.8021,19.5821 54.8021,19.5824 C54.8021,19.5828 54.8021,19.5831 54.8021,19.5835 C54.8021,19.5838 54.8021,19.5842 54.8021,19.5845 C54.8021,19.5849 54.8021,19.5853 54.8021,19.5856 C54.8021,19.586 54.8021,19.5863 54.8021,19.5867 C54.8021,19.587 54.8021,19.5874 54.8021,19.5877 C54.8021,19.5881 54.8021,19.5884 54.8021,19.5888 C54.8021,19.5891 54.8021,19.5895 54.8021,19.5898 C54.8021,19.5902 54.8021,19.5905 54.8021,19.5909 C54.8021,19.5912 54.8021,19.5916 54.8021,19.5919 C54.8021,19.5923 54.8021,19.5926 54.8021,19.593 C54.8021,19.5933 54.8021,19.5937 54.8021,19.594 C54.8021,19.5944 54.8021,19.5947 54.8021,19.5951 C54.8021,19.5954 54.8021,19.5958 54.8021,19.5961 C54.8021,19.5965 54.8021,19.5968 54.8021,19.5972 C54.8021,19.5975 54.8021,19.5979 54.8021,19.5982 C54.8021,19.5986 54.8021,19.5989 54.8021,19.5992 C54.8021,19.5996 54.8021,19.5999 54.8021,19.6003 C54.8021,19.6006 54.8021,19.601 54.8021,19.6013 C54.8021,19.6017 54.8021,19.602 54.8021,19.6024 C54.8021,19.6027 54.8021,19.6031 54.8021,19.6034 C54.8021,19.6037 54.8021,19.6041 54.8021,19.6044 C54.8021,19.6048 54.8021,19.6051 54.8021,19.6055 C54.8021,19.6058 54.8021,19.6061 54.8021,19.6065 C54.8021,19.6068 54.8021,19.6072 54.8021,19.6075 C54.8021,19.6079 54.8021,19.6082 54.8021,19.6085 C54.8021,19.6089 54.8021,19.6092 54.8021,19.6096 C54.8021,19.6099 54.8021,19.6103 54.8021,19.6106 C54.8021,19.6109 54.8021,19.6113 54.8021,19.6116 C54.8021,19.612 54.8021,19.6123 54.8021,19.6126 C54.8021,19.613 54.8021,19.6133 54.8021,19.6136 C54.8021,19.614 54.8021,19.6143 54.8021,19.6147 C54.8021,19.615 54.8021,19.6153 54.8021,19.6157 C54.8021,19.616 54.8021,19.6164 54.8021,19.6167 C54.8021,19.617 54.8021,19.6174 54.8021,19.6177 C54.8021,19.618 54.8021,19.6184 54.8021,19.6187 C54.8021,19.6191 54.8021,19.6194 54.8021,19.6197 C54.8021,19.6201 54.8021,19.6204 54.8021,19.6207 C54.8021,19.6211 54.8021,19.6214 54.8021,19.6217 C54.8021,19.6221 54.8021,19.6224 54.8021,19.6227 C54.8021,19.6231 54.8021,19.6234 54.8021,19.6237 C54.8021,19.6241 54.8021,19.6244 54.8021,19.6247 C54.8021,19.6251 54.8021,19.6254 54.8021,19.6257 C54.8021,19.6261 54.8021,19.6264 54.8021,19.6267 C54.8021,19.6271 54.8021,19.6274 54.8021,19.6277 C54.8021,19.6281 54.8021,19.6284 54.8021,19.6287 C54.8021,19.629 54.8021,19.6294 54.8021,19.6297 C54.8021,19.63 54.8021,19.6304 54.8021,19.6307 C54.8021,19.631 54.8021,19.6314 54.8021,19.6317 C54.8021,19.632 54.8021,19.6323 54.8021,19.6327 C54.8021,19.633 54.8021,19.6333 54.8021,19.6337 C54.8021,19.634 54.8021,19.6343 54.8021,19.6346 C54.8021,19.635 54.8021,19.6353 54.8021,19.6356 C54.8021,19.6359 54.8021,19.6363 54.8021,19.6366 C54.8021,19.6369 54.8021,19.6372 54.8021,19.6376 C54.8021,19.6379 54.8021,19.6382 54.8021,19.6385 C54.8021,19.6389 54.8021,19.6392 54.8021,19.6395 C54.8021,19.6398 54.8021,19.6402 54.8021,19.6405 C54.8021,19.6408 54.8021,19.6411 54.8021,19.6415 C54.8021,19.6418 54.8021,19.6421 54.8021,19.6424 C54.8021,19.6427 54.8021,19.6431 54.8021,19.6434 C54.8021,19.6437 54.8021,19.644 54.8021,19.6444 L56.8021,19.6444 Z M56.8021,19.0694 C56.8021,8.49354 48.2171,3e-06 37.7265,3e-06 L37.7265,2 C47.1191,2 54.8021,9.60468 54.8021,19.0694 L56.8021,19.0694 Z M37.7265,3e-06 C29.745,3e-06 22.9,4.94238 20.041,11.8709 L21.8898,12.6338 C24.4535,6.42087 30.5901,2 37.7265,2 L37.7265,3e-06 Z M21.4692,11.3885 C19.3527,10.15429 16.9615,9.44538 14.3103,9.44538 L14.3103,11.4454 C16.5887,11.4454 18.6344,12.0506 20.4617,13.1162 L21.4692,11.3885 Z M14.3103,9.44538 C6.35969,9.44538 -2e-05,15.8926 -2e-05,23.751 L1.99998,23.751 C1.99998,16.9897 7.47164,11.4454 14.3103,11.4454 L14.3103,9.44538 Z M-2e-05,23.751 C-2e-05,31.6997 6.44989,38.0567 14.3103,38.0567 L14.3103,36.0567 C7.54576,36.0567 1.99998,30.5864 1.99998,23.751 L-2e-05,23.751 Z M14.3103,38.0567 L58.5135,38.0567 L58.5135,36.0567 L14.3103,36.0567 L14.3103,38.0567 Z M57.5135,37.0567 L57.5135,37.1388 L59.5135,37.1388 L59.5135,37.0567 L57.5135,37.0567 Z" id="path1_stroke"></path>
                </g>
            </g>
        </g>
    </g>
</svg>