<?xml version="1.0" encoding="UTF-8"?>
<svg width="100px" height="71px" viewBox="0 0 100 71" version="1.1" xmlns="http://www.w3.org/2000/svg" xmlns:xlink="http://www.w3.org/1999/xlink">
    <!-- Generator: Sketch 49.1 (51147) - http://www.bohemiancoding.com/sketch -->
    <title>icFiber</title>
    <desc>Created with Sketch.</desc>
    <defs></defs>
    <g id="icFiber" stroke="none" stroke-width="1" fill="none" fill-rule="evenodd">
        <g id="fiber" transform="translate(9.000000, 0.000000)" fill-rule="nonzero">
            <g id="Vector" fill="#FFFFFF">
                <g id="path0_stroke-link">
                    <path d="M45.6962,63.0787 L32.5503,63.0787 L32.5503,65.0787 L45.6962,65.0787 L45.6962,63.0787 Z M32.5503,63.0787 C15.6839,63.0787 2,49.3991 2,32.5393 L0,32.5393 C0,50.5043 14.5799,65.0787 32.5503,65.0787 L32.5503,63.0787 Z M2,32.5393 C2,15.6796 15.6839,2 32.5503,2 L32.5503,0 C14.5799,0 0,14.5744 0,32.5393 L2,32.5393 Z M32.5503,2 L42.4919,2 L42.4919,0 L32.5503,0 L32.5503,2 Z M42.4919,2 L68.8659,2 L68.8659,0 L42.4919,0 L42.4919,2 Z M68.8659,2 C70.1289,2 71.3743,2.7376 72.3463,4.14518 C73.3159,5.54923 73.9459,7.54227 73.9459,9.78831 L75.9459,9.78831 C75.9459,7.18845 75.2203,4.78734 73.9921,3.00871 C72.7662,1.233611 70.9716,0 68.8659,0 L68.8659,2 Z M73.9459,9.78831 C73.9459,12.0348 73.3156,14.0508 72.3429,15.4774 C71.3665,16.9097 70.1205,17.6587 68.8659,17.6587 L68.8659,19.6587 C70.9801,19.6587 72.7741,18.3955 73.9954,16.604 C75.2206,14.8069 75.9459,12.3877 75.9459,9.78831 L73.9459,9.78831 Z M68.8659,17.6587 L50.133,17.6587 L50.133,19.6587 L68.8659,19.6587 L68.8659,17.6587 Z M50.133,17.6587 L31.9751,17.6587 L31.9751,19.6587 L50.133,19.6587 L50.133,17.6587 Z M31.9751,17.6587 C23.7821,17.6587 17.0897,24.3483 17.0897,32.5393 L19.0897,32.5393 C19.0897,25.4535 24.886,19.6587 31.9751,19.6587 L31.9751,17.6587 Z M17.0897,32.5393 C17.0897,40.7304 23.7821,47.4199 31.9751,47.4199 L31.9751,45.4199 C24.886,45.4199 19.0897,39.6252 19.0897,32.5393 L17.0897,32.5393 Z M31.9751,47.4199 L44.8746,47.4199 L44.8746,45.4199 L31.9751,45.4199 L31.9751,47.4199 Z" id="path0_stroke"></path>
                </g>
            </g>
            <g id="Vector" transform="translate(38.000000, 45.000000)" fill="#FFFFFF">
                <g id="path1_stroke-link" transform="translate(0.040000, 0.400000)">
                    <path d="M12.16,9.78831 C12.16,12.0376 11.5276,14.0305 10.55683,15.4336 C9.58333,16.8408 8.33772,17.5766 7.08,17.5766 L7.08,19.5766 C9.18017,19.5766 10.97456,18.3451 12.2016,16.5715 C13.4314,14.794 14.16,12.3926 14.16,9.78831 L12.16,9.78831 Z M7.08,17.5766 C5.82228,17.5766 4.57667,16.8408 3.60317,15.4336 C2.63241,14.0305 1.999999,12.0376 1.999999,9.78831 L0,9.78831 C0,12.3926 0.728642,14.794 1.958414,16.5715 C3.18544,18.3451 4.97983,19.5766 7.08,19.5766 L7.08,17.5766 Z M1.999999,9.78831 C1.999999,7.539 2.63241,5.54615 3.60317,4.14298 C4.57667,2.73584 5.82228,1.999999 7.08,1.999999 L7.08,0 C4.97983,0 3.18544,1.231491 1.958414,3.00509 C0.728642,4.78266 0,7.18397 0,9.78831 L1.999999,9.78831 Z M7.08,1.999999 C8.33772,1.999999 9.58333,2.73584 10.55683,4.14298 C11.5276,5.54615 12.16,7.539 12.16,9.78831 L14.16,9.78831 C14.16,7.18397 13.4314,4.78266 12.2016,3.00509 C10.97456,1.231491 9.18017,0 7.08,0 L7.08,1.999999 Z" id="path1_stroke"></path>
                </g>
            </g>
            <g id="Vector" transform="translate(45.000000, 39.000000)" fill="#0072FF">
                <g id="path2_stroke-link" transform="translate(0.020000, 0.000000)">
                    <path d="M0.999999373,10.02751 C0.723857,10.02751 0.499999,10.25137 0.499999,10.52751 C0.499999,10.80365 0.723857,11.0275 0.999999373,11.0275 L0.999999373,10.02751 Z M29.3737,1.350632 C29.5674,1.153769 29.5648,0.837197 29.3679,0.643549 C29.1711,0.4499 28.8545,0.452506 28.6608,0.649368 L29.3737,1.350632 Z M0.999999373,11.0275 C14.5796,11.0275 24.4136,6.39308 29.3737,1.350632 L28.6608,0.649368 C23.9258,5.46296 14.3696,10.02751 0.999999373,10.02751 L0.999999373,11.0275 Z" id="path2_stroke"></path>
                </g>
            </g>
            <g id="Vector" transform="translate(45.000000, 59.000000)" fill="#0072FF">
                <g id="path3_stroke-link" transform="translate(0.020000, 0.300000)">
                    <path d="M0.999999373,0.499997 C0.723857,0.499997 0.499999,0.723855 0.499999,0.999997493 C0.499999,1.27614 0.723857,1.499997 0.999999373,1.499997 L0.999999373,0.499997 Z M28.6608,10.87815 C28.8545,11.075 29.1711,11.0776 29.3679,10.88396 C29.5648,10.69032 29.5674,10.37374 29.3737,10.17688 L28.6608,10.87815 Z M0.999999373,1.499997 C14.288,1.499997 23.9262,6.06488 28.6608,10.87815 L29.3737,10.17688 C24.4133,5.1341 14.4969,0.499997 0.999999373,0.499997 L0.999999373,1.499997 Z" id="path3_stroke"></path>
                </g>
            </g>
            <g id="Vector" transform="translate(41.000000, 48.000000)" fill="#0072FF">
                <g id="path4_stroke-link" transform="translate(0.330000, 0.500000)">
                    <path d="M0.999999373,3.94962 C0.723857,3.94962 0.499999,4.17348 0.499999,4.44962 C0.499999,4.72576 0.723857,4.94962 0.999999373,4.94962 L0.999999373,3.94962 Z M38.8465,1.481682 C39.1125,1.407625 39.2682,1.131932 39.1941,0.865905 C39.1201,0.599879 38.8444,0.444258 38.5783,0.518315 L38.8465,1.481682 Z M0.999999373,4.94962 C19.0936,4.94962 32.2918,3.30641 38.8465,1.481682 L38.5783,0.518315 C32.1514,2.30747 19.0577,3.94962 0.999999373,3.94962 L0.999999373,4.94962 Z" id="path4_stroke"></path>
                </g>
            </g>
            <g id="Vector" transform="translate(41.000000, 55.000000)" fill="#0072FF">
                <g id="path5_stroke-link" transform="translate(0.330000, 0.900000)">
                    <path d="M0.999999373,0.5 C0.723857,0.5 0.499999,0.723858 0.499999,1 C0.499999,1.276142 0.723857,1.5 0.999999373,1.5 L0.999999373,0.5 Z M38.5783,4.9313 C38.8444,5.00535 39.1201,4.84973 39.1941,4.58371 C39.2682,4.31768 39.1125,4.04199 38.8465,3.96793 L38.5783,4.9313 Z M0.999999373,1.5 C19.0577,1.5 32.1514,3.14214 38.5783,4.9313 L38.8465,3.96793 C32.2918,2.1432 19.0936,0.5 0.999999373,0.5 L0.999999373,1.5 Z" id="path5_stroke"></path>
                </g>
            </g>
        </g>
    </g>
</svg>