<?xml version="1.0" encoding="UTF-8"?>
<svg width="100px" height="59px" viewBox="0 0 100 59" version="1.1" xmlns="http://www.w3.org/2000/svg" xmlns:xlink="http://www.w3.org/1999/xlink">
    <!-- Generator: Sketch 49.3 (51167) - http://www.bohemiancoding.com/sketch -->
    <title>Artboard</title>
    <desc>Created with Sketch.</desc>
    <defs></defs>
    <g id="Artboard" stroke="none" stroke-width="1" fill="none" fill-rule="evenodd">
        <g id="fiber_icon_vector" transform="translate(10.000000, 0.000000)" fill-rule="nonzero">
            <g id="Vector" transform="translate(0.000000, 40.000000)" fill="#0072FF">
                <g id="path0_stroke-link" transform="translate(0.000000, 0.700000)">
                    <path d="M0,1.999999 C8.9469,1.999999 15.1897,5.9044 21.0814,9.9562 C26.9058,13.9617 32.5475,18.2645 40,18.2645 L40,16.2645 C33.2998,16.2645 28.2153,12.435 22.2147,8.30828 C16.2814,4.22784 9.60059,0 0,0 L0,1.999999 Z" id="path0_stroke"></path>
                </g>
            </g>
            <g id="Vector" transform="translate(0.000000, 40.000000)" fill="#FFFFFF">
                <g id="path1_stroke-link" transform="translate(0.000000, 0.700000)">
                    <path d="M0,18.2645 C9.60059,18.2645 16.2814,14.0366 22.2147,9.9562 C28.2153,5.82949 33.2998,2 40,2 L40,0 C32.5475,0 26.9058,4.30276 21.0814,8.30828 C15.1897,12.3601 8.9469,16.2645 0,16.2645 L0,18.2645 Z M40,2 C46.7224,2 52.3811,5.80198 58.6463,9.85967 C64.8186,13.8572 71.5116,18.0407 80,18.0407 L80,16.0407 C72.1755,16.0407 65.9449,12.2038 59.7335,8.18099 C53.6151,4.21835 47.4303,0 40,0 L40,2 Z" id="path1_stroke"></path>
                </g>
            </g>
            <g id="Vector" transform="translate(40.000000, 40.000000)" fill="#0072FF">
                <g id="path2_stroke-link" transform="translate(0.000000, 0.900000)">
                    <path d="M5.68298e-07,18.0407 C7.43031,18.0407 13.6151,13.8223 19.7335,9.85967 C25.9449,5.83687 32.1755,1.999999 40,1.999999 L40,0 C31.5116,0 24.8186,4.18346 18.6463,8.18099 C12.3811,12.2387 6.7224,16.0407 5.68298e-07,16.0407 L5.68298e-07,18.0407 Z" id="path2_stroke"></path>
                </g>
            </g>
            <g id="Vector" transform="translate(40.000000, 20.000000)" fill="#0072FF">
                <g id="path3_stroke-link" transform="translate(0.000000, 0.300000)">
                    <path d="M40,1e-06 C30.3994,1e-06 23.7186,4.22785 17.7853,8.30828 C11.7847,12.435 6.70024,16.2645 5.68298e-07,16.2645 L5.68298e-07,18.2645 C7.45246,18.2645 13.0942,13.9617 18.9186,9.9562 C24.8103,5.9044 31.0531,2 40,2 L40,1e-06 Z" id="path3_stroke"></path>
                </g>
            </g>
            <g id="Vector" transform="translate(0.000000, 20.000000)" fill="#FFFFFF">
                <g id="path4_stroke-link" transform="translate(0.000000, 0.300000)">
                    <path d="M80,16.2645 C71.0531,16.2645 64.8103,12.3601 58.9186,8.30828 C53.0942,4.30276 47.4525,1e-06 40,1e-06 L40,2 C46.7002,2 51.7847,5.82949 57.7853,9.9562 C63.7186,14.0366 70.3994,18.2645 80,18.2645 L80,16.2645 Z M40,1e-06 C32.5697,1e-06 26.3849,4.21835 20.2665,8.18099 C14.0551,12.2038 7.82446,16.0407 0,16.0407 L0,18.0407 C8.48839,18.0407 15.1814,13.8572 21.3537,9.85967 C27.6189,5.80198 33.2776,2 40,2 L40,1e-06 Z" id="path4_stroke"></path>
                </g>
            </g>
            <g id="Vector" transform="translate(0.000000, 20.000000)" fill="#0072FF">
                <g id="path5_stroke-link" transform="translate(0.000000, 0.400000)">
                    <path d="M40,16.1153 C33.2791,16.1153 27.6211,12.2963 21.3554,8.21945 C15.1835,4.20358 8.48982,0 0,0 L0,2 C7.82303,2 14.053,5.85406 20.2647,9.89582 C26.3826,13.8766 32.5682,18.1153 40,18.1153 L40,16.1153 Z" id="path5_stroke"></path>
                </g>
            </g>
            <g id="Vector" fill="#0072FF">
                <g id="path6_stroke-link">
                    <path d="M0,2 C8.9469,2 15.1897,5.9044 21.0814,9.9562 C26.9058,13.9617 32.5475,18.2645 40,18.2645 L40,16.2645 C33.2998,16.2645 28.2153,12.435 22.2147,8.30828 C16.2814,4.22784 9.60059,0 0,0 L0,2 Z" id="path6_stroke"></path>
                </g>
            </g>
            <g id="Vector" fill="#FFFFFF">
                <g id="path7_stroke-link">
                    <path d="M0,18.2645 C9.60059,18.2645 16.2814,14.0366 22.2147,9.9562 C28.2153,5.82949 33.2998,2 40,2 L40,0 C32.5475,0 26.9058,4.30275 21.0814,8.30828 C15.1897,12.3601 8.9469,16.2645 0,16.2645 L0,18.2645 Z M40,2 C46.7224,2 52.3811,5.80198 58.6463,9.85967 C64.8186,13.8572 71.5116,18.0407 80,18.0407 L80,16.0407 C72.1755,16.0407 65.9449,12.2038 59.7335,8.18099 C53.6151,4.21835 47.4303,0 40,0 L40,2 Z" id="path7_stroke"></path>
                </g>
            </g>
            <g id="Vector" transform="translate(40.000000, 0.000000)" fill="#0072FF">
                <g id="path8_stroke-link" transform="translate(0.000000, 0.200000)">
                    <path d="M5.68298e-07,18.0407 C7.43031,18.0407 13.6151,13.8223 19.7335,9.85967 C25.9449,5.83687 32.1755,2 40,2 L40,0 C31.5116,0 24.8186,4.18346 18.6463,8.18099 C12.3811,12.2387 6.7224,16.0407 5.68298e-07,16.0407 L5.68298e-07,18.0407 Z" id="path8_stroke"></path>
                </g>
            </g>
        </g>
    </g>
</svg>