<?xml version="1.0" encoding="UTF-8"?>
<svg width="100px" height="68px" viewBox="0 0 100 68" version="1.1" xmlns="http://www.w3.org/2000/svg" xmlns:xlink="http://www.w3.org/1999/xlink">
    <!-- Generator: Sketch 49.1 (51147) - http://www.bohemiancoding.com/sketch -->
    <title>icGasPump</title>
    <desc>Created with Sketch.</desc>
    <defs></defs>
    <g id="icGasPump" stroke="none" stroke-width="1" fill="none" fill-rule="evenodd">
        <g id="gas-pump" transform="translate(9.000000, 0.000000)" fill-rule="nonzero">
            <g id="Vector" transform="translate(8.000000, 0.000000)" fill="#FFFFFF">
                <g id="path0_stroke-link" transform="translate(0.870000, 0.000000)">
                    <path d="M1.99998,66.9534 L1.99998,11.5953 L-2e-05,11.5953 L-2e-05,66.9534 L1.99998,66.9534 Z M1.99998,11.5953 C1.99998,6.31637 6.31736,2 11.5989,2 L11.5989,0 C5.21345,0 -2e-05,5.21114 -2e-05,11.5953 L1.99998,11.5953 Z M11.5989,2 L35.5081,2 L35.5081,0 L11.5989,0 L11.5989,2 Z M35.5081,2 C40.7896,2 45.107,6.31637 45.107,11.5953 L47.107,11.5953 C47.107,5.21114 41.8936,0 35.5081,0 L35.5081,2 Z M45.107,11.5953 L45.107,66.9534 L47.107,66.9534 L47.107,11.5953 L45.107,11.5953 Z" id="path0_stroke"></path>
                </g>
            </g>
            <g id="Vector" transform="translate(14.000000, 5.000000)" fill="#FFFFFF">
                <g id="path1_stroke-link" transform="translate(0.380000, 0.400000)">
                    <path d="M0.99998997,31.718 L0.49999,31.718 L0.49999,32.218 L0.99998997,32.218 L0.99998997,31.718 Z M35.0151,31.718 L34.5151,31.718 L34.5151,32.218 L35.0151,32.218 L35.0151,31.718 Z M35.0973,31.218 L0.99998997,31.218 L0.99998997,32.218 L35.0973,32.218 L35.0973,31.218 Z M1.49999,31.718 L1.49999,8.3099 L0.49999,8.3099 L0.49999,31.718 L1.49999,31.718 Z M1.49999,8.3099 C1.49999,4.56166 4.56247,1.5 8.31244,1.5 L8.31244,0.5 C4.01052,0.5 0.49999,4.00904 0.49999,8.3099 L1.49999,8.3099 Z M8.31244,1.5 L27.7027,1.5 L27.7027,0.5 L8.31244,0.5 L8.31244,1.5 Z M27.7027,1.5 C31.4527,1.5 34.5151,4.56166 34.5151,8.3099 L35.5151,8.3099 C35.5151,4.00904 32.0046,0.5 27.7027,0.5 L27.7027,1.5 Z M34.5151,8.3099 L34.5151,31.718 L35.5151,31.718 L35.5151,8.3099 L34.5151,8.3099 Z M35.0151,32.218 L35.0973,32.218 L35.0973,31.218 L35.0151,31.218 L35.0151,32.218 Z" id="path1_stroke"></path>
                </g>
            </g>
            <g id="Vector" transform="translate(55.000000, 8.000000)" fill="#FFFFFF">
                <g id="path2_stroke-link" transform="translate(0.390000, 0.900000)">
                    <path d="M20.0476,7.8171 L20.8825,8.36754 L20.8864,8.36151 L20.8903,8.35542 L20.0476,7.8171 Z M0,18.3446 C3.63831,18.3446 6.55893,21.2647 6.55893,24.9009 L8.55893,24.9009 C8.55893,20.1595 4.74223,16.3446 0,16.3446 L0,18.3446 Z M6.55893,24.9009 L6.55893,43.9559 L8.55893,43.9559 L8.55893,24.9009 L6.55893,24.9009 Z M6.55893,43.9559 C6.55893,46.9726 8.97882,49.3912 11.9957,49.3912 L11.9957,47.3912 C10.0828,47.3912 8.55893,45.8673 8.55893,43.9559 L6.55893,43.9559 Z M11.9957,49.3912 C15.0125,49.3912 17.4324,46.9726 17.4324,43.9559 L15.4324,43.9559 C15.4324,45.8673 13.9086,47.3912 11.9957,47.3912 L11.9957,49.3912 Z M17.4324,43.9559 L17.4324,20.055 L15.4324,20.055 L15.4324,43.9559 L17.4324,43.9559 Z M17.4324,20.055 C17.4324,15.8894 18.6119,11.8113 20.8825,8.36754 L19.2127,7.26665 C16.7179,11.0506 15.4324,15.5145 15.4324,20.055 L17.4324,20.055 Z M20.8903,8.35542 L25.2449,1.53832 L23.5594,0.46168 L19.2048,7.27878 L20.8903,8.35542 Z" id="path2_stroke"></path>
                </g>
            </g>
            <g id="Vector" transform="translate(0.000000, 66.000000)" fill="#FFFFFF">
                <g id="path3_stroke-link">
                    <path d="M0.99999,0 C0.447705,0 -1e-05,0.447715 -1e-05,1 C-1e-05,1.552285 0.447705,2 0.99999,2 L0.99999,0 Z M63.854,2 C64.4063,2 64.854,1.552285 64.854,1 C64.854,0.447715 64.4063,0 63.854,0 L63.854,2 Z M0.99998997,2 L63.854,2 L63.854,0 L0.99998997,0 L0.99998997,2 Z" id="path3_stroke"></path>
                </g>
            </g>
            <g id="Vector" transform="translate(20.000000, 14.000000)" fill="#0072FF">
                <g id="path4_fill-link" transform="translate(0.090000, 0.600000)">
                    <path d="M16.0795,13.8373 C17.2298,15.1515 17.0655,17.2048 15.6687,18.3547 C14.3541,19.5046 12.3001,19.3403 11.1498,17.944 C10.4925,17.2048 4.90547,8.90933 0.222232,2.01009 C-0.59939,0.778088 1.04384,-0.700319 2.11195,0.367419 C8.27411,6.11678 15.4222,13.016 16.0795,13.8373 Z" id="path4_fill"></path>
                </g>
            </g>
        </g>
    </g>
</svg>