<?xml version="1.0" encoding="UTF-8"?>
<svg width="100px" height="68px" viewBox="0 0 100 68" version="1.1" xmlns="http://www.w3.org/2000/svg" xmlns:xlink="http://www.w3.org/1999/xlink">
    <!-- Generator: Sketch 49.1 (51147) - http://www.bohemiancoding.com/sketch -->
    <title>icKitty</title>
    <desc>Created with Sketch.</desc>
    <defs></defs>
    <g id="icKitty" stroke="none" stroke-width="1" fill="none" fill-rule="evenodd">
        <g id="kitty" transform="translate(16.000000, 0.000000)" fill="#FFFFFF" fill-rule="nonzero">
            <g id="Vector" transform="translate(10.000000, 0.000000)">
                <g id="path0_stroke-link" transform="translate(0.190000, 0.000000)">
                    <path d="M56.622,20.7121 L57.622,20.7121 C57.622,20.4557 57.5235,20.2091 57.3469,20.0232 L56.622,20.7121 Z M53.4999,17.4267 L52.5007,17.3851 C52.4895,17.6557 52.5884,17.9193 52.775,18.1156 L53.4999,17.4267 Z M45.6123,8.88484 L44.6143,8.94725 C44.6412,9.37838 44.942,9.74347 45.36,9.85248 L45.6123,8.88484 Z M45.1193,1 L46.1174,0.9375964 C46.0967,0.606832 45.9135,0.307799 45.6282,0.139155 C45.3429,-0.02949 44.9926,-0.04583 44.6928,0.095511 L45.1193,1 Z M27.7009,24.983 L27.7345,25.9825 C28.2057,25.9666 28.6019,25.6238 28.6852,25.1598 L27.7009,24.983 Z M5.0242,66.8713 L4.23942,67.491 C4.42907,67.7312 4.71821,67.8713 5.0242,67.8713 L5.0242,66.8713 Z M32.1377,66.8713 L32.1377,67.8713 C32.69,67.8713 33.1377,67.4235 33.1377,66.8713 L32.1377,66.8713 Z M22.1139,62.436 L22.1139,61.436 C21.5675,61.436 21.1222,61.8747 21.114,62.4211 C21.1059,62.9675 21.5379,63.4193 22.0841,63.4356 L22.1139,62.436 Z M37.8891,22.6833 C37.5119,23.6094 37.512,23.6095 37.5122,23.6096 C37.5123,23.6096 37.5125,23.6097 37.5127,23.6098 C37.5131,23.6099 37.5136,23.6102 37.5143,23.6104 C37.5157,23.611 37.5176,23.6117 37.52,23.6127 C37.5248,23.6147 37.5318,23.6175 37.5408,23.6211 C37.5589,23.6284 37.5853,23.639 37.6196,23.6527 C37.6882,23.6801 37.7885,23.7197 37.9173,23.7699 C38.1749,23.8701 38.5468,24.0123 39.008,24.1816 C39.9295,24.5199 41.2112,24.9678 42.651,25.4059 C45.4839,26.2678 49.0926,27.1441 51.7588,26.9664 L51.6258,24.9709 C49.3623,25.1217 46.0693,24.3554 43.2331,23.4925 C41.8383,23.0681 40.5935,22.6331 39.6972,22.3041 C39.2494,22.1397 38.8896,22.0021 38.6427,21.906 C38.5192,21.858 38.424,21.8203 38.3602,21.7949 C38.3283,21.7822 38.3043,21.7725 38.2885,21.7662 C38.2806,21.763 38.2748,21.7606 38.271,21.7591 C38.2692,21.7584 38.2678,21.7578 38.267,21.7575 C38.2666,21.7573 38.2664,21.7572 38.2662,21.7572 C38.2662,21.7571 38.2662,21.7571 38.2661,21.7571 C38.2662,21.7571 38.2663,21.7572 37.8891,22.6833 Z M51.7588,26.9664 C54.6408,26.7744 56.1604,25.1931 56.9059,23.6529 C57.2672,22.9064 57.444,22.1819 57.5317,21.6499 C57.5759,21.3819 57.5984,21.1572 57.6099,20.9954 C57.6156,20.9144 57.6187,20.8487 57.6203,20.8008 C57.6211,20.7768 57.6215,20.7572 57.6217,20.7424 C57.6219,20.7349 57.6219,20.7287 57.622,20.7236 C57.622,20.7211 57.622,20.7188 57.622,20.7169 C57.622,20.716 57.622,20.7151 57.622,20.7143 C57.622,20.7139 57.622,20.7133 57.622,20.7131 C57.622,20.7126 57.622,20.7121 56.622,20.7121 C55.622,20.7121 55.622,20.7116 55.622,20.7112 C55.622,20.711 55.622,20.7106 55.622,20.7104 C55.622,20.7098 55.622,20.7094 55.622,20.7091 C55.622,20.7083 55.622,20.7079 55.622,20.7077 C55.622,20.7074 55.622,20.7082 55.622,20.7101 C55.6219,20.7139 55.6218,20.7221 55.6214,20.7343 C55.6206,20.7587 55.6188,20.7992 55.6149,20.8535 C55.6072,20.9626 55.5912,21.1254 55.5583,21.3245 C55.492,21.7269 55.3606,22.2549 55.1057,22.7815 C54.6188,23.7874 53.6735,24.8344 51.6258,24.9709 L51.7588,26.9664 Z M57.3469,20.0232 L54.2248,16.7379 L52.775,18.1156 L55.8971,21.401 L57.3469,20.0232 Z M53.4999,17.4267 C54.499,17.4684 54.499,17.4681 54.499,17.4678 C54.499,17.4677 54.4991,17.4674 54.4991,17.4671 C54.4991,17.4666 54.4991,17.4661 54.4991,17.4655 C54.4992,17.4642 54.4992,17.4628 54.4993,17.4611 C54.4994,17.4577 54.4996,17.4533 54.4997,17.4481 C54.5001,17.4375 54.5005,17.4232 54.5009,17.4053 C54.5018,17.3695 54.5026,17.3195 54.5028,17.2567 C54.5031,17.1312 54.5009,16.954 54.4911,16.7374 C54.4717,16.3058 54.4216,15.7086 54.298,15.0463 C54.0587,13.7632 53.5089,12.0432 52.1738,10.91389 L50.8822,12.4409 C51.6833,13.1185 52.1194,14.2732 52.332,15.413 C52.4344,15.9622 52.4767,16.4636 52.4932,16.8276 C52.5014,17.0088 52.503,17.1538 52.5028,17.2509 C52.5026,17.2995 52.502,17.3359 52.5015,17.3588 C52.5012,17.3702 52.501,17.3782 52.5008,17.3827 C52.5007,17.3849 52.5007,17.3863 52.5007,17.3867 C52.5007,17.3869 52.5007,17.3868 52.5007,17.3866 C52.5007,17.3865 52.5007,17.3863 52.5007,17.386 C52.5007,17.3859 52.5007,17.3857 52.5007,17.3856 C52.5007,17.3854 52.5007,17.3851 53.4999,17.4267 Z M52.1738,10.91389 C50.9775,9.90197 49.3744,9.15586 48.1322,8.67176 C47.5,8.42539 46.9381,8.23817 46.5333,8.11223 C46.3306,8.04916 46.1665,8.0012 46.0516,7.96863 C45.9942,7.95235 45.949,7.93989 45.9174,7.93131 C45.9016,7.92702 45.8892,7.9237 45.8804,7.92135 C45.8759,7.92017 45.8724,7.91924 45.8698,7.91854 C45.8685,7.9182 45.8674,7.91791 45.8665,7.91769 C45.8661,7.91758 45.8657,7.91748 45.8654,7.9174 C45.8653,7.91736 45.8651,7.91731 45.865,7.91729 C45.8648,7.91725 45.8647,7.9172 45.6123,8.88484 C45.36,9.85248 45.3599,9.85245 45.3597,9.85242 C45.3597,9.85241 45.3596,9.85238 45.3596,9.85237 C45.3595,9.85235 45.3595,9.85234 45.3595,9.85235 C45.3596,9.85237 45.3599,9.85245 45.3604,9.85258 C45.3614,9.85285 45.3633,9.85336 45.3661,9.8541 C45.3717,9.85559 45.3808,9.85802 45.3932,9.86139 C45.418,9.86813 45.4561,9.87862 45.5062,9.89281 C45.6063,9.9212 45.7541,9.96436 45.9391,10.02192 C46.3098,10.13725 46.8263,10.30936 47.406,10.53526 C48.5875,10.9957 49.9423,11.6459 50.8822,12.4409 L52.1738,10.91389 Z M46.6104,8.82244 L46.1174,0.9375964 L44.1213,1.0624036 L44.6143,8.94725 L46.6104,8.82244 Z M45.1193,1 C44.6928,0.095511 44.6926,0.095624 44.6923,0.095752 C44.6922,0.095816 44.6919,0.09596 44.6916,0.096088 C44.6911,0.096343 44.6904,0.096662 44.6896,0.097043 C44.688,0.097806 44.6858,0.09882 44.6832,0.100086 C44.6779,0.102618 44.6705,0.106154 44.661,0.110689 C44.6422,0.11976 44.6151,0.132829 44.5804,0.149852 C44.511,0.183895 44.4106,0.233769 44.2827,0.299114 C44.027,0.429777 43.6608,0.622478 43.2109,0.874368 C42.312,1.377713 41.0748,2.11974 39.716,3.07797 C37.0166,4.98154 33.7547,7.79517 31.7586,11.3523 L33.5027,12.331 C35.2861,9.15316 38.2685,6.54597 40.8686,4.71245 C42.1595,3.80214 43.3359,3.09656 44.188,2.61944 C44.6137,2.38109 44.9574,2.20034 45.1927,2.08011 C45.3103,2.02001 45.4008,1.975078 45.4608,1.945677 C45.4908,1.930977 45.5131,1.920164 45.5274,1.913283 C45.5346,1.909843 45.5397,1.907386 45.5428,1.905918 C45.5444,1.905184 45.5454,1.904698 45.5459,1.904459 C45.5461,1.90434 45.5463,1.904283 45.5462,1.904288 C45.5462,1.90429 45.5461,1.904341 45.5461,1.904342 C45.546,1.904408 45.5458,1.904489 45.1193,1 Z M31.7586,11.3523 C29.8256,14.7968 28.5681,18.1508 27.7936,20.641 C27.4059,21.8875 27.1381,22.9213 26.9666,23.6467 C26.8808,24.0095 26.819,24.2955 26.7784,24.4927 C26.758,24.5913 26.743,24.6677 26.7328,24.7205 C26.7277,24.7468 26.7239,24.7673 26.7212,24.7817 C26.7199,24.7889 26.7188,24.7945 26.7181,24.7986 C26.7177,24.8007 26.7174,24.8024 26.7172,24.8036 C26.717,24.8043 26.7169,24.8048 26.7169,24.8053 C26.7168,24.8055 26.7168,24.8058 26.7168,24.8059 C26.7167,24.8061 26.7167,24.8063 27.7009,24.983 C28.6852,25.1598 28.6852,25.1599 28.6851,25.1601 C28.6851,25.1601 28.6851,25.1602 28.6851,25.1602 C28.6851,25.1603 28.6851,25.1602 28.6851,25.1601 C28.6852,25.1598 28.6853,25.1592 28.6855,25.1581 C28.6859,25.156 28.6866,25.1524 28.6875,25.1472 C28.6894,25.137 28.6925,25.1206 28.6968,25.0985 C28.7053,25.0541 28.7186,24.9863 28.7371,24.8966 C28.7741,24.7171 28.8318,24.4499 28.9129,24.1069 C29.0751,23.4207 29.3311,22.4319 29.7034,21.235 C30.4489,18.8381 31.6563,15.6214 33.5027,12.331 L31.7586,11.3523 Z M27.7009,24.983 C27.6674,23.9836 27.6669,23.9836 27.6663,23.9836 C27.6661,23.9837 27.6654,23.9837 27.6649,23.9837 C27.6638,23.9837 27.6623,23.9838 27.6606,23.9838 C27.6572,23.984 27.6526,23.9841 27.6468,23.9844 C27.6352,23.9848 27.619,23.9855 27.5982,23.9865 C27.5566,23.9884 27.4968,23.9915 27.4199,23.9961 C27.2661,24.0054 27.0436,24.0209 26.7607,24.0464 C26.1951,24.0974 25.3871,24.1881 24.4033,24.3476 C22.4384,24.6662 19.7586,25.2616 16.904,26.3713 C11.2012,28.5883 4.69547,32.9061 1.93838,41.2607 L3.83763,41.8874 C6.33892,34.308 12.2397,30.3304 17.6287,28.2354 C20.3201,27.1891 22.8576,26.6243 24.7234,26.3218 C25.6551,26.1707 26.4158,26.0856 26.9401,26.0384 C27.2022,26.0148 27.405,26.0006 27.5402,25.9925 C27.6078,25.9884 27.6584,25.9859 27.6912,25.9843 C27.7075,25.9836 27.7194,25.9831 27.7267,25.9828 C27.7303,25.9826 27.7328,25.9825 27.7341,25.9825 C27.7348,25.9825 27.7351,25.9825 27.7352,25.9825 C27.7352,25.9825 27.7351,25.9825 27.7351,25.9825 C27.7348,25.9825 27.7345,25.9825 27.7009,24.983 Z M1.93838,41.2607 C-0.75704,49.4283 -0.21971,55.9546 1.02,60.463 C1.6385,62.7123 2.42947,64.4514 3.07191,65.636 C3.39319,66.2284 3.67763,66.6827 3.88535,66.9935 C3.98922,67.1489 4.07396,67.2685 4.13461,67.3516 C4.16494,67.3932 4.18925,67.4256 4.20692,67.4489 C4.21576,67.4605 4.22294,67.4699 4.22838,67.4769 C4.2311,67.4804 4.23339,67.4833 4.23523,67.4857 C4.23615,67.4869 4.23696,67.4879 4.23766,67.4888 C4.23801,67.4892 4.23845,67.4898 4.23863,67.49 C4.23904,67.4905 4.23942,67.491 5.0242,66.8713 C5.80898,66.2515 5.80931,66.2519 5.80961,66.2523 C5.80967,66.2523 5.80994,66.2527 5.81007,66.2529 C5.81032,66.2532 5.81045,66.2533 5.81048,66.2534 C5.81054,66.2535 5.81016,66.253 5.80935,66.2519 C5.80772,66.2498 5.80437,66.2455 5.79938,66.2389 C5.78939,66.2258 5.77282,66.2037 5.75027,66.1728 C5.70517,66.111 5.63618,66.0139 5.54813,65.8821 C5.37199,65.6186 5.11981,65.2169 4.83001,64.6825 C4.2503,63.6136 3.52127,62.016 2.94842,59.9327 C1.805437,55.7761 1.274672,49.6537 3.83763,41.8874 L1.93838,41.2607 Z M5.0242,67.8713 L32.1377,67.8713 L32.1377,65.8713 L5.0242,65.8713 L5.0242,67.8713 Z M33.1377,66.8713 C33.1377,63.8546 30.7178,61.436 27.7009,61.436 L27.7009,63.436 C29.6138,63.436 31.1377,64.9599 31.1377,66.8713 L33.1377,66.8713 Z M27.7009,61.436 L22.1139,61.436 L22.1139,63.436 L27.7009,63.436 L27.7009,61.436 Z M22.1139,62.436 C22.0841,63.4356 22.0845,63.4356 22.085,63.4356 C22.0853,63.4356 22.0858,63.4356 22.0863,63.4356 C22.0872,63.4357 22.0882,63.4357 22.0894,63.4357 C22.0919,63.4358 22.095,63.4359 22.0988,63.4359 C22.1064,63.4361 22.1166,63.4363 22.1294,63.4365 C22.1549,63.4369 22.1907,63.4373 22.2361,63.4374 C22.3268,63.4375 22.4558,63.4364 22.6179,63.4314 C22.9416,63.4214 23.3988,63.396 23.9454,63.3348 C25.0331,63.2131 26.5023,62.9466 27.9865,62.3598 C29.4703,61.7731 31.0112,60.8493 32.1832,59.3891 C33.3675,57.9137 34.1237,55.9539 34.1237,53.4013 L32.1237,53.4013 C32.1237,55.5303 31.5036,57.0407 30.6235,58.1371 C29.7313,59.2487 28.5197,59.9984 27.2511,60.4999 C25.9828,61.0014 24.6996,61.238 23.723,61.3472 C23.2374,61.4016 22.8344,61.4237 22.5561,61.4323 C22.4171,61.4366 22.3097,61.4375 22.2391,61.4374 C22.2038,61.4374 22.1777,61.4371 22.1616,61.4368 C22.1536,61.4367 22.148,61.4365 22.145,61.4365 C22.1435,61.4364 22.1426,61.4364 22.1424,61.4364 C22.1423,61.4364 22.1424,61.4364 22.1426,61.4364 C22.1427,61.4364 22.143,61.4364 22.143,61.4364 C22.1434,61.4364 22.1437,61.4365 22.1139,62.436 Z M34.1237,53.4013 C34.1237,50.8395 33.3364,48.843 32.1221,47.3148 C30.9205,45.8024 29.3408,44.7978 27.8151,44.1285 C26.2881,43.4585 24.7741,43.1064 23.6508,42.9206 C23.0866,42.8273 22.6148,42.7749 22.2808,42.7457 C22.1137,42.7311 21.9807,42.7223 21.8874,42.7171 C21.8407,42.7145 21.804,42.7127 21.7778,42.7116 C21.7648,42.7111 21.7543,42.7107 21.7466,42.7104 C21.7428,42.7103 21.7396,42.7102 21.7372,42.7101 C21.7359,42.7101 21.7349,42.71 21.734,42.71 C21.7335,42.71 21.733,42.71 21.7328,42.71 C21.7323,42.71 21.7319,42.7099 21.7031,43.7095 C21.6744,44.7091 21.674,44.7091 21.6737,44.7091 C21.6736,44.7091 21.6734,44.7091 21.6733,44.7091 C21.6731,44.7091 21.6731,44.7091 21.6732,44.7091 C21.6735,44.7091 21.6745,44.7091 21.6761,44.7092 C21.6794,44.7093 21.6854,44.7095 21.6939,44.7099 C21.711,44.7106 21.7384,44.7119 21.7754,44.7139 C21.8494,44.7181 21.9617,44.7255 22.1068,44.7381 C22.3974,44.7635 22.8178,44.81 23.3244,44.8938 C24.3424,45.0622 25.6836,45.3773 27.0117,45.96 C28.3411,46.5432 29.6166,47.3763 30.5563,48.5589 C31.4834,49.7258 32.1237,51.2815 32.1237,53.4013 L34.1237,53.4013 Z" id="path0_stroke"></path>
                </g>
            </g>
            <g id="Vector" transform="translate(42.000000, 24.000000)">
                <g id="path1_stroke-link" transform="translate(0.310000, 0.300000)">
                    <path d="M13.3243,9.45977 L14.3232,9.50811 L14.3232,9.50735 L13.3243,9.45977 Z M9.87351,24.326 L8.95778,23.9242 L8.95741,23.925 L9.87351,24.326 Z M8.72322,26.9543 L7.80712,26.5533 C7.75179,26.6797 7.72322,26.8162 7.72322,26.9543 L8.72322,26.9543 Z M8.72322,37.7959 L7.72322,37.7959 C7.72322,38.3482 8.17094,38.7959 8.72322,38.7959 L8.72322,37.7959 Z M14.146,42.5597 L14.146,43.5597 C14.6982,43.5597 15.146,43.112 15.146,42.5597 L14.146,42.5597 Z M6.25836,42.5597 L5.26397,42.6655 C5.31808,43.1739 5.74704,43.5597 6.25836,43.5597 L6.25836,42.5597 Z M14.1733,0.392422 C13.4758,1.304209 13.0786,2.77943 12.8212,4.29217 C12.5546,5.85913 12.4084,7.67081 12.3255,9.41219 L14.3232,9.50735 C14.4046,7.79911 14.5459,6.07904 14.7929,4.6276 C15.049,3.12193 15.3912,2.09207 15.7618,1.607588 L14.1733,0.392422 Z M12.3255,9.41142 C12.0846,14.3878 10.96046,19.3596 8.95778,23.9242 L10.78925,24.7278 C12.8947,19.9291 14.0711,14.7164 14.3232,9.50811 L12.3255,9.41142 Z M8.95741,23.925 L7.80712,26.5533 L9.63933,27.3552 L10.78962,24.7269 L8.95741,23.925 Z M7.72322,26.9543 L7.72322,37.7959 L9.72322,37.7959 L9.72322,26.9543 L7.72322,26.9543 Z M8.72322,38.7959 L9.38056,38.7959 L9.38056,36.7959 L8.72322,36.7959 L8.72322,38.7959 Z M9.38056,38.7959 C11.4578,38.7959 13.146,40.484 13.146,42.5597 L15.146,42.5597 C15.146,39.3788 12.5617,36.7959 9.38056,36.7959 L9.38056,38.7959 Z M14.146,41.5597 L6.25836,41.5597 L6.25836,43.5597 L14.146,43.5597 L14.146,41.5597 Z M6.25836,42.5597 C7.25274,42.4539 7.25272,42.4536 7.25268,42.4533 C7.25267,42.4532 7.25263,42.4528 7.2526,42.4526 C7.25255,42.452 7.25247,42.4513 7.25239,42.4506 C7.25222,42.449 7.252,42.4469 7.25172,42.4444 C7.25117,42.4394 7.2504,42.4325 7.2494,42.4238 C7.24742,42.4064 7.24453,42.3817 7.24064,42.35 C7.23288,42.2866 7.22116,42.1951 7.20478,42.0778 C7.17204,41.8432 7.12065,41.5053 7.04506,41.0824 C6.89398,40.2372 6.64571,39.0495 6.25529,37.6677 C5.4772,34.9138 4.12134,31.341 1.807704,28.1716 L0.192316,29.3508 C2.31543,32.2592 3.58875,35.5857 4.33064,38.2115 C4.70022,39.5196 4.93464,40.642 5.07626,41.4343 C5.14702,41.8302 5.19448,42.1429 5.224,42.3543 C5.23875,42.46 5.24901,42.5403 5.25545,42.5929 C5.25867,42.6193 5.26093,42.6386 5.26233,42.6508 C5.26302,42.6569 5.2635,42.6612 5.26377,42.6637 C5.26391,42.6649 5.26399,42.6657 5.26402,42.666 C5.26404,42.6661 5.26404,42.6662 5.26404,42.6661 C5.26403,42.666 5.26402,42.6659 5.26401,42.6659 C5.26399,42.6657 5.26397,42.6655 6.25836,42.5597 Z" id="path1_stroke"></path>
                </g>
            </g>
            <g id="Vector" transform="translate(0.000000, 21.000000)">
                <g id="path2_stroke-link">
                    <path d="M15.1319,44.8455 C10.72667,44.8455 7.4759,42.7739 5.29555,39.8295 C3.09514,36.8581 2.00001,33.0068 2.00001,29.583 L1e-05,29.583 C1e-05,33.3869 1.205423,37.6669 3.68826,41.0197 C6.19116,44.3997 10.00635,46.8455 15.1319,46.8455 L15.1319,44.8455 Z M2.00001,29.583 C2.00001,27.9737 2.52609,26.1173 3.38385,24.099 C4.23743,22.0905 5.38266,20.004 6.553,17.9412 C7.71147,15.8993 8.90579,13.8622 9.80164,12.0266 C10.68314,10.22038 11.3665,8.43695 11.3665,6.91406 L9.36647,6.91406 C9.36647,7.93732 8.87898,9.35711 8.00427,11.1494 C7.14392,12.9123 5.99662,14.8689 4.81347,16.9542 C3.6422,19.0187 2.44582,21.1928 1.543185,23.3167 C0.644733,25.4307 1e-05,27.5784 1e-05,29.583 L2.00001,29.583 Z M11.3665,6.91406 C11.3665,5.21986 10.93987,3.88917 10.24373,2.86413 C9.55172,1.845167 8.63647,1.191274 7.75392,0.773996 C6.87571,0.358769 6.01071,0.168115 5.37474,0.07934 C5.05423,0.034598 4.78502,0.014797 4.59209,0.006233 C4.49544,0.001943 4.41742,0.000451 4.36108,9.6e-05 C4.3329,-8e-05 4.31009,2.5e-05 4.29304,0.000211 C4.28452,0.000304 4.27743,0.000416 4.27182,0.000523 C4.26902,0.000577 4.26659,0.000629 4.26453,0.000676 C4.2635,0.0007 4.26256,0.000723 4.26172,0.000744 C4.2613,0.000754 4.26074,0.000769 4.26053,0.000774 C4.26,0.000788 4.25949,0.000802 4.2865,1.00043701 C4.3135,2.00007 4.31304,2.00008 4.3126,2.0001 C4.31248,2.0001 4.31206,2.00011 4.31182,2.00012 C4.31135,2.00013 4.31097,2.00014 4.31068,2.00014 C4.3101,2.00016 4.30987,2.00016 4.30998,2.00016 C4.31022,2.00015 4.31185,2.00012 4.31483,2.00009 C4.32079,2.00003 4.33213,1.999953 4.34847,2.00006 C4.3812,2.00026 4.4338,2.00118 4.5034,2.00427 C4.64297,2.01046 4.84876,2.02531 5.09824,2.06013 C5.60227,2.13049 6.25726,2.27864 6.89904,2.58208 C7.53648,2.88347 8.14122,3.32812 8.58921,3.98776 C9.03307,4.64133 9.36647,5.56932 9.36647,6.91406 L11.3665,6.91406 Z" id="path2_stroke"></path>
                </g>
            </g>
            <g id="Vector" transform="translate(54.000000, 1.000000)">
                <g id="path3_stroke-link" transform="translate(0.640000, 0.300000)">
                    <path d="M4.45083,1.00000501 L5.44764,0.9202335 C5.41764,0.545343 5.17984,0.218987 4.83217,0.07557 C4.4845,-0.06785 4.08576,-0.00407 3.80017,0.240635 L4.45083,1.00000501 Z M6.10493,9.1336 L5.44764,0.9202335 L3.45402,1.0797765 L4.1113,9.29315 L6.10493,9.1336 Z M3.80017,0.240635 L0.349351,3.19744 L1.650669,4.71618 L5.10149,1.759375 L3.80017,0.240635 Z" id="path3_stroke"></path>
                </g>
            </g>
        </g>
    </g>
</svg>