<?xml version="1.0" encoding="UTF-8"?>
<svg width="100px" height="71px" viewBox="0 0 100 71" version="1.1" xmlns="http://www.w3.org/2000/svg" xmlns:xlink="http://www.w3.org/1999/xlink">
    <!-- Generator: Sketch 49.1 (51147) - http://www.bohemiancoding.com/sketch -->
    <title>icMobileWallet</title>
    <desc>Created with Sketch.</desc>
    <defs></defs>
    <g id="icMobileWallet" stroke="none" stroke-width="1" fill="none" fill-rule="evenodd">
        <g id="mobile-wallet" transform="translate(17.000000, 0.000000)" fill-rule="nonzero">
            <g id="Vector" fill="#FFFFFF">
                <g id="path0_stroke-link" transform="translate(0.080000, 0.000000)">
                    <path d="M42.5881,16.359 L42.5881,7.24215 L40.5881,7.24215 L40.5881,16.359 L42.5881,16.359 Z M42.5881,7.24215 C42.5881,3.23992 39.3466,1e-05 35.3438,1e-05 L35.3438,2.00001 C38.2426,2.00001 40.5881,4.34515 40.5881,7.24215 L42.5881,7.24215 Z M35.3438,1e-05 L7.24432,1e-05 L7.24432,2.00001 L35.3438,2.00001 L35.3438,1e-05 Z M7.24432,1e-05 C3.24155,1e-05 3e-06,3.23992 3e-06,7.24215 L2,7.24215 C2,4.34515 4.34546,2.00001 7.24432,2.00001 L7.24432,1e-05 Z M3e-06,7.24215 L3e-06,63.5037 L2,63.5037 L2,7.24215 L3e-06,7.24215 Z M3e-06,63.5037 C3e-06,67.506 3.24155,70.7459 7.24432,70.7459 L7.24432,68.7459 C4.34547,68.7459 2,66.4008 2,63.5037 L3e-06,63.5037 Z M7.24432,70.7459 L35.3438,70.7459 L35.3438,68.7459 L7.24432,68.7459 L7.24432,70.7459 Z M35.3438,70.7459 C39.3466,70.7459 42.5881,67.506 42.5881,63.5037 L40.5881,63.5037 C40.5881,66.4008 38.2426,68.7459 35.3438,68.7459 L35.3438,70.7459 Z M42.5881,63.5037 L42.5881,49.2125 L40.5881,49.2125 L40.5881,63.5037 L42.5881,63.5037 Z" id="path0_stroke"></path>
                </g>
            </g>
            <g id="Vector" transform="translate(21.000000, 15.000000)" fill="#0072FF">
                <g id="path1_stroke-link" transform="translate(0.280000, 0.100000)">
                    <path d="M39.3697,9.0491 L39.3697,10.0491 C39.922,10.0491 40.3697,9.60138 40.3697,9.0491 L39.3697,9.0491 Z M39.3697,1.00000501 L40.3697,1.00000501 C40.3697,0.44772 39.922,5e-06 39.3697,5e-06 L39.3697,1.00000501 Z M38.3697,1.0821437 L38.3697,9.0491 L40.3697,9.0491 L40.3697,1.0821437 L38.3697,1.0821437 Z M39.3697,8.0491 L5.02595,8.0491 L5.02595,10.0491 L39.3697,10.0491 L39.3697,8.0491 Z M5.02595,8.0491 C3.35953,8.0491 2.00001,6.68955 2.00001,5.02455 L5e-06,5.02455 C5e-06,7.79477 2.25561,10.0491 5.02595,10.0491 L5.02595,8.0491 Z M2.00001,5.02455 C2.00001,3.35955 3.35953,2.00001 5.02595,2.00001 L5.02595,5e-06 C2.25561,5e-06 5e-06,2.25433 5e-06,5.02455 L2.00001,5.02455 Z M5.02595,2.00001 L39.3697,2.00001 L39.3697,5e-06 L5.02595,5e-06 L5.02595,2.00001 Z M38.3697,1.00000501 L38.3697,1.0821437 L40.3697,1.0821437 L40.3697,1.00000501 L38.3697,1.00000501 Z" id="path1_stroke"></path>
                </g>
            </g>
            <g id="Vector" transform="translate(59.000000, 23.000000)" fill="#0072FF">
                <g id="path2_stroke-link" transform="translate(0.650000, 0.200000)">
                    <path d="M-1e-05,9.13123 C-1e-05,9.68351 0.447703,10.13123 0.999987793,10.13123 C1.552273,10.13123 1.999988,9.68351 1.999988,9.13123 L-1e-05,9.13123 Z M1.999988,0.999994987 C1.999988,0.44771 1.552273,-1e-05 0.999987793,-1e-05 C0.447703,-1e-05 -1e-05,0.44771 -1e-05,0.999994987 L1.999988,0.999994987 Z M1.999988,9.13123 L1.999988,0.999994987 L-1e-05,0.999994987 L-1e-05,9.13123 L1.999988,9.13123 Z" id="path2_stroke"></path>
                </g>
            </g>
            <g id="Vector" transform="translate(21.000000, 19.000000)" fill="#0072FF">
                <g id="path3_stroke-link" transform="translate(0.360000, 0.900000)">
                    <path d="M1.999997,0.999994987 C1.999997,0.44771 1.552282,-1e-05 0.999997493,-1e-05 C0.447713,-1e-05 0,0.44771 0,0.999994987 L1.999997,0.999994987 Z M39.2876,29.3361 L39.2876,30.3361 C39.8398,30.3361 40.2876,29.8884 40.2876,29.3361 L39.2876,29.3361 Z M40.2876,20.6299 C40.2876,20.0777 39.8398,19.6299 39.2876,19.6299 C38.7353,19.6299 38.2876,20.0777 38.2876,20.6299 L40.2876,20.6299 Z M0,0.999994987 L0,23.9974 L1.999997,23.9974 L1.999997,0.999994987 L0,0.999994987 Z M0,23.9974 C0,27.5069 2.83076,30.3361 6.34055,30.3361 L6.34055,28.3361 C3.93467,28.3361 1.999997,26.4016 1.999997,23.9974 L0,23.9974 Z M6.34055,30.3361 L39.2876,30.3361 L39.2876,28.3361 L6.34055,28.3361 L6.34055,30.3361 Z M40.2876,29.3361 L40.2876,20.6299 L38.2876,20.6299 L38.2876,29.3361 L40.2876,29.3361 Z" id="path3_stroke"></path>
                </g>
            </g>
            <g id="Vector" transform="translate(51.000000, 31.000000)" fill="#0072FF">
                <g id="path4_stroke-link" transform="translate(0.680000, 0.600000)">
                    <path d="M13.3243,5.02456 L14.3236,5.06158 C14.3241,5.04925 14.3243,5.0369 14.3243,5.02456 L13.3243,5.02456 Z M9.29839,8.04911 L5.02595,8.04911 L5.02595,10.0491 L9.29839,10.0491 L9.29839,8.04911 Z M5.02595,8.04911 C3.35953,8.04911 2.00001,6.68956 2.00001,5.02456 L5e-06,5.02456 C5e-06,7.79478 2.25561,10.0491 5.02595,10.0491 L5.02595,8.04911 Z M2.00001,5.02456 C2.00001,3.35956 3.35953,2.00001 5.02595,2.00001 L5.02595,1e-05 C2.25561,1e-05 5e-06,2.25434 5e-06,5.02456 L2.00001,5.02456 Z M5.02595,2.00001 L9.29839,2.00001 L9.29839,1e-05 L5.02595,1e-05 L5.02595,2.00001 Z M9.29839,2.00001 C10.96481,2.00001 12.3243,3.35956 12.3243,5.02456 L14.3243,5.02456 C14.3243,2.25434 12.0687,1e-05 9.29839,1e-05 L9.29839,2.00001 Z M12.325,4.98753 C12.2615,6.7019 10.86309,8.04911 9.29839,8.04911 L9.29839,10.0491 C12.0061,10.0491 14.2228,7.78244 14.3236,5.06158 L12.325,4.98753 Z" id="path4_stroke"></path>
                </g>
            </g>
            <g id="Vector" transform="translate(21.000000, 19.000000)" fill="#0072FF">
                <g id="path5_stroke-link" transform="translate(0.360000, 0.200000)">
                    <path d="M1.999997,1.00000501 C1.999997,0.44772 1.552282,5e-06 0.999997493,5e-06 C0.447713,5e-06 0,0.44772 0,1.00000501 L1.999997,1.00000501 Z M39.3697,6.02455 C39.922,6.02455 40.3697,5.57684 40.3697,5.02455 C40.3697,4.47227 39.922,4.02455 39.3697,4.02455 L39.3697,6.02455 Z M0,1.00000501 C0,3.77023 2.25562,6.02455 5.02595,6.02455 L5.02595,4.02455 C3.35953,4.02455 1.999997,2.665 1.999997,1.00000501 L0,1.00000501 Z M5.02595,6.02455 L39.3697,6.02455 L39.3697,4.02455 L5.02595,4.02455 L5.02595,6.02455 Z" id="path5_stroke"></path>
                </g>
            </g>
            <g id="Vector" transform="translate(1.000000, 57.000000)" fill="#FFFFFF">
                <g id="path6_stroke-link" transform="translate(0.000000, 0.200000)">
                    <polygon id="path6_stroke" points="-2.50739e-06 1.499994 40.6703 1.499994 40.6703 0.499994 -2.50739e-06 0.499994"></polygon>
                </g>
            </g>
        </g>
    </g>
</svg>