<?xml version="1.0" encoding="UTF-8"?>
<svg width="100px" height="84px" viewBox="0 0 100 84" version="1.1" xmlns="http://www.w3.org/2000/svg" xmlns:xlink="http://www.w3.org/1999/xlink">
    <!-- Generator: Sketch 49.3 (51167) - http://www.bohemiancoding.com/sketch -->
    <title>icNode (2)</title>
    <desc>Created with Sketch.</desc>
    <defs></defs>
    <g id="icNode-(2)" stroke="none" stroke-width="1" fill="none" fill-rule="evenodd">
        <g transform="translate(9.000000, 1.000000)">
            <circle id="Oval" stroke="#FFFFFF" stroke-width="2" cx="40.8" cy="40.9" r="20.2"></circle>
            <path d="M45.6,31.7 L38.1,48.1 L35.6,48.1 L43.7,30.2 C44.5,30.6 45.1,31.1 45.6,31.7 Z M40.8,29.4 C41.7,29.4 42.5,29.6 43.2,29.9 L35,48.1 L34.7,48.1 C33.9,48.1 33.2,47.9 32.5,47.7 L40.8,29.4 Z M50.7,36.9 C51.2,37.3 51.6,37.8 52,38.3 L47.6,48.1 C47.4,48.1 47.2,48.2 47,48.2 L45.6,48.2 L50.7,36.9 Z M49.1,47.7 L52.8,39.7 C53,40.3 53.1,41.1 53.1,41.8 C53.1,44.5 51.4,46.8 49.1,47.7 Z M47,35.6 L41.3,48.1 L39,48.1 L46.2,32.4 C46.6,33.4 47,34.5 47,35.6 Z M40.4,29.4 L32.1,47.6 C30,46.6 28.6,44.4 28.6,41.9 C28.6,38.5 31.3,35.7 34.7,35.7 C34.7,32.3 37.2,29.6 40.4,29.4 Z M49.7,36.3 L44.3,48.1 L42.1,48.1 L47.7,35.7 C48.6,35.8 49.2,36 49.7,36.3 Z" id="path0_fill_7_" fill="#0072FF" fill-rule="nonzero"></path>
            <circle id="Oval" stroke="#FFFFFF" stroke-width="2" cx="40.8" cy="4.4" r="3.8"></circle>
            <circle id="Oval" stroke="#FFFFFF" stroke-width="2" cx="40.8" cy="77.4" r="3.8"></circle>
            <circle id="Oval" stroke="#FFFFFF" stroke-width="2" cx="4.3" cy="40.9" r="3.8"></circle>
            <circle id="Oval" stroke="#FFFFFF" stroke-width="2" cx="77.3" cy="40.9" r="3.8"></circle>
            <circle id="Oval" stroke="#FFFFFF" stroke-width="1.99998082" transform="translate(14.946400, 15.114320) rotate(-45.000000) translate(-14.946400, -15.114320) " cx="14.9464" cy="15.11432" r="3.79996356"></circle>
            <circle id="Oval" stroke="#FFFFFF" stroke-width="1.99998082" transform="translate(66.608630, 66.662410) rotate(-45.000000) translate(-66.608630, -66.662410) " cx="66.60863" cy="66.66241" r="3.79996356"></circle>
            <circle id="Oval" stroke="#FFFFFF" stroke-width="1.99998082" transform="translate(14.932760, 66.719480) rotate(-45.000000) translate(-14.932760, -66.719480) " cx="14.93276" cy="66.71948" r="3.79996356"></circle>
            <circle id="Oval" stroke="#FFFFFF" stroke-width="1.99998082" transform="translate(66.622270, 15.057250) rotate(-45.000000) translate(-66.622270, -15.057250) " cx="66.62227" cy="15.05725" r="3.79996356"></circle>
            <path d="M8,40.9 L20,40.9" id="Shape" stroke="#FFFFFF" stroke-width="2"></path>
            <path d="M61,40.9 L73,40.9" id="Shape" stroke="#FFFFFF" stroke-width="2"></path>
            <path d="M40.5,8.4 L40.5,20.4" id="Shape" stroke="#FFFFFF" stroke-width="2"></path>
            <path d="M40.5,61.4 L40.5,73.4" id="Shape" stroke="#FFFFFF" stroke-width="2"></path>
            <path d="M17.5,63.8 L26,55.4" id="Shape" stroke="#FFFFFF" stroke-width="2"></path>
            <path d="M55,26.4 L63.5,17.9" id="Shape" stroke="#FFFFFF" stroke-width="2"></path>
            <path d="M17.5,17.9 L26,26.4" id="Shape" stroke="#FFFFFF" stroke-width="2"></path>
            <path d="M55,55.4 L63.5,63.8" id="Shape" stroke="#FFFFFF" stroke-width="2"></path>
        </g>
    </g>
</svg>