<?xml version="1.0" encoding="utf-8"?>
<!-- Generator: Adobe Illustrator 19.2.1, SVG Export Plug-In . SVG Version: 6.00 Build 0)  -->
<svg version="1.1" id="Слой_1" xmlns="http://www.w3.org/2000/svg" xmlns:xlink="http://www.w3.org/1999/xlink" x="0px" y="0px"
	 viewBox="0 0 87 87" style="enable-background:new 0 0 87 87;" xml:space="preserve">
<style type="text/css">
	.st0{fill:none;stroke:#FFFFFF;stroke-width:2;stroke-miterlimit:10;}
	.st1{fill:#0072FF;}
</style>
<circle class="st0" cx="43.8" cy="43.9" r="20.2"/>
<path id="path0_fill_7_" class="st1" d="M48.6,34.7l-7.5,16.4h-2.5l8.1-17.9C47.5,33.6,48.1,34.1,48.6,34.7z M43.8,32.4
	c0.9,0,1.7,0.2,2.4,0.5L38,51.1h-0.3c-0.8,0-1.5-0.2-2.2-0.4L43.8,32.4z M53.7,39.9c0.5,0.4,0.9,0.9,1.3,1.4l-4.4,9.8
	c-0.2,0-0.4,0.1-0.6,0.1h-1.4L53.7,39.9z M52.1,50.7l3.7-8c0.2,0.6,0.3,1.4,0.3,2.1C56.1,47.5,54.4,49.8,52.1,50.7z M50,38.6
	l-5.7,12.5h-2.3l7.2-15.7C49.6,36.4,50,37.5,50,38.6z M43.4,32.4l-8.3,18.2c-2.1-1-3.5-3.2-3.5-5.7c0-3.4,2.7-6.2,6.1-6.2
	C37.7,35.3,40.2,32.6,43.4,32.4z M52.7,39.3l-5.4,11.8h-2.2l5.6-12.4C51.6,38.8,52.2,39,52.7,39.3z"/>
<circle class="st0" cx="43.8" cy="7.4" r="3.8"/>
<circle class="st0" cx="43.8" cy="80.4" r="3.8"/>
<circle class="st0" cx="7.3" cy="43.9" r="3.8"/>
<circle class="st0" cx="80.3" cy="43.9" r="3.8"/>
<ellipse transform="matrix(0.7071 -0.7071 0.7071 0.7071 -7.5092 17.9729)" class="st0" cx="17.9" cy="18.1" rx="3.8" ry="3.8"/>
<ellipse transform="matrix(0.7071 -0.7071 0.7071 0.7071 -28.8904 69.5917)" class="st0" cx="69.6" cy="69.7" rx="3.8" ry="3.8"/>
<ellipse transform="matrix(0.7071 -0.7071 0.7071 0.7071 -44.0092 33.0917)" class="st0" cx="17.9" cy="69.7" rx="3.8" ry="3.8"/>
<ellipse transform="matrix(0.7071 -0.7071 0.7071 0.7071 7.6096 54.4729)" class="st0" cx="69.6" cy="18.1" rx="3.8" ry="3.8"/>
<line class="st0" x1="11" y1="43.9" x2="23" y2="43.9"/>
<line class="st0" x1="64" y1="43.9" x2="76" y2="43.9"/>
<line class="st0" x1="43.5" y1="11.4" x2="43.5" y2="23.4"/>
<line class="st0" x1="43.5" y1="64.4" x2="43.5" y2="76.4"/>
<line class="st0" x1="20.5" y1="66.8" x2="29" y2="58.4"/>
<line class="st0" x1="58" y1="29.4" x2="66.5" y2="20.9"/>
<line class="st0" x1="20.5" y1="20.9" x2="29" y2="29.4"/>
<line class="st0" x1="58" y1="58.4" x2="66.5" y2="66.8"/>
</svg>
