<?xml version="1.0" encoding="UTF-8"?>
<svg width="100px" height="77px" viewBox="0 0 100 77" version="1.1" xmlns="http://www.w3.org/2000/svg" xmlns:xlink="http://www.w3.org/1999/xlink">
    <!-- Generator: Sketch 49.1 (51147) - http://www.bohemiancoding.com/sketch -->
    <title>icNode</title>
    <desc>Created with Sketch.</desc>
    <defs></defs>
    <g id="icNode" stroke="none" stroke-width="1" fill="none" fill-rule="evenodd">
        <g id="node" transform="translate(18.000000, 0.000000)" fill-rule="nonzero">
            <g id="Vector" transform="translate(39.000000, 1.000000)" fill="#0072FF">
                <g id="path0_fill-link" transform="translate(0.530000, 0.900000)">
                    <path d="M12.0778,24.1473 C18.7482,24.1473 24.1557,18.7418 24.1557,12.0737 C24.1557,5.40556 18.7482,2.50652e-06 12.0778,2.50652e-06 C5.40742,2.50652e-06 5.01478e-06,5.40556 5.01478e-06,12.0737 C5.01478e-06,18.7418 5.40742,24.1473 12.0778,24.1473 Z" id="path0_fill"></path>
                </g>
            </g>
            <g id="Vector" transform="translate(0.000000, 19.000000)" fill="#FFFFFF">
                <g id="path1_stroke-link" transform="translate(0.000000, 0.900000)">
                    <path d="M7.65513,30.1719 C8.20741,30.1719 8.65513,29.7241 8.65513,29.1719 C8.65513,28.6196 8.20741,28.1719 7.65513,28.1719 L7.65513,30.1719 Z M34.6865,6.33869 L34.0866,7.13879 C34.092,7.14281 34.0974,7.14678 34.1029,7.1507 L34.6865,6.33869 Z M44.6281,13.4843 L44.0445,14.2963 L44.047,14.2982 L44.6281,13.4843 Z M44.9568,15.3734 L45.6742,16.07 C45.7235,16.0193 45.7672,15.9635 45.8047,15.9035 L44.9568,15.3734 Z M42.2454,18.1659 L41.912,19.1087 C42.2803,19.239 42.6907,19.1428 42.9629,18.8626 L42.2454,18.1659 Z M24.827,12.0059 L25.1605,11.0631 C24.8544,10.9549 24.5148,11.002 24.2497,11.1894 C23.9846,11.3768 23.827,11.6813 23.827,12.0059 L24.827,12.0059 Z M23.827,55.3725 C23.827,55.9248 24.2748,56.3725 24.827,56.3725 C25.3793,56.3725 25.827,55.9248 25.827,55.3725 L23.827,55.3725 Z M7.65513,28.1719 C4.50979,28.1719 2.00001,25.6624 2.00001,22.519 L1e-05,22.519 C1e-05,26.7677 3.40587,30.1719 7.65513,30.1719 L7.65513,28.1719 Z M2.00001,22.519 L2.00001,9.45977 L1e-05,9.45977 L1e-05,22.519 L2.00001,22.519 Z M2.00001,9.45977 C2.00001,5.33076 5.33142,1.999995 9.4627,1.999995 L9.4627,-1e-05 C4.2275,-1e-05 1e-05,4.22554 1e-05,9.45977 L2.00001,9.45977 Z M9.4627,1.999995 L22.1157,1.999995 L22.1157,-1e-05 L9.4627,-1e-05 L9.4627,1.999995 Z M22.1157,1.999995 C26.2836,1.999995 30.4911,4.44309 34.0866,7.13879 L35.2864,5.53859 C31.6516,2.81346 26.9856,-1e-05 22.1157,-1e-05 L22.1157,1.999995 Z M34.1029,7.1507 L44.0445,14.2963 L45.2117,12.6723 L35.2701,5.52668 L34.1029,7.1507 Z M44.047,14.2982 C44.1683,14.3848 44.2552,14.6092 44.1088,14.8433 L45.8047,15.9035 C46.48,14.8235 46.2381,13.4052 45.2092,12.6705 L44.047,14.2982 Z M44.2393,14.6768 L41.5279,17.4693 L42.9629,18.8626 L45.6742,16.07 L44.2393,14.6768 Z M42.5788,17.2232 L25.1605,11.0631 L24.4936,12.9487 L41.912,19.1087 L42.5788,17.2232 Z M23.827,12.0059 L23.827,55.3725 L25.827,55.3725 L25.827,12.0059 L23.827,12.0059 Z" id="path1_stroke"></path>
                </g>
            </g>
            <g id="Vector" transform="translate(6.000000, 30.000000)" fill="#FFFFFF">
                <g id="path2_stroke-link" transform="translate(0.980000, 0.600000)">
                    <path d="M2.00001,1 C2.00001,0.447715 1.552297,0 1.00001221,0 C0.447727,0 1.2e-05,0.447715 1.2e-05,1 L2.00001,1 Z M1.2e-05,44.7773 C1.2e-05,45.3295 0.447727,45.7773 1.00001221,45.7773 C1.552297,45.7773 2.00001,45.3295 2.00001,44.7773 L1.2e-05,44.7773 Z M1.2e-05,1 L1.2e-05,44.7773 L2.00001,44.7773 L2.00001,1 L1.2e-05,1 Z" id="path2_stroke"></path>
                </g>
            </g>
            <g id="Vector" transform="translate(15.000000, 49.000000)" fill="#FFFFFF">
                <g id="path3_stroke-link" transform="translate(0.280000, 0.500000)">
                    <path d="M-1e-05,25.3937 C-1e-05,25.946 0.447703,26.3937 0.999987793,26.3937 C1.552273,26.3937 1.999988,25.946 1.999988,25.3937 L-1e-05,25.3937 Z M1.999988,1 C1.999988,0.447715 1.552273,0 0.999987793,0 C0.447703,0 -1e-05,0.447715 -1e-05,1 L1.999988,1 Z M1.999988,25.3937 L1.999988,1 L-1e-05,1 L-1e-05,25.3937 L1.999988,25.3937 Z" id="path3_stroke"></path>
                </g>
            </g>
            <g id="Vector" transform="translate(10.000000, 0.000000)" fill="#FFFFFF">
                <g id="path4_stroke-link" transform="translate(0.110000, 0.000000)">
                    <path d="M6.99783,15.1126 C4.2633,15.1126 2,12.8496 2,10.11685 L0,10.11685 C0,13.9548 3.15938,17.1126 6.99783,17.1126 L6.99783,15.1126 Z M2,10.11685 L2,6.99576 L0,6.99576 L0,10.11685 L2,10.11685 Z M2,6.99576 C2,4.26302 4.2633,1.999997 6.99783,1.999997 L6.99783,0 C3.15938,0 0,3.1578 0,6.99576 L2,6.99576 Z M6.99783,1.999997 C9.73236,1.999997 11.9957,4.26303 11.9957,6.99576 L13.9957,6.99576 C13.9957,3.1578 10.83627,0 6.99783,0 L6.99783,1.999997 Z M11.9957,6.99576 L11.9957,10.11685 L13.9957,10.11685 L13.9957,6.99576 L11.9957,6.99576 Z M11.9957,10.11685 C11.9957,12.8496 9.73236,15.1126 6.99783,15.1126 L6.99783,17.1126 C10.83627,17.1126 13.9957,13.9548 13.9957,10.11685 L11.9957,10.11685 Z" id="path4_stroke"></path>
                </g>
            </g>
        </g>
    </g>
</svg>