<?xml version="1.0" encoding="UTF-8"?>
<svg width="100px" height="74px" viewBox="0 0 100 74" version="1.1" xmlns="http://www.w3.org/2000/svg" xmlns:xlink="http://www.w3.org/1999/xlink">
    <!-- Generator: Sketch 49.1 (51147) - http://www.bohemiancoding.com/sketch -->
    <title>icObelisk</title>
    <desc>Created with Sketch.</desc>
    <defs></defs>
    <g id="icObelisk" stroke="none" stroke-width="1" fill="none" fill-rule="evenodd">
        <g id="obelisk" transform="translate(1.000000, 0.000000)" fill-rule="nonzero">
            <g id="Group" transform="translate(0.000000, 4.000000)" fill="#0072FF">
                <g id="Vector" transform="translate(14.000000, 0.000000)">
                    <g id="path0_stroke-link" transform="translate(0.050000, 0.700000)">
                        <path d="M1.00000251,49.4589 L0.592717,49.1689 C0.475949,49.3328 0.468902,49.5508 0.574838,49.722 C0.680775,49.8932 0.879031,49.9841 1.0778775,49.9528 L1.00000251,49.4589 Z M35.5081,1.00000008 L35.9663,0.799827 C35.8942,0.634783 35.7389,0.521273 35.5597,0.502673 C35.3806,0.484074 35.2053,0.563258 35.1008,0.709968 L35.5081,1.00000008 Z M53.0908,41.2455 L53.1687,41.7394 C53.3217,41.7153 53.4549,41.6216 53.5293,41.4858 C53.6037,41.3499 53.611,41.1873 53.549,41.0453 L53.0908,41.2455 Z M1.407288,49.7489 L35.9154,1.290032 L35.1008,0.709968 L0.592717,49.1689 L1.407288,49.7489 Z M35.0499,1.200174 L52.6326,41.4457 L53.549,41.0453 L35.9663,0.799827 L35.0499,1.200174 Z M53.0129,40.7516 L0.9221276,48.965 L1.0778775,49.9528 L53.1687,41.7394 L53.0129,40.7516 Z" id="path0_stroke"></path>
                    </g>
                </g>
                <g id="Vector" transform="translate(11.000000, 0.000000)">
                    <g id="path1_stroke-link" transform="translate(0.750000, 0.700000)">
                        <path d="M37.8086,1.00000008 L38.1143,0.604327 C37.9909,0.508958 37.83,0.476667 37.6793,0.517015 L37.8086,1.00000008 Z M72.8919,28.1041 L73.1921,28.504 C73.3169,28.4102 73.3908,28.2636 73.3919,28.1076 C73.3929,27.9515 73.3211,27.8039 73.1976,27.7085 L72.8919,28.1041 Z M55.3914,41.2455 L55.0911,40.8457 C54.9866,40.9242 54.917,41.0404 54.8972,41.1696 L55.3914,41.2455 Z M51.8584,64.243 L51.7127,64.7213 C51.8515,64.7635 52.0018,64.7434 52.1246,64.6662 C52.2473,64.589 52.3305,64.4623 52.3526,64.3189 L51.8584,64.243 Z M3.30054,49.4589 L2.80143,49.4886 C2.81387,49.6974 2.95488,49.8763 3.15491,49.9372 L3.30054,49.4589 Z M1,10.85605 L0.870674,10.37306 C0.641298,10.43448 0.486759,10.64876 0.500886,10.88579 L1,10.85605 Z M37.503,1.395673 L72.5862,28.4998 L73.1976,27.7085 L38.1143,0.604327 L37.503,1.395673 Z M72.5917,27.7043 L55.0911,40.8457 L55.6916,41.6453 L73.1921,28.504 L72.5917,27.7043 Z M54.8972,41.1696 L51.3642,64.167 L52.3526,64.3189 L55.8856,41.3214 L54.8972,41.1696 Z M52.004,63.7646 L3.44617,48.9806 L3.15491,49.9372 L51.7127,64.7213 L52.004,63.7646 Z M3.79966,49.4291 L1.499114,10.8263 L0.500886,10.88579 L2.80143,49.4886 L3.79966,49.4291 Z M1.129326,11.339 L37.938,1.482985 L37.6793,0.517015 L0.870674,10.37306 L1.129326,11.339 Z" id="path1_stroke"></path>
                    </g>
                </g>
                <g id="Vector" transform="translate(62.000000, 27.000000)">
                    <g id="path2_stroke-link" transform="translate(0.610000, 0.800000)">
                        <path d="M22.476,0.7672 C22.3474,0.522816 22.0451,0.428932 21.8007,0.557504 C21.5563,0.686077 21.4624,0.9884183 21.591,1.232803 L22.476,0.7672 Z M33.7006,23.1761 L33.8969,23.6359 C34.0253,23.5811 34.1249,23.4751 34.1717,23.3435 C34.2184,23.212 34.2081,23.0669 34.143,22.9433 L33.7006,23.1761 Z M0.803651,36.679 C0.549691,36.7874 0.431721,37.0812 0.540159,37.3352 C0.648597,37.5891 0.9423789,37.7071 1.196339,37.5987 L0.803651,36.679 Z M21.591,1.232803 L33.2581,23.4089 L34.143,22.9433 L22.476,0.7672 L21.591,1.232803 Z M33.5042,22.7163 L0.803651,36.679 L1.196339,37.5987 L33.8969,23.6359 L33.5042,22.7163 Z" id="path2_stroke"></path>
                    </g>
                </g>
                <g id="Vector" transform="translate(66.000000, 40.000000)">
                    <g id="path3_stroke-link" transform="translate(0.140000, 0.900000)">
                        <path d="M1.147951,0.522389 C0.884173,0.440683 0.604104,0.588282 0.522398,0.85206 C0.440692,1.115838 0.588291,1.395908 0.852069,1.477613 L1.147951,0.522389 Z M30.0196,10.51232 C30.2834,10.59403 30.5635,10.44643 30.6452,10.18265 C30.7269,9.91887 30.5793,9.6388 30.3155,9.5571 L30.0196,10.51232 Z M0.852069,1.477613 L30.0196,10.51232 L30.3155,9.5571 L1.147951,0.522389 L0.852069,1.477613 Z" id="path3_stroke"></path>
                    </g>
                </g>
                <g id="Vector" transform="translate(0.000000, 10.000000)">
                    <g id="path4_stroke-link" transform="translate(0.000000, 0.500000)">
                        <path d="M13.191,1.234082 C13.3203,0.99007126 13.2273,0.687459 12.9833,0.558179 C12.7393,0.428899 12.4366,0.521907 12.3074,0.765917 L13.191,1.234082 Z M0.999997493,23.1761 L0.558177,22.942 C0.462077,23.1234 0.486601,23.3451 0.620023,23.5011 L0.999997493,23.1761 Z M14.6698,39.9278 C14.8492,40.1377 15.1649,40.1623 15.3747,39.9828 C15.5846,39.8033 15.6092,39.4877 15.4297,39.2779 L14.6698,39.9278 Z M12.3074,0.765917 L0.558177,22.942 L1.441818,23.4102 L13.191,1.234082 L12.3074,0.765917 Z M0.620023,23.5011 L14.6698,39.9278 L15.4297,39.2779 L1.379972,22.8511 L0.620023,23.5011 Z" id="path4_stroke"></path>
                    </g>
                </g>
            </g>
            <g id="Vector" transform="translate(36.000000, 17.000000)" fill="#FFFFFF">
                <g id="path5_stroke-link" transform="translate(0.890000, 0.300000)">
                    <path d="M1.00000501,7.50296 L0.493446,6.64075 L5e-06,6.93066 L5e-06,7.50296 L1.00000501,7.50296 Z M10.36649,2 L10.87534,1.139145 L10.36803,0.83928 L9.85993,1.137795 L10.36649,2 Z M19.8151,7.58509 L20.8151,7.58509 L20.8151,7.01456 L20.324,6.72424 L19.8151,7.58509 Z M2.00001,54.1549 L2.00001,7.50296 L5e-06,7.50296 L5e-06,54.1549 L2.00001,54.1549 Z M1.506564,8.36516 L10.87304,2.862205 L9.85993,1.137795 L0.493446,6.64075 L1.506564,8.36516 Z M9.85764,2.860855 L19.3063,8.44595 L20.324,6.72424 L10.87534,1.139145 L9.85764,2.860855 Z M18.8151,7.58509 L18.8151,54.3192 L20.8151,54.3192 L20.8151,7.58509 L18.8151,7.58509 Z" id="path5_stroke"></path>
                </g>
            </g>
            <g id="Vector" transform="translate(46.000000, 19.000000)" fill="#FFFFFF">
                <g id="path6_stroke-link" transform="translate(0.260000, 0.300000)">
                    <polygon id="path6_stroke" points="0 0 0 53.5512 2 53.5512 2 0"></polygon>
                </g>
            </g>
            <g id="Vector" transform="translate(10.000000, 0.000000)" fill="#FFFFFF">
                <g id="path7_stroke-link" transform="translate(0.270000, 0.000000)">
                    <path d="M71.974,36.9746 C71.974,56.2902 56.3102,71.9491 36.987,71.9491 L36.987,73.9491 C57.4141,73.9491 73.974,57.3954 73.974,36.9746 L71.974,36.9746 Z M36.987,71.9491 C17.6639,71.9491 1.999997,56.2902 1.999997,36.9746 L0,36.9746 C0,57.3954 16.56,73.9491 36.987,73.9491 L36.987,71.9491 Z M1.999997,36.9746 C1.999997,17.659 17.6639,2 36.987,2 L36.987,0 C16.56,0 0,16.5538 0,36.9746 L1.999997,36.9746 Z M36.987,2 C56.3102,2 71.974,17.659 71.974,36.9746 L73.974,36.9746 C73.974,16.5538 57.4141,0 36.987,0 L36.987,2 Z" id="path7_stroke"></path>
                </g>
            </g>
        </g>
    </g>
</svg>