<?xml version="1.0" encoding="utf-8"?>
<!-- Generator: Adobe Illustrator 19.2.1, SVG Export Plug-In . SVG Version: 6.00 Build 0)  -->
<svg width="100px" height="85" version="1.1" id="Слой_1" xmlns="http://www.w3.org/2000/svg" xmlns:xlink="http://www.w3.org/1999/xlink" x="0px" y="0px"
	 viewBox="0 0 100 85" style="enable-background:new 0 0 100 85;" xml:space="preserve">
<style type="text/css">
	.st0{fill:none;stroke:#0072FF;stroke-linecap:round;stroke-linejoin:round;}
	.st1{fill:none;stroke:#FFFFFF;stroke-width:2;}
	.st2{fill:#FFFFFF;}
</style>
<title>icObelisk (2)</title>
<desc>Created with Sketch.</desc>
<path id="Shape" class="st0" d="M50,23.3V1.1"/>
<path id="Shape_1_" class="st0" d="M60.1,45.9l18.4-34.2"/>
<path id="Shape_2_" class="st0" d="M22.2,12.3l17.7,34.3"/>
<path id="Shape_3_" class="st0" d="M61.3,58.4l30.1-16.3"/>
<path id="Shape_4_" class="st0" d="M9.1,42.1l30.1,16.5"/>
<path id="Shape_5_" class="st0" d="M62.3,68.3l15.7,5"/>
<path id="Shape_6_" class="st0" d="M22.5,73.3l15.7-5"/>
<circle id="Oval" class="st1" cx="50.2" cy="42.1" r="41.1"/>
<g>
	<path class="st2" d="M60.9,80.7l-2.4-47.9l-8.6-9.4l-8.7,9.4l-2.4,47.9L37,80.6l2.4-48.2c0-0.2,0.1-0.4,0.2-0.6l9.6-10.3
		c0.2-0.2,0.4-0.3,0.6-0.3c0.3,0,0.5,0.1,0.7,0.3L60,31.8c0.1,0.2,0.2,0.3,0.2,0.6l2.4,48.2L60.9,80.7z"/>
	<path class="st2" d="M49.9,38.9c-0.2,0-0.3,0-0.5-0.1l-9.6-5.7c-0.2-0.1-0.4-0.4-0.4-0.6c0-0.3,0-0.5,0.2-0.7l9.6-10.3
		c0.2-0.3,0.6-0.4,1-0.2c0.3,0.1,0.6,0.5,0.6,0.8v16c0,0.3-0.2,0.6-0.4,0.8C50.2,38.9,50,38.9,49.9,38.9z M41.7,32.2l7.3,4.3V24.4
		L41.7,32.2z"/>
	<path class="st2" d="M49.9,38.9c-0.2,0-0.3,0-0.4-0.1c-0.3-0.2-0.4-0.5-0.4-0.8v-16c0-0.4,0.2-0.7,0.6-0.8c0.3-0.1,0.7,0,1,0.2
		L60,31.8c0.2,0.2,0.3,0.5,0.2,0.7c0,0.3-0.2,0.5-0.4,0.6l-9.5,5.7C50.2,38.9,50,38.9,49.9,38.9z M50.8,24.4v12.1l7.2-4.3L50.8,24.4
		z"/>
	<rect x="49" y="38.1" class="st2" width="1.8" height="44.9"/>
</g>
</svg>
