<?xml version="1.0" encoding="UTF-8"?>
<svg width="100px" height="71px" viewBox="0 0 100 71" version="1.1" xmlns="http://www.w3.org/2000/svg" xmlns:xlink="http://www.w3.org/1999/xlink">
    <!-- Generator: Sketch 49.1 (51147) - http://www.bohemiancoding.com/sketch -->
    <title>icSkyladger</title>
    <desc>Created with Sketch.</desc>
    <defs></defs>
    <g id="icSkyladger" stroke="none" stroke-width="1" fill="none" fill-rule="evenodd">
        <g id="skyladger" transform="translate(15.000000, 0.000000)" fill-rule="nonzero">
            <g id="Vector" fill="#FFFFFF">
                <g id="path0_stroke-link">
                    <path d="M58.5135,69.9923 L58.5135,70.9923 L59.5135,70.9923 L59.5135,69.9923 L58.5135,69.9923 Z M1.00001003,69.9923 L1e-05,69.9923 L1e-05,70.9923 L1.00001003,70.9923 L1.00001003,69.9923 Z M1.00001003,1 L1.00001003,0 L1e-05,0 L1e-05,1 L1.00001003,1 Z M58.5135,1 L59.5135,1 L59.5135,0 L58.5135,0 L58.5135,1 Z M57.5135,50.2802 L57.5135,69.9923 L59.5135,69.9923 L59.5135,50.2802 L57.5135,50.2802 Z M58.5135,68.9923 L1.00001003,68.9923 L1.00001003,70.9923 L58.5135,70.9923 L58.5135,68.9923 Z M2.00001,69.9923 L2.00001,0.99999998 L1e-05,0.99999998 L1e-05,69.9923 L2.00001,69.9923 Z M1.00001003,2 L58.5135,2 L58.5135,0 L1.00001003,0 L1.00001003,2 Z M57.5135,0.99999998 L57.5135,39.685 L59.5135,39.685 L59.5135,0.99999998 L57.5135,0.99999998 Z" id="path0_stroke"></path>
                </g>
            </g>
            <g id="Vector" transform="translate(9.000000, 11.000000)" fill="#0072FF">
                <g id="path1_stroke-link" transform="translate(0.860000, 0.500000)">
                    <path d="M1.00001003,0.999999687 L1.00001003,0.5 C0.723868,0.5 0.50001,0.723857 0.50001,0.999999687 L1.00001003,0.999999687 Z M37.1514,0.999999687 L37.6514,0.999999687 C37.6514,0.723857 37.4275,0.5 37.1514,0.5 L37.1514,0.999999687 Z M37.1514,34.2642 L37.1514,34.7642 C37.4275,34.7642 37.6514,34.5403 37.6514,34.2642 L37.1514,34.2642 Z M1.00001003,34.2642 L0.50001,34.2642 C0.50001,34.5403 0.723868,34.7642 1.00001003,34.7642 L1.00001003,34.2642 Z M1.00001003,1.5 L37.1514,1.5 L37.1514,0.5 L1.00001003,0.5 L1.00001003,1.5 Z M36.6514,0.999999687 L36.6514,34.2642 L37.6514,34.2642 L37.6514,0.999999687 L36.6514,0.999999687 Z M37.1514,33.7642 L1.00001003,33.7642 L1.00001003,34.7642 L37.1514,34.7642 L37.1514,33.7642 Z M1.50001,34.2642 L1.50001,0.999999687 L0.50001,0.999999687 L0.50001,34.2642 L1.50001,34.2642 Z" id="path1_stroke"></path>
                </g>
            </g>
            <g id="Vector" transform="translate(9.000000, 21.000000)" fill="#0072FF">
                <g id="path2_stroke-link" transform="translate(0.860000, 0.400000)">
                    <path d="M1.00001003,0.5 C0.723868,0.5 0.50001,0.723857 0.50001,0.999999619 C0.50001,1.276142 0.723868,1.5 1.00001003,1.5 L1.00001003,0.5 Z M37.1514,1.5 C37.4275,1.5 37.6514,1.276142 37.6514,0.999999619 C37.6514,0.723857 37.4275,0.5 37.1514,0.5 L37.1514,1.5 Z M1.00001003,1.5 L37.1514,1.5 L37.1514,0.5 L1.00001003,0.5 L1.00001003,1.5 Z" id="path2_stroke"></path>
                </g>
            </g>
            <g id="Vector" transform="translate(9.000000, 33.000000)" fill="#0072FF">
                <g id="path3_stroke-link" transform="translate(0.860000, 0.000000)">
                    <path d="M1.00001003,0.499998 C0.723868,0.499998 0.50001,0.723856 0.50001,0.999998474 C0.50001,1.276141 0.723868,1.499998 1.00001003,1.499998 L1.00001003,0.499998 Z M37.1514,1.499998 C37.4275,1.499998 37.6514,1.276141 37.6514,0.999998474 C37.6514,0.723856 37.4275,0.499998 37.1514,0.499998 L37.1514,1.499998 Z M1.00001003,1.499998 L37.1514,1.499998 L37.1514,0.499998 L1.00001003,0.499998 L1.00001003,1.499998 Z" id="path3_stroke"></path>
                </g>
            </g>
            <g id="Vector" transform="translate(9.000000, 44.000000)" fill="#0072FF">
                <g id="path4_stroke-link" transform="translate(0.860000, 0.800000)">
                    <path d="M1.50001,1.00000125 C1.50001,0.723859 1.276152,0.500001 1.00001003,0.500001 C0.723868,0.500001 0.50001,0.723859 0.50001,1.00000125 L1.50001,1.00000125 Z M1.00001003,12.663 L0.50001,12.663 C0.50001,12.9391 0.723868,13.163 1.00001003,13.163 L1.00001003,12.663 Z M21.5405,12.663 L21.5405,13.163 C21.8167,13.163 22.0405,12.9391 22.0405,12.663 L21.5405,12.663 Z M22.0405,1.00000125 C22.0405,0.723859 21.8167,0.500001 21.5405,0.500001 C21.2644,0.500001 21.0405,0.723859 21.0405,1.00000125 L22.0405,1.00000125 Z M0.50001,1.00000125 L0.50001,12.663 L1.50001,12.663 L1.50001,1.00000125 L0.50001,1.00000125 Z M1.00001003,13.163 L21.5405,13.163 L21.5405,12.163 L1.00001003,12.163 L1.00001003,13.163 Z M22.0405,12.663 L22.0405,1.00000125 L21.0405,1.00000125 L21.0405,12.663 L22.0405,12.663 Z" id="path4_stroke"></path>
                </g>
            </g>
            <g id="Vector" transform="translate(40.000000, 33.000000)" fill="#FFFFFF">
                <g id="path5_stroke-link" transform="translate(0.440000, 0.700000)">
                    <path d="M5.6681,26.4204 L6.00241,27.3629 L6.01576,27.3581 L6.02898,27.353 L5.6681,26.4204 Z M3.12109,27.3239 L2.786781,26.3814 L2.7784,26.3844 L2.770073,26.3875 L3.12109,27.3239 Z M2.052992,26.2561 L2.989281,26.6073 L2.992408,26.599 L2.995385,26.5906 L2.052992,26.2561 Z M2.956756,23.71 L2.0204664,23.3587 L2.0173398,23.3671 L2.0143621,23.3755 L2.956756,23.71 Z M7.39353,16.7286 L8.10052,17.4358 L7.39353,16.7286 Z M22.0184,2.1088 L21.3114,1.401575 L22.0184,2.1088 Z M27.2768,7.36536 L27.9818,8.07457 L27.9838,8.07259 L27.2768,7.36536 Z M12.5697,21.9852 L11.86474,21.276 L11.86275,21.2779 L12.5697,21.9852 Z M5.33379,25.4779 L2.786781,26.3814 L3.4554,28.2663 L6.00241,27.3629 L5.33379,25.4779 Z M2.770073,26.3875 C2.80021,26.3762 2.842381,26.3727 2.882748,26.3827 C2.918081,26.3915 2.941008,26.4075 2.955112,26.4216 C2.969214,26.4357 2.985274,26.4587 2.994074,26.4941 C3.00413,26.5347 3.00065,26.5771 2.989281,26.6073 L1.116703,25.9049 C0.56835,27.3666 2.0117327,28.8077 3.47211,28.2602 L2.770073,26.3875 Z M2.995385,26.5906 L3.89915,24.0445 L2.0143621,23.3755 L1.110598,25.9216 L2.995385,26.5906 Z M3.89304,24.0612 C4.83312,21.5552 6.23787,19.2978 8.10052,17.4358 L6.68655,16.0214 C4.60541,18.1018 3.05228,20.6082 2.0204664,23.3587 L3.89304,24.0612 Z M8.10052,17.4358 L22.7254,2.81603 L21.3114,1.401576 L6.68655,16.0214 L8.10052,17.4358 Z M22.7254,2.81603 C23.8138,1.727988 25.4814,1.727988 26.5698,2.81603 L27.9838,1.401575 C26.1144,-0.46719 23.1808,-0.46719 21.3114,1.401575 L22.7254,2.81603 Z M26.5698,2.81603 C27.658,3.90389 27.658,5.57028 26.5698,6.65813 L27.9838,8.07259 C29.8534,6.20363 29.8534,3.27053 27.9838,1.401575 L26.5698,2.81603 Z M26.5718,6.65616 L11.86474,21.276 L13.2747,22.6944 L27.9818,8.07457 L26.5718,6.65616 Z M11.86275,21.2779 C9.99877,23.1413 7.73756,24.5473 5.30721,25.4878 L6.02898,27.353 C8.69269,26.3222 11.19692,24.7715 13.2767,22.6924 L11.86275,21.2779 Z" id="path5_stroke"></path>
                </g>
            </g>
        </g>
    </g>
</svg>