<?xml version="1.0" encoding="UTF-8"?>
<svg width="100px" height="76px" viewBox="0 0 100 76" version="1.1" xmlns="http://www.w3.org/2000/svg" xmlns:xlink="http://www.w3.org/1999/xlink">
    <!-- Generator: Sketch 49.1 (51147) - http://www.bohemiancoding.com/sketch -->
    <title>icSkyexplorer</title>
    <desc>Created with Sketch.</desc>
    <defs></defs>
    <g id="icSkyexplorer" stroke="none" stroke-width="1" fill="none" fill-rule="evenodd">
        <g id="skyexplorer" transform="translate(12.000000, 0.000000)" fill-rule="nonzero">
            <g id="Vector" fill="#0072FF">
                <g id="path0_stroke-link">
                    <path d="M54.8162,40.1634 C54.2639,40.1634 53.8162,40.6111 53.8162,41.1634 C53.8162,41.7157 54.2639,42.1634 54.8162,42.1634 L54.8162,40.1634 Z M61.9643,21.7798 L60.9643,21.7798 C60.9643,22.106 61.1234,22.4117 61.3906,22.5989 C61.6577,22.786 61.9994,22.8311 62.306,22.7197 L61.9643,21.7798 Z M23.1838,13.5665 L22.6842,14.4327 C22.934,14.5768 23.2337,14.606 23.5066,14.5129 C23.7795,14.4198 23.999,14.2135 24.1086,13.9468 L23.1838,13.5665 Z M15.7892,42.1634 C16.3415,42.1634 16.7892,41.7157 16.7892,41.1634 C16.7892,40.6111 16.3415,40.1634 15.7892,40.1634 L15.7892,42.1634 Z M54.8162,42.1634 L64.9222,42.1634 L64.9222,40.1634 L54.8162,40.1634 L54.8162,42.1634 Z M64.9222,42.1634 C70.979,42.1634 75.8638,37.2808 75.8638,31.2252 L73.8638,31.2252 C73.8638,36.1756 69.8751,40.1634 64.9222,40.1634 L64.9222,42.1634 Z M75.8638,31.2252 C75.8638,25.1696 70.979,20.287 64.9222,20.287 L64.9222,22.287 C69.8751,22.287 73.8638,26.2749 73.8638,31.2252 L75.8638,31.2252 Z M64.9222,20.287 C63.7504,20.287 62.6474,20.4675 61.6227,20.84 L62.306,22.7197 C63.0888,22.4351 63.9577,22.287 64.9222,22.287 L64.9222,20.287 Z M62.9643,21.7798 C62.9643,21.7793 62.9643,21.7789 62.9643,21.7784 C62.9643,21.7779 62.9643,21.7774 62.9643,21.7769 C62.9643,21.7765 62.9643,21.776 62.9643,21.7755 C62.9643,21.775 62.9643,21.7745 62.9643,21.7741 C62.9643,21.7736 62.9643,21.7731 62.9643,21.7726 C62.9643,21.7722 62.9643,21.7717 62.9643,21.7712 C62.9643,21.7707 62.9643,21.7702 62.9643,21.7698 C62.9643,21.7693 62.9643,21.7688 62.9643,21.7683 C62.9643,21.7679 62.9643,21.7674 62.9643,21.7669 C62.9643,21.7664 62.9643,21.766 62.9643,21.7655 C62.9643,21.765 62.9643,21.7645 62.9643,21.7641 C62.9643,21.7636 62.9643,21.7631 62.9643,21.7626 C62.9643,21.7622 62.9643,21.7617 62.9643,21.7612 C62.9643,21.7607 62.9643,21.7603 62.9643,21.7598 C62.9643,21.7593 62.9643,21.7589 62.9643,21.7584 C62.9643,21.7579 62.9643,21.7574 62.9643,21.757 C62.9643,21.7565 62.9643,21.756 62.9643,21.7556 C62.9643,21.7551 62.9643,21.7546 62.9643,21.7541 C62.9643,21.7537 62.9643,21.7532 62.9643,21.7527 C62.9643,21.7523 62.9643,21.7518 62.9643,21.7513 C62.9643,21.7509 62.9643,21.7504 62.9643,21.7499 C62.9643,21.7494 62.9643,21.749 62.9643,21.7485 C62.9643,21.748 62.9643,21.7476 62.9643,21.7471 C62.9643,21.7466 62.9643,21.7462 62.9643,21.7457 C62.9643,21.7452 62.9643,21.7448 62.9643,21.7443 C62.9643,21.7438 62.9643,21.7434 62.9643,21.7429 C62.9643,21.7424 62.9643,21.742 62.9643,21.7415 C62.9643,21.741 62.9643,21.7406 62.9643,21.7401 C62.9643,21.7397 62.9643,21.7392 62.9643,21.7387 C62.9643,21.7383 62.9643,21.7378 62.9643,21.7373 C62.9643,21.7369 62.9643,21.7364 62.9643,21.7359 C62.9643,21.7355 62.9643,21.735 62.9643,21.7346 C62.9643,21.7341 62.9643,21.7336 62.9643,21.7332 C62.9643,21.7327 62.9643,21.7322 62.9643,21.7318 C62.9643,21.7313 62.9643,21.7309 62.9643,21.7304 C62.9643,21.7299 62.9643,21.7295 62.9643,21.729 C62.9643,21.7286 62.9643,21.7281 62.9643,21.7276 C62.9643,21.7272 62.9643,21.7267 62.9643,21.7263 C62.9643,21.7258 62.9643,21.7253 62.9643,21.7249 C62.9643,21.7244 62.9643,21.724 62.9643,21.7235 C62.9643,21.723 62.9643,21.7226 62.9643,21.7221 C62.9643,21.7217 62.9643,21.7212 62.9643,21.7208 C62.9643,21.7203 62.9643,21.7198 62.9643,21.7194 C62.9643,21.7189 62.9643,21.7185 62.9643,21.718 C62.9643,21.7176 62.9643,21.7171 62.9643,21.7167 C62.9643,21.7162 62.9643,21.7157 62.9643,21.7153 C62.9643,21.7148 62.9643,21.7144 62.9643,21.7139 C62.9643,21.7135 62.9643,21.713 62.9643,21.7126 C62.9643,21.7121 62.9643,21.7117 62.9643,21.7112 C62.9643,21.7107 62.9643,21.7103 62.9643,21.7098 C62.9643,21.7094 62.9643,21.7089 62.9643,21.7085 C62.9643,21.708 62.9643,21.7076 62.9643,21.7071 C62.9643,21.7067 62.9643,21.7062 62.9643,21.7058 C62.9643,21.7053 62.9643,21.7049 62.9643,21.7044 C62.9643,21.704 62.9643,21.7035 62.9643,21.7031 C62.9643,21.7026 62.9643,21.7022 62.9643,21.7017 C62.9643,21.7013 62.9643,21.7008 62.9643,21.7004 C62.9643,21.6999 62.9643,21.6995 62.9643,21.699 C62.9643,21.6986 62.9643,21.6981 62.9643,21.6977 C62.9643,21.6972 62.9643,21.6968 62.9643,21.6963 C62.9643,21.6959 62.9643,21.6954 62.9643,21.695 C62.9643,21.6945 62.9643,21.6941 62.9643,21.6936 C62.9643,21.6932 62.9643,21.6927 62.9643,21.6923 C62.9643,21.6919 62.9643,21.6914 62.9643,21.691 C62.9643,21.6905 62.9643,21.6901 62.9643,21.6896 C62.9643,21.6892 62.9643,21.6887 62.9643,21.6883 C62.9643,21.6878 62.9643,21.6874 62.9643,21.6869 C62.9643,21.6865 62.9643,21.6861 62.9643,21.6856 C62.9643,21.6852 62.9643,21.6847 62.9643,21.6843 C62.9643,21.6838 62.9643,21.6834 62.9643,21.683 C62.9643,21.6825 62.9643,21.6821 62.9643,21.6816 C62.9643,21.6812 62.9643,21.6807 62.9643,21.6803 C62.9643,21.6799 62.9643,21.6794 62.9643,21.679 C62.9643,21.6785 62.9643,21.6781 62.9643,21.6776 C62.9643,21.6772 62.9643,21.6768 62.9643,21.6763 C62.9643,21.6759 62.9643,21.6754 62.9643,21.675 C62.9643,21.6746 62.9643,21.6741 62.9643,21.6737 C62.9643,21.6732 62.9643,21.6728 62.9643,21.6724 C62.9643,21.6719 62.9643,21.6715 62.9643,21.671 C62.9643,21.6706 62.9643,21.6702 62.9643,21.6697 C62.9643,21.6693 62.9643,21.6688 62.9643,21.6684 C62.9643,21.668 62.9643,21.6675 62.9643,21.6671 C62.9643,21.6666 62.9643,21.6662 62.9643,21.6658 C62.9643,21.6653 62.9643,21.6649 62.9643,21.6645 C62.9643,21.664 62.9643,21.6636 62.9643,21.6632 C62.9643,21.6627 62.9643,21.6623 62.9643,21.6618 C62.9643,21.6614 62.9643,21.661 62.9643,21.6605 C62.9643,21.6601 62.9643,21.6597 62.9643,21.6592 C62.9643,21.6588 62.9643,21.6584 62.9643,21.6579 C62.9643,21.6575 62.9643,21.657 62.9643,21.6566 C62.9643,21.6562 62.9643,21.6557 62.9643,21.6553 C62.9643,21.6549 62.9643,21.6544 62.9643,21.654 C62.9643,21.6536 62.9643,21.6531 62.9643,21.6527 C62.9643,21.6523 62.9643,21.6518 62.9643,21.6514 C62.9643,21.651 62.9643,21.6505 62.9643,21.6501 C62.9643,21.6497 62.9643,21.6492 62.9643,21.6488 C62.9643,21.6484 62.9643,21.6479 62.9643,21.6475 C62.9643,21.6471 62.9643,21.6466 62.9643,21.6462 C62.9643,21.6458 62.9643,21.6454 62.9643,21.6449 C62.9643,21.6445 62.9643,21.6441 62.9643,21.6436 C62.9643,21.6432 62.9643,21.6428 62.9643,21.6423 C62.9643,21.6419 62.9643,21.6415 62.9643,21.641 C62.9643,21.6406 62.9643,21.6402 62.9643,21.6398 C62.9643,21.6393 62.9643,21.6389 62.9643,21.6385 C62.9643,21.638 62.9643,21.6376 62.9643,21.6372 C62.9643,21.6368 62.9643,21.6363 62.9643,21.6359 C62.9643,21.6355 62.9643,21.635 62.9643,21.6346 C62.9643,21.6342 62.9643,21.6338 62.9643,21.6333 C62.9643,21.6329 62.9643,21.6325 62.9643,21.632 C62.9643,21.6316 62.9643,21.6312 62.9643,21.6308 C62.9643,21.6303 62.9643,21.6299 62.9643,21.6295 C62.9643,21.6291 62.9643,21.6286 62.9643,21.6282 C62.9643,21.6278 62.9643,21.6273 62.9643,21.6269 C62.9643,21.6265 62.9643,21.6261 62.9643,21.6256 C62.9643,21.6252 62.9643,21.6248 62.9643,21.6244 C62.9643,21.6239 62.9643,21.6235 62.9643,21.6231 C62.9643,21.6227 62.9643,21.6222 62.9643,21.6218 C62.9643,21.6214 62.9643,21.621 62.9643,21.6205 C62.9643,21.6201 62.9643,21.6197 62.9643,21.6193 C62.9643,21.6188 62.9643,21.6184 62.9643,21.618 C62.9643,21.6176 62.9643,21.6172 62.9643,21.6167 C62.9643,21.6163 62.9643,21.6159 62.9643,21.6155 C62.9643,21.615 62.9643,21.6146 62.9643,21.6142 C62.9643,21.6138 62.9643,21.6133 62.9643,21.6129 C62.9643,21.6125 62.9643,21.6121 62.9643,21.6117 C62.9643,21.6112 62.9643,21.6108 62.9643,21.6104 C62.9643,21.61 62.9643,21.6095 62.9643,21.6091 C62.9643,21.6087 62.9643,21.6083 62.9643,21.6079 C62.9643,21.6074 62.9643,21.607 62.9643,21.6066 C62.9643,21.6062 62.9643,21.6058 62.9643,21.6053 C62.9643,21.6049 62.9643,21.6045 62.9643,21.6041 C62.9643,21.6037 62.9643,21.6032 62.9643,21.6028 C62.9643,21.6024 62.9643,21.602 62.9643,21.6016 C62.9643,21.6011 62.9643,21.6007 62.9643,21.6003 C62.9643,21.5999 62.9643,21.5995 62.9643,21.599 C62.9643,21.5986 62.9643,21.5982 62.9643,21.5978 C62.9643,21.5974 62.9643,21.597 62.9643,21.5965 C62.9643,21.5961 62.9643,21.5957 62.9643,21.5953 C62.9643,21.5949 62.9643,21.5944 62.9643,21.594 C62.9643,21.5936 62.9643,21.5932 62.9643,21.5928 C62.9643,21.5924 62.9643,21.5919 62.9643,21.5915 C62.9643,21.5911 62.9643,21.5907 62.9643,21.5903 C62.9643,21.5898 62.9643,21.5894 62.9643,21.589 C62.9643,21.5886 62.9643,21.5882 62.9643,21.5878 C62.9643,21.5874 62.9643,21.5869 62.9643,21.5865 C62.9643,21.5861 62.9643,21.5857 62.9643,21.5853 C62.9643,21.5849 62.9643,21.5844 62.9643,21.584 C62.9643,21.5836 62.9643,21.5832 62.9643,21.5828 C62.9643,21.5824 62.9643,21.5819 62.9643,21.5815 C62.9643,21.5811 62.9643,21.5807 62.9643,21.5803 C62.9643,21.5799 62.9643,21.5795 62.9643,21.579 C62.9643,21.5786 62.9643,21.5782 62.9643,21.5778 C62.9643,21.5774 62.9643,21.577 62.9643,21.5766 C62.9643,21.5761 62.9643,21.5757 62.9643,21.5753 C62.9643,21.5749 62.9643,21.5745 62.9643,21.5741 C62.9643,21.5737 62.9643,21.5732 62.9643,21.5728 C62.9643,21.5724 62.9643,21.572 62.9643,21.5716 C62.9643,21.5712 62.9643,21.5708 62.9643,21.5704 C62.9643,21.5699 62.9643,21.5695 62.9643,21.5691 C62.9643,21.5687 62.9643,21.5683 62.9643,21.5679 C62.9643,21.5675 62.9643,21.5671 62.9643,21.5666 C62.9643,21.5662 62.9643,21.5658 62.9643,21.5654 C62.9643,21.565 62.9643,21.5646 62.9643,21.5642 C62.9643,21.5638 62.9643,21.5633 62.9643,21.5629 C62.9643,21.5625 62.9643,21.5621 62.9643,21.5617 C62.9643,21.5613 62.9643,21.5609 62.9643,21.5605 C62.9643,21.5601 62.9643,21.5596 62.9643,21.5592 C62.9643,21.5588 62.9643,21.5584 62.9643,21.558 C62.9643,21.5576 62.9643,21.5572 62.9643,21.5568 C62.9643,21.5564 62.9643,21.556 62.9643,21.5555 C62.9643,21.5551 62.9643,21.5547 62.9643,21.5543 C62.9643,21.5539 62.9643,21.5535 62.9643,21.5531 C62.9643,21.5527 62.9643,21.5523 62.9643,21.5519 C62.9643,21.5514 62.9643,21.551 62.9643,21.5506 C62.9643,21.5502 62.9643,21.5498 62.9643,21.5494 C62.9643,21.549 62.9643,21.5486 62.9643,21.5482 C62.9643,21.5478 62.9643,21.5474 62.9643,21.5469 C62.9643,21.5465 62.9643,21.5461 62.9643,21.5457 C62.9643,21.5453 62.9643,21.5449 62.9643,21.5445 C62.9643,21.5441 62.9643,21.5437 62.9643,21.5433 C62.9643,21.5429 62.9643,21.5425 62.9643,21.542 C62.9643,21.5416 62.9643,21.5412 62.9643,21.5408 C62.9643,21.5404 62.9643,21.54 62.9643,21.5396 C62.9643,21.5392 62.9643,21.5388 62.9643,21.5384 C62.9643,21.538 62.9643,21.5376 62.9643,21.5372 C62.9643,21.5368 62.9643,21.5363 62.9643,21.5359 C62.9643,21.5355 62.9643,21.5351 62.9643,21.5347 C62.9643,21.5343 62.9643,21.5339 62.9643,21.5335 C62.9643,21.5331 62.9643,21.5327 62.9643,21.5323 C62.9643,21.5319 62.9643,21.5315 62.9643,21.5311 C62.9643,21.5306 62.9643,21.5302 62.9643,21.5298 C62.9643,21.5294 62.9643,21.529 62.9643,21.5286 C62.9643,21.5282 62.9643,21.5278 62.9643,21.5274 C62.9643,21.527 62.9643,21.5266 62.9643,21.5262 C62.9643,21.5258 62.9643,21.5254 62.9643,21.525 C62.9643,21.5246 62.9643,21.5242 62.9643,21.5238 C62.9643,21.5233 62.9643,21.5229 62.9643,21.5225 C62.9643,21.5221 62.9643,21.5217 62.9643,21.5213 C62.9643,21.5209 62.9643,21.5205 62.9643,21.5201 C62.9643,21.5197 62.9643,21.5193 62.9643,21.5189 C62.9643,21.5185 62.9643,21.5181 62.9643,21.5177 C62.9643,21.5173 62.9643,21.5169 62.9643,21.5165 C62.9643,21.5161 62.9643,21.5157 62.9643,21.5152 C62.9643,21.5148 62.9643,21.5144 62.9643,21.514 C62.9643,21.5136 62.9643,21.5132 62.9643,21.5128 C62.9643,21.5124 62.9643,21.512 62.9643,21.5116 C62.9643,21.5112 62.9643,21.5108 62.9643,21.5104 C62.9643,21.51 62.9643,21.5096 62.9643,21.5092 C62.9643,21.5088 62.9643,21.5084 62.9643,21.508 C62.9643,21.5076 62.9643,21.5072 62.9643,21.5068 C62.9643,21.5064 62.9643,21.506 62.9643,21.5056 C62.9643,21.5051 62.9643,21.5047 62.9643,21.5043 C62.9643,21.5039 62.9643,21.5035 62.9643,21.5031 C62.9643,21.5027 62.9643,21.5023 62.9643,21.5019 C62.9643,21.5015 62.9643,21.5011 62.9643,21.5007 C62.9643,21.5003 62.9643,21.4999 62.9643,21.4995 C62.9643,21.4991 62.9643,21.4987 62.9643,21.4983 C62.9643,21.4979 62.9643,21.4975 62.9643,21.4971 C62.9643,21.4967 62.9643,21.4963 62.9643,21.4959 C62.9643,21.4955 62.9643,21.4951 62.9643,21.4947 C62.9643,21.4943 62.9643,21.4939 62.9643,21.4935 C62.9643,21.4931 62.9643,21.4927 62.9643,21.4923 C62.9643,21.4919 62.9643,21.4914 62.9643,21.491 C62.9643,21.4906 62.9643,21.4902 62.9643,21.4898 C62.9643,21.4894 62.9643,21.489 62.9643,21.4886 C62.9643,21.4882 62.9643,21.4878 62.9643,21.4874 C62.9643,21.487 62.9643,21.4866 62.9643,21.4862 C62.9643,21.4858 62.9643,21.4854 62.9643,21.485 C62.9643,21.4846 62.9643,21.4842 62.9643,21.4838 C62.9643,21.4834 62.9643,21.483 62.9643,21.4826 C62.9643,21.4822 62.9643,21.4818 62.9643,21.4814 C62.9643,21.481 62.9643,21.4806 62.9643,21.4802 C62.9643,21.4798 62.9643,21.4794 62.9643,21.479 C62.9643,21.4786 62.9643,21.4782 62.9643,21.4778 C62.9643,21.4774 62.9643,21.477 62.9643,21.4766 C62.9643,21.4762 62.9643,21.4758 62.9643,21.4754 C62.9643,21.475 62.9643,21.4746 62.9643,21.4742 C62.9643,21.4738 62.9643,21.4734 62.9643,21.473 C62.9643,21.4726 62.9643,21.4722 62.9643,21.4718 C62.9643,21.4714 62.9643,21.471 62.9643,21.4706 C62.9643,21.4702 62.9643,21.4698 62.9643,21.4694 C62.9643,21.4689 62.9643,21.4685 62.9643,21.4681 C62.9643,21.4677 62.9643,21.4673 62.9643,21.4669 C62.9643,21.4665 62.9643,21.4661 62.9643,21.4657 C62.9643,21.4653 62.9643,21.4649 62.9643,21.4645 C62.9643,21.4641 62.9643,21.4637 62.9643,21.4633 C62.9643,21.4629 62.9643,21.4625 62.9643,21.4621 C62.9643,21.4617 62.9643,21.4613 62.9643,21.4609 C62.9643,21.4605 62.9643,21.4601 62.9643,21.4597 C62.9643,21.4593 62.9643,21.4589 62.9643,21.4585 C62.9643,21.4581 62.9643,21.4577 62.9643,21.4573 C62.9643,21.4569 62.9643,21.4565 62.9643,21.4561 C62.9643,21.4557 62.9643,21.4553 62.9643,21.4549 C62.9643,21.4545 62.9643,21.4541 62.9643,21.4537 C62.9643,21.4533 62.9643,21.4529 62.9643,21.4525 C62.9643,21.4521 62.9643,21.4517 62.9643,21.4513 C62.9643,21.4509 62.9643,21.4505 62.9643,21.4501 C62.9643,21.4497 62.9643,21.4493 62.9643,21.4489 C62.9643,21.4485 62.9643,21.4481 62.9643,21.4477 C62.9643,21.4473 62.9643,21.4469 62.9643,21.4465 C62.9643,21.4461 62.9643,21.4457 62.9643,21.4453 C62.9643,21.4449 62.9643,21.4445 62.9643,21.4441 C62.9643,21.4437 62.9643,21.4433 62.9643,21.4429 C62.9643,21.4425 62.9643,21.4421 62.9643,21.4417 C62.9643,21.4413 62.9643,21.4409 62.9643,21.4405 C62.9643,21.4401 62.9643,21.4397 62.9643,21.4393 C62.9643,21.4389 62.9643,21.4385 62.9643,21.4381 C62.9643,21.4377 62.9643,21.4373 62.9643,21.4369 C62.9643,21.4365 62.9643,21.4361 62.9643,21.4357 C62.9643,21.4353 62.9643,21.4349 62.9643,21.4345 C62.9643,21.4341 62.9643,21.4337 62.9643,21.4332 C62.9643,21.4328 62.9643,21.4324 62.9643,21.432 C62.9643,21.4316 62.9643,21.4312 62.9643,21.4308 C62.9643,21.4304 62.9643,21.43 62.9643,21.4296 C62.9643,21.4292 62.9643,21.4288 62.9643,21.4284 C62.9643,21.428 62.9643,21.4276 62.9643,21.4272 C62.9643,21.4268 62.9643,21.4264 62.9643,21.426 C62.9643,21.4256 62.9643,21.4252 62.9643,21.4248 C62.9643,21.4244 62.9643,21.424 62.9643,21.4236 C62.9643,21.4232 62.9643,21.4228 62.9643,21.4224 C62.9643,21.422 62.9643,21.4216 62.9643,21.4212 C62.9643,21.4208 62.9643,21.4204 62.9643,21.42 C62.9643,21.4196 62.9643,21.4192 62.9643,21.4188 C62.9643,21.4184 62.9643,21.418 62.9643,21.4176 C62.9643,21.4172 62.9643,21.4168 62.9643,21.4164 C62.9643,21.416 62.9643,21.4156 62.9643,21.4152 C62.9643,21.4148 62.9643,21.4144 62.9643,21.414 C62.9643,21.4136 62.9643,21.4132 62.9643,21.4128 C62.9643,21.4124 62.9643,21.412 62.9643,21.4116 C62.9643,21.4112 62.9643,21.4107 62.9643,21.4103 C62.9643,21.4099 62.9643,21.4095 62.9643,21.4091 C62.9643,21.4087 62.9643,21.4083 62.9643,21.4079 C62.9643,21.4075 62.9643,21.4071 62.9643,21.4067 C62.9643,21.4063 62.9643,21.4059 62.9643,21.4055 C62.9643,21.4051 62.9643,21.4047 62.9643,21.4043 C62.9643,21.4039 62.9643,21.4035 62.9643,21.4031 C62.9643,21.4027 62.9643,21.4023 62.9643,21.4019 C62.9643,21.4015 62.9643,21.4011 62.9643,21.4007 C62.9643,21.4003 62.9643,21.3999 62.9643,21.3995 C62.9643,21.3991 62.9643,21.3987 62.9643,21.3983 C62.9643,21.3979 62.9643,21.3975 62.9643,21.397 C62.9643,21.3966 62.9643,21.3962 62.9643,21.3958 C62.9643,21.3954 62.9643,21.395 62.9643,21.3946 C62.9643,21.3942 62.9643,21.3938 62.9643,21.3934 C62.9643,21.393 62.9643,21.3926 62.9643,21.3922 C62.9643,21.3918 62.9643,21.3914 62.9643,21.391 C62.9643,21.3906 62.9643,21.3902 62.9643,21.3898 C62.9643,21.3894 62.9643,21.389 62.9643,21.3886 C62.9643,21.3882 62.9643,21.3878 62.9643,21.3874 C62.9643,21.3869 62.9643,21.3865 62.9643,21.3861 C62.9643,21.3857 62.9643,21.3853 62.9643,21.3849 C62.9643,21.3845 62.9643,21.3841 62.9643,21.3837 C62.9643,21.3833 62.9643,21.3829 62.9643,21.3825 C62.9643,21.3821 62.9643,21.3817 62.9643,21.3813 C62.9643,21.3809 62.9643,21.3805 62.9643,21.3801 C62.9643,21.3797 62.9643,21.3793 62.9643,21.3788 C62.9643,21.3784 62.9643,21.378 62.9643,21.3776 C62.9643,21.3772 62.9643,21.3768 62.9643,21.3764 C62.9643,21.376 62.9643,21.3756 62.9643,21.3752 C62.9643,21.3748 62.9643,21.3744 62.9643,21.374 C62.9643,21.3736 62.9643,21.3732 62.9643,21.3728 C62.9643,21.3724 62.9643,21.372 62.9643,21.3715 C62.9643,21.3711 62.9643,21.3707 62.9643,21.3703 C62.9643,21.3699 62.9643,21.3695 62.9643,21.3691 C62.9643,21.3687 62.9643,21.3683 62.9643,21.3679 C62.9643,21.3675 62.9643,21.3671 62.9643,21.3667 C62.9643,21.3663 62.9643,21.3658 62.9643,21.3654 C62.9643,21.365 62.9643,21.3646 62.9643,21.3642 C62.9643,21.3638 62.9643,21.3634 62.9643,21.363 C62.9643,21.3626 62.9643,21.3622 62.9643,21.3618 C62.9643,21.3614 62.9643,21.361 62.9643,21.3605 C62.9643,21.3601 62.9643,21.3597 62.9643,21.3593 C62.9643,21.3589 62.9643,21.3585 62.9643,21.3581 C62.9643,21.3577 62.9643,21.3573 62.9643,21.3569 C62.9643,21.3565 62.9643,21.3561 62.9643,21.3557 C62.9643,21.3552 62.9643,21.3548 62.9643,21.3544 C62.9643,21.354 62.9643,21.3536 62.9643,21.3532 C62.9643,21.3528 62.9643,21.3524 62.9643,21.352 C62.9643,21.3516 62.9643,21.3512 62.9643,21.3507 C62.9643,21.3503 62.9643,21.3499 62.9643,21.3495 C62.9643,21.3491 62.9643,21.3487 62.9643,21.3483 C62.9643,21.3479 62.9643,21.3475 62.9643,21.3471 C62.9643,21.3466 62.9643,21.3462 62.9643,21.3458 C62.9643,21.3454 62.9643,21.345 62.9643,21.3446 C62.9643,21.3442 62.9643,21.3438 62.9643,21.3434 C62.9643,21.343 62.9643,21.3425 62.9643,21.3421 C62.9643,21.3417 62.9643,21.3413 62.9643,21.3409 C62.9643,21.3405 62.9643,21.3401 62.9643,21.3397 C62.9643,21.3393 62.9643,21.3388 62.9643,21.3384 C62.9643,21.338 62.9643,21.3376 62.9643,21.3372 C62.9643,21.3368 62.9643,21.3364 62.9643,21.336 C62.9643,21.3355 62.9643,21.3351 62.9643,21.3347 C62.9643,21.3343 62.9643,21.3339 62.9643,21.3335 C62.9643,21.3331 62.9643,21.3327 62.9643,21.3322 C62.9643,21.3318 62.9643,21.3314 62.9643,21.331 C62.9643,21.3306 62.9643,21.3302 62.9643,21.3298 C62.9643,21.3294 62.9643,21.3289 62.9643,21.3285 C62.9643,21.3281 62.9643,21.3277 62.9643,21.3273 C62.9643,21.3269 62.9643,21.3265 62.9643,21.326 C62.9643,21.3256 62.9643,21.3252 62.9643,21.3248 C62.9643,21.3244 62.9643,21.324 62.9643,21.3236 C62.9643,21.3231 62.9643,21.3227 62.9643,21.3223 C62.9643,21.3219 62.9643,21.3215 62.9643,21.3211 C62.9643,21.3207 62.9643,21.3202 62.9643,21.3198 C62.9643,21.3194 62.9643,21.319 62.9643,21.3186 C62.9643,21.3182 62.9643,21.3177 62.9643,21.3173 C62.9643,21.3169 62.9643,21.3165 62.9643,21.3161 C62.9643,21.3157 62.9643,21.3152 62.9643,21.3148 C62.9643,21.3144 62.9643,21.314 62.9643,21.3136 C62.9643,21.3132 62.9643,21.3127 62.9643,21.3123 C62.9643,21.3119 62.9643,21.3115 62.9643,21.3111 C62.9643,21.3107 62.9643,21.3102 62.9643,21.3098 C62.9643,21.3094 62.9643,21.309 62.9643,21.3086 C62.9643,21.3082 62.9643,21.3077 62.9643,21.3073 C62.9643,21.3069 62.9643,21.3065 62.9643,21.3061 C62.9643,21.3056 62.9643,21.3052 62.9643,21.3048 C62.9643,21.3044 62.9643,21.304 62.9643,21.3036 C62.9643,21.3031 62.9643,21.3027 62.9643,21.3023 C62.9643,21.3019 62.9643,21.3015 62.9643,21.301 C62.9643,21.3006 62.9643,21.3002 62.9643,21.2998 C62.9643,21.2994 62.9643,21.2989 62.9643,21.2985 C62.9643,21.2981 62.9643,21.2977 62.9643,21.2973 C62.9643,21.2968 62.9643,21.2964 62.9643,21.296 C62.9643,21.2956 62.9643,21.2952 62.9643,21.2947 C62.9643,21.2943 62.9643,21.2939 62.9643,21.2935 C62.9643,21.2931 62.9643,21.2926 62.9643,21.2922 C62.9643,21.2918 62.9643,21.2914 62.9643,21.2909 C62.9643,21.2905 62.9643,21.2901 62.9643,21.2897 C62.9643,21.2893 62.9643,21.2888 62.9643,21.2884 C62.9643,21.288 62.9643,21.2876 62.9643,21.2871 C62.9643,21.2867 62.9643,21.2863 62.9643,21.2859 C62.9643,21.2854 62.9643,21.285 62.9643,21.2846 C62.9643,21.2842 62.9643,21.2838 62.9643,21.2833 C62.9643,21.2829 62.9643,21.2825 62.9643,21.2821 C62.9643,21.2816 62.9643,21.2812 62.9643,21.2808 C62.9643,21.2804 62.9643,21.2799 62.9643,21.2795 C62.9643,21.2791 62.9643,21.2787 62.9643,21.2782 C62.9643,21.2778 62.9643,21.2774 62.9643,21.277 C62.9643,21.2765 62.9643,21.2761 62.9643,21.2757 C62.9643,21.2753 62.9643,21.2748 62.9643,21.2744 C62.9643,21.274 62.9643,21.2735 62.9643,21.2731 C62.9643,21.2727 62.9643,21.2723 62.9643,21.2718 C62.9643,21.2714 62.9643,21.271 62.9643,21.2706 C62.9643,21.2701 62.9643,21.2697 62.9643,21.2693 C62.9643,21.2688 62.9643,21.2684 62.9643,21.268 C62.9643,21.2676 62.9643,21.2671 62.9643,21.2667 C62.9643,21.2663 62.9643,21.2658 62.9643,21.2654 C62.9643,21.265 62.9643,21.2646 62.9643,21.2641 C62.9643,21.2637 62.9643,21.2633 62.9643,21.2628 C62.9643,21.2624 62.9643,21.262 62.9643,21.2616 C62.9643,21.2611 62.9643,21.2607 62.9643,21.2603 C62.9643,21.2598 62.9643,21.2594 62.9643,21.259 C62.9643,21.2585 62.9643,21.2581 62.9643,21.2577 C62.9643,21.2572 62.9643,21.2568 62.9643,21.2564 C62.9643,21.256 62.9643,21.2555 62.9643,21.2551 C62.9643,21.2547 62.9643,21.2542 62.9643,21.2538 C62.9643,21.2534 62.9643,21.2529 62.9643,21.2525 C62.9643,21.2521 62.9643,21.2516 62.9643,21.2512 C62.9643,21.2508 62.9643,21.2503 62.9643,21.2499 C62.9643,21.2495 62.9643,21.249 62.9643,21.2486 C62.9643,21.2482 62.9643,21.2477 62.9643,21.2473 C62.9643,21.2469 62.9643,21.2464 62.9643,21.246 C62.9643,21.2456 62.9643,21.2451 62.9643,21.2447 C62.9643,21.2442 62.9643,21.2438 62.9643,21.2434 C62.9643,21.2429 62.9643,21.2425 62.9643,21.2421 C62.9643,21.2416 62.9643,21.2412 62.9643,21.2408 C62.9643,21.2403 62.9643,21.2399 62.9643,21.2394 C62.9643,21.239 62.9643,21.2386 62.9643,21.2381 C62.9643,21.2377 62.9643,21.2373 62.9643,21.2368 C62.9643,21.2364 62.9643,21.236 62.9643,21.2355 C62.9643,21.2351 62.9643,21.2346 62.9643,21.2342 C62.9643,21.2338 62.9643,21.2333 62.9643,21.2329 C62.9643,21.2324 62.9643,21.232 62.9643,21.2316 C62.9643,21.2311 62.9643,21.2307 62.9643,21.2302 C62.9643,21.2298 62.9643,21.2294 62.9643,21.2289 C62.9643,21.2285 62.9643,21.228 62.9643,21.2276 C62.9643,21.2272 62.9643,21.2267 62.9643,21.2263 C62.9643,21.2258 62.9643,21.2254 62.9643,21.225 C62.9643,21.2245 62.9643,21.2241 62.9643,21.2236 C62.9643,21.2232 62.9643,21.2227 62.9643,21.2223 C62.9643,21.2219 62.9643,21.2214 62.9643,21.221 C62.9643,21.2205 62.9643,21.2201 62.9643,21.2196 C62.9643,21.2192 62.9643,21.2188 62.9643,21.2183 C62.9643,21.2179 62.9643,21.2174 62.9643,21.217 C62.9643,21.2165 62.9643,21.2161 62.9643,21.2157 C62.9643,21.2152 62.9643,21.2148 62.9643,21.2143 C62.9643,21.2139 62.9643,21.2134 62.9643,21.213 C62.9643,21.2125 62.9643,21.2121 62.9643,21.2116 C62.9643,21.2112 62.9643,21.2107 62.9643,21.2103 C62.9643,21.2099 62.9643,21.2094 62.9643,21.209 C62.9643,21.2085 62.9643,21.2081 62.9643,21.2076 C62.9643,21.2072 62.9643,21.2067 62.9643,21.2063 C62.9643,21.2058 62.9643,21.2054 62.9643,21.2049 C62.9643,21.2045 62.9643,21.204 62.9643,21.2036 C62.9643,21.2031 62.9643,21.2027 62.9643,21.2022 C62.9643,21.2018 62.9643,21.2013 62.9643,21.2009 C62.9643,21.2004 62.9643,21.2 62.9643,21.1995 C62.9643,21.1991 62.9643,21.1986 62.9643,21.1982 C62.9643,21.1977 62.9643,21.1973 62.9643,21.1968 C62.9643,21.1964 62.9643,21.1959 62.9643,21.1955 C62.9643,21.195 62.9643,21.1946 62.9643,21.1941 C62.9643,21.1937 62.9643,21.1932 62.9643,21.1928 C62.9643,21.1923 62.9643,21.1919 62.9643,21.1914 C62.9643,21.1909 62.9643,21.1905 62.9643,21.19 C62.9643,21.1896 62.9643,21.1891 62.9643,21.1887 C62.9643,21.1882 62.9643,21.1878 62.9643,21.1873 C62.9643,21.1869 62.9643,21.1864 62.9643,21.1859 C62.9643,21.1855 62.9643,21.185 62.9643,21.1846 C62.9643,21.1841 62.9643,21.1837 62.9643,21.1832 C62.9643,21.1828 62.9643,21.1823 62.9643,21.1818 C62.9643,21.1814 62.9643,21.1809 62.9643,21.1805 C62.9643,21.18 62.9643,21.1796 62.9643,21.1791 C62.9643,21.1786 62.9643,21.1782 62.9643,21.1777 C62.9643,21.1773 62.9643,21.1768 62.9643,21.1763 C62.9643,21.1759 62.9643,21.1754 62.9643,21.175 C62.9643,21.1745 62.9643,21.174 62.9643,21.1736 C62.9643,21.1731 62.9643,21.1727 62.9643,21.1722 C62.9643,21.1717 62.9643,21.1713 62.9643,21.1708 C62.9643,21.1704 62.9643,21.1699 62.9643,21.1694 C62.9643,21.169 62.9643,21.1685 62.9643,21.168 C62.9643,21.1676 62.9643,21.1671 62.9643,21.1667 C62.9643,21.1662 62.9643,21.1657 62.9643,21.1653 C62.9643,21.1648 62.9643,21.1643 62.9643,21.1639 C62.9643,21.1634 62.9643,21.163 62.9643,21.1625 C62.9643,21.162 62.9643,21.1616 62.9643,21.1611 C62.9643,21.1606 62.9643,21.1602 62.9643,21.1597 C62.9643,21.1592 62.9643,21.1588 62.9643,21.1583 C62.9643,21.1578 62.9643,21.1574 62.9643,21.1569 C62.9643,21.1564 62.9643,21.156 62.9643,21.1555 C62.9643,21.155 62.9643,21.1546 62.9643,21.1541 C62.9643,21.1536 62.9643,21.1532 62.9643,21.1527 C62.9643,21.1522 62.9643,21.1517 62.9643,21.1513 C62.9643,21.1508 62.9643,21.1503 62.9643,21.1499 C62.9643,21.1494 62.9643,21.1489 62.9643,21.1485 C62.9643,21.148 62.9643,21.1475 62.9643,21.147 C62.9643,21.1466 62.9643,21.1461 62.9643,21.1456 C62.9643,21.1452 62.9643,21.1447 62.9643,21.1442 C62.9643,21.1437 62.9643,21.1433 62.9643,21.1428 C62.9643,21.1423 62.9643,21.1419 62.9643,21.1414 C62.9643,21.1409 62.9643,21.1404 62.9643,21.14 C62.9643,21.1395 62.9643,21.139 62.9643,21.1385 C62.9643,21.1381 62.9643,21.1376 62.9643,21.1371 C62.9643,21.1366 62.9643,21.1362 62.9643,21.1357 C62.9643,21.1352 62.9643,21.1347 62.9643,21.1343 C62.9643,21.1338 62.9643,21.1333 62.9643,21.1328 C62.9643,21.1324 62.9643,21.1319 62.9643,21.1314 C62.9643,21.1309 62.9643,21.1304 62.9643,21.13 C62.9643,21.1295 62.9643,21.129 62.9643,21.1285 C62.9643,21.1281 62.9643,21.1276 62.9643,21.1271 C62.9643,21.1266 62.9643,21.1261 62.9643,21.1257 C62.9643,21.1252 62.9643,21.1247 62.9643,21.1242 C62.9643,21.1237 62.9643,21.1233 62.9643,21.1228 L60.9643,21.1228 C60.9643,21.1233 60.9643,21.1237 60.9643,21.1242 C60.9643,21.1247 60.9643,21.1252 60.9643,21.1257 C60.9643,21.1261 60.9643,21.1266 60.9643,21.1271 C60.9643,21.1276 60.9643,21.1281 60.9643,21.1285 C60.9643,21.129 60.9643,21.1295 60.9643,21.13 C60.9643,21.1304 60.9643,21.1309 60.9643,21.1314 C60.9643,21.1319 60.9643,21.1324 60.9643,21.1328 C60.9643,21.1333 60.9643,21.1338 60.9643,21.1343 C60.9643,21.1347 60.9643,21.1352 60.9643,21.1357 C60.9643,21.1362 60.9643,21.1366 60.9643,21.1371 C60.9643,21.1376 60.9643,21.1381 60.9643,21.1385 C60.9643,21.139 60.9643,21.1395 60.9643,21.14 C60.9643,21.1404 60.9643,21.1409 60.9643,21.1414 C60.9643,21.1419 60.9643,21.1423 60.9643,21.1428 C60.9643,21.1433 60.9643,21.1437 60.9643,21.1442 C60.9643,21.1447 60.9643,21.1452 60.9643,21.1456 C60.9643,21.1461 60.9643,21.1466 60.9643,21.147 C60.9643,21.1475 60.9643,21.148 60.9643,21.1485 C60.9643,21.1489 60.9643,21.1494 60.9643,21.1499 C60.9643,21.1503 60.9643,21.1508 60.9643,21.1513 C60.9643,21.1517 60.9643,21.1522 60.9643,21.1527 C60.9643,21.1532 60.9643,21.1536 60.9643,21.1541 C60.9643,21.1546 60.9643,21.155 60.9643,21.1555 C60.9643,21.156 60.9643,21.1564 60.9643,21.1569 C60.9643,21.1574 60.9643,21.1578 60.9643,21.1583 C60.9643,21.1588 60.9643,21.1592 60.9643,21.1597 C60.9643,21.1602 60.9643,21.1606 60.9643,21.1611 C60.9643,21.1616 60.9643,21.162 60.9643,21.1625 C60.9643,21.163 60.9643,21.1634 60.9643,21.1639 C60.9643,21.1643 60.9643,21.1648 60.9643,21.1653 C60.9643,21.1657 60.9643,21.1662 60.9643,21.1667 C60.9643,21.1671 60.9643,21.1676 60.9643,21.168 C60.9643,21.1685 60.9643,21.169 60.9643,21.1694 C60.9643,21.1699 60.9643,21.1704 60.9643,21.1708 C60.9643,21.1713 60.9643,21.1717 60.9643,21.1722 C60.9643,21.1727 60.9643,21.1731 60.9643,21.1736 C60.9643,21.174 60.9643,21.1745 60.9643,21.175 C60.9643,21.1754 60.9643,21.1759 60.9643,21.1763 C60.9643,21.1768 60.9643,21.1773 60.9643,21.1777 C60.9643,21.1782 60.9643,21.1786 60.9643,21.1791 C60.9643,21.1796 60.9643,21.18 60.9643,21.1805 C60.9643,21.1809 60.9643,21.1814 60.9643,21.1818 C60.9643,21.1823 60.9643,21.1828 60.9643,21.1832 C60.9643,21.1837 60.9643,21.1841 60.9643,21.1846 C60.9643,21.185 60.9643,21.1855 60.9643,21.1859 C60.9643,21.1864 60.9643,21.1869 60.9643,21.1873 C60.9643,21.1878 60.9643,21.1882 60.9643,21.1887 C60.9643,21.1891 60.9643,21.1896 60.9643,21.19 C60.9643,21.1905 60.9643,21.1909 60.9643,21.1914 C60.9643,21.1919 60.9643,21.1923 60.9643,21.1928 C60.9643,21.1932 60.9643,21.1937 60.9643,21.1941 C60.9643,21.1946 60.9643,21.195 60.9643,21.1955 C60.9643,21.1959 60.9643,21.1964 60.9643,21.1968 C60.9643,21.1973 60.9643,21.1977 60.9643,21.1982 C60.9643,21.1986 60.9643,21.1991 60.9643,21.1995 C60.9643,21.2 60.9643,21.2004 60.9643,21.2009 C60.9643,21.2013 60.9643,21.2018 60.9643,21.2022 C60.9643,21.2027 60.9643,21.2031 60.9643,21.2036 C60.9643,21.204 60.9643,21.2045 60.9643,21.2049 C60.9643,21.2054 60.9643,21.2058 60.9643,21.2063 C60.9643,21.2067 60.9643,21.2072 60.9643,21.2076 C60.9643,21.2081 60.9643,21.2085 60.9643,21.209 C60.9643,21.2094 60.9643,21.2099 60.9643,21.2103 C60.9643,21.2107 60.9643,21.2112 60.9643,21.2116 C60.9643,21.2121 60.9643,21.2125 60.9643,21.213 C60.9643,21.2134 60.9643,21.2139 60.9643,21.2143 C60.9643,21.2148 60.9643,21.2152 60.9643,21.2157 C60.9643,21.2161 60.9643,21.2165 60.9643,21.217 C60.9643,21.2174 60.9643,21.2179 60.9643,21.2183 C60.9643,21.2188 60.9643,21.2192 60.9643,21.2196 C60.9643,21.2201 60.9643,21.2205 60.9643,21.221 C60.9643,21.2214 60.9643,21.2219 60.9643,21.2223 C60.9643,21.2227 60.9643,21.2232 60.9643,21.2236 C60.9643,21.2241 60.9643,21.2245 60.9643,21.225 C60.9643,21.2254 60.9643,21.2258 60.9643,21.2263 C60.9643,21.2267 60.9643,21.2272 60.9643,21.2276 C60.9643,21.228 60.9643,21.2285 60.9643,21.2289 C60.9643,21.2294 60.9643,21.2298 60.9643,21.2302 C60.9643,21.2307 60.9643,21.2311 60.9643,21.2316 C60.9643,21.232 60.9643,21.2324 60.9643,21.2329 C60.9643,21.2333 60.9643,21.2338 60.9643,21.2342 C60.9643,21.2346 60.9643,21.2351 60.9643,21.2355 C60.9643,21.236 60.9643,21.2364 60.9643,21.2368 C60.9643,21.2373 60.9643,21.2377 60.9643,21.2381 C60.9643,21.2386 60.9643,21.239 60.9643,21.2394 C60.9643,21.2399 60.9643,21.2403 60.9643,21.2408 C60.9643,21.2412 60.9643,21.2416 60.9643,21.2421 C60.9643,21.2425 60.9643,21.2429 60.9643,21.2434 C60.9643,21.2438 60.9643,21.2442 60.9643,21.2447 C60.9643,21.2451 60.9643,21.2456 60.9643,21.246 C60.9643,21.2464 60.9643,21.2469 60.9643,21.2473 C60.9643,21.2477 60.9643,21.2482 60.9643,21.2486 C60.9643,21.249 60.9643,21.2495 60.9643,21.2499 C60.9643,21.2503 60.9643,21.2508 60.9643,21.2512 C60.9643,21.2516 60.9643,21.2521 60.9643,21.2525 C60.9643,21.2529 60.9643,21.2534 60.9643,21.2538 C60.9643,21.2542 60.9643,21.2547 60.9643,21.2551 C60.9643,21.2555 60.9643,21.256 60.9643,21.2564 C60.9643,21.2568 60.9643,21.2572 60.9643,21.2577 C60.9643,21.2581 60.9643,21.2585 60.9643,21.259 C60.9643,21.2594 60.9643,21.2598 60.9643,21.2603 C60.9643,21.2607 60.9643,21.2611 60.9643,21.2616 C60.9643,21.262 60.9643,21.2624 60.9643,21.2628 C60.9643,21.2633 60.9643,21.2637 60.9643,21.2641 C60.9643,21.2646 60.9643,21.265 60.9643,21.2654 C60.9643,21.2658 60.9643,21.2663 60.9643,21.2667 C60.9643,21.2671 60.9643,21.2676 60.9643,21.268 C60.9643,21.2684 60.9643,21.2688 60.9643,21.2693 C60.9643,21.2697 60.9643,21.2701 60.9643,21.2706 C60.9643,21.271 60.9643,21.2714 60.9643,21.2718 C60.9643,21.2723 60.9643,21.2727 60.9643,21.2731 C60.9643,21.2735 60.9643,21.274 60.9643,21.2744 C60.9643,21.2748 60.9643,21.2753 60.9643,21.2757 C60.9643,21.2761 60.9643,21.2765 60.9643,21.277 C60.9643,21.2774 60.9643,21.2778 60.9643,21.2782 C60.9643,21.2787 60.9643,21.2791 60.9643,21.2795 C60.9643,21.2799 60.9643,21.2804 60.9643,21.2808 C60.9643,21.2812 60.9643,21.2816 60.9643,21.2821 C60.9643,21.2825 60.9643,21.2829 60.9643,21.2833 C60.9643,21.2838 60.9643,21.2842 60.9643,21.2846 C60.9643,21.285 60.9643,21.2854 60.9643,21.2859 C60.9643,21.2863 60.9643,21.2867 60.9643,21.2871 C60.9643,21.2876 60.9643,21.288 60.9643,21.2884 C60.9643,21.2888 60.9643,21.2893 60.9643,21.2897 C60.9643,21.2901 60.9643,21.2905 60.9643,21.2909 C60.9643,21.2914 60.9643,21.2918 60.9643,21.2922 C60.9643,21.2926 60.9643,21.2931 60.9643,21.2935 C60.9643,21.2939 60.9643,21.2943 60.9643,21.2947 C60.9643,21.2952 60.9643,21.2956 60.9643,21.296 C60.9643,21.2964 60.9643,21.2968 60.9643,21.2973 C60.9643,21.2977 60.9643,21.2981 60.9643,21.2985 C60.9643,21.2989 60.9643,21.2994 60.9643,21.2998 C60.9643,21.3002 60.9643,21.3006 60.9643,21.301 C60.9643,21.3015 60.9643,21.3019 60.9643,21.3023 C60.9643,21.3027 60.9643,21.3031 60.9643,21.3036 C60.9643,21.304 60.9643,21.3044 60.9643,21.3048 C60.9643,21.3052 60.9643,21.3056 60.9643,21.3061 C60.9643,21.3065 60.9643,21.3069 60.9643,21.3073 C60.9643,21.3077 60.9643,21.3082 60.9643,21.3086 C60.9643,21.309 60.9643,21.3094 60.9643,21.3098 C60.9643,21.3102 60.9643,21.3107 60.9643,21.3111 C60.9643,21.3115 60.9643,21.3119 60.9643,21.3123 C60.9643,21.3127 60.9643,21.3132 60.9643,21.3136 C60.9643,21.314 60.9643,21.3144 60.9643,21.3148 C60.9643,21.3152 60.9643,21.3157 60.9643,21.3161 C60.9643,21.3165 60.9643,21.3169 60.9643,21.3173 C60.9643,21.3177 60.9643,21.3182 60.9643,21.3186 C60.9643,21.319 60.9643,21.3194 60.9643,21.3198 C60.9643,21.3202 60.9643,21.3207 60.9643,21.3211 C60.9643,21.3215 60.9643,21.3219 60.9643,21.3223 C60.9643,21.3227 60.9643,21.3231 60.9643,21.3236 C60.9643,21.324 60.9643,21.3244 60.9643,21.3248 C60.9643,21.3252 60.9643,21.3256 60.9643,21.326 C60.9643,21.3265 60.9643,21.3269 60.9643,21.3273 C60.9643,21.3277 60.9643,21.3281 60.9643,21.3285 C60.9643,21.3289 60.9643,21.3294 60.9643,21.3298 C60.9643,21.3302 60.9643,21.3306 60.9643,21.331 C60.9643,21.3314 60.9643,21.3318 60.9643,21.3322 C60.9643,21.3327 60.9643,21.3331 60.9643,21.3335 C60.9643,21.3339 60.9643,21.3343 60.9643,21.3347 C60.9643,21.3351 60.9643,21.3355 60.9643,21.336 C60.9643,21.3364 60.9643,21.3368 60.9643,21.3372 C60.9643,21.3376 60.9643,21.338 60.9643,21.3384 C60.9643,21.3388 60.9643,21.3393 60.9643,21.3397 C60.9643,21.3401 60.9643,21.3405 60.9643,21.3409 C60.9643,21.3413 60.9643,21.3417 60.9643,21.3421 C60.9643,21.3425 60.9643,21.343 60.9643,21.3434 C60.9643,21.3438 60.9643,21.3442 60.9643,21.3446 C60.9643,21.345 60.9643,21.3454 60.9643,21.3458 C60.9643,21.3462 60.9643,21.3466 60.9643,21.3471 C60.9643,21.3475 60.9643,21.3479 60.9643,21.3483 C60.9643,21.3487 60.9643,21.3491 60.9643,21.3495 C60.9643,21.3499 60.9643,21.3503 60.9643,21.3507 C60.9643,21.3512 60.9643,21.3516 60.9643,21.352 C60.9643,21.3524 60.9643,21.3528 60.9643,21.3532 C60.9643,21.3536 60.9643,21.354 60.9643,21.3544 C60.9643,21.3548 60.9643,21.3552 60.9643,21.3557 C60.9643,21.3561 60.9643,21.3565 60.9643,21.3569 C60.9643,21.3573 60.9643,21.3577 60.9643,21.3581 C60.9643,21.3585 60.9643,21.3589 60.9643,21.3593 C60.9643,21.3597 60.9643,21.3601 60.9643,21.3605 C60.9643,21.361 60.9643,21.3614 60.9643,21.3618 C60.9643,21.3622 60.9643,21.3626 60.9643,21.363 C60.9643,21.3634 60.9643,21.3638 60.9643,21.3642 C60.9643,21.3646 60.9643,21.365 60.9643,21.3654 C60.9643,21.3658 60.9643,21.3663 60.9643,21.3667 C60.9643,21.3671 60.9643,21.3675 60.9643,21.3679 C60.9643,21.3683 60.9643,21.3687 60.9643,21.3691 C60.9643,21.3695 60.9643,21.3699 60.9643,21.3703 C60.9643,21.3707 60.9643,21.3711 60.9643,21.3715 C60.9643,21.372 60.9643,21.3724 60.9643,21.3728 C60.9643,21.3732 60.9643,21.3736 60.9643,21.374 C60.9643,21.3744 60.9643,21.3748 60.9643,21.3752 C60.9643,21.3756 60.9643,21.376 60.9643,21.3764 C60.9643,21.3768 60.9643,21.3772 60.9643,21.3776 C60.9643,21.378 60.9643,21.3784 60.9643,21.3788 C60.9643,21.3793 60.9643,21.3797 60.9643,21.3801 C60.9643,21.3805 60.9643,21.3809 60.9643,21.3813 C60.9643,21.3817 60.9643,21.3821 60.9643,21.3825 C60.9643,21.3829 60.9643,21.3833 60.9643,21.3837 C60.9643,21.3841 60.9643,21.3845 60.9643,21.3849 C60.9643,21.3853 60.9643,21.3857 60.9643,21.3861 C60.9643,21.3865 60.9643,21.3869 60.9643,21.3874 C60.9643,21.3878 60.9643,21.3882 60.9643,21.3886 C60.9643,21.389 60.9643,21.3894 60.9643,21.3898 C60.9643,21.3902 60.9643,21.3906 60.9643,21.391 C60.9643,21.3914 60.9643,21.3918 60.9643,21.3922 C60.9643,21.3926 60.9643,21.393 60.9643,21.3934 C60.9643,21.3938 60.9643,21.3942 60.9643,21.3946 C60.9643,21.395 60.9643,21.3954 60.9643,21.3958 C60.9643,21.3962 60.9643,21.3966 60.9643,21.397 C60.9643,21.3975 60.9643,21.3979 60.9643,21.3983 C60.9643,21.3987 60.9643,21.3991 60.9643,21.3995 C60.9643,21.3999 60.9643,21.4003 60.9643,21.4007 C60.9643,21.4011 60.9643,21.4015 60.9643,21.4019 C60.9643,21.4023 60.9643,21.4027 60.9643,21.4031 C60.9643,21.4035 60.9643,21.4039 60.9643,21.4043 C60.9643,21.4047 60.9643,21.4051 60.9643,21.4055 C60.9643,21.4059 60.9643,21.4063 60.9643,21.4067 C60.9643,21.4071 60.9643,21.4075 60.9643,21.4079 C60.9643,21.4083 60.9643,21.4087 60.9643,21.4091 C60.9643,21.4095 60.9643,21.4099 60.9643,21.4103 C60.9643,21.4107 60.9643,21.4112 60.9643,21.4116 C60.9643,21.412 60.9643,21.4124 60.9643,21.4128 C60.9643,21.4132 60.9643,21.4136 60.9643,21.414 C60.9643,21.4144 60.9643,21.4148 60.9643,21.4152 C60.9643,21.4156 60.9643,21.416 60.9643,21.4164 C60.9643,21.4168 60.9643,21.4172 60.9643,21.4176 C60.9643,21.418 60.9643,21.4184 60.9643,21.4188 C60.9643,21.4192 60.9643,21.4196 60.9643,21.42 C60.9643,21.4204 60.9643,21.4208 60.9643,21.4212 C60.9643,21.4216 60.9643,21.422 60.9643,21.4224 C60.9643,21.4228 60.9643,21.4232 60.9643,21.4236 C60.9643,21.424 60.9643,21.4244 60.9643,21.4248 C60.9643,21.4252 60.9643,21.4256 60.9643,21.426 C60.9643,21.4264 60.9643,21.4268 60.9643,21.4272 C60.9643,21.4276 60.9643,21.428 60.9643,21.4284 C60.9643,21.4288 60.9643,21.4292 60.9643,21.4296 C60.9643,21.43 60.9643,21.4304 60.9643,21.4308 C60.9643,21.4312 60.9643,21.4316 60.9643,21.432 C60.9643,21.4324 60.9643,21.4328 60.9643,21.4332 C60.9643,21.4337 60.9643,21.4341 60.9643,21.4345 C60.9643,21.4349 60.9643,21.4353 60.9643,21.4357 C60.9643,21.4361 60.9643,21.4365 60.9643,21.4369 C60.9643,21.4373 60.9643,21.4377 60.9643,21.4381 C60.9643,21.4385 60.9643,21.4389 60.9643,21.4393 C60.9643,21.4397 60.9643,21.4401 60.9643,21.4405 C60.9643,21.4409 60.9643,21.4413 60.9643,21.4417 C60.9643,21.4421 60.9643,21.4425 60.9643,21.4429 C60.9643,21.4433 60.9643,21.4437 60.9643,21.4441 C60.9643,21.4445 60.9643,21.4449 60.9643,21.4453 C60.9643,21.4457 60.9643,21.4461 60.9643,21.4465 C60.9643,21.4469 60.9643,21.4473 60.9643,21.4477 C60.9643,21.4481 60.9643,21.4485 60.9643,21.4489 C60.9643,21.4493 60.9643,21.4497 60.9643,21.4501 C60.9643,21.4505 60.9643,21.4509 60.9643,21.4513 C60.9643,21.4517 60.9643,21.4521 60.9643,21.4525 C60.9643,21.4529 60.9643,21.4533 60.9643,21.4537 C60.9643,21.4541 60.9643,21.4545 60.9643,21.4549 C60.9643,21.4553 60.9643,21.4557 60.9643,21.4561 C60.9643,21.4565 60.9643,21.4569 60.9643,21.4573 C60.9643,21.4577 60.9643,21.4581 60.9643,21.4585 C60.9643,21.4589 60.9643,21.4593 60.9643,21.4597 C60.9643,21.4601 60.9643,21.4605 60.9643,21.4609 C60.9643,21.4613 60.9643,21.4617 60.9643,21.4621 C60.9643,21.4625 60.9643,21.4629 60.9643,21.4633 C60.9643,21.4637 60.9643,21.4641 60.9643,21.4645 C60.9643,21.4649 60.9643,21.4653 60.9643,21.4657 C60.9643,21.4661 60.9643,21.4665 60.9643,21.4669 C60.9643,21.4673 60.9643,21.4677 60.9643,21.4681 C60.9643,21.4685 60.9643,21.4689 60.9643,21.4694 C60.9643,21.4698 60.9643,21.4702 60.9643,21.4706 C60.9643,21.471 60.9643,21.4714 60.9643,21.4718 C60.9643,21.4722 60.9643,21.4726 60.9643,21.473 C60.9643,21.4734 60.9643,21.4738 60.9643,21.4742 C60.9643,21.4746 60.9643,21.475 60.9643,21.4754 C60.9643,21.4758 60.9643,21.4762 60.9643,21.4766 C60.9643,21.477 60.9643,21.4774 60.9643,21.4778 C60.9643,21.4782 60.9643,21.4786 60.9643,21.479 C60.9643,21.4794 60.9643,21.4798 60.9643,21.4802 C60.9643,21.4806 60.9643,21.481 60.9643,21.4814 C60.9643,21.4818 60.9643,21.4822 60.9643,21.4826 C60.9643,21.483 60.9643,21.4834 60.9643,21.4838 C60.9643,21.4842 60.9643,21.4846 60.9643,21.485 C60.9643,21.4854 60.9643,21.4858 60.9643,21.4862 C60.9643,21.4866 60.9643,21.487 60.9643,21.4874 C60.9643,21.4878 60.9643,21.4882 60.9643,21.4886 C60.9643,21.489 60.9643,21.4894 60.9643,21.4898 C60.9643,21.4902 60.9643,21.4906 60.9643,21.491 C60.9643,21.4914 60.9643,21.4919 60.9643,21.4923 C60.9643,21.4927 60.9643,21.4931 60.9643,21.4935 C60.9643,21.4939 60.9643,21.4943 60.9643,21.4947 C60.9643,21.4951 60.9643,21.4955 60.9643,21.4959 C60.9643,21.4963 60.9643,21.4967 60.9643,21.4971 C60.9643,21.4975 60.9643,21.4979 60.9643,21.4983 C60.9643,21.4987 60.9643,21.4991 60.9643,21.4995 C60.9643,21.4999 60.9643,21.5003 60.9643,21.5007 C60.9643,21.5011 60.9643,21.5015 60.9643,21.5019 C60.9643,21.5023 60.9643,21.5027 60.9643,21.5031 C60.9643,21.5035 60.9643,21.5039 60.9643,21.5043 C60.9643,21.5047 60.9643,21.5051 60.9643,21.5056 C60.9643,21.506 60.9643,21.5064 60.9643,21.5068 C60.9643,21.5072 60.9643,21.5076 60.9643,21.508 C60.9643,21.5084 60.9643,21.5088 60.9643,21.5092 C60.9643,21.5096 60.9643,21.51 60.9643,21.5104 C60.9643,21.5108 60.9643,21.5112 60.9643,21.5116 C60.9643,21.512 60.9643,21.5124 60.9643,21.5128 C60.9643,21.5132 60.9643,21.5136 60.9643,21.514 C60.9643,21.5144 60.9643,21.5148 60.9643,21.5152 C60.9643,21.5157 60.9643,21.5161 60.9643,21.5165 C60.9643,21.5169 60.9643,21.5173 60.9643,21.5177 C60.9643,21.5181 60.9643,21.5185 60.9643,21.5189 C60.9643,21.5193 60.9643,21.5197 60.9643,21.5201 C60.9643,21.5205 60.9643,21.5209 60.9643,21.5213 C60.9643,21.5217 60.9643,21.5221 60.9643,21.5225 C60.9643,21.5229 60.9643,21.5233 60.9643,21.5238 C60.9643,21.5242 60.9643,21.5246 60.9643,21.525 C60.9643,21.5254 60.9643,21.5258 60.9643,21.5262 C60.9643,21.5266 60.9643,21.527 60.9643,21.5274 C60.9643,21.5278 60.9643,21.5282 60.9643,21.5286 C60.9643,21.529 60.9643,21.5294 60.9643,21.5298 C60.9643,21.5302 60.9643,21.5306 60.9643,21.5311 C60.9643,21.5315 60.9643,21.5319 60.9643,21.5323 C60.9643,21.5327 60.9643,21.5331 60.9643,21.5335 C60.9643,21.5339 60.9643,21.5343 60.9643,21.5347 C60.9643,21.5351 60.9643,21.5355 60.9643,21.5359 C60.9643,21.5363 60.9643,21.5368 60.9643,21.5372 C60.9643,21.5376 60.9643,21.538 60.9643,21.5384 C60.9643,21.5388 60.9643,21.5392 60.9643,21.5396 C60.9643,21.54 60.9643,21.5404 60.9643,21.5408 C60.9643,21.5412 60.9643,21.5416 60.9643,21.542 C60.9643,21.5425 60.9643,21.5429 60.9643,21.5433 C60.9643,21.5437 60.9643,21.5441 60.9643,21.5445 C60.9643,21.5449 60.9643,21.5453 60.9643,21.5457 C60.9643,21.5461 60.9643,21.5465 60.9643,21.5469 C60.9643,21.5474 60.9643,21.5478 60.9643,21.5482 C60.9643,21.5486 60.9643,21.549 60.9643,21.5494 C60.9643,21.5498 60.9643,21.5502 60.9643,21.5506 C60.9643,21.551 60.9643,21.5514 60.9643,21.5519 C60.9643,21.5523 60.9643,21.5527 60.9643,21.5531 C60.9643,21.5535 60.9643,21.5539 60.9643,21.5543 C60.9643,21.5547 60.9643,21.5551 60.9643,21.5555 C60.9643,21.556 60.9643,21.5564 60.9643,21.5568 C60.9643,21.5572 60.9643,21.5576 60.9643,21.558 C60.9643,21.5584 60.9643,21.5588 60.9643,21.5592 C60.9643,21.5596 60.9643,21.5601 60.9643,21.5605 C60.9643,21.5609 60.9643,21.5613 60.9643,21.5617 C60.9643,21.5621 60.9643,21.5625 60.9643,21.5629 C60.9643,21.5633 60.9643,21.5638 60.9643,21.5642 C60.9643,21.5646 60.9643,21.565 60.9643,21.5654 C60.9643,21.5658 60.9643,21.5662 60.9643,21.5666 C60.9643,21.5671 60.9643,21.5675 60.9643,21.5679 C60.9643,21.5683 60.9643,21.5687 60.9643,21.5691 C60.9643,21.5695 60.9643,21.5699 60.9643,21.5704 C60.9643,21.5708 60.9643,21.5712 60.9643,21.5716 C60.9643,21.572 60.9643,21.5724 60.9643,21.5728 C60.9643,21.5732 60.9643,21.5737 60.9643,21.5741 C60.9643,21.5745 60.9643,21.5749 60.9643,21.5753 C60.9643,21.5757 60.9643,21.5761 60.9643,21.5766 C60.9643,21.577 60.9643,21.5774 60.9643,21.5778 C60.9643,21.5782 60.9643,21.5786 60.9643,21.579 C60.9643,21.5795 60.9643,21.5799 60.9643,21.5803 C60.9643,21.5807 60.9643,21.5811 60.9643,21.5815 C60.9643,21.5819 60.9643,21.5824 60.9643,21.5828 C60.9643,21.5832 60.9643,21.5836 60.9643,21.584 C60.9643,21.5844 60.9643,21.5849 60.9643,21.5853 C60.9643,21.5857 60.9643,21.5861 60.9643,21.5865 C60.9643,21.5869 60.9643,21.5874 60.9643,21.5878 C60.9643,21.5882 60.9643,21.5886 60.9643,21.589 C60.9643,21.5894 60.9643,21.5898 60.9643,21.5903 C60.9643,21.5907 60.9643,21.5911 60.9643,21.5915 C60.9643,21.5919 60.9643,21.5924 60.9643,21.5928 C60.9643,21.5932 60.9643,21.5936 60.9643,21.594 C60.9643,21.5944 60.9643,21.5949 60.9643,21.5953 C60.9643,21.5957 60.9643,21.5961 60.9643,21.5965 C60.9643,21.597 60.9643,21.5974 60.9643,21.5978 C60.9643,21.5982 60.9643,21.5986 60.9643,21.599 C60.9643,21.5995 60.9643,21.5999 60.9643,21.6003 C60.9643,21.6007 60.9643,21.6011 60.9643,21.6016 C60.9643,21.602 60.9643,21.6024 60.9643,21.6028 C60.9643,21.6032 60.9643,21.6037 60.9643,21.6041 C60.9643,21.6045 60.9643,21.6049 60.9643,21.6053 C60.9643,21.6058 60.9643,21.6062 60.9643,21.6066 C60.9643,21.607 60.9643,21.6074 60.9643,21.6079 C60.9643,21.6083 60.9643,21.6087 60.9643,21.6091 C60.9643,21.6095 60.9643,21.61 60.9643,21.6104 C60.9643,21.6108 60.9643,21.6112 60.9643,21.6117 C60.9643,21.6121 60.9643,21.6125 60.9643,21.6129 C60.9643,21.6133 60.9643,21.6138 60.9643,21.6142 C60.9643,21.6146 60.9643,21.615 60.9643,21.6155 C60.9643,21.6159 60.9643,21.6163 60.9643,21.6167 C60.9643,21.6172 60.9643,21.6176 60.9643,21.618 C60.9643,21.6184 60.9643,21.6188 60.9643,21.6193 C60.9643,21.6197 60.9643,21.6201 60.9643,21.6205 C60.9643,21.621 60.9643,21.6214 60.9643,21.6218 C60.9643,21.6222 60.9643,21.6227 60.9643,21.6231 C60.9643,21.6235 60.9643,21.6239 60.9643,21.6244 C60.9643,21.6248 60.9643,21.6252 60.9643,21.6256 C60.9643,21.6261 60.9643,21.6265 60.9643,21.6269 C60.9643,21.6273 60.9643,21.6278 60.9643,21.6282 C60.9643,21.6286 60.9643,21.6291 60.9643,21.6295 C60.9643,21.6299 60.9643,21.6303 60.9643,21.6308 C60.9643,21.6312 60.9643,21.6316 60.9643,21.632 C60.9643,21.6325 60.9643,21.6329 60.9643,21.6333 C60.9643,21.6338 60.9643,21.6342 60.9643,21.6346 C60.9643,21.635 60.9643,21.6355 60.9643,21.6359 C60.9643,21.6363 60.9643,21.6368 60.9643,21.6372 C60.9643,21.6376 60.9643,21.638 60.9643,21.6385 C60.9643,21.6389 60.9643,21.6393 60.9643,21.6398 C60.9643,21.6402 60.9643,21.6406 60.9643,21.641 C60.9643,21.6415 60.9643,21.6419 60.9643,21.6423 C60.9643,21.6428 60.9643,21.6432 60.9643,21.6436 C60.9643,21.6441 60.9643,21.6445 60.9643,21.6449 C60.9643,21.6454 60.9643,21.6458 60.9643,21.6462 C60.9643,21.6466 60.9643,21.6471 60.9643,21.6475 C60.9643,21.6479 60.9643,21.6484 60.9643,21.6488 C60.9643,21.6492 60.9643,21.6497 60.9643,21.6501 C60.9643,21.6505 60.9643,21.651 60.9643,21.6514 C60.9643,21.6518 60.9643,21.6523 60.9643,21.6527 C60.9643,21.6531 60.9643,21.6536 60.9643,21.654 C60.9643,21.6544 60.9643,21.6549 60.9643,21.6553 C60.9643,21.6557 60.9643,21.6562 60.9643,21.6566 C60.9643,21.657 60.9643,21.6575 60.9643,21.6579 C60.9643,21.6584 60.9643,21.6588 60.9643,21.6592 C60.9643,21.6597 60.9643,21.6601 60.9643,21.6605 C60.9643,21.661 60.9643,21.6614 60.9643,21.6618 C60.9643,21.6623 60.9643,21.6627 60.9643,21.6632 C60.9643,21.6636 60.9643,21.664 60.9643,21.6645 C60.9643,21.6649 60.9643,21.6653 60.9643,21.6658 C60.9643,21.6662 60.9643,21.6666 60.9643,21.6671 C60.9643,21.6675 60.9643,21.668 60.9643,21.6684 C60.9643,21.6688 60.9643,21.6693 60.9643,21.6697 C60.9643,21.6702 60.9643,21.6706 60.9643,21.671 C60.9643,21.6715 60.9643,21.6719 60.9643,21.6724 C60.9643,21.6728 60.9643,21.6732 60.9643,21.6737 C60.9643,21.6741 60.9643,21.6746 60.9643,21.675 C60.9643,21.6754 60.9643,21.6759 60.9643,21.6763 C60.9643,21.6768 60.9643,21.6772 60.9643,21.6776 C60.9643,21.6781 60.9643,21.6785 60.9643,21.679 C60.9643,21.6794 60.9643,21.6799 60.9643,21.6803 C60.9643,21.6807 60.9643,21.6812 60.9643,21.6816 C60.9643,21.6821 60.9643,21.6825 60.9643,21.683 C60.9643,21.6834 60.9643,21.6838 60.9643,21.6843 C60.9643,21.6847 60.9643,21.6852 60.9643,21.6856 C60.9643,21.6861 60.9643,21.6865 60.9643,21.6869 C60.9643,21.6874 60.9643,21.6878 60.9643,21.6883 C60.9643,21.6887 60.9643,21.6892 60.9643,21.6896 C60.9643,21.6901 60.9643,21.6905 60.9643,21.691 C60.9643,21.6914 60.9643,21.6919 60.9643,21.6923 C60.9643,21.6927 60.9643,21.6932 60.9643,21.6936 C60.9643,21.6941 60.9643,21.6945 60.9643,21.695 C60.9643,21.6954 60.9643,21.6959 60.9643,21.6963 C60.9643,21.6968 60.9643,21.6972 60.9643,21.6977 C60.9643,21.6981 60.9643,21.6986 60.9643,21.699 C60.9643,21.6995 60.9643,21.6999 60.9643,21.7004 C60.9643,21.7008 60.9643,21.7013 60.9643,21.7017 C60.9643,21.7022 60.9643,21.7026 60.9643,21.7031 C60.9643,21.7035 60.9643,21.704 60.9643,21.7044 C60.9643,21.7049 60.9643,21.7053 60.9643,21.7058 C60.9643,21.7062 60.9643,21.7067 60.9643,21.7071 C60.9643,21.7076 60.9643,21.708 60.9643,21.7085 C60.9643,21.7089 60.9643,21.7094 60.9643,21.7098 C60.9643,21.7103 60.9643,21.7107 60.9643,21.7112 C60.9643,21.7117 60.9643,21.7121 60.9643,21.7126 C60.9643,21.713 60.9643,21.7135 60.9643,21.7139 C60.9643,21.7144 60.9643,21.7148 60.9643,21.7153 C60.9643,21.7157 60.9643,21.7162 60.9643,21.7167 C60.9643,21.7171 60.9643,21.7176 60.9643,21.718 C60.9643,21.7185 60.9643,21.7189 60.9643,21.7194 C60.9643,21.7198 60.9643,21.7203 60.9643,21.7208 C60.9643,21.7212 60.9643,21.7217 60.9643,21.7221 C60.9643,21.7226 60.9643,21.723 60.9643,21.7235 C60.9643,21.724 60.9643,21.7244 60.9643,21.7249 C60.9643,21.7253 60.9643,21.7258 60.9643,21.7263 C60.9643,21.7267 60.9643,21.7272 60.9643,21.7276 C60.9643,21.7281 60.9643,21.7286 60.9643,21.729 C60.9643,21.7295 60.9643,21.7299 60.9643,21.7304 C60.9643,21.7309 60.9643,21.7313 60.9643,21.7318 C60.9643,21.7322 60.9643,21.7327 60.9643,21.7332 C60.9643,21.7336 60.9643,21.7341 60.9643,21.7346 C60.9643,21.735 60.9643,21.7355 60.9643,21.7359 C60.9643,21.7364 60.9643,21.7369 60.9643,21.7373 C60.9643,21.7378 60.9643,21.7383 60.9643,21.7387 C60.9643,21.7392 60.9643,21.7397 60.9643,21.7401 C60.9643,21.7406 60.9643,21.741 60.9643,21.7415 C60.9643,21.742 60.9643,21.7424 60.9643,21.7429 C60.9643,21.7434 60.9643,21.7438 60.9643,21.7443 C60.9643,21.7448 60.9643,21.7452 60.9643,21.7457 C60.9643,21.7462 60.9643,21.7466 60.9643,21.7471 C60.9643,21.7476 60.9643,21.748 60.9643,21.7485 C60.9643,21.749 60.9643,21.7494 60.9643,21.7499 C60.9643,21.7504 60.9643,21.7509 60.9643,21.7513 C60.9643,21.7518 60.9643,21.7523 60.9643,21.7527 C60.9643,21.7532 60.9643,21.7537 60.9643,21.7541 C60.9643,21.7546 60.9643,21.7551 60.9643,21.7556 C60.9643,21.756 60.9643,21.7565 60.9643,21.757 C60.9643,21.7574 60.9643,21.7579 60.9643,21.7584 C60.9643,21.7589 60.9643,21.7593 60.9643,21.7598 C60.9643,21.7603 60.9643,21.7607 60.9643,21.7612 C60.9643,21.7617 60.9643,21.7622 60.9643,21.7626 C60.9643,21.7631 60.9643,21.7636 60.9643,21.7641 C60.9643,21.7645 60.9643,21.765 60.9643,21.7655 C60.9643,21.766 60.9643,21.7664 60.9643,21.7669 C60.9643,21.7674 60.9643,21.7679 60.9643,21.7683 C60.9643,21.7688 60.9643,21.7693 60.9643,21.7698 C60.9643,21.7702 60.9643,21.7707 60.9643,21.7712 C60.9643,21.7717 60.9643,21.7722 60.9643,21.7726 C60.9643,21.7731 60.9643,21.7736 60.9643,21.7741 C60.9643,21.7745 60.9643,21.775 60.9643,21.7755 C60.9643,21.776 60.9643,21.7765 60.9643,21.7769 C60.9643,21.7774 60.9643,21.7779 60.9643,21.7784 C60.9643,21.7789 60.9643,21.7793 60.9643,21.7798 L62.9643,21.7798 Z M62.9643,21.1228 C62.9643,9.48211 53.4784,1e-05 41.8346,1e-05 L41.8346,2.00001 C52.3745,2.00001 60.9643,10.58733 60.9643,21.1228 L62.9643,21.1228 Z M41.8346,1e-05 C32.9473,1e-05 25.4457,5.43726 22.2589,13.1861 L24.1086,13.9468 C27.0019,6.91159 33.7965,2.00001 41.8346,2.00001 L41.8346,1e-05 Z M23.6834,12.7002 C21.4008,11.3838 18.6822,10.59525 15.7892,10.59525 L15.7892,12.5953 C18.3189,12.5953 20.6943,13.2851 22.6842,14.4327 L23.6834,12.7002 Z M15.7892,10.59525 C7.01739,10.59525 -1e-05,17.6991 -1e-05,26.3793 L1.999995,26.3793 C1.999995,18.7971 8.12854,12.5953 15.7892,12.5953 L15.7892,10.59525 Z M-1e-05,26.3793 C-1e-05,35.1489 7.1068,42.1634 15.7892,42.1634 L15.7892,40.1634 C8.20347,40.1634 1.999995,34.0365 1.999995,26.3793 L-1e-05,26.3793 Z" id="path0_stroke"></path>
                </g>
            </g>
            <g id="Vector" transform="translate(16.000000, 45.000000)" fill="#0072FF">
                <g id="path1_stroke-link" transform="translate(0.270000, 0.800000)">
                    <path d="M1.00001003,-1e-05 C0.447725,-1e-05 1e-05,0.447709 1e-05,0.999993896 C1e-05,1.552279 0.447725,1.999994 1.00001003,1.999994 L1.00001003,-1e-05 Z M36.0832,1.999994 C36.6355,1.999994 37.0832,1.552279 37.0832,0.999993896 C37.0832,0.447709 36.6355,-1e-05 36.0832,-1e-05 L36.0832,1.999994 Z M1.00001003,1.999994 L36.0832,1.999994 L36.0832,-1e-05 L1.00001003,-1e-05 L1.00001003,1.999994 Z" id="path1_stroke"></path>
                </g>
            </g>
            <g id="Vector" transform="translate(14.000000, 18.000000)" fill="#FFFFFF">
                <g id="path2_stroke-link" transform="translate(0.540000, 0.000000)">
                    <path d="M39.2735,20.63 C39.2735,30.9187 30.9299,39.2599 20.6368,39.2599 L20.6368,41.2599 C32.0338,41.2599 41.2735,32.0239 41.2735,20.63 L39.2735,20.63 Z M20.6368,39.2599 C10.34363,39.2599 2.00001,30.9187 2.00001,20.63 L5e-06,20.63 C5e-06,32.0239 9.23972,41.2599 20.6368,41.2599 L20.6368,39.2599 Z M2.00001,20.63 C2.00001,10.34124 10.34363,2.00001 20.6368,2.00001 L20.6368,5e-06 C9.23972,5e-06 5e-06,9.23602 5e-06,20.63 L2.00001,20.63 Z M20.6368,2.00001 C30.9299,2.00001 39.2735,10.34124 39.2735,20.63 L41.2735,20.63 C41.2735,9.23602 32.0338,5e-06 20.6368,5e-06 L20.6368,2.00001 Z" id="path2_stroke"></path>
                </g>
            </g>
            <g id="Vector" transform="translate(0.000000, 53.000000)" fill="#FFFFFF">
                <g id="path3_stroke-link" transform="translate(0.900000, 0.100000)">
                    <polygon id="path3_stroke" points="20.8336 0.292766 0.293016 20.8262 1.706984 22.2407 22.2475 1.707224"></polygon>
                </g>
            </g>
        </g>
    </g>
</svg>