<?xml version="1.0" encoding="UTF-8"?>
<svg width="100px" height="76px" viewBox="0 0 100 76" version="1.1" xmlns="http://www.w3.org/2000/svg" xmlns:xlink="http://www.w3.org/1999/xlink">
    <!-- Generator: Sketch 49.1 (51147) - http://www.bohemiancoding.com/sketch -->
    <title>icSkyMessenger</title>
    <desc>Created with Sketch.</desc>
    <defs></defs>
    <g id="icSkyMessenger" stroke="none" stroke-width="1" fill="none" fill-rule="evenodd">
        <g id="skymessenger" transform="translate(17.000000, 0.000000)" fill-rule="nonzero">
            <g id="Vector" transform="translate(11.000000, 28.000000)" fill="#0072FF">
                <g id="path0_stroke-link" transform="translate(0.750000, 0.800000)">
                    <path d="M1.00001003,0.499988 C0.723868,0.499988 0.50001,0.723845 0.50001,0.999987793 C0.50001,1.27613 0.723868,1.499988 1.00001003,1.499988 L1.00001003,0.499988 Z M29.4281,1.499988 C29.7042,1.499988 29.9281,1.27613 29.9281,0.999987793 C29.9281,0.723845 29.7042,0.499988 29.4281,0.499988 L29.4281,1.499988 Z M1.00001003,1.499988 L29.4281,1.499988 L29.4281,0.499988 L1.00001003,0.499988 L1.00001003,1.499988 Z" id="path0_stroke"></path>
                </g>
            </g>
            <g id="Vector" transform="translate(11.000000, 38.000000)" fill="#0072FF">
                <g id="path1_stroke-link" transform="translate(0.750000, 0.100000)">
                    <path d="M1.00001003,0.500006 C0.723868,0.500006 0.50001,0.723864 0.50001,1.0000061 C0.50001,1.276148 0.723868,1.500006 1.00001003,1.500006 L1.00001003,0.500006 Z M29.4281,1.500006 C29.7042,1.500006 29.9281,1.276148 29.9281,1.0000061 C29.9281,0.723864 29.7042,0.500006 29.4281,0.500006 L29.4281,1.500006 Z M1.00001003,1.500006 L29.4281,1.500006 L29.4281,0.500006 L1.00001003,0.500006 L1.00001003,1.500006 Z" id="path1_stroke"></path>
                </g>
            </g>
            <g id="Vector" transform="translate(11.000000, 47.000000)" fill="#0072FF">
                <g id="path2_stroke-link" transform="translate(0.750000, 0.400000)">
                    <path d="M1.00001003,0.499994 C0.723868,0.499994 0.50001,0.723852 0.50001,0.999993896 C0.50001,1.276136 0.723868,1.499994 1.00001003,1.499994 L1.00001003,0.499994 Z M29.4281,1.499994 C29.7042,1.499994 29.9281,1.276136 29.9281,0.999993896 C29.9281,0.723852 29.7042,0.499994 29.4281,0.499994 L29.4281,1.499994 Z M1.00001003,1.499994 L29.4281,1.499994 L29.4281,0.499994 L1.00001003,0.499994 L1.00001003,1.499994 Z" id="path2_stroke"></path>
                </g>
            </g>
            <g id="Vector" transform="translate(0.000000, 18.000000)" fill="#FFFFFF">
                <g id="path3_stroke-link">
                    <path d="M13.653,40.5884 L14.653,40.5884 L14.653,39.5884 L13.653,39.5884 L13.653,40.5884 Z M13.653,54.8797 L12.653,54.8797 L12.653,57.2934 L14.3599,55.587 L13.653,54.8797 Z M27.9492,40.5884 L27.9492,39.5884 L27.5351,39.5884 L27.2422,39.8812 L27.9492,40.5884 Z M48.0493,0.352332 C47.3065,0.187321 46.3909,5e-06 45.4497,5e-06 L45.4497,2.00001 C46.1518,2.00001 46.8795,2.14121 47.6156,2.30474 L48.0493,0.352332 Z M45.4497,5e-06 L10.53081,5e-06 L10.53081,2.00001 L45.4497,2.00001 L45.4497,5e-06 Z M10.53081,5e-06 C4.72047,5e-06 2e-05,4.71836 2e-05,10.52752 L2.00002,10.52752 C2.00002,5.82357 5.82439,2.00001 10.53081,2.00001 L10.53081,5e-06 Z M2e-05,10.52752 L2e-05,31.061 L2.00002,31.061 L2.00002,10.52752 L2e-05,10.52752 Z M2e-05,31.061 C2e-05,36.8701 4.72047,41.5884 10.53081,41.5884 L10.53081,39.5884 C5.82439,39.5884 2.00002,35.7649 2.00002,31.061 L2e-05,31.061 Z M10.53081,41.5884 L13.653,41.5884 L13.653,39.5884 L10.53081,39.5884 L10.53081,41.5884 Z M12.653,40.5884 L12.653,54.8797 L14.653,54.8797 L14.653,40.5884 L12.653,40.5884 Z M14.3599,55.587 L28.6562,41.2957 L27.2422,39.8812 L12.946,54.1725 L14.3599,55.587 Z M27.9492,41.5884 L45.4497,41.5884 L45.4497,39.5884 L27.9492,39.5884 L27.9492,41.5884 Z M45.4497,41.5884 C51.2601,41.5884 55.9805,36.8701 55.9805,31.061 L53.9805,31.061 C53.9805,35.7649 50.1561,39.5884 45.4497,39.5884 L45.4497,41.5884 Z M55.9805,31.061 L55.9805,10.52752 L53.9805,10.52752 L53.9805,31.061 L55.9805,31.061 Z M55.9805,10.52752 C55.9805,9.79769 55.8893,9.07858 55.8085,8.43222 L53.824,8.68037 C53.9075,9.34815 53.9805,9.94322 53.9805,10.52752 L55.9805,10.52752 Z" id="path3_stroke"></path>
                </g>
            </g>
            <g id="Vector" transform="translate(46.000000, 10.000000)" fill="#0072FF">
                <g id="path4_stroke-link" transform="translate(0.830000, 0.900000)">
                    <path d="M1.00002006,1 L1.00002006,0 C0.447735,0 2e-05,0.447715 2e-05,1 L1.00002006,1 Z M17.7611,1 L18.7611,1 C18.7611,0.447715 18.3134,0 17.7611,0 L17.7611,1 Z M17.7611,8.88484 L18.7611,8.88484 L17.7611,8.88484 Z M10.94162,14.7019 L7.81947,14.7019 L7.81947,16.7019 L10.94162,16.7019 L10.94162,14.7019 Z M7.81947,14.7019 C4.59197,14.7019 2.00002,12.1104 2.00002,8.88484 L2e-05,8.88484 C2e-05,13.2156 3.48805,16.7019 7.81947,16.7019 L7.81947,14.7019 Z M2.00002,8.88484 L2.00002,1 L2e-05,1 L2e-05,8.88484 L2.00002,8.88484 Z M1.00002006,2 L17.7611,2 L17.7611,0 L1.00002006,0 L1.00002006,2 Z M16.7611,1 L16.7611,8.88484 L18.7611,8.88484 L18.7611,1 L16.7611,1 Z M16.7611,8.88484 C16.7611,12.0361 14.1613,14.7019 10.94162,14.7019 L10.94162,16.7019 C15.2808,16.7019 18.7611,13.1256 18.7611,8.88484 L16.7611,8.88484 Z" id="path4_stroke"></path>
                </g>
            </g>
            <g id="Vector" transform="translate(49.000000, 0.000000)" fill="#0072FF">
                <g id="path5_stroke-link" transform="translate(0.950000, 0.000000)">
                    <path d="M1e-05,11.431 C1e-05,11.9833 0.447725,12.431 1.00001003,12.431 C1.552295,12.431 2.00001,11.9833 2.00001,11.431 L1e-05,11.431 Z M10.35242,11.8416 C10.35242,12.3939 10.80014,12.8416 11.3524,12.8416 C11.9047,12.8416 12.3524,12.3939 12.3524,11.8416 L10.35242,11.8416 Z M2.00001,11.431 L2.00001,6.17442 L1e-05,6.17442 L1e-05,11.431 L2.00001,11.431 Z M2.00001,6.17442 C2.00001,3.85236 3.8525,2.00001 6.17622,2.00001 L6.17622,1e-05 C2.74858,1e-05 1e-05,2.74713 1e-05,6.17442 L2.00001,6.17442 Z M6.17622,2.00001 C8.49993,2.00001 10.35242,3.85236 10.35242,6.17442 L12.3524,6.17442 C12.3524,2.74713 9.60385,1e-05 6.17622,1e-05 L6.17622,2.00001 Z M10.35242,6.17442 L10.35242,11.8416 L12.3524,11.8416 L12.3524,6.17442 L10.35242,6.17442 Z" id="path5_stroke"></path>
                </g>
            </g>
        </g>
    </g>
</svg>