<?xml version="1.0" encoding="UTF-8"?>
<svg width="100px" height="69px" viewBox="0 0 100 69" version="1.1" xmlns="http://www.w3.org/2000/svg" xmlns:xlink="http://www.w3.org/1999/xlink">
    <!-- Generator: Sketch 49.1 (51147) - http://www.bohemiancoding.com/sketch -->
    <title>icSkyminer</title>
    <desc>Created with Sketch.</desc>
    <defs></defs>
    <g id="icSkyminer" stroke="none" stroke-width="1" fill="none" fill-rule="evenodd">
        <g id="skyminer" transform="translate(21.000000, 0.000000)" fill-rule="nonzero">
            <g id="Group" transform="translate(7.000000, 9.000000)" fill="#0072FF">
                <g id="Vector" transform="translate(0.000000, 15.000000)">
                    <g id="path0_stroke-link" transform="translate(0.560000, 0.600000)">
                        <path d="M1.00000251,0.999994987 L1.00000251,0.499995 C0.72386,0.499995 0.500003,0.723853 0.500003,0.999994987 L1.00000251,0.999994987 Z M26.306,0.999994987 L26.806,0.999994987 C26.806,0.723853 26.5821,0.499995 26.306,0.499995 L26.306,0.999994987 Z M26.306,32.7858 L26.306,33.2858 C26.5821,33.2858 26.806,33.0619 26.806,32.7858 L26.306,32.7858 Z M1.00000251,32.7858 L0.500003,32.7858 C0.500003,33.0619 0.72386,33.2858 1.00000251,33.2858 L1.00000251,32.7858 Z M1.00000251,1.499995 L26.306,1.499995 L26.306,0.499995 L1.00000251,0.499995 L1.00000251,1.499995 Z M25.806,0.999994987 L25.806,32.7858 L26.806,32.7858 L26.806,0.999994987 L25.806,0.999994987 Z M26.306,32.2858 L1.00000251,32.2858 L1.00000251,33.2858 L26.306,33.2858 L26.306,32.2858 Z M1.500003,32.7858 L1.500003,0.999994987 L0.500003,0.999994987 L0.500003,32.7858 L1.500003,32.7858 Z" id="path0_stroke"></path>
                    </g>
                </g>
                <g id="Vector" transform="translate(7.000000, 8.000000)">
                    <g id="path1_stroke-link" transform="translate(0.950000, 0.200000)">
                        <path d="M0.49999,8.22777 C0.49999,8.50391 0.723848,8.72777 0.99998997,8.72777 C1.276132,8.72777 1.49999,8.50391 1.49999,8.22777 L0.49999,8.22777 Z M0.99998997,0.999994987 L0.99998997,0.499995 C0.723848,0.499995 0.49999,0.723853 0.49999,0.999994987 L0.99998997,0.999994987 Z M26.306,0.999994987 L26.806,0.999994987 C26.806,0.723853 26.5821,0.499995 26.306,0.499995 L26.306,0.999994987 Z M26.306,32.7858 L26.306,33.2858 C26.5821,33.2858 26.806,33.0619 26.806,32.7858 L26.306,32.7858 Z M18.9114,32.2858 C18.6352,32.2858 18.4114,32.5096 18.4114,32.7858 C18.4114,33.0619 18.6352,33.2858 18.9114,33.2858 L18.9114,32.2858 Z M1.49999,8.22777 L1.49999,0.999994987 L0.49999,0.999994987 L0.49999,8.22777 L1.49999,8.22777 Z M0.99998997,1.499995 L26.306,1.499995 L26.306,0.499995 L0.99998997,0.499995 L0.99998997,1.499995 Z M25.806,0.999994987 L25.806,32.7858 L26.806,32.7858 L26.806,0.999994987 L25.806,0.999994987 Z M26.306,32.2858 L18.9114,32.2858 L18.9114,33.2858 L26.306,33.2858 L26.306,32.2858 Z" id="path1_stroke"></path>
                    </g>
                </g>
                <g id="Vector" transform="translate(15.000000, 0.000000)">
                    <g id="path2_stroke-link" transform="translate(0.430000, 0.900000)">
                        <path d="M0.499995,8.3099 C0.499995,8.58605 0.723853,8.8099 0.999994985,8.8099 C1.276137,8.8099 1.499995,8.58605 1.499995,8.3099 L0.499995,8.3099 Z M0.999994985,0.999994987 L0.999994985,0.499995 C0.723853,0.499995 0.499995,0.723853 0.499995,0.999994987 L0.999994985,0.999994987 Z M26.306,0.999994987 L26.806,0.999994987 C26.806,0.723853 26.5821,0.499995 26.306,0.499995 L26.306,0.999994987 Z M26.306,32.7036 L26.306,33.2036 C26.5821,33.2036 26.806,32.9798 26.806,32.7036 L26.306,32.7036 Z M18.747,32.2036 C18.4709,32.2036 18.247,32.4275 18.247,32.7036 C18.247,32.9798 18.4709,33.2036 18.747,33.2036 L18.747,32.2036 Z M1.499995,8.3099 L1.499995,0.999994987 L0.499995,0.999994987 L0.499995,8.3099 L1.499995,8.3099 Z M0.999994985,1.499995 L26.306,1.499995 L26.306,0.499995 L0.999994985,0.499995 L0.999994985,1.499995 Z M25.806,0.999994987 L25.806,32.7036 L26.806,32.7036 L26.806,0.999994987 L25.806,0.999994987 Z M26.306,32.2036 L18.747,32.2036 L18.747,33.2036 L26.306,33.2036 L26.306,32.2036 Z" id="path2_stroke"></path>
                    </g>
                </g>
            </g>
            <g id="Vector" fill="#FFFFFF">
                <g id="path3_stroke-link">
                    <path d="M21.8692,1.164272 L21.8644,0.164284 C21.6009,0.165557 21.3485,0.270765 21.1622,0.457043 L21.8692,1.164272 Z M1.00000501,22.0262 L0.293021,21.319 C0.105409,21.5065 5e-06,21.761 5e-06,22.0262 L1.00000501,22.0262 Z M1.00000501,67.5283 L5e-06,67.5283 C5e-06,68.0806 0.44772,68.5283 1.00000501,68.5283 L1.00000501,67.5283 Z M34.5222,67.5283 L34.5222,68.5283 C34.7873,68.5283 35.0416,68.423 35.2291,68.2355 L34.5222,67.5283 Z M55.8843,46.1735 L56.5913,46.8808 C56.7789,46.6932 56.8843,46.4388 56.8843,46.1735 L55.8843,46.1735 Z M55.8843,0.999994987 L56.8843,0.999995284 C56.8843,0.733942 56.7783,0.478856 56.5897,0.291183 C56.4011,0.103509 56.1455,-0.00128 55.8795,7e-06 L55.8843,0.999994987 Z M21.1622,0.457043 L0.293021,21.319 L1.706989,22.7335 L22.5762,1.871502 L21.1622,0.457043 Z M5e-06,22.0262 L5e-06,67.5283 L2.00001,67.5283 L2.00001,22.0262 L5e-06,22.0262 Z M1.00000501,68.5283 L34.5222,68.5283 L34.5222,66.5283 L1.00000501,66.5283 L1.00000501,68.5283 Z M35.2291,68.2355 L56.5913,46.8808 L55.1773,45.4663 L33.8152,66.8211 L35.2291,68.2355 Z M56.8843,46.1735 L56.8843,0.999994987 L54.8843,0.999994987 L54.8843,46.1735 L56.8843,46.1735 Z M55.8795,7e-06 L21.8644,0.164284 L21.874,2.16426 L55.8891,1.999983 L55.8795,7e-06 Z" id="path3_stroke"></path>
                </g>
            </g>
            <g id="Vector" transform="translate(33.000000, 0.000000)" fill="#FFFFFF">
                <g id="path4_stroke-link" transform="translate(0.520000, 0.000000)">
                    <polygon id="path4_stroke" points="1.701476 22.7389 23.0636 1.712683 21.6607 0.287307 0.298514 21.3135"></polygon>
                </g>
            </g>
            <g id="Vector" transform="translate(1.000000, 21.000000)" fill="#FFFFFF">
                <g id="path5_stroke-link">
                    <path d="M33.5222,1 L34.5222,1 C34.5222,0.447715 34.0744,0 33.5222,0 L33.5222,1 Z M34.5222,46.5021 L34.5222,1 L32.5222,1 L32.5222,46.5021 L34.5222,46.5021 Z M33.5222,0 L5.01478e-06,0 L5.01478e-06,2 L33.5222,2 L33.5222,0 Z" id="path5_stroke"></path>
                </g>
            </g>
        </g>
    </g>
</svg>