<?xml version="1.0" encoding="UTF-8"?>
<svg width="100px" height="67px" viewBox="0 0 100 67" version="1.1" xmlns="http://www.w3.org/2000/svg" xmlns:xlink="http://www.w3.org/1999/xlink">
    <!-- Generator: Sketch 49.1 (51147) - http://www.bohemiancoding.com/sketch -->
    <title>icSkyvpn</title>
    <desc>Created with Sketch.</desc>
    <defs></defs>
    <g id="icSkyvpn" stroke="none" stroke-width="1" fill="none" fill-rule="evenodd">
        <g id="skyvpn" transform="translate(7.000000, 0.000000)" fill-rule="nonzero">
            <g id="Vector" transform="translate(31.000000, 42.000000)" fill="#0072FF">
                <g id="path0_stroke-link" transform="translate(0.070000, 0.000000)">
                    <path d="M43.8894,1.13182 C43.9622,0.865447 43.8053,0.59049 43.5389,0.517686 C43.2725,0.444881 42.9976,0.601799 42.9248,0.868171 L43.8894,1.13182 Z M1.188607,21.1289 C0.9328623,21.0247 0.641102,21.1476 0.536942,21.4034 C0.432783,21.6591 0.555667,21.9509 0.811411,22.055 L1.188607,21.1289 Z M42.9248,0.868171 C39.3546,13.9306 27.3785,23.5057 13.1703,23.5057 L13.1703,24.5057 C27.8382,24.5057 40.2028,14.6202 43.8894,1.13182 L42.9248,0.868171 Z M13.1703,23.5057 C8.93098,23.5057 4.83731,22.6149 1.188607,21.1289 L0.811411,22.055 C4.57073,23.5861 8.79212,24.5057 13.1703,24.5057 L13.1703,23.5057 Z" id="path0_stroke"></path>
                </g>
            </g>
            <g id="Vector" transform="translate(21.000000, 2.000000)" fill="#0072FF">
                <g id="path1_stroke-link" transform="translate(0.770000, 0.300000)">
                    <path d="M0.659431,9.08192 C0.457261,9.27002 0.445857,9.5864 0.633958,9.78857 C0.82206,9.99074 1.138437,10.00214 1.340606,9.81404 L0.659431,9.08192 Z M43.6685,9.96232 C43.8692,10.15194 44.1857,10.14293 44.3753,9.94219 C44.5649,9.74145 44.5559,9.42499 44.3552,9.23537 L43.6685,9.96232 Z M1.340606,9.81404 C6.84672,4.69106 14.2858,1.499991 22.3925,1.499991 L22.3925,0.499991 C14.0202,0.499991 6.34092,3.79577 0.659431,9.08192 L1.340606,9.81404 Z M22.3925,1.499991 C30.6505,1.499991 38.0882,4.69106 43.6685,9.96232 L44.3552,9.23537 C38.5967,3.7958 30.916,0.499991 22.3925,0.499991 L22.3925,1.499991 Z" id="path1_stroke"></path>
                </g>
            </g>
            <g id="Vector" transform="translate(11.000000, 24.000000)" fill="#0072FF">
                <g id="path2_stroke-link" transform="translate(0.790000, 0.600000)">
                    <path d="M0.500009,10.0514 C0.500009,10.32754 0.723867,10.5514 1.00000923,10.5514 C1.276152,10.5514 1.500009,10.32754 1.500009,10.0514 L0.500009,10.0514 Z M2.83735,1.150858 C2.92067,0.887585 2.77479,0.606617 2.51152,0.523298 C2.24825,0.439979 1.967277,0.58586 1.883958,0.849133 L2.83735,1.150858 Z M1.500009,10.0514 C1.500009,6.93183 1.946505,3.96577 2.83735,1.150858 L1.883958,0.849133 C0.9605984,3.76678 0.500009,6.83499 0.500009,10.0514 L1.500009,10.0514 Z" id="path2_stroke"></path>
                </g>
            </g>
            <g id="Vector" transform="translate(0.000000, 33.000000)" fill="#FFFFFF">
                <g id="path3_stroke-link" transform="translate(0.000000, 0.900000)">
                    <path d="M0.999981545,1.00000921 L0.999981545,9e-06 L-2e-05,9e-06 L-2e-05,1.00000921 L0.999981545,1.00000921 Z M32.0683,1.00000921 L33.0683,1.00000921 L33.0683,9e-06 L32.0683,9e-06 L32.0683,1.00000921 Z M32.0683,32.0765 L32.0683,33.0765 L33.0683,33.0765 L33.0683,32.0765 L32.0683,32.0765 Z M0.999981545,32.0765 L-2e-05,32.0765 L-2e-05,33.0765 L0.999981545,33.0765 L0.999981545,32.0765 Z M0.999981545,2.00001 L32.0683,2.00001 L32.0683,9e-06 L0.999981545,9e-06 L0.999981545,2.00001 Z M31.0683,1.00000921 L31.0683,32.0765 L33.0683,32.0765 L33.0683,1.00000921 L31.0683,1.00000921 Z M32.0683,31.0765 L0.999981545,31.0765 L0.999981545,33.0765 L32.0683,33.0765 L32.0683,31.0765 Z M1.999982,32.0765 L1.999982,1.00000921 L-2e-05,1.00000921 L-2e-05,32.0765 L1.999982,32.0765 Z" id="path3_stroke"></path>
                </g>
            </g>
            <g id="Vector" transform="translate(7.000000, 40.000000)" fill="#0072FF">
                <g id="path4_stroke-link" transform="translate(0.560000, 0.300000)">
                    <path d="M0.499976,19.1782 C0.499976,19.4544 0.723833,19.6782 0.999975586,19.6782 C1.276118,19.6782 1.499976,19.4544 1.499976,19.1782 L0.499976,19.1782 Z M1.499976,1.00000921 C1.499976,0.723867 1.276118,0.500009 0.999975586,0.500009 C0.723833,0.500009 0.499976,0.723867 0.499976,1.00000921 L1.499976,1.00000921 Z M1.499976,19.1782 L1.499976,1.00000921 L0.499976,1.00000921 L0.499976,19.1782 L1.499976,19.1782 Z" id="path4_stroke"></path>
                </g>
            </g>
            <g id="Vector" transform="translate(15.000000, 40.000000)" fill="#0072FF">
                <g id="path4_stroke-link" transform="translate(0.120000, 0.300000)">
                    <path d="M0.499976,19.1782 C0.499976,19.4544 0.723833,19.6782 0.999975586,19.6782 C1.276118,19.6782 1.499976,19.4544 1.499976,19.1782 L0.499976,19.1782 Z M1.499976,1.00000921 C1.499976,0.723867 1.276118,0.500009 0.999975586,0.500009 C0.723833,0.500009 0.499976,0.723867 0.499976,1.00000921 L1.499976,1.00000921 Z M1.499976,19.1782 L1.499976,1.00000921 L0.499976,1.00000921 L0.499976,19.1782 L1.499976,19.1782 Z" id="path4_stroke"></path>
                </g>
            </g>
            <g id="Vector" transform="translate(22.000000, 40.000000)" fill="#0072FF">
                <g id="path4_stroke-link" transform="translate(0.680000, 0.300000)">
                    <path d="M0.499976,19.1782 C0.499976,19.4544 0.723833,19.6782 0.999975586,19.6782 C1.276118,19.6782 1.499976,19.4544 1.499976,19.1782 L0.499976,19.1782 Z M1.499976,1.00000921 C1.499976,0.723867 1.276118,0.500009 0.999975586,0.500009 C0.723833,0.500009 0.499976,0.723867 0.499976,1.00000921 L1.499976,1.00000921 Z M1.499976,19.1782 L1.499976,1.00000921 L0.499976,1.00000921 L0.499976,19.1782 L1.499976,19.1782 Z" id="path4_stroke"></path>
                </g>
            </g>
            <g id="Vector" transform="translate(51.000000, 10.000000)" fill="#FFFFFF">
                <g id="path5_stroke-link" transform="translate(0.930000, 0.800000)">
                    <path d="M0.999990772,1 L0.999990772,0 L-1e-05,0 L-1e-05,1 L0.999990772,1 Z M32.0683,1 L33.0683,1 L33.0683,0 L32.0683,0 L32.0683,1 Z M32.0683,32.0765 L32.0683,33.0765 L33.0683,33.0765 L33.0683,32.0765 L32.0683,32.0765 Z M0.999990772,32.0765 L-1e-05,32.0765 L-1e-05,33.0765 L0.999990772,33.0765 L0.999990772,32.0765 Z M0.999990772,2 L32.0683,2 L32.0683,0 L0.999990772,0 L0.999990772,2 Z M31.0683,1 L31.0683,32.0765 L33.0683,32.0765 L33.0683,1 L31.0683,1 Z M32.0683,31.0765 L0.999990772,31.0765 L0.999990772,33.0765 L32.0683,33.0765 L32.0683,31.0765 Z M1.999991,32.0765 L1.999991,1 L-1e-05,1 L-1e-05,32.0765 L1.999991,32.0765 Z" id="path5_stroke"></path>
                </g>
            </g>
            <g id="Vector" transform="translate(59.000000, 17.000000)" fill="#0072FF">
                <g id="path6_stroke-link" transform="translate(0.570000, 0.300000)">
                    <path d="M0.500024,19.1782 C0.500024,19.4544 0.723882,19.6782 1.00002441,19.6782 C1.276167,19.6782 1.500024,19.4544 1.500024,19.1782 L0.500024,19.1782 Z M1.500024,1.0000046 C1.500024,0.723862 1.276167,0.500005 1.00002441,0.500005 C0.723882,0.500005 0.500024,0.723862 0.500024,1.0000046 L1.500024,1.0000046 Z M1.500024,19.1782 L1.500024,1.0000046 L0.500024,1.0000046 L0.500024,19.1782 L1.500024,19.1782 Z" id="path6_stroke"></path>
                </g>
            </g>
            <g id="Vector" transform="translate(67.000000, 17.000000)" fill="#0072FF">
                <g id="path6_stroke-link" transform="translate(0.130000, 0.300000)">
                    <path d="M0.500024,19.1782 C0.500024,19.4544 0.723882,19.6782 1.00002441,19.6782 C1.276167,19.6782 1.500024,19.4544 1.500024,19.1782 L0.500024,19.1782 Z M1.500024,1.0000046 C1.500024,0.723862 1.276167,0.500005 1.00002441,0.500005 C0.723882,0.500005 0.500024,0.723862 0.500024,1.0000046 L1.500024,1.0000046 Z M1.500024,19.1782 L1.500024,1.0000046 L0.500024,1.0000046 L0.500024,19.1782 L1.500024,19.1782 Z" id="path6_stroke"></path>
                </g>
            </g>
            <g id="Vector" transform="translate(74.000000, 17.000000)" fill="#0072FF">
                <g id="path6_stroke-link" transform="translate(0.680000, 0.300000)">
                    <path d="M0.500024,19.1782 C0.500024,19.4544 0.723882,19.6782 1.00002441,19.6782 C1.276167,19.6782 1.500024,19.4544 1.500024,19.1782 L0.500024,19.1782 Z M1.500024,1.0000046 C1.500024,0.723862 1.276167,0.500005 1.00002441,0.500005 C0.723882,0.500005 0.500024,0.723862 0.500024,1.0000046 L1.500024,1.0000046 Z M1.500024,19.1782 L1.500024,1.0000046 L0.500024,1.0000046 L0.500024,19.1782 L1.500024,19.1782 Z" id="path6_stroke"></path>
                </g>
            </g>
            <g id="Vector" transform="translate(41.000000, 0.000000)" fill="#0072FF">
                <g id="path7_fill-link" transform="translate(0.520000, 0.000000)">
                    <path d="M3.77961,7.54283 C5.86702,7.54283 7.55921,5.85431 7.55921,3.77141 C7.55921,1.68852 5.86702,-4.60378e-06 3.77961,-4.60378e-06 C1.69219,-4.60378e-06 9.22753e-06,1.68852 9.22753e-06,3.77141 C9.22753e-06,5.85431 1.69219,7.54283 3.77961,7.54283 Z" id="path7_fill"></path>
                </g>
            </g>
            <g id="Vector" transform="translate(64.000000, 50.000000)" fill="#0072FF">
                <g id="path7_fill-link" transform="translate(0.190000, 0.500000)">
                    <path d="M3.77961,7.54283 C5.86702,7.54283 7.55921,5.85431 7.55921,3.77141 C7.55921,1.68852 5.86702,-4.60378e-06 3.77961,-4.60378e-06 C1.69219,-4.60378e-06 9.22753e-06,1.68852 9.22753e-06,3.77141 C9.22753e-06,5.85431 1.69219,7.54283 3.77961,7.54283 Z" id="path7_fill"></path>
                </g>
            </g>
            <g id="Vector" transform="translate(9.000000, 12.000000)" fill="#FFFFFF">
                <g id="path8_stroke-link" transform="translate(0.980000, 0.400000)">
                    <path d="M0.999990772,1.00000921 L0.999990772,9e-06 L-1e-05,9e-06 L-1e-05,1.00000921 L0.999990772,1.00000921 Z M15.7404,1.00000921 L16.7404,1.00000921 L16.7404,9e-06 L15.7404,9e-06 L15.7404,1.00000921 Z M15.7404,7.6377 L16.7404,7.6377 L15.7404,7.6377 Z M9.4663,12.8982 L7.27411,12.8982 L7.27411,14.8982 L9.4663,14.8982 L9.4663,12.8982 Z M7.27411,12.8982 C4.34713,12.8982 1.999991,10.55308 1.999991,7.6377 L-1e-05,7.6377 C-1e-05,11.6617 3.24664,14.8982 7.27411,14.8982 L7.27411,12.8982 Z M1.999991,7.6377 L1.999991,1.00000921 L-1e-05,1.00000921 L-1e-05,7.6377 L1.999991,7.6377 Z M0.999990772,2.00001 L15.7404,2.00001 L15.7404,9e-06 L0.999990772,9e-06 L0.999990772,2.00001 Z M14.7404,1.00000921 L14.7404,7.6377 L16.7404,7.6377 L16.7404,1.00000921 L14.7404,1.00000921 Z M14.7404,7.6377 C14.7404,10.54528 12.3255,12.8982 9.4663,12.8982 L9.4663,14.8982 C13.4103,14.8982 16.7404,11.6695 16.7404,7.6377 L14.7404,7.6377 Z" id="path8_stroke"></path>
                </g>
            </g>
            <g id="Vector" transform="translate(12.000000, 2.000000)" fill="#FFFFFF">
                <g id="path9_stroke-link" transform="translate(0.700000, 0.800000)">
                    <path d="M2.00002,10.20227 L2.00002,5.60113 L1.8e-05,5.60113 L1.8e-05,10.20227 L2.00002,10.20227 Z M2.00002,5.60113 C2.00002,3.65564 3.60187,1.999995 5.61111,1.999995 L5.61111,0 C2.4801,0 1.8e-05,2.56835 1.8e-05,5.60113 L2.00002,5.60113 Z M5.61111,1.999995 C7.56609,1.999995 9.2222,3.6015 9.2222,5.60113 L11.2222,5.60113 C11.2222,2.47164 8.6452,0 5.61111,0 L5.61111,1.999995 Z M9.2222,5.60113 L9.2222,10.57941 L11.2222,10.57941 L11.2222,5.60113 L9.2222,5.60113 Z" id="path9_stroke"></path>
                </g>
            </g>
        </g>
    </g>
</svg>