<?xml version="1.0" encoding="UTF-8"?>
<svg width="100px" height="72px" viewBox="0 0 100 72" version="1.1" xmlns="http://www.w3.org/2000/svg" xmlns:xlink="http://www.w3.org/1999/xlink">
    <!-- Generator: Sketch 49.1 (51147) - http://www.bohemiancoding.com/sketch -->
    <title>icSkycoin</title>
    <desc>Created with Sketch.</desc>
    <defs></defs>
    <g id="icSkycoin" stroke="none" stroke-width="1" fill="none" fill-rule="evenodd">
        <g id="skycoin" transform="translate(14.000000, 0.000000)" fill-rule="nonzero">
            <g id="Vector" fill="#FFFFFF">
                <g id="path0_stroke-link">
                    <path d="M69.5092,35.7426 C69.5092,54.3777 54.3971,69.4851 35.7546,69.4851 L35.7546,71.4851 C55.501,71.4851 71.5092,55.483 71.5092,35.7426 L69.5092,35.7426 Z M35.7546,69.4851 C17.1121,69.4851 2.00001,54.3777 2.00001,35.7426 L1e-05,35.7426 C1e-05,55.483 16.0082,71.4851 35.7546,71.4851 L35.7546,69.4851 Z M2.00001,35.7426 C2.00001,17.1074 17.1121,2 35.7546,2 L35.7546,0 C16.0082,0 1e-05,16.0022 1e-05,35.7426 L2.00001,35.7426 Z M35.7546,2 C54.3971,2 69.5092,17.1074 69.5092,35.7426 L71.5092,35.7426 C71.5092,16.0022 55.501,0 35.7546,0 L35.7546,2 Z" id="path0_stroke"></path>
                </g>
            </g>
            <g id="path0-fill-11" transform="translate(17.000000, 19.000000)" fill="#0072FF">
                <g id="path1_fill-link" transform="translate(0.350000, 0.200000)">
                    <path d="M25.6346,3.53175 L14.2962,28.1719 L10.5168,28.1719 L22.7589,1.23201 C23.9913,1.72481 24.813,2.54615 25.6346,3.53175 Z M18.4043,-3.13315e-07 C19.7189,-3.13315e-07 20.9514,0.246401 22.1016,0.821337 L9.69513,28.254 L9.28432,28.254 C8.13405,28.254 6.98378,28.0076 6.08,27.5969 L18.4043,-3.13315e-07 Z M33.2757,11.3345 C34.0973,11.9915 34.6724,12.6486 35.3297,13.4699 L28.6746,28.1719 C28.4281,28.1719 28.0995,28.254 27.7708,28.254 L25.6346,28.254 L33.2757,11.3345 Z M30.8108,27.5969 L36.3157,15.5233 C36.6443,16.5089 36.8086,17.6588 36.8086,18.7265 C36.8086,22.751 34.2616,26.2828 30.8108,27.5969 Z M27.6065,9.36324 L18.9795,28.1719 L15.5286,28.1719 L26.2919,4.59949 C27.1135,5.99576 27.6065,7.63844 27.6065,9.36324 Z M17.747,-3.13315e-07 L5.34055,27.3505 C2.21838,25.8721 5.01478e-06,22.5868 5.01478e-06,18.8086 C5.01478e-06,13.6342 4.1081,9.36324 9.20215,9.36324 C9.11999,4.43522 12.8995,0.328535 17.747,-3.13315e-07 Z M31.7967,10.431 L23.7449,28.1719 L20.5405,28.1719 L29.0032,9.52751 C30.0713,9.69178 30.9751,10.0203 31.7967,10.431 Z" id="path1_fill"></path>
                </g>
            </g>
            <g id="Vector" transform="translate(8.000000, 8.000000)" fill="#FFFFFF">
                <g id="path2_stroke-link" transform="translate(0.630000, 0.600000)">
                    <path d="M52.7551,27.1185 C52.7551,41.2671 41.2814,52.737 27.1276,52.737 L27.1276,53.737 C41.8334,53.737 53.7551,41.8197 53.7551,27.1185 L52.7551,27.1185 Z M27.1276,52.737 C12.9737,52.737 1.50001,41.2671 1.50001,27.1185 L0.50001,27.1185 C0.50001,41.8197 12.4217,53.737 27.1276,53.737 L27.1276,52.737 Z M1.50001,27.1185 C1.50001,12.97 12.9737,1.5 27.1276,1.5 L27.1276,0.5 C12.4217,0.5 0.50001,12.4174 0.50001,27.1185 L1.50001,27.1185 Z M27.1276,1.5 C41.2814,1.5 52.7551,12.97 52.7551,27.1185 L53.7551,27.1185 C53.7551,12.4174 41.8334,0.5 27.1276,0.5 L27.1276,1.5 Z" id="path2_stroke"></path>
                </g>
            </g>
        </g>
    </g>
</svg>