<?xml version="1.0" encoding="UTF-8"?>
<svg width="100px" height="69px" viewBox="0 0 100 69" version="1.1" xmlns="http://www.w3.org/2000/svg" xmlns:xlink="http://www.w3.org/1999/xlink">
    <!-- Generator: Sketch 49.1 (51147) - http://www.bohemiancoding.com/sketch -->
    <title>icWallet</title>
    <desc>Created with Sketch.</desc>
    <defs></defs>
    <g id="icWallet" stroke="none" stroke-width="1" fill="none" fill-rule="evenodd">
        <g id="wallet" transform="translate(11.000000, 0.000000)" fill-rule="nonzero">
            <g id="Vector" transform="translate(0.000000, 7.000000)" fill="#FFFFFF">
                <g id="path0_stroke-link" transform="translate(0.000000, 0.800000)">
                    <path d="M68.866,15.127 L68.866,16.127 C69.4182,16.127 69.866,15.6793 69.866,15.127 L68.866,15.127 Z M68.866,1.00001003 L69.866,1.00001003 C69.866,0.447725 69.4182,1e-05 68.866,1e-05 L68.866,1.00001003 Z M23.4303,1e-05 L8.06595,1e-05 L8.06595,2.00001 L23.4303,2.00001 L23.4303,1e-05 Z M8.06595,1e-05 C3.56265,1e-05 0,3.65818 0,8.06349 L2,8.06349 C2,4.74823 4.68167,2.00001 8.06595,2.00001 L8.06595,1e-05 Z M0,8.06349 C0,12.5661 3.65995,16.127 8.06595,16.127 L8.06595,14.127 C4.74869,14.127 2,11.4457 2,8.06349 L0,8.06349 Z M8.06595,16.127 L68.866,16.127 L68.866,14.127 L8.06595,14.127 L8.06595,16.127 Z M69.866,15.127 L69.866,1.00001003 L67.866,1.00001003 L67.866,15.127 L69.866,15.127 Z M68.866,1e-05 L51.1189,1e-05 L51.1189,2.00001 L68.866,2.00001 L68.866,1e-05 Z" id="path0_stroke"></path>
                </g>
            </g>
            <g id="Vector" transform="translate(67.000000, 22.000000)" fill="#FFFFFF">
                <g id="path1_stroke-link" transform="translate(0.870000, 0.900000)">
                    <polygon id="path1_stroke" points="2 14.4555 2 -5.01304e-06 3e-06 -5.01304e-06 3e-06 14.4555"></polygon>
                </g>
            </g>
            <g id="Vector" transform="translate(0.000000, 17.000000)" fill="#FFFFFF">
                <g id="path2_stroke-link">
                    <path d="M68.866,50.1837 L68.866,51.1837 C69.4182,51.1837 69.866,50.736 69.866,50.1837 L68.866,50.1837 Z M0,1.00261e-05 L0,40.7383 L2,40.7383 L2,1.00261e-05 L0,1.00261e-05 Z M0,40.7383 C0,46.4597 4.63266,51.1837 10.44865,51.1837 L10.44865,49.1837 C5.74788,49.1837 2,45.3658 2,40.7383 L0,40.7383 Z M10.44865,51.1837 L68.866,51.1837 L68.866,49.1837 L10.44865,49.1837 L10.44865,51.1837 Z M69.866,50.1837 L69.866,34.8247 L67.866,34.8247 L67.866,50.1837 L69.866,50.1837 Z" id="path2_stroke"></path>
                </g>
            </g>
            <g id="Vector" transform="translate(53.000000, 37.000000)" fill="#FFFFFF">
                <g id="path3_stroke-link" transform="translate(0.730000, 0.000000)">
                    <path d="M16.5286,14.127 L7.16216,14.127 L7.16216,16.127 L16.5286,16.127 L16.5286,14.127 Z M7.16216,14.127 C4.34547,14.127 1.999999,11.7818 1.999999,8.96697 L0,8.96697 C0,12.8871 3.24155,16.127 7.16216,16.127 L7.16216,14.127 Z M1.999999,8.96697 L1.999999,7.16002 L0,7.16002 L0,8.96697 L1.999999,8.96697 Z M1.999999,7.16002 C1.999999,4.34515 4.34547,1.99999 7.16216,1.99999 L7.16216,-1e-05 C3.24155,-1e-05 0,3.23993 0,7.16002 L1.999999,7.16002 Z M7.16216,1.99999 L16.5286,1.99999 L16.5286,-1e-05 L7.16216,-1e-05 L7.16216,1.99999 Z M16.5286,1.99999 C19.3453,1.99999 21.6908,4.34515 21.6908,7.16002 L23.6908,7.16002 C23.6908,3.23993 20.4493,-1e-05 16.5286,-1e-05 L16.5286,1.99999 Z M21.6908,7.16002 L21.6908,8.96697 L23.6908,8.96697 L23.6908,7.16002 L21.6908,7.16002 Z M21.6908,8.96697 C21.6908,11.7905 19.4188,14.127 16.5286,14.127 L16.5286,16.127 C20.5401,16.127 23.6908,12.8784 23.6908,8.96697 L21.6908,8.96697 Z" id="path3_stroke"></path>
                </g>
            </g>
            <g id="Vector" transform="translate(8.000000, 0.000000)" fill="#0072FF">
                <g id="path4_stroke-link" transform="translate(0.790000, 0.000000)">
                    <path d="M0.291649,21.5668 C-0.09819,21.958 -0.09707,22.5912 0.294139,22.981 C0.685351,23.3708 1.318515,23.3697 1.708351,22.9785 L0.291649,21.5668 Z M22.1978,1.00001003 L22.9048,0.292781 C22.7171,0.105082 22.4624,-0.00025 22.1969,1e-05 C21.9314,0.000267 21.6769,0.106088 21.4895,0.29415 L22.1978,1.00001003 Z M43.5925,23.8012 C43.9831,24.1917 44.6162,24.1916 45.0067,23.801 C45.3971,23.4104 45.397,22.7772 45.0064,22.3867 L43.5925,23.8012 Z M1.708351,22.9785 L22.9062,1.705871 L21.4895,0.29415 L0.291649,21.5668 L1.708351,22.9785 Z M21.4909,1.707239 L43.5925,23.8012 L45.0064,22.3867 L22.9048,0.292781 L21.4909,1.707239 Z" id="path4_stroke"></path>
                </g>
            </g>
            <g id="Vector" transform="translate(36.000000, 0.000000)" fill="#0072FF">
                <g id="path5_stroke-link" transform="translate(0.320000, 0.000000)">
                    <path d="M0.288222,6.3755 C-0.0997,6.7686 -0.09551,7.40175 0.297598,7.78968 C0.690702,8.17761 1.323853,8.17341 1.71178,7.7803 L0.288222,6.3755 Z M6.99784,1.00001003 L7.70482,0.292781 C7.51646,0.104486 7.26077,-0.00089 6.99444,1.6e-05 C6.7281,0.000922 6.47313,0.108034 6.28606,0.297606 L6.99784,1.00001003 Z M28.3925,23.8012 C28.7831,24.1917 29.4162,24.1916 29.8067,23.801 C30.1971,23.4104 30.197,22.7772 29.8064,22.3867 L28.3925,23.8012 Z M1.71178,7.7803 L7.70962,1.702414 L6.28606,0.297606 L0.288222,6.3755 L1.71178,7.7803 Z M6.29085,1.707239 L28.3925,23.8012 L29.8064,22.3867 L7.70482,0.292781 L6.29085,1.707239 Z" id="path5_stroke"></path>
                </g>
            </g>
            <g id="Vector" transform="translate(0.000000, 15.000000)" fill="#FFFFFF">
                <g id="path6_stroke-link" transform="translate(0.000000, 0.900000)">
                    <path d="M0,-1.00261e-05 C0,4.50257 3.65995,8.06349 8.06595,8.06349 L8.06595,6.06349 C4.74869,6.06349 2,3.38224 2,-1.00261e-05 L0,-1.00261e-05 Z M8.06595,8.06349 L68.866,8.06349 L68.866,6.06349 L8.06595,6.06349 L8.06595,8.06349 Z" id="path6_stroke"></path>
                </g>
            </g>
        </g>
    </g>
</svg>