<svg width="174" height="158" viewBox="0 0 174 158" fill="none" xmlns="http://www.w3.org/2000/svg">
<path d="M0 106.105L6.70722 11.2558L20.7442 0L35.1362 11.3623L41.8435 106.46" transform="translate(69.7202 50.4961)" stroke="#92A4BA" stroke-width="2" stroke-miterlimit="10"/>
<path d="M0 0V106.504" transform="translate(90.4648 50.4961)" stroke="#92A4BA" stroke-width="2" stroke-miterlimit="10"/>
<path d="M0 0H166" transform="translate(8 157)" stroke="#92A4BA" stroke-width="2"/>
<path d="M0 0H33.618" transform="translate(6.21191 40.7656) scale(0.997835 1.00216) rotate(45)" stroke="#0072FF" stroke-width="2"/>
<path d="M0 0L9.20493 9.20493L0 18.4099" transform="translate(30.4971 51.543) scale(0.997835 1.00216) rotate(45)" stroke="#0072FF" stroke-width="2"/>
<path d="M0 0H33.618" transform="translate(36.2119 6.80664) scale(0.997835 1.00216) rotate(45)" stroke="#0072FF" stroke-width="2"/>
<path d="M0 0L9.20493 9.20493L0 18.4099" transform="translate(60.4971 17.584) scale(0.997835 1.00216) rotate(45)" stroke="#0072FF" stroke-width="2"/>
<path d="M32.5153 0C12.8466 13.8741 0 36.7733 0 62.6729C0 88.5725 12.8466 111.472 32.5153 125.346" transform="translate(2.61133 88.9609) scale(0.997886 -1.00211) rotate(-45)" stroke="#0072FF" stroke-width="2"/>
</svg>
