<svg width="190" height="119" viewBox="0 0 190 119" fill="none" xmlns="http://www.w3.org/2000/svg">
<path d="M0 0H134" transform="translate(26 61)" stroke="#92A4BA" stroke-dasharray="5 5"/>
<path d="M0 32C49.6 32 67.3333 10.6667 70 0" transform="translate(94 65)" stroke="#92A4BA" stroke-dasharray="5 5"/>
<path d="M0 0L10.5 10.5" transform="translate(90 56)" stroke="#EA0D00" stroke-width="2"/>
<path d="M0 0L10.5 10.5" transform="translate(100.5 56) rotate(90)" stroke="#EA0D00" stroke-width="2"/>
<path d="M0 0L10.5 10.5" transform="translate(129 87)" stroke="#EA0D00" stroke-width="2"/>
<path d="M0 0L10.5 10.5" transform="translate(139.5 87) rotate(90)" stroke="#EA0D00" stroke-width="2"/>
<path d="M147 41V40C147 17.9086 129.091 0 107 0H40C17.9086 0 0 17.9086 0 40V41V41C0 61.9868 17.0132 79 38 79H74" transform="translate(22 17)" stroke="#0072FF" stroke-width="2"/>
<path d="M44 4H2C0.899997 4 -3.05176e-06 3.1 -3.05176e-06 2C-3.05176e-06 0.900003 0.899997 3.05176e-06 2 3.05176e-06H43.9C45 3.05176e-06 45.9 0.900003 45.9 2C46 3.1 45.1 4 44 4Z" transform="translate(143 77.3008)" fill="white" stroke="#92A4BA" stroke-width="2" stroke-miterlimit="10"/>
<path d="M34.9 29.6H5.3C2.4 29.6 -1.52588e-06 27.2 -1.52588e-06 24.3V5.3C-1.52588e-06 2.4 2.4 0 5.3 0H34.9C37.8 0 40.2 2.4 40.2 5.3V24.3C40.3 27.2 37.9 29.6 34.9 29.6Z" transform="translate(145.9 43)" fill="white" stroke="#92A4BA" stroke-width="2" stroke-miterlimit="10"/>
<path d="M44 4H2C0.899997 4 -3.05176e-06 3.1 -3.05176e-06 2C-3.05176e-06 0.900003 0.899997 3.05176e-06 2 3.05176e-06H43.9C45 3.05176e-06 45.9 0.900003 45.9 2C46 3.1 45.1 4 44 4Z" transform="translate(1 77.3008)" fill="white" stroke="#92A4BA" stroke-width="2" stroke-miterlimit="10"/>
<path d="M34.9 29.6H5.3C2.4 29.6 -1.52588e-06 27.2 -1.52588e-06 24.3V5.3C-1.52588e-06 2.4 2.4 0 5.3 0H34.9C37.8 0 40.2 2.4 40.2 5.3V24.3C40.3 27.2 37.9 29.6 34.9 29.6Z" transform="translate(3.8999 43)" fill="white" stroke="#92A4BA" stroke-width="2" stroke-miterlimit="10"/>
<path d="M44 4H2C0.899997 4 -3.05176e-06 3.1 -3.05176e-06 2C-3.05176e-06 0.900003 0.899997 3.05176e-06 2 3.05176e-06H43.9C45 3.05176e-06 45.9 0.900003 45.9 2C46 3.1 45.1 4 44 4Z" transform="translate(72 113.301)" fill="white" stroke="#92A4BA" stroke-width="2" stroke-miterlimit="10"/>
<path d="M34.9 29.6H5.3C2.4 29.6 -1.52588e-06 27.2 -1.52588e-06 24.3V5.3C-1.52588e-06 2.4 2.4 0 5.3 0H34.9C37.8 0 40.2 2.4 40.2 5.3V24.3C40.3 27.2 37.9 29.6 34.9 29.6Z" transform="translate(74.8999 79)" fill="white" stroke="#92A4BA" stroke-width="2" stroke-miterlimit="10"/>
<path d="M44 4H2C0.899997 4 -3.05176e-06 3.1 -3.05176e-06 2C-3.05176e-06 0.900003 0.899997 3.05176e-06 2 3.05176e-06H43.9C45 3.05176e-06 45.9 0.900003 45.9 2C46 3.1 45.1 4 44 4Z" transform="translate(72 35.3008)" fill="white" stroke="#92A4BA" stroke-width="2" stroke-miterlimit="10"/>
<path d="M34.9 29.6H5.3C2.4 29.6 -1.52588e-06 27.2 -1.52588e-06 24.3V5.3C-1.52588e-06 2.4 2.4 0 5.3 0H34.9C37.8 0 40.2 2.4 40.2 5.3V24.3C40.3 27.2 37.9 29.6 34.9 29.6Z" transform="translate(74.8999 1)" fill="white" stroke="#92A4BA" stroke-width="2" stroke-miterlimit="10"/>
</svg>
