<?xml version="1.0" encoding="UTF-8"?>
<svg width="100px" height="100px" viewBox="0 0 100 100" version="1.1" xmlns="http://www.w3.org/2000/svg" xmlns:xlink="http://www.w3.org/1999/xlink">
    <!-- Generator: Sketch 49.1 (51147) - http://www.bohemiancoding.com/sketch -->
    <title>icBBS</title>
    <desc>Created with Sketch.</desc>
    <defs>
        <polygon id="path-1" points="0.57 0.046 14.675 0.046 14.675 17.5077 0.57 17.5077"></polygon>
        <polygon id="path-3" points="0 0.847 78.9979 0.847 78.9979 32 0 32"></polygon>
    </defs>
    <g id="icBBS" stroke="none" stroke-width="1" fill="none" fill-rule="evenodd">
        <g id="Page-1" transform="translate(11.000000, 24.000000)">
            <path d="M44.364,34.4925 L40.763,42.4155 L39.307,42.4155 L43.061,34.1085 C43.598,34.1085 43.981,34.2625 44.364,34.4925 Z M38.082,29.8015 L32.565,42.0315 C31.186,41.3395 30.19,39.8775 30.19,38.1845 C30.19,35.8775 32.029,33.9545 34.251,33.9545 C34.251,31.8015 35.936,29.9545 38.082,29.8015 Z M42.449,33.9545 L38.618,42.3395 L37.086,42.3395 L41.913,31.8015 C42.218,32.4925 42.449,33.1845 42.449,33.9545 Z M43.904,42.1075 L46.356,36.7235 C46.51,37.1845 46.586,37.6465 46.586,38.1845 C46.586,39.9545 45.437,41.4925 43.904,42.1075 Z M44.977,34.8775 C45.36,35.1845 45.59,35.4925 45.896,35.8005 L42.908,42.4155 C42.756,42.4155 42.602,42.4925 42.525,42.4925 L41.606,42.4925 L44.977,34.8775 Z M38.388,29.8015 C39.001,29.8015 39.537,29.9545 39.997,30.1845 L34.48,42.4155 L34.251,42.4155 C33.715,42.4155 33.255,42.2625 32.795,42.1075 L38.388,29.8015 Z M41.606,31.3395 L36.55,42.3395 L34.864,42.3395 L40.303,30.2625 C40.84,30.5695 41.222,30.9545 41.606,31.3395 Z" id="Fill-1" fill="#0072FF"></path>
            <path d="M67.7331,34.6312 L65.2051,40.1692 L64.2101,40.1692 L66.8141,34.4012 C67.1971,34.4012 67.5041,34.4772 67.7331,34.6312 Z M63.3671,31.4012 L59.5361,39.9392 C58.5401,39.4772 57.8501,38.4772 57.8501,37.3232 C57.8501,35.7082 59.1521,34.4012 60.6851,34.4012 C60.6851,32.7842 61.9111,31.4772 63.3671,31.4012 Z M66.4311,34.3232 L63.7501,40.1692 L62.6761,40.1692 L66.0471,32.7842 C66.2781,33.2462 66.4311,33.7842 66.4311,34.3232 Z M67.4271,39.9392 L69.1131,36.1692 C69.1891,36.4772 69.2661,36.8612 69.2661,37.1692 C69.3421,38.4772 68.5001,39.5542 67.4271,39.9392 Z M68.1931,34.9392 C68.4231,35.1692 68.6531,35.3232 68.8061,35.6312 L66.7381,40.2462 L66.4311,40.2462 L65.7421,40.2462 L68.1931,34.9392 Z M63.5961,31.4012 C63.9791,31.4012 64.3621,31.4772 64.7461,31.6312 L60.9151,40.1692 L60.7611,40.1692 C60.3791,40.1692 60.0721,40.0922 59.7651,39.9392 L63.5961,31.4012 Z M65.8181,32.4772 L62.2941,40.1692 L61.1441,40.1692 L64.9751,31.7842 C65.2821,31.9392 65.5881,32.1692 65.8181,32.4772 Z" id="Fill-3" fill="#0072FF"></path>
            <path d="M17.7038,34.6312 L15.1758,40.1692 L14.1798,40.1692 L16.7838,34.4012 C17.1678,34.4012 17.3968,34.4772 17.7038,34.6312 Z M13.3368,31.4012 L9.5058,39.9392 C8.5098,39.4772 7.8198,38.4772 7.8198,37.3232 C7.8198,35.7082 9.1228,34.4012 10.6548,34.4012 C10.6548,32.7842 11.8048,31.4772 13.3368,31.4012 Z M16.4008,34.3232 L13.7198,40.1692 L12.6468,40.1692 L16.0178,32.7842 C16.2478,33.2462 16.4008,33.7842 16.4008,34.3232 Z M17.3968,39.9392 L19.0828,36.1692 C19.1588,36.4772 19.2358,36.8612 19.2358,37.1692 C19.2358,38.4772 18.4698,39.5542 17.3968,39.9392 Z M18.1628,34.9392 C18.3928,35.1692 18.6228,35.3232 18.7758,35.6312 L16.7078,40.2462 L16.4008,40.2462 L15.7118,40.2462 L18.1628,34.9392 Z M13.5658,31.4012 C13.9488,31.4012 14.3328,31.4772 14.7158,31.6312 L10.8848,40.1692 L10.7308,40.1692 C10.3488,40.1692 10.0418,40.0922 9.7348,39.9392 L13.5658,31.4012 Z M15.7878,32.4772 L12.2638,40.1692 L11.1148,40.1692 L14.9448,31.7842 C15.2518,31.9392 15.5578,32.1692 15.7878,32.4772 Z" id="Fill-5" fill="#0072FF"></path>
            <g id="Group-9" transform="translate(31.000000, 0.953800)">
                <mask id="mask-2" fill="white">
                    <use xlink:href="#path-1"></use>
                </mask>
                <g id="Clip-8"></g>
                <path d="M2.57,7.1227 C2.57,4.2867 4.807,2.0457 7.623,2.0457 C10.438,2.0457 12.675,4.2867 12.675,7.1227 L12.675,10.4307 C12.675,13.2587 10.37,15.5077 7.623,15.5077 C4.807,15.5077 2.57,13.2667 2.57,10.4307 L2.57,7.1227 Z M7.623,17.5077 C11.465,17.5077 14.675,14.3717 14.675,10.4307 L14.675,7.1227 C14.675,3.1897 11.549,0.0457 7.623,0.0457 C3.696,0.0457 0.57,3.1897 0.57,7.1227 L0.57,10.4307 C0.57,14.3637 3.696,17.5077 7.623,17.5077 Z" id="Fill-7" fill="#92A4BA" mask="url(#mask-2)"></path>
            </g>
            <path d="M11.4997,11.5839 C11.4997,9.1319 13.4317,7.1989 15.8627,7.1989 L16.3987,7.1989 C18.8317,7.1989 20.7627,9.1319 20.7627,11.5839 L20.7627,14.3529 C20.7627,16.7279 18.7547,18.7369 16.3987,18.7369 L15.8627,18.7369 C13.4317,18.7369 11.4997,16.8039 11.4997,14.3529 L11.4997,11.5839 Z M15.8627,20.7369 L16.3987,20.7369 C19.8667,20.7369 22.7627,17.8249 22.7627,14.3529 L22.7627,11.5839 C22.7627,8.0349 19.9437,5.1989 16.3987,5.1989 L15.8627,5.1989 C12.3187,5.1989 9.4997,8.0349 9.4997,11.5839 L9.4997,14.3529 C9.4997,17.9009 12.3187,20.7369 15.8627,20.7369 Z" id="Fill-10" fill="#92A4BA"></path>
            <path d="M58.2399,11.5839 C58.2399,9.1319 60.1719,7.1989 62.6029,7.1989 L63.1389,7.1989 C65.5719,7.1989 67.5029,9.1319 67.5029,11.5839 L67.5029,14.3529 C67.5029,16.8039 65.5719,18.7369 63.1389,18.7369 L62.6029,18.7369 C60.1799,18.7369 58.2399,16.7369 58.2399,14.3529 L58.2399,11.5839 Z M62.6029,20.7369 L63.1389,20.7369 C66.6829,20.7369 69.5029,17.9009 69.5029,14.3529 L69.5029,11.5839 C69.5029,8.0349 66.6829,5.1989 63.1389,5.1989 L62.6029,5.1989 C59.0589,5.1989 56.2399,8.0349 56.2399,11.5839 L56.2399,14.3529 C56.2399,17.8149 59.0499,20.7369 62.6029,20.7369 Z" id="Fill-12" fill="#92A4BA"></path>
            <g id="Group-16" transform="translate(0.000000, 20.953800)">
                <mask id="mask-4" fill="white">
                    <use xlink:href="#path-3"></use>
                </mask>
                <g id="Clip-15"></g>
                <path d="M73.1589,4.152 L72.8639,5.11 L72.8639,5.107 L73.1589,4.152 L73.1469,4.148 C70.4709,3.358 66.9279,2.646 62.9039,2.646 C58.4399,2.646 56.0529,3.121 53.4459,3.835 C53.2849,3.879 53.1529,3.968 53.0389,4.075 C52.1469,3.283 51.0969,2.682 49.9309,2.347 L49.9249,2.345 C47.0909,1.555 43.3219,0.847 38.5469,0.847 C34.2249,0.847 30.4489,1.556 27.6029,2.429 L27.5989,2.43 C26.6869,2.714 25.8459,3.152 25.0939,3.715 C22.6579,3.07 20.2949,2.646 16.0939,2.646 C12.0699,2.646 8.5259,3.358 5.8499,4.148 L5.8389,4.152 C2.3879,5.217 -0.0001,8.638 -0.0001,12.569 L-0.0001,28.722 C-0.0001,29.274 0.4479,29.722 0.9999,29.722 C1.5529,29.722 1.9999,29.274 1.9999,28.722 L1.9999,12.569 C1.9999,9.423 3.9009,6.844 6.4269,6.064 C8.9599,5.316 12.3059,4.646 16.0939,4.646 C19.4299,4.646 21.5059,4.921 23.4239,5.36 C22.1399,7.002 21.3799,9.116 21.3799,11.385 L21.3799,31 C21.3799,31.552 21.8279,32 22.3799,32 C22.9319,32 23.3799,31.552 23.3799,31 L23.3799,11.385 C23.3799,8.009 25.4349,5.198 28.1919,4.34 C30.8629,3.522 34.4399,2.847 38.5469,2.847 C43.1149,2.847 46.6999,3.523 49.3819,4.27 C52.1099,5.054 54.1719,7.922 54.1719,11.231 L54.1719,30.923 C54.1719,31.475 54.6199,31.923 55.1719,31.923 C55.7239,31.923 56.1719,31.475 56.1719,30.923 L56.1719,11.231 C56.1719,9.187 55.5329,7.226 54.4299,5.644 C56.7069,5.042 58.8999,4.646 62.9039,4.646 C66.6909,4.646 70.0379,5.316 72.5709,6.064 C75.0959,6.845 76.9979,9.423 76.9979,12.569 L76.9979,28.722 C76.9979,29.274 77.4449,29.722 77.9979,29.722 C78.5499,29.722 78.9979,29.274 78.9979,28.722 L78.9979,12.569 C78.9979,8.638 76.6089,5.217 73.1589,4.152" id="Fill-14" fill="#92A4BA" mask="url(#mask-4)"></path>
            </g>
        </g>
    </g>
</svg>