<?xml version="1.0" encoding="UTF-8"?>
<svg width="100px" height="100px" viewBox="0 0 100 100" version="1.1" xmlns="http://www.w3.org/2000/svg" xmlns:xlink="http://www.w3.org/1999/xlink">
    <!-- Generator: Sketch 49.1 (51147) - http://www.bohemiancoding.com/sketch -->
    <title>icCoinJoin</title>
    <desc>Created with Sketch.</desc>
    <defs>
        <polygon id="path-1" points="0.3301 0.3539 37.988 0.3539 37.988 37.9999 0.3301 37.9999"></polygon>
    </defs>
    <g id="icCoinJoin" stroke="none" stroke-width="1" fill="none" fill-rule="evenodd">
        <g id="Page-1" transform="translate(11.000000, 14.000000)">
            <path d="M38.3837,62.4047 C23.7057,62.4047 11.7707,50.4727 11.7707,35.8007 L10.7707,35.8007 C10.7707,51.0257 23.1547,63.4047 38.3837,63.4047 L38.3837,62.4047 Z M44.5067,61.6807 C42.5777,62.1627 40.4827,62.4047 38.3837,62.4047 L38.3837,63.4047 C40.5567,63.4047 42.7347,63.1547 44.7487,62.6507 L44.5067,61.6807 Z M11.7707,35.8007 C11.7707,35.5247 11.5457,35.3007 11.2707,35.3007 C10.9937,35.3007 10.7707,35.5247 10.7707,35.8007 L11.7707,35.8007 Z M44.7487,62.6507 C45.0177,62.5837 45.1797,62.3117 45.1127,62.0447 C45.0457,61.7767 44.7747,61.6137 44.5067,61.6807 L44.7487,62.6507 Z" id="Fill-1" fill="#0072FF"></path>
            <path d="M62.8202,25.2953 C64.1922,28.5233 64.9992,32.1523 64.9992,35.8593 L65.9992,35.8593 C65.9992,32.0093 65.1622,28.2473 63.7402,24.9043 L62.8202,25.2953 Z M64.9992,35.8593 C64.9992,36.1353 65.2222,36.3583 65.4992,36.3583 C65.7742,36.3583 65.9992,36.1353 65.9992,35.8593 L64.9992,35.8593 Z M63.7402,24.9043 C63.6322,24.6493 63.3392,24.5313 63.0852,24.6393 C62.8302,24.7473 62.7122,25.0413 62.8202,25.2953 L63.7402,24.9043 Z" id="Fill-3" fill="#0072FF"></path>
            <path d="M38.3856,9.3007 C43.0636,9.3007 47.4166,10.5097 51.2066,12.6057 L51.6916,11.7307 C47.7586,9.5557 43.2386,8.3007 38.3856,8.3007 L38.3856,9.3007 Z M33.6986,9.7057 C35.2416,9.4617 36.7766,9.3007 38.3856,9.3007 L38.3856,8.3007 C36.7086,8.3007 35.1196,8.4687 33.5416,8.7177 L33.6986,9.7057 Z M51.2066,12.6057 C51.4486,12.7397 51.7526,12.6517 51.8866,12.4097 C52.0206,12.1687 51.9326,11.8637 51.6916,11.7307 L51.2066,12.6057 Z M33.5416,8.7177 C33.2696,8.7607 33.0826,9.0167 33.1256,9.2897 C33.1686,9.5627 33.4256,9.7487 33.6986,9.7057 L33.5416,8.7177 Z" id="Fill-5" fill="#0072FF"></path>
            <path d="M18.829,36.2455 C9.534,36.2455 2,28.7135 2,19.4225 C2,10.1315 9.534,2.5995 18.829,2.5995 C28.124,2.5995 35.658,10.1315 35.658,19.4225 C35.658,28.7135 28.124,36.2455 18.829,36.2455 M18.829,0.5995 C8.431,0.5995 0,9.0265 0,19.4225 C0,29.8185 8.431,38.2455 18.829,38.2455 C29.227,38.2455 37.658,29.8185 37.658,19.4225 C37.658,9.0265 29.227,0.5995 18.829,0.5995" id="Fill-7" fill="#92A4BA"></path>
            <path d="M25.7303,16.2392 L21.6223,25.3562 L19.9783,25.3562 L24.3343,15.7462 C24.8263,15.8282 25.3193,16.0742 25.7303,16.2392 Z M18.5003,10.9002 L12.0913,24.9452 C10.4483,24.2062 9.3793,22.4812 9.3793,20.5922 C9.3793,17.9642 11.5163,15.7462 14.1453,15.7462 C14.0633,13.2002 16.0353,11.0652 18.5003,10.9002 Z M23.5933,15.7462 L19.1573,25.3562 L17.3493,25.3562 L22.8543,13.2002 C23.3473,14.0212 23.5933,14.8432 23.5933,15.7462 Z M25.2373,25.1092 L28.1133,18.8672 C28.2773,19.3602 28.3593,19.9352 28.3593,20.5102 C28.3593,22.6452 27.0443,24.3702 25.2373,25.1092 Z M26.4693,16.7322 C26.8803,17.0602 27.2093,17.3892 27.5383,17.8002 L24.0863,25.3562 C23.9223,25.3562 23.7583,25.4382 23.6753,25.4382 L22.6083,25.4382 L26.4693,16.7322 Z M18.8293,10.9002 C19.4863,10.9002 20.1433,11.0652 20.7183,11.3112 L14.3093,25.4382 L14.0633,25.4382 C13.4883,25.4382 12.9133,25.2742 12.4193,25.1092 L18.8293,10.9002 Z M22.5263,12.7072 L16.6923,25.3562 L14.7203,25.3562 L21.0463,11.4752 C21.7043,11.8042 22.1973,12.2152 22.5263,12.7072 Z" id="Fill-9" fill="#0072FF"></path>
            <g id="Group-13" transform="translate(41.000000, 33.646000)">
                <mask id="mask-2" fill="white">
                    <use xlink:href="#path-1"></use>
                </mask>
                <g id="Clip-12"></g>
                <path d="M19.1591,35.9999 C9.8641,35.9999 2.3301,28.4679 2.3301,19.1769 C2.3301,9.8869 9.8641,2.3539 19.1591,2.3539 C28.4541,2.3539 35.9881,9.8869 35.9881,19.1769 C35.9881,28.4679 28.4541,35.9999 19.1591,35.9999 M19.1591,0.3539 C8.7611,0.3539 0.3301,8.7809 0.3301,19.1769 C0.3301,29.5729 8.7611,37.9999 19.1591,37.9999 C29.5581,37.9999 37.9881,29.5729 37.9881,19.1769 C37.9881,8.7809 29.5581,0.3539 19.1591,0.3539" id="Fill-11" fill="#92A4BA" mask="url(#mask-2)"></path>
            </g>
            <path d="M67.0604,49.8217 L62.9524,58.9377 L61.3084,58.9377 L65.6644,49.3287 C66.1564,49.4107 66.6494,49.5747 67.0604,49.8217 Z M59.8304,44.4007 L53.4214,58.4457 C51.7784,57.7067 50.7094,55.9807 50.7094,54.0927 C50.7094,51.4647 52.8464,49.2467 55.4754,49.2467 C55.3934,46.7007 57.3654,44.5647 59.8304,44.4007 Z M64.9234,49.2467 L60.4874,58.9377 L58.6794,58.9377 L64.1844,46.7827 C64.6774,47.5217 64.9234,48.3427 64.9234,49.2467 Z M66.5674,58.6097 L69.4434,52.3677 C69.6074,52.8597 69.6894,53.4347 69.6894,54.0097 C69.6894,56.1457 68.3744,57.9527 66.5674,58.6097 Z M67.7994,50.2317 C68.2104,50.5597 68.5394,50.8887 68.8684,51.2997 L65.4164,58.8557 C65.2524,58.8557 65.0884,58.9377 65.0054,58.9377 L63.9384,58.9377 L67.7994,50.2317 Z M60.1594,44.4007 C60.8164,44.4007 61.4734,44.5647 62.0484,44.8107 L55.6394,58.9377 L55.3934,58.9377 C54.8184,58.9377 54.2434,58.7737 53.7494,58.6097 L60.1594,44.4007 Z M63.8564,46.2077 L58.0224,58.8557 L56.1324,58.8557 L62.4584,44.9747 C63.0344,45.3037 63.4454,45.7147 63.8564,46.2077 Z" id="Fill-14" fill="#0072FF"></path>
            <path d="M60.6522,24.4452 L58.2692,24.4452 C55.0422,24.4452 52.4502,21.8542 52.4502,18.6282 L52.4502,12.4002 L66.4712,12.4002 L66.4712,18.6282 C66.4712,21.8462 63.8052,24.4452 60.6522,24.4452 Z M55.4102,6.0102 C55.4102,3.8412 57.1912,2.0002 59.4222,2.0002 C61.5912,2.0002 63.4332,3.7802 63.4332,6.0102 L63.4332,10.4002 L55.4102,10.4002 L55.4102,6.0102 Z M67.4712,10.4002 L65.4332,10.4002 L65.4332,6.0102 C65.4332,2.6542 62.6742,0.0002 59.4222,0.0002 C56.0652,0.0002 53.4102,2.7582 53.4102,6.0102 L53.4102,10.4002 L51.4502,10.4002 L50.4502,10.4002 L50.4502,11.4002 L50.4502,18.6282 C50.4502,22.9592 53.9382,26.4452 58.2692,26.4452 L60.6522,26.4452 C64.8932,26.4452 68.4712,22.9662 68.4712,18.6282 L68.4712,11.4002 L68.4712,10.4002 L67.4712,10.4002 Z" id="Fill-16" fill="#92A4BA"></path>
        </g>
    </g>
</svg>