<?xml version="1.0" encoding="UTF-8"?>
<svg width="100px" height="100px" viewBox="0 0 100 100" version="1.1" xmlns="http://www.w3.org/2000/svg" xmlns:xlink="http://www.w3.org/1999/xlink">
    <!-- Generator: Sketch 49.1 (51147) - http://www.bohemiancoding.com/sketch -->
    <title>icCoinHours</title>
    <desc>Created with Sketch.</desc>
    <defs>
        <polygon id="path-1" points="0 0.0002 80.6345 0.0002 80.6345 68 0 68"></polygon>
    </defs>
    <g id="icCoinHours" stroke="none" stroke-width="1" fill="none" fill-rule="evenodd">
        <g id="Page-1" transform="translate(10.000000, 16.000000)">
            <path d="M48.8945,36.6183 L15.8795,36.6183 L15.8795,13.7103 C15.8795,9.9623 18.9425,6.9003 22.6925,6.9003 L42.0825,6.9003 C45.8325,6.9003 48.8945,9.9623 48.8945,13.7103 L48.8945,36.6183 Z M42.0825,5.9003 L22.6925,5.9003 C18.3905,5.9003 14.8795,9.4093 14.8795,13.7103 L14.8795,37.1183 L14.8795,37.6183 L15.3795,37.6183 L48.8945,37.6183 L49.3945,37.6183 L49.4775,37.6183 L49.4775,37.1183 L49.8945,37.1183 L49.8945,13.7103 C49.8945,9.4093 46.3845,5.9003 42.0825,5.9003 Z" id="Fill-1" fill="#92A4BA"></path>
            <g id="Group-5">
                <mask id="mask-2" fill="white">
                    <use xlink:href="#path-1"></use>
                </mask>
                <g id="Clip-4"></g>
                <path d="M53.9775,66.0002 L10.8705,66.0002 L10.8705,11.5952 C10.8705,6.3162 15.1875,2.0002 20.4685,2.0002 L44.3775,2.0002 C49.6605,2.0002 53.9775,6.3162 53.9775,11.5952 L53.9775,66.0002 Z M78.9495,9.3622 L74.5945,16.1792 C72.1055,19.9612 70.8225,24.4192 70.8225,28.9552 L70.8225,52.8562 C70.8225,54.7682 69.2985,56.2912 67.3855,56.2912 C65.4725,56.2912 63.9495,54.7682 63.9495,52.8562 L63.9495,33.8012 C63.9495,29.2582 60.4425,25.5752 55.9775,25.2742 L55.9775,11.5952 C55.9775,5.2112 50.7635,0.0002 44.3775,0.0002 L20.4685,0.0002 C14.0835,0.0002 8.8705,5.2112 8.8705,11.5952 L8.8705,66.0002 L0.9995,66.0002 C0.4475,66.0002 -0.0005,66.4472 -0.0005,67.0002 C-0.0005,67.5522 0.4475,68.0002 0.9995,68.0002 L63.8545,68.0002 C64.4065,68.0002 64.8545,67.5522 64.8545,67.0002 C64.8545,66.4472 64.4065,66.0002 63.8545,66.0002 L55.9775,66.0002 L55.9775,27.2742 C59.3365,27.5692 61.9495,30.3632 61.9495,33.8012 L61.9495,52.8562 C61.9495,55.8732 64.3695,58.2912 67.3855,58.2912 C70.4025,58.2912 72.8225,55.8732 72.8225,52.8562 L72.8225,28.9552 C72.8225,24.7902 74.0015,20.7112 76.2725,17.2682 L76.2765,17.2622 L76.2805,17.2562 L80.6345,10.4382 L78.9495,9.3622 Z" id="Fill-3" fill="#92A4BA" mask="url(#mask-2)"></path>
            </g>
            <path d="M36.1699,28.4372 C37.3199,29.7512 37.1549,31.8052 35.7589,32.9542 C34.4439,34.1042 32.3909,33.9392 31.2399,32.5442 C30.5829,31.8052 24.9949,23.5092 20.3129,16.6092 C19.4899,15.3772 21.1339,13.8992 22.2019,14.9672 C28.3639,20.7162 35.5129,27.6152 36.1699,28.4372" id="Fill-6" fill="#0072FF"></path>
        </g>
    </g>
</svg>