<?xml version="1.0" encoding="UTF-8"?>
<svg width="100px" height="100px" viewBox="0 0 100 100" version="1.1" xmlns="http://www.w3.org/2000/svg" xmlns:xlink="http://www.w3.org/1999/xlink">
    <!-- Generator: Sketch 49.1 (51147) - http://www.bohemiancoding.com/sketch -->
    <title>icCX</title>
    <desc>Created with Sketch.</desc>
    <defs>
        <polygon id="path-1" points="0 0.0721 73.974 0.0721 73.974 7 0 7"></polygon>
        <polygon id="path-3" points="0 58.6272 73.974 58.6272 73.974 0.0002 0 0.0002"></polygon>
    </defs>
    <g id="icCX" stroke="none" stroke-width="1" fill="none" fill-rule="evenodd">
        <g id="Page-1" transform="translate(13.000000, 21.000000)">
            <path d="M6.9299,7.8993 C6.9299,4.6733 9.6039,2.0003 12.8309,2.0003 L59.6639,2.0003 C62.8919,2.0003 65.5659,4.6733 65.5659,7.8993 L65.5659,38.7813 C65.5659,42.0153 62.9659,44.6813 59.6639,44.6813 L12.8309,44.6813 C9.6039,44.6813 6.9299,42.0073 6.9299,38.7813 L6.9299,7.8993 Z M12.8309,46.6813 L59.6639,46.6813 C64.0849,46.6813 67.5659,43.1053 67.5659,38.7813 L67.5659,7.8993 C67.5659,3.5683 63.9949,0.0003 59.6639,0.0003 L12.8309,0.0003 C8.4999,0.0003 4.9299,3.5683 4.9299,7.8993 L4.9299,38.7813 C4.9299,43.1123 8.4999,46.6813 12.8309,46.6813 Z" id="Fill-1" fill="#92A4BA"></path>
            <g id="Group-5" transform="translate(0.000000, 51.627200)">
                <mask id="mask-2" fill="white">
                    <use xlink:href="#path-1"></use>
                </mask>
                <g id="Clip-4"></g>
                <path d="M70.509,5.0001 L3.465,5.0001 C2.681,5.0001 2,4.3581 2,3.5361 C2,2.7531 2.642,2.0721 3.465,2.0721 L70.509,2.0721 C71.293,2.0721 71.974,2.7141 71.974,3.5361 C71.974,4.3801 71.354,5.0001 70.509,5.0001 M70.509,0.0721 L3.465,0.0721 C1.494,0.0721 0,1.6911 0,3.5361 C0,5.5061 1.62,7.0001 3.465,7.0001 L70.509,7.0001 C72.458,7.0001 73.974,5.4841 73.974,3.5361 C73.974,1.5651 72.354,0.0721 70.509,0.0721" id="Fill-3" fill="#92A4BA" mask="url(#mask-2)"></path>
            </g>
            <mask id="mask-4" fill="white">
                <use xlink:href="#path-3"></use>
            </mask>
            <g id="Clip-7"></g>
            <path d="M16.611,12.1992 L52.433,12.1992 L52.433,11.1992 L16.611,11.1992 L16.611,12.1992 Z M52.433,12.1992 C52.709,12.1992 52.933,11.9752 52.933,11.6992 C52.933,11.4232 52.709,11.1992 52.433,11.1992 L52.433,12.1992 Z M16.611,11.1992 C16.334,11.1992 16.111,11.4232 16.111,11.6992 C16.111,11.9752 16.334,12.1992 16.611,12.1992 L16.611,11.1992 Z" id="Fill-6" fill="#0072FF" mask="url(#mask-4)"></path>
            <path d="M16.611,22.0002 L52.433,22.0002 L52.433,21.0002 L16.611,21.0002 L16.611,22.0002 Z M52.433,22.0002 C52.709,22.0002 52.933,21.7762 52.933,21.5002 C52.933,21.2242 52.709,21.0002 52.433,21.0002 L52.433,22.0002 Z M16.611,21.0002 C16.334,21.0002 16.111,21.2242 16.111,21.5002 C16.111,21.7762 16.334,22.0002 16.611,22.0002 L16.611,21.0002 Z" id="Fill-8" fill="#0072FF" mask="url(#mask-4)"></path>
            <path d="M16.611,31.8012 L37.151,31.8012 L37.151,30.8012 L16.611,30.8012 L16.611,31.8012 Z M37.151,31.8012 C37.427,31.8012 37.651,31.5762 37.651,31.3012 C37.651,31.0252 37.427,30.8002 37.151,30.8002 L37.151,31.8012 Z M16.611,30.8002 C16.334,30.8002 16.111,31.0252 16.111,31.3012 C16.111,31.5762 16.334,31.8012 16.611,31.8012 L16.611,30.8002 Z" id="Fill-9" fill="#0072FF" mask="url(#mask-4)"></path>
            <path d="M43.6174,30.9144 L40.1664,34.3634 L40.8734,35.0704 L44.3244,31.6214 L43.6174,30.9144 Z M40.1714,28.2584 L43.6214,31.6254 L44.3204,30.9094 L40.8694,27.5424 L40.1714,28.2584 Z M40.1664,34.3634 C39.9714,34.5594 39.9714,34.8754 40.1664,35.0704 C40.3614,35.2664 40.6784,35.2664 40.8734,35.0704 L40.1664,34.3634 Z M43.9714,31.2684 L44.3244,31.6214 C44.4194,31.5264 44.4714,31.3984 44.4714,31.2654 C44.4704,31.1314 44.4154,31.0034 44.3204,30.9094 L43.9714,31.2684 Z M40.8694,27.5424 C40.6724,27.3494 40.3544,27.3534 40.1624,27.5514 C39.9694,27.7484 39.9724,28.0654 40.1714,28.2584 L40.8694,27.5424 Z" id="Fill-10" fill="#0072FF" mask="url(#mask-4)"></path>
        </g>
    </g>
</svg>