<?xml version="1.0" encoding="UTF-8"?>
<svg width="100px" height="100px" viewBox="0 0 100 100" version="1.1" xmlns="http://www.w3.org/2000/svg" xmlns:xlink="http://www.w3.org/1999/xlink">
    <!-- Generator: Sketch 49.1 (51147) - http://www.bohemiancoding.com/sketch -->
    <title>icCXO</title>
    <desc>Created with Sketch.</desc>
    <defs>
        <polygon id="path-1" points="0.3895 0.262 59.0815 0.262 59.0815 30.515 0.3895 30.515"></polygon>
        <polygon id="path-3" points="0 0.8609 68.4695 0.8609 68.4695 38.9999 0 38.9999"></polygon>
    </defs>
    <g id="icCXO" stroke="none" stroke-width="1" fill="none" fill-rule="evenodd">
        <g id="Page-1" transform="translate(11.000000, 19.000000)">
            <g id="Group-3" transform="translate(19.000000, 0.738400)">
                <mask id="mask-2" fill="white">
                    <use xlink:href="#path-1"></use>
                </mask>
                <g id="Clip-2"></g>
                <path d="M48.3045,8.968 C46.7585,8.968 45.2705,9.303 43.9515,9.879 C41.7715,4.216 36.2545,0.261 29.8185,0.261 C22.5555,0.261 16.5045,5.339 15.0375,12.122 C13.6175,11.296 11.9855,10.775 10.1815,10.775 C4.7825,10.775 0.3895,15.164 0.3895,20.563 C0.3895,24.867 3.1405,28.43 6.8795,29.798 C7.3985,29.988 7.9725,29.721 8.1625,29.202 C8.3525,28.683 8.0855,28.109 7.5675,27.919 C4.5695,26.823 2.3895,23.979 2.3895,20.563 C2.3895,16.27 5.8855,12.775 10.1815,12.775 C12.0485,12.775 13.7265,13.49 15.1495,14.613 C15.4355,14.839 15.8215,14.891 16.1575,14.749 C16.4925,14.608 16.7245,14.295 16.7625,13.932 C17.4495,7.377 23.0185,2.261 29.8185,2.261 C35.7825,2.261 40.8155,6.157 42.4155,11.566 C42.5035,11.861 42.7215,12.099 43.0075,12.212 C43.2935,12.325 43.6165,12.3 43.8815,12.144 C45.1235,11.413 46.6745,10.968 48.3045,10.968 C53.1755,10.968 57.0815,14.873 57.0815,19.742 C57.0815,24.61 53.1755,28.515 48.3045,28.515 L30.9685,28.515 C30.4155,28.515 29.9685,28.963 29.9685,29.515 C29.9685,30.068 30.4155,30.515 30.9685,30.515 L48.3045,30.515 C54.2795,30.515 59.0815,25.715 59.0815,19.742 C59.0815,13.768 54.2795,8.968 48.3045,8.968" id="Fill-1" fill="#0072FF" mask="url(#mask-2)"></path>
            </g>
            <g id="Group-6" transform="translate(0.000000, 23.738400)">
                <mask id="mask-4" fill="white">
                    <use xlink:href="#path-3"></use>
                </mask>
                <g id="Clip-5"></g>
                <path d="M59.5135,36.9299 L59.5135,36.9179 L58.5135,36.9179 L14.3105,36.9179 C7.5455,36.9179 1.9995,31.4479 1.9995,24.6129 C1.9995,17.8509 7.4715,12.3069 14.3105,12.3069 C16.5885,12.3069 18.6345,12.9109 20.4615,13.9779 L21.4515,14.5549 L21.8895,13.4949 C24.4535,7.2819 30.5895,2.8609 37.7265,2.8609 C47.1185,2.8609 54.8025,10.4659 54.8025,19.9309 L54.8025,19.9319 L54.8025,19.9329 L54.8025,19.9339 L54.8025,19.9349 L54.8025,19.9359 L54.8025,19.9369 L54.8025,19.9379 L54.8025,19.9389 L54.8025,19.9399 L54.8025,19.9409 L54.8025,19.9419 L54.8025,19.9429 L54.8025,19.9439 L54.8025,19.9449 L54.8025,19.9459 L54.8025,19.9469 L54.8025,19.9479 L54.8025,19.9489 L54.8025,19.9499 L54.8025,19.9509 L54.8025,19.9519 L54.8025,19.9529 L54.8025,19.9539 L54.8025,19.9549 L54.8025,19.9559 L54.8025,19.9569 L54.8025,19.9579 L54.8025,19.9589 L54.8025,19.9599 L54.8025,19.9609 L54.8025,19.9619 L54.8025,19.9629 L54.8025,19.9639 L54.8025,19.9649 L54.8025,19.9659 L54.8025,19.9669 L54.8025,19.9689 L54.8025,19.9699 L54.8025,19.9709 L54.8025,19.9719 L54.8025,19.9729 L54.8025,19.9739 L54.8025,19.9749 L54.8025,19.9759 L54.8025,19.9769 L54.8025,19.9779 L54.8025,19.9789 L54.8025,19.9799 L54.8025,19.9809 L54.8025,19.9819 L54.8025,19.9829 L54.8025,19.9839 L54.8025,19.9859 L54.8025,19.9869 L54.8025,19.9879 L54.8025,19.9889 L54.8025,19.9899 L54.8025,19.9909 L54.8025,19.9919 L54.8025,19.9929 L54.8025,19.9939 L54.8025,19.9949 L54.8025,19.9959 L54.8025,19.9979 L54.8025,19.9989 L54.8025,19.9999 L54.8025,20.0009 L54.8025,20.0019 L54.8025,20.0029 L54.8025,20.0039 L54.8025,20.0049 L54.8025,20.0059 L54.8025,20.0079 L54.8025,20.0089 L54.8025,20.0099 L54.8025,20.0109 L54.8025,20.0119 L54.8025,20.0129 L54.8025,20.0139 L54.8025,20.0149 L54.8025,20.0159 L54.8025,20.0179 L54.8025,20.0189 L54.8025,20.0199 L54.8025,20.0209 L54.8025,20.0219 L54.8025,20.0229 L54.8025,20.0239 L54.8025,20.0249 L54.8025,20.0269 L54.8025,20.0279 L54.8025,20.0289 L54.8025,20.0299 L54.8025,20.0309 L54.8025,20.0319 L54.8025,20.0329 L54.8025,20.0339 L54.8025,20.0349 L54.8025,20.0359 L54.8025,20.0369 L54.8025,20.0379 L54.8025,20.0389 L54.8025,20.0399 L54.8025,20.0409 L54.8025,20.0429 L54.8025,20.0439 L54.8025,20.0449 L54.8025,20.0459 L54.8025,20.0469 L54.8025,20.0479 L54.8025,20.0499 L54.8025,20.0509 L54.8025,20.0519 L54.8025,20.0529 L54.8025,20.0539 L54.8025,20.0549 L54.8025,20.0569 L54.8025,20.0579 L54.8025,20.0589 L54.8025,20.0599 L54.8025,20.0609 L54.8025,20.0619 L54.8025,20.0629 L54.8025,20.0649 L54.8025,20.0659 L54.8025,20.0669 L54.8025,20.0679 L54.8025,20.0689 L54.8025,20.0709 L54.8025,20.0719 L54.8025,20.0729 L54.8025,20.0739 L54.8025,20.0749 L54.8025,20.0759 L54.8025,20.0769 L54.8025,20.0779 L54.8025,20.0789 L54.8025,20.0799 L54.8025,20.0809 L54.8025,20.0819 L54.8025,20.0839 L54.8025,20.0849 L54.8025,20.0859 L54.8025,20.0869 L54.8025,20.0879 L54.8025,20.0899 L54.8025,20.0909 L54.8025,20.0919 L54.8025,20.0929 L54.8025,20.0939 L54.8025,20.0959 L54.8025,20.0969 L54.8025,20.0979 L54.8025,20.0989 L54.8025,20.0999 L54.8025,20.1019 L54.8025,20.1029 L54.8025,20.1039 L54.8025,20.1049 L54.8025,20.1059 L54.8025,20.1079 L54.8025,20.1089 L54.8025,20.1099 L54.8025,20.1109 L54.8025,20.1119 L54.8025,20.1129 L54.8025,20.1149 L54.8025,20.1159 L54.8025,20.1169 L54.8025,20.1179 L54.8025,20.1189 L54.8025,20.1199 L54.8025,20.1209 L54.8025,20.1219 L54.8025,20.1229 L54.8025,20.1249 L54.8025,20.1259 L54.8025,20.1269 L54.8025,20.1279 L54.8025,20.1289 L54.8025,20.1309 L54.8025,20.1319 L54.8025,20.1329 L54.8025,20.1339 L54.8025,20.1359 L54.8025,20.1369 L54.8025,20.1379 L54.8025,20.1389 L54.8025,20.1399 L54.8025,20.1419 L54.8025,20.1429 L54.8025,20.1439 L54.8025,20.1449 L54.8025,20.1459 L54.8025,20.1479 L54.8025,20.1489 L54.8025,20.1499 L54.8025,20.1509 L54.8025,20.1529 L54.8025,20.1539 L54.8025,20.1549 L54.8025,20.1559 L54.8025,20.1569 L54.8025,20.1589 L54.8025,20.1599 L54.8025,20.1609 L54.8025,20.1629 L54.8025,20.1639 L54.8025,20.1649 L54.8025,20.1659 L54.8025,20.1669 L54.8025,20.1689 L54.8025,20.1699 L54.8025,20.1709 L54.8025,20.1719 L54.8025,20.1739 L54.8025,20.1749 L54.8025,20.1759 L54.8025,20.1769 L54.8025,20.1779 L54.8025,20.1799 L54.8025,20.1809 L54.8025,20.1819 L54.8025,20.1829 L54.8025,20.1849 L54.8025,20.1859 L54.8025,20.1869 L54.8025,20.1879 L54.8025,20.1899 L54.8025,20.1909 L54.8025,20.1919 L54.8025,20.1929 L54.8025,20.1939 L54.8025,20.1959 L54.8025,20.1969 L54.8025,20.1979 L54.8025,20.1989 L54.8025,20.2009 L54.8025,20.2019 L54.8025,20.2029 L54.8025,20.2049 L54.8025,20.2059 L54.8025,20.2069 L54.8025,20.2079 L54.8025,20.2099 L54.8025,20.2109 L54.8025,20.2119 L54.8025,20.2129 L54.8025,20.2139 L54.8025,20.2159 L54.8025,20.2169 L54.8025,20.2179 L54.8025,20.2189 L54.8025,20.2209 L54.8025,20.2219 L54.8025,20.2229 L54.8025,20.2239 L54.8025,20.2249 L54.8025,20.2269 L54.8025,20.2279 L54.8025,20.2289 L54.8025,20.2299 L54.8025,20.2319 L54.8025,20.2329 L54.8025,20.2339 L54.8025,20.2349 L54.8025,20.2369 L54.8025,20.2379 L54.8025,20.2389 L54.8025,20.2399 L54.8025,20.2409 L54.8025,20.2429 L54.8025,20.2439 L54.8025,20.2449 L54.8025,20.2469 L54.8025,20.2479 L54.8025,20.2489 L54.8025,20.2499 L54.8025,20.2519 L54.8025,20.2529 L54.8025,20.2539 L54.8025,20.2549 L54.8025,20.2559 L54.8025,20.2579 L54.8025,20.2589 L54.8025,20.2599 L54.8025,20.2609 L54.8025,20.2629 L54.8025,20.2639 L54.8025,20.2649 L54.8025,20.2659 L54.8025,20.2669 L54.8025,20.2689 L54.8025,20.2699 L54.8025,20.2709 L54.8025,20.2719 L54.8025,20.2739 L54.8025,20.2749 L54.8025,20.2759 L54.8025,20.2769 L54.8025,20.2789 L54.8025,20.2799 L54.8025,20.2809 L54.8025,20.2819 L54.8025,20.2829 L54.8025,20.2839 L54.8025,20.2849 L54.8025,20.2859 L54.8025,20.2869 L54.8025,20.2889 L54.8025,20.2899 L54.8025,20.2909 L54.8025,20.2919 L54.8025,20.2929 L54.8025,20.2949 L54.8025,20.2959 L54.8025,20.2969 L54.8025,20.2979 L54.8025,20.2989 L54.8025,20.3009 L54.8025,20.3019 L54.8025,20.3029 L54.8025,20.3039 L54.8025,20.3059 L54.8025,20.3069 L54.8025,20.3079 L54.8025,20.3089 L54.8025,20.3099 L54.8025,20.3119 L54.8025,20.3129 L54.8025,20.3139 L54.8025,20.3149 L54.8025,20.3159 L54.8025,20.3179 L54.8025,20.3189 L54.8025,20.3199 L54.8025,20.3209 L54.8025,20.3229 L54.8025,20.3239 L54.8025,20.3249 L54.8025,20.3259 L54.8025,20.3269 L54.8025,20.3289 L54.8025,20.3299 L54.8025,20.3309 L54.8025,20.3319 L54.8025,20.3329 L54.8025,20.3349 L54.8025,20.3359 L54.8025,20.3369 L54.8025,20.3379 L54.8025,20.3389 L54.8025,20.3409 L54.8025,20.3419 L54.8025,20.3429 L54.8025,20.3439 L54.8025,20.3449 L54.8025,20.3469 L54.8025,20.3479 L54.8025,20.3489 L54.8025,20.3499 L54.8025,20.3509 L54.8025,20.3529 L54.8025,20.3539 L54.8025,20.3549 L54.8025,20.3559 L54.8025,20.3569 L54.8025,20.3579 L54.8025,20.3599 L54.8025,20.3609 L54.8025,20.3619 L54.8025,20.3629 L54.8025,20.3639 L54.8025,20.3649 L54.8025,20.3669 L54.8025,20.3679 L54.8025,20.3689 L54.8025,20.3699 L54.8025,20.3709 L54.8025,20.3729 L54.8025,20.3739 L54.8025,20.3749 L54.8025,20.3759 L54.8025,20.3769 L54.8025,20.3779 L54.8025,20.3799 L54.8025,20.3809 L54.8025,20.3819 L54.8025,20.3829 L54.8025,20.3839 L54.8025,20.3849 L54.8025,20.3869 L54.8025,20.3879 L54.8025,20.3889 L54.8025,20.3899 L54.8025,20.3909 L54.8025,20.3919 L54.8025,20.3939 L54.8025,20.3949 L54.8025,20.3959 L54.8025,20.3969 L54.8025,20.3979 L54.8025,20.3989 L54.8025,20.3999 L54.8025,20.4009 L54.8025,20.4029 L54.8025,20.4039 L54.8025,20.4049 L54.8025,20.4059 L54.8025,20.4069 L54.8025,20.4079 L54.8025,20.4089 L54.8025,20.4099 L54.8025,20.4109 L54.8025,20.4119 L54.8025,20.4129 L54.8025,20.4139 L54.8025,20.4149 L54.8025,20.4159 L54.8025,20.4169 L54.8025,20.4189 L54.8025,20.4199 L54.8025,20.4209 L54.8025,20.4219 L54.8025,20.4229 L54.8025,20.4239 L54.8025,20.4249 L54.8025,20.4259 L54.8025,20.4279 L54.8025,20.4289 L54.8025,20.4299 L54.8025,20.4309 L54.8025,20.4319 L54.8025,20.4329 L54.8025,20.4339 L54.8025,20.4349 L54.8025,20.4359 L54.8025,20.4369 L54.8025,20.4389 L54.8025,20.4399 L54.8025,20.4409 L54.8025,20.4419 L54.8025,20.4429 L54.8025,20.4439 L54.8025,20.4449 L54.8025,20.4459 L54.8025,20.4469 L54.8025,20.4479 L54.8025,20.4489 L54.8025,20.4509 L54.8025,20.4519 L54.8025,20.4529 L54.8025,20.4539 L54.8025,20.4549 L54.8025,20.4559 L54.8025,20.4569 L54.8025,20.4579 L54.8025,20.4589 L54.8025,20.4599 L54.8025,20.4609 L54.8025,20.4619 L54.8025,20.4629 L54.8025,20.4649 L54.8025,20.4659 L54.8025,20.4669 L54.8025,20.4679 L54.8025,20.4689 L54.8025,20.4699 L54.8025,20.4709 L54.8025,20.4719 L54.8025,20.4729 L54.8025,20.4739 L54.8025,20.4749 L54.8025,20.4759 L54.8025,20.4769 L54.8025,20.4779 L54.8025,20.4789 L54.8025,20.4799 L54.8025,20.4809 L54.8025,20.4819 L54.8025,20.4829 L54.8025,20.4839 L54.8025,20.4849 L54.8025,20.4859 L54.8025,20.4869 L54.8025,20.4879 L54.8025,20.4889 L54.8025,20.4899 L54.8025,20.4909 L54.8025,20.4919 L54.8025,20.4929 L54.8025,20.4939 L54.8025,20.4949 L54.8025,20.4959 L54.8025,20.4979 L54.8025,20.4989 L54.8025,20.4999 L54.8025,20.5019 L54.8025,20.5029 L54.8025,20.5039 L54.8025,20.5059 L54.8025,21.8149 L56.0655,21.4699 L55.8025,20.5059 L56.0655,21.4699 C56.9175,21.2379 57.7285,21.0949 58.5135,21.0949 C62.8915,21.0949 66.4695,24.6719 66.4695,29.0469 C66.4695,33.0839 63.4215,36.4339 59.5135,36.9299 M58.5135,19.0949 C57.9215,19.0949 57.3395,19.1609 56.7685,19.2649 C56.4135,9.0029 47.9935,0.8609 37.7265,0.8609 C30.1355,0.8609 23.5795,5.3359 20.4955,11.7349 C18.6275,10.8239 16.5645,10.3069 14.3105,10.3069 C6.3595,10.3069 -0.0005,16.7539 -0.0005,24.6129 C-0.0005,32.5609 6.4505,38.9179 14.3105,38.9179 L57.5135,38.9179 L57.5135,38.9999 L58.5135,38.9999 C63.9945,38.9999 68.4695,34.5289 68.4695,29.0469 C68.4695,23.5669 63.9945,19.0949 58.5135,19.0949" id="Fill-4" fill="#92A4BA" mask="url(#mask-4)"></path>
            </g>
        </g>
    </g>
</svg>