<?xml version="1.0" encoding="UTF-8"?>
<svg width="100px" height="100px" viewBox="0 0 100 100" version="1.1" xmlns="http://www.w3.org/2000/svg" xmlns:xlink="http://www.w3.org/1999/xlink">
    <!-- Generator: Sketch 49.1 (51147) - http://www.bohemiancoding.com/sketch -->
    <title>icFiber</title>
    <desc>Created with Sketch.</desc>
    <defs>
        <polygon id="path-1" points="0 0.672 75.9465 0.672 75.9465 65.7501 0 65.7501"></polygon>
    </defs>
    <g id="icFiber" stroke="none" stroke-width="1" fill="none" fill-rule="evenodd">
        <g id="Page-1" transform="translate(10.000000, 14.000000)">
            <g id="Group-3" transform="translate(0.000000, 0.328300)">
                <mask id="mask-2" fill="white">
                    <use xlink:href="#path-1"></use>
                </mask>
                <g id="Clip-2"></g>
                <path d="M72.3425,16.1491 C71.3665,17.5811 70.1205,18.3301 68.8655,18.3301 L50.1335,18.3301 L31.9755,18.3301 C23.7815,18.3301 17.0895,25.0201 17.0895,33.2111 C17.0895,41.4021 23.7815,48.0921 31.9755,48.0921 L40.8065,48.0921 C40.5175,48.3981 40.2435,48.7231 39.9985,49.0771 C38.7685,50.8551 38.0395,53.2561 38.0395,55.8601 C38.0395,58.4651 38.7685,60.8661 39.9985,62.6441 C40.2765,63.0441 40.5855,63.4131 40.9185,63.7501 L32.5505,63.7501 C15.6845,63.7501 1.9995,50.0701 1.9995,33.2111 C1.9995,16.3511 15.6845,2.6711 32.5505,2.6711 L42.4915,2.6711 L68.8655,2.6711 C70.1285,2.6711 71.3745,3.4091 72.3465,4.8171 C73.3165,6.2211 73.9465,8.2141 73.9465,10.4601 C73.9465,12.7071 73.3155,14.7221 72.3425,16.1491 M48.5965,50.2151 C49.5685,51.6181 50.1995,53.6111 50.1995,55.8601 C50.1995,58.1091 49.5685,60.1031 48.5965,61.5061 C47.6235,62.9131 46.3775,63.6491 45.1195,63.6491 C43.8625,63.6491 42.6165,62.9131 41.6435,61.5061 C40.6725,60.1031 40.0395,58.1091 40.0395,55.8601 C40.0395,53.6111 40.6725,51.6181 41.6435,50.2151 C42.5475,48.9071 43.6875,48.1881 44.8535,48.0921 L44.8745,48.0921 L44.8745,48.0901 C44.9565,48.0841 45.0375,48.0721 45.1195,48.0721 C46.3775,48.0721 47.6235,48.8081 48.5965,50.2151 M73.9915,3.6801 C72.7665,1.9051 70.9715,0.6711 68.8655,0.6711 L42.4915,0.6711 L32.5505,0.6711 C14.5795,0.6711 -0.0005,15.2461 -0.0005,33.2111 C-0.0005,51.1761 14.5795,65.7501 32.5505,65.7501 L45.6965,65.7501 L45.6965,65.6071 C47.5465,65.4031 49.1285,64.2521 50.2415,62.6441 C51.4715,60.8661 52.1995,58.4651 52.1995,55.8601 C52.1995,53.2561 51.4715,50.8551 50.2415,49.0771 C49.0145,47.3041 47.2205,46.0721 45.1195,46.0721 C45.0295,46.0721 44.9435,46.0871 44.8535,46.0921 L31.9755,46.0921 C24.8865,46.0921 19.0895,40.2971 19.0895,33.2111 C19.0895,26.1251 24.8865,20.3301 31.9755,20.3301 L50.1335,20.3301 L68.8655,20.3301 C70.9805,20.3301 72.7745,19.0671 73.9955,17.2751 C75.2205,15.4791 75.9465,13.0591 75.9465,10.4601 C75.9465,7.8601 75.2205,5.4591 73.9915,3.6801" id="Fill-1" fill="#92A4BA" mask="url(#mask-2)"></path>
            </g>
            <path d="M46.0202,51.0277 C59.5992,51.0277 69.4332,46.3927 74.3932,41.3507 C74.5872,41.1537 74.5842,40.8377 74.3882,40.6437 C74.1912,40.4497 73.8742,40.4527 73.6802,40.6497 C68.9462,45.4637 59.3892,50.0277 46.0202,50.0277 C45.7442,50.0277 45.5202,50.2517 45.5202,50.5277 C45.5202,50.8037 45.7442,51.0277 46.0202,51.0277" id="Fill-4" fill="#0072FF"></path>
            <path d="M46.0202,60.8012 C45.7442,60.8012 45.5202,61.0252 45.5202,61.3012 C45.5202,61.5762 45.7442,61.8012 46.0202,61.8012 C59.3082,61.8012 68.9462,66.3652 73.6802,71.1792 C73.8742,71.3752 74.1912,71.3782 74.3882,71.1852 C74.5842,70.9912 74.5872,70.6742 74.3932,70.4782 C69.4332,65.4352 59.5172,60.8012 46.0202,60.8012" id="Fill-6" fill="#0072FF"></path>
            <path d="M42.3298,54.4496 C60.4238,54.4496 73.6218,52.8056 80.1768,50.9816 C80.4418,50.9076 80.5988,50.6326 80.5238,50.3656 C80.4498,50.0996 80.1748,49.9446 79.9088,50.0176 C73.4808,51.8066 60.3878,53.4496 42.3298,53.4496 C42.0548,53.4496 41.8298,53.6736 41.8298,53.9496 C41.8298,54.2256 42.0548,54.4496 42.3298,54.4496" id="Fill-8" fill="#0072FF"></path>
            <path d="M80.1765,60.8685 C73.6215,59.0435 60.4235,57.4005 42.3295,57.4005 C42.0545,57.4005 41.8295,57.6245 41.8295,57.9005 C41.8295,58.1765 42.0545,58.4005 42.3295,58.4005 C60.3875,58.4005 73.4815,60.0425 79.9085,61.8315 C80.1745,61.9055 80.4495,61.7505 80.5245,61.4835 C80.5985,61.2185 80.4425,60.9425 80.1765,60.8685" id="Fill-10" fill="#0072FF"></path>
        </g>
    </g>
</svg>