<?xml version="1.0" encoding="UTF-8"?>
<svg width="100px" height="100px" viewBox="0 0 100 100" version="1.1" xmlns="http://www.w3.org/2000/svg" xmlns:xlink="http://www.w3.org/1999/xlink">
    <!-- Generator: Sketch 49.1 (51147) - http://www.bohemiancoding.com/sketch -->
    <title>icKitty Cash</title>
    <desc>Created with Sketch.</desc>
    <defs>
        <polygon id="path-1" points="0.0005 0.129 67.8115 0.129 67.8115 68 0.0005 68"></polygon>
    </defs>
    <g id="icKitty-Cash" stroke="none" stroke-width="1" fill="none" fill-rule="evenodd">
        <g id="Page-1" transform="translate(16.000000, 16.000000)">
            <g id="Group-3" transform="translate(0.000000, 0.871300)">
                <mask id="mask-2" fill="white">
                    <use xlink:href="#path-1"></use>
                </mask>
                <g id="Clip-2"></g>
                <path d="M65.7485,21.4533 C65.6825,21.8553 65.5505,22.3833 65.2955,22.9103 C64.8095,23.9163 63.8635,24.9633 61.8155,25.0993 C59.5525,25.2503 56.2595,24.4843 53.4235,23.6213 C52.0275,23.1973 50.7835,22.7623 49.8875,22.4323 C49.4385,22.2683 49.0795,22.1313 48.8325,22.0353 C48.7095,21.9863 48.6135,21.9493 48.5505,21.9233 C48.5185,21.9113 48.4945,21.9013 48.4775,21.8943 C48.4705,21.8913 48.4645,21.8893 48.4615,21.8883 C48.4595,21.8873 48.4575,21.8863 48.4565,21.8863 L48.0795,22.8123 C47.7015,23.7383 47.7015,23.7383 47.7025,23.7383 C47.7025,23.7383 47.7035,23.7393 47.7045,23.7393 C47.7055,23.7403 47.7075,23.7403 47.7105,23.7413 C47.7145,23.7433 47.7225,23.7463 47.7305,23.7493 C47.7485,23.7573 47.7745,23.7673 47.8105,23.7813 C47.8785,23.8083 47.9775,23.8483 48.1065,23.8983 C48.3645,23.9983 48.7365,24.1413 49.1975,24.3103 C50.1195,24.6483 51.4005,25.0963 52.8415,25.5353 C53.7425,25.8093 54.7265,26.0813 55.7295,26.3243 C55.4705,27.0543 55.2745,27.8763 55.1315,28.7223 C54.8645,30.2883 54.7185,32.0993 54.6355,33.8413 C54.3945,38.8173 53.2705,43.7893 51.2685,48.3533 L52.1285,48.7313 L52.1175,48.7263 L51.2685,48.3533 L51.2675,48.3543 L50.1175,50.9823 L51.0335,51.3843 L50.1175,50.9823 C50.0615,51.1093 50.0335,51.2453 50.0335,51.3843 L50.0335,62.2253 C50.0335,62.7773 50.4805,63.2253 51.0335,63.2253 L51.6905,63.2253 C53.4195,63.2253 54.8625,64.4003 55.3045,65.9893 L49.4365,65.9893 C49.4115,65.8433 49.3875,65.6893 49.3545,65.5123 C49.2045,64.6673 48.9555,63.4783 48.5645,62.0973 C47.8075,59.4143 46.4935,55.9563 44.2875,52.8493 C44.1595,50.6133 43.4155,48.8323 42.3115,47.4433 C41.1105,45.9313 39.5305,44.9273 38.0055,44.2573 C36.4775,43.5873 34.9645,43.2353 33.8405,43.0493 C33.2765,42.9563 32.8055,42.9033 32.4715,42.8743 C32.3045,42.8593 32.1705,42.8503 32.0775,42.8463 C32.0305,42.8433 31.9935,42.8413 31.9685,42.8403 C31.9545,42.8403 31.9435,42.8393 31.9365,42.8393 L31.9275,42.8393 L31.9245,42.8393 L31.9225,42.8393 C31.9225,42.8393 31.9215,42.8393 31.8935,43.8383 C31.8645,44.8383 31.8635,44.8383 31.8635,44.8383 L31.8625,44.8383 L31.8655,44.8383 C31.8695,44.8383 31.8755,44.8383 31.8845,44.8393 C31.9005,44.8393 31.9285,44.8413 31.9655,44.8433 C32.0395,44.8473 32.1515,44.8543 32.2965,44.8663 C32.5875,44.8913 33.0075,44.9383 33.5145,45.0223 C34.5325,45.1903 35.8735,45.5063 37.2015,46.0893 C38.5305,46.6723 39.8065,47.5053 40.7465,48.6873 C41.6735,49.8543 42.3135,51.4103 42.3135,53.5303 C42.3135,55.6593 41.6935,57.1693 40.8135,58.2663 C39.9215,59.3773 38.7095,60.1273 37.4405,60.6293 C36.1725,61.1303 34.8895,61.3663 33.9125,61.4753 C33.4275,61.5303 33.0245,61.5533 32.7455,61.5603 C32.6455,61.5643 32.5825,61.5643 32.5175,61.5643 L32.3045,61.5643 C31.7575,61.5643 31.3115,62.0033 31.3045,62.5503 C31.2965,63.0963 31.7275,63.5483 32.2735,63.5643 L32.3045,62.5643 C32.2735,63.5643 32.2745,63.5643 32.2745,63.5643 L32.2755,63.5643 L32.2795,63.5643 L32.2885,63.5643 C32.2965,63.5643 32.3065,63.5643 32.3195,63.5653 C32.3455,63.5653 32.3805,63.5653 32.4265,63.5663 C32.4745,63.5663 32.5345,63.5653 32.6035,63.5643 L37.8915,63.5643 C39.4525,63.5643 40.7395,64.5873 41.1655,66.0003 L15.7305,66.0003 C15.5555,65.7363 15.3075,65.3403 15.0195,64.8113 C14.4395,63.7423 13.7115,62.1443 13.1385,60.0613 C11.9955,55.9043 11.4645,49.7823 14.0275,42.0153 C16.5285,34.4363 22.4295,30.4593 27.8185,28.3643 C30.5105,27.3183 33.0475,26.7533 34.9135,26.4503 C35.8455,26.2993 36.6055,26.2143 37.1305,26.1673 C37.3925,26.1433 37.5955,26.1293 37.7295,26.1213 C37.7975,26.1173 37.8485,26.1143 37.8815,26.1133 C37.8975,26.1123 37.9095,26.1123 37.9165,26.1113 C37.9205,26.1113 37.9225,26.1113 37.9245,26.1113 L37.9255,26.1113 C38.3955,26.0953 38.7915,25.7523 38.8755,25.2883 L38.8755,25.2863 C38.8755,25.2853 38.8765,25.2813 38.8775,25.2763 C38.8795,25.2663 38.8825,25.2493 38.8875,25.2273 C38.8945,25.1823 38.9085,25.1153 38.9275,25.0253 C38.9645,24.8463 39.0215,24.5783 39.1025,24.2353 C39.2655,23.5493 39.5205,22.5603 39.8935,21.3643 C40.6395,18.9673 41.8465,15.7503 43.6925,12.4593 C45.4765,9.2823 48.4585,6.6743 51.0585,4.8413 C52.3495,3.9313 53.5255,3.2253 54.3785,2.7483 C54.3895,2.7423 54.3965,2.7383 54.4075,2.7323 L54.8045,9.0763 C54.8315,9.5073 55.1325,9.8713 55.5495,9.9813 L55.5505,9.9813 C55.5515,9.9813 55.5535,9.9823 55.5565,9.9823 C55.5615,9.9843 55.5705,9.9873 55.5835,9.9903 C55.6075,9.9963 55.6455,10.0073 55.6955,10.0213 C55.7965,10.0503 55.9435,10.0933 56.1295,10.1503 C56.4995,10.2653 57.0165,10.4383 57.5965,10.6633 C58.7775,11.1243 60.1325,11.7743 61.0715,12.5693 C61.8735,13.2473 62.3095,14.4023 62.5215,15.5413 C62.6245,16.0913 62.6665,16.5923 62.6835,16.9563 C62.6905,17.1373 62.6925,17.2823 62.6925,17.3793 C62.6925,17.4283 62.6915,17.4643 62.6915,17.4873 C62.6905,17.4983 62.6905,17.5073 62.6905,17.5113 L62.6905,17.5143 C62.6795,17.7853 62.7785,18.0483 62.9655,18.2443 L63.6895,17.5553 L62.9655,18.2443 L65.7825,21.2093 C65.7735,21.2833 65.7635,21.3633 65.7485,21.4533 Z M38.3265,25.1903 L37.8915,25.1113 C38.0695,25.1433 38.2065,25.1683 38.3265,25.1903 Z M58.2505,4.4663 L58.6065,8.9193 C58.5145,8.8813 58.4115,8.8353 58.3215,8.8003 C57.7055,8.5603 57.1585,8.3773 56.7565,8.2513 L56.6075,5.8733 L58.2505,4.4663 Z M67.8115,20.8413 C67.8115,20.5843 67.7135,20.3383 67.5365,20.1523 L64.6905,17.1573 C64.6885,17.0703 64.6865,16.9733 64.6815,16.8663 C64.6615,16.4343 64.6115,15.8373 64.4875,15.1753 C64.2485,13.8913 63.6985,12.1723 62.3635,11.0423 C61.8605,10.6173 61.2825,10.2503 60.6935,9.9183 L60.0875,2.3493 C60.0585,1.9743 59.8195,1.6483 59.4725,1.5053 C59.1245,1.3613 58.7265,1.4253 58.4395,1.6703 L56.4515,3.3743 L56.3075,1.0663 C56.2865,0.7353 56.1025,0.4363 55.8175,0.2673 C55.5325,0.0993 55.1825,0.0823 54.8825,0.2243 L55.1615,0.8153 C54.8835,0.2263 54.8825,0.2243 54.8825,0.2243 C54.8825,0.2243 54.8825,0.2243 54.8815,0.2243 C54.8815,0.2253 54.8805,0.2253 54.8795,0.2253 C54.8785,0.2263 54.8755,0.2273 54.8735,0.2283 C54.8675,0.2313 54.8605,0.2353 54.8515,0.2393 C54.8325,0.2483 54.8055,0.2613 54.7695,0.2783 C54.7005,0.3123 54.6015,0.3623 54.4725,0.4283 C54.2175,0.5583 53.8515,0.7513 53.4005,1.0033 C52.5025,1.5063 51.2655,2.2483 49.9055,3.2063 C47.2065,5.1103 43.9445,7.9243 41.9485,11.4813 C40.0155,14.9253 38.7585,18.2793 37.9835,20.7693 C37.5965,22.0163 37.3275,23.0503 37.1565,23.7753 C37.1225,23.9213 37.0945,24.0453 37.0665,24.1653 C37.0265,24.1693 36.9945,24.1713 36.9505,24.1753 C36.3855,24.2263 35.5765,24.3173 34.5935,24.4763 C32.6285,24.7953 29.9485,25.3903 27.0945,26.5003 C21.3915,28.7173 14.8855,33.0353 12.1285,41.3903 C9.4335,49.5573 9.9705,56.0833 11.2105,60.5923 C11.8285,62.8413 12.6195,64.5803 13.2625,65.7653 C13.2765,65.7923 13.2885,65.8093 13.3035,65.8373 C9.8175,65.3473 7.1615,63.4773 5.2955,60.9583 C3.0955,57.9863 2.0005,54.1363 2.0005,50.7123 C2.0005,49.1023 2.5255,47.2463 3.3845,45.2273 C4.2375,43.2193 5.3825,41.1333 6.5535,39.0693 C7.7115,37.0283 8.9055,34.9913 9.8015,33.1553 C10.6835,31.3493 11.3665,29.5653 11.3665,28.0423 C11.3665,26.3493 10.9395,25.0173 10.2435,23.9933 C9.5525,22.9743 8.6365,22.3203 7.7545,21.9023 C6.8755,21.4873 6.0115,21.2973 5.3745,21.2083 C5.0545,21.1633 4.7845,21.1433 4.5925,21.1353 C4.4955,21.1303 4.4175,21.1293 4.3605,21.1283 C4.3325,21.1283 4.3105,21.1283 4.2935,21.1293 L4.2715,21.1293 C4.2695,21.1293 4.2675,21.1293 4.2645,21.1293 L4.2625,21.1293 L4.2605,21.1293 C4.2605,21.1293 4.2595,21.1293 4.2865,22.1293 C4.3135,23.1283 4.3125,23.1283 4.3125,23.1283 L4.3115,23.1293 C4.3125,23.1293 4.3125,23.1293 4.3145,23.1283 L4.3485,23.1283 C4.3815,23.1293 4.4345,23.1303 4.5035,23.1333 C4.6435,23.1393 4.8495,23.1543 5.0985,23.1883 C5.6025,23.2593 6.2575,23.4073 6.8985,23.7103 C7.5365,24.0123 8.1415,24.4563 8.5895,25.1163 C9.0325,25.7703 9.3665,26.6983 9.3665,28.0423 C9.3665,29.0663 8.8795,30.4863 8.0045,32.2783 C7.1445,34.0413 5.9965,35.9973 4.8135,38.0833 C3.6425,40.1473 2.4455,42.3213 1.5435,44.4453 C0.6445,46.5593 0.0005,48.7073 0.0005,50.7123 C0.0005,54.5163 1.2055,58.7963 3.6875,62.1483 C6.1855,65.5203 9.9895,67.9623 15.0975,67.9733 C15.1375,67.9773 15.1735,68.0003 15.2145,68.0003 L42.3275,68.0003 C42.8805,68.0003 43.3275,67.5523 43.3275,67.0003 C43.3275,64.5593 41.7325,62.5353 39.5305,61.8413 C40.5605,61.2773 41.5585,60.5343 42.3735,59.5173 C43.1135,58.5963 43.6865,57.4843 44.0125,56.1573 C45.2585,58.4003 46.0955,60.7103 46.6415,62.6413 C47.0105,63.9493 47.2445,65.0713 47.3865,65.8633 C47.4575,66.2603 47.5045,66.5723 47.5335,66.7833 C47.5485,66.8903 47.5595,66.9703 47.5655,67.0223 C47.5685,67.0493 47.5705,67.0683 47.5725,67.0803 C47.5725,67.0863 47.5735,67.0913 47.5735,67.0933 L47.5735,67.0963 C47.6285,67.6033 48.0575,67.9893 48.5685,67.9893 L56.4565,67.9893 C57.0085,67.9893 57.4565,67.5413 57.4565,66.9893 C57.4565,63.9243 55.0545,61.4213 52.0335,61.2423 L52.0335,51.5933 L53.0995,49.1573 C55.2045,44.3583 56.3815,39.1453 56.6335,33.9373 L56.6335,33.9363 L55.6755,33.8913 L55.6345,33.8893 L56.6335,33.9363 C56.7145,32.2283 56.8555,30.5083 57.1025,29.0573 C57.2705,28.0673 57.4785,27.3063 57.7055,26.7473 C59.2095,27.0223 60.6855,27.1793 61.9485,27.0953 C64.8305,26.9033 66.3505,25.3223 67.0965,23.7813 C67.4575,23.0353 67.6345,22.3103 67.7225,21.7783 C67.7665,21.5103 67.7885,21.2863 67.8005,21.1243 C67.8055,21.0433 67.8095,20.9773 67.8105,20.9293 C67.8115,20.9053 67.8115,20.8863 67.8115,20.8713 L67.8115,20.8523 L67.8115,20.8453 L67.8115,20.8433 L67.8115,20.8423 C67.8115,20.8413 67.8115,20.8413 67.1425,20.8413 L67.8115,20.8413 Z" id="Fill-1" fill="#92A4BA" mask="url(#mask-2)"></path>
            </g>
            <path d="M62.6909,18.3861 C62.6909,18.3861 62.6909,18.3871 62.6909,18.3861 Z" id="Fill-4" fill="#92A4BA"></path>
        </g>
    </g>
</svg>