<?xml version="1.0" encoding="UTF-8"?>
<svg width="100px" height="100px" viewBox="0 0 100 100" version="1.1" xmlns="http://www.w3.org/2000/svg" xmlns:xlink="http://www.w3.org/1999/xlink">
    <!-- Generator: Sketch 49.1 (51147) - http://www.bohemiancoding.com/sketch -->
    <title>icNode</title>
    <desc>Created with Sketch.</desc>
    <defs>
        <polygon id="path-1" points="0 0.5232 46.18446 0.5232 46.18446 57 0 57"></polygon>
    </defs>
    <g id="icNode" stroke="none" stroke-width="1" fill="none" fill-rule="evenodd">
        <g id="Page-1" transform="translate(18.000000, 12.000000)">
            <path d="M51.6074,26.0477 C58.2784,26.0477 63.6854,20.6417 63.6854,13.9737 C63.6854,7.3057 58.2784,1.9007 51.6074,1.9007 C44.9374,1.9007 39.5304,7.3057 39.5304,13.9737 C39.5304,20.6417 44.9374,26.0477 51.6074,26.0477" id="Fill-1" fill="#0072FF"></path>
            <g id="Group-5" transform="translate(0.000000, 19.376900)">
                <mask id="mask-2" fill="white">
                    <use xlink:href="#path-1"></use>
                </mask>
                <g id="Clip-4"></g>
                <path d="M45.2119,13.1962 L45.2089,13.1942 L35.2759,6.0542 C31.6429,3.3322 26.9819,0.5232 22.1149,0.5232 L9.4629,0.5232 C4.2279,0.5232 -0.0001,4.7492 -0.0001,9.9832 L-0.0001,23.0422 C-0.0001,27.0632 3.0519,30.3222 6.9809,30.6612 L6.9809,56.0002 C6.9809,56.5522 7.4279,57.0002 7.9809,57.0002 C8.5319,57.0002 8.9809,56.5522 8.9809,56.0002 L8.9809,12.2222 C8.9809,11.6702 8.5319,11.2222 7.9809,11.2222 C7.4279,11.2222 6.9809,11.6702 6.9809,12.2222 L6.9809,28.6532 C4.1589,28.3222 1.9999,25.9572 1.9999,23.0422 L1.9999,9.9832 C1.9999,5.8542 5.3309,2.5232 9.4629,2.5232 L22.1149,2.5232 C26.2829,2.5232 30.4909,4.9672 34.0869,7.6622 C34.0919,7.6662 34.0979,7.6702 34.1029,7.6742 L44.0449,14.8202 L44.6319,14.0032 L44.6279,14.0082 L44.0449,14.8202 L44.0469,14.8212 C44.1579,14.9012 44.2329,15.0982 44.1309,15.3122 L41.9749,17.5332 L25.1599,11.5872 L24.8269,12.5292 L25.1599,11.5872 C24.8549,11.4782 24.5149,11.5252 24.2499,11.7132 C23.9839,11.9002 23.8269,12.2052 23.8269,12.5292 L23.8269,55.8962 C23.8269,56.4482 24.2749,56.8962 24.8269,56.8962 C25.3789,56.8962 25.8269,56.4482 25.8269,55.8962 L25.8269,13.9442 L41.9119,19.6322 C42.2799,19.7622 42.6909,19.6662 42.9629,19.3862 L45.6739,16.5932 C45.7239,16.5432 45.7679,16.4872 45.8049,16.4272 L44.9569,15.8972 L45.8049,16.4272 C46.4799,15.3482 46.2379,13.9312 45.2119,13.1962" id="Fill-3" fill="#92A4BA" mask="url(#mask-2)"></path>
            </g>
            <path d="M16.2803,49.5004 C15.7273,49.5004 15.2803,49.9474 15.2803,50.5004 L15.2803,74.8944 C15.2803,75.4454 15.7273,75.8944 16.2803,75.8944 C16.8323,75.8944 17.2803,75.4454 17.2803,74.8944 L17.2803,50.5004 C17.2803,49.9474 16.8323,49.5004 16.2803,49.5004" id="Fill-6" fill="#92A4BA"></path>
            <path d="M12.1104,6.996 C12.1104,4.263 14.3734,2 17.1074,2 C19.8424,2 22.1054,4.263 22.1054,6.996 L22.1054,10.117 C22.1054,12.85 19.8424,15.113 17.1074,15.113 C14.3734,15.113 12.1104,12.85 12.1104,10.117 L12.1104,6.996 Z M17.1074,17.113 C20.9464,17.113 24.1054,13.955 24.1054,10.117 L24.1054,6.996 C24.1054,3.158 20.9464,1.42108547e-14 17.1074,1.42108547e-14 C13.2694,1.42108547e-14 10.1104,3.158 10.1104,6.996 L10.1104,10.117 C10.1104,13.955 13.2694,17.113 17.1074,17.113 Z" id="Fill-8" fill="#92A4BA"></path>
        </g>
    </g>
</svg>