<?xml version="1.0" encoding="UTF-8"?>
<svg width="100px" height="100px" viewBox="0 0 100 100" version="1.1" xmlns="http://www.w3.org/2000/svg" xmlns:xlink="http://www.w3.org/1999/xlink">
    <!-- Generator: Sketch 49.3 (51167) - http://www.bohemiancoding.com/sketch -->
    <title>icNode</title>
    <desc>Created with Sketch.</desc>
    <defs></defs>
    <g id="icNode" stroke="none" stroke-width="1" fill="none" fill-rule="evenodd">
        <g transform="translate(8.000000, 8.000000)" fill-rule="nonzero">
            <path d="M42.2,63 C30.5,63 21,53.5 21,41.8 C21,30.1 30.5,20.6 42.2,20.6 C53.9,20.6 63.4,30 63.4,41.8 C63.4,53.6 53.9,63 42.2,63 Z M42.2,22.5 C31.6,22.5 23,31.1 23,41.7 C23,52.3 31.5,61 42.2,61 C52.8,61 61.4,52.4 61.4,41.8 C61.4,31.2 52.8,22.5 42.2,22.5 Z" id="Shape" fill="#92A4BA"></path>
            <path d="M47,32.6 L39.4,49 L36.9,49 L45,31.1 C45.8,31.5 46.4,32 47,32.6 Z M42.2,30.3 C43.1,30.3 43.9,30.5 44.6,30.8 L36.4,49 L36.1,49 C35.3,49 34.6,48.8 33.9,48.6 L42.2,30.3 Z M52,37.8 C52.5,38.2 52.9,38.7 53.3,39.2 L48.9,49 C48.7,49 48.5,49.1 48.3,49.1 L47,49.1 L52,37.8 Z M50.4,48.6 L54.1,40.6 C54.3,41.2 54.4,42 54.4,42.7 C54.4,45.4 52.7,47.7 50.4,48.6 Z M48.3,36.5 L42.6,49 L40.3,49 L47.5,33.3 C47.9,34.3 48.3,35.3 48.3,36.5 Z M41.7,30.3 L33.4,48.5 C31.3,47.5 29.9,45.3 29.9,42.8 C29.9,39.4 32.6,36.6 36,36.6 C36,33.2 38.5,30.5 41.7,30.3 Z M51.1,37.2 L45.7,49 L43.5,49 L49.1,36.6 C49.9,36.7 50.5,36.9 51.1,37.2 Z" id="path0_fill_8_" fill="#0072FF"></path>
            <path d="M42.1,10 C39.5,10 37.3,7.9 37.3,5.2 C37.3,2.5 39.4,0.4 42.1,0.4 C44.8,0.4 46.9,2.5 46.9,5.2 C46.9,7.9 44.7,10 42.1,10 Z M42.1,2.5 C40.6,2.5 39.3,3.7 39.3,5.3 C39.3,6.9 40.5,8.1 42.1,8.1 C43.7,8.1 44.9,6.9 44.9,5.3 C44.9,3.7 43.6,2.5 42.1,2.5 Z" id="Shape" fill="#92A4BA"></path>
            <path d="M42.1,83 C39.5,83 37.3,80.9 37.3,78.2 C37.3,75.5 39.4,73.4 42.1,73.4 C44.8,73.4 46.9,75.5 46.9,78.2 C46.9,80.9 44.7,83 42.1,83 Z M42.1,75.5 C40.6,75.5 39.3,76.7 39.3,78.3 C39.3,79.9 40.5,81.1 42.1,81.1 C43.7,81.1 44.9,79.9 44.9,78.3 C44.9,76.7 43.6,75.5 42.1,75.5 Z" id="Shape" fill="#92A4BA"></path>
            <path d="M5.6,46.5 C3,46.5 0.8,44.4 0.8,41.7 C0.8,39 3,37 5.6,37 C8.2,37 10.4,39.1 10.4,41.8 C10.4,44.5 8.2,46.5 5.6,46.5 Z M5.6,39 C4.1,39 2.8,40.2 2.8,41.8 C2.8,43.4 4,44.6 5.6,44.6 C7.2,44.6 8.4,43.4 8.4,41.8 C8.4,40.2 7.1,39 5.6,39 Z" id="Shape" fill="#92A4BA"></path>
            <path d="M78.6,46.5 C76,46.5 73.8,44.4 73.8,41.7 C73.8,39 76,37 78.6,37 C81.2,37 83.4,39.1 83.4,41.8 C83.4,44.5 81.2,46.5 78.6,46.5 Z M78.6,39 C77.1,39 75.8,40.2 75.8,41.8 C75.8,43.4 77,44.6 78.6,44.6 C80.2,44.6 81.4,43.4 81.4,41.8 C81.4,40.2 80.1,39 78.6,39 Z" id="Shape" fill="#92A4BA"></path>
            <path d="M16.3,20.7 C15,20.7 13.8,20.2 12.9,19.3 C12,18.4 11.5,17.2 11.5,15.9 C11.5,14.6 12,13.4 12.9,12.5 C13.8,11.6 15,11.1 16.3,11.1 C17.6,11.1 18.8,11.6 19.7,12.5 C20.6,13.4 21.1,14.6 21.1,15.9 C21.1,17.2 20.6,18.4 19.7,19.3 C18.7,20.2 17.5,20.7 16.3,20.7 Z M16.3,13.2 C15.6,13.2 14.9,13.5 14.4,14 C13.9,14.5 13.6,15.2 13.6,15.9 C13.6,16.6 13.9,17.3 14.4,17.8 C15.4,18.8 17.3,18.8 18.3,17.8 C18.8,17.3 19.1,16.6 19.1,15.9 C19.1,15.2 18.8,14.5 18.3,14 C17.7,13.5 17,13.2 16.3,13.2 Z" id="Shape" fill="#92A4BA"></path>
            <path d="M67.9,72.3 C66.6,72.3 65.4,71.8 64.5,70.9 C63.6,70 63.1,68.8 63.1,67.5 C63.1,66.2 63.6,65 64.5,64.1 C65.4,63.2 66.6,62.7 67.9,62.7 C69.2,62.7 70.4,63.2 71.3,64.1 C72.2,65 72.7,66.2 72.7,67.5 C72.7,68.8 72.2,70 71.3,70.9 C70.4,71.8 69.2,72.3 67.9,72.3 Z M67.9,64.8 C67.2,64.8 66.5,65.1 66,65.6 C65.5,66.1 65.2,66.8 65.2,67.5 C65.2,68.2 65.5,68.9 66,69.4 C67,70.4 68.9,70.4 69.9,69.4 C70.4,68.9 70.7,68.2 70.7,67.5 C70.7,66.8 70.4,66.1 69.9,65.6 C69.3,65.1 68.6,64.8 67.9,64.8 Z" id="Shape" fill="#92A4BA"></path>
            <path d="M16.3,72.3 C15,72.3 13.8,71.8 12.9,70.9 C12,70 11.5,68.8 11.5,67.5 C11.5,66.2 12,65 12.9,64.1 C13.8,63.2 15,62.7 16.3,62.7 C17.6,62.7 18.8,63.2 19.7,64.1 C20.6,65 21.1,66.2 21.1,67.5 C21.1,68.8 20.6,70 19.7,70.9 C18.8,71.8 17.5,72.3 16.3,72.3 Z M16.3,64.8 C15.6,64.8 14.9,65.1 14.4,65.6 C13.9,66.1 13.6,66.8 13.6,67.5 C13.6,68.2 13.9,68.9 14.4,69.4 C15.4,70.4 17.3,70.4 18.3,69.4 C18.8,68.9 19.1,68.2 19.1,67.5 C19.1,66.8 18.8,66.1 18.3,65.6 C17.8,65.1 17,64.8 16.3,64.8 Z" id="Shape" fill="#92A4BA"></path>
            <path d="M67.9,20.7 C66.6,20.7 65.4,20.2 64.5,19.3 C63.6,18.4 63.1,17.2 63.1,15.9 C63.1,14.6 63.6,13.4 64.5,12.5 C65.4,11.6 66.6,11.1 67.9,11.1 C69.2,11.1 70.4,11.6 71.3,12.5 C72.2,13.4 72.7,14.6 72.7,15.9 C72.7,17.2 72.2,18.4 71.3,19.3 C70.4,20.2 69.2,20.7 67.9,20.7 Z M67.9,13.2 C67.2,13.2 66.5,13.5 66,14 C65.5,14.5 65.2,15.2 65.2,15.9 C65.2,16.6 65.5,17.3 66,17.8 C67,18.8 68.9,18.8 69.9,17.8 C70.4,17.3 70.7,16.6 70.7,15.9 C70.7,15.2 70.4,14.5 69.9,14 C69.3,13.5 68.6,13.2 67.9,13.2 Z" id="Shape" fill="#92A4BA"></path>
            <rect id="Rectangle-path" fill="#92A4BA" x="9.3" y="40.8" width="12" height="2"></rect>
            <rect id="Rectangle-path" fill="#92A4BA" x="62.3" y="40.8" width="12" height="2"></rect>
            <rect id="Rectangle-path" fill="#92A4BA" x="40.8" y="9.3" width="2" height="12"></rect>
            <rect id="Rectangle-path" fill="#92A4BA" x="40.8" y="62.3" width="2" height="12"></rect>
            <rect id="Rectangle-path" fill="#92A4BA" transform="translate(23.105760, 60.492940) rotate(-45.000000) translate(-23.105760, -60.492940) " x="17.1058175" y="59.4929496" width="11.9998849" height="1.99998082"></rect>
            <rect id="Rectangle-path" fill="#92A4BA" transform="translate(60.583160, 22.983540) rotate(-45.000000) translate(-60.583160, -22.983540) " x="54.5832175" y="21.9835496" width="11.9998849" height="1.99998082"></rect>
            <rect id="Rectangle-path" fill="#92A4BA" transform="translate(23.090210, 22.998490) rotate(-45.000000) translate(-23.090210, -22.998490) " x="22.0902196" y="16.9985475" width="1.99998082" height="11.9998849"></rect>
            <rect id="Rectangle-path" fill="#92A4BA" transform="translate(60.598710, 60.476790) rotate(-45.000000) translate(-60.598710, -60.476790) " x="59.5987196" y="54.4768475" width="1.99998082" height="11.9998849"></rect>
        </g>
    </g>
</svg>