<?xml version="1.0" encoding="UTF-8"?>
<svg width="100px" height="100px" viewBox="0 0 100 100" version="1.1" xmlns="http://www.w3.org/2000/svg" xmlns:xlink="http://www.w3.org/1999/xlink">
    <!-- Generator: Sketch 49.1 (51147) - http://www.bohemiancoding.com/sketch -->
    <title>icObelisk</title>
    <desc>Created with Sketch.</desc>
    <defs>
        <polygon id="path-1" points="0 0.0511050658 15.0497769 0.0511050658 15.0497769 39.6539103 0 39.6539103"></polygon>
        <polygon id="path-3" points="0.7699 0.051 74.7439 0.051 74.7439 74 0.7699 74"></polygon>
    </defs>
    <g id="icObelisk" stroke="none" stroke-width="1" fill="none" fill-rule="evenodd">
        <g id="Page-1" transform="translate(2.000000, 13.000000)">
            <path d="M66.5633,46.4505 L14.4723,54.6645 L14.6273,55.6515 L66.7183,47.4385 L66.5633,46.4505 Z M48.6003,6.8995 L66.1823,47.1445 L67.0993,46.7445 L49.5163,6.4985 L48.6003,6.8995 Z M14.9583,55.4485 L49.4653,6.9895 L48.6513,6.4085 L14.1423,54.8685 L14.9583,55.4485 Z M66.6403,46.9445 L66.7183,47.4385 C66.8723,47.4145 67.0043,47.3205 67.0793,47.1845 C67.1543,47.0495 67.1613,46.8865 67.0993,46.7445 L66.6403,46.9445 Z M49.0583,6.6995 L49.5163,6.4985 C49.4443,6.3335 49.2893,6.2205 49.1103,6.2015 C48.9303,6.1835 48.7553,6.2625 48.6513,6.4085 L49.0583,6.6995 Z M14.5493,55.1585 L14.1423,54.8685 C14.0263,55.0315 14.0193,55.2505 14.1253,55.4215 C14.2313,55.5925 14.4293,55.6825 14.6273,55.6515 L14.5493,55.1585 Z" id="Fill-1" fill="#0072FF"></path>
            <path d="M12.3797,17.0384 L49.1887,7.1824 L48.9297,6.2164 L12.1207,16.0724 L12.3797,17.0384 Z M15.0497,55.1284 L12.7487,16.5254 L11.7507,16.5844 L14.0517,55.1874 L15.0497,55.1284 Z M63.2537,69.4644 L14.6957,54.6804 L14.4047,55.6364 L62.9627,70.4204 L63.2537,69.4644 Z M66.1477,46.8684 L62.6137,69.8664 L63.6027,70.0174 L67.1357,47.0204 L66.1477,46.8684 Z M83.8417,33.4034 L66.3417,46.5454 L66.9417,47.3444 L84.4427,34.2034 L83.8417,33.4034 Z M48.7527,7.0954 L83.8357,34.1994 L84.4477,33.4074 L49.3637,6.3034 L48.7527,7.0954 Z M12.2497,16.5554 L12.1207,16.0724 C11.8917,16.1334 11.7367,16.3484 11.7507,16.5844 L12.2497,16.5554 Z M14.5507,55.1584 L14.0517,55.1874 C14.0647,55.3964 14.2047,55.5754 14.4047,55.6364 L14.5507,55.1584 Z M63.1087,69.9414 L62.9627,70.4204 C63.1017,70.4624 63.2517,70.4424 63.3747,70.3654 C63.4967,70.2884 63.5807,70.1614 63.6027,70.0174 L63.1087,69.9414 Z M66.6417,46.9444 L66.3417,46.5454 C66.2367,46.6234 66.1667,46.7394 66.1477,46.8684 L66.6417,46.9444 Z M84.1427,33.8034 L84.4427,34.2034 C84.5677,34.1094 84.6407,33.9624 84.6427,33.8074 C84.6437,33.6504 84.5707,33.5034 84.4477,33.4074 L84.1427,33.8034 Z M49.0587,6.6994 L49.3637,6.3034 C49.2407,6.2084 49.0797,6.1754 48.9297,6.2164 L49.0587,6.6994 Z" id="Fill-3" fill="#0072FF"></path>
            <path d="M95.614,55.517 L62.914,69.48 L63.306,70.4 L96.007,56.437 L95.614,55.517 Z M83.701,34.034 L95.368,56.209 L96.253,55.745 L84.586,33.568 L83.701,34.034 Z M62.914,69.48 C62.66,69.588 62.542,69.882 62.65,70.136 C62.759,70.39 63.052,70.508 63.306,70.4 L62.914,69.48 Z M95.81,55.977 L96.007,56.437 C96.135,56.382 96.235,56.276 96.282,56.144 C96.329,56.013 96.318,55.868 96.253,55.745 L95.81,55.977 Z M84.586,33.568 C84.458,33.324 84.155,33.23 83.911,33.358 C83.667,33.487 83.572,33.789 83.701,34.034 L84.586,33.568 Z" id="Fill-5" fill="#0072FF"></path>
            <path d="M66.492,47.3783 L95.66,56.4123 L95.956,55.4573 L66.788,46.4233 L66.492,47.3783 Z M95.66,56.4123 C95.924,56.4943 96.204,56.3473 96.285,56.0833 C96.367,55.8193 96.22,55.5393 95.956,55.4573 L95.66,56.4123 Z M66.788,46.4233 C66.524,46.3413 66.244,46.4883 66.162,46.7523 C66.081,47.0163 66.228,47.2963 66.492,47.3783 L66.788,46.4233 Z" id="Fill-7" fill="#0072FF"></path>
            <g id="Group-11" transform="translate(0.000000, 15.949100)">
                <mask id="mask-2" fill="white">
                    <use xlink:href="#path-1"></use>
                </mask>
                <g id="Clip-10"></g>
                <path d="M0.1199,23.0522 L14.1699,39.4792 L14.9299,38.8282 L0.8799,22.4022 L0.1199,23.0522 Z M11.8079,0.3172 L0.0579,22.4922 L0.9419,22.9612 L12.6909,0.7852 L11.8079,0.3172 Z M14.1699,39.4792 C14.3489,39.6892 14.6649,39.7132 14.8749,39.5332 C15.0849,39.3542 15.1089,39.0382 14.9299,38.8282 L14.1699,39.4792 Z M0.4999,22.7272 L0.0579,22.4922 C-0.0381,22.6742 -0.0131,22.8962 0.1199,23.0522 L0.4999,22.7272 Z M12.6909,0.7852 C12.8199,0.5412 12.7269,0.2382 12.4829,0.1092 C12.2389,-0.0198 11.9359,0.0732 11.8079,0.3172 L12.6909,0.7852 Z" id="Fill-9" fill="#0072FF" mask="url(#mask-2)"></path>
            </g>
            <g id="Group-14" transform="translate(9.000000, 0.949100)">
                <mask id="mask-4" fill="white">
                    <use xlink:href="#path-3"></use>
                </mask>
                <g id="Clip-13"></g>
                <path d="M48.2049,70.4126 L48.2049,24.9366 L48.2049,24.3666 L47.7139,24.0766 L38.2659,18.4906 L37.7579,18.1906 L37.2499,18.4896 L27.8839,23.9926 L27.3909,24.2826 L27.3909,24.8546 L27.3909,70.4376 C13.1289,66.0206 2.7699,52.7326 2.7699,37.0256 C2.7699,17.7096 18.4339,2.0506 37.7569,2.0506 C57.0799,2.0506 72.7439,17.7096 72.7439,37.0256 C72.7439,52.7036 62.4249,65.9716 48.2049,70.4126 Z M46.2049,70.9676 C43.8109,71.5606 41.3199,71.9026 38.7599,71.9746 L38.7599,21.1066 L46.2049,25.5076 L46.2049,70.9676 Z M29.3909,25.4266 L36.7599,21.0966 L36.7599,71.9746 C34.2259,71.9036 31.7609,71.5676 29.3909,70.9856 L29.3909,25.4266 Z M37.7569,0.0506 C17.3299,0.0506 0.7699,16.6046 0.7699,37.0256 C0.7699,57.4466 17.3299,74.0006 37.7569,74.0006 C58.1839,74.0006 74.7439,57.4466 74.7439,37.0256 C74.7439,16.6046 58.1839,0.0506 37.7569,0.0506 Z" id="Fill-12" fill="#92A4BA" mask="url(#mask-4)"></path>
            </g>
        </g>
    </g>
</svg>