<?xml version="1.0" encoding="UTF-8"?>
<svg width="100px" height="100px" viewBox="0 0 100 100" version="1.1" xmlns="http://www.w3.org/2000/svg" xmlns:xlink="http://www.w3.org/1999/xlink">
    <!-- Generator: Sketch 49.3 (51167) - http://www.bohemiancoding.com/sketch -->
    <title>icObelisk</title>
    <desc>Created with Sketch.</desc>
    <defs></defs>
    <g id="icObelisk" stroke="none" stroke-width="1" fill="none" fill-rule="evenodd">
        <g transform="translate(5.000000, 5.000000)" fill-rule="nonzero">
            <path d="M45,20.3 C44.7,20.3 44.5,20.1 44.5,19.8 L44.5,1.8 C44.5,1.5 44.7,1.3 45,1.3 C45.3,1.3 45.5,1.5 45.5,1.8 L45.5,19.8 C45.5,20.1 45.3,20.3 45,20.3 Z" id="Shape" fill="#0072FF"></path>
            <path d="M55.7,49.9 C55.6,49.9 55.5,49.9 55.5,49.8 C55.3,49.7 55.2,49.4 55.3,49.1 L74.9,12.7 C75,12.5 75.3,12.4 75.6,12.5 C75.8,12.6 75.9,12.9 75.8,13.2 L56.1,49.7 C56,49.8 55.9,49.9 55.7,49.9 Z" id="Shape" fill="#0072FF"></path>
            <path d="M34.8,50.7 C34.6,50.7 34.4,50.6 34.4,50.4 L14.9,13.9 C14.8,13.7 14.9,13.4 15.1,13.2 C15.3,13.1 15.6,13.2 15.8,13.4 L35.2,50 C35.3,50.2 35.2,50.5 35,50.7 C35,50.7 34.9,50.7 34.8,50.7 Z" id="Shape" fill="#0072FF"></path>
            <path d="M57,63.3 C56.8,63.3 56.7,63.2 56.6,63 C56.5,62.8 56.6,62.5 56.8,62.3 L88.8,44.9 C89,44.8 89.3,44.9 89.5,45.1 C89.6,45.3 89.5,45.6 89.3,45.8 L57.3,63.2 C57.2,63.3 57.1,63.3 57,63.3 Z" id="Shape" fill="#0072FF"></path>
            <path d="M33.5,63.5 C33.4,63.5 33.3,63.5 33.3,63.4 L1.3,45.8 C1,45.7 0.9,45.4 1,45.2 C1.1,45 1.4,44.9 1.7,45 L33.7,62.6 C33.9,62.7 34,63 33.9,63.3 C33.9,63.4 33.7,63.5 33.5,63.5 Z" id="Shape" fill="#0072FF"></path>
            <path d="M74.8,79.1 C74.8,79.1 74.7,79.1 74.6,79.1 L57.9,73.8 C57.6,73.7 57.5,73.4 57.6,73.2 C57.7,72.9 58,72.8 58.2,72.9 L74.9,78.2 C75.2,78.3 75.3,78.6 75.2,78.8 C75.2,78.9 75,79.1 74.8,79.1 Z" id="Shape" fill="#0072FF"></path>
            <path d="M15.7,79.1 C15.5,79.1 15.3,79 15.2,78.8 C15.1,78.5 15.3,78.3 15.5,78.2 L32.2,72.9 C32.5,72.8 32.7,73 32.8,73.2 C32.9,73.5 32.7,73.7 32.5,73.8 L15.9,79 C15.8,79.1 15.8,79.1 15.7,79.1 Z" id="Shape" fill="#0072FF"></path>
            <polygon id="Shape" fill="#92A4BA" points="58.5 87.5 52.2 26.9 45.2 21.5 38.4 26.8 32.1 87.3 30.1 87.1 36.5 25.7 45.2 19 54.1 25.8 60.5 87.3"></polygon>
            <rect id="Rectangle-path" fill="#92A4BA" x="44.2" y="20.2" width="2" height="68.7"></rect>
            <path d="M45.2,90.2 C20.5,90.2 0.4,70.1 0.4,45.4 C0.4,20.7 20.5,0.6 45.2,0.6 C69.9,0.7 90,20.7 90,45.4 C90,70.1 69.9,90.2 45.2,90.2 Z M45.2,2.7 C21.7,2.7 2.5,21.8 2.5,45.4 C2.5,69 21.7,88.2 45.3,88.2 C68.9,88.2 88,69 88,45.4 C88,21.8 68.8,2.7 45.2,2.7 Z" id="Shape" fill="#92A4BA"></path>
        </g>
    </g>
</svg>