<?xml version="1.0" encoding="utf-8"?>
<!-- Generator: Adobe Illustrator 15.1.0, SVG Export Plug-In . SVG Version: 6.00 Build 0)  -->
<!DOCTYPE svg PUBLIC "-//W3C//DTD SVG 1.1//EN" "http://www.w3.org/Graphics/SVG/1.1/DTD/svg11.dtd">
<svg version="1.1" id="Слой_1" xmlns="http://www.w3.org/2000/svg" xmlns:xlink="http://www.w3.org/1999/xlink" x="0px" y="0px"
	 width="100px" height="100px" viewBox="0 0 100 100" enable-background="new 0 0 100 100" xml:space="preserve">
<title>icObelisk</title>
<desc>Created with Sketch.</desc>
<path id="Shape" fill="#0072FF" d="M50.361,28.027c-0.276,0-0.461-0.185-0.461-0.461V9.84c0-0.276,0.185-0.463,0.461-0.463
	c0.277,0,0.461,0.187,0.461,0.463v17.726C50.822,27.842,50.639,28.027,50.361,28.027z"/>
<path id="Shape_1_" fill="#0072FF" d="M61.163,54.245c-0.094,0-0.19,0-0.19-0.088c-0.181-0.093-0.272-0.375-0.181-0.647
	L77.78,20.368c0.092-0.184,0.369-0.276,0.642-0.184c0.188,0.092,0.276,0.369,0.188,0.647L61.532,54.064
	C61.444,54.157,61.348,54.245,61.163,54.245z"/>
<path id="Shape_2_" fill="#0072FF" d="M39.746,54.157c-0.187,0-0.371-0.093-0.371-0.277L22.574,21.015
	c-0.092-0.184,0-0.463,0.185-0.647c0.184-0.092,0.463,0,0.647,0.185L40.115,53.51c0.092,0.18,0,0.459-0.186,0.647
	C39.93,54.157,39.838,54.157,39.746,54.157z"/>
<path id="Shape_3_" fill="#0072FF" d="M61.717,66.61c-0.185,0-0.272-0.088-0.369-0.272s0-0.461,0.185-0.642l28.894-15.791
	c0.185-0.092,0.464,0,0.647,0.185c0.093,0.185,0,0.463-0.184,0.647l-28.9,15.785C61.901,66.61,61.813,66.61,61.717,66.61z"/>
<path id="Shape_4_" fill="#0072FF" d="M39.283,66.799c-0.093,0-0.186,0-0.186-0.092l-29.08-16.248
	c-0.276-0.093-0.369-0.369-0.276-0.554s0.371-0.276,0.647-0.185l29.078,16.248c0.188,0.093,0.279,0.369,0.188,0.642
	C39.654,66.707,39.467,66.799,39.283,66.799z"/>
<path id="Shape_5_" fill="#0072FF" d="M77.036,81.201c0,0-0.088,0-0.18,0l-14.679-4.894c-0.276-0.088-0.369-0.368-0.276-0.553
	c0.088-0.272,0.368-0.369,0.553-0.272l14.679,4.893c0.272,0.088,0.369,0.369,0.272,0.549C77.405,81.017,77.225,81.201,77.036,81.201
	z"/>
<path id="Shape_6_" fill="#0072FF" d="M23.959,81.201c-0.185,0-0.369-0.089-0.461-0.277c-0.092-0.272,0.092-0.457,0.277-0.549
	l14.586-4.893c0.276-0.093,0.461,0.088,0.553,0.272c0.092,0.272-0.092,0.461-0.277,0.553l-14.494,4.801
	C24.051,81.201,24.051,81.201,23.959,81.201z"/>
<path id="Shape_8_" fill="#92A4BA" d="M50.546,91.443c-22.803,0-41.358-18.555-41.358-41.354c0-22.803,18.555-41.358,41.358-41.358
	C73.353,8.824,91.903,27.287,91.903,50.09C91.903,72.889,73.353,91.443,50.546,91.443z M50.546,10.67
	c-21.694,0-39.419,17.633-39.419,39.419c0,21.782,17.725,39.512,39.512,39.512c21.785,0,39.419-17.729,39.419-39.512
	C90.058,28.303,72.332,10.67,50.546,10.67z"/>
<path fill="#92A4BA" d="M61.989,88.305l-2.494-49.939l-8.954-9.786l-9.045,9.786l-2.49,49.939l-1.846-0.089l2.494-50.311
	c0-0.185,0.092-0.461,0.275-0.555l9.879-10.708c0.184-0.184,0.461-0.276,0.645-0.276c0.277,0,0.461,0.092,0.646,0.276l9.877,10.708
	c0.19,0.186,0.279,0.371,0.279,0.555l2.491,50.311L61.989,88.305z"/>
<path fill="#92A4BA" d="M50.453,44.828c-0.184,0-0.368,0-0.461-0.092l-9.97-5.909c-0.276-0.185-0.368-0.369-0.463-0.646
	c0-0.276,0.095-0.553,0.278-0.737l9.971-10.802c0.276-0.276,0.645-0.369,1.014-0.276c0.371,0.092,0.555,0.461,0.555,0.83v16.617
	c0,0.371-0.184,0.647-0.463,0.832C50.822,44.736,50.639,44.828,50.453,44.828z M41.961,37.813l7.568,4.524v-12.74L41.961,37.813z"/>
<path fill="#92A4BA" d="M50.453,44.828c-0.184,0-0.276,0-0.461-0.092c-0.276-0.185-0.463-0.461-0.463-0.83V27.287
	c0-0.369,0.279-0.738,0.556-0.83c0.368-0.092,0.737,0,1.015,0.276l9.877,10.71c0.19,0.184,0.279,0.461,0.279,0.737
	c0,0.277-0.187,0.553-0.459,0.646l-9.879,5.909C50.822,44.736,50.639,44.828,50.453,44.828z M51.377,29.596v12.646l7.473-4.522
	L51.377,29.596z"/>
<rect x="49.529" y="43.906" fill="#92A4BA" width="1.848" height="46.896"/>
</svg>
