<?xml version="1.0" encoding="UTF-8"?>
<svg width="100px" height="100px" viewBox="0 0 100 100" version="1.1" xmlns="http://www.w3.org/2000/svg" xmlns:xlink="http://www.w3.org/1999/xlink">
    <!-- Generator: Sketch 49.1 (51147) - http://www.bohemiancoding.com/sketch -->
    <title>icSkyVPN</title>
    <desc>Created with Sketch.</desc>
    <defs>
        <polygon id="path-1" points="0 66.9769 84.998 66.9769 84.998 -0.0001 0 -0.0001"></polygon>
    </defs>
    <g id="icSkyVPN" stroke="none" stroke-width="1" fill="none" fill-rule="evenodd">
        <g id="Page-1" transform="translate(8.000000, 17.000000)">
            <path d="M44.2403,65.5053 C40.0013,65.5053 35.9073,64.6143 32.2593,63.1293 L31.8823,64.0553 C35.6403,65.5863 39.8623,66.5053 44.2403,66.5053 L44.2403,65.5053 Z M73.9953,42.8683 C70.4253,55.9313 58.4483,65.5053 44.2403,65.5053 L44.2403,66.5053 C58.9083,66.5053 71.2723,56.6203 74.9593,43.1323 L73.9953,42.8683 Z M32.2593,63.1293 C32.0033,63.0253 31.7113,63.1483 31.6073,63.4033 C31.5033,63.6593 31.6263,63.9503 31.8823,64.0553 L32.2593,63.1293 Z M74.9593,43.1323 C75.0323,42.8653 74.8753,42.5903 74.6093,42.5183 C74.3433,42.4443 74.0673,42.6023 73.9953,42.8683 L74.9593,43.1323 Z" id="Fill-1" fill="#0072FF"></path>
            <path d="M44.1622,3.8007 C52.4212,3.8007 59.8582,6.9917 65.4382,12.2627 L66.1252,11.5357 C60.3662,6.0967 52.6852,2.8007 44.1622,2.8007 L44.1622,3.8007 Z M23.1102,12.1147 C28.6172,6.9917 36.0562,3.8007 44.1622,3.8007 L44.1622,2.8007 C35.7902,2.8007 28.1112,6.0967 22.4302,11.3827 L23.1102,12.1147 Z M65.4382,12.2627 C65.6402,12.4527 65.9562,12.4437 66.1452,12.2427 C66.3352,12.0427 66.3262,11.7257 66.1252,11.5357 L65.4382,12.2627 Z M22.4302,11.3827 C22.2272,11.5707 22.2162,11.8867 22.4042,12.0897 C22.5922,12.2917 22.9082,12.3027 23.1102,12.1147 L22.4302,11.3827 Z" id="Fill-3" fill="#0072FF"></path>
            <path d="M13.2901,34.6513 C13.2901,31.5313 13.7361,28.5653 14.6271,25.7503 L13.6741,25.4483 C12.7511,28.3663 12.2901,31.4343 12.2901,34.6513 L13.2901,34.6513 Z M14.6271,25.7503 C14.7111,25.4873 14.5641,25.2063 14.3021,25.1233 C14.0381,25.0393 13.7571,25.1853 13.6741,25.4483 L14.6271,25.7503 Z M12.2901,34.6513 C12.2901,34.9273 12.5141,35.1513 12.7901,35.1513 C13.0661,35.1513 13.2901,34.9273 13.2901,34.6513 L12.2901,34.6513 Z" id="Fill-5" fill="#0072FF"></path>
            <mask id="mask-2" fill="white">
                <use xlink:href="#path-1"></use>
            </mask>
            <g id="Clip-8"></g>
            <path d="M2,64.9769 L31.068,64.9769 L31.068,35.9009 L2,35.9009 L2,64.9769 Z M32.068,33.8999 L1,33.8999 L0,33.8999 L0,34.9009 L0,65.9769 L0,66.9769 L1,66.9769 L32.068,66.9769 L33.068,66.9769 L33.068,65.9769 L33.068,34.9009 L33.068,33.8999 L32.068,33.8999 Z" id="Fill-7" fill="#92A4BA" mask="url(#mask-2)"></path>
            <path d="M8.06,59.4789 L9.06,59.4789 L9.06,41.3009 L8.06,41.3009 L8.06,59.4789 Z M9.06,41.3009 C9.06,41.0249 8.836,40.8009 8.56,40.8009 C8.284,40.8009 8.06,41.0249 8.06,41.3009 L9.06,41.3009 Z M8.06,59.4789 C8.06,59.7549 8.284,59.9789 8.56,59.9789 C8.836,59.9789 9.06,59.7549 9.06,59.4789 L8.06,59.4789 Z" id="Fill-9" fill="#0072FF" mask="url(#mask-2)"></path>
            <path d="M15.62,59.4789 L16.62,59.4789 L16.62,41.3009 L15.62,41.3009 L15.62,59.4789 Z M16.62,41.3009 C16.62,41.0249 16.397,40.8009 16.12,40.8009 C15.844,40.8009 15.62,41.0249 15.62,41.3009 L16.62,41.3009 Z M15.62,59.4789 C15.62,59.7549 15.844,59.9789 16.12,59.9789 C16.397,59.9789 16.62,59.7549 16.62,59.4789 L15.62,59.4789 Z" id="Fill-10" fill="#0072FF" mask="url(#mask-2)"></path>
            <path d="M23.18,59.4789 L24.18,59.4789 L24.18,41.3009 L23.18,41.3009 L23.18,59.4789 Z M24.18,41.3009 C24.18,41.0249 23.956,40.8009 23.68,40.8009 C23.403,40.8009 23.18,41.0249 23.18,41.3009 L24.18,41.3009 Z M23.18,59.4789 C23.18,59.7549 23.403,59.9789 23.68,59.9789 C23.956,59.9789 24.18,59.7549 24.18,59.4789 L23.18,59.4789 Z" id="Fill-11" fill="#0072FF" mask="url(#mask-2)"></path>
            <path d="M53.93,41.8769 L82.998,41.8769 L82.998,12.7999 L53.93,12.7999 L53.93,41.8769 Z M83.998,10.8009 L52.93,10.8009 L51.93,10.8009 L51.93,11.8009 L51.93,42.8769 L51.93,43.8769 L52.93,43.8769 L83.998,43.8769 L84.998,43.8769 L84.998,42.8769 L84.998,11.8009 L84.998,10.8009 L83.998,10.8009 Z" id="Fill-12" fill="#92A4BA" mask="url(#mask-2)"></path>
            <path d="M60.07,36.4789 L61.07,36.4789 L61.07,18.3009 L60.07,18.3009 L60.07,36.4789 Z M61.07,18.3009 C61.07,18.0249 60.847,17.8009 60.57,17.8009 C60.294,17.8009 60.07,18.0249 60.07,18.3009 L61.07,18.3009 Z M60.07,36.4789 C60.07,36.7549 60.294,36.9789 60.57,36.9789 C60.847,36.9789 61.07,36.7549 61.07,36.4789 L60.07,36.4789 Z" id="Fill-13" fill="#0072FF" mask="url(#mask-2)"></path>
            <path d="M67.63,36.4789 L68.63,36.4789 L68.63,18.3009 L67.63,18.3009 L67.63,36.4789 Z M68.63,18.3009 C68.63,18.0249 68.406,17.8009 68.13,17.8009 C67.854,17.8009 67.63,18.0249 67.63,18.3009 L68.63,18.3009 Z M67.63,36.4789 C67.63,36.7549 67.854,36.9789 68.13,36.9789 C68.406,36.9789 68.63,36.7549 68.63,36.4789 L67.63,36.4789 Z" id="Fill-14" fill="#0072FF" mask="url(#mask-2)"></path>
            <path d="M75.18,36.4789 L76.18,36.4789 L76.18,18.3009 L75.18,18.3009 L75.18,36.4789 Z M76.18,18.3009 C76.18,18.0249 75.956,17.8009 75.68,17.8009 C75.403,17.8009 75.18,18.0249 75.18,18.3009 L76.18,18.3009 Z M75.18,36.4789 C75.18,36.7549 75.403,36.9789 75.68,36.9789 C75.956,36.9789 76.18,36.7549 76.18,36.4789 L75.18,36.4789 Z" id="Fill-15" fill="#0072FF" mask="url(#mask-2)"></path>
            <path d="M45.2999,7.5429 C47.3869,7.5429 49.0789,5.8549 49.0789,3.7719 C49.0789,1.6889 47.3869,-0.0001 45.2999,-0.0001 C43.2119,-0.0001 41.5199,1.6889 41.5199,3.7719 C41.5199,5.8549 43.2119,7.5429 45.2999,7.5429" id="Fill-16" fill="#0072FF" mask="url(#mask-2)"></path>
            <path d="M67.9698,58.0424 C70.0568,58.0424 71.7488,56.3544 71.7488,54.2714 C71.7488,52.1884 70.0568,50.5004 67.9698,50.5004 C65.8818,50.5004 64.1898,52.1884 64.1898,54.2714 C64.1898,56.3544 65.8818,58.0424 67.9698,58.0424" id="Fill-17" fill="#0072FF" mask="url(#mask-2)"></path>
            <path d="M19.4464,25.2987 L17.2544,25.2987 C14.3274,25.2987 11.9794,22.9537 11.9794,20.0377 L11.9794,14.4007 L24.7204,14.4007 L24.7204,20.0377 C24.7204,22.9457 22.3054,25.2987 19.4464,25.2987 Z M14.7004,8.4017 C14.7004,6.4567 16.3014,4.8007 18.3114,4.8007 C20.2654,4.8007 21.9224,6.4027 21.9224,8.4017 L21.9224,12.4007 L14.7004,12.4007 L14.7004,8.4017 Z M25.7204,12.4007 L23.9224,12.4007 L23.9224,8.4017 C23.9224,5.2727 21.3444,2.8007 18.3114,2.8007 C15.1794,2.8007 12.7004,5.3687 12.7004,8.4017 L12.7004,12.4007 L10.9794,12.4007 L9.9794,12.4007 L9.9794,13.4007 L9.9794,20.0377 C9.9794,24.0617 13.2264,27.2987 17.2544,27.2987 L19.4464,27.2987 C23.3904,27.2987 26.7204,24.0697 26.7204,20.0377 L26.7204,13.4007 L26.7204,12.4007 L25.7204,12.4007 Z" id="Fill-18" fill="#92A4BA" mask="url(#mask-2)"></path>
        </g>
    </g>
</svg>