<?xml version="1.0" encoding="UTF-8"?>
<svg width="100px" height="100px" viewBox="0 0 100 100" version="1.1" xmlns="http://www.w3.org/2000/svg" xmlns:xlink="http://www.w3.org/1999/xlink">
    <!-- Generator: Sketch 49.1 (51147) - http://www.bohemiancoding.com/sketch -->
    <title>icSkyMessenger</title>
    <desc>Created with Sketch.</desc>
    <defs>
        <polygon id="path-1" points="0 0.0004 65.5905 0.0004 65.5905 75.293 0 75.293"></polygon>
    </defs>
    <g id="icSkyMessenger" stroke="none" stroke-width="1" fill="none" fill-rule="evenodd">
        <g id="Page-1" transform="translate(17.000000, 12.000000)">
            <mask id="mask-2" fill="white">
                <use xlink:href="#path-1"></use>
            </mask>
            <g id="Clip-2"></g>
            <path d="M12.75,30.3004 L41.178,30.3004 L41.178,29.3004 L12.75,29.3004 L12.75,30.3004 Z M41.178,30.3004 C41.454,30.3004 41.678,30.0774 41.678,29.8004 C41.678,29.5244 41.454,29.3004 41.178,29.3004 L41.178,30.3004 Z M12.75,29.3004 C12.474,29.3004 12.25,29.5244 12.25,29.8004 C12.25,30.0774 12.474,30.3004 12.75,30.3004 L12.75,29.3004 Z" id="Fill-1" fill="#0072FF" mask="url(#mask-2)"></path>
            <path d="M12.75,39.6004 L41.178,39.6004 L41.178,38.6004 L12.75,38.6004 L12.75,39.6004 Z M41.178,39.6004 C41.454,39.6004 41.678,39.3754 41.678,39.1004 C41.678,38.8234 41.454,38.5994 41.178,38.5994 L41.178,39.6004 Z M12.75,38.5994 C12.474,38.5994 12.25,38.8234 12.25,39.1004 C12.25,39.3754 12.474,39.6004 12.75,39.6004 L12.75,38.5994 Z" id="Fill-3" fill="#0072FF" mask="url(#mask-2)"></path>
            <path d="M12.75,48.9004 L41.178,48.9004 L41.178,47.9004 L12.75,47.9004 L12.75,48.9004 Z M41.178,48.9004 C41.454,48.9004 41.678,48.6764 41.678,48.4004 C41.678,48.1244 41.454,47.9004 41.178,47.9004 L41.178,48.9004 Z M12.75,47.9004 C12.474,47.9004 12.25,48.1244 12.25,48.4004 C12.25,48.6764 12.474,48.9004 12.75,48.9004 L12.75,47.9004 Z" id="Fill-4" fill="#0072FF" mask="url(#mask-2)"></path>
            <path d="M55.8086,26.432 L53.8246,26.681 C53.9076,27.348 53.9806,27.943 53.9806,28.528 L53.9806,49.061 C53.9806,53.765 50.1566,57.588 45.4496,57.588 L27.9496,57.588 L27.5356,57.588 L27.2426,57.881 L27.9496,58.588 L27.2426,57.881 L14.6536,70.466 L14.6536,58.588 L14.6536,57.588 L13.6536,57.588 L10.5316,57.588 C5.8246,57.588 1.9996,53.765 1.9996,49.061 L1.9996,28.528 C1.9996,23.824 5.8246,20 10.5316,20 L45.4496,20 C46.1516,20 46.8796,20.141 47.6156,20.305 L48.0486,18.352 C47.3066,18.187 46.3906,18 45.4496,18 L10.5316,18 C4.7206,18 -0.0004,22.718 -0.0004,28.528 L-0.0004,49.061 C-0.0004,54.87 4.7206,59.588 10.5316,59.588 L12.6536,59.588 L12.6536,72.879 L12.6536,75.293 L14.3606,73.587 L28.3636,59.588 L45.4496,59.588 C51.2596,59.588 55.9806,54.87 55.9806,49.061 L55.9806,28.528 C55.9806,27.798 55.8896,27.078 55.8086,26.432" id="Fill-5" fill="#92A4BA" mask="url(#mask-2)"></path>
            <path d="M57.7715,25.6024 L54.6495,25.6024 C51.4215,25.6024 48.8305,23.0104 48.8305,19.7854 L48.8305,12.9004 L63.5905,12.9004 L63.5905,19.7854 C63.5905,22.9364 60.9915,25.6024 57.7715,25.6024 Z M51.9505,6.1744 C51.9505,3.8524 53.8025,1.9994 56.1255,1.9994 C58.4505,1.9994 60.3025,3.8524 60.3025,6.1744 L60.3025,10.9004 L51.9505,10.9004 L51.9505,6.1744 Z M64.5905,10.9004 L62.3025,10.9004 L62.3025,6.1744 C62.3025,2.7474 59.5535,-0.0006 56.1255,-0.0006 C52.6985,-0.0006 49.9505,2.7474 49.9505,6.1744 L49.9505,10.9004 L47.8305,10.9004 C47.2775,10.9004 46.8305,11.3484 46.8305,11.9004 L46.8305,19.7854 C46.8305,24.1164 50.3185,27.6024 54.6495,27.6024 L57.7715,27.6024 C62.1115,27.6024 65.5905,24.0264 65.5905,19.7854 L65.5905,11.9004 C65.5905,11.3484 65.1435,10.9004 64.5905,10.9004 Z" id="Fill-6" fill="#0072FF" mask="url(#mask-2)"></path>
        </g>
    </g>
</svg>