<?xml version="1.0" encoding="UTF-8"?>
<svg width="100px" height="100px" viewBox="0 0 100 100" version="1.1" xmlns="http://www.w3.org/2000/svg" xmlns:xlink="http://www.w3.org/1999/xlink">
    <!-- Generator: Sketch 49.1 (51147) - http://www.bohemiancoding.com/sketch -->
    <title>icSkyminer</title>
    <desc>Created with Sketch.</desc>
    <defs>
        <polygon id="path-1" points="0 0.0003 56.884 0.0003 56.884 68.5283 0 68.5283"></polygon>
    </defs>
    <g id="icSkyminer" stroke="none" stroke-width="1" fill="none" fill-rule="evenodd">
        <g id="Page-1" transform="translate(22.000000, 16.000000)">
            <mask id="mask-2" fill="white">
                <use xlink:href="#path-1"></use>
            </mask>
            <g id="Clip-2"></g>
            <path d="M8.06,57.3853 L9.06,57.3853 L9.06,25.5993 L8.06,25.5993 L8.06,57.3853 Z M8.56,57.8853 L33.866,57.8853 L33.866,56.8853 L8.56,56.8853 L8.56,57.8853 Z M33.366,57.3853 L34.366,57.3853 L34.366,25.5993 L33.366,25.5993 L33.366,57.3853 Z M8.56,26.0993 L33.866,26.0993 L33.866,25.0993 L8.56,25.0993 L8.56,26.0993 Z M8.56,57.3853 L8.06,57.3853 C8.06,57.6623 8.284,57.8853 8.56,57.8853 L8.56,57.3853 Z M33.866,57.3853 L33.866,57.8853 C34.142,57.8853 34.366,57.6623 34.366,57.3853 L33.866,57.3853 Z M33.866,25.5993 L34.366,25.5993 C34.366,25.3233 34.142,25.0993 33.866,25.0993 L33.866,25.5993 Z M8.56,25.5993 L8.56,25.0993 C8.284,25.0993 8.06,25.3233 8.06,25.5993 L8.56,25.5993 Z" id="Fill-1" fill="#0072FF" mask="url(#mask-2)"></path>
            <path d="M33.861,50.4853 L41.256,50.4853 L41.256,49.4853 L33.861,49.4853 L33.861,50.4853 Z M40.756,49.9853 L41.756,49.9853 L41.756,18.1993 L40.756,18.1993 L40.756,49.9853 Z M15.95,18.6993 L41.256,18.6993 L41.256,17.6993 L15.95,17.6993 L15.95,18.6993 Z M15.45,25.4273 L16.45,25.4273 L16.45,18.1993 L15.45,18.1993 L15.45,25.4273 Z M33.861,49.4853 C33.585,49.4853 33.361,49.7093 33.361,49.9853 C33.361,50.2613 33.585,50.4853 33.861,50.4853 L33.861,49.4853 Z M41.256,49.9853 L41.256,50.4853 C41.532,50.4853 41.756,50.2613 41.756,49.9853 L41.256,49.9853 Z M41.256,18.1993 L41.756,18.1993 C41.756,17.9233 41.532,17.6993 41.256,17.6993 L41.256,18.1993 Z M15.95,18.1993 L15.95,17.6993 C15.674,17.6993 15.45,17.9233 15.45,18.1993 L15.95,18.1993 Z M15.45,25.4273 C15.45,25.7033 15.674,25.9273 15.95,25.9273 C16.226,25.9273 16.45,25.7033 16.45,25.4273 L15.45,25.4273 Z" id="Fill-3" fill="#0072FF" mask="url(#mask-2)"></path>
            <path d="M41.176,43.1043 L48.736,43.1043 L48.736,42.1043 L41.176,42.1043 L41.176,43.1043 Z M48.236,42.6043 L49.236,42.6043 L49.236,10.9003 L48.236,10.9003 L48.236,42.6043 Z M23.43,11.4003 L48.736,11.4003 L48.736,10.4003 L23.43,10.4003 L23.43,11.4003 Z M22.93,18.2103 L23.93,18.2103 L23.93,10.9003 L22.93,10.9003 L22.93,18.2103 Z M41.177,42.1043 C40.901,42.1043 40.677,42.3283 40.677,42.6043 C40.677,42.8803 40.901,43.1043 41.177,43.1043 L41.177,42.1043 Z M48.736,42.6043 L48.736,43.1043 C49.012,43.1043 49.236,42.8803 49.236,42.6043 L48.736,42.6043 Z M48.736,10.9003 L49.236,10.9003 C49.236,10.6243 49.012,10.4003 48.736,10.4003 L48.736,10.9003 Z M23.43,10.9003 L23.43,10.4003 C23.154,10.4003 22.93,10.6243 22.93,10.9003 L23.43,10.9003 Z M22.93,18.2103 C22.93,18.4863 23.154,18.7103 23.43,18.7103 C23.706,18.7103 23.93,18.4863 23.93,18.2103 L22.93,18.2103 Z" id="Fill-4" fill="#0072FF" mask="url(#mask-2)"></path>
            <path d="M22.2859,2.1624 L53.4289,2.0124 L34.1379,20.9994 L3.4409,20.9994 L22.2859,2.1624 Z M35.5219,22.4424 L54.8849,3.3854 L54.8849,45.7594 L35.5219,65.1154 L35.5219,22.4424 Z M1.9999,66.5274 L33.5219,66.5274 L33.5219,22.9994 L1.9999,22.9994 L1.9999,66.5274 Z M56.5899,0.2914 C56.4009,0.1034 56.1449,-0.0016 55.8799,-0.0006 L55.8849,0.9994 L55.8799,-0.0006 L21.8639,0.1644 L21.8689,1.1644 L21.8639,0.1644 C21.6009,0.1654 21.3489,0.2704 21.1619,0.4564 L0.2929,21.3194 C0.1049,21.5064 -0.0001,21.7614 -0.0001,22.0264 L-0.0001,67.5284 C-0.0001,68.0804 0.4479,68.5284 0.9999,68.5284 L34.5219,68.5284 C34.7869,68.5284 35.0419,68.4224 35.2289,68.2354 L56.5919,46.8804 L55.8849,46.1734 L56.5919,46.8804 C56.7789,46.6934 56.8849,46.4384 56.8849,46.1734 L56.8849,0.9994 C56.8849,0.7334 56.7779,0.4784 56.5899,0.2914 Z" id="Fill-5" fill="#92A4BA" mask="url(#mask-2)"></path>
        </g>
    </g>
</svg>