<?xml version="1.0" encoding="UTF-8"?>
<svg width="587px" height="411px" viewBox="0 0 587 411" version="1.1" xmlns="http://www.w3.org/2000/svg" xmlns:xlink="http://www.w3.org/1999/xlink">
    <!-- Generator: Sketch 49.1 (51147) - http://www.bohemiancoding.com/sketch -->
    <title>mail_1x</title>
    <desc>Created with Sketch.</desc>
    <defs></defs>
    <g id="Page-1" stroke="none" stroke-width="1" fill="none" fill-rule="evenodd">
        <g id="skycoin-web-ecosystem" transform="translate(-746.000000, -3350.000000)">
            <g id="mail_1x" transform="translate(673.000000, 3198.000000)">
                <g id="path0_stroke-link" transform="translate(349.290937, 352.582108) rotate(53.963052) translate(-349.290937, -352.582108) translate(91.290937, 108.582108)" fill="#92A4BA" fill-rule="nonzero">
                    <path d="M510.61921,45.0979148 L510.86921,45.0916148 L510.86421,44.9040148 L510.68321,44.8561148 L510.61921,45.0979148 Z M343.522165,1.0084029 L343.586165,0.766675836 L343.502165,0.74452283 L343.422165,0.779183839 L343.522165,1.0084029 Z M260.488142,37.1584127 L260.565143,37.3964127 L260.576143,37.3926127 L260.588143,37.3876127 L260.488142,37.1584127 Z M124.786106,487.006534 L124.567106,487.126534 L124.663106,487.301535 L124.856106,487.246534 L124.786106,487.006534 Z M510.68321,44.8561148 L343.586165,0.766675836 L343.458165,1.25012997 L510.55521,45.3396149 L510.68321,44.8561148 Z M343.422165,0.779183839 L260.388142,36.9292126 L260.588143,37.3876127 L343.622165,1.23762196 L343.422165,0.779183839 Z M260.411142,36.9204126 L132.292108,78.1424238 L132.446108,78.6184239 L260.565143,37.3964127 L260.411142,36.9204126 Z M0.722774095,257.891827 L124.567106,487.126534 L125.005106,486.885534 L1.16079221,257.650827 L0.722774095,257.891827 Z M124.856106,487.246534 L397.75818,408.297513 L397.61918,407.817513 L124.717106,486.766534 L124.856106,487.246534 Z M515.894212,245.919469 L510.86921,45.0916148 L510.36921,45.1041148 L515.394211,245.932469 L515.894212,245.919469 Z" id="path0_stroke"></path>
                </g>
                <g id="path1_stroke-link" transform="translate(491.681582, 406.635665) rotate(53.963052) translate(-491.681582, -406.635665) translate(365.681548, 282.135631)" fill="#92A4BA" fill-rule="nonzero">
                    <path d="M1.00000027,1.00000027 L1.0079316,0.750126203 L0.459007124,0.732702198 L0.806350218,1.15811331 L1.00000027,1.00000027 Z M202.923055,248.306067 L202.730055,248.465067 L203.064055,248.874067 L203.168055,248.356067 L202.923055,248.306067 Z M251.131068,8.93948242 L251.376068,8.98884243 L251.434068,8.69899235 L251.139068,8.68961235 L251.131068,8.93948242 Z M0.806350218,1.15811331 L202.730055,248.465067 L203.117055,248.148067 L1.19365032,0.841887228 L0.806350218,1.15811331 Z M203.168055,248.356067 L251.376068,8.98884243 L250.886068,8.89012241 L202.678055,248.257067 L203.168055,248.356067 Z M251.139068,8.68961235 L1.0079316,0.750126203 L0.992068938,1.24987434 L251.123068,9.18935249 L251.139068,8.68961235 Z" id="path1_stroke"></path>
                </g>
                <g id="path2_stroke-link" transform="translate(398.834861, 561.898614) rotate(53.963052) translate(-398.834861, -561.898614) translate(339.334861, 479.898614)" fill="#92A4BA" fill-rule="nonzero">
                    <path d="M65.5091706,39.4001657 L65.3819705,39.1849656 L65.3152705,39.2243656 L65.2825705,39.2946657 L65.5091706,39.4001657 Z M118.684002,0.359731297 L65.3819705,39.1849656 L65.6363706,39.6153657 L118.938503,0.790152414 L118.684002,0.359731297 Z M65.2825705,39.2946657 L0.283427863,163.049506 L0.736727985,163.260506 L65.7358706,39.5056657 L65.2825705,39.2946657 Z" id="path2_stroke"></path>
                </g>
                <g id="path3_stroke-link" transform="translate(255.537126, 465.072982) rotate(53.963052) translate(-255.537126, -465.072982) translate(85.537080, 362.572955)" fill="#92A4BA" fill-rule="nonzero">
                    <path d="M1.00000027,203.541055 L0.754059204,203.496055 L0.654918177,204.040055 L1.12860831,203.756055 L1.00000027,203.541055 Z M338.625092,1.00001058 L338.754092,1.21439333 L339.554092,0.734369199 L338.621092,0.750046203 L338.625092,1.00001058 Z M37.02711,6.06777164 L37.02291,5.81780157 L36.81791,5.82124158 L36.78111,6.02290163 L37.02711,6.06777164 Z M1.12860831,203.756055 L338.754092,1.21439333 L338.497092,0.785628213 L0.871392236,203.327055 L1.12860831,203.756055 Z M338.621092,0.750046203 L37.02291,5.81780157 L37.03131,6.31773171 L338.629092,1.24997534 L338.621092,0.750046203 Z M36.78111,6.02290163 L0.754059204,203.496055 L1.24594134,203.586055 L37.2730101,6.11263165 L36.78111,6.02290163 Z" id="path3_stroke"></path>
                </g>
                <g id="path4_stroke-link" transform="translate(339.857375, 202.245254) rotate(53.963052) translate(-339.857375, -202.245254) translate(209.357375, 75.245254)" fill="#92A4BA" fill-rule="nonzero">
                    <path d="M246.409067,34.5550088 L246.177067,34.4603087 L246.176067,34.4636087 L246.409067,34.5550088 Z M160.455044,253.374068 L160.406044,253.619068 L160.611044,253.660068 L160.688044,253.466068 L160.455044,253.374068 Z M1.00000084,221.443059 L0.8380108,221.252059 L0.445090693,221.586059 L0.95091163,221.688059 L1.00000084,221.443059 Z M260.130071,0.999999672 L260.361071,1.0946219 L260.750071,0.144364441 L259.968071,0.809580621 L260.130071,0.999999672 Z M246.176067,34.4636087 L160.222044,253.283068 L160.688044,253.466068 L246.642067,34.6464088 L246.176067,34.4636087 Z M160.504044,253.129068 L1.04909006,221.197059 L0.95091163,221.688059 L160.406044,253.619068 L160.504044,253.129068 Z M1.16199089,221.633059 L260.292071,1.19041872 L259.968071,0.809580621 L0.8380108,221.252059 L1.16199089,221.633059 Z M259.898071,0.905377447 L246.177067,34.4604087 L246.640067,34.6496088 L260.361071,1.0946219 L259.898071,0.905377447 Z" id="path4_stroke"></path>
                </g>
                <path d="M186.837402,152.932129 L409.19989,153.601135" id="Line-3" stroke="#92A4BA" stroke-width="0.5" stroke-linecap="square"></path>
                <g id="Vector" transform="translate(217.000000, 252.000000)" fill-rule="nonzero">
                    <g id="path5_fill-link" transform="translate(1.800000, 1.100000)" fill="#FFFFFF">
                        <path d="M257,105.458 L257,125.725 L126.716,199.924 C121.537,202.901 115.552,202.099 111.294,198.893 L7.48097,139.58 C3.10748,137.29 0,132.824 0,127.328 C0,111.641 8.4017,97.2137 22.0976,89.4275 L102.547,43.7405 C110.603,39.1603 117.624,32.7481 122.918,25.1908 L140.412,1.36499e-08 L246.296,60.5725 L256.309,73.5114 L240.312,95.7252 L257,105.458 Z" id="path5_fill"></path>
                    </g>
                    <g id="path6_stroke-link" transform="translate(0.800000, 0.100000)" fill="#0072FF">
                        <path d="M258,106.458 L258.5,106.458 L258.5,106.171 L258.252,106.026 L258,106.458 Z M258,126.725 L258.247,127.16 L258.5,127.016 L258.5,126.725 L258,126.725 Z M127.716,200.924 L127.469,200.489 L127.467,200.49 L127.716,200.924 Z M112.294,199.893 L112.595,199.494 L112.569,199.475 L112.542,199.459 L112.294,199.893 Z M8.48097,140.58 L8.72901,140.146 L8.72104,140.141 L8.71291,140.137 L8.48097,140.58 Z M23.0976,90.4275 L22.8507,89.9927 L22.8505,89.9928 L23.0976,90.4275 Z M103.547,44.7405 L103.794,45.1752 L103.794,45.1751 L103.547,44.7405 Z M123.918,26.1908 L124.328,26.4777 L124.329,26.476 L123.918,26.1908 Z M141.412,1.00000001 L141.66,0.565997 L141.263,0.338517 L141.001,0.714799 L141.412,1.00000001 Z M247.296,61.5725 L247.692,61.2665 L247.631,61.1879 L247.545,61.1385 L247.296,61.5725 Z M257.309,74.5114 L257.715,74.8036 L257.933,74.5007 L257.705,74.2054 L257.309,74.5114 Z M241.312,96.7252 L240.906,96.433 L240.584,96.8797 L241.06,97.1571 L241.312,96.7252 Z M257.5,106.458 L257.5,126.725 L258.5,126.725 L258.5,106.458 L257.5,106.458 Z M257.753,126.291 L127.469,200.489 L127.964,201.358 L258.247,127.16 L257.753,126.291 Z M127.467,200.49 C122.477,203.358 116.708,202.591 112.595,199.494 L111.993,200.293 C116.396,203.608 122.597,204.443 127.965,201.357 L127.467,200.49 Z M112.542,199.459 L8.72901,140.146 L8.23292,141.014 L112.046,200.327 L112.542,199.459 Z M8.71291,140.137 C4.4899,137.926 1.5,133.623 1.5,128.328 L0.5,128.328 C0.5,134.026 3.72505,138.654 8.24903,141.023 L8.71291,140.137 Z M1.5,128.328 C1.5,112.822 9.80462,98.5598 23.3447,90.8621 L22.8505,89.9928 C8.99879,97.8676 0.5,112.461 0.5,128.328 L1.5,128.328 Z M23.3445,90.8623 L103.794,45.1752 L103.3,44.3057 L22.8507,89.9927 L23.3445,90.8623 Z M103.794,45.1751 C111.915,40.5581 118.991,34.0953 124.328,26.4777 L123.509,25.904 C118.257,33.4009 111.291,39.7625 103.3,44.3058 L103.794,45.1751 Z M124.329,26.476 L141.823,1.285201 L141.001,0.714799 L123.507,25.9056 L124.329,26.476 Z M141.164,1.434003 L247.048,62.0065 L247.545,61.1385 L141.66,0.565997 L141.164,1.434003 Z M246.901,61.8785 L256.914,74.8175 L257.705,74.2054 L247.692,61.2665 L246.901,61.8785 Z M256.904,74.2192 L240.906,96.433 L241.717,97.0174 L257.715,74.8036 L256.904,74.2192 Z M241.06,97.1571 L257.748,106.89 L258.252,106.026 L241.564,96.2933 L241.06,97.1571 Z" id="path6_stroke"></path>
                    </g>
                </g>
                <g id="Vector" transform="translate(323.000000, 312.000000)" fill="#0072FF" fill-rule="nonzero">
                    <g id="path7_stroke-link" transform="translate(0.570000, 0.500000)">
                        <path d="M152.231,46 L152.481,46 L152.481,45.5711 L152.107,45.7825 L152.231,46 Z M23.6731,118.824 L23.5499,118.607 L23.5476,118.608 L23.6731,118.824 Z M24.4787,110.58 L24.5988,110.799 L24.6025,110.797 L24.4787,110.58 Z M109.301,62.2595 L109.178,62.0422 L109.178,62.0423 L109.301,62.2595 Z M129.673,43.9389 L129.875,44.0859 L129.875,44.0857 L129.673,43.9389 Z M151.425,13.9389 L151.627,14.0857 L151.737,13.9341 L151.623,13.7859 L151.425,13.9389 Z M141.412,0.999998253 L141.61,0.846995 L141.401,0.577416 L141.207,0.857398 L141.412,0.999998253 Z M123.918,26.1908 L123.713,26.0482 L123.712,26.0488 L123.918,26.1908 Z M103.547,44.7405 L103.425,44.5224 L103.423,44.5231 L103.547,44.7405 Z M23.0976,90.4275 L22.9742,90.2101 L22.9741,90.2101 L23.0976,90.4275 Z M152.481,66.2672 L152.481,46 L151.981,46 L151.981,66.2672 L152.481,66.2672 Z M152.107,45.7825 L23.5499,118.607 L23.7963,119.042 L152.354,46.2175 L152.107,45.7825 Z M23.5476,118.608 C22.3422,119.308 20.9307,118.413 20.9307,117.107 L20.4307,117.107 C20.4307,118.778 22.2418,119.944 23.7986,119.041 L23.5476,118.608 Z M20.9307,117.107 C20.9307,114.448 22.3789,112.014 24.5987,110.799 L24.3587,110.361 C21.9749,111.665 20.4307,114.27 20.4307,117.107 L20.9307,117.107 Z M24.6025,110.797 L109.425,62.4768 L109.178,62.0423 L24.355,110.363 L24.6025,110.797 Z M109.425,62.4769 C117.514,57.8784 124.446,51.5562 129.875,44.0859 L129.47,43.792 C124.081,51.2072 117.202,57.4804 109.178,62.0422 L109.425,62.4769 Z M129.875,44.0857 L151.627,14.0857 L151.223,13.7922 L129.47,43.7922 L129.875,44.0857 Z M151.623,13.7859 L141.61,0.846995 L141.214,1.153001 L151.227,14.0919 L151.623,13.7859 Z M141.207,0.857398 L123.713,26.0482 L124.123,26.3334 L141.617,1.142599 L141.207,0.857398 Z M123.712,26.0488 C118.44,33.6892 111.563,39.9609 103.425,44.5224 L103.669,44.9585 C111.874,40.3597 118.808,34.036 124.124,26.3328 L123.712,26.0488 Z M103.423,44.5231 L22.9742,90.2101 L23.2211,90.6449 L103.67,44.9579 L103.423,44.5231 Z M22.9741,90.2101 C9.20024,98.0407 0.750002,112.551 0.750002,128.328 L1.250002,128.328 C1.250002,112.731 9.60316,98.3868 23.2212,90.6448 L22.9741,90.2101 Z M0.750002,128.328 C0.750002,139.172 12.4683,145.929 21.9546,140.569 L21.7086,140.133 C12.5501,145.308 1.250002,138.782 1.250002,128.328 L0.750002,128.328 Z" id="path7_stroke"></path>
                    </g>
                </g>
                <g id="Vector" transform="translate(246.000000, 322.000000)" fill="#0072FF" fill-rule="nonzero">
                    <g id="path8_stroke-link" transform="translate(0.810000, 0.400000)">
                        <path d="M1.00000088,26.5343 L0.876145,26.3172 L0.50125,26.531 L0.873242,26.7498 L1.00000088,26.5343 Z M45.7707,1.00000087 L45.8966,0.783991 L45.772,0.711438 L45.6469,0.782838 L45.7707,1.00000087 Z M129.097,49.5496 L129.228,49.7629 L129.585,49.5444 L129.223,49.3336 L129.097,49.5496 Z M85.4774,76.229 L85.3506,76.4445 L85.4799,76.5205 L85.6078,76.4423 L85.4774,76.229 Z M1.123857,26.7515 L45.8946,1.217164 L45.6469,0.782838 L0.876145,26.3172 L1.123857,26.7515 Z M45.6449,1.21601 L128.971,49.7656 L129.223,49.3336 L45.8966,0.783991 L45.6449,1.21601 Z M128.967,49.3363 L85.3469,76.0157 L85.6078,76.4423 L129.228,49.7629 L128.967,49.3363 Z M85.6041,76.0135 L1.12676,26.3189 L0.873242,26.7498 L85.3506,76.4445 L85.6041,76.0135 Z" id="path8_stroke"></path>
                    </g>
                </g>
                <g id="Vector" transform="translate(294.000000, 299.000000)" fill="#0072FF" fill-rule="nonzero">
                    <g id="path9_stroke-link" transform="translate(0.460000, 0.200000)">
                        <path d="M49.2235,49.6641 L49.0985,49.8807 L49.2241,49.9531 L49.3493,49.8802 L49.2235,49.6641 Z M85.5925,28.4809 L85.7183,28.6969 L86.0915,28.4796 L85.7172,28.2642 L85.5925,28.4809 Z M37.8294,1 L37.9541,0.783307 L37.8304,0.712168 L37.7063,0.782418 L37.8294,1 Z M0.999998244,21.8397 L0.876881,21.6221 L0.496095,21.8376 L0.875057,22.0562 L0.999998244,21.8397 Z M49.3493,49.8802 L85.7183,28.6969 L85.4667,28.2649 L49.0976,49.4481 L49.3493,49.8802 Z M85.7172,28.2642 L37.9541,0.783307 L37.7047,1.216693 L85.4678,28.6976 L85.7172,28.2642 Z M37.7063,0.782418 L0.876881,21.6221 L1.123116,22.0573 L37.9525,1.217582 L37.7063,0.782418 Z M0.875057,22.0562 L49.0985,49.8807 L49.3484,49.4476 L1.12494,21.6232 L0.875057,22.0562 Z" id="path9_stroke"></path>
                    </g>
                </g>
                <g id="Vector" transform="translate(352.000000, 269.000000)" fill="#0072FF" fill-rule="nonzero">
                    <g id="path10_stroke-link" transform="translate(0.230000, 0.000000)">
                        <path d="M1.00000351,18.8626 L0.791083,18.7253 L0.647708,18.9435 L0.871864,19.0773 L1.00000351,18.8626 Z M12.7394,1.00000044 L12.8636,0.78304 L12.6596,0.666239 L12.5304,0.862697 L12.7394,1.00000044 Z M90.5414,45.542 L90.7518,45.6771 L90.894,45.4557 L90.6656,45.325 L90.5414,45.542 Z M78.1115,64.8931 L77.9834,65.1078 L78.1911,65.2318 L78.3219,65.0282 L78.1115,64.8931 Z M1.208924,18.9999 L12.9483,1.137304 L12.5304,0.862697 L0.791083,18.7253 L1.208924,18.9999 Z M12.6152,1.216961 L90.4172,45.7589 L90.6656,45.325 L12.8636,0.78304 L12.6152,1.216961 Z M90.3311,45.4069 L77.9012,64.758 L78.3219,65.0282 L90.7518,45.6771 L90.3311,45.4069 Z M78.2396,64.6785 L1.128143,18.6479 L0.871864,19.0773 L77.9834,65.1078 L78.2396,64.6785 Z" id="path10_stroke"></path>
                    </g>
                </g>
                <g id="Vector" transform="translate(346.000000, 328.000000)" fill="#0072FF" fill-rule="nonzero">
                    <g id="path11_stroke-link" transform="translate(0.360000, 0.900000)">
                        <path d="M0.999996488,21.8397 L0.87451,21.6235 L0.510247,21.8349 L0.870276,22.0534 L0.999996488,21.8397 Z M36.9086,1.00000175 L37.0336,0.783473 L36.9083,0.711154 L36.7831,0.783777 L36.9086,1.00000175 Z M69.2494,19.6641 L69.3768,19.8793 L69.7449,19.6614 L69.3744,19.4476 L69.2494,19.6641 Z M32.8804,41.1908 L32.7507,41.4045 L32.8788,41.4823 L33.0078,41.406 L32.8804,41.1908 Z M1.125483,22.0559 L37.0341,1.216226 L36.7831,0.783777 L0.87451,21.6235 L1.125483,22.0559 Z M36.7837,1.216531 L69.1245,19.8806 L69.3744,19.4476 L37.0336,0.783473 L36.7837,1.216531 Z M69.1221,19.449 L32.7531,40.9757 L33.0078,41.406 L69.3768,19.8793 L69.1221,19.449 Z M33.0101,40.9771 L1.129717,21.626 L0.870276,22.0534 L32.7507,41.4045 L33.0101,40.9771 Z" id="path11_stroke"></path>
                    </g>
                </g>
                <g id="Vector" transform="translate(227.000000, 358.000000)" fill="#0072FF" fill-rule="nonzero">
                    <g id="path12_stroke-link" transform="translate(0.700000, 0.500000)">
                        <path d="M85.4774,77.145 L85.3529,77.3618 L85.8312,77.6364 L85.7225,77.0958 L85.4774,77.145 Z M85.3623,75.1985 L85.1123,75.1954 L85.1123,75.1985 L85.3623,75.1985 Z M93.8791,49.8931 L94.0791,50.0431 L94.2479,49.818 L94.0044,49.6768 L93.8791,49.8931 Z M9.51679,1.00000349 L9.64215,0.783705 L9.44855,0.671499 L9.31565,0.851534 L9.51679,1.00000349 Z M1.115092,28.7099 L0.868527,28.7512 L0.888065,28.8679 L0.99061521,28.9267 L1.115092,28.7099 Z M85.7225,77.0958 C85.6133,76.5526 85.6123,75.8927 85.6123,75.1985 L85.1122997,75.1985 C85.1123,75.8783 85.1113,76.5924 85.2323,77.1943 L85.7225,77.0958 Z M85.6123,75.2016 C85.7267,65.9789 88.7021,57.2137 94.0791,50.0431 L93.6791,49.7431 C88.2374,57 85.2281,65.8685 85.1123,75.1954 L85.6123,75.2016 Z M94.0044,49.6768 L9.64215,0.783705 L9.39143,1.216302 L93.7537,50.1094 L94.0044,49.6768 Z M9.31565,0.851534 C3.87552,8.22153 0.75,17.3191 0.75,26.7634 L1.25,26.7634 C1.25,17.429 4.33944,8.43496 9.71793,1.148473 L9.31565,0.851534 Z M0.749999974,26.7634 C0.75,27.4489 0.749549,28.041 0.868527,28.7512 L1.361656,28.6686 C1.25045,28.0048 1.25,27.4518 1.25,26.7634 L0.749999974,26.7634 Z M0.99061521,28.9267 L85.3529,77.3618 L85.6019,76.9282 L1.239568,28.4931 L0.99061521,28.9267 Z" id="path12_stroke"></path>
                    </g>
                </g>
            </g>
        </g>
    </g>
</svg>