<?xml version="1.0" encoding="utf-8"?>
<!-- Generator: Adobe Illustrator 19.2.1, SVG Export Plug-In . SVG Version: 6.00 Build 0)  -->
<svg version="1.1" id="Слой_1" xmlns="http://www.w3.org/2000/svg" xmlns:xlink="http://www.w3.org/1999/xlink" x="0px" y="0px"
	 viewBox="0 0 1440 370" style="enable-background:new 0 0 1440 370;" xml:space="preserve">
<style type="text/css">
	.st0{fill:#101F34;}
	.st1{fill:none;stroke:#FFFFFF;stroke-width:0.25;stroke-linejoin:round;stroke-miterlimit:10;}
	.st2{fill:none;stroke:#FFFFFF;stroke-linejoin:round;stroke-miterlimit:10;}
	.st3{fill:#101F34;stroke:#FFFFFF;stroke-linejoin:round;stroke-miterlimit:10;}
	.st4{fill:#101F34;stroke:#00C3FF;stroke-linejoin:round;stroke-miterlimit:10;}
	.st5{fill:#101F34;stroke:#0072FF;stroke-linejoin:round;stroke-miterlimit:10;}
	.st6{fill:none;stroke:#0072FF;stroke-linecap:round;stroke-linejoin:round;stroke-miterlimit:10;}
	.st7{fill:none;stroke:#0072FF;stroke-linejoin:round;stroke-miterlimit:10;}
	.st8{fill:none;stroke:#00C3FF;stroke-linejoin:round;stroke-miterlimit:10;}
	.st9{fill:none;stroke:#00C3FF;stroke-linecap:round;stroke-linejoin:round;stroke-miterlimit:10;}
	.st10{fill:none;stroke:#FFFFFF;stroke-linecap:round;stroke-linejoin:round;stroke-miterlimit:10;}
	.st11{fill:#101F34;stroke:#FFFFFF;stroke-miterlimit:10;}
	.st12{fill:none;stroke:#FFFFFF;stroke-width:0.5;stroke-miterlimit:10;}
	.st13{fill:#FFFFFF;stroke:#FFFFFF;stroke-width:0.5;stroke-miterlimit:10;}
	.st14{fill:none;stroke:#0074FF;stroke-linejoin:round;stroke-miterlimit:10;}
	.st15{fill:none;stroke:#FFFFFF;stroke-width:0.5;stroke-linejoin:round;stroke-miterlimit:10;}
</style>
<rect y="-0.2" class="st0" width="1440" height="370"/>
<g>
	<path class="st1" d="M240.5,310.7l61.8-36.5c94.1-55.5,210.9-55.6,305-0.3l21.5,12.6"/>
	<line class="st2" x1="1208.7" y1="209.7" x2="1362" y2="119"/>
	<g>
		<path class="st3" d="M819.2,122.6c-10.2-7.5-25.3-12.3-42.3-12.3c-16.9,0-32.1,4.8-42.3,12.3h-13.2V145
			c0,19.2,24.8,34.7,55.4,34.7c30.6,0,55.4-15.5,55.4-34.7v-22.5H819.2z"/>
		<ellipse class="st3" cx="776.9" cy="122.6" rx="55.4" ry="34.7"/>
	</g>
	<g>
		<path class="st3" d="M819.2,92.1c-10.2-7.5-25.3-12.3-42.3-12.3c-16.9,0-32.1,4.8-42.3,12.3h-13.2v22.5
			c0,19.2,24.8,34.7,55.4,34.7c30.6,0,55.4-15.5,55.4-34.7V92.1H819.2z"/>
		<ellipse class="st3" cx="776.9" cy="92.1" rx="55.4" ry="34.7"/>
	</g>
	<g>
		<path class="st4" d="M819.2,61.6c-10.2-7.5-25.3-12.3-42.3-12.3c-16.9,0-32.1,4.8-42.3,12.3h-13.2V84c0,19.2,24.8,34.7,55.4,34.7
			c30.6,0,55.4-15.5,55.4-34.7V61.6H819.2z"/>
		<ellipse class="st4" cx="776.9" cy="61.6" rx="55.4" ry="34.7"/>
	</g>
	<g>
		<path class="st3" d="M489.4,272c-7-5.2-17.4-8.4-29.1-8.4s-22.1,3.3-29.1,8.4h-9.1v15.5c0,13.2,17.1,23.9,38.1,23.9
			c21.1,0,38.1-10.7,38.1-23.9V272H489.4z"/>
		<ellipse class="st3" cx="460.3" cy="272" rx="38.1" ry="23.9"/>
	</g>
	<g>
		<path class="st3" d="M489.4,249.9c-7-5.2-17.4-8.4-29.1-8.4s-22.1,3.3-29.1,8.4h-9.1v15.5c0,13.2,17.1,23.9,38.1,23.9
			c21.1,0,38.1-10.7,38.1-23.9v-15.5H489.4z"/>
		<ellipse class="st3" cx="460.3" cy="249.9" rx="38.1" ry="23.9"/>
	</g>
	<g>
		<path class="st4" d="M489.4,227.8c-7-5.2-17.4-8.4-29.1-8.4s-22.1,3.3-29.1,8.4h-9.1v15.5c0,13.2,17.1,23.9,38.1,23.9
			c21.1,0,38.1-10.7,38.1-23.9v-15.5H489.4z"/>
		<ellipse class="st4" cx="460.3" cy="227.8" rx="38.1" ry="23.9"/>
	</g>
	<g>
		<path class="st5" d="M489.4,205.7c-7-5.2-17.4-8.4-29.1-8.4s-22.1,3.3-29.1,8.4h-9.1v15.5c0,13.2,17.1,23.9,38.1,23.9
			c21.1,0,38.1-10.7,38.1-23.9v-15.5H489.4z"/>
		<ellipse class="st5" cx="460.3" cy="205.7" rx="38.1" ry="23.9"/>
	</g>
	<g>
		<path class="st3" d="M324.1,120.4c-8.5-6.2-21.1-10.2-35.2-10.2s-26.7,4-35.2,10.2h-11V139c0,16,20.7,28.9,46.1,28.9
			c25.5,0,46.1-12.9,46.1-28.9v-18.7H324.1z"/>
		<ellipse class="st3" cx="289" cy="120.4" rx="46.1" ry="28.9"/>
	</g>
	<g>
		<path class="st4" d="M324.1,94.4c-8.5-6.2-21.1-10.2-35.2-10.2s-26.7,4-35.2,10.2h-11v18.7c0,16,20.7,28.9,46.1,28.9
			c25.5,0,46.1-12.9,46.1-28.9V94.4H324.1z"/>
		<ellipse class="st4" cx="289" cy="94.4" rx="46.1" ry="28.9"/>
	</g>
	<g>
		<path class="st5" d="M324.1,68.4c-8.5-6.2-21.1-10.2-35.2-10.2s-26.7,4-35.2,10.2h-11v18.7c0,16,20.7,28.9,46.1,28.9
			c25.5,0,46.1-12.9,46.1-28.9V68.4H324.1z"/>
		<ellipse class="st5" cx="289" cy="68.4" rx="46.1" ry="28.9"/>
	</g>
	<g>
		<path class="st3" d="M1201.7,194.2c-7.8-5.8-19.5-9.5-32.6-9.5c-13.1,0-24.8,3.7-32.6,9.5h-10.2v17.3c0,14.8,19.2,26.8,42.8,26.8
			c23.6,0,42.8-12,42.8-26.8v-17.3H1201.7z"/>
		<ellipse class="st3" cx="1169.1" cy="194.2" rx="42.8" ry="26.8"/>
	</g>
	<g>
		<path class="st4" d="M1201.7,170.7c-7.8-5.8-19.5-9.5-32.6-9.5c-13.1,0-24.8,3.7-32.6,9.5h-10.2V188c0,14.8,19.2,26.8,42.8,26.8
			c23.6,0,42.8-12,42.8-26.8v-17.3H1201.7z"/>
		<ellipse class="st4" cx="1169.1" cy="170.7" rx="42.8" ry="26.8"/>
	</g>
	<g>
		<path class="st4" d="M1082.4,33.4c-7.8-5.8-19.5-9.5-32.6-9.5c-13.1,0-24.8,3.7-32.6,9.5H1007v17.3c0,14.8,19.2,26.8,42.8,26.8
			c23.6,0,42.8-12,42.8-26.8V33.4H1082.4z"/>
		<ellipse class="st4" cx="1049.8" cy="33.4" rx="42.8" ry="26.8"/>
	</g>
	<g>
		<path class="st3" d="M957.5,307.7c-7-5.2-17.4-8.4-29.1-8.4c-11.7,0-22.1,3.3-29.1,8.4h-9.1v15.5c0,13.2,17.1,23.9,38.1,23.9
			c21.1,0,38.1-10.7,38.1-23.9v-15.5H957.5z"/>
		<ellipse class="st3" cx="928.4" cy="307.7" rx="38.1" ry="23.9"/>
	</g>
	<g>
		<path class="st4" d="M957.5,284.3c-7-5.2-17.4-8.4-29.1-8.4c-11.7,0-22.1,3.3-29.1,8.4h-9.1v15.5c0,13.2,17.1,23.9,38.1,23.9
			c21.1,0,38.1-10.7,38.1-23.9v-15.5H957.5z"/>
		<ellipse class="st4" cx="928.4" cy="284.3" rx="38.1" ry="23.9"/>
	</g>
	<g>
		<path class="st5" d="M1201.7,147.2c-7.8-5.8-19.5-9.5-32.6-9.5c-13.1,0-24.8,3.7-32.6,9.5h-10.2v17.3c0,14.8,19.2,26.8,42.8,26.8
			c23.6,0,42.8-12,42.8-26.8v-17.3H1201.7z"/>
		<ellipse class="st5" cx="1169.1" cy="147.2" rx="42.8" ry="26.8"/>
	</g>
	<g>
		<path class="st3" d="M1201.7,123.7c-7.8-5.8-19.5-9.5-32.6-9.5c-13.1,0-24.8,3.7-32.6,9.5h-10.2V141c0,14.8,19.2,26.8,42.8,26.8
			c23.6,0,42.8-12,42.8-26.8v-17.3H1201.7z"/>
		<ellipse class="st3" cx="1169.1" cy="123.7" rx="42.8" ry="26.8"/>
	</g>
	<g>
		<path class="st5" d="M1082.4,8.6c-7.8-5.8-19.5-9.5-32.6-9.5c-13.1,0-24.8,3.7-32.6,9.5H1007v17.3c0,14.8,19.2,26.8,42.8,26.8
			c23.6,0,42.8-12,42.8-26.8V8.6H1082.4z"/>
		<ellipse class="st5" cx="1049.8" cy="8.6" rx="42.8" ry="26.8"/>
	</g>
	<polyline class="st6" points="107.5,121 358.7,270.3 431.2,228.2 	"/>
	<polyline class="st7" points="249,54.7 180.8,14.5 121.7,50.3 	"/>
	<polyline class="st6" points="1085.3,30.3 1412.9,222.6 1310.7,282.3 	"/>
	<polyline class="st8" points="722,56.3 645,11.3 548,65.7 	"/>
	<polyline class="st8" points="548,95.2 642.7,151 498,235.7 	"/>
	<polyline class="st8" points="335.1,112.1 443.3,49.7 468.5,64.5 	"/>
	<polyline class="st8" points="962.3,274.3 1069,211.7 1045.5,197.1 	"/>
	<polyline class="st9" points="1143.3,200.3 1095.7,227 1069,211.7 	"/>
	<polyline class="st2" points="1190.7,100.3 1266.7,57.7 1308.4,82.7 	"/>
	<polyline class="st2" points="890.3,321.1 741.7,232.7 666.2,277.7 	"/>
	<line class="st2" x1="759" y1="178.3" x2="656.1" y2="239"/>
	<polyline class="st10" points="430.7,292.7 308.7,364.7 230.8,315.1 	"/>
	<polyline class="st2" points="296.9,167.6 372.7,212.7 224.7,299.1 	"/>
	<path class="st1" d="M61.5,135L61.5,135c-38.4,24.8-37.1,81.3,2.3,104.4l74.2,43.5"/>
	<line class="st1" x1="205.5" y1="269.7" x2="496" y2="98.2"/>
	<path class="st1" d="M641.3,260.7L514.1,186c-28-18.4-28.1-59.4-0.3-78.1l0,0"/>
	<path class="st1" d="M687.3,254.3l162.8-97.7c47.2-27.6,106.6-28.3,149.9-2.3l-11.4-4.2"/>
	<path class="st1" d="M1010,200.3l48,28c67.3,40,126.7,35.3,181.3,3.3l127.3-74c17.9-10.4,17.9-36.2,0-46.6l0,0"/>
	<path class="st1" d="M1229.9,320.6c-35.5,23.7-81.5,24.9-118.2,3.1l-115.7-68c-77.8-46.2-176-39-249.3,5l-53.3,31"/>
	<polyline class="st9" points="1043.7,133.9 1115.3,93 1073.2,68.7 	"/>
	<g>
		<polyline class="st3" points="656.8,362.6 721.8,324.6 746.9,344.2 746.9,349.3 684.5,386.3 656.8,370.1 656.8,362.6 		"/>
		<g>
			<path class="st11" d="M638.5,322.7l1.3,6.8c0.5,2.6,2.1,4.8,4.3,6.1l14.9,8.8c4.1,2.5,9.3,2.5,13.4,0.1l17.8-10.3
				c2-1.2,1.8-4.1-0.3-5l-18.9-8.4c-3-1.3-5.1-4.1-5.5-7.4l-1.9-14.3L638.5,322.7z"/>
			<path class="st12" d="M641.7,324.2c0,0,0.3,5.7,2.8,7.6c2.5,1.9,11.7,7.6,15.6,9.7c3.9,2.1,8.3,1.9,11.5,0.1
				c3.2-1.9,19.7-11.4,19.7-11.4"/>
			<path class="st11" d="M591.2,262.6l12.5,68.9c2.1,9.9,11.8,11.1,14.8,9.5l89.3-52.4c4.1-2.4,6.3-7.1,5.6-11.8l-12.2-79.2
				c-0.5-3.1-6.2-3.6-9-2l-95.2,54.5C592.6,252.8,590.3,257.7,591.2,262.6z"/>
			<path class="st12" d="M700.7,197l-96.1,55.3c-4.4,2.5-7,5.4-6.1,10.3l13.4,74.1c0.6,3.4,4.5,5.2,7.5,3.4"/>
			<line class="st13" x1="610.6" y1="329.7" x2="711.9" y2="270.3"/>
		</g>
		<line class="st14" x1="611.2" y1="264.9" x2="657.7" y2="238.2"/>
		<line class="st14" x1="613.3" y1="276.9" x2="644.7" y2="258.9"/>
		<line class="st14" x1="615.4" y1="288.8" x2="677.7" y2="252.9"/>
		<polyline class="st15" points="656.8,362.6 684.5,381.5 746.9,344.2 		"/>
	</g>
	<g>
		<polygon class="st3" points="991.6,174.5 977.5,187.3 977.5,190.1 1001.9,204.6 1017.5,195.5 1017.5,189.5 		"/>
		<polyline class="st15" points="1017.5,189.5 1001.9,201.9 977.5,187.3 		"/>
		<polygon class="st3" points="1013.2,187 1005.5,171.2 991.8,162 998.8,178.6 		"/>
		<polygon class="st3" points="1013.2,187 1009.2,189.9 994,181.4 989.3,164.4 991.8,162 1005.5,171.2 		"/>
		<polyline class="st15" points="1009.2,189.9 1002.1,172.4 989.3,164.4 		"/>
		<polygon class="st11" points="952.4,65.3 958.3,61.4 1055,116 1048.7,194.6 1040.6,199.2 945.5,144.3 		"/>
		<line class="st14" x1="993.7" y1="102.5" x2="964" y2="85.2"/>
		<line class="st14" x1="1001.8" y1="146.7" x2="959.5" y2="122.6"/>
		<line class="st14" x1="1013.3" y1="125.9" x2="962.5" y2="97.2"/>
		<line class="st14" x1="995.1" y1="129.1" x2="961.2" y2="109.5"/>
		<path class="st3" d="M981,243.6"/>
		<polyline class="st3" points="1002.7,220.2 936,181.3 913.7,196.9 913.7,201.4 978,239.5 1002.7,225.1 1002.7,220.2 		"/>
		<polyline class="st15" points="1002.7,220.2 978,235.2 913.7,196.9 		"/>
		<polyline class="st12" points="1040.6,199.2 1049,119.9 952.4,65.3 		"/>
	</g>
	<g>
		<polygon class="st3" points="104,133.6 117.7,145.9 117.7,148.7 94.1,162.6 79.1,153.8 79.1,148 		"/>
		<polyline class="st15" points="79.1,148 94.1,160.1 117.7,145.9 		"/>
		<polygon class="st3" points="83.2,145.6 90.6,130.4 103.9,121.6 97.1,137.6 		"/>
		<polygon class="st3" points="83.2,145.6 87,148.4 101.7,140.3 106.2,123.9 103.9,121.6 90.6,130.4 		"/>
		<polyline class="st15" points="87,148.4 93.9,131.5 106.2,123.9 		"/>
		<polygon class="st11" points="141.9,28.2 136.2,24.5 42.8,77.1 49,153 56.8,157.5 148.6,104.4 		"/>
		<line class="st14" x1="58.1" y1="89.1" x2="86.7" y2="72.5"/>
		<line class="st14" x1="64.7" y1="123.7" x2="105.6" y2="100.5"/>
		<line class="st14" x1="60.1" y1="100.6" x2="109.1" y2="73"/>
		<line class="st14" x1="62.2" y1="112.2" x2="94.9" y2="93.4"/>
		<path class="st3" d="M114.2,200.2"/>
		<polyline class="st3" points="93.4,177.7 157.7,140.2 179.3,155.2 179.3,159.5 117.1,196.3 93.4,182.4 93.4,177.7 		"/>
		<polyline class="st15" points="93.4,177.7 117.2,192.2 179.3,155.2 		"/>
		<polyline class="st12" points="56.8,157.5 48.6,80.9 141.9,28.2 		"/>
	</g>
	<g>
		<path class="st3" d="M445.1,74c-0.4-0.9,0.5-1.7,3-3.1l43.2-25.1l5.1-60.2c0-2.4,1.6-2.9,4.2-1.4L561.9,20c2.2,1.4,2.8,2.7,2,6.1
			l-5,58.2v4.8L513.3,116c-3.6,1.8-5.2,0.4-9.9-2.4L446.6,80c-1.2-0.7-1.8-1.3-1.6-2C445.2,77.5,445.1,74.7,445.1,74z"/>
		<polygon class="st15" points="556.7,77.6 560.9,26.1 498.9,-10.4 494.5,41.8 		"/>
		<polygon class="st15" points="544.4,82.4 521.4,95.9 469.3,65.8 492.3,52.1 		"/>
		<line class="st15" x1="491.3" y1="45.8" x2="558.9" y2="84.4"/>
		<polygon class="st15" points="501.1,88.3 490.8,94.4 474.2,84.8 484.6,78.6 		"/>
		<line class="st14" x1="526.4" y1="17.9" x2="507.1" y2="6.8"/>
		<line class="st14" x1="524.8" y1="39.8" x2="505.5" y2="28.7"/>
		<line class="st14" x1="544" y1="39.4" x2="505.2" y2="17.3"/>
		<line class="st2" x1="533.4" y1="6.5" x2="525.8" y2="2.2"/>
		<path class="st15" d="M448.1,70.9c-3.7,2-4,3-1.5,4.4l56.9,33.5c4.7,2.8,6.3,4.2,9.9,2.4l45.6-26.8"/>
	</g>
	<g>
		<g>
			<path class="st3" d="M193,358l-45.6-26.8l-11.6-52.1c-0.8-3.5,0.8-7,3.8-8.8l57.1-33.4c2.6-1.5,6-0.1,6.6,2.9l11.6,52.8
				l42.2,24.6c2.4,1.5,2.4,5.1-0.1,6.6l-54.2,31.9C198.2,358.4,196.6,359.8,193,358z"/>
			<polygon class="st15" points="151.6,322 141,275.1 198.4,241.6 209,288 			"/>
			<polygon class="st15" points="162,329.2 184.9,342.7 237,312.6 214,298.9 			"/>
			<polyline class="st15" points="215,292.6 152.3,328.9 147.4,331.2 			"/>
			<line class="st15" x1="152.3" y1="328.9" x2="197.8" y2="358.5"/>
			<polygon class="st15" points="207.8,334.8 216.1,339.7 229.5,331.9 221.1,326.9 			"/>
		</g>
		<line class="st14" x1="153.5" y1="281.2" x2="186.6" y2="262.2"/>
		<line class="st14" x1="155.3" y1="291.7" x2="182" y2="276.3"/>
	</g>
	<g>
		<g>
			<path class="st3" d="M1355.3,129.6l-45.6-26.8l-11.6-52.1c-0.8-3.5,0.8-7,3.8-8.8L1359,8.5c2.6-1.5,6-0.1,6.6,2.9l11.6,52.8
				l42.2,24.6c2.4,1.5,2.4,5.1-0.1,6.6l-54.2,31.9C1360.4,130,1358.8,131.4,1355.3,129.6z"/>
			<polygon class="st15" points="1313.8,93.6 1303.2,46.7 1360.7,13.2 1371.3,59.6 			"/>
			<polygon class="st15" points="1324.2,100.8 1347.2,114.3 1399.3,84.2 1376.2,70.5 			"/>
			<polyline class="st15" points="1377.2,64.2 1314.6,100.5 1309.7,102.8 			"/>
			<line class="st15" x1="1314.6" y1="100.5" x2="1360.1" y2="130.1"/>
			<polygon class="st15" points="1370,106.4 1378.4,111.3 1391.8,103.5 1383.4,98.5 			"/>
		</g>
		<line class="st14" x1="1315.7" y1="52.8" x2="1348.8" y2="33.8"/>
		<line class="st14" x1="1317.6" y1="63.3" x2="1344.3" y2="47.9"/>
	</g>
	<polyline class="st6" points="1192,177.7 1304,244.3 1268,265 	"/>
	<g>
		<path class="st3" d="M1193.7,337.3c-0.4-0.9,0.5-1.7,3-3.1l43.2-25.1l5.1-60.2c0-2.4,1.6-2.9,4.2-1.4l61.2,35.9
			c2.2,1.4,2.8,2.7,2,6.1l-5,58.2v4.8l-45.6,26.8c-3.6,1.8-5.2,0.4-9.9-2.4l-56.9-33.5c-1.2-0.7-1.8-1.3-1.6-2
			C1193.9,340.8,1193.8,338.1,1193.7,337.3z"/>
		<polygon class="st15" points="1305.3,341 1309.6,289.4 1247.6,253 1243.2,305.1 		"/>
		<polygon class="st15" points="1293,345.8 1270.1,359.2 1218,329.2 1241,315.4 		"/>
		<line class="st15" x1="1240" y1="309.1" x2="1307.6" y2="347.7"/>
		<polygon class="st15" points="1249.8,351.7 1239.5,357.8 1222.9,348.1 1233.3,341.9 		"/>
		<line class="st14" x1="1275" y1="281.2" x2="1255.8" y2="270.1"/>
		<line class="st14" x1="1273.5" y1="303.1" x2="1254.2" y2="292"/>
		<line class="st14" x1="1292.7" y1="302.7" x2="1253.9" y2="280.6"/>
		<line class="st2" x1="1282.1" y1="269.8" x2="1274.5" y2="265.5"/>
		<path class="st15" d="M1196.8,334.2c-3.7,2-4,3-1.5,4.4l56.9,33.5c4.7,2.8,6.3,4.2,9.9,2.4l45.6-26.8"/>
	</g>
</g>
</svg>
