<?xml version="1.0" encoding="UTF-8"?>
<!-- Generator: Adobe Illustrator 19.2.1, SVG Export Plug-In . SVG Version: 6.00 Build 0)  -->
<svg version="1.1" id="Слой_1" xmlns="http://www.w3.org/2000/svg" xmlns:xlink="http://www.w3.org/1999/xlink" x="0px" y="0px" viewBox="0 0 1440 370" style="enable-background:new 0 0 1440 370;" xml:space="preserve">
<style type="text/css">
	.st0{fill:#101F34;}
	.st1{fill:none;stroke:#00C3FF;stroke-width:0.5;stroke-miterlimit:10;}
	.st2{fill:#101F34;stroke:#FFFFFF;stroke-linejoin:round;stroke-miterlimit:10;}
	.st3{fill:none;stroke:#FFFFFF;stroke-width:0.5;stroke-linejoin:round;stroke-miterlimit:10;}
	.st4{fill:#101F34;stroke:#0074FF;stroke-linejoin:round;stroke-miterlimit:10;}
	.st5{fill:#101F34;stroke:#FFFFFF;stroke-width:0.5;stroke-linejoin:round;stroke-miterlimit:10;}
	.st6{fill:none;stroke:#FFFFFF;stroke-width:0.25;stroke-linejoin:round;stroke-miterlimit:10;}
	.st7{fill:#0072FF;}
	.st8{fill:none;stroke:#0072FF;stroke-linecap:round;stroke-linejoin:round;stroke-miterlimit:10;}
	.st9{fill:none;stroke:#FFFFFF;stroke-miterlimit:10;}
	.st10{fill:#101F34;stroke:#FFFFFF;stroke-width:0.25;stroke-miterlimit:10;}
	.st11{fill:none;stroke:#FFFFFF;stroke-linecap:round;stroke-miterlimit:10;}
	.st12{fill:none;stroke:#FFFFFF;stroke-linejoin:round;stroke-miterlimit:10;}
	.st13{fill:none;stroke:#FFFFFF;stroke-linecap:round;stroke-linejoin:round;stroke-miterlimit:10;}
	.st14{fill:none;stroke:#0072FF;stroke-miterlimit:10;}
</style>
<rect y="-0.2" class="st0" width="1440" height="370"/>
<line class="st1" x1="99" y1="182" x2="158" y2="214"/>
<line class="st1" x1="1098" y1="228" x2="1050" y2="257"/>
<line class="st1" x1="1206" y1="100" x2="1315" y2="164"/>
<polygon class="st2" points="1242.8,77.8 1242.8,47.1 1268.2,32.4 1293.7,47.4 1293.7,78 1268.3,92.7 "/>
<polyline class="st3" points="1268.3,92.7 1268.3,62.1 1293.7,47.4 "/>
<line class="st3" x1="1268.3" y1="62.1" x2="1242.8" y2="47.1"/>
<line class="st1" x1="1254" y1="71" x2="1130" y2="145"/>
<line class="st1" x1="396" y1="282" x2="475" y2="237"/>
<line class="st1" x1="508" y1="221" x2="570" y2="187"/>
<polyline class="st1" points="458,82 572,19.5 613,43 "/>
<line class="st1" x1="286" y1="110" x2="216" y2="151"/>
<polyline class="st1" points="319,129 286,110 326,86 "/>
<polyline class="st1" points="34,220.2 160,145.8 95.4,108 "/>
<polyline class="st1" points="375,308 287,256 231,290 "/>
<polyline class="st1" points="391,123.9 232,30 131,91.4 "/>
<polyline class="st1" points="985,128.9 826,35 725,96.4 "/>
<polygon class="st2" points="580,259.3 580,114.6 699.8,45.5 820,115.8 820,260.6 700.2,329.6 "/>
<polyline class="st3" points="700.2,329.6 700,185.1 820,115.8 "/>
<line class="st3" x1="700" y1="185.1" x2="580" y2="114.6"/>
<polygon class="st2" points="340.2,137 340.2,51.4 411.1,10.5 482.3,52.1 482.3,137.8 411.4,178.6 "/>
<polyline class="st3" points="411.4,178.6 411.3,93.1 482.3,52.1 "/>
<line class="st3" x1="411.3" y1="93.1" x2="340.2" y2="51.4"/>
<polygon class="st2" points="1051.3,206.9 1051.3,133.5 1112.1,98.5 1173.1,134.2 1173.1,207.6 1112.4,242.6 "/>
<polyline class="st3" points="1112.4,242.6 1112.3,169.3 1173.1,134.2 "/>
<line class="st3" x1="1112.3" y1="169.3" x2="1051.3" y2="133.5"/>
<polygon class="st2" points="906.1,123.9 906.1,58.6 960.1,27.4 1014.4,59.2 1014.4,124.5 960.4,155.7 "/>
<polyline class="st3" points="960.4,155.7 960.3,90.5 1014.4,59.2 "/>
<line class="st3" x1="960.3" y1="90.5" x2="906.1" y2="58.6"/>
<polygon class="st2" points="440.4,295.3 440.4,229.2 495.1,197.7 550.1,229.8 550.1,295.9 495.4,327.4 "/>
<polyline class="st3" points="495.4,327.4 495.3,261.5 550.1,229.8 "/>
<line class="st3" x1="495.3" y1="261.5" x2="440.4" y2="229.2"/>
<polygon class="st2" points="53.3,109.1 53.3,54.5 98.6,28.4 143.9,55 143.9,109.6 98.7,135.7 "/>
<polyline class="st3" points="98.7,135.7 98.7,81.2 143.9,55 "/>
<line class="st3" x1="98.7" y1="81.2" x2="53.3" y2="54.5"/>
<polygon class="st2" points="297.8,153.8 297.8,123.1 323.2,108.4 348.7,123.4 348.7,154 323.3,168.7 "/>
<polyline class="st3" points="323.3,168.7 323.3,138.1 348.7,123.4 "/>
<line class="st3" x1="323.3" y1="138.1" x2="297.8" y2="123.1"/>
<polygon class="st2" points="1163.8,215.8 1163.8,185.1 1189.2,170.4 1214.7,185.4 1214.7,216 1189.3,230.7 "/>
<polyline class="st3" points="1189.3,230.7 1189.3,200.1 1214.7,185.4 "/>
<line class="st3" x1="1189.3" y1="200.1" x2="1163.8" y2="185.1"/>
<polygon class="st2" points="352.8,323.1 352.8,280.7 387.9,260.4 423.1,281.1 423.1,323.5 388,343.7 "/>
<polyline class="st3" points="388,343.7 388,301.4 423.1,281.1 "/>
<line class="st3" x1="388" y1="301.4" x2="352.8" y2="280.7"/>
<polygon class="st2" points="602.8,47.8 602.8,17.1 628.2,2.4 653.7,17.4 653.7,48 628.3,62.7 "/>
<polyline class="st3" points="628.3,62.7 628.3,32.1 653.7,17.4 "/>
<line class="st3" x1="628.3" y1="32.1" x2="602.8" y2="17.1"/>
<polygon class="st4" points="950.6,92.5 950.6,122.2 933.3,112 933.3,82.3 "/>
<polygon class="st4" points="942.5,97.4 942.5,127 925.2,116.9 925.2,87.2 "/>
<polygon class="st4" points="932.9,102.7 933,132.4 915.6,122.2 915.6,92.5 "/>
<polygon class="st2" points="745.8,285.8 745.8,255.1 771.2,240.4 796.7,255.4 796.7,286 771.3,300.7 "/>
<polyline class="st3" points="771.3,300.7 771.3,270.1 796.7,255.4 "/>
<line class="st3" x1="771.3" y1="270.1" x2="745.8" y2="255.1"/>
<g>
	<polygon class="st2" points="197.8,165.2 197.8,147.8 212.2,139.5 226.7,147.9 226.7,165.4 212.3,173.7  "/>
	<polyline class="st3" points="212.3,173.7 212.2,156.3 226.7,147.9  "/>
</g>
<line class="st3" x1="212.2" y1="156.3" x2="197.8" y2="147.8"/>
<polygon class="st2" points="16.8,230.2 16.8,212.8 31.2,204.5 45.7,212.9 45.7,230.4 31.3,238.7 "/>
<polyline class="st3" points="31.3,238.7 31.2,221.3 45.7,212.9 "/>
<line class="st3" x1="31.2" y1="221.3" x2="16.8" y2="212.8"/>
<polygon class="st2" points="1263.7,253.5 1263.7,164.8 1337.1,122.5 1410.8,165.6 1410.8,254.3 1337.4,296.6 "/>
<polyline class="st3" points="1337.4,296.6 1337.3,208.1 1410.8,165.6 "/>
<line class="st3" x1="1337.3" y1="208.1" x2="1263.7" y2="164.8"/>
<polygon class="st2" points="87.5,317.5 87.5,226.9 162.6,183.6 238,227.7 238,318.4 162.9,361.6 "/>
<polyline class="st3" points="162.9,361.6 162.8,271.1 238,227.7 "/>
<line class="st3" x1="162.8" y1="271.1" x2="87.5" y2="226.9"/>
<g>
	<polygon class="st5" points="814.2,45.2 814.2,31.8 825.2,25.5 836.3,32 836.3,45.3 825.3,51.7  "/>
	<polyline class="st6" points="825.3,51.7 825.2,38.3 836.3,32  "/>
	<line class="st6" x1="825.2" y1="38.3" x2="814.2" y2="31.8"/>
</g>
<g>
	<polygon class="st5" points="217.2,40.2 217.2,26.8 228.2,20.5 239.3,27 239.3,40.3 228.3,46.7  "/>
	<polyline class="st6" points="228.3,46.7 228.2,33.3 239.3,27  "/>
	<line class="st6" x1="228.2" y1="33.3" x2="217.2" y2="26.8"/>
</g>
<g>
	<polygon class="st5" points="147.9,154.8 147.9,141.5 159,135.1 170.1,141.6 170.1,155 159,161.3  "/>
	<polyline class="st6" points="159,161.3 159,148 170.1,141.6  "/>
	<line class="st6" x1="159" y1="148" x2="147.9" y2="141.5"/>
</g>
<g>
	<polygon class="st5" points="275.9,262.8 275.9,249.5 286.9,243.1 298,249.6 298,263 287,269.3  "/>
	<polyline class="st6" points="287,269.3 287,256 298,249.6  "/>
	<line class="st6" x1="287" y1="256" x2="275.9" y2="249.5"/>
</g>
<polygon class="st2" points="1391.8,49.2 1391.8,31.8 1406.2,23.5 1420.7,31.9 1420.7,49.4 1406.3,57.7 "/>
<polyline class="st3" points="1406.3,57.7 1406.2,40.3 1420.7,31.9 "/>
<line class="st3" x1="1406.2" y1="40.3" x2="1391.8" y2="31.8"/>
<polygon class="st2" points="1357.8,201.2 1357.8,183.8 1372.2,175.5 1386.7,183.9 1386.7,201.4 1372.3,209.7 "/>
<polyline class="st3" points="1372.3,209.7 1372.2,192.3 1386.7,183.9 "/>
<line class="st3" x1="1372.2" y1="192.3" x2="1357.8" y2="183.8"/>
<line class="st1" x1="452" y1="118" x2="579" y2="193"/>
<line class="st1" x1="987" y1="110" x2="1051" y2="147.8"/>
<line class="st1" x1="765" y1="216" x2="892" y2="291"/>
<line class="st1" x1="642" y1="42" x2="673" y2="61"/>
<polyline class="st1" points="1065,307 1100,286 989,221 "/>
<g>
	<polygon class="st2" points="1039.8,333.8 1039.8,303.1 1065.2,288.4 1090.7,303.4 1090.7,334 1065.3,348.7  "/>
	<polyline class="st3" points="1065.3,348.7 1065.3,318.1 1090.7,303.4  "/>
	<line class="st3" x1="1065.3" y1="318.1" x2="1039.8" y2="303.1"/>
</g>
<line class="st1" x1="1399" y1="45" x2="1259" y2="129.6"/>
<line class="st1" x1="310" y1="145" x2="202" y2="208.3"/>
<g>
	<polygon class="st5" points="1250.2,138.2 1250.2,124.8 1261.2,118.5 1272.3,125 1272.3,138.3 1261.3,144.7  "/>
	<polyline class="st6" points="1261.3,144.7 1261.2,131.3 1272.3,125  "/>
	<line class="st6" x1="1261.2" y1="131.3" x2="1250.2" y2="124.8"/>
</g>
<g>
	<polygon class="st5" points="1091.9,292.8 1091.9,279.5 1103,273.1 1114.1,279.6 1114.1,293 1103,299.3  "/>
	<polyline class="st6" points="1103,299.3 1103,286 1114.1,279.6  "/>
	<line class="st6" x1="1103" y1="286" x2="1091.9" y2="279.5"/>
</g>
<path id="path0_fill_15_" class="st7" d="M652.9,195.6l-24.1,56.3l-8-4.6l26.2-61.7C649.3,188.5,651.2,191.8,652.9,195.6z   M637.5,176.6c2.8,1.6,5.4,3.9,7.9,6.8l-26.6,62.8l-0.9-0.5c-2.4-1.4-4.9-3.6-6.9-5.8L637.5,176.6z M669.2,227.2  c1.7,2.7,3,5.5,4.3,8.6l-14.2,33.7c-0.6-0.3-1.3-0.5-1.9-0.8l-4.5-2.6L669.2,227.2z M663.9,270.4l11.8-27.6c0.7,3.2,1.1,6.7,1.1,9.7  C676.8,264.2,671.4,271,663.9,270.4z M657.2,214.7l-18.3,43l-7.5-4.3l23-53.9C656.1,204.5,657.2,209.7,657.2,214.7z M636,175.7  l-26.6,62.5c-6.7-8.2-11.4-20.2-11.4-30.9c0-14.7,8.8-21.7,19.7-15.4C617.7,177.8,625.8,170.8,636,175.7z M666.2,223L649,263.6  l-6.9-4l18.2-42.6C662.4,218.5,664.3,220.6,666.2,223z"/>
<g>
	<path class="st8" d="M135,294l14.1,8.2c4.4,2.5,8-0.2,8-6s-3.6-12.7-8-15.3c-1.5-0.9-2.9-1.1-4-0.9c-1.4-7.2-5.8-14.3-11.1-17.3   c-6-3.4-10.9-0.3-11.5,7.1c-1.2-2.1-2.8-3.8-4.6-4.8c-4-2.3-7.2,0.1-7.2,5.5c0,4.2,2,8.9,4.8,11.8"/>
	<path class="st9" d="M142,332.4c4,2.3,7.3-0.1,7.3-5.5c0-5.4-3.3-11.6-7.3-14c-0.8-0.4-1.5-0.7-2.2-0.8c0-0.2,0-0.4,0-0.6   c0-10.9-6.6-23.5-14.8-28.2c-6.2-3.6-11.5-1.6-13.7,4.4c-1.6-2.2-3.5-3.9-5.4-5.1c-6-3.5-10.9,0.2-10.9,8.2c0,8,4.9,17.3,10.9,20.8   L142,332.4z"/>
</g>
<g>
	<line class="st8" x1="68.4" y1="84.4" x2="80.2" y2="91.2"/>
	<line class="st8" x1="68.4" y1="89.5" x2="80.2" y2="96.4"/>
	<line class="st8" x1="68.4" y1="94.7" x2="80.2" y2="101.5"/>
	<path class="st9" d="M83,87c-0.3-0.3-0.7-0.5-1-0.7l-14.6-8.4c-2.2-1.3-4,0.1-4,3v11.4c0,2.9,1.8,6.3,4,7.6l1.3,0.7v8l6-4.5   l7.3,4.2c2.2,1.3,4-0.1,4-3V93.8c0-0.4,0-0.8-0.1-1.1"/>
	<path class="st8" d="M87.1,93.4l-1.3-0.8c-1.6-0.9-2.8-3.3-2.8-5.4v-4.4l7,4v4.4C90,93.3,88.7,94.3,87.1,93.4z"/>
	<path class="st8" d="M84.3,83.3v-2.9c0-1.6,1-2.3,2.2-1.6h0c1.2,0.7,2.2,2.6,2.2,4.2v3.2"/>
</g>
<path class="st10" d="M275.8,178.5c8.7,0,15.8-7.1,15.8-15.8s-7.1-15.8-15.8-15.8c-1.6,0-3.2,0.3-4.7,0.7c0-0.4,0-0.7,0-1.1  c0-17.6-14.3-31.9-31.9-31.9c-13.4,0-24.8,8.2-29.6,19.9c-3.5-2-7.5-3.1-11.7-3.1c-13,0-23.5,10.5-23.5,23.5  c0,13,10.5,23.5,23.5,23.5H275.8z"/>
<path class="st10" d="M663.1,360.5c10.2,0,18.5-8.3,18.5-18.5s-8.3-18.5-18.5-18.5c-1.9,0-3.8,0.3-5.5,0.8c0-0.4,0-0.8,0-1.2  c0-20.6-16.7-37.3-37.3-37.3c-15.7,0-29.1,9.6-34.6,23.3c-4-2.3-8.7-3.7-13.7-3.7c-15.2,0-27.5,12.3-27.5,27.5s12.3,27.5,27.5,27.5  H663.1z"/>
<path class="st10" d="M1299.3,344.3c14,0,25.3-11.3,25.3-25.3s-11.3-25.3-25.3-25.3c-2.6,0-5.2,0.4-7.6,1.2c0-0.6,0-1.1,0-1.7  c0-28.3-22.9-51.2-51.2-51.2c-21.5,0-39.9,13.2-47.5,32c-5.5-3.2-12-5-18.8-5c-20.8,0-37.7,16.9-37.7,37.7  c0,20.8,16.9,37.7,37.7,37.7H1299.3z"/>
<path class="st10" d="M1084.5,108.7c-6.4,0-11.5-5.2-11.5-11.5c0-6.4,5.2-11.5,11.5-11.5c2.2,0,4.3,0.6,6,1.7  c-1.2-3.3-1.8-6.9-1.8-10.6c0-17.7,14.3-32,32-32c6.8,0,13.1,2.1,18.3,5.7c5.7-18.2,22.7-31.4,42.8-31.4c24.8,0,44.8,20.1,44.8,44.8  c0,1.1-0.1,2.3-0.1,3.4c3.3-2,7.2-3.1,11.4-3.1c12.3,0,22.3,10,22.3,22.3s-10,22.3-22.3,22.3H1084.5z"/>
<path class="st10" d="M440.8,84.5c-5.4,0-9.8-4.4-9.8-9.8c0-5.4,4.4-9.8,9.8-9.8c1.9,0,3.6,0.5,5.1,1.4c-1-2.8-1.5-5.9-1.5-9  c0-15.1,12.2-27.3,27.3-27.3c5.8,0,11.2,1.8,15.6,4.9c4.9-15.5,19.3-26.8,36.5-26.8c21.1,0,38.2,17.1,38.2,38.2c0,1,0,1.9-0.1,2.9  c2.8-1.7,6.2-2.7,9.7-2.7c10.5,0,19,8.5,19,19s-8.5,19-19,19H440.8z"/>
<g>
	<path class="st9" d="M359.8,129.4V86.7c0-4.5,2.7-6.6,6.1-4.6l13.8,8c3.4,2,6.1,7.2,6.1,11.7v42.6"/>
	<path class="st9" d="M382.7,119.6L363,108.3v-18c0-3.1,1.9-4.6,4.2-3.2l11.2,6.5c2.3,1.4,4.2,5,4.2,8.1V119.6z"/>
	<path class="st9" d="M386.1,113.2L386.1,113.2c2.4,1.4,4.3,5.1,4.3,8.3v14.7c0,1.9,1.1,4.1,2.6,4.9l0,0c1.4,0.8,2.6-0.1,2.6-1.9   v-18.4c0-3.4,0.7-6.2,2.1-8.3l2.5-3.8"/>
	<line class="st11" x1="354.7" y1="126.4" x2="391" y2="147.4"/>
	<path class="st7" d="M375,108.4c0.7,1.4,0.6,2.9-0.2,3.3c-0.8,0.4-1.9-0.4-2.6-1.8c-0.4-0.8-3.6-9-6.3-15.9   c-0.5-1.3,0.5-1.8,1.1-0.6C370.5,99.9,374.6,107.6,375,108.4z"/>
</g>
<g>
	<path class="st12" d="M480.9,296.5l-24.5-14.1c-2-1.1-3.6-4.2-3.6-6.9V254c0-2.7,1.6-3.9,3.6-2.7l24.5,14.1c2,1.1,3.6,4.2,3.6,6.9   v21.5C484.5,296.5,482.9,297.7,480.9,296.5z"/>
	<path class="st12" d="M486.6,308.1l-35-20.2c-0.7-0.4-1.3-1.5-1.3-2.4l0,0c0-0.9,0.6-1.4,1.3-1l35,20.2c0.7,0.4,1.3,1.5,1.3,2.4   l0,0C487.8,308.1,487.3,308.5,486.6,308.1z"/>
	<line class="st8" x1="458.4" y1="259.8" x2="477.1" y2="270.6"/>
	<line class="st8" x1="458.4" y1="266.7" x2="477.1" y2="277.5"/>
	<line class="st8" x1="458.4" y1="273.5" x2="469.1" y2="279.7"/>
	<polyline class="st8" points="470.9,278.4 472.7,281.8 470.9,283.1  "/>
</g>
<g>
	<path class="st12" d="M1072.5,165l-7.8-4.5c-2-1.2-3.6,0.1-3.6,2.7l0,0c0,2.7,1.6,5.7,3.6,6.9l31.1,17.9v-9.6l-9.1-5.2"/>
	<line class="st12" x1="1095.7" y1="197.9" x2="1095.7" y2="188.1"/>
	<path class="st12" d="M1061,164v27.8c0,3.5,2.2,7.7,4.8,9.2l29.9,17.2v-10.5"/>
	<path class="st12" d="M1096.4,208.4l-4.8-2.8c-1.7-1-3.1-3.7-3.1-6v-1.2c0-2.3,1.4-3.4,3.1-2.4l4.8,2.8c1.7,1,3.1,3.7,3.1,6v1.2   C1099.6,208.3,1098.2,209.4,1096.4,208.4z"/>
	<polyline class="st8" points="1065.5,170.1 1076.4,162 1087.6,183.5  "/>
	<polyline class="st8" points="1079.6,167.9 1082.6,165.6 1093.9,187.1  "/>
	<path class="st12" d="M1061,163.2L1061,163.2c0,2.7,1.6,5.7,3.6,6.9l31.1,17.9"/>
</g>
<g>
	<path class="st9" d="M379.1,314c0,5.4-3.3,7.9-7.4,5.6c-4.1-2.3-7.4-8.6-7.4-14.1s3.3-7.9,7.4-5.6S379.1,308.6,379.1,314z"/>
	<line class="st9" x1="367" y1="314.7" x2="359.3" y2="320.5"/>
</g>
<g>
	<path class="st13" d="M1311.3,223.8L1311.3,223.8c-3-1.8-5.5-6.5-5.5-10.5v-4c0-4.1,2.5-5.9,5.5-4.2l0,0c3,1.8,5.5,6.5,5.5,10.5v4   C1316.8,223.6,1314.3,225.5,1311.3,223.8z"/>
	<path class="st13" d="M1296.5,257.1v-23.7c0-4.5,2.1-7.3,5-6.7c2.5,0.5,5.9,1.5,9.7,3.7c4.3,2.5,7.6,5.2,10.1,7.6c3,2.8,5,8,5,12.5   v23.9"/>
	<path class="st13" d="M1291,214.7l-0.5-0.3c-2.7-1.6-4.9-5.8-4.9-9.4v-3.3c0-3.6,2.2-5.3,4.9-3.7l0.5,0.3c2.7,1.6,4.9,5.8,4.9,9.4   v3.3C1295.9,214.6,1293.8,216.3,1291,214.7z"/>
	<path class="st13" d="M1277,243v-19.5c0-4.2,1.9-6.8,4.7-6.3c2.4,0.4,5.5,1.4,9.1,3.5c4,2.3,6.1,4.1,8.4,6.3"/>
</g>
<polygon class="st2" points="862.9,318.3 862.9,216 947.6,167.2 1032.6,216.9 1032.6,319.2 947.9,368 "/>
<polyline class="st3" points="947.9,368 947.8,265.9 1032.6,216.9 "/>
<line class="st3" x1="947.8" y1="265.9" x2="862.9" y2="216"/>
<polygon class="st2" points="877.8,349.2 877.8,331.8 892.2,323.5 906.7,331.9 906.7,349.4 892.3,357.7 "/>
<polyline class="st3" points="892.3,357.7 892.2,340.3 906.7,331.9 "/>
<line class="st3" x1="892.2" y1="340.3" x2="877.8" y2="331.8"/>
<g>
	<path class="st14" d="M875.6,285.4c13.8,8,19.3,27.2,29.8,33.3"/>
	<path class="st9" d="M875.6,301.5c13.8,8,19.3-5,29.8,1.1s17.6,26.1,29.8,33.1"/>
	<path class="st14" d="M905.3,318.7c10.5,6.1,17.6-5.7,29.8,1.3"/>
	<path class="st14" d="M935.1,299.5c-13.8-8-19.3,5-29.8-1.1"/>
	<path class="st9" d="M935.1,315.6c-13.8-8-19.3-27.2-29.8-33.3s-17.6,5.7-29.8-1.3"/>
	<path class="st14" d="M905.3,298.4c-10.5-6.1-17.6-26.1-29.8-33.1"/>
	<path class="st14" d="M875.6,245c13.8,8,19.3,27.2,29.8,33.3"/>
	<path class="st9" d="M875.6,261.1c13.8,8,19.3-5,29.8,1.1s17.6,26.1,29.8,33.1"/>
	<path class="st14" d="M905.3,278.3c10.5,6.1,17.6-5.7,29.8,1.3"/>
</g>
</svg>