<svg width="120" height="119" viewBox="0 0 120 119" fill="none" xmlns="http://www.w3.org/2000/svg">
<rect width="120" height="119.001" fill="black" fill-opacity="0"/>
<path d="M35.7451 18.5547H82.9792" stroke="#0575FF" stroke-width="2"/>
<path d="M117.723 18.5538C117.723 28.284 110.134 36.1075 100.851 36.1075C91.5675 36.1075 83.9785 28.284 83.9785 18.5538C83.9785 8.82349 91.5675 1 100.851 1C110.134 1 117.723 8.82349 117.723 18.5538Z" stroke="#92A4BA" stroke-width="2"/>
<path d="M34.7447 18.5538C34.7447 28.284 27.1557 36.1075 17.8723 36.1075C8.58894 36.1075 1 28.284 1 18.5538C1 8.82349 8.58894 1 17.8723 1C27.1557 1 34.7447 8.82349 34.7447 18.5538Z" stroke="#92A4BA" stroke-width="2"/>
<path d="M73.7011 10.2383L82.1357 18.5555L73.7011 26.8727" stroke="#0072FF" stroke-width="2"/>
<path d="M82.9785 100.445H35.7445" stroke="#0575FF" stroke-width="2"/>
<path d="M34.7447 100.446C34.7447 110.177 27.1557 118 17.8723 118C8.58894 118 1 110.177 1 100.446C1 90.7161 8.58894 82.8926 17.8723 82.8926C27.1557 82.8926 34.7447 90.7161 34.7447 100.446Z" stroke="#92A4BA" stroke-width="2"/>
<path d="M45.0225 92.1289L36.5879 100.446L45.0225 108.763" stroke="#0072FF" stroke-width="2"/>
<path d="M101.489 35.8281L101.489 83.1722" stroke="#0575FF" stroke-width="2"/>
<path d="M101.489 118C91.7874 118 83.9787 110.397 83.9787 101.086C83.9787 91.7752 91.7874 84.1719 101.489 84.1719C111.191 84.1719 119 91.7752 119 101.086C119 110.397 111.191 118 101.489 118Z" stroke="#92A4BA" stroke-width="2"/>
<path d="M109.787 73.8738L101.489 82.3281L93.1914 73.8738" stroke="#0072FF" stroke-width="2"/>
</svg>
