<svg width="136" height="125" viewBox="0 0 136 125" fill="none" xmlns="http://www.w3.org/2000/svg">
<rect width="133.603" height="121.673" fill="black" fill-opacity="0" transform="translate(0 2)"/>
<path d="M66.7212 58.2139L79.3902 45.5847L92.4935 58.4126" stroke="#0072FF" stroke-width="2"/>
<path d="M49.5801 58.5312H111.419V108.674C111.419 116.958 104.703 123.674 96.4188 123.674H64.5801C56.2958 123.674 49.5801 116.958 49.5801 108.674V58.5312Z" stroke="#92A4BA" stroke-width="2"/>
<path d="M75.3164 10.082L125.521 60.2866L130.067 55.7409C132.019 53.7883 132.019 50.6225 130.067 48.6699L86.9332 5.53635C84.9805 3.58372 81.8147 3.58372 79.8621 5.53634L75.3164 10.082Z" stroke="#92A4BA" stroke-width="2"/>
<path d="M101.213 19.8145L115.788 34.39L118.92 31.2585C121.654 28.5248 121.654 24.0927 118.92 21.359L114.244 16.683C111.51 13.9493 107.078 13.9493 104.344 16.683L101.213 19.8145Z" stroke="#92A4BA" stroke-width="2"/>
<path d="M64.4678 68.8164V111.102" stroke="#92A4BA" stroke-width="2"/>
<path d="M97.6777 68.8164V111.102" stroke="#92A4BA" stroke-width="2"/>
<path d="M81.6455 68.8164V111.102" stroke="#92A4BA" stroke-width="2"/>
<rect x="0.450795" y="1.33071" width="19.0885" height="18.8798" transform="matrix(0.899456 0.437012 -0.448661 0.893702 47.3926 13.6738)" stroke="#0072FF" stroke-width="2"/>
<rect x="1.32167" y="0.526259" width="19.1021" height="18.8661" transform="matrix(0.920857 -0.3899 0.400815 0.916159 0 38.9023)" stroke="#0072FF" stroke-width="2"/>
</svg>
