<svg width="72" height="176" viewBox="0 0 72 176" fill="none" xmlns="http://www.w3.org/2000/svg">
<rect width="70" height="176" fill="black" fill-opacity="0" transform="translate(1)"/>
<path d="M1 86.5H70.5" stroke="#92A4BA" stroke-width="2"/>
<path d="M3 72H67.5" stroke="#92A4BA" stroke-width="2"/>
<path d="M4 17H68.5" stroke="#92A4BA" stroke-width="2"/>
<path d="M4 158H68.5" stroke="#92A4BA" stroke-width="2"/>
<path d="M14 58H57.5" stroke="#92A4BA" stroke-width="2"/>
<path d="M16 31H57.5" stroke="#92A4BA" stroke-width="2"/>
<path d="M14 144H55.5" stroke="#92A4BA" stroke-width="2"/>
<path d="M69.5 101L3 101" stroke="#92A4BA" stroke-width="2"/>
<path d="M58.5 115L13 115" stroke="#92A4BA" stroke-width="2"/>
<path d="M1 0C1 49 71 39 71 89C71 134.5 1 123 1 176" stroke="#0072FF" stroke-width="2"/>
<path d="M71 176C71 127 1 137 1.00001 87C1.00001 37 71 53 71 0" stroke="#0072FF" stroke-width="2"/>
</svg>
