<svg width="138" height="82" viewBox="0 0 138 82" fill="none" xmlns="http://www.w3.org/2000/svg">
<rect width="136" height="80" fill="black" fill-opacity="0" transform="translate(1 1)"/>
<path d="M126.417 81H45.583C39.7372 81 35 75.9189 35 69.6486V12.3514C35 6.08108 39.7372 1 45.583 1H126.417C132.263 1 137 6.08108 137 12.3514V69.6486C137 75.9189 132.263 81 126.417 81Z" fill="white" stroke="#92A4BA" stroke-width="2" stroke-miterlimit="10" stroke-linecap="round" stroke-linejoin="round"/>
<path d="M35 15.2695H136.194" stroke="#92A4BA" stroke-width="2" stroke-miterlimit="10" stroke-linecap="round" stroke-linejoin="round"/>
<path d="M83 61H126" stroke="#0072FF" stroke-width="2" stroke-miterlimit="10" stroke-linecap="round"/>
<path d="M83 30H126" stroke="#0072FF" stroke-width="2" stroke-miterlimit="10" stroke-linecap="round"/>
<path d="M83 45.5H126" stroke="#0072FF" stroke-width="2" stroke-miterlimit="10" stroke-linecap="round"/>
<path d="M68.5 16V80.5" stroke="#92A4BA" stroke-width="2"/>
<rect width="52.5" height="50.5" fill="black" fill-opacity="0" transform="translate(1 21)"/>
<circle cx="36" cy="38.5" r="16.5" fill="white" stroke="#0072FF" stroke-width="2"/>
<path d="M23 49.5L1 71.5" stroke="#0072FF" stroke-width="2"/>
</svg>
