<svg width="128" height="101" viewBox="0 0 128 101" fill="none" xmlns="http://www.w3.org/2000/svg">
<rect width="126" height="99" fill="black" fill-opacity="0" transform="translate(1 1)"/>
<rect width="126" height="99" fill="black" fill-opacity="0" transform="translate(1 1)"/>
<path d="M104.556 1H118.542C123.213 1 127 8.77611 127 18.3684V19.0632H104.556V1Z" fill="#F4F9FF" stroke="#92A4BA" stroke-width="2"/>
<path fill-rule="evenodd" clip-rule="evenodd" d="M45.137 1C35.453 1 27.6025 8.77611 27.6025 18.3684V100H91.4279C101.112 100 108.962 92.2239 108.962 82.6316V18.1947V18.0211L108.963 18.0202C109.012 8.60421 112.996 1 117.905 1C117.963 1 118.021 1.00106 118.079 1.00318L118.08 1H117.905H45.137Z" fill="#F4F9FF"/>
<path d="M117.905 1C112.996 1 109.012 8.60421 108.963 18.0202L108.962 18.0211V18.1947V82.6316C108.962 92.2239 101.112 100 91.4279 100H27.6025V18.3684C27.6025 8.77611 35.453 1 45.137 1H117.905ZM117.905 1C117.963 1 118.021 1.00106 118.079 1.00318L118.08 1H117.905Z" stroke="#92A4BA" stroke-width="2"/>
<path fill-rule="evenodd" clip-rule="evenodd" d="M91.8285 99.9918C91.6537 99.997 91.4784 99.9996 91.3024 99.9996C81.7737 99.9996 74.0383 92.3949 73.9442 82.9785L1 82.9785C1 92.379 8.69341 99.9996 18.1838 99.9996L91.3024 99.9996H91.8285V99.9918Z" fill="#F4F9FF"/>
<path d="M91.3024 99.9996C91.4784 99.9996 91.6537 99.997 91.8285 99.9918V99.9996H91.3024ZM91.3024 99.9996C81.7737 99.9996 74.0383 92.3949 73.9442 82.9785L1 82.9785C1 92.379 8.69341 99.9996 18.1838 99.9996L91.3024 99.9996Z" stroke="#92A4BA" stroke-width="2"/>
<rect width="52.4998" height="50.0215" fill="black" fill-opacity="0" transform="translate(40.9004 20.8008)"/>
<path d="M43.0879 29.1899V22.1513C43.0879 21.0464 44.2828 20.3917 45.0669 21.0874L49.1743 24.6066C49.8091 25.1386 49.8091 26.2026 49.1743 26.7346L45.0669 30.2539C44.2454 30.9496 43.0879 30.2948 43.0879 29.1899Z" stroke="#0072FF" stroke-width="2" stroke-miterlimit="10"/>
<path d="M49.7441 46.3523C49.7441 48.4795 47.9983 50.2221 45.8223 50.2221C43.6462 50.2221 41.9004 48.4795 41.9004 46.3523C41.9004 44.225 43.6462 42.4824 45.8223 42.4824C47.9983 42.4824 49.7441 44.225 49.7441 46.3523Z" stroke="#0072FF" stroke-width="2"/>
<rect x="41.9004" y="62.082" width="7.84375" height="7.73968" stroke="#0072FF" stroke-width="2"/>
<path d="M58.4004 25.6719H93.4004" stroke="#0072FF" stroke-width="2"/>
<path d="M58.4004 46.8945H93.4004" stroke="#0072FF" stroke-width="2"/>
<path d="M58.4004 66.4922H93.4004" stroke="#0072FF" stroke-width="2"/>
</svg>
