<svg width="1140" height="381" viewBox="0 0 1140 381" version="1.1" xmlns="http://www.w3.org/2000/svg" xmlns:xlink="http://www.w3.org/1999/xlink">
<title>Group</title>
<desc>Created using Figma</desc>
<g id="Canvas" transform="translate(4503 -21904)">
<g id="Group">
<g id="OTC">
<use xlink:href="#path0_fill" transform="translate(-4503 22250)" fill="#333333"/>
</g>
<g id="2018 Q1">
<use xlink:href="#path1_fill" transform="translate(-4503 22160)" fill="#0575FF"/>
</g>
<g id="2018 Q2">
<use xlink:href="#path2_fill" transform="translate(-4250.35 22120)" fill="#0575FF"/>
</g>
<g id="2018 Q3">
<use xlink:href="#path3_fill" transform="translate(-4000.34 22080)" fill="#0575FF"/>
</g>
<g id="2018 Q4">
<use xlink:href="#path4_fill" transform="translate(-3743.29 22040)" fill="#0575FF"/>
</g>
<g id="Wallet Encryption">
<use xlink:href="#path5_fill" transform="translate(-4436.98 21905)" fill="#333333"/>
</g>
<g id="Skyledger support desk">
<use xlink:href="#path6_fill" transform="translate(-4375.35 22250)" fill="#333333"/>
</g>
<g id="New Website">
<use xlink:href="#path7_fill" transform="translate(-4310.21 21905)" fill="#333333"/>
</g>
<g id="OTC passthrough">
<use xlink:href="#path8_fill" transform="translate(-4250.35 22250)" fill="#333333"/>
</g>
<g id="Mobile Wallet IOS">
<use xlink:href="#path9_fill" transform="translate(-4124.47 22250)" fill="#333333"/>
</g>
<g id="Signal">
<use xlink:href="#path10_fill" transform="translate(-4000.34 22250)" fill="#333333"/>
</g>
<g id="Advanced Spend Builder">
<use xlink:href="#path11_fill" transform="translate(-3873.58 22250)" fill="#333333"/>
</g>
<g id="SDN">
<use xlink:href="#path12_fill" transform="translate(-3743 22250)" fill="#333333"/>
</g>
<g id="Coinjoin">
<use xlink:href="#path13_fill" transform="translate(-3619.17 22250)" fill="#333333"/>
</g>
<g id="Mobile Wallet Android">
<use xlink:href="#path14_fill" transform="translate(-4185.21 21905)" fill="#333333"/>
</g>
<g id="Affiliate program (OTC)">
<use xlink:href="#path15_fill" transform="translate(-4060.2 21905)" fill="#333333"/>
</g>
<g id="Hardware wallet">
<use xlink:href="#path16_fill" transform="translate(-3934.32 21905)" fill="#333333"/>
</g>
<g id="Mobile Wallet Android">
<use xlink:href="#path14_fill" transform="translate(-3806.68 21905)" fill="#333333"/>
</g>
<g id="BBS">
<use xlink:href="#path17_fill" transform="translate(-3681.67 21928)" fill="#333333"/>
</g>
<g id="Desktop-lite Wallet">
<use xlink:href="#path18_fill" transform="translate(-3485.36 22250)" fill="#333333"/>
</g>
<g id="Web Wallet">
<use xlink:href="#path19_fill" transform="translate(-3547.86 21928)" fill="#333333"/>
</g>
<g id="Vector 8 (Stroke)">
<use xlink:href="#path20_fill" transform="translate(-4503 22183)" fill="#0575FF"/>
</g>
<g id="Vector 8.1 (Stroke)">
<use xlink:href="#path21_fill" transform="translate(-4437 22173)" fill="#0575FF"/>
</g>
<g id="Vector 8.2 (Stroke)">
<use xlink:href="#path22_fill" transform="translate(-4375 22163)" fill="#0575FF"/>
</g>
<g id="Vector 8.3 (Stroke)">
<use xlink:href="#path23_fill" transform="translate(-4310 22153)" fill="#0575FF"/>
</g>
<g id="Vector 8.4 (Stroke)">
<use xlink:href="#path24_fill" transform="translate(-4250 22143)" fill="#0575FF"/>
</g>
<g id="Vector 8.5 (Stroke)">
<use xlink:href="#path25_fill" transform="translate(-4185 22133)" fill="#0575FF"/>
</g>
<g id="Vector 8.6 (Stroke)">
<use xlink:href="#path26_fill" transform="translate(-4124 22123)" fill="#0575FF"/>
</g>
<g id="Vector 8.7 (Stroke)">
<use xlink:href="#path27_fill" transform="translate(-4060 22113)" fill="#0575FF"/>
</g>
<g id="Vector 8.8 (Stroke)">
<use xlink:href="#path28_fill" transform="translate(-4000 22103)" fill="#0575FF"/>
</g>
<g id="Vector 8.9 (Stroke)">
<use xlink:href="#path29_fill" transform="translate(-3934 22093)" fill="#0575FF"/>
</g>
<g id="Vector 8.10 (Stroke)">
<use xlink:href="#path30_fill" transform="translate(-3873 22083)" fill="#0575FF"/>
</g>
<g id="Vector 8.11 (Stroke)">
<use xlink:href="#path31_fill" transform="translate(-3807 22073)" fill="#0575FF"/>
</g>
<g id="Vector 8.12 (Stroke)">
<use xlink:href="#path32_fill" transform="translate(-3743 22063)" fill="#0575FF"/>
</g>
<g id="Vector 8.13 (Stroke)">
<use xlink:href="#path33_fill" transform="translate(-3681 22053)" fill="#0575FF"/>
</g>
<g id="Vector 8.14 (Stroke)">
<use xlink:href="#path34_fill" transform="translate(-3619 22043)" fill="#0575FF"/>
</g>
<g id="Vector 8.14 (Stroke)">
<use xlink:href="#path35_fill" transform="translate(-3546 22033)" fill="#0575FF"/>
</g>
<g id="Vector 8.14 (Stroke)">
<use xlink:href="#path36_fill" transform="translate(-3483.6 22023)" fill="#0575FF"/>
</g>
<g id="Vector 9">
<use xlink:href="#path37_stroke" transform="translate(-4436.5 21954)" fill="#000000" fill-opacity="0.1"/>
</g>
<g id="Vector 9.1">
<use xlink:href="#path38_stroke" transform="translate(-4309.5 21954)" fill="#000000" fill-opacity="0.1"/>
</g>
<g id="Vector 9.2">
<use xlink:href="#path39_stroke" transform="translate(-4184.5 21956)" fill="#000000" fill-opacity="0.1"/>
</g>
<g id="Vector 9.3">
<use xlink:href="#path40_stroke" transform="translate(-4059.5 21960)" fill="#000000" fill-opacity="0.1"/>
</g>
<g id="Vector 9.4">
<use xlink:href="#path41_stroke" transform="translate(-3933.5 21960)" fill="#000000" fill-opacity="0.1"/>
</g>
<g id="Vector 9.5">
<use xlink:href="#path42_stroke" transform="translate(-3806.5 21959)" fill="#000000" fill-opacity="0.1"/>
</g>
<g id="Vector 9.6">
<use xlink:href="#path43_stroke" transform="translate(-4502.5 22183)" fill="#000000" fill-opacity="0.1"/>
</g>
<g id="Vector 9.7">
<use xlink:href="#path44_stroke" transform="translate(-4374.5 22163)" fill="#000000" fill-opacity="0.1"/>
</g>
<g id="Vector 9.8">
<use xlink:href="#path45_stroke" transform="translate(-4249.5 22143)" fill="#000000" fill-opacity="0.1"/>
</g>
<g id="Vector 9.9">
<use xlink:href="#path46_stroke" transform="translate(-4124.5 22123)" fill="#000000" fill-opacity="0.1"/>
</g>
<g id="Vector 9.10">
<use xlink:href="#path47_stroke" transform="translate(-3999.5 22103)" fill="#000000" fill-opacity="0.1"/>
</g>
<g id="Vector 9.11">
<use xlink:href="#path48_stroke" transform="translate(-3873.5 22083)" fill="#000000" fill-opacity="0.1"/>
</g>
<g id="Vector 9.15">
<use xlink:href="#path49_stroke" transform="translate(-3742.5 22063)" fill="#000000" fill-opacity="0.1"/>
</g>
<g id="Vector 9.12">
<use xlink:href="#path50_stroke" transform="translate(-3681.5 21958)" fill="#000000" fill-opacity="0.1"/>
</g>
<g id="Vector 9.18">
<use xlink:href="#path51_stroke" transform="translate(-3545.5 21957)" fill="#000000" fill-opacity="0.1"/>
</g>
<g id="Vector 9.14">
<use xlink:href="#path52_stroke" transform="translate(-3618.5 22043)" fill="#000000" fill-opacity="0.1"/>
</g>
<g id="Vector 9.17">
<use xlink:href="#path53_stroke" transform="translate(-3483.5 22023)" fill="#000000" fill-opacity="0.1"/>
</g>
</g>
</g>
<defs>
<path id="path0_fill" d="M 2.31 5.1C 2.31 3.252 3.682 1.74 5.53 1.74C 7.378 1.74 8.75 3.252 8.75 5.1C 8.75 6.948 7.378 8.46 5.53 8.46C 3.682 8.46 2.31 6.948 2.31 5.1ZM 0.42 5.1C 0.42 7.886 2.506 10.14 5.53 10.14C 8.554 10.14 10.64 7.886 10.64 5.1C 10.64 2.314 8.554 0.0600003 5.53 0.0600003C 2.506 0.0600003 0.42 2.314 0.42 5.1ZM 11.4105 0.2L 11.4105 1.88L 14.0005 1.88L 14.0005 10L 15.8905 10L 15.8905 1.88L 18.4805 1.88L 18.4805 0.2L 11.4105 0.2ZM 24.3982 1.74C 25.3642 1.74 26.1902 2.16 26.7782 2.748L 27.9962 1.46C 27.1142 0.606 25.8682 0.0600003 24.4122 0.0600003C 21.3602 0.0600003 19.2462 2.286 19.2462 5.1C 19.2462 7.914 21.3882 10.14 24.4402 10.14C 26.2322 10.14 27.6882 9.37 28.5562 8.264L 27.2542 7.102C 26.6802 7.844 25.7562 8.46 24.4822 8.46C 22.5922 8.46 21.1362 7.004 21.1362 5.1C 21.1362 3.238 22.5362 1.74 24.3982 1.74Z"/>
<path id="path1_fill" d="M 2.197 2.357C 2.379 1.746 2.821 1.33 3.432 1.33C 4.121 1.33 4.615 1.915 4.615 2.552C 4.615 3.02 4.42 3.54 3.718 4.333L 0.52 7.96L 0.52 9L 6.435 9L 6.435 7.44L 3.263 7.44L 5.2 5.191C 5.811 4.489 6.37 3.683 6.37 2.578C 6.37 0.94 5.018 -0.23 3.458 -0.23C 2.119 -0.23 0.975 0.628 0.585 1.876L 2.197 2.357ZM 12.414 4.45C 12.414 6.166 12.037 7.57 10.984 7.57C 9.93098 7.57 9.55398 6.166 9.55398 4.45C 9.55398 2.734 9.93098 1.33 10.984 1.33C 12.037 1.33 12.414 2.734 12.414 4.45ZM 7.79898 4.45C 7.79898 7.037 8.65698 9.13 10.984 9.13C 13.311 9.13 14.169 7.037 14.169 4.45C 14.169 1.863 13.311 -0.23 10.984 -0.23C 8.65698 -0.23 7.79898 1.863 7.79898 4.45ZM 15.5939 2.864L 17.2839 1.928L 17.2839 9L 19.0389 9L 19.0389 -0.0999998L 17.8039 -0.0999998L 15.5939 1.2L 15.5939 2.864ZM 24.3014 3.215C 23.7554 3.215 23.3914 2.799 23.3914 2.279C 23.3914 1.759 23.7554 1.33 24.3014 1.33C 24.8474 1.33 25.2114 1.759 25.2114 2.279C 25.2114 2.799 24.8474 3.215 24.3014 3.215ZM 24.3014 7.57C 23.4434 7.57 22.8064 6.959 22.8064 6.179C 22.8064 5.399 23.4434 4.775 24.3014 4.775C 25.1594 4.775 25.7964 5.399 25.7964 6.179C 25.7964 6.959 25.1594 7.57 24.3014 7.57ZM 24.3014 9.13C 26.1214 9.13 27.5514 7.83 27.5514 6.179C 27.5514 5.113 26.9924 4.372 26.2384 3.878C 26.6284 3.527 26.9664 3.02 26.9664 2.279C 26.9664 0.888 25.8354 -0.23 24.3014 -0.23C 22.7674 -0.23 21.6364 0.888 21.6364 2.279C 21.6364 3.02 21.9744 3.527 22.3644 3.878C 21.6104 4.372 21.0514 5.113 21.0514 6.179C 21.0514 7.83 22.4814 9.13 24.3014 9.13ZM 32.0902 4.45C 32.0902 7.037 34.0272 9.13 36.8352 9.13C 37.8752 9.13 38.7852 8.844 39.5392 8.35L 40.1112 9L 42.1002 9L 40.6182 7.349C 41.2292 6.556 41.5802 5.542 41.5802 4.45C 41.5802 1.863 39.6432 -0.23 36.8352 -0.23C 34.0272 -0.23 32.0902 1.863 32.0902 4.45ZM 33.8452 4.45C 33.8452 2.734 35.1192 1.33 36.8352 1.33C 38.5512 1.33 39.8252 2.734 39.8252 4.45C 39.8252 5.022 39.6822 5.555 39.4352 6.01L 37.5632 3.904L 36.4582 4.866L 38.4342 7.102C 37.9792 7.401 37.4332 7.57 36.8352 7.57C 35.1192 7.57 33.8452 6.166 33.8452 4.45ZM 42.8127 2.864L 44.5027 1.928L 44.5027 9L 46.2577 9L 46.2577 -0.0999998L 45.0227 -0.0999998L 42.8127 1.2L 42.8127 2.864Z"/>
<path id="path2_fill" d="M 2.197 2.357C 2.379 1.746 2.821 1.33 3.432 1.33C 4.121 1.33 4.615 1.915 4.615 2.552C 4.615 3.02 4.42 3.54 3.718 4.333L 0.52 7.96L 0.52 9L 6.435 9L 6.435 7.44L 3.263 7.44L 5.2 5.191C 5.811 4.489 6.37 3.683 6.37 2.578C 6.37 0.94 5.018 -0.23 3.458 -0.23C 2.119 -0.23 0.975 0.628 0.585 1.876L 2.197 2.357ZM 12.414 4.45C 12.414 6.166 12.037 7.57 10.984 7.57C 9.93098 7.57 9.55398 6.166 9.55398 4.45C 9.55398 2.734 9.93098 1.33 10.984 1.33C 12.037 1.33 12.414 2.734 12.414 4.45ZM 7.79898 4.45C 7.79898 7.037 8.65698 9.13 10.984 9.13C 13.311 9.13 14.169 7.037 14.169 4.45C 14.169 1.863 13.311 -0.23 10.984 -0.23C 8.65698 -0.23 7.79898 1.863 7.79898 4.45ZM 15.5939 2.864L 17.2839 1.928L 17.2839 9L 19.0389 9L 19.0389 -0.0999998L 17.8039 -0.0999998L 15.5939 1.2L 15.5939 2.864ZM 24.3014 3.215C 23.7554 3.215 23.3914 2.799 23.3914 2.279C 23.3914 1.759 23.7554 1.33 24.3014 1.33C 24.8474 1.33 25.2114 1.759 25.2114 2.279C 25.2114 2.799 24.8474 3.215 24.3014 3.215ZM 24.3014 7.57C 23.4434 7.57 22.8064 6.959 22.8064 6.179C 22.8064 5.399 23.4434 4.775 24.3014 4.775C 25.1594 4.775 25.7964 5.399 25.7964 6.179C 25.7964 6.959 25.1594 7.57 24.3014 7.57ZM 24.3014 9.13C 26.1214 9.13 27.5514 7.83 27.5514 6.179C 27.5514 5.113 26.9924 4.372 26.2384 3.878C 26.6284 3.527 26.9664 3.02 26.9664 2.279C 26.9664 0.888 25.8354 -0.23 24.3014 -0.23C 22.7674 -0.23 21.6364 0.888 21.6364 2.279C 21.6364 3.02 21.9744 3.527 22.3644 3.878C 21.6104 4.372 21.0514 5.113 21.0514 6.179C 21.0514 7.83 22.4814 9.13 24.3014 9.13ZM 32.0902 4.45C 32.0902 7.037 34.0272 9.13 36.8352 9.13C 37.8752 9.13 38.7852 8.844 39.5392 8.35L 40.1112 9L 42.1002 9L 40.6182 7.349C 41.2292 6.556 41.5802 5.542 41.5802 4.45C 41.5802 1.863 39.6432 -0.23 36.8352 -0.23C 34.0272 -0.23 32.0902 1.863 32.0902 4.45ZM 33.8452 4.45C 33.8452 2.734 35.1192 1.33 36.8352 1.33C 38.5512 1.33 39.8252 2.734 39.8252 4.45C 39.8252 5.022 39.6822 5.555 39.4352 6.01L 37.5632 3.904L 36.4582 4.866L 38.4342 7.102C 37.9792 7.401 37.4332 7.57 36.8352 7.57C 35.1192 7.57 33.8452 6.166 33.8452 4.45ZM 44.2947 2.357C 44.4767 1.746 44.9187 1.33 45.5297 1.33C 46.2187 1.33 46.7127 1.915 46.7127 2.552C 46.7127 3.02 46.5177 3.54 45.8157 4.333L 42.6177 7.96L 42.6177 9L 48.5327 9L 48.5327 7.44L 45.3607 7.44L 47.2977 5.191C 47.9087 4.489 48.4677 3.683 48.4677 2.578C 48.4677 0.94 47.1157 -0.23 45.5557 -0.23C 44.2167 -0.23 43.0727 0.628 42.6827 1.876L 44.2947 2.357Z"/>
<path id="path3_fill" d="M 2.197 2.357C 2.379 1.746 2.821 1.33 3.432 1.33C 4.121 1.33 4.615 1.915 4.615 2.552C 4.615 3.02 4.42 3.54 3.718 4.333L 0.52 7.96L 0.52 9L 6.435 9L 6.435 7.44L 3.263 7.44L 5.2 5.191C 5.811 4.489 6.37 3.683 6.37 2.578C 6.37 0.94 5.018 -0.23 3.458 -0.23C 2.119 -0.23 0.975 0.628 0.585 1.876L 2.197 2.357ZM 12.414 4.45C 12.414 6.166 12.037 7.57 10.984 7.57C 9.93098 7.57 9.55398 6.166 9.55398 4.45C 9.55398 2.734 9.93098 1.33 10.984 1.33C 12.037 1.33 12.414 2.734 12.414 4.45ZM 7.79898 4.45C 7.79898 7.037 8.65698 9.13 10.984 9.13C 13.311 9.13 14.169 7.037 14.169 4.45C 14.169 1.863 13.311 -0.23 10.984 -0.23C 8.65698 -0.23 7.79898 1.863 7.79898 4.45ZM 15.5939 2.864L 17.2839 1.928L 17.2839 9L 19.0389 9L 19.0389 -0.0999998L 17.8039 -0.0999998L 15.5939 1.2L 15.5939 2.864ZM 24.3014 3.215C 23.7554 3.215 23.3914 2.799 23.3914 2.279C 23.3914 1.759 23.7554 1.33 24.3014 1.33C 24.8474 1.33 25.2114 1.759 25.2114 2.279C 25.2114 2.799 24.8474 3.215 24.3014 3.215ZM 24.3014 7.57C 23.4434 7.57 22.8064 6.959 22.8064 6.179C 22.8064 5.399 23.4434 4.775 24.3014 4.775C 25.1594 4.775 25.7964 5.399 25.7964 6.179C 25.7964 6.959 25.1594 7.57 24.3014 7.57ZM 24.3014 9.13C 26.1214 9.13 27.5514 7.83 27.5514 6.179C 27.5514 5.113 26.9924 4.372 26.2384 3.878C 26.6284 3.527 26.9664 3.02 26.9664 2.279C 26.9664 0.888 25.8354 -0.23 24.3014 -0.23C 22.7674 -0.23 21.6364 0.888 21.6364 2.279C 21.6364 3.02 21.9744 3.527 22.3644 3.878C 21.6104 4.372 21.0514 5.113 21.0514 6.179C 21.0514 7.83 22.4814 9.13 24.3014 9.13ZM 32.0902 4.45C 32.0902 7.037 34.0272 9.13 36.8352 9.13C 37.8752 9.13 38.7852 8.844 39.5392 8.35L 40.1112 9L 42.1002 9L 40.6182 7.349C 41.2292 6.556 41.5802 5.542 41.5802 4.45C 41.5802 1.863 39.6432 -0.23 36.8352 -0.23C 34.0272 -0.23 32.0902 1.863 32.0902 4.45ZM 33.8452 4.45C 33.8452 2.734 35.1192 1.33 36.8352 1.33C 38.5512 1.33 39.8252 2.734 39.8252 4.45C 39.8252 5.022 39.6822 5.555 39.4352 6.01L 37.5632 3.904L 36.4582 4.866L 38.4342 7.102C 37.9792 7.401 37.4332 7.57 36.8352 7.57C 35.1192 7.57 33.8452 6.166 33.8452 4.45ZM 42.4227 7.713C 43.2287 8.623 44.3077 9.13 45.4387 9.13C 47.3237 9.13 48.8317 7.843 48.8317 5.919C 48.8317 4.541 47.9737 3.449 46.7257 2.968L 48.3767 0.94L 48.3767 -0.0999998L 42.8517 -0.0999998L 42.8517 1.46L 45.8937 1.46L 44.1907 3.475L 44.1907 4.515C 44.5287 4.346 44.9187 4.255 45.2827 4.255C 46.2967 4.255 47.0767 4.97 47.0767 5.919C 47.0767 6.894 46.2317 7.57 45.3737 7.57C 44.6847 7.57 44.0607 7.193 43.6837 6.66L 42.4227 7.713Z"/>
<path id="path4_fill" d="M 2.197 2.357C 2.379 1.746 2.821 1.33 3.432 1.33C 4.121 1.33 4.615 1.915 4.615 2.552C 4.615 3.02 4.42 3.54 3.718 4.333L 0.52 7.96L 0.52 9L 6.435 9L 6.435 7.44L 3.263 7.44L 5.2 5.191C 5.811 4.489 6.37 3.683 6.37 2.578C 6.37 0.94 5.018 -0.23 3.458 -0.23C 2.119 -0.23 0.975 0.628 0.585 1.876L 2.197 2.357ZM 12.414 4.45C 12.414 6.166 12.037 7.57 10.984 7.57C 9.93098 7.57 9.55398 6.166 9.55398 4.45C 9.55398 2.734 9.93098 1.33 10.984 1.33C 12.037 1.33 12.414 2.734 12.414 4.45ZM 7.79898 4.45C 7.79898 7.037 8.65698 9.13 10.984 9.13C 13.311 9.13 14.169 7.037 14.169 4.45C 14.169 1.863 13.311 -0.23 10.984 -0.23C 8.65698 -0.23 7.79898 1.863 7.79898 4.45ZM 15.5939 2.864L 17.2839 1.928L 17.2839 9L 19.0389 9L 19.0389 -0.0999998L 17.8039 -0.0999998L 15.5939 1.2L 15.5939 2.864ZM 24.3014 3.215C 23.7554 3.215 23.3914 2.799 23.3914 2.279C 23.3914 1.759 23.7554 1.33 24.3014 1.33C 24.8474 1.33 25.2114 1.759 25.2114 2.279C 25.2114 2.799 24.8474 3.215 24.3014 3.215ZM 24.3014 7.57C 23.4434 7.57 22.8064 6.959 22.8064 6.179C 22.8064 5.399 23.4434 4.775 24.3014 4.775C 25.1594 4.775 25.7964 5.399 25.7964 6.179C 25.7964 6.959 25.1594 7.57 24.3014 7.57ZM 24.3014 9.13C 26.1214 9.13 27.5514 7.83 27.5514 6.179C 27.5514 5.113 26.9924 4.372 26.2384 3.878C 26.6284 3.527 26.9664 3.02 26.9664 2.279C 26.9664 0.888 25.8354 -0.23 24.3014 -0.23C 22.7674 -0.23 21.6364 0.888 21.6364 2.279C 21.6364 3.02 21.9744 3.527 22.3644 3.878C 21.6104 4.372 21.0514 5.113 21.0514 6.179C 21.0514 7.83 22.4814 9.13 24.3014 9.13ZM 32.0902 4.45C 32.0902 7.037 34.0272 9.13 36.8352 9.13C 37.8752 9.13 38.7852 8.844 39.5392 8.35L 40.1112 9L 42.1002 9L 40.6182 7.349C 41.2292 6.556 41.5802 5.542 41.5802 4.45C 41.5802 1.863 39.6432 -0.23 36.8352 -0.23C 34.0272 -0.23 32.0902 1.863 32.0902 4.45ZM 33.8452 4.45C 33.8452 2.734 35.1192 1.33 36.8352 1.33C 38.5512 1.33 39.8252 2.734 39.8252 4.45C 39.8252 5.022 39.6822 5.555 39.4352 6.01L 37.5632 3.904L 36.4582 4.866L 38.4342 7.102C 37.9792 7.401 37.4332 7.57 36.8352 7.57C 35.1192 7.57 33.8452 6.166 33.8452 4.45ZM 47.1027 -0.0999998L 42.3577 5.88L 42.3577 6.92L 46.5827 6.92L 46.5827 9L 48.3377 9L 48.3377 6.92L 49.8327 6.92L 49.8327 5.36L 48.3377 5.36L 48.3377 -0.0999998L 47.1027 -0.0999998ZM 44.8797 5.36L 46.5827 3.228L 46.5827 5.36L 44.8797 5.36Z"/>
<path id="path5_fill" d="M 3.388 10L 4.718 10L 6.888 3.798L 9.072 10L 10.402 10L 13.65 0.2L 11.746 0.2L 9.716 6.318L 7.56 0.2L 6.23 0.2L 4.074 6.318L 2.044 0.2L 0.14 0.2L 3.388 10ZM 19.5349 7.62C 19.1849 8.124 18.5829 8.46 17.8969 8.46C 16.8749 8.46 16.1049 7.676 16.1049 6.612C 16.1049 5.632 16.7909 4.75 17.8549 4.75C 18.5549 4.75 19.1569 5.086 19.5349 5.59L 19.5349 7.62ZM 21.3549 3.21L 19.6049 3.21L 19.6049 3.756C 19.0729 3.322 18.3869 3.07 17.6169 3.07C 15.7689 3.07 14.2849 4.61 14.2849 6.612C 14.2849 7.536 14.6209 8.376 15.1529 8.992C 15.7549 9.692 16.7069 10.14 17.7149 10.14C 18.4009 10.14 19.0449 9.93 19.6049 9.454L 19.6049 10L 21.3549 10L 21.3549 3.21ZM 25.2782 0.0600003L 23.4582 0.0600003L 23.4582 10L 25.2782 10L 25.2782 0.0600003ZM 29.202 0.0600003L 27.382 0.0600003L 27.382 10L 29.202 10L 29.202 0.0600003ZM 36.0519 7.886C 35.7299 8.236 35.1139 8.67 34.3439 8.67C 33.3779 8.67 32.6079 8.012 32.5099 7.06L 37.2139 7.06C 37.2419 6.906 37.2559 6.724 37.2559 6.542C 37.2559 4.652 35.9259 3.07 34.0499 3.07C 32.0339 3.07 30.7459 4.722 30.7459 6.612C 30.7459 8.74 32.2719 10.14 34.3019 10.14C 35.3519 10.14 36.4299 9.706 37.0879 8.922L 36.0519 7.886ZM 32.5939 5.73C 32.6779 5.114 33.2939 4.54 34.0499 4.54C 34.7919 4.54 35.3379 5.128 35.3939 5.73L 32.5939 5.73ZM 43.628 8.46C 43.502 8.488 43.152 8.53 42.886 8.53C 42.438 8.53 42.144 8.404 41.962 8.194C 41.808 8.012 41.738 7.76 41.738 7.34L 41.738 4.75L 43.978 4.75L 43.978 3.21L 41.738 3.21L 41.738 1.32L 39.918 1.32L 39.918 3.21L 38.028 3.21L 38.028 4.75L 39.918 4.75L 39.918 7.13C 39.918 8.096 40.072 8.698 40.422 9.16C 40.884 9.776 41.682 10.14 42.774 10.14C 43.124 10.14 43.67 10.084 43.908 10L 43.628 8.46ZM 7 22.88L 7 21.2L 1.12 21.2L 1.12 31L 7.14 31L 7.14 29.32L 3.01 29.32L 3.01 26.59L 6.02 26.59L 6.02 24.91L 3.01 24.91L 3.01 22.88L 7 22.88ZM 10.5673 31L 10.5673 26.59C 10.8193 26.24 11.4493 25.75 12.2193 25.75C 12.6393 25.75 13.0033 25.89 13.2413 26.128C 13.4933 26.38 13.6473 26.73 13.6473 27.402L 13.6473 31L 15.4673 31L 15.4673 27.542C 15.4673 26.38 15.2153 25.694 14.7673 25.162C 14.2073 24.49 13.3533 24.07 12.4153 24.07C 11.6593 24.07 11.0153 24.336 10.4973 24.756L 10.4973 24.21L 8.74727 24.21L 8.74727 31L 10.5673 31ZM 22.1889 28.564C 21.8949 29.012 21.3069 29.46 20.5649 29.46C 19.4589 29.46 18.6889 28.676 18.6889 27.612C 18.6889 26.576 19.4729 25.75 20.5229 25.75C 21.1809 25.75 21.7269 26.086 22.0909 26.562L 23.3789 25.428C 22.7489 24.616 21.6989 24.07 20.5229 24.07C 18.4509 24.07 16.8689 25.638 16.8689 27.612C 16.8689 29.572 18.4089 31.14 20.5089 31.14C 21.7829 31.14 22.7909 30.678 23.5889 29.614L 22.1889 28.564ZM 29.3295 24.126C 29.1335 24.098 28.9795 24.07 28.7135 24.07C 27.8875 24.07 27.1455 24.392 26.7395 24.896L 26.7395 24.21L 24.9895 24.21L 24.9895 31L 26.8095 31L 26.8095 26.73C 27.0335 26.324 27.6635 25.75 28.4615 25.75C 28.7275 25.75 28.9935 25.778 29.1195 25.82L 29.3295 24.126ZM 32.8876 34.36L 37.5636 24.21L 35.6456 24.21L 33.8116 28.284L 31.8236 24.21L 29.8216 24.21L 32.8596 30.314L 30.9836 34.36L 32.8876 34.36ZM 38.757 34.36L 40.577 34.36L 40.577 30.524C 41.123 30.944 41.711 31.14 42.397 31.14C 43.405 31.14 44.371 30.692 44.973 29.992C 45.505 29.376 45.827 28.536 45.827 27.612C 45.827 25.61 44.343 24.07 42.495 24.07C 41.725 24.07 41.039 24.322 40.507 24.756L 40.507 24.21L 38.757 24.21L 38.757 34.36ZM 40.577 26.59C 40.955 26.086 41.557 25.75 42.257 25.75C 43.321 25.75 44.007 26.632 44.007 27.612C 44.007 28.676 43.237 29.46 42.215 29.46C 41.529 29.46 40.927 29.124 40.577 28.62L 40.577 26.59ZM 52.2003 29.46C 52.0743 29.488 51.7243 29.53 51.4583 29.53C 51.0103 29.53 50.7163 29.404 50.5343 29.194C 50.3803 29.012 50.3103 28.76 50.3103 28.34L 50.3103 25.75L 52.5503 25.75L 52.5503 24.21L 50.3103 24.21L 50.3103 22.32L 48.4903 22.32L 48.4903 24.21L 46.6003 24.21L 46.6003 25.75L 48.4903 25.75L 48.4903 28.13C 48.4903 29.096 48.6443 29.698 48.9943 30.16C 49.4563 30.776 50.2543 31.14 51.3463 31.14C 51.6963 31.14 52.2423 31.084 52.4803 31L 52.2003 29.46ZM 56.122 24.21L 54.302 24.21L 54.302 31L 56.122 31L 56.122 24.21ZM 54.022 21.802C 54.022 22.46 54.554 22.964 55.212 22.964C 55.87 22.964 56.402 22.46 56.402 21.802C 56.402 21.144 55.87 20.64 55.212 20.64C 54.554 20.64 54.022 21.144 54.022 21.802ZM 57.6658 27.612C 57.6658 29.572 59.2198 31.14 61.2778 31.14C 63.3358 31.14 64.8898 29.572 64.8898 27.612C 64.8898 25.652 63.3358 24.07 61.2778 24.07C 59.2198 24.07 57.6658 25.652 57.6658 27.612ZM 59.4858 27.612C 59.4858 26.59 60.2138 25.75 61.2778 25.75C 62.3418 25.75 63.0698 26.59 63.0698 27.612C 63.0698 28.634 62.3418 29.46 61.2778 29.46C 60.2138 29.46 59.4858 28.634 59.4858 27.612ZM 68.2489 31L 68.2489 26.59C 68.5009 26.24 69.1309 25.75 69.9009 25.75C 70.3209 25.75 70.6849 25.89 70.9229 26.128C 71.1749 26.38 71.3289 26.73 71.3289 27.402L 71.3289 31L 73.1489 31L 73.1489 27.542C 73.1489 26.38 72.8969 25.694 72.4489 25.162C 71.8889 24.49 71.0349 24.07 70.0969 24.07C 69.3409 24.07 68.6969 24.336 68.1789 24.756L 68.1789 24.21L 66.4289 24.21L 66.4289 31L 68.2489 31Z"/>
<path id="path6_fill" d="M 0.14 8.67C 1.148 9.594 2.366 10.14 3.682 10.14C 5.446 10.14 7 8.936 7 7.2C 7 3.896 2.478 4.386 2.478 2.804C 2.478 2.048 3.276 1.74 3.99 1.74C 4.634 1.74 5.292 2.02 5.684 2.384L 6.664 0.984C 5.74 0.298 4.816 0.0600003 3.822 0.0600003C 2.198 0.0600003 0.588 1.068 0.588 2.818C 0.588 3.924 1.204 4.596 1.974 5.044C 3.29 5.814 5.11 5.968 5.11 7.228C 5.11 7.942 4.522 8.46 3.682 8.46C 2.786 8.46 1.932 7.998 1.372 7.382L 0.14 8.67ZM 15.2622 3.21L 12.7002 3.21L 10.3622 5.408L 10.3622 0.0600003L 8.54219 0.0600003L 8.54219 10L 10.3622 10L 10.3622 7.06L 13.2322 10L 15.6822 10L 11.9442 6.262L 15.2622 3.21ZM 19.0244 13.36L 23.7004 3.21L 21.7824 3.21L 19.9484 7.284L 17.9604 3.21L 15.9584 3.21L 18.9964 9.314L 17.1204 13.36L 19.0244 13.36ZM 26.7137 0.0600003L 24.8938 0.0600003L 24.8938 10L 26.7137 10L 26.7137 0.0600003ZM 33.5636 7.886C 33.2416 8.236 32.6256 8.67 31.8556 8.67C 30.8896 8.67 30.1196 8.012 30.0216 7.06L 34.7256 7.06C 34.7536 6.906 34.7676 6.724 34.7676 6.542C 34.7676 4.652 33.4376 3.07 31.5616 3.07C 29.5456 3.07 28.2576 4.722 28.2576 6.612C 28.2576 8.74 29.7836 10.14 31.8136 10.14C 32.8636 10.14 33.9416 9.706 34.5996 8.922L 33.5636 7.886ZM 30.1056 5.73C 30.1896 5.114 30.8056 4.54 31.5616 4.54C 32.3036 4.54 32.8496 5.128 32.9056 5.73L 30.1056 5.73ZM 40.9998 7.62C 40.6498 8.124 40.0478 8.46 39.3618 8.46C 38.3398 8.46 37.5698 7.676 37.5698 6.612C 37.5698 5.632 38.2558 4.75 39.3198 4.75C 40.0198 4.75 40.6218 5.086 40.9998 5.59L 40.9998 7.62ZM 42.8198 10L 42.8198 0.0600003L 40.9998 0.0600003L 40.9998 3.7C 40.4678 3.28 39.8238 3.07 39.0818 3.07C 37.2338 3.07 35.7498 4.61 35.7498 6.612C 35.7498 7.536 36.0858 8.376 36.6178 8.992C 37.2198 9.692 38.1718 10.14 39.1798 10.14C 39.8658 10.14 40.5098 9.93 41.0698 9.454L 41.0698 10L 42.8198 10ZM 51.433 3.21L 49.683 3.21L 49.683 3.756C 49.151 3.322 48.465 3.07 47.695 3.07C 45.847 3.07 44.363 4.61 44.363 6.612C 44.363 7.536 44.685 8.376 45.217 8.992C 45.819 9.692 46.785 10.14 47.793 10.14C 48.479 10.14 49.067 9.944 49.613 9.524L 49.613 9.748C 49.613 10.616 49.473 11.036 49.193 11.344C 48.885 11.708 48.395 11.89 47.807 11.89C 46.687 11.89 46.057 11.302 45.693 10.91L 44.545 12.1C 45.217 12.884 46.477 13.5 47.807 13.5C 49.109 13.5 50.201 12.996 50.817 12.142C 51.223 11.568 51.433 10.84 51.433 9.622L 51.433 3.21ZM 49.613 7.62C 49.263 8.124 48.661 8.46 47.975 8.46C 46.953 8.46 46.183 7.676 46.183 6.612C 46.183 5.632 46.869 4.75 47.933 4.75C 48.633 4.75 49.235 5.086 49.613 5.59L 49.613 7.62ZM 58.2823 7.886C 57.9603 8.236 57.3443 8.67 56.5743 8.67C 55.6083 8.67 54.8383 8.012 54.7403 7.06L 59.4443 7.06C 59.4723 6.906 59.4863 6.724 59.4863 6.542C 59.4863 4.652 58.1563 3.07 56.2803 3.07C 54.2643 3.07 52.9763 4.722 52.9763 6.612C 52.9763 8.74 54.5023 10.14 56.5323 10.14C 57.5823 10.14 58.6603 9.706 59.3183 8.922L 58.2823 7.886ZM 54.8243 5.73C 54.9083 5.114 55.5243 4.54 56.2803 4.54C 57.0223 4.54 57.5683 5.128 57.6243 5.73L 54.8243 5.73ZM 65.3685 3.126C 65.1725 3.098 65.0185 3.07 64.7525 3.07C 63.9265 3.07 63.1845 3.392 62.7785 3.896L 62.7785 3.21L 61.0285 3.21L 61.0285 10L 62.8485 10L 62.8485 5.73C 63.0725 5.324 63.7025 4.75 64.5005 4.75C 64.7665 4.75 65.0325 4.778 65.1585 4.82L 65.3685 3.126ZM 0.378 30.23C 1.176 30.818 2.17 31.14 3.108 31.14C 4.536 31.14 5.81 30.342 5.81 29.04C 5.81 26.688 2.52 27.038 2.52 26.156C 2.52 25.806 2.94 25.61 3.444 25.61C 3.934 25.61 4.396 25.82 4.746 26.072L 5.6 24.756C 5.152 24.406 4.186 24.07 3.304 24.07C 1.96 24.07 0.7 24.882 0.7 26.184C 0.7 28.368 3.99 28.004 3.99 29.026C 3.99 29.362 3.612 29.6 3.122 29.6C 2.436 29.6 1.722 29.348 1.26 28.928L 0.378 30.23ZM 12.1095 24.21L 12.1095 28.62C 11.8575 28.942 11.2975 29.46 10.5275 29.46C 10.1775 29.46 9.78545 29.348 9.50545 29.04C 9.29545 28.802 9.16945 28.494 9.16945 27.878L 9.16945 24.21L 7.34945 24.21L 7.34945 27.808C 7.34945 28.816 7.60145 29.516 8.03545 30.048C 8.56745 30.706 9.40745 31.14 10.3455 31.14C 11.0035 31.14 11.6475 30.93 12.1795 30.454L 12.1795 31L 13.9295 31L 13.9295 24.21L 12.1095 24.21ZM 16.0344 34.36L 17.8544 34.36L 17.8544 30.524C 18.4004 30.944 18.9884 31.14 19.6744 31.14C 20.6824 31.14 21.6484 30.692 22.2504 29.992C 22.7824 29.376 23.1044 28.536 23.1044 27.612C 23.1044 25.61 21.6204 24.07 19.7724 24.07C 19.0024 24.07 18.3164 24.322 17.7844 24.756L 17.7844 24.21L 16.0344 24.21L 16.0344 34.36ZM 17.8544 26.59C 18.2324 26.086 18.8344 25.75 19.5344 25.75C 20.5984 25.75 21.2844 26.632 21.2844 27.612C 21.2844 28.676 20.5144 29.46 19.4924 29.46C 18.8064 29.46 18.2044 29.124 17.8544 28.62L 17.8544 26.59ZM 24.6477 34.36L 26.4677 34.36L 26.4677 30.524C 27.0137 30.944 27.6017 31.14 28.2877 31.14C 29.2957 31.14 30.2617 30.692 30.8637 29.992C 31.3957 29.376 31.7177 28.536 31.7177 27.612C 31.7177 25.61 30.2337 24.07 28.3857 24.07C 27.6157 24.07 26.9297 24.322 26.3977 24.756L 26.3977 24.21L 24.6477 24.21L 24.6477 34.36ZM 26.4677 26.59C 26.8457 26.086 27.4477 25.75 28.1477 25.75C 29.2117 25.75 29.8977 26.632 29.8977 27.612C 29.8977 28.676 29.1277 29.46 28.1057 29.46C 27.4197 29.46 26.8177 29.124 26.4677 28.62L 26.4677 26.59ZM 32.7009 27.612C 32.7009 29.572 34.2549 31.14 36.3129 31.14C 38.3709 31.14 39.9249 29.572 39.9249 27.612C 39.9249 25.652 38.3709 24.07 36.3129 24.07C 34.2549 24.07 32.7009 25.652 32.7009 27.612ZM 34.5209 27.612C 34.5209 26.59 35.2489 25.75 36.3129 25.75C 37.3769 25.75 38.1049 26.59 38.1049 27.612C 38.1049 28.634 37.3769 29.46 36.3129 29.46C 35.2489 29.46 34.5209 28.634 34.5209 27.612ZM 45.8041 24.126C 45.6081 24.098 45.4541 24.07 45.1881 24.07C 44.3621 24.07 43.6201 24.392 43.2141 24.896L 43.2141 24.21L 41.4641 24.21L 41.4641 31L 43.2841 31L 43.2841 26.73C 43.5081 26.324 44.1381 25.75 44.9361 25.75C 45.2021 25.75 45.4681 25.778 45.5941 25.82L 45.8041 24.126ZM 52.0362 29.46C 51.9103 29.488 51.5603 29.53 51.2943 29.53C 50.8463 29.53 50.5523 29.404 50.3702 29.194C 50.2162 29.012 50.1462 28.76 50.1462 28.34L 50.1462 25.75L 52.3862 25.75L 52.3862 24.21L 50.1462 24.21L 50.1462 22.32L 48.3263 22.32L 48.3263 24.21L 46.4362 24.21L 46.4362 25.75L 48.3263 25.75L 48.3263 28.13C 48.3263 29.096 48.4802 29.698 48.8302 30.16C 49.2923 30.776 50.0902 31.14 51.1822 31.14C 51.5323 31.14 52.0783 31.084 52.3162 31L 52.0362 29.46ZM 62.6013 28.62C 62.2513 29.124 61.6493 29.46 60.9633 29.46C 59.9413 29.46 59.1713 28.676 59.1713 27.612C 59.1713 26.632 59.8573 25.75 60.9213 25.75C 61.6213 25.75 62.2233 26.086 62.6013 26.59L 62.6013 28.62ZM 64.4213 31L 64.4213 21.06L 62.6013 21.06L 62.6013 24.7C 62.0693 24.28 61.4253 24.07 60.6833 24.07C 58.8353 24.07 57.3513 25.61 57.3513 27.612C 57.3513 28.536 57.6873 29.376 58.2193 29.992C 58.8213 30.692 59.7733 31.14 60.7813 31.14C 61.4673 31.14 62.1113 30.93 62.6713 30.454L 62.6713 31L 64.4213 31ZM 71.2706 28.886C 70.9486 29.236 70.3326 29.67 69.5626 29.67C 68.5966 29.67 67.8266 29.012 67.7286 28.06L 72.4326 28.06C 72.4606 27.906 72.4746 27.724 72.4746 27.542C 72.4746 25.652 71.1446 24.07 69.2686 24.07C 67.2526 24.07 65.9646 25.722 65.9646 27.612C 65.9646 29.74 67.4906 31.14 69.5206 31.14C 70.5706 31.14 71.6486 30.706 72.3066 29.922L 71.2706 28.886ZM 67.8126 26.73C 67.8966 26.114 68.5126 25.54 69.2686 25.54C 70.0106 25.54 70.5566 26.128 70.6126 26.73L 67.8126 26.73ZM 73.3448 30.23C 74.1428 30.818 75.1368 31.14 76.0748 31.14C 77.5028 31.14 78.7768 30.342 78.7768 29.04C 78.7768 26.688 75.4868 27.038 75.4868 26.156C 75.4868 25.806 75.9068 25.61 76.4108 25.61C 76.9008 25.61 77.3628 25.82 77.7128 26.072L 78.5668 24.756C 78.1188 24.406 77.1528 24.07 76.2708 24.07C 74.9268 24.07 73.6668 24.882 73.6668 26.184C 73.6668 28.368 76.9568 28.004 76.9568 29.026C 76.9568 29.362 76.5788 29.6 76.0888 29.6C 75.4028 29.6 74.6888 29.348 74.2268 28.928L 73.3448 30.23ZM 87.1763 24.21L 84.6143 24.21L 82.2762 26.408L 82.2762 21.06L 80.4563 21.06L 80.4563 31L 82.2762 31L 82.2762 28.06L 85.1462 31L 87.5962 31L 83.8582 27.262L 87.1763 24.21Z"/>
<path id="path7_fill" d="M 1.12 10L 3.01 10L 3.01 3.616L 8.47 10L 9.8 10L 9.8 0.2L 7.91 0.2L 7.91 6.584L 2.45 0.2L 1.12 0.2L 1.12 10ZM 16.7198 7.886C 16.3978 8.236 15.7818 8.67 15.0118 8.67C 14.0458 8.67 13.2758 8.012 13.1778 7.06L 17.8818 7.06C 17.9098 6.906 17.9238 6.724 17.9238 6.542C 17.9238 4.652 16.5938 3.07 14.7178 3.07C 12.7018 3.07 11.4138 4.722 11.4138 6.612C 11.4138 8.74 12.9398 10.14 14.9698 10.14C 16.0198 10.14 17.0978 9.706 17.7558 8.922L 16.7198 7.886ZM 13.2618 5.73C 13.3458 5.114 13.9618 4.54 14.7178 4.54C 15.4598 4.54 16.0058 5.128 16.0618 5.73L 13.2618 5.73ZM 24.38 6.052L 26.088 10L 27.348 10L 30.204 3.21L 28.37 3.21L 26.704 7.172L 25.01 3.21L 23.75 3.21L 22.042 7.172L 20.39 3.21L 18.556 3.21L 21.412 10L 22.672 10L 24.38 6.052ZM 3.388 31L 4.718 31L 6.888 24.798L 9.072 31L 10.402 31L 13.65 21.2L 11.746 21.2L 9.716 27.318L 7.56 21.2L 6.23 21.2L 4.074 27.318L 2.044 21.2L 0.14 21.2L 3.388 31ZM 19.5909 28.886C 19.2689 29.236 18.6529 29.67 17.8829 29.67C 16.9169 29.67 16.1469 29.012 16.0489 28.06L 20.7529 28.06C 20.7809 27.906 20.7949 27.724 20.7949 27.542C 20.7949 25.652 19.4649 24.07 17.5889 24.07C 15.5729 24.07 14.2849 25.722 14.2849 27.612C 14.2849 29.74 15.8109 31.14 17.8409 31.14C 18.8909 31.14 19.9689 30.706 20.6269 29.922L 19.5909 28.886ZM 16.1329 26.73C 16.2169 26.114 16.8329 25.54 17.5889 25.54C 18.3309 25.54 18.8769 26.128 18.9329 26.73L 16.1329 26.73ZM 24.1571 26.59C 24.5351 26.086 25.1371 25.75 25.8371 25.75C 26.9011 25.75 27.5871 26.632 27.5871 27.612C 27.5871 28.676 26.8171 29.46 25.7951 29.46C 25.1091 29.46 24.5071 29.124 24.1571 28.62L 24.1571 26.59ZM 24.0871 31L 24.0871 30.454C 24.6471 30.93 25.2911 31.14 25.9771 31.14C 26.9851 31.14 27.9371 30.692 28.5391 29.992C 29.0711 29.376 29.4071 28.536 29.4071 27.612C 29.4071 25.61 27.9231 24.07 26.0751 24.07C 25.3331 24.07 24.6891 24.28 24.1571 24.7L 24.1571 21.06L 22.3371 21.06L 22.3371 31L 24.0871 31ZM 30.2784 30.23C 31.0764 30.818 32.0704 31.14 33.0084 31.14C 34.4364 31.14 35.7104 30.342 35.7104 29.04C 35.7104 26.688 32.4204 27.038 32.4204 26.156C 32.4204 25.806 32.8404 25.61 33.3444 25.61C 33.8344 25.61 34.2964 25.82 34.6464 26.072L 35.5004 24.756C 35.0524 24.406 34.0864 24.07 33.2044 24.07C 31.8604 24.07 30.6004 24.882 30.6004 26.184C 30.6004 28.368 33.8904 28.004 33.8904 29.026C 33.8904 29.362 33.5124 29.6 33.0224 29.6C 32.3364 29.6 31.6224 29.348 31.1604 28.928L 30.2784 30.23ZM 39.2098 24.21L 37.3898 24.21L 37.3898 31L 39.2098 31L 39.2098 24.21ZM 37.1098 21.802C 37.1098 22.46 37.6418 22.964 38.2998 22.964C 38.9578 22.964 39.4898 22.46 39.4898 21.802C 39.4898 21.144 38.9578 20.64 38.2998 20.64C 37.6418 20.64 37.1098 21.144 37.1098 21.802ZM 46.1437 29.46C 46.0177 29.488 45.6677 29.53 45.4017 29.53C 44.9537 29.53 44.6597 29.404 44.4777 29.194C 44.3237 29.012 44.2537 28.76 44.2537 28.34L 44.2537 25.75L 46.4937 25.75L 46.4937 24.21L 44.2537 24.21L 44.2537 22.32L 42.4337 22.32L 42.4337 24.21L 40.5437 24.21L 40.5437 25.75L 42.4337 25.75L 42.4337 28.13C 42.4337 29.096 42.5877 29.698 42.9377 30.16C 43.3997 30.776 44.1977 31.14 45.2897 31.14C 45.6397 31.14 46.1857 31.084 46.4237 31L 46.1437 29.46ZM 52.9913 28.886C 52.6693 29.236 52.0533 29.67 51.2833 29.67C 50.3173 29.67 49.5473 29.012 49.4493 28.06L 54.1533 28.06C 54.1813 27.906 54.1953 27.724 54.1953 27.542C 54.1953 25.652 52.8653 24.07 50.9893 24.07C 48.9733 24.07 47.6853 25.722 47.6853 27.612C 47.6853 29.74 49.2113 31.14 51.2413 31.14C 52.2913 31.14 53.3693 30.706 54.0273 29.922L 52.9913 28.886ZM 49.5333 26.73C 49.6173 26.114 50.2333 25.54 50.9893 25.54C 51.7313 25.54 52.2773 26.128 52.3333 26.73L 49.5333 26.73Z"/>
<path id="path8_fill" d="M 2.31 5.1C 2.31 3.252 3.682 1.74 5.53 1.74C 7.378 1.74 8.75 3.252 8.75 5.1C 8.75 6.948 7.378 8.46 5.53 8.46C 3.682 8.46 2.31 6.948 2.31 5.1ZM 0.42 5.1C 0.42 7.886 2.506 10.14 5.53 10.14C 8.554 10.14 10.64 7.886 10.64 5.1C 10.64 2.314 8.554 0.0600003 5.53 0.0600003C 2.506 0.0600003 0.42 2.314 0.42 5.1ZM 11.4105 0.2L 11.4105 1.88L 14.0005 1.88L 14.0005 10L 15.8905 10L 15.8905 1.88L 18.4805 1.88L 18.4805 0.2L 11.4105 0.2ZM 24.3982 1.74C 25.3642 1.74 26.1902 2.16 26.7782 2.748L 27.9962 1.46C 27.1142 0.606 25.8682 0.0600003 24.4122 0.0600003C 21.3602 0.0600003 19.2462 2.286 19.2462 5.1C 19.2462 7.914 21.3882 10.14 24.4402 10.14C 26.2322 10.14 27.6882 9.37 28.5562 8.264L 27.2542 7.102C 26.6802 7.844 25.7562 8.46 24.4822 8.46C 22.5922 8.46 21.1362 7.004 21.1362 5.1C 21.1362 3.238 22.5362 1.74 24.3982 1.74ZM 1.05 34.36L 2.87 34.36L 2.87 30.524C 3.416 30.944 4.004 31.14 4.69 31.14C 5.698 31.14 6.664 30.692 7.266 29.992C 7.798 29.376 8.12 28.536 8.12 27.612C 8.12 25.61 6.636 24.07 4.788 24.07C 4.018 24.07 3.332 24.322 2.8 24.756L 2.8 24.21L 1.05 24.21L 1.05 34.36ZM 2.87 26.59C 3.248 26.086 3.85 25.75 4.55 25.75C 5.614 25.75 6.3 26.632 6.3 27.612C 6.3 28.676 5.53 29.46 4.508 29.46C 3.822 29.46 3.22 29.124 2.87 28.62L 2.87 26.59ZM 14.3533 28.62C 14.0033 29.124 13.4013 29.46 12.7153 29.46C 11.6933 29.46 10.9233 28.676 10.9233 27.612C 10.9233 26.632 11.6093 25.75 12.6733 25.75C 13.3733 25.75 13.9753 26.086 14.3533 26.59L 14.3533 28.62ZM 16.1733 24.21L 14.4233 24.21L 14.4233 24.756C 13.8913 24.322 13.2053 24.07 12.4353 24.07C 10.5873 24.07 9.10328 25.61 9.10328 27.612C 9.10328 28.536 9.43928 29.376 9.97128 29.992C 10.5733 30.692 11.5253 31.14 12.5333 31.14C 13.2193 31.14 13.8633 30.93 14.4233 30.454L 14.4233 31L 16.1733 31L 16.1733 24.21ZM 17.6046 30.23C 18.4026 30.818 19.3966 31.14 20.3346 31.14C 21.7626 31.14 23.0366 30.342 23.0366 29.04C 23.0366 26.688 19.7466 27.038 19.7466 26.156C 19.7466 25.806 20.1666 25.61 20.6706 25.61C 21.1606 25.61 21.6226 25.82 21.9726 26.072L 22.8266 24.756C 22.3786 24.406 21.4126 24.07 20.5306 24.07C 19.1866 24.07 17.9266 24.882 17.9266 26.184C 17.9266 28.368 21.2166 28.004 21.2166 29.026C 21.2166 29.362 20.8386 29.6 20.3486 29.6C 19.6626 29.6 18.9486 29.348 18.4866 28.928L 17.6046 30.23ZM 24.044 30.23C 24.842 30.818 25.836 31.14 26.774 31.14C 28.202 31.14 29.476 30.342 29.476 29.04C 29.476 26.688 26.186 27.038 26.186 26.156C 26.186 25.806 26.606 25.61 27.11 25.61C 27.6 25.61 28.062 25.82 28.412 26.072L 29.266 24.756C 28.818 24.406 27.852 24.07 26.97 24.07C 25.626 24.07 24.366 24.882 24.366 26.184C 24.366 28.368 27.656 28.004 27.656 29.026C 27.656 29.362 27.278 29.6 26.788 29.6C 26.102 29.6 25.388 29.348 24.926 28.928L 24.044 30.23ZM 35.9855 29.46C 35.8595 29.488 35.5095 29.53 35.2435 29.53C 34.7955 29.53 34.5015 29.404 34.3195 29.194C 34.1655 29.012 34.0955 28.76 34.0955 28.34L 34.0955 25.75L 36.3355 25.75L 36.3355 24.21L 34.0955 24.21L 34.0955 22.32L 32.2755 22.32L 32.2755 24.21L 30.3855 24.21L 30.3855 25.75L 32.2755 25.75L 32.2755 28.13C 32.2755 29.096 32.4295 29.698 32.7795 30.16C 33.2415 30.776 34.0395 31.14 35.1315 31.14C 35.4815 31.14 36.0275 31.084 36.2655 31L 35.9855 29.46ZM 39.9071 26.59C 40.1591 26.24 40.7891 25.75 41.5591 25.75C 41.9791 25.75 42.3431 25.89 42.5811 26.128C 42.8331 26.38 42.9871 26.73 42.9871 27.402L 42.9871 31L 44.8071 31L 44.8071 27.542C 44.8071 26.38 44.5551 25.694 44.1071 25.162C 43.5471 24.49 42.6931 24.07 41.7551 24.07C 41.0551 24.07 40.4111 24.308 39.9071 24.7L 39.9071 21.06L 38.0871 21.06L 38.0871 31L 39.9071 31L 39.9071 26.59ZM 51.1087 24.126C 50.9127 24.098 50.7588 24.07 50.4927 24.07C 49.6668 24.07 48.9248 24.392 48.5188 24.896L 48.5188 24.21L 46.7688 24.21L 46.7688 31L 48.5887 31L 48.5887 26.73C 48.8128 26.324 49.4428 25.75 50.2408 25.75C 50.5068 25.75 50.7728 25.778 50.8988 25.82L 51.1087 24.126ZM 51.9509 27.612C 51.9509 29.572 53.5049 31.14 55.5629 31.14C 57.6209 31.14 59.1749 29.572 59.1749 27.612C 59.1749 25.652 57.6209 24.07 55.5629 24.07C 53.5049 24.07 51.9509 25.652 51.9509 27.612ZM 53.7709 27.612C 53.7709 26.59 54.4989 25.75 55.5629 25.75C 56.6269 25.75 57.3549 26.59 57.3549 27.612C 57.3549 28.634 56.6269 29.46 55.5629 29.46C 54.4989 29.46 53.7709 28.634 53.7709 27.612ZM 65.3341 24.21L 65.3341 28.62C 65.0821 28.942 64.5221 29.46 63.7521 29.46C 63.4021 29.46 63.0101 29.348 62.7301 29.04C 62.5201 28.802 62.3941 28.494 62.3941 27.878L 62.3941 24.21L 60.5741 24.21L 60.5741 27.808C 60.5741 28.816 60.8261 29.516 61.2601 30.048C 61.7921 30.706 62.6321 31.14 63.5701 31.14C 64.2281 31.14 64.8721 30.93 65.4041 30.454L 65.4041 31L 67.1541 31L 67.1541 24.21L 65.3341 24.21ZM 75.769 24.21L 74.019 24.21L 74.019 24.756C 73.487 24.322 72.801 24.07 72.031 24.07C 70.183 24.07 68.699 25.61 68.699 27.612C 68.699 28.536 69.021 29.376 69.553 29.992C 70.155 30.692 71.121 31.14 72.129 31.14C 72.815 31.14 73.403 30.944 73.949 30.524L 73.949 30.748C 73.949 31.616 73.809 32.036 73.529 32.344C 73.221 32.708 72.731 32.89 72.143 32.89C 71.023 32.89 70.393 32.302 70.029 31.91L 68.881 33.1C 69.553 33.884 70.813 34.5 72.143 34.5C 73.445 34.5 74.537 33.996 75.153 33.142C 75.559 32.568 75.769 31.84 75.769 30.622L 75.769 24.21ZM 73.949 28.62C 73.599 29.124 72.997 29.46 72.311 29.46C 71.289 29.46 70.519 28.676 70.519 27.612C 70.519 26.632 71.205 25.75 72.269 25.75C 72.969 25.75 73.571 26.086 73.949 26.59L 73.949 28.62ZM 79.6923 26.59C 79.9443 26.24 80.5743 25.75 81.3443 25.75C 81.7643 25.75 82.1283 25.89 82.3663 26.128C 82.6183 26.38 82.7723 26.73 82.7723 27.402L 82.7723 31L 84.5923 31L 84.5923 27.542C 84.5923 26.38 84.3403 25.694 83.8923 25.162C 83.3323 24.49 82.4783 24.07 81.5403 24.07C 80.8403 24.07 80.1963 24.308 79.6923 24.7L 79.6923 21.06L 77.8723 21.06L 77.8723 31L 79.6923 31L 79.6923 26.59Z"/>
<path id="path9_fill" d="M 2.45 0.2L 1.12 0.2L 1.12 10L 3.01 10L 3.01 4.54L 5.362 8.39L 6.678 8.39L 9.03 4.54L 9.03 10L 10.92 10L 10.92 0.2L 9.59 0.2L 6.02 6.066L 2.45 0.2ZM 12.5349 6.612C 12.5349 8.572 14.0889 10.14 16.1469 10.14C 18.2049 10.14 19.7589 8.572 19.7589 6.612C 19.7589 4.652 18.2049 3.07 16.1469 3.07C 14.0889 3.07 12.5349 4.652 12.5349 6.612ZM 14.3549 6.612C 14.3549 5.59 15.0829 4.75 16.1469 4.75C 17.2109 4.75 17.9389 5.59 17.9389 6.612C 17.9389 7.634 17.2109 8.46 16.1469 8.46C 15.0829 8.46 14.3549 7.634 14.3549 6.612ZM 23.118 5.59C 23.496 5.086 24.098 4.75 24.798 4.75C 25.862 4.75 26.548 5.632 26.548 6.612C 26.548 7.676 25.778 8.46 24.756 8.46C 24.07 8.46 23.468 8.124 23.118 7.62L 23.118 5.59ZM 23.048 10L 23.048 9.454C 23.608 9.93 24.252 10.14 24.938 10.14C 25.946 10.14 26.898 9.692 27.5 8.992C 28.032 8.376 28.368 7.536 28.368 6.612C 28.368 4.61 26.884 3.07 25.036 3.07C 24.294 3.07 23.65 3.28 23.118 3.7L 23.118 0.0600003L 21.298 0.0600003L 21.298 10L 23.048 10ZM 31.7313 3.21L 29.9113 3.21L 29.9113 10L 31.7313 10L 31.7313 3.21ZM 29.6313 0.802C 29.6313 1.46 30.1633 1.964 30.8213 1.964C 31.4793 1.964 32.0113 1.46 32.0113 0.802C 32.0113 0.144 31.4793 -0.36 30.8213 -0.36C 30.1633 -0.36 29.6313 0.144 29.6313 0.802ZM 35.6552 0.0600003L 33.8352 0.0600003L 33.8352 10L 35.6552 10L 35.6552 0.0600003ZM 42.505 7.886C 42.183 8.236 41.567 8.67 40.797 8.67C 39.831 8.67 39.061 8.012 38.963 7.06L 43.667 7.06C 43.695 6.906 43.709 6.724 43.709 6.542C 43.709 4.652 42.379 3.07 40.503 3.07C 38.487 3.07 37.199 4.722 37.199 6.612C 37.199 8.74 38.725 10.14 40.755 10.14C 41.805 10.14 42.883 9.706 43.541 8.922L 42.505 7.886ZM 39.047 5.73C 39.131 5.114 39.747 4.54 40.503 4.54C 41.245 4.54 41.791 5.128 41.847 5.73L 39.047 5.73ZM 3.388 31L 4.718 31L 6.888 24.798L 9.072 31L 10.402 31L 13.65 21.2L 11.746 21.2L 9.716 27.318L 7.56 21.2L 6.23 21.2L 4.074 27.318L 2.044 21.2L 0.14 21.2L 3.388 31ZM 19.5349 28.62C 19.1849 29.124 18.5829 29.46 17.8969 29.46C 16.8749 29.46 16.1049 28.676 16.1049 27.612C 16.1049 26.632 16.7909 25.75 17.8549 25.75C 18.5549 25.75 19.1569 26.086 19.5349 26.59L 19.5349 28.62ZM 21.3549 24.21L 19.6049 24.21L 19.6049 24.756C 19.0729 24.322 18.3869 24.07 17.6169 24.07C 15.7689 24.07 14.2849 25.61 14.2849 27.612C 14.2849 28.536 14.6209 29.376 15.1529 29.992C 15.7549 30.692 16.7069 31.14 17.7149 31.14C 18.4009 31.14 19.0449 30.93 19.6049 30.454L 19.6049 31L 21.3549 31L 21.3549 24.21ZM 25.2782 21.06L 23.4582 21.06L 23.4582 31L 25.2782 31L 25.2782 21.06ZM 29.202 21.06L 27.382 21.06L 27.382 31L 29.202 31L 29.202 21.06ZM 36.0519 28.886C 35.7299 29.236 35.1139 29.67 34.3439 29.67C 33.3779 29.67 32.6079 29.012 32.5099 28.06L 37.2139 28.06C 37.2419 27.906 37.2559 27.724 37.2559 27.542C 37.2559 25.652 35.9259 24.07 34.0499 24.07C 32.0339 24.07 30.7459 25.722 30.7459 27.612C 30.7459 29.74 32.2719 31.14 34.3019 31.14C 35.3519 31.14 36.4299 30.706 37.0879 29.922L 36.0519 28.886ZM 32.5939 26.73C 32.6779 26.114 33.2939 25.54 34.0499 25.54C 34.7919 25.54 35.3379 26.128 35.3939 26.73L 32.5939 26.73ZM 43.628 29.46C 43.502 29.488 43.152 29.53 42.886 29.53C 42.438 29.53 42.144 29.404 41.962 29.194C 41.808 29.012 41.738 28.76 41.738 28.34L 41.738 25.75L 43.978 25.75L 43.978 24.21L 41.738 24.21L 41.738 22.32L 39.918 22.32L 39.918 24.21L 38.028 24.21L 38.028 25.75L 39.918 25.75L 39.918 28.13C 39.918 29.096 40.072 29.698 40.422 30.16C 40.884 30.776 41.682 31.14 42.774 31.14C 43.124 31.14 43.67 31.084 43.908 31L 43.628 29.46ZM 49.5731 31L 51.4631 31L 51.4631 21.2L 49.5731 21.2L 49.5731 31ZM 54.892 26.1C 54.892 24.252 56.264 22.74 58.112 22.74C 59.96 22.74 61.332 24.252 61.332 26.1C 61.332 27.948 59.96 29.46 58.112 29.46C 56.264 29.46 54.892 27.948 54.892 26.1ZM 53.002 26.1C 53.002 28.886 55.088 31.14 58.112 31.14C 61.136 31.14 63.222 28.886 63.222 26.1C 63.222 23.314 61.136 21.06 58.112 21.06C 55.088 21.06 53.002 23.314 53.002 26.1ZM 63.7826 29.67C 64.7906 30.594 66.0086 31.14 67.3246 31.14C 69.0886 31.14 70.6426 29.936 70.6426 28.2C 70.6426 24.896 66.1206 25.386 66.1206 23.804C 66.1206 23.048 66.9186 22.74 67.6326 22.74C 68.2766 22.74 68.9346 23.02 69.3266 23.384L 70.3066 21.984C 69.3826 21.298 68.4586 21.06 67.4646 21.06C 65.8406 21.06 64.2306 22.068 64.2306 23.818C 64.2306 24.924 64.8466 25.596 65.6166 26.044C 66.9326 26.814 68.7526 26.968 68.7526 28.228C 68.7526 28.942 68.1646 29.46 67.3246 29.46C 66.4286 29.46 65.5746 28.998 65.0146 28.382L 63.7826 29.67Z"/>
<path id="path10_fill" d="M 0.14 8.67C 1.148 9.594 2.366 10.14 3.682 10.14C 5.446 10.14 7 8.936 7 7.2C 7 3.896 2.478 4.386 2.478 2.804C 2.478 2.048 3.276 1.74 3.99 1.74C 4.634 1.74 5.292 2.02 5.684 2.384L 6.664 0.984C 5.74 0.298 4.816 0.0600003 3.822 0.0600003C 2.198 0.0600003 0.588 1.068 0.588 2.818C 0.588 3.924 1.204 4.596 1.974 5.044C 3.29 5.814 5.11 5.968 5.11 7.228C 5.11 7.942 4.522 8.46 3.682 8.46C 2.786 8.46 1.932 7.998 1.372 7.382L 0.14 8.67ZM 10.3622 3.21L 8.54219 3.21L 8.54219 10L 10.3622 10L 10.3622 3.21ZM 8.26219 0.802C 8.26219 1.46 8.79419 1.964 9.45219 1.964C 10.1102 1.964 10.6422 1.46 10.6422 0.802C 10.6422 0.144 10.1102 -0.36 9.45219 -0.36C 8.79419 -0.36 8.26219 0.144 8.26219 0.802ZM 18.976 3.21L 17.226 3.21L 17.226 3.756C 16.694 3.322 16.008 3.07 15.238 3.07C 13.39 3.07 11.906 4.61 11.906 6.612C 11.906 7.536 12.228 8.376 12.76 8.992C 13.362 9.692 14.328 10.14 15.336 10.14C 16.022 10.14 16.61 9.944 17.156 9.524L 17.156 9.748C 17.156 10.616 17.016 11.036 16.736 11.344C 16.428 11.708 15.938 11.89 15.35 11.89C 14.23 11.89 13.6 11.302 13.236 10.91L 12.088 12.1C 12.76 12.884 14.02 13.5 15.35 13.5C 16.652 13.5 17.744 12.996 18.36 12.142C 18.766 11.568 18.976 10.84 18.976 9.622L 18.976 3.21ZM 17.156 7.62C 16.806 8.124 16.204 8.46 15.518 8.46C 14.496 8.46 13.726 7.676 13.726 6.612C 13.726 5.632 14.412 4.75 15.476 4.75C 16.176 4.75 16.778 5.086 17.156 5.59L 17.156 7.62ZM 22.8993 10L 22.8993 5.59C 23.1513 5.24 23.7813 4.75 24.5513 4.75C 24.9713 4.75 25.3353 4.89 25.5733 5.128C 25.8253 5.38 25.9793 5.73 25.9793 6.402L 25.9793 10L 27.7993 10L 27.7993 6.542C 27.7993 5.38 27.5473 4.694 27.0993 4.162C 26.5393 3.49 25.6853 3.07 24.7473 3.07C 23.9913 3.07 23.3473 3.336 22.8293 3.756L 22.8293 3.21L 21.0793 3.21L 21.0793 10L 22.8993 10ZM 34.4509 7.62C 34.1009 8.124 33.4989 8.46 32.8129 8.46C 31.7909 8.46 31.0209 7.676 31.0209 6.612C 31.0209 5.632 31.7069 4.75 32.7709 4.75C 33.4709 4.75 34.0729 5.086 34.4509 5.59L 34.4509 7.62ZM 36.2709 3.21L 34.5209 3.21L 34.5209 3.756C 33.9889 3.322 33.3029 3.07 32.5329 3.07C 30.6849 3.07 29.2009 4.61 29.2009 6.612C 29.2009 7.536 29.5369 8.376 30.0689 8.992C 30.6709 9.692 31.6229 10.14 32.6309 10.14C 33.3169 10.14 33.9609 9.93 34.5209 9.454L 34.5209 10L 36.2709 10L 36.2709 3.21ZM 40.1942 0.0600003L 38.3742 0.0600003L 38.3742 10L 40.1942 10L 40.1942 0.0600003Z"/>
<path id="path11_fill" d="M 1.974 10L 2.898 7.83L 6.832 7.83L 7.756 10L 9.73 10L 5.53 0.2L 4.2 0.2L 0 10L 1.974 10ZM 4.858 3.252L 6.104 6.15L 3.612 6.15L 4.858 3.252ZM 15.4744 7.62C 15.1244 8.124 14.5224 8.46 13.8364 8.46C 12.8144 8.46 12.0444 7.676 12.0444 6.612C 12.0444 5.632 12.7304 4.75 13.7944 4.75C 14.4944 4.75 15.0964 5.086 15.4744 5.59L 15.4744 7.62ZM 17.2944 10L 17.2944 0.0600003L 15.4744 0.0600003L 15.4744 3.7C 14.9424 3.28 14.2984 3.07 13.5564 3.07C 11.7084 3.07 10.2244 4.61 10.2244 6.612C 10.2244 7.536 10.5604 8.376 11.0924 8.992C 11.6944 9.692 12.6464 10.14 13.6544 10.14C 14.3404 10.14 14.9844 9.93 15.5444 9.454L 15.5444 10L 17.2944 10ZM 20.3777 3.21L 18.4877 3.21L 21.6097 10L 22.8697 10L 25.9917 3.21L 24.1017 3.21L 22.2397 7.354L 20.3777 3.21ZM 31.867 7.62C 31.517 8.124 30.915 8.46 30.229 8.46C 29.207 8.46 28.437 7.676 28.437 6.612C 28.437 5.632 29.123 4.75 30.187 4.75C 30.887 4.75 31.489 5.086 31.867 5.59L 31.867 7.62ZM 33.687 3.21L 31.937 3.21L 31.937 3.756C 31.405 3.322 30.719 3.07 29.949 3.07C 28.101 3.07 26.617 4.61 26.617 6.612C 26.617 7.536 26.953 8.376 27.485 8.992C 28.087 9.692 29.039 10.14 30.047 10.14C 30.733 10.14 31.377 9.93 31.937 9.454L 31.937 10L 33.687 10L 33.687 3.21ZM 37.6102 10L 37.6102 5.59C 37.8622 5.24 38.4922 4.75 39.2622 4.75C 39.6822 4.75 40.0462 4.89 40.2842 5.128C 40.5362 5.38 40.6902 5.73 40.6902 6.402L 40.6902 10L 42.5102 10L 42.5102 6.542C 42.5102 5.38 42.2582 4.694 41.8102 4.162C 41.2502 3.49 40.3962 3.07 39.4582 3.07C 38.7022 3.07 38.0582 3.336 37.5402 3.756L 37.5402 3.21L 35.7902 3.21L 35.7902 10L 37.6102 10ZM 49.2319 7.564C 48.9379 8.012 48.3499 8.46 47.6079 8.46C 46.5019 8.46 45.7319 7.676 45.7319 6.612C 45.7319 5.576 46.5159 4.75 47.5659 4.75C 48.2239 4.75 48.7699 5.086 49.1339 5.562L 50.4219 4.428C 49.7919 3.616 48.7419 3.07 47.5659 3.07C 45.4939 3.07 43.9119 4.638 43.9119 6.612C 43.9119 8.572 45.4519 10.14 47.5519 10.14C 48.8259 10.14 49.8339 9.678 50.6319 8.614L 49.2319 7.564ZM 56.7784 7.886C 56.4564 8.236 55.8404 8.67 55.0704 8.67C 54.1044 8.67 53.3344 8.012 53.2364 7.06L 57.9404 7.06C 57.9684 6.906 57.9824 6.724 57.9824 6.542C 57.9824 4.652 56.6524 3.07 54.7764 3.07C 52.7604 3.07 51.4724 4.722 51.4724 6.612C 51.4724 8.74 52.9984 10.14 55.0284 10.14C 56.0784 10.14 57.1564 9.706 57.8144 8.922L 56.7784 7.886ZM 53.3204 5.73C 53.4044 5.114 54.0204 4.54 54.7764 4.54C 55.5184 4.54 56.0644 5.128 56.1204 5.73L 53.3204 5.73ZM 64.2146 7.62C 63.8646 8.124 63.2626 8.46 62.5766 8.46C 61.5546 8.46 60.7846 7.676 60.7846 6.612C 60.7846 5.632 61.4706 4.75 62.5346 4.75C 63.2346 4.75 63.8366 5.086 64.2146 5.59L 64.2146 7.62ZM 66.0346 10L 66.0346 0.0600003L 64.2146 0.0600003L 64.2146 3.7C 63.6826 3.28 63.0386 3.07 62.2966 3.07C 60.4486 3.07 58.9646 4.61 58.9646 6.612C 58.9646 7.536 59.3006 8.376 59.8326 8.992C 60.4346 9.692 61.3866 10.14 62.3946 10.14C 63.0806 10.14 63.7246 9.93 64.2846 9.454L 64.2846 10L 66.0346 10ZM 0.14 29.67C 1.148 30.594 2.366 31.14 3.682 31.14C 5.446 31.14 7 29.936 7 28.2C 7 24.896 2.478 25.386 2.478 23.804C 2.478 23.048 3.276 22.74 3.99 22.74C 4.634 22.74 5.292 23.02 5.684 23.384L 6.664 21.984C 5.74 21.298 4.816 21.06 3.822 21.06C 2.198 21.06 0.588 22.068 0.588 23.818C 0.588 24.924 1.204 25.596 1.974 26.044C 3.29 26.814 5.11 26.968 5.11 28.228C 5.11 28.942 4.522 29.46 3.682 29.46C 2.786 29.46 1.932 28.998 1.372 28.382L 0.14 29.67ZM 8.54219 34.36L 10.3622 34.36L 10.3622 30.524C 10.9082 30.944 11.4962 31.14 12.1822 31.14C 13.1902 31.14 14.1562 30.692 14.7582 29.992C 15.2902 29.376 15.6122 28.536 15.6122 27.612C 15.6122 25.61 14.1282 24.07 12.2802 24.07C 11.5102 24.07 10.8242 24.322 10.2922 24.756L 10.2922 24.21L 8.54219 24.21L 8.54219 34.36ZM 10.3622 26.59C 10.7402 26.086 11.3422 25.75 12.0422 25.75C 13.1062 25.75 13.7922 26.632 13.7922 27.612C 13.7922 28.676 13.0222 29.46 12.0002 29.46C 11.3142 29.46 10.7122 29.124 10.3622 28.62L 10.3622 26.59ZM 21.9015 28.886C 21.5795 29.236 20.9635 29.67 20.1935 29.67C 19.2275 29.67 18.4575 29.012 18.3595 28.06L 23.0635 28.06C 23.0915 27.906 23.1055 27.724 23.1055 27.542C 23.1055 25.652 21.7755 24.07 19.8995 24.07C 17.8835 24.07 16.5955 25.722 16.5955 27.612C 16.5955 29.74 18.1215 31.14 20.1515 31.14C 21.2015 31.14 22.2795 30.706 22.9375 29.922L 21.9015 28.886ZM 18.4435 26.73C 18.5275 26.114 19.1435 25.54 19.8995 25.54C 20.6415 25.54 21.1875 26.128 21.2435 26.73L 18.4435 26.73ZM 26.4677 31L 26.4677 26.59C 26.7197 26.24 27.3497 25.75 28.1197 25.75C 28.5397 25.75 28.9037 25.89 29.1417 26.128C 29.3937 26.38 29.5477 26.73 29.5477 27.402L 29.5477 31L 31.3677 31L 31.3677 27.542C 31.3677 26.38 31.1157 25.694 30.6677 25.162C 30.1077 24.49 29.2537 24.07 28.3157 24.07C 27.5597 24.07 26.9157 24.336 26.3977 24.756L 26.3977 24.21L 24.6477 24.21L 24.6477 31L 26.4677 31ZM 38.0193 28.62C 37.6693 29.124 37.0673 29.46 36.3813 29.46C 35.3593 29.46 34.5893 28.676 34.5893 27.612C 34.5893 26.632 35.2753 25.75 36.3393 25.75C 37.0393 25.75 37.6413 26.086 38.0193 26.59L 38.0193 28.62ZM 39.8393 31L 39.8393 21.06L 38.0193 21.06L 38.0193 24.7C 37.4873 24.28 36.8433 24.07 36.1013 24.07C 34.2533 24.07 32.7693 25.61 32.7693 27.612C 32.7693 28.536 33.1053 29.376 33.6373 29.992C 34.2393 30.692 35.1913 31.14 36.1993 31.14C 36.8853 31.14 37.5293 30.93 38.0893 30.454L 38.0893 31L 39.8393 31ZM 45.786 21.2L 45.786 31L 49.608 31C 50.868 31 51.624 30.664 52.17 30.118C 52.716 29.586 53.066 28.83 53.066 28.004C 53.066 26.912 52.464 25.932 51.596 25.498C 51.918 25.162 52.226 24.504 52.226 23.86C 52.226 23.062 51.862 22.362 51.316 21.886C 50.84 21.466 50.224 21.2 49.118 21.2L 45.786 21.2ZM 47.676 22.88L 49.006 22.88C 49.594 22.88 49.86 23.02 50.056 23.23C 50.224 23.412 50.336 23.664 50.336 23.93C 50.336 24.196 50.224 24.448 50.056 24.63C 49.86 24.84 49.594 24.98 49.006 24.98L 47.676 24.98L 47.676 22.88ZM 47.676 29.32L 47.676 26.66L 49.566 26.66C 50.224 26.66 50.588 26.828 50.826 27.094C 51.05 27.332 51.176 27.64 51.176 27.99C 51.176 28.34 51.05 28.648 50.826 28.886C 50.588 29.152 50.224 29.32 49.566 29.32L 47.676 29.32ZM 59.086 24.21L 59.086 28.62C 58.834 28.942 58.274 29.46 57.504 29.46C 57.154 29.46 56.762 29.348 56.482 29.04C 56.272 28.802 56.146 28.494 56.146 27.878L 56.146 24.21L 54.326 24.21L 54.326 27.808C 54.326 28.816 54.578 29.516 55.012 30.048C 55.544 30.706 56.384 31.14 57.322 31.14C 57.98 31.14 58.624 30.93 59.156 30.454L 59.156 31L 60.906 31L 60.906 24.21L 59.086 24.21ZM 64.8309 24.21L 63.0109 24.21L 63.0109 31L 64.8309 31L 64.8309 24.21ZM 62.7309 21.802C 62.7309 22.46 63.2629 22.964 63.9209 22.964C 64.5789 22.964 65.1109 22.46 65.1109 21.802C 65.1109 21.144 64.5789 20.64 63.9209 20.64C 63.2629 20.64 62.7309 21.144 62.7309 21.802ZM 68.7548 21.06L 66.9348 21.06L 66.9348 31L 68.7548 31L 68.7548 21.06ZM 75.5486 28.62C 75.1986 29.124 74.5966 29.46 73.9106 29.46C 72.8886 29.46 72.1186 28.676 72.1186 27.612C 72.1186 26.632 72.8046 25.75 73.8686 25.75C 74.5686 25.75 75.1706 26.086 75.5486 26.59L 75.5486 28.62ZM 77.3686 31L 77.3686 21.06L 75.5486 21.06L 75.5486 24.7C 75.0166 24.28 74.3726 24.07 73.6306 24.07C 71.7826 24.07 70.2986 25.61 70.2986 27.612C 70.2986 28.536 70.6346 29.376 71.1666 29.992C 71.7686 30.692 72.7206 31.14 73.7286 31.14C 74.4146 31.14 75.0586 30.93 75.6186 30.454L 75.6186 31L 77.3686 31ZM 84.2179 28.886C 83.8959 29.236 83.2799 29.67 82.5099 29.67C 81.5439 29.67 80.7739 29.012 80.6759 28.06L 85.3799 28.06C 85.4079 27.906 85.4219 27.724 85.4219 27.542C 85.4219 25.652 84.0919 24.07 82.2159 24.07C 80.1999 24.07 78.9119 25.722 78.9119 27.612C 78.9119 29.74 80.4379 31.14 82.4679 31.14C 83.5179 31.14 84.5959 30.706 85.2539 29.922L 84.2179 28.886ZM 80.7599 26.73C 80.8439 26.114 81.4599 25.54 82.2159 25.54C 82.9579 25.54 83.5039 26.128 83.5599 26.73L 80.7599 26.73ZM 91.3041 24.126C 91.1081 24.098 90.9541 24.07 90.6881 24.07C 89.8621 24.07 89.1201 24.392 88.7141 24.896L 88.7141 24.21L 86.9641 24.21L 86.9641 31L 88.7841 31L 88.7841 26.73C 89.0081 26.324 89.6381 25.75 90.4361 25.75C 90.7021 25.75 90.9681 25.778 91.0941 25.82L 91.3041 24.126Z"/>
<path id="path12_fill" d="M 0.14 8.67C 1.148 9.594 2.366 10.14 3.682 10.14C 5.446 10.14 7 8.936 7 7.2C 7 3.896 2.478 4.386 2.478 2.804C 2.478 2.048 3.276 1.74 3.99 1.74C 4.634 1.74 5.292 2.02 5.684 2.384L 6.664 0.984C 5.74 0.298 4.816 0.0600003 3.822 0.0600003C 2.198 0.0600003 0.588 1.068 0.588 2.818C 0.588 3.924 1.204 4.596 1.974 5.044C 3.29 5.814 5.11 5.968 5.11 7.228C 5.11 7.942 4.522 8.46 3.682 8.46C 2.786 8.46 1.932 7.998 1.372 7.382L 0.14 8.67ZM 15.1222 5.1C 15.1222 5.912 14.8562 6.668 14.4082 7.228C 13.8622 7.914 13.0642 8.32 11.9022 8.32L 10.5022 8.32L 10.5022 1.88L 11.9022 1.88C 13.0642 1.88 13.8622 2.286 14.4082 2.972C 14.8562 3.532 15.1222 4.288 15.1222 5.1ZM 8.61219 0.2L 8.61219 10L 11.6922 10C 13.2462 10 14.2682 9.664 15.0662 9.076C 16.2702 8.18 17.0122 6.724 17.0122 5.1C 17.0122 3.476 16.2702 2.02 15.0662 1.124C 14.2682 0.536 13.2462 0.2 11.6922 0.2L 8.61219 0.2ZM 18.5516 10L 20.4416 10L 20.4416 3.616L 25.9016 10L 27.2316 10L 27.2316 0.2L 25.3416 0.2L 25.3416 6.584L 19.8816 0.2L 18.5516 0.2L 18.5516 10Z"/>
<path id="path13_fill" d="M 5.572 1.74C 6.538 1.74 7.364 2.16 7.952 2.748L 9.17 1.46C 8.288 0.606 7.042 0.0600003 5.586 0.0600003C 2.534 0.0600003 0.42 2.286 0.42 5.1C 0.42 7.914 2.562 10.14 5.614 10.14C 7.406 10.14 8.862 9.37 9.73 8.264L 8.428 7.102C 7.854 7.844 6.93 8.46 5.656 8.46C 3.766 8.46 2.31 7.004 2.31 5.1C 2.31 3.238 3.71 1.74 5.572 1.74ZM 10.4978 6.612C 10.4978 8.572 12.0518 10.14 14.1098 10.14C 16.1678 10.14 17.7218 8.572 17.7218 6.612C 17.7218 4.652 16.1678 3.07 14.1098 3.07C 12.0518 3.07 10.4978 4.652 10.4978 6.612ZM 12.3178 6.612C 12.3178 5.59 13.0458 4.75 14.1098 4.75C 15.1738 4.75 15.9018 5.59 15.9018 6.612C 15.9018 7.634 15.1738 8.46 14.1098 8.46C 13.0458 8.46 12.3178 7.634 12.3178 6.612ZM 21.0809 3.21L 19.2609 3.21L 19.2609 10L 21.0809 10L 21.0809 3.21ZM 18.9809 0.802C 18.9809 1.46 19.5129 1.964 20.1709 1.964C 20.8289 1.964 21.3609 1.46 21.3609 0.802C 21.3609 0.144 20.8289 -0.36 20.1709 -0.36C 19.5129 -0.36 18.9809 0.144 18.9809 0.802ZM 25.0048 10L 25.0048 5.59C 25.2568 5.24 25.8868 4.75 26.6568 4.75C 27.0768 4.75 27.4408 4.89 27.6788 5.128C 27.9308 5.38 28.0848 5.73 28.0848 6.402L 28.0848 10L 29.9048 10L 29.9048 6.542C 29.9048 5.38 29.6528 4.694 29.2048 4.162C 28.6448 3.49 27.7908 3.07 26.8528 3.07C 26.0968 3.07 25.4528 3.336 24.9348 3.756L 24.9348 3.21L 23.1848 3.21L 23.1848 10L 25.0048 10ZM 30.5364 13.402C 30.7324 13.444 31.0824 13.5 31.4464 13.5C 32.6224 13.5 33.3364 13.08 33.7564 12.492C 34.1064 11.988 34.2464 11.372 34.2464 10.35L 34.2464 3.21L 32.4264 3.21L 32.4264 10.35C 32.4264 11.022 32.3424 11.316 32.1604 11.512C 31.9644 11.722 31.6704 11.82 31.2924 11.82C 31.1944 11.82 30.9424 11.792 30.8164 11.75L 30.5364 13.402ZM 32.1464 0.802C 32.1464 1.46 32.6784 1.964 33.3364 1.964C 33.9944 1.964 34.5264 1.46 34.5264 0.802C 34.5264 0.144 33.9944 -0.36 33.3364 -0.36C 32.6784 -0.36 32.1464 0.144 32.1464 0.802ZM 35.7908 6.612C 35.7908 8.572 37.3448 10.14 39.4028 10.14C 41.4608 10.14 43.0148 8.572 43.0148 6.612C 43.0148 4.652 41.4608 3.07 39.4028 3.07C 37.3448 3.07 35.7908 4.652 35.7908 6.612ZM 37.6108 6.612C 37.6108 5.59 38.3388 4.75 39.4028 4.75C 40.4668 4.75 41.1948 5.59 41.1948 6.612C 41.1948 7.634 40.4668 8.46 39.4028 8.46C 38.3388 8.46 37.6108 7.634 37.6108 6.612ZM 46.3739 3.21L 44.5539 3.21L 44.5539 10L 46.3739 10L 46.3739 3.21ZM 44.2739 0.802C 44.2739 1.46 44.8059 1.964 45.4639 1.964C 46.1219 1.964 46.6539 1.46 46.6539 0.802C 46.6539 0.144 46.1219 -0.36 45.4639 -0.36C 44.8059 -0.36 44.2739 0.144 44.2739 0.802ZM 50.2977 10L 50.2977 5.59C 50.5497 5.24 51.1797 4.75 51.9497 4.75C 52.3697 4.75 52.7337 4.89 52.9717 5.128C 53.2237 5.38 53.3777 5.73 53.3777 6.402L 53.3777 10L 55.1977 10L 55.1977 6.542C 55.1977 5.38 54.9457 4.694 54.4977 4.162C 53.9377 3.49 53.0837 3.07 52.1457 3.07C 51.3897 3.07 50.7457 3.336 50.2277 3.756L 50.2277 3.21L 48.4777 3.21L 48.4777 10L 50.2977 10Z"/>
<path id="path14_fill" d="M 2.45 0.2L 1.12 0.2L 1.12 10L 3.01 10L 3.01 4.54L 5.362 8.39L 6.678 8.39L 9.03 4.54L 9.03 10L 10.92 10L 10.92 0.2L 9.59 0.2L 6.02 6.066L 2.45 0.2ZM 12.5349 6.612C 12.5349 8.572 14.0889 10.14 16.1469 10.14C 18.2049 10.14 19.7589 8.572 19.7589 6.612C 19.7589 4.652 18.2049 3.07 16.1469 3.07C 14.0889 3.07 12.5349 4.652 12.5349 6.612ZM 14.3549 6.612C 14.3549 5.59 15.0829 4.75 16.1469 4.75C 17.2109 4.75 17.9389 5.59 17.9389 6.612C 17.9389 7.634 17.2109 8.46 16.1469 8.46C 15.0829 8.46 14.3549 7.634 14.3549 6.612ZM 23.118 5.59C 23.496 5.086 24.098 4.75 24.798 4.75C 25.862 4.75 26.548 5.632 26.548 6.612C 26.548 7.676 25.778 8.46 24.756 8.46C 24.07 8.46 23.468 8.124 23.118 7.62L 23.118 5.59ZM 23.048 10L 23.048 9.454C 23.608 9.93 24.252 10.14 24.938 10.14C 25.946 10.14 26.898 9.692 27.5 8.992C 28.032 8.376 28.368 7.536 28.368 6.612C 28.368 4.61 26.884 3.07 25.036 3.07C 24.294 3.07 23.65 3.28 23.118 3.7L 23.118 0.0600003L 21.298 0.0600003L 21.298 10L 23.048 10ZM 31.7313 3.21L 29.9113 3.21L 29.9113 10L 31.7313 10L 31.7313 3.21ZM 29.6313 0.802C 29.6313 1.46 30.1633 1.964 30.8213 1.964C 31.4793 1.964 32.0113 1.46 32.0113 0.802C 32.0113 0.144 31.4793 -0.36 30.8213 -0.36C 30.1633 -0.36 29.6313 0.144 29.6313 0.802ZM 35.6552 0.0600003L 33.8352 0.0600003L 33.8352 10L 35.6552 10L 35.6552 0.0600003ZM 42.505 7.886C 42.183 8.236 41.567 8.67 40.797 8.67C 39.831 8.67 39.061 8.012 38.963 7.06L 43.667 7.06C 43.695 6.906 43.709 6.724 43.709 6.542C 43.709 4.652 42.379 3.07 40.503 3.07C 38.487 3.07 37.199 4.722 37.199 6.612C 37.199 8.74 38.725 10.14 40.755 10.14C 41.805 10.14 42.883 9.706 43.541 8.922L 42.505 7.886ZM 39.047 5.73C 39.131 5.114 39.747 4.54 40.503 4.54C 41.245 4.54 41.791 5.128 41.847 5.73L 39.047 5.73ZM 51.3626 10L 52.6926 10L 54.8626 3.798L 57.0466 10L 58.3766 10L 61.6246 0.2L 59.7206 0.2L 57.6906 6.318L 55.5346 0.2L 54.2046 0.2L 52.0486 6.318L 50.0186 0.2L 48.1146 0.2L 51.3626 10ZM 67.5095 7.62C 67.1595 8.124 66.5575 8.46 65.8715 8.46C 64.8495 8.46 64.0795 7.676 64.0795 6.612C 64.0795 5.632 64.7655 4.75 65.8295 4.75C 66.5295 4.75 67.1315 5.086 67.5095 5.59L 67.5095 7.62ZM 69.3295 3.21L 67.5795 3.21L 67.5795 3.756C 67.0475 3.322 66.3615 3.07 65.5915 3.07C 63.7435 3.07 62.2595 4.61 62.2595 6.612C 62.2595 7.536 62.5955 8.376 63.1275 8.992C 63.7295 9.692 64.6815 10.14 65.6895 10.14C 66.3755 10.14 67.0195 9.93 67.5795 9.454L 67.5795 10L 69.3295 10L 69.3295 3.21ZM 73.2528 0.0600003L 71.4328 0.0600003L 71.4328 10L 73.2528 10L 73.2528 0.0600003ZM 77.1766 0.0600003L 75.3566 0.0600003L 75.3566 10L 77.1766 10L 77.1766 0.0600003ZM 84.0265 7.886C 83.7045 8.236 83.0885 8.67 82.3185 8.67C 81.3525 8.67 80.5825 8.012 80.4845 7.06L 85.1885 7.06C 85.2165 6.906 85.2305 6.724 85.2305 6.542C 85.2305 4.652 83.9005 3.07 82.0245 3.07C 80.0085 3.07 78.7205 4.722 78.7205 6.612C 78.7205 8.74 80.2465 10.14 82.2765 10.14C 83.3265 10.14 84.4045 9.706 85.0625 8.922L 84.0265 7.886ZM 80.5685 5.73C 80.6525 5.114 81.2685 4.54 82.0245 4.54C 82.7665 4.54 83.3125 5.128 83.3685 5.73L 80.5685 5.73ZM 91.6027 8.46C 91.4767 8.488 91.1267 8.53 90.8607 8.53C 90.4127 8.53 90.1187 8.404 89.9367 8.194C 89.7827 8.012 89.7127 7.76 89.7127 7.34L 89.7127 4.75L 91.9527 4.75L 91.9527 3.21L 89.7127 3.21L 89.7127 1.32L 87.8927 1.32L 87.8927 3.21L 86.0027 3.21L 86.0027 4.75L 87.8927 4.75L 87.8927 7.13C 87.8927 8.096 88.0467 8.698 88.3967 9.16C 88.8587 9.776 89.6567 10.14 90.7487 10.14C 91.0987 10.14 91.6447 10.084 91.8827 10L 91.6027 8.46ZM 1.974 31L 2.898 28.83L 6.832 28.83L 7.756 31L 9.73 31L 5.53 21.2L 4.2 21.2L 0 31L 1.974 31ZM 4.858 24.252L 6.104 27.15L 3.612 27.15L 4.858 24.252ZM 12.6044 31L 12.6044 26.59C 12.8564 26.24 13.4864 25.75 14.2564 25.75C 14.6764 25.75 15.0404 25.89 15.2784 26.128C 15.5304 26.38 15.6844 26.73 15.6844 27.402L 15.6844 31L 17.5044 31L 17.5044 27.542C 17.5044 26.38 17.2524 25.694 16.8044 25.162C 16.2444 24.49 15.3904 24.07 14.4524 24.07C 13.6964 24.07 13.0524 24.336 12.5344 24.756L 12.5344 24.21L 10.7844 24.21L 10.7844 31L 12.6044 31ZM 24.156 28.62C 23.806 29.124 23.204 29.46 22.518 29.46C 21.496 29.46 20.726 28.676 20.726 27.612C 20.726 26.632 21.412 25.75 22.476 25.75C 23.176 25.75 23.778 26.086 24.156 26.59L 24.156 28.62ZM 25.976 31L 25.976 21.06L 24.156 21.06L 24.156 24.7C 23.624 24.28 22.98 24.07 22.238 24.07C 20.39 24.07 18.906 25.61 18.906 27.612C 18.906 28.536 19.242 29.376 19.774 29.992C 20.376 30.692 21.328 31.14 22.336 31.14C 23.022 31.14 23.666 30.93 24.226 30.454L 24.226 31L 25.976 31ZM 32.4193 24.126C 32.2233 24.098 32.0693 24.07 31.8033 24.07C 30.9773 24.07 30.2353 24.392 29.8293 24.896L 29.8293 24.21L 28.0793 24.21L 28.0793 31L 29.8993 31L 29.8993 26.73C 30.1233 26.324 30.7533 25.75 31.5513 25.75C 31.8173 25.75 32.0833 25.778 32.2093 25.82L 32.4193 24.126ZM 33.2615 27.612C 33.2615 29.572 34.8155 31.14 36.8735 31.14C 38.9315 31.14 40.4855 29.572 40.4855 27.612C 40.4855 25.652 38.9315 24.07 36.8735 24.07C 34.8155 24.07 33.2615 25.652 33.2615 27.612ZM 35.0815 27.612C 35.0815 26.59 35.8095 25.75 36.8735 25.75C 37.9375 25.75 38.6655 26.59 38.6655 27.612C 38.6655 28.634 37.9375 29.46 36.8735 29.46C 35.8095 29.46 35.0815 28.634 35.0815 27.612ZM 43.8446 24.21L 42.0246 24.21L 42.0246 31L 43.8446 31L 43.8446 24.21ZM 41.7446 21.802C 41.7446 22.46 42.2766 22.964 42.9346 22.964C 43.5926 22.964 44.1246 22.46 44.1246 21.802C 44.1246 21.144 43.5926 20.64 42.9346 20.64C 42.2766 20.64 41.7446 21.144 41.7446 21.802ZM 50.6384 28.62C 50.2884 29.124 49.6864 29.46 49.0004 29.46C 47.9784 29.46 47.2084 28.676 47.2084 27.612C 47.2084 26.632 47.8944 25.75 48.9584 25.75C 49.6584 25.75 50.2604 26.086 50.6384 26.59L 50.6384 28.62ZM 52.4584 31L 52.4584 21.06L 50.6384 21.06L 50.6384 24.7C 50.1064 24.28 49.4624 24.07 48.7204 24.07C 46.8724 24.07 45.3884 25.61 45.3884 27.612C 45.3884 28.536 45.7244 29.376 46.2564 29.992C 46.8584 30.692 47.8104 31.14 48.8184 31.14C 49.5044 31.14 50.1484 30.93 50.7084 30.454L 50.7084 31L 52.4584 31Z"/>
<path id="path15_fill" d="M 1.974 10L 2.898 7.83L 6.832 7.83L 7.756 10L 9.73 10L 5.53 0.2L 4.2 0.2L 0 10L 1.974 10ZM 4.858 3.252L 6.104 6.15L 3.612 6.15L 4.858 3.252ZM 15.6844 0.0459996C 15.3064 -0.0519999 14.9704 -0.0800004 14.6064 -0.0800004C 13.6824 -0.0800004 12.9684 0.256 12.4924 0.718C 12.0164 1.18 11.7644 1.838 11.7644 2.93L 11.7644 3.21L 10.0144 3.21L 10.0144 4.75L 11.7644 4.75L 11.7644 10L 13.5844 10L 13.5844 4.75L 15.6844 4.75L 15.6844 3.21L 13.5844 3.21L 13.5844 3C 13.5844 2.37 13.6824 2.118 13.8364 1.922C 14.0604 1.656 14.4104 1.53 14.8584 1.53C 15.0264 1.53 15.2504 1.558 15.4044 1.6L 15.6844 0.0459996ZM 22.1238 0.0459996C 21.7458 -0.0519999 21.4098 -0.0800004 21.0458 -0.0800004C 20.1218 -0.0800004 19.4078 0.256 18.9318 0.718C 18.4558 1.18 18.2038 1.838 18.2038 2.93L 18.2038 3.21L 16.4538 3.21L 16.4538 4.75L 18.2038 4.75L 18.2038 10L 20.0238 10L 20.0238 4.75L 22.1238 4.75L 22.1238 3.21L 20.0238 3.21L 20.0238 3C 20.0238 2.37 20.1218 2.118 20.2758 1.922C 20.4998 1.656 20.8498 1.53 21.2978 1.53C 21.4658 1.53 21.6898 1.558 21.8438 1.6L 22.1238 0.0459996ZM 25.4833 3.21L 23.6633 3.21L 23.6633 10L 25.4833 10L 25.4833 3.21ZM 23.3833 0.802C 23.3833 1.46 23.9153 1.964 24.5733 1.964C 25.2313 1.964 25.7633 1.46 25.7633 0.802C 25.7633 0.144 25.2313 -0.36 24.5733 -0.36C 23.9153 -0.36 23.3833 0.144 23.3833 0.802ZM 29.4071 0.0600003L 27.5871 0.0600003L 27.5871 10L 29.4071 10L 29.4071 0.0600003ZM 33.3309 3.21L 31.5109 3.21L 31.5109 10L 33.3309 10L 33.3309 3.21ZM 31.2309 0.802C 31.2309 1.46 31.7629 1.964 32.4209 1.964C 33.0789 1.964 33.6109 1.46 33.6109 0.802C 33.6109 0.144 33.0789 -0.36 32.4209 -0.36C 31.7629 -0.36 31.2309 0.144 31.2309 0.802ZM 40.1248 7.62C 39.7748 8.124 39.1728 8.46 38.4868 8.46C 37.4648 8.46 36.6948 7.676 36.6948 6.612C 36.6948 5.632 37.3808 4.75 38.4448 4.75C 39.1448 4.75 39.7468 5.086 40.1248 5.59L 40.1248 7.62ZM 41.9448 3.21L 40.1948 3.21L 40.1948 3.756C 39.6628 3.322 38.9768 3.07 38.2068 3.07C 36.3588 3.07 34.8748 4.61 34.8748 6.612C 34.8748 7.536 35.2108 8.376 35.7428 8.992C 36.3448 9.692 37.2968 10.14 38.3048 10.14C 38.9908 10.14 39.6348 9.93 40.1948 9.454L 40.1948 10L 41.9448 10L 41.9448 3.21ZM 48.878 8.46C 48.752 8.488 48.402 8.53 48.136 8.53C 47.688 8.53 47.394 8.404 47.212 8.194C 47.058 8.012 46.988 7.76 46.988 7.34L 46.988 4.75L 49.228 4.75L 49.228 3.21L 46.988 3.21L 46.988 1.32L 45.168 1.32L 45.168 3.21L 43.278 3.21L 43.278 4.75L 45.168 4.75L 45.168 7.13C 45.168 8.096 45.322 8.698 45.672 9.16C 46.134 9.776 46.932 10.14 48.024 10.14C 48.374 10.14 48.92 10.084 49.158 10L 48.878 8.46ZM 55.7257 7.886C 55.4037 8.236 54.7877 8.67 54.0177 8.67C 53.0517 8.67 52.2817 8.012 52.1837 7.06L 56.8877 7.06C 56.9157 6.906 56.9297 6.724 56.9297 6.542C 56.9297 4.652 55.5997 3.07 53.7237 3.07C 51.7077 3.07 50.4197 4.722 50.4197 6.612C 50.4197 8.74 51.9457 10.14 53.9757 10.14C 55.0257 10.14 56.1037 9.706 56.7617 8.922L 55.7257 7.886ZM 52.2677 5.73C 52.3517 5.114 52.9677 4.54 53.7237 4.54C 54.4657 4.54 55.0117 5.128 55.0677 5.73L 52.2677 5.73ZM 1.05 34.36L 2.87 34.36L 2.87 30.524C 3.416 30.944 4.004 31.14 4.69 31.14C 5.698 31.14 6.664 30.692 7.266 29.992C 7.798 29.376 8.12 28.536 8.12 27.612C 8.12 25.61 6.636 24.07 4.788 24.07C 4.018 24.07 3.332 24.322 2.8 24.756L 2.8 24.21L 1.05 24.21L 1.05 34.36ZM 2.87 26.59C 3.248 26.086 3.85 25.75 4.55 25.75C 5.614 25.75 6.3 26.632 6.3 27.612C 6.3 28.676 5.53 29.46 4.508 29.46C 3.822 29.46 3.22 29.124 2.87 28.62L 2.87 26.59ZM 14.0033 24.126C 13.8073 24.098 13.6533 24.07 13.3873 24.07C 12.5613 24.07 11.8193 24.392 11.4133 24.896L 11.4133 24.21L 9.66328 24.21L 9.66328 31L 11.4833 31L 11.4833 26.73C 11.7073 26.324 12.3373 25.75 13.1353 25.75C 13.4013 25.75 13.6673 25.778 13.7933 25.82L 14.0033 24.126ZM 14.8455 27.612C 14.8455 29.572 16.3995 31.14 18.4575 31.14C 20.5155 31.14 22.0695 29.572 22.0695 27.612C 22.0695 25.652 20.5155 24.07 18.4575 24.07C 16.3995 24.07 14.8455 25.652 14.8455 27.612ZM 16.6655 27.612C 16.6655 26.59 17.3935 25.75 18.4575 25.75C 19.5215 25.75 20.2495 26.59 20.2495 27.612C 20.2495 28.634 19.5215 29.46 18.4575 29.46C 17.3935 29.46 16.6655 28.634 16.6655 27.612ZM 30.1186 24.21L 28.3686 24.21L 28.3686 24.756C 27.8366 24.322 27.1506 24.07 26.3806 24.07C 24.5326 24.07 23.0486 25.61 23.0486 27.612C 23.0486 28.536 23.3706 29.376 23.9026 29.992C 24.5046 30.692 25.4706 31.14 26.4786 31.14C 27.1646 31.14 27.7526 30.944 28.2986 30.524L 28.2986 30.748C 28.2986 31.616 28.1586 32.036 27.8786 32.344C 27.5706 32.708 27.0806 32.89 26.4926 32.89C 25.3726 32.89 24.7426 32.302 24.3786 31.91L 23.2306 33.1C 23.9026 33.884 25.1626 34.5 26.4926 34.5C 27.7946 34.5 28.8866 33.996 29.5026 33.142C 29.9086 32.568 30.1186 31.84 30.1186 30.622L 30.1186 24.21ZM 28.2986 28.62C 27.9486 29.124 27.3466 29.46 26.6606 29.46C 25.6386 29.46 24.8686 28.676 24.8686 27.612C 24.8686 26.632 25.5546 25.75 26.6186 25.75C 27.3186 25.75 27.9206 26.086 28.2986 26.59L 28.2986 28.62ZM 36.5619 24.126C 36.3659 24.098 36.2119 24.07 35.9459 24.07C 35.1199 24.07 34.3779 24.392 33.9719 24.896L 33.9719 24.21L 32.2219 24.21L 32.2219 31L 34.0419 31L 34.0419 26.73C 34.2659 26.324 34.8959 25.75 35.6939 25.75C 35.9599 25.75 36.2259 25.778 36.3519 25.82L 36.5619 24.126ZM 42.6541 28.62C 42.3041 29.124 41.7021 29.46 41.0161 29.46C 39.9941 29.46 39.2241 28.676 39.2241 27.612C 39.2241 26.632 39.9101 25.75 40.9741 25.75C 41.6741 25.75 42.2761 26.086 42.6541 26.59L 42.6541 28.62ZM 44.4741 24.21L 42.7241 24.21L 42.7241 24.756C 42.1921 24.322 41.5061 24.07 40.7361 24.07C 38.8881 24.07 37.4041 25.61 37.4041 27.612C 37.4041 28.536 37.7401 29.376 38.2721 29.992C 38.8741 30.692 39.8261 31.14 40.8341 31.14C 41.5201 31.14 42.1641 30.93 42.7241 30.454L 42.7241 31L 44.4741 31L 44.4741 24.21ZM 48.3973 31L 48.3973 26.59C 48.6493 26.268 49.2093 25.75 49.9793 25.75C 50.3293 25.75 50.7213 25.862 51.0013 26.17C 51.2113 26.408 51.3373 26.716 51.3373 27.332L 51.3373 31L 53.1573 31L 53.1573 27.402C 53.1573 27.122 53.1293 26.87 53.1013 26.646C 53.3393 26.296 53.9553 25.75 54.7393 25.75C 55.0893 25.75 55.4813 25.862 55.7613 26.17C 55.9713 26.408 56.0973 26.716 56.0973 27.332L 56.0973 31L 57.9173 31L 57.9173 27.402C 57.9173 26.394 57.6653 25.694 57.2313 25.162C 56.6853 24.49 55.7893 24.07 54.8513 24.07C 53.8433 24.07 52.9893 24.56 52.4433 25.134C 51.9113 24.49 51.0853 24.07 50.1613 24.07C 49.5033 24.07 48.8593 24.28 48.3273 24.756L 48.3273 24.21L 46.5773 24.21L 46.5773 31L 48.3973 31ZM 66.2435 27.5C 66.2435 25.498 66.8455 23.538 67.9095 22.012L 66.5515 21.06C 65.2775 22.88 64.5635 25.12 64.5635 27.5C 64.5635 29.88 65.2775 32.12 66.5515 33.94L 67.9095 32.988C 66.8455 31.462 66.2435 29.502 66.2435 27.5ZM 71.2846 26.1C 71.2846 24.252 72.6566 22.74 74.5046 22.74C 76.3526 22.74 77.7246 24.252 77.7246 26.1C 77.7246 27.948 76.3526 29.46 74.5046 29.46C 72.6566 29.46 71.2846 27.948 71.2846 26.1ZM 69.3946 26.1C 69.3946 28.886 71.4806 31.14 74.5046 31.14C 77.5286 31.14 79.6146 28.886 79.6146 26.1C 79.6146 23.314 77.5286 21.06 74.5046 21.06C 71.4806 21.06 69.3946 23.314 69.3946 26.1ZM 80.3852 21.2L 80.3852 22.88L 82.9752 22.88L 82.9752 31L 84.8652 31L 84.8652 22.88L 87.4552 22.88L 87.4552 21.2L 80.3852 21.2ZM 93.3728 22.74C 94.3388 22.74 95.1648 23.16 95.7528 23.748L 96.9708 22.46C 96.0888 21.606 94.8428 21.06 93.3868 21.06C 90.3348 21.06 88.2208 23.286 88.2208 26.1C 88.2208 28.914 90.3628 31.14 93.4148 31.14C 95.2068 31.14 96.6628 30.37 97.5308 29.264L 96.2288 28.102C 95.6548 28.844 94.7308 29.46 93.4568 29.46C 91.5668 29.46 90.1108 28.004 90.1108 26.1C 90.1108 24.238 91.5108 22.74 93.3728 22.74ZM 100.539 27.5C 100.539 29.502 99.9366 31.462 98.8726 32.988L 100.231 33.94C 101.505 32.12 102.219 29.88 102.219 27.5C 102.219 25.12 101.505 22.88 100.231 21.06L 98.8726 22.012C 99.9366 23.538 100.539 25.498 100.539 27.5Z"/>
<path id="path16_fill" d="M 7.91 10L 9.8 10L 9.8 0.2L 7.91 0.2L 7.91 3.91L 3.01 3.91L 3.01 0.2L 1.12 0.2L 1.12 10L 3.01 10L 3.01 5.59L 7.91 5.59L 7.91 10ZM 16.6638 7.62C 16.3138 8.124 15.7118 8.46 15.0258 8.46C 14.0038 8.46 13.2338 7.676 13.2338 6.612C 13.2338 5.632 13.9198 4.75 14.9838 4.75C 15.6838 4.75 16.2858 5.086 16.6638 5.59L 16.6638 7.62ZM 18.4838 3.21L 16.7338 3.21L 16.7338 3.756C 16.2018 3.322 15.5158 3.07 14.7458 3.07C 12.8978 3.07 11.4138 4.61 11.4138 6.612C 11.4138 7.536 11.7498 8.376 12.2818 8.992C 12.8838 9.692 13.8358 10.14 14.8438 10.14C 15.5298 10.14 16.1738 9.93 16.7338 9.454L 16.7338 10L 18.4838 10L 18.4838 3.21ZM 24.9271 3.126C 24.7311 3.098 24.5771 3.07 24.3111 3.07C 23.4851 3.07 22.7431 3.392 22.3371 3.896L 22.3371 3.21L 20.5871 3.21L 20.5871 10L 22.4071 10L 22.4071 5.73C 22.6311 5.324 23.2611 4.75 24.0591 4.75C 24.3251 4.75 24.5911 4.778 24.7171 4.82L 24.9271 3.126ZM 31.0193 7.62C 30.6693 8.124 30.0673 8.46 29.3813 8.46C 28.3593 8.46 27.5893 7.676 27.5893 6.612C 27.5893 5.632 28.2753 4.75 29.3393 4.75C 30.0393 4.75 30.6413 5.086 31.0193 5.59L 31.0193 7.62ZM 32.8393 10L 32.8393 0.0600003L 31.0193 0.0600003L 31.0193 3.7C 30.4873 3.28 29.8433 3.07 29.1013 3.07C 27.2533 3.07 25.7693 4.61 25.7693 6.612C 25.7693 7.536 26.1053 8.376 26.6373 8.992C 27.2393 9.692 28.1913 10.14 29.1993 10.14C 29.8853 10.14 30.5293 9.93 31.0893 9.454L 31.0893 10L 32.8393 10ZM 39.8566 6.052L 41.5646 10L 42.8246 10L 45.6806 3.21L 43.8466 3.21L 42.1806 7.172L 40.4866 3.21L 39.2266 3.21L 37.5186 7.172L 35.8666 3.21L 34.0326 3.21L 36.8886 10L 38.1486 10L 39.8566 6.052ZM 51.5545 7.62C 51.2045 8.124 50.6025 8.46 49.9165 8.46C 48.8945 8.46 48.1245 7.676 48.1245 6.612C 48.1245 5.632 48.8105 4.75 49.8745 4.75C 50.5745 4.75 51.1765 5.086 51.5545 5.59L 51.5545 7.62ZM 53.3745 3.21L 51.6245 3.21L 51.6245 3.756C 51.0925 3.322 50.4065 3.07 49.6365 3.07C 47.7885 3.07 46.3045 4.61 46.3045 6.612C 46.3045 7.536 46.6405 8.376 47.1725 8.992C 47.7745 9.692 48.7265 10.14 49.7345 10.14C 50.4205 10.14 51.0645 9.93 51.6245 9.454L 51.6245 10L 53.3745 10L 53.3745 3.21ZM 59.8177 3.126C 59.6217 3.098 59.4677 3.07 59.2017 3.07C 58.3757 3.07 57.6337 3.392 57.2277 3.896L 57.2277 3.21L 55.4777 3.21L 55.4777 10L 57.2977 10L 57.2977 5.73C 57.5217 5.324 58.1517 4.75 58.9497 4.75C 59.2157 4.75 59.4817 4.778 59.6077 4.82L 59.8177 3.126ZM 65.9659 7.886C 65.6439 8.236 65.0279 8.67 64.2579 8.67C 63.2919 8.67 62.5219 8.012 62.4239 7.06L 67.1279 7.06C 67.1559 6.906 67.1699 6.724 67.1699 6.542C 67.1699 4.652 65.8399 3.07 63.9639 3.07C 61.9479 3.07 60.6599 4.722 60.6599 6.612C 60.6599 8.74 62.1859 10.14 64.2159 10.14C 65.2659 10.14 66.3439 9.706 67.0019 8.922L 65.9659 7.886ZM 62.5079 5.73C 62.5919 5.114 63.2079 4.54 63.9639 4.54C 64.7059 4.54 65.2519 5.128 65.3079 5.73L 62.5079 5.73ZM 5.964 27.052L 7.672 31L 8.932 31L 11.788 24.21L 9.954 24.21L 8.288 28.172L 6.594 24.21L 5.334 24.21L 3.626 28.172L 1.974 24.21L 0.14 24.21L 2.996 31L 4.256 31L 5.964 27.052ZM 17.6619 28.62C 17.3119 29.124 16.7099 29.46 16.0239 29.46C 15.0019 29.46 14.2319 28.676 14.2319 27.612C 14.2319 26.632 14.9179 25.75 15.9819 25.75C 16.6819 25.75 17.2839 26.086 17.6619 26.59L 17.6619 28.62ZM 19.4819 24.21L 17.7319 24.21L 17.7319 24.756C 17.1999 24.322 16.5139 24.07 15.7439 24.07C 13.8959 24.07 12.4119 25.61 12.4119 27.612C 12.4119 28.536 12.7479 29.376 13.2799 29.992C 13.8819 30.692 14.8339 31.14 15.8419 31.14C 16.5279 31.14 17.1719 30.93 17.7319 30.454L 17.7319 31L 19.4819 31L 19.4819 24.21ZM 23.4052 21.06L 21.5852 21.06L 21.5852 31L 23.4052 31L 23.4052 21.06ZM 27.329 21.06L 25.509 21.06L 25.509 31L 27.329 31L 27.329 21.06ZM 34.1788 28.886C 33.8568 29.236 33.2408 29.67 32.4708 29.67C 31.5048 29.67 30.7348 29.012 30.6368 28.06L 35.3408 28.06C 35.3688 27.906 35.3828 27.724 35.3828 27.542C 35.3828 25.652 34.0528 24.07 32.1768 24.07C 30.1608 24.07 28.8728 25.722 28.8728 27.612C 28.8728 29.74 30.3988 31.14 32.4288 31.14C 33.4788 31.14 34.5568 30.706 35.2148 29.922L 34.1788 28.886ZM 30.7208 26.73C 30.8048 26.114 31.4208 25.54 32.1768 25.54C 32.9188 25.54 33.4648 26.128 33.5208 26.73L 30.7208 26.73ZM 41.755 29.46C 41.629 29.488 41.279 29.53 41.013 29.53C 40.565 29.53 40.271 29.404 40.089 29.194C 39.935 29.012 39.865 28.76 39.865 28.34L 39.865 25.75L 42.105 25.75L 42.105 24.21L 39.865 24.21L 39.865 22.32L 38.045 22.32L 38.045 24.21L 36.155 24.21L 36.155 25.75L 38.045 25.75L 38.045 28.13C 38.045 29.096 38.199 29.698 38.549 30.16C 39.011 30.776 39.809 31.14 40.901 31.14C 41.251 31.14 41.797 31.084 42.035 31L 41.755 29.46Z"/>
<path id="path17_fill" d="M 1.12 0.2L 1.12 10L 4.942 10C 6.202 10 6.958 9.664 7.504 9.118C 8.05 8.586 8.4 7.83 8.4 7.004C 8.4 5.912 7.798 4.932 6.93 4.498C 7.252 4.162 7.56 3.504 7.56 2.86C 7.56 2.062 7.196 1.362 6.65 0.886C 6.174 0.466 5.558 0.2 4.452 0.2L 1.12 0.2ZM 3.01 1.88L 4.34 1.88C 4.928 1.88 5.194 2.02 5.39 2.23C 5.558 2.412 5.67 2.664 5.67 2.93C 5.67 3.196 5.558 3.448 5.39 3.63C 5.194 3.84 4.928 3.98 4.34 3.98L 3.01 3.98L 3.01 1.88ZM 3.01 8.32L 3.01 5.66L 4.9 5.66C 5.558 5.66 5.922 5.828 6.16 6.094C 6.384 6.332 6.51 6.64 6.51 6.99C 6.51 7.34 6.384 7.648 6.16 7.886C 5.922 8.152 5.558 8.32 4.9 8.32L 3.01 8.32ZM 9.87 0.2L 9.87 10L 13.692 10C 14.952 10 15.708 9.664 16.254 9.118C 16.8 8.586 17.15 7.83 17.15 7.004C 17.15 5.912 16.548 4.932 15.68 4.498C 16.002 4.162 16.31 3.504 16.31 2.86C 16.31 2.062 15.946 1.362 15.4 0.886C 14.924 0.466 14.308 0.2 13.202 0.2L 9.87 0.2ZM 11.76 1.88L 13.09 1.88C 13.678 1.88 13.944 2.02 14.14 2.23C 14.308 2.412 14.42 2.664 14.42 2.93C 14.42 3.196 14.308 3.448 14.14 3.63C 13.944 3.84 13.678 3.98 13.09 3.98L 11.76 3.98L 11.76 1.88ZM 11.76 8.32L 11.76 5.66L 13.65 5.66C 14.308 5.66 14.672 5.828 14.91 6.094C 15.134 6.332 15.26 6.64 15.26 6.99C 15.26 7.34 15.134 7.648 14.91 7.886C 14.672 8.152 14.308 8.32 13.65 8.32L 11.76 8.32ZM 17.64 8.67C 18.648 9.594 19.866 10.14 21.182 10.14C 22.946 10.14 24.5 8.936 24.5 7.2C 24.5 3.896 19.978 4.386 19.978 2.804C 19.978 2.048 20.776 1.74 21.49 1.74C 22.134 1.74 22.792 2.02 23.184 2.384L 24.164 0.984C 23.24 0.298 22.316 0.0600003 21.322 0.0600003C 19.698 0.0600003 18.088 1.068 18.088 2.818C 18.088 3.924 18.704 4.596 19.474 5.044C 20.79 5.814 22.61 5.968 22.61 7.228C 22.61 7.942 22.022 8.46 21.182 8.46C 20.286 8.46 19.432 7.998 18.872 7.382L 17.64 8.67Z"/>
<path id="path18_fill" d="M 7.63 5.1C 7.63 5.912 7.364 6.668 6.916 7.228C 6.37 7.914 5.572 8.32 4.41 8.32L 3.01 8.32L 3.01 1.88L 4.41 1.88C 5.572 1.88 6.37 2.286 6.916 2.972C 7.364 3.532 7.63 4.288 7.63 5.1ZM 1.12 0.2L 1.12 10L 4.2 10C 5.754 10 6.776 9.664 7.574 9.076C 8.778 8.18 9.52 6.724 9.52 5.1C 9.52 3.476 8.778 2.02 7.574 1.124C 6.776 0.536 5.754 0.2 4.2 0.2L 1.12 0.2ZM 15.7355 7.886C 15.4135 8.236 14.7975 8.67 14.0275 8.67C 13.0615 8.67 12.2915 8.012 12.1935 7.06L 16.8975 7.06C 16.9255 6.906 16.9395 6.724 16.9395 6.542C 16.9395 4.652 15.6095 3.07 13.7335 3.07C 11.7175 3.07 10.4295 4.722 10.4295 6.612C 10.4295 8.74 11.9555 10.14 13.9855 10.14C 15.0355 10.14 16.1135 9.706 16.7715 8.922L 15.7355 7.886ZM 12.2775 5.73C 12.3615 5.114 12.9775 4.54 13.7335 4.54C 14.4755 4.54 15.0215 5.128 15.0775 5.73L 12.2775 5.73ZM 17.8096 9.23C 18.6076 9.818 19.6016 10.14 20.5396 10.14C 21.9676 10.14 23.2416 9.342 23.2416 8.04C 23.2416 5.688 19.9516 6.038 19.9516 5.156C 19.9516 4.806 20.3716 4.61 20.8756 4.61C 21.3656 4.61 21.8276 4.82 22.1776 5.072L 23.0316 3.756C 22.5836 3.406 21.6176 3.07 20.7356 3.07C 19.3916 3.07 18.1316 3.882 18.1316 5.184C 18.1316 7.368 21.4216 7.004 21.4216 8.026C 21.4216 8.362 21.0436 8.6 20.5536 8.6C 19.8676 8.6 19.1536 8.348 18.6916 7.928L 17.8096 9.23ZM 31.6411 3.21L 29.0791 3.21L 26.7411 5.408L 26.7411 0.0600003L 24.9211 0.0600003L 24.9211 10L 26.7411 10L 26.7411 7.06L 29.6111 10L 32.0611 10L 28.3231 6.262L 31.6411 3.21ZM 38.0773 8.46C 37.9513 8.488 37.6013 8.53 37.3353 8.53C 36.8873 8.53 36.5933 8.404 36.4113 8.194C 36.2573 8.012 36.1873 7.76 36.1873 7.34L 36.1873 4.75L 38.4273 4.75L 38.4273 3.21L 36.1873 3.21L 36.1873 1.32L 34.3673 1.32L 34.3673 3.21L 32.4773 3.21L 32.4773 4.75L 34.3673 4.75L 34.3673 7.13C 34.3673 8.096 34.5213 8.698 34.8713 9.16C 35.3333 9.776 36.1313 10.14 37.2233 10.14C 37.5733 10.14 38.1193 10.084 38.3573 10L 38.0773 8.46ZM 39.6189 6.612C 39.6189 8.572 41.1729 10.14 43.2309 10.14C 45.2889 10.14 46.8429 8.572 46.8429 6.612C 46.8429 4.652 45.2889 3.07 43.2309 3.07C 41.1729 3.07 39.6189 4.652 39.6189 6.612ZM 41.4389 6.612C 41.4389 5.59 42.1669 4.75 43.2309 4.75C 44.2949 4.75 45.0229 5.59 45.0229 6.612C 45.0229 7.634 44.2949 8.46 43.2309 8.46C 42.1669 8.46 41.4389 7.634 41.4389 6.612ZM 48.382 13.36L 50.202 13.36L 50.202 9.524C 50.748 9.944 51.336 10.14 52.022 10.14C 53.03 10.14 53.996 9.692 54.598 8.992C 55.13 8.376 55.452 7.536 55.452 6.612C 55.452 4.61 53.968 3.07 52.12 3.07C 51.35 3.07 50.664 3.322 50.132 3.756L 50.132 3.21L 48.382 3.21L 48.382 13.36ZM 50.202 5.59C 50.58 5.086 51.182 4.75 51.882 4.75C 52.946 4.75 53.632 5.632 53.632 6.612C 53.632 7.676 52.862 8.46 51.84 8.46C 51.154 8.46 50.552 8.124 50.202 7.62L 50.202 5.59ZM 56.9253 5.59L 56.9253 7.13L 61.5453 7.13L 61.5453 5.59L 56.9253 5.59ZM 65.3915 0.0600003L 63.5715 0.0600003L 63.5715 10L 65.3915 10L 65.3915 0.0600003ZM 69.3153 3.21L 67.4953 3.21L 67.4953 10L 69.3153 10L 69.3153 3.21ZM 67.2153 0.802C 67.2153 1.46 67.7473 1.964 68.4053 1.964C 69.0633 1.964 69.5953 1.46 69.5953 0.802C 69.5953 0.144 69.0633 -0.36 68.4053 -0.36C 67.7473 -0.36 67.2153 0.144 67.2153 0.802ZM 76.2491 8.46C 76.1231 8.488 75.7731 8.53 75.5071 8.53C 75.0591 8.53 74.7651 8.404 74.5831 8.194C 74.4291 8.012 74.3591 7.76 74.3591 7.34L 74.3591 4.75L 76.5991 4.75L 76.5991 3.21L 74.3591 3.21L 74.3591 1.32L 72.5391 1.32L 72.5391 3.21L 70.6491 3.21L 70.6491 4.75L 72.5391 4.75L 72.5391 7.13C 72.5391 8.096 72.6931 8.698 73.0431 9.16C 73.5051 9.776 74.3031 10.14 75.3951 10.14C 75.7451 10.14 76.2911 10.084 76.5291 10L 76.2491 8.46ZM 83.0968 7.886C 82.7748 8.236 82.1588 8.67 81.3888 8.67C 80.4228 8.67 79.6528 8.012 79.5548 7.06L 84.2588 7.06C 84.2868 6.906 84.3008 6.724 84.3008 6.542C 84.3008 4.652 82.9708 3.07 81.0948 3.07C 79.0788 3.07 77.7908 4.722 77.7908 6.612C 77.7908 8.74 79.3168 10.14 81.3468 10.14C 82.3968 10.14 83.4748 9.706 84.1328 8.922L 83.0968 7.886ZM 79.6388 5.73C 79.7228 5.114 80.3388 4.54 81.0948 4.54C 81.8368 4.54 82.3828 5.128 82.4388 5.73L 79.6388 5.73ZM 3.388 31L 4.718 31L 6.888 24.798L 9.072 31L 10.402 31L 13.65 21.2L 11.746 21.2L 9.716 27.318L 7.56 21.2L 6.23 21.2L 4.074 27.318L 2.044 21.2L 0.14 21.2L 3.388 31ZM 19.5349 28.62C 19.1849 29.124 18.5829 29.46 17.8969 29.46C 16.8749 29.46 16.1049 28.676 16.1049 27.612C 16.1049 26.632 16.7909 25.75 17.8549 25.75C 18.5549 25.75 19.1569 26.086 19.5349 26.59L 19.5349 28.62ZM 21.3549 24.21L 19.6049 24.21L 19.6049 24.756C 19.0729 24.322 18.3869 24.07 17.6169 24.07C 15.7689 24.07 14.2849 25.61 14.2849 27.612C 14.2849 28.536 14.6209 29.376 15.1529 29.992C 15.7549 30.692 16.7069 31.14 17.7149 31.14C 18.4009 31.14 19.0449 30.93 19.6049 30.454L 19.6049 31L 21.3549 31L 21.3549 24.21ZM 25.2782 21.06L 23.4582 21.06L 23.4582 31L 25.2782 31L 25.2782 21.06ZM 29.202 21.06L 27.382 21.06L 27.382 31L 29.202 31L 29.202 21.06ZM 36.0519 28.886C 35.7299 29.236 35.1139 29.67 34.3439 29.67C 33.3779 29.67 32.6079 29.012 32.5099 28.06L 37.2139 28.06C 37.2419 27.906 37.2559 27.724 37.2559 27.542C 37.2559 25.652 35.9259 24.07 34.0499 24.07C 32.0339 24.07 30.7459 25.722 30.7459 27.612C 30.7459 29.74 32.2719 31.14 34.3019 31.14C 35.3519 31.14 36.4299 30.706 37.0879 29.922L 36.0519 28.886ZM 32.5939 26.73C 32.6779 26.114 33.2939 25.54 34.0499 25.54C 34.7919 25.54 35.3379 26.128 35.3939 26.73L 32.5939 26.73ZM 43.628 29.46C 43.502 29.488 43.152 29.53 42.886 29.53C 42.438 29.53 42.144 29.404 41.962 29.194C 41.808 29.012 41.738 28.76 41.738 28.34L 41.738 25.75L 43.978 25.75L 43.978 24.21L 41.738 24.21L 41.738 22.32L 39.918 22.32L 39.918 24.21L 38.028 24.21L 38.028 25.75L 39.918 25.75L 39.918 28.13C 39.918 29.096 40.072 29.698 40.422 30.16C 40.884 30.776 41.682 31.14 42.774 31.14C 43.124 31.14 43.67 31.084 43.908 31L 43.628 29.46Z"/>
<path id="path19_fill" d="M 3.388 11L 4.718 11L 6.888 4.798L 9.072 11L 10.402 11L 13.65 1.2L 11.746 1.2L 9.716 7.318L 7.56 1.2L 6.23 1.2L 4.074 7.318L 2.044 1.2L 0.14 1.2L 3.388 11ZM 19.5909 8.886C 19.2689 9.236 18.6529 9.67 17.8829 9.67C 16.9169 9.67 16.1469 9.012 16.0489 8.06L 20.7529 8.06C 20.7809 7.906 20.7949 7.724 20.7949 7.542C 20.7949 5.652 19.4649 4.07 17.5889 4.07C 15.5729 4.07 14.2849 5.722 14.2849 7.612C 14.2849 9.74 15.8109 11.14 17.8409 11.14C 18.8909 11.14 19.9689 10.706 20.6269 9.922L 19.5909 8.886ZM 16.1329 6.73C 16.2169 6.114 16.8329 5.54 17.5889 5.54C 18.3309 5.54 18.8769 6.128 18.9329 6.73L 16.1329 6.73ZM 24.1571 6.59C 24.5351 6.086 25.1371 5.75 25.8371 5.75C 26.9011 5.75 27.5871 6.632 27.5871 7.612C 27.5871 8.676 26.8171 9.46 25.7951 9.46C 25.1091 9.46 24.5071 9.124 24.1571 8.62L 24.1571 6.59ZM 24.0871 11L 24.0871 10.454C 24.6471 10.93 25.2911 11.14 25.9771 11.14C 26.9851 11.14 27.9371 10.692 28.5391 9.992C 29.0711 9.376 29.4071 8.536 29.4071 7.612C 29.4071 5.61 27.9231 4.07 26.0751 4.07C 25.3331 4.07 24.6891 4.28 24.1571 4.7L 24.1571 1.06L 22.3371 1.06L 22.3371 11L 24.0871 11ZM 37.0618 11L 38.3918 11L 40.5618 4.798L 42.7458 11L 44.0758 11L 47.3238 1.2L 45.4198 1.2L 43.3898 7.318L 41.2338 1.2L 39.9038 1.2L 37.7478 7.318L 35.7178 1.2L 33.8138 1.2L 37.0618 11ZM 53.2087 8.62C 52.8587 9.124 52.2568 9.46 51.5708 9.46C 50.5487 9.46 49.7788 8.676 49.7788 7.612C 49.7788 6.632 50.4648 5.75 51.5287 5.75C 52.2288 5.75 52.8307 6.086 53.2087 6.59L 53.2087 8.62ZM 55.0288 4.21L 53.2787 4.21L 53.2787 4.756C 52.7468 4.322 52.0608 4.07 51.2908 4.07C 49.4428 4.07 47.9588 5.61 47.9588 7.612C 47.9588 8.536 48.2948 9.376 48.8268 9.992C 49.4288 10.692 50.3808 11.14 51.3888 11.14C 52.0747 11.14 52.7188 10.93 53.2787 10.454L 53.2787 11L 55.0288 11L 55.0288 4.21ZM 58.952 1.06L 57.132 1.06L 57.132 11L 58.952 11L 58.952 1.06ZM 62.8759 1.06L 61.0559 1.06L 61.0559 11L 62.8759 11L 62.8759 1.06ZM 69.7257 8.886C 69.4037 9.236 68.7877 9.67 68.0177 9.67C 67.0517 9.67 66.2817 9.012 66.1837 8.06L 70.8877 8.06C 70.9157 7.906 70.9297 7.724 70.9297 7.542C 70.9297 5.652 69.5997 4.07 67.7237 4.07C 65.7077 4.07 64.4197 5.722 64.4197 7.612C 64.4197 9.74 65.9457 11.14 67.9757 11.14C 69.0257 11.14 70.1037 10.706 70.7617 9.922L 69.7257 8.886ZM 66.2677 6.73C 66.3517 6.114 66.9677 5.54 67.7237 5.54C 68.4657 5.54 69.0117 6.128 69.0677 6.73L 66.2677 6.73ZM 77.3019 9.46C 77.1759 9.488 76.8259 9.53 76.5599 9.53C 76.1119 9.53 75.8179 9.404 75.6359 9.194C 75.4819 9.012 75.4119 8.76 75.4119 8.34L 75.4119 5.75L 77.6519 5.75L 77.6519 4.21L 75.4119 4.21L 75.4119 2.32L 73.5919 2.32L 73.5919 4.21L 71.7019 4.21L 71.7019 5.75L 73.5919 5.75L 73.5919 8.13C 73.5919 9.096 73.7459 9.698 74.0959 10.16C 74.5579 10.776 75.3559 11.14 76.4479 11.14C 76.7979 11.14 77.3439 11.084 77.5819 11L 77.3019 9.46Z"/>
<path id="path20_fill" fill-rule="evenodd" d="M 1140 3L 0 3L 0 0L 1140 0L 1140 3Z"/>
<path id="path21_fill" fill-rule="evenodd" d="M 1074 3L 0 3L 0 0L 1074 0L 1074 3Z"/>
<path id="path22_fill" fill-rule="evenodd" d="M 1012 3L 0 3L 0 0L 1012 0L 1012 3Z"/>
<path id="path23_fill" fill-rule="evenodd" d="M 947 3L 0 3L 0 0L 947 0L 947 3Z"/>
<path id="path24_fill" fill-rule="evenodd" d="M 887 3L 0 3L 0 0L 887 0L 887 3Z"/>
<path id="path25_fill" fill-rule="evenodd" d="M 822 3L 0 3L 0 0L 822 0L 822 3Z"/>
<path id="path26_fill" fill-rule="evenodd" d="M 761 3L 0 3L 0 0L 761 0L 761 3Z"/>
<path id="path27_fill" fill-rule="evenodd" d="M 697 3L 0 3L 0 0L 697 0L 697 3Z"/>
<path id="path28_fill" fill-rule="evenodd" d="M 637 3L 0 3L 0 0L 637 0L 637 3Z"/>
<path id="path29_fill" fill-rule="evenodd" d="M 571 3L 0 3L 0 0L 571 0L 571 3Z"/>
<path id="path30_fill" fill-rule="evenodd" d="M 510 3L 0 3L 0 0L 510 0L 510 3Z"/>
<path id="path31_fill" fill-rule="evenodd" d="M 444 3L 0 3L 0 0L 444 0L 444 3Z"/>
<path id="path32_fill" fill-rule="evenodd" d="M 380 3L 0 3L 0 0L 380 0L 380 3Z"/>
<path id="path33_fill" fill-rule="evenodd" d="M 318 3L 0 3L 0 0L 318 0L 318 3Z"/>
<path id="path34_fill" fill-rule="evenodd" d="M 256 3L 0 3L 0 0L 256 0L 256 3Z"/>
<path id="path35_fill" fill-rule="evenodd" d="M 183 3L 0 3L 0 0L 183 0L 183 3Z"/>
<path id="path36_fill" fill-rule="evenodd" d="M 120.602 3L 0 3L 0 0L 120.602 0L 120.602 3Z"/>
<path id="path37_stroke" d="M 0.5 221L 0.5 0L -0.5 0L -0.5 221L 0.5 221Z"/>
<path id="path38_stroke" d="M 0.5 201L 0.5 0L -0.5 0L -0.5 201L 0.5 201Z"/>
<path id="path39_stroke" d="M 0.5 179L 0.5 0L -0.5 0L -0.5 179L 0.5 179Z"/>
<path id="path40_stroke" d="M 0.5 155L 0.5 0L -0.5 0L -0.5 155L 0.5 155Z"/>
<path id="path41_stroke" d="M 0.5 135L 0.5 0L -0.5 0L -0.5 135L 0.5 135Z"/>
<path id="path42_stroke" d="M 0.5 116L 0.5 0L -0.5 0L -0.5 116L 0.5 116Z"/>
<path id="path43_stroke" d="M 0.5 48L 0.5 0L -0.5 0L -0.5 48L 0.5 48Z"/>
<path id="path44_stroke" d="M 0.5 68L 0.5 0L -0.5 0L -0.5 68L 0.5 68Z"/>
<path id="path45_stroke" d="M 0.5 88L 0.5 0L -0.5 0L -0.5 88L 0.5 88Z"/>
<path id="path46_stroke" d="M 0.5 108L 0.5 0L -0.5 0L -0.5 108L 0.5 108Z"/>
<path id="path47_stroke" d="M 0.5 128L 0.5 0L -0.5 0L -0.5 128L 0.5 128Z"/>
<path id="path48_stroke" d="M 0.5 148L 0.5 0L -0.5 0L -0.5 148L 0.5 148Z"/>
<path id="path49_stroke" d="M 0.5 168L 0.5 0L -0.5 0L -0.5 168L 0.5 168Z"/>
<path id="path50_stroke" d="M 0.5 97L 0.5 0L -0.5 0L -0.5 97L 0.5 97Z"/>
<path id="path51_stroke" d="M 0.5 78L 0.5 0L -0.5 0L -0.5 78L 0.5 78Z"/>
<path id="path52_stroke" d="M 0.5 188L 0.5 0L -0.5 0L -0.5 188L 0.5 188Z"/>
<path id="path53_stroke" d="M 0.5 208L 0.5 0L -0.5 0L -0.5 208L 0.5 208Z"/>
</defs>
</svg>
