<svg width="1140" height="383" viewBox="0 0 1140 383" version="1.1" xmlns="http://www.w3.org/2000/svg" xmlns:xlink="http://www.w3.org/1999/xlink">
<title>roadmap_text</title>
<desc>Created using Figma</desc>
<g id="Canvas" transform="translate(6243 -22017)">
<g id="roadmap_text">
<g id="OTC">
<use xlink:href="#path0_fill" transform="translate(-6243 22363)" fill="#333333"/>
</g>
<g id="2018 Q1">
<use xlink:href="#path1_fill" transform="translate(-6243 22273)" fill="#0575FF"/>
</g>
<g id="2018 Q2">
<use xlink:href="#path2_fill" transform="translate(-5990.35 22233)" fill="#0575FF"/>
</g>
<g id="2018 Q3">
<use xlink:href="#path3_fill" transform="translate(-5740.34 22193)" fill="#0575FF"/>
</g>
<g id="2018 Q4">
<use xlink:href="#path4_fill" transform="translate(-5483.29 22153)" fill="#0575FF"/>
</g>
<g id="Wallet Encryption">
<use xlink:href="#path5_fill" transform="translate(-6176.98 22018)" fill="#333333"/>
</g>
<g id="Skyledger support desk">
<use xlink:href="#path6_fill" transform="translate(-6115.35 22363)" fill="#333333"/>
</g>
<g id="New Website">
<use xlink:href="#path7_fill" transform="translate(-6050.21 22018)" fill="#333333"/>
</g>
<g id="OTC passthrough">
<use xlink:href="#path8_fill" transform="translate(-5990.35 22363)" fill="#333333"/>
</g>
<g id="Mobile Wallet IOS">
<use xlink:href="#path9_fill" transform="translate(-5864.47 22363)" fill="#333333"/>
</g>
<g id="Signal">
<use xlink:href="#path10_fill" transform="translate(-5740.34 22363)" fill="#333333"/>
</g>
<g id="Advanced Spend Builder">
<use xlink:href="#path11_fill" transform="translate(-5613.58 22363)" fill="#333333"/>
</g>
<g id="VPN">
<use xlink:href="#path12_fill" transform="translate(-5483.29 22363)" fill="#333333"/>
</g>
<g id="Coinjoin">
<use xlink:href="#path13_fill" transform="translate(-5359.17 22363)" fill="#333333"/>
</g>
<g id="Mobile Wallet Android">
<use xlink:href="#path14_fill" transform="translate(-5925.21 22018)" fill="#333333"/>
</g>
<g id="Affiliate program (OTC)">
<use xlink:href="#path15_fill" transform="translate(-5800.2 22018)" fill="#333333"/>
</g>
<g id="Hardware wallet">
<use xlink:href="#path16_fill" transform="translate(-5674.32 22018)" fill="#0575FF"/>
</g>
<g id="Mobile Wallet Android">
<use xlink:href="#path14_fill" transform="translate(-5546.68 22018)" fill="#333333"/>
</g>
<g id="BBS">
<use xlink:href="#path17_fill" transform="translate(-5421.67 22041)" fill="#333333"/>
</g>
<g id="Desktop-lite Wallet">
<use xlink:href="#path18_fill" transform="translate(-5225.36 22363)" fill="#333333"/>
</g>
<g id="Web Wallet">
<use xlink:href="#path19_fill" transform="translate(-5287.86 22041)" fill="#333333"/>
</g>
<g id="roadmap">
<g id="Vector 8 (Stroke)">
<use xlink:href="#path20_fill" transform="translate(-6243 22296)" fill="#0575FF"/>
</g>
<g id="Vector 8.1 (Stroke)">
<use xlink:href="#path21_fill" transform="translate(-6177 22286)" fill="#0575FF"/>
</g>
<g id="Vector 8.2 (Stroke)">
<use xlink:href="#path22_fill" transform="translate(-6115 22276)" fill="#0575FF"/>
</g>
<g id="Vector 8.3 (Stroke)">
<use xlink:href="#path23_fill" transform="translate(-6050 22266)" fill="#0575FF"/>
</g>
<g id="Vector 8.4 (Stroke)">
<use xlink:href="#path24_fill" transform="translate(-5990 22256)" fill="#0575FF"/>
</g>
<g id="Vector 8.5 (Stroke)">
<use xlink:href="#path25_fill" transform="translate(-5925 22246)" fill="#0575FF"/>
</g>
<g id="Vector 8.6 (Stroke)">
<use xlink:href="#path26_fill" transform="translate(-5864 22236)" fill="#0575FF"/>
</g>
<g id="Vector 8.7 (Stroke)">
<use xlink:href="#path27_fill" transform="translate(-5800 22226)" fill="#0575FF"/>
</g>
<g id="Vector 8.8 (Stroke)">
<use xlink:href="#path28_fill" transform="translate(-5740 22216)" fill="#0575FF"/>
</g>
<g id="Vector 8.9 (Stroke)">
<use xlink:href="#path29_fill" transform="translate(-5674 22206)" fill="#0575FF"/>
</g>
<g id="Vector 8.10 (Stroke)">
<use xlink:href="#path30_fill" transform="translate(-5613 22196)" fill="#0575FF"/>
</g>
<g id="Vector 8.11 (Stroke)">
<use xlink:href="#path31_fill" transform="translate(-5547 22186)" fill="#0575FF"/>
</g>
<g id="Vector 8.12 (Stroke)">
<use xlink:href="#path32_fill" transform="translate(-5483 22176)" fill="#0575FF"/>
</g>
<g id="Vector 8.13 (Stroke)">
<use xlink:href="#path33_fill" transform="translate(-5421 22166)" fill="#0575FF"/>
</g>
<g id="Vector 8.14 (Stroke)">
<use xlink:href="#path34_fill" transform="translate(-5359 22156)" fill="#0575FF"/>
</g>
<g id="Vector 8.14 (Stroke)">
<use xlink:href="#path35_fill" transform="translate(-5286 22146)" fill="#0575FF"/>
</g>
<g id="Vector 8.14 (Stroke)">
<use xlink:href="#path36_fill" transform="translate(-5223.6 22136)" fill="#0575FF"/>
</g>
<g id="Vector 9">
<use xlink:href="#path37_stroke" transform="translate(-6176.5 22067)" fill="#000000" fill-opacity="0.1"/>
</g>
<g id="Vector 9.1">
<use xlink:href="#path38_stroke" transform="translate(-6049.5 22067)" fill="#000000" fill-opacity="0.1"/>
</g>
<g id="Vector 9.2">
<use xlink:href="#path39_stroke" transform="translate(-5924.5 22069)" fill="#000000" fill-opacity="0.1"/>
</g>
<g id="Vector 9.3">
<use xlink:href="#path40_stroke" transform="translate(-5799.5 22073)" fill="#000000" fill-opacity="0.1"/>
</g>
<g id="Vector 9.4">
<use xlink:href="#path41_stroke" transform="translate(-5673.5 22073)" fill="#000000" fill-opacity="0.1"/>
</g>
<g id="Vector 9.5">
<use xlink:href="#path42_stroke" transform="translate(-5546.5 22072)" fill="#000000" fill-opacity="0.1"/>
</g>
<g id="Vector 9.6">
<use xlink:href="#path43_stroke" transform="translate(-6242.5 22296)" fill="#000000" fill-opacity="0.1"/>
</g>
<g id="Vector 9.7">
<use xlink:href="#path44_stroke" transform="translate(-6114.5 22276)" fill="#000000" fill-opacity="0.1"/>
</g>
<g id="Vector 9.8">
<use xlink:href="#path45_stroke" transform="translate(-5989.5 22256)" fill="#000000" fill-opacity="0.1"/>
</g>
<g id="Vector 9.9">
<use xlink:href="#path46_stroke" transform="translate(-5864.5 22236)" fill="#000000" fill-opacity="0.1"/>
</g>
<g id="Vector 9.10">
<use xlink:href="#path47_stroke" transform="translate(-5739.5 22216)" fill="#000000" fill-opacity="0.1"/>
</g>
<g id="Vector 9.11">
<use xlink:href="#path48_stroke" transform="translate(-5613.5 22196)" fill="#000000" fill-opacity="0.1"/>
</g>
<g id="Vector 9.15">
<use xlink:href="#path49_stroke" transform="translate(-5482.5 22176)" fill="#000000" fill-opacity="0.1"/>
</g>
<g id="Vector 9.12">
<use xlink:href="#path50_stroke" transform="translate(-5421.5 22071)" fill="#000000" fill-opacity="0.1"/>
</g>
<g id="Vector 9.18">
<use xlink:href="#path51_stroke" transform="translate(-5285.5 22070)" fill="#000000" fill-opacity="0.1"/>
</g>
<g id="Vector 9.14">
<use xlink:href="#path52_stroke" transform="translate(-5358.5 22156)" fill="#000000" fill-opacity="0.1"/>
</g>
<g id="Vector 9.17">
<use xlink:href="#path53_stroke" transform="translate(-5223.5 22136)" fill="#000000" fill-opacity="0.1"/>
</g>
</g>
</g>
</g>
<defs>
<path id="path0_fill" d="M 2.475 5.75C 2.475 3.77 3.945 2.15 5.925 2.15C 7.905 2.15 9.375 3.77 9.375 5.75C 9.375 7.73 7.905 9.35 5.925 9.35C 3.945 9.35 2.475 7.73 2.475 5.75ZM 0.45 5.75C 0.45 8.735 2.685 11.15 5.925 11.15C 9.165 11.15 11.4 8.735 11.4 5.75C 11.4 2.765 9.165 0.35 5.925 0.35C 2.685 0.35 0.45 2.765 0.45 5.75ZM 12.2256 0.5L 12.2256 2.3L 15.0006 2.3L 15.0006 11L 17.0256 11L 17.0256 2.3L 19.8006 2.3L 19.8006 0.5L 12.2256 0.5ZM 26.1409 2.15C 27.1759 2.15 28.0609 2.6 28.6909 3.23L 29.9959 1.85C 29.0509 0.935 27.7159 0.35 26.1559 0.35C 22.8859 0.35 20.6209 2.735 20.6209 5.75C 20.6209 8.765 22.9159 11.15 26.1859 11.15C 28.1059 11.15 29.6659 10.325 30.5959 9.14L 29.2009 7.895C 28.5859 8.69 27.5959 9.35 26.2309 9.35C 24.2059 9.35 22.6459 7.79 22.6459 5.75C 22.6459 3.755 24.1459 2.15 26.1409 2.15Z"/>
<path id="path1_fill" d="M 2.197 2.357C 2.379 1.746 2.821 1.33 3.432 1.33C 4.121 1.33 4.615 1.915 4.615 2.552C 4.615 3.02 4.42 3.54 3.718 4.333L 0.52 7.96L 0.52 9L 6.435 9L 6.435 7.44L 3.263 7.44L 5.2 5.191C 5.811 4.489 6.37 3.683 6.37 2.578C 6.37 0.94 5.018 -0.23 3.458 -0.23C 2.119 -0.23 0.975 0.628 0.585 1.876L 2.197 2.357ZM 12.414 4.45C 12.414 6.166 12.037 7.57 10.984 7.57C 9.93098 7.57 9.55398 6.166 9.55398 4.45C 9.55398 2.734 9.93098 1.33 10.984 1.33C 12.037 1.33 12.414 2.734 12.414 4.45ZM 7.79898 4.45C 7.79898 7.037 8.65698 9.13 10.984 9.13C 13.311 9.13 14.169 7.037 14.169 4.45C 14.169 1.863 13.311 -0.23 10.984 -0.23C 8.65698 -0.23 7.79898 1.863 7.79898 4.45ZM 15.5939 2.864L 17.2839 1.928L 17.2839 9L 19.0389 9L 19.0389 -0.0999998L 17.8039 -0.0999998L 15.5939 1.2L 15.5939 2.864ZM 24.3014 3.215C 23.7554 3.215 23.3914 2.799 23.3914 2.279C 23.3914 1.759 23.7554 1.33 24.3014 1.33C 24.8474 1.33 25.2114 1.759 25.2114 2.279C 25.2114 2.799 24.8474 3.215 24.3014 3.215ZM 24.3014 7.57C 23.4434 7.57 22.8064 6.959 22.8064 6.179C 22.8064 5.399 23.4434 4.775 24.3014 4.775C 25.1594 4.775 25.7964 5.399 25.7964 6.179C 25.7964 6.959 25.1594 7.57 24.3014 7.57ZM 24.3014 9.13C 26.1214 9.13 27.5514 7.83 27.5514 6.179C 27.5514 5.113 26.9924 4.372 26.2384 3.878C 26.6284 3.527 26.9664 3.02 26.9664 2.279C 26.9664 0.888 25.8354 -0.23 24.3014 -0.23C 22.7674 -0.23 21.6364 0.888 21.6364 2.279C 21.6364 3.02 21.9744 3.527 22.3644 3.878C 21.6104 4.372 21.0514 5.113 21.0514 6.179C 21.0514 7.83 22.4814 9.13 24.3014 9.13ZM 32.0902 4.45C 32.0902 7.037 34.0272 9.13 36.8352 9.13C 37.8752 9.13 38.7852 8.844 39.5392 8.35L 40.1112 9L 42.1002 9L 40.6182 7.349C 41.2292 6.556 41.5802 5.542 41.5802 4.45C 41.5802 1.863 39.6432 -0.23 36.8352 -0.23C 34.0272 -0.23 32.0902 1.863 32.0902 4.45ZM 33.8452 4.45C 33.8452 2.734 35.1192 1.33 36.8352 1.33C 38.5512 1.33 39.8252 2.734 39.8252 4.45C 39.8252 5.022 39.6822 5.555 39.4352 6.01L 37.5632 3.904L 36.4582 4.866L 38.4342 7.102C 37.9792 7.401 37.4332 7.57 36.8352 7.57C 35.1192 7.57 33.8452 6.166 33.8452 4.45ZM 42.8127 2.864L 44.5027 1.928L 44.5027 9L 46.2577 9L 46.2577 -0.0999998L 45.0227 -0.0999998L 42.8127 1.2L 42.8127 2.864Z"/>
<path id="path2_fill" d="M 2.197 2.357C 2.379 1.746 2.821 1.33 3.432 1.33C 4.121 1.33 4.615 1.915 4.615 2.552C 4.615 3.02 4.42 3.54 3.718 4.333L 0.52 7.96L 0.52 9L 6.435 9L 6.435 7.44L 3.263 7.44L 5.2 5.191C 5.811 4.489 6.37 3.683 6.37 2.578C 6.37 0.94 5.018 -0.23 3.458 -0.23C 2.119 -0.23 0.975 0.628 0.585 1.876L 2.197 2.357ZM 12.414 4.45C 12.414 6.166 12.037 7.57 10.984 7.57C 9.93098 7.57 9.55398 6.166 9.55398 4.45C 9.55398 2.734 9.93098 1.33 10.984 1.33C 12.037 1.33 12.414 2.734 12.414 4.45ZM 7.79898 4.45C 7.79898 7.037 8.65698 9.13 10.984 9.13C 13.311 9.13 14.169 7.037 14.169 4.45C 14.169 1.863 13.311 -0.23 10.984 -0.23C 8.65698 -0.23 7.79898 1.863 7.79898 4.45ZM 15.5939 2.864L 17.2839 1.928L 17.2839 9L 19.0389 9L 19.0389 -0.0999998L 17.8039 -0.0999998L 15.5939 1.2L 15.5939 2.864ZM 24.3014 3.215C 23.7554 3.215 23.3914 2.799 23.3914 2.279C 23.3914 1.759 23.7554 1.33 24.3014 1.33C 24.8474 1.33 25.2114 1.759 25.2114 2.279C 25.2114 2.799 24.8474 3.215 24.3014 3.215ZM 24.3014 7.57C 23.4434 7.57 22.8064 6.959 22.8064 6.179C 22.8064 5.399 23.4434 4.775 24.3014 4.775C 25.1594 4.775 25.7964 5.399 25.7964 6.179C 25.7964 6.959 25.1594 7.57 24.3014 7.57ZM 24.3014 9.13C 26.1214 9.13 27.5514 7.83 27.5514 6.179C 27.5514 5.113 26.9924 4.372 26.2384 3.878C 26.6284 3.527 26.9664 3.02 26.9664 2.279C 26.9664 0.888 25.8354 -0.23 24.3014 -0.23C 22.7674 -0.23 21.6364 0.888 21.6364 2.279C 21.6364 3.02 21.9744 3.527 22.3644 3.878C 21.6104 4.372 21.0514 5.113 21.0514 6.179C 21.0514 7.83 22.4814 9.13 24.3014 9.13ZM 32.0902 4.45C 32.0902 7.037 34.0272 9.13 36.8352 9.13C 37.8752 9.13 38.7852 8.844 39.5392 8.35L 40.1112 9L 42.1002 9L 40.6182 7.349C 41.2292 6.556 41.5802 5.542 41.5802 4.45C 41.5802 1.863 39.6432 -0.23 36.8352 -0.23C 34.0272 -0.23 32.0902 1.863 32.0902 4.45ZM 33.8452 4.45C 33.8452 2.734 35.1192 1.33 36.8352 1.33C 38.5512 1.33 39.8252 2.734 39.8252 4.45C 39.8252 5.022 39.6822 5.555 39.4352 6.01L 37.5632 3.904L 36.4582 4.866L 38.4342 7.102C 37.9792 7.401 37.4332 7.57 36.8352 7.57C 35.1192 7.57 33.8452 6.166 33.8452 4.45ZM 44.2947 2.357C 44.4767 1.746 44.9187 1.33 45.5297 1.33C 46.2187 1.33 46.7127 1.915 46.7127 2.552C 46.7127 3.02 46.5177 3.54 45.8157 4.333L 42.6177 7.96L 42.6177 9L 48.5327 9L 48.5327 7.44L 45.3607 7.44L 47.2977 5.191C 47.9087 4.489 48.4677 3.683 48.4677 2.578C 48.4677 0.94 47.1157 -0.23 45.5557 -0.23C 44.2167 -0.23 43.0727 0.628 42.6827 1.876L 44.2947 2.357Z"/>
<path id="path3_fill" d="M 2.197 2.357C 2.379 1.746 2.821 1.33 3.432 1.33C 4.121 1.33 4.615 1.915 4.615 2.552C 4.615 3.02 4.42 3.54 3.718 4.333L 0.52 7.96L 0.52 9L 6.435 9L 6.435 7.44L 3.263 7.44L 5.2 5.191C 5.811 4.489 6.37 3.683 6.37 2.578C 6.37 0.94 5.018 -0.23 3.458 -0.23C 2.119 -0.23 0.975 0.628 0.585 1.876L 2.197 2.357ZM 12.414 4.45C 12.414 6.166 12.037 7.57 10.984 7.57C 9.93098 7.57 9.55398 6.166 9.55398 4.45C 9.55398 2.734 9.93098 1.33 10.984 1.33C 12.037 1.33 12.414 2.734 12.414 4.45ZM 7.79898 4.45C 7.79898 7.037 8.65698 9.13 10.984 9.13C 13.311 9.13 14.169 7.037 14.169 4.45C 14.169 1.863 13.311 -0.23 10.984 -0.23C 8.65698 -0.23 7.79898 1.863 7.79898 4.45ZM 15.5939 2.864L 17.2839 1.928L 17.2839 9L 19.0389 9L 19.0389 -0.0999998L 17.8039 -0.0999998L 15.5939 1.2L 15.5939 2.864ZM 24.3014 3.215C 23.7554 3.215 23.3914 2.799 23.3914 2.279C 23.3914 1.759 23.7554 1.33 24.3014 1.33C 24.8474 1.33 25.2114 1.759 25.2114 2.279C 25.2114 2.799 24.8474 3.215 24.3014 3.215ZM 24.3014 7.57C 23.4434 7.57 22.8064 6.959 22.8064 6.179C 22.8064 5.399 23.4434 4.775 24.3014 4.775C 25.1594 4.775 25.7964 5.399 25.7964 6.179C 25.7964 6.959 25.1594 7.57 24.3014 7.57ZM 24.3014 9.13C 26.1214 9.13 27.5514 7.83 27.5514 6.179C 27.5514 5.113 26.9924 4.372 26.2384 3.878C 26.6284 3.527 26.9664 3.02 26.9664 2.279C 26.9664 0.888 25.8354 -0.23 24.3014 -0.23C 22.7674 -0.23 21.6364 0.888 21.6364 2.279C 21.6364 3.02 21.9744 3.527 22.3644 3.878C 21.6104 4.372 21.0514 5.113 21.0514 6.179C 21.0514 7.83 22.4814 9.13 24.3014 9.13ZM 32.0902 4.45C 32.0902 7.037 34.0272 9.13 36.8352 9.13C 37.8752 9.13 38.7852 8.844 39.5392 8.35L 40.1112 9L 42.1002 9L 40.6182 7.349C 41.2292 6.556 41.5802 5.542 41.5802 4.45C 41.5802 1.863 39.6432 -0.23 36.8352 -0.23C 34.0272 -0.23 32.0902 1.863 32.0902 4.45ZM 33.8452 4.45C 33.8452 2.734 35.1192 1.33 36.8352 1.33C 38.5512 1.33 39.8252 2.734 39.8252 4.45C 39.8252 5.022 39.6822 5.555 39.4352 6.01L 37.5632 3.904L 36.4582 4.866L 38.4342 7.102C 37.9792 7.401 37.4332 7.57 36.8352 7.57C 35.1192 7.57 33.8452 6.166 33.8452 4.45ZM 42.4227 7.713C 43.2287 8.623 44.3077 9.13 45.4387 9.13C 47.3237 9.13 48.8317 7.843 48.8317 5.919C 48.8317 4.541 47.9737 3.449 46.7257 2.968L 48.3767 0.94L 48.3767 -0.0999998L 42.8517 -0.0999998L 42.8517 1.46L 45.8937 1.46L 44.1907 3.475L 44.1907 4.515C 44.5287 4.346 44.9187 4.255 45.2827 4.255C 46.2967 4.255 47.0767 4.97 47.0767 5.919C 47.0767 6.894 46.2317 7.57 45.3737 7.57C 44.6847 7.57 44.0607 7.193 43.6837 6.66L 42.4227 7.713Z"/>
<path id="path4_fill" d="M 2.197 2.357C 2.379 1.746 2.821 1.33 3.432 1.33C 4.121 1.33 4.615 1.915 4.615 2.552C 4.615 3.02 4.42 3.54 3.718 4.333L 0.52 7.96L 0.52 9L 6.435 9L 6.435 7.44L 3.263 7.44L 5.2 5.191C 5.811 4.489 6.37 3.683 6.37 2.578C 6.37 0.94 5.018 -0.23 3.458 -0.23C 2.119 -0.23 0.975 0.628 0.585 1.876L 2.197 2.357ZM 12.414 4.45C 12.414 6.166 12.037 7.57 10.984 7.57C 9.93098 7.57 9.55398 6.166 9.55398 4.45C 9.55398 2.734 9.93098 1.33 10.984 1.33C 12.037 1.33 12.414 2.734 12.414 4.45ZM 7.79898 4.45C 7.79898 7.037 8.65698 9.13 10.984 9.13C 13.311 9.13 14.169 7.037 14.169 4.45C 14.169 1.863 13.311 -0.23 10.984 -0.23C 8.65698 -0.23 7.79898 1.863 7.79898 4.45ZM 15.5939 2.864L 17.2839 1.928L 17.2839 9L 19.0389 9L 19.0389 -0.0999998L 17.8039 -0.0999998L 15.5939 1.2L 15.5939 2.864ZM 24.3014 3.215C 23.7554 3.215 23.3914 2.799 23.3914 2.279C 23.3914 1.759 23.7554 1.33 24.3014 1.33C 24.8474 1.33 25.2114 1.759 25.2114 2.279C 25.2114 2.799 24.8474 3.215 24.3014 3.215ZM 24.3014 7.57C 23.4434 7.57 22.8064 6.959 22.8064 6.179C 22.8064 5.399 23.4434 4.775 24.3014 4.775C 25.1594 4.775 25.7964 5.399 25.7964 6.179C 25.7964 6.959 25.1594 7.57 24.3014 7.57ZM 24.3014 9.13C 26.1214 9.13 27.5514 7.83 27.5514 6.179C 27.5514 5.113 26.9924 4.372 26.2384 3.878C 26.6284 3.527 26.9664 3.02 26.9664 2.279C 26.9664 0.888 25.8354 -0.23 24.3014 -0.23C 22.7674 -0.23 21.6364 0.888 21.6364 2.279C 21.6364 3.02 21.9744 3.527 22.3644 3.878C 21.6104 4.372 21.0514 5.113 21.0514 6.179C 21.0514 7.83 22.4814 9.13 24.3014 9.13ZM 32.0902 4.45C 32.0902 7.037 34.0272 9.13 36.8352 9.13C 37.8752 9.13 38.7852 8.844 39.5392 8.35L 40.1112 9L 42.1002 9L 40.6182 7.349C 41.2292 6.556 41.5802 5.542 41.5802 4.45C 41.5802 1.863 39.6432 -0.23 36.8352 -0.23C 34.0272 -0.23 32.0902 1.863 32.0902 4.45ZM 33.8452 4.45C 33.8452 2.734 35.1192 1.33 36.8352 1.33C 38.5512 1.33 39.8252 2.734 39.8252 4.45C 39.8252 5.022 39.6822 5.555 39.4352 6.01L 37.5632 3.904L 36.4582 4.866L 38.4342 7.102C 37.9792 7.401 37.4332 7.57 36.8352 7.57C 35.1192 7.57 33.8452 6.166 33.8452 4.45ZM 47.1027 -0.0999998L 42.3577 5.88L 42.3577 6.92L 46.5827 6.92L 46.5827 9L 48.3377 9L 48.3377 6.92L 49.8327 6.92L 49.8327 5.36L 48.3377 5.36L 48.3377 -0.0999998L 47.1027 -0.0999998ZM 44.8797 5.36L 46.5827 3.228L 46.5827 5.36L 44.8797 5.36Z"/>
<path id="path5_fill" d="M 3.63 11L 5.055 11L 7.38 4.355L 9.72 11L 11.145 11L 14.625 0.5L 12.585 0.5L 10.41 7.055L 8.1 0.5L 6.675 0.5L 4.365 7.055L 2.19 0.5L 0.15 0.5L 3.63 11ZM 20.9303 8.45C 20.5553 8.99 19.9103 9.35 19.1753 9.35C 18.0803 9.35 17.2553 8.51 17.2553 7.37C 17.2553 6.32 17.9903 5.375 19.1303 5.375C 19.8803 5.375 20.5253 5.735 20.9303 6.275L 20.9303 8.45ZM 22.8803 3.725L 21.0053 3.725L 21.0053 4.31C 20.4353 3.845 19.7003 3.575 18.8753 3.575C 16.8953 3.575 15.3053 5.225 15.3053 7.37C 15.3053 8.36 15.6653 9.26 16.2353 9.92C 16.8803 10.67 17.9003 11.15 18.9803 11.15C 19.7153 11.15 20.4053 10.925 21.0053 10.415L 21.0053 11L 22.8803 11L 22.8803 3.725ZM 27.0838 0.35L 25.1338 0.35L 25.1338 11L 27.0838 11L 27.0838 0.35ZM 31.2879 0.35L 29.3379 0.35L 29.3379 11L 31.2879 11L 31.2879 0.35ZM 38.627 8.735C 38.282 9.11 37.622 9.575 36.797 9.575C 35.762 9.575 34.937 8.87 34.832 7.85L 39.872 7.85C 39.902 7.685 39.917 7.49 39.917 7.295C 39.917 5.27 38.492 3.575 36.482 3.575C 34.322 3.575 32.942 5.345 32.942 7.37C 32.942 9.65 34.577 11.15 36.752 11.15C 37.877 11.15 39.032 10.685 39.737 9.845L 38.627 8.735ZM 34.922 6.425C 35.012 5.765 35.672 5.15 36.482 5.15C 37.277 5.15 37.862 5.78 37.922 6.425L 34.922 6.425ZM 46.7443 9.35C 46.6093 9.38 46.2343 9.425 45.9493 9.425C 45.4693 9.425 45.1543 9.29 44.9593 9.065C 44.7943 8.87 44.7193 8.6 44.7193 8.15L 44.7193 5.375L 47.1193 5.375L 47.1193 3.725L 44.7193 3.725L 44.7193 1.7L 42.7693 1.7L 42.7693 3.725L 40.7443 3.725L 40.7443 5.375L 42.7693 5.375L 42.7693 7.925C 42.7693 8.96 42.9343 9.605 43.3093 10.1C 43.8043 10.76 44.6593 11.15 45.8293 11.15C 46.2043 11.15 46.7893 11.09 47.0443 11L 46.7443 9.35ZM 7.5 24.3L 7.5 22.5L 1.2 22.5L 1.2 33L 7.65 33L 7.65 31.2L 3.225 31.2L 3.225 28.275L 6.45 28.275L 6.45 26.475L 3.225 26.475L 3.225 24.3L 7.5 24.3ZM 11.3221 33L 11.3221 28.275C 11.5921 27.9 12.2671 27.375 13.0921 27.375C 13.5421 27.375 13.9321 27.525 14.1871 27.78C 14.4571 28.05 14.6221 28.425 14.6221 29.145L 14.6221 33L 16.5721 33L 16.5721 29.295C 16.5721 28.05 16.3021 27.315 15.8221 26.745C 15.2221 26.025 14.3071 25.575 13.3021 25.575C 12.4921 25.575 11.8021 25.86 11.2471 26.31L 11.2471 25.725L 9.37207 25.725L 9.37207 33L 11.3221 33ZM 23.7738 30.39C 23.4588 30.87 22.8288 31.35 22.0338 31.35C 20.8488 31.35 20.0238 30.51 20.0238 29.37C 20.0238 28.26 20.8638 27.375 21.9888 27.375C 22.6938 27.375 23.2788 27.735 23.6688 28.245L 25.0488 27.03C 24.3738 26.16 23.2488 25.575 21.9888 25.575C 19.7688 25.575 18.0738 27.255 18.0738 29.37C 18.0738 31.47 19.7238 33.15 21.9738 33.15C 23.3388 33.15 24.4188 32.655 25.2738 31.515L 23.7738 30.39ZM 31.4244 25.635C 31.2144 25.605 31.0494 25.575 30.7644 25.575C 29.8794 25.575 29.0844 25.92 28.6494 26.46L 28.6494 25.725L 26.7744 25.725L 26.7744 33L 28.7244 33L 28.7244 28.425C 28.9644 27.99 29.6394 27.375 30.4944 27.375C 30.7794 27.375 31.0644 27.405 31.1994 27.45L 31.4244 25.635ZM 35.2368 36.6L 40.2468 25.725L 38.1918 25.725L 36.2268 30.09L 34.0968 25.725L 31.9518 25.725L 35.2068 32.265L 33.1968 36.6L 35.2368 36.6ZM 41.5254 36.6L 43.4754 36.6L 43.4754 32.49C 44.0604 32.94 44.6904 33.15 45.4254 33.15C 46.5054 33.15 47.5404 32.67 48.1854 31.92C 48.7554 31.26 49.1004 30.36 49.1004 29.37C 49.1004 27.225 47.5104 25.575 45.5304 25.575C 44.7054 25.575 43.9704 25.845 43.4004 26.31L 43.4004 25.725L 41.5254 25.725L 41.5254 36.6ZM 43.4754 28.275C 43.8804 27.735 44.5254 27.375 45.2754 27.375C 46.4154 27.375 47.1504 28.32 47.1504 29.37C 47.1504 30.51 46.3254 31.35 45.2304 31.35C 44.4954 31.35 43.8504 30.99 43.4754 30.45L 43.4754 28.275ZM 55.9289 31.35C 55.7939 31.38 55.4189 31.425 55.1339 31.425C 54.6539 31.425 54.3389 31.29 54.1439 31.065C 53.9789 30.87 53.9039 30.6 53.9039 30.15L 53.9039 27.375L 56.3039 27.375L 56.3039 25.725L 53.9039 25.725L 53.9039 23.7L 51.9539 23.7L 51.9539 25.725L 49.9289 25.725L 49.9289 27.375L 51.9539 27.375L 51.9539 29.925C 51.9539 30.96 52.1189 31.605 52.4939 32.1C 52.9889 32.76 53.8439 33.15 55.0139 33.15C 55.3889 33.15 55.9739 33.09 56.2289 33L 55.9289 31.35ZM 60.1307 25.725L 58.1807 25.725L 58.1807 33L 60.1307 33L 60.1307 25.725ZM 57.8807 23.145C 57.8807 23.85 58.4507 24.39 59.1557 24.39C 59.8607 24.39 60.4307 23.85 60.4307 23.145C 60.4307 22.44 59.8607 21.9 59.1557 21.9C 58.4507 21.9 57.8807 22.44 57.8807 23.145ZM 61.7848 29.37C 61.7848 31.47 63.4498 33.15 65.6548 33.15C 67.8598 33.15 69.5248 31.47 69.5248 29.37C 69.5248 27.27 67.8598 25.575 65.6548 25.575C 63.4498 25.575 61.7848 27.27 61.7848 29.37ZM 63.7348 29.37C 63.7348 28.275 64.5148 27.375 65.6548 27.375C 66.7948 27.375 67.5748 28.275 67.5748 29.37C 67.5748 30.465 66.7948 31.35 65.6548 31.35C 64.5148 31.35 63.7348 30.465 63.7348 29.37ZM 73.1238 33L 73.1238 28.275C 73.3938 27.9 74.0688 27.375 74.8938 27.375C 75.3438 27.375 75.7338 27.525 75.9888 27.78C 76.2588 28.05 76.4238 28.425 76.4238 29.145L 76.4238 33L 78.3738 33L 78.3738 29.295C 78.3738 28.05 78.1038 27.315 77.6238 26.745C 77.0238 26.025 76.1088 25.575 75.1038 25.575C 74.2938 25.575 73.6038 25.86 73.0488 26.31L 73.0488 25.725L 71.1738 25.725L 71.1738 33L 73.1238 33Z"/>
<path id="path6_fill" d="M 0.15 9.575C 1.23 10.565 2.535 11.15 3.945 11.15C 5.835 11.15 7.5 9.86 7.5 8C 7.5 4.46 2.655 4.985 2.655 3.29C 2.655 2.48 3.51 2.15 4.275 2.15C 4.965 2.15 5.67 2.45 6.09 2.84L 7.14 1.34C 6.15 0.605 5.16 0.35 4.095 0.35C 2.355 0.35 0.63 1.43 0.63 3.305C 0.63 4.49 1.29 5.21 2.115 5.69C 3.525 6.515 5.475 6.68 5.475 8.03C 5.475 8.795 4.845 9.35 3.945 9.35C 2.985 9.35 2.07 8.855 1.47 8.195L 0.15 9.575ZM 16.3523 3.725L 13.6073 3.725L 11.1023 6.08L 11.1023 0.35L 9.15234 0.35L 9.15234 11L 11.1023 11L 11.1023 7.85L 14.1773 11L 16.8023 11L 12.7973 6.995L 16.3523 3.725ZM 20.3832 14.6L 25.3932 3.725L 23.3382 3.725L 21.3732 8.09L 19.2432 3.725L 17.0982 3.725L 20.3532 10.265L 18.3432 14.6L 20.3832 14.6ZM 28.6219 0.35L 26.6719 0.35L 26.6719 11L 28.6219 11L 28.6219 0.35ZM 35.961 8.735C 35.616 9.11 34.956 9.575 34.131 9.575C 33.096 9.575 32.271 8.87 32.166 7.85L 37.206 7.85C 37.236 7.685 37.251 7.49 37.251 7.295C 37.251 5.27 35.826 3.575 33.816 3.575C 31.656 3.575 30.276 5.345 30.276 7.37C 30.276 9.65 31.911 11.15 34.086 11.15C 35.211 11.15 36.366 10.685 37.071 9.845L 35.961 8.735ZM 32.256 6.425C 32.346 5.765 33.006 5.15 33.816 5.15C 34.611 5.15 35.196 5.78 35.256 6.425L 32.256 6.425ZM 43.9283 8.45C 43.5533 8.99 42.9083 9.35 42.1733 9.35C 41.0783 9.35 40.2533 8.51 40.2533 7.37C 40.2533 6.32 40.9883 5.375 42.1283 5.375C 42.8783 5.375 43.5233 5.735 43.9283 6.275L 43.9283 8.45ZM 45.8783 11L 45.8783 0.35L 43.9283 0.35L 43.9283 4.25C 43.3583 3.8 42.6683 3.575 41.8733 3.575C 39.8933 3.575 38.3033 5.225 38.3033 7.37C 38.3033 8.36 38.6633 9.26 39.2333 9.92C 39.8783 10.67 40.8983 11.15 41.9783 11.15C 42.7133 11.15 43.4033 10.925 44.0033 10.415L 44.0033 11L 45.8783 11ZM 55.1068 3.725L 53.2318 3.725L 53.2318 4.31C 52.6618 3.845 51.9268 3.575 51.1018 3.575C 49.1218 3.575 47.5318 5.225 47.5318 7.37C 47.5318 8.36 47.8768 9.26 48.4468 9.92C 49.0918 10.67 50.1268 11.15 51.2068 11.15C 51.9418 11.15 52.5718 10.94 53.1568 10.49L 53.1568 10.73C 53.1568 11.66 53.0068 12.11 52.7068 12.44C 52.3768 12.83 51.8518 13.025 51.2218 13.025C 50.0218 13.025 49.3468 12.395 48.9568 11.975L 47.7268 13.25C 48.4468 14.09 49.7968 14.75 51.2218 14.75C 52.6168 14.75 53.7868 14.21 54.4468 13.295C 54.8818 12.68 55.1068 11.9 55.1068 10.595L 55.1068 3.725ZM 53.1568 8.45C 52.7818 8.99 52.1368 9.35 51.4018 9.35C 50.3068 9.35 49.4818 8.51 49.4818 7.37C 49.4818 6.32 50.2168 5.375 51.3568 5.375C 52.1068 5.375 52.7518 5.735 53.1568 6.275L 53.1568 8.45ZM 62.4454 8.735C 62.1004 9.11 61.4404 9.575 60.6154 9.575C 59.5804 9.575 58.7554 8.87 58.6504 7.85L 63.6904 7.85C 63.7204 7.685 63.7354 7.49 63.7354 7.295C 63.7354 5.27 62.3104 3.575 60.3004 3.575C 58.1404 3.575 56.7604 5.345 56.7604 7.37C 56.7604 9.65 58.3954 11.15 60.5704 11.15C 61.6954 11.15 62.8504 10.685 63.5554 9.845L 62.4454 8.735ZM 58.7404 6.425C 58.8304 5.765 59.4904 5.15 60.3004 5.15C 61.0954 5.15 61.6804 5.78 61.7404 6.425L 58.7404 6.425ZM 70.0377 3.635C 69.8277 3.605 69.6627 3.575 69.3777 3.575C 68.4927 3.575 67.6977 3.92 67.2627 4.46L 67.2627 3.725L 65.3877 3.725L 65.3877 11L 67.3377 11L 67.3377 6.425C 67.5777 5.99 68.2527 5.375 69.1077 5.375C 69.3927 5.375 69.6777 5.405 69.8127 5.45L 70.0377 3.635ZM 0.405 32.175C 1.26 32.805 2.325 33.15 3.33 33.15C 4.86 33.15 6.225 32.295 6.225 30.9C 6.225 28.38 2.7 28.755 2.7 27.81C 2.7 27.435 3.15 27.225 3.69 27.225C 4.215 27.225 4.71 27.45 5.085 27.72L 6 26.31C 5.52 25.935 4.485 25.575 3.54 25.575C 2.1 25.575 0.75 26.445 0.75 27.84C 0.75 30.18 4.275 29.79 4.275 30.885C 4.275 31.245 3.87 31.5 3.345 31.5C 2.61 31.5 1.845 31.23 1.35 30.78L 0.405 32.175ZM 12.9744 25.725L 12.9744 30.45C 12.7044 30.795 12.1044 31.35 11.2794 31.35C 10.9044 31.35 10.4844 31.23 10.1844 30.9C 9.95941 30.645 9.82441 30.315 9.82441 29.655L 9.82441 25.725L 7.87441 25.725L 7.87441 29.58C 7.87441 30.66 8.14441 31.41 8.60941 31.98C 9.17941 32.685 10.0794 33.15 11.0844 33.15C 11.7894 33.15 12.4794 32.925 13.0494 32.415L 13.0494 33L 14.9244 33L 14.9244 25.725L 12.9744 25.725ZM 17.1797 36.6L 19.1297 36.6L 19.1297 32.49C 19.7147 32.94 20.3447 33.15 21.0797 33.15C 22.1597 33.15 23.1947 32.67 23.8397 31.92C 24.4097 31.26 24.7547 30.36 24.7547 29.37C 24.7547 27.225 23.1647 25.575 21.1847 25.575C 20.3597 25.575 19.6247 25.845 19.0547 26.31L 19.0547 25.725L 17.1797 25.725L 17.1797 36.6ZM 19.1297 28.275C 19.5347 27.735 20.1797 27.375 20.9297 27.375C 22.0697 27.375 22.8047 28.32 22.8047 29.37C 22.8047 30.51 21.9797 31.35 20.8847 31.35C 20.1497 31.35 19.5047 30.99 19.1297 30.45L 19.1297 28.275ZM 26.4082 36.6L 28.3582 36.6L 28.3582 32.49C 28.9432 32.94 29.5732 33.15 30.3082 33.15C 31.3882 33.15 32.4232 32.67 33.0682 31.92C 33.6382 31.26 33.9832 30.36 33.9832 29.37C 33.9832 27.225 32.3932 25.575 30.4132 25.575C 29.5882 25.575 28.8532 25.845 28.2832 26.31L 28.2832 25.725L 26.4082 25.725L 26.4082 36.6ZM 28.3582 28.275C 28.7632 27.735 29.4082 27.375 30.1582 27.375C 31.2982 27.375 32.0332 28.32 32.0332 29.37C 32.0332 30.51 31.2082 31.35 30.1132 31.35C 29.3782 31.35 28.7332 30.99 28.3582 30.45L 28.3582 28.275ZM 35.0367 29.37C 35.0367 31.47 36.7017 33.15 38.9067 33.15C 41.1117 33.15 42.7767 31.47 42.7767 29.37C 42.7767 27.27 41.1117 25.575 38.9067 25.575C 36.7017 25.575 35.0367 27.27 35.0367 29.37ZM 36.9867 29.37C 36.9867 28.275 37.7667 27.375 38.9067 27.375C 40.0467 27.375 40.8267 28.275 40.8267 29.37C 40.8267 30.465 40.0467 31.35 38.9067 31.35C 37.7667 31.35 36.9867 30.465 36.9867 29.37ZM 49.0758 25.635C 48.8658 25.605 48.7008 25.575 48.4158 25.575C 47.5308 25.575 46.7358 25.92 46.3008 26.46L 46.3008 25.725L 44.4258 25.725L 44.4258 33L 46.3758 33L 46.3758 28.425C 46.6158 27.99 47.2908 27.375 48.1458 27.375C 48.4308 27.375 48.7158 27.405 48.8508 27.45L 49.0758 25.635ZM 55.7531 31.35C 55.6181 31.38 55.2431 31.425 54.9581 31.425C 54.4781 31.425 54.1631 31.29 53.9681 31.065C 53.8031 30.87 53.7281 30.6 53.7281 30.15L 53.7281 27.375L 56.1281 27.375L 56.1281 25.725L 53.7281 25.725L 53.7281 23.7L 51.7781 23.7L 51.7781 25.725L 49.7531 25.725L 49.7531 27.375L 51.7781 27.375L 51.7781 29.925C 51.7781 30.96 51.9431 31.605 52.3181 32.1C 52.8131 32.76 53.6681 33.15 54.8381 33.15C 55.2131 33.15 55.7981 33.09 56.0531 33L 55.7531 31.35ZM 67.0729 30.45C 66.6979 30.99 66.0529 31.35 65.3179 31.35C 64.2229 31.35 63.3979 30.51 63.3979 29.37C 63.3979 28.32 64.1329 27.375 65.2729 27.375C 66.0229 27.375 66.6679 27.735 67.0729 28.275L 67.0729 30.45ZM 69.0229 33L 69.0229 22.35L 67.0729 22.35L 67.0729 26.25C 66.5029 25.8 65.8129 25.575 65.0179 25.575C 63.0379 25.575 61.4479 27.225 61.4479 29.37C 61.4479 30.36 61.8079 31.26 62.3779 31.92C 63.0229 32.67 64.0429 33.15 65.1229 33.15C 65.8579 33.15 66.5479 32.925 67.1479 32.415L 67.1479 33L 69.0229 33ZM 76.3614 30.735C 76.0164 31.11 75.3564 31.575 74.5314 31.575C 73.4964 31.575 72.6714 30.87 72.5664 29.85L 77.6064 29.85C 77.6364 29.685 77.6514 29.49 77.6514 29.295C 77.6514 27.27 76.2264 25.575 74.2164 25.575C 72.0564 25.575 70.6764 27.345 70.6764 29.37C 70.6764 31.65 72.3114 33.15 74.4864 33.15C 75.6114 33.15 76.7664 32.685 77.4714 31.845L 76.3614 30.735ZM 72.6564 28.425C 72.7464 27.765 73.4064 27.15 74.2164 27.15C 75.0114 27.15 75.5964 27.78 75.6564 28.425L 72.6564 28.425ZM 78.5837 32.175C 79.4387 32.805 80.5037 33.15 81.5087 33.15C 83.0387 33.15 84.4037 32.295 84.4037 30.9C 84.4037 28.38 80.8787 28.755 80.8787 27.81C 80.8787 27.435 81.3287 27.225 81.8687 27.225C 82.3937 27.225 82.8887 27.45 83.2637 27.72L 84.1787 26.31C 83.6987 25.935 82.6637 25.575 81.7187 25.575C 80.2787 25.575 78.9287 26.445 78.9287 27.84C 78.9287 30.18 82.4537 29.79 82.4537 30.885C 82.4537 31.245 82.0487 31.5 81.5237 31.5C 80.7887 31.5 80.0237 31.23 79.5287 30.78L 78.5837 32.175ZM 93.4031 25.725L 90.6581 25.725L 88.1531 28.08L 88.1531 22.35L 86.2031 22.35L 86.2031 33L 88.1531 33L 88.1531 29.85L 91.2281 33L 93.8531 33L 89.8481 28.995L 93.4031 25.725Z"/>
<path id="path7_fill" d="M 1.2 11L 3.225 11L 3.225 4.16L 9.075 11L 10.5 11L 10.5 0.5L 8.475 0.5L 8.475 7.34L 2.625 0.5L 1.2 0.5L 1.2 11ZM 17.9141 8.735C 17.5691 9.11 16.9091 9.575 16.0841 9.575C 15.0491 9.575 14.2241 8.87 14.1191 7.85L 19.1591 7.85C 19.1891 7.685 19.2041 7.49 19.2041 7.295C 19.2041 5.27 17.7791 3.575 15.7691 3.575C 13.6091 3.575 12.2291 5.345 12.2291 7.37C 12.2291 9.65 13.8641 11.15 16.0391 11.15C 17.1641 11.15 18.3191 10.685 19.0241 9.845L 17.9141 8.735ZM 14.2091 6.425C 14.2991 5.765 14.9591 5.15 15.7691 5.15C 16.5641 5.15 17.1491 5.78 17.2091 6.425L 14.2091 6.425ZM 26.1214 6.77L 27.9514 11L 29.3014 11L 32.3614 3.725L 30.3964 3.725L 28.6114 7.97L 26.7964 3.725L 25.4464 3.725L 23.6164 7.97L 21.8464 3.725L 19.8814 3.725L 22.9414 11L 24.2914 11L 26.1214 6.77ZM 3.63 33L 5.055 33L 7.38 26.355L 9.72 33L 11.145 33L 14.625 22.5L 12.585 22.5L 10.41 29.055L 8.1 22.5L 6.675 22.5L 4.365 29.055L 2.19 22.5L 0.15 22.5L 3.63 33ZM 20.9903 30.735C 20.6453 31.11 19.9853 31.575 19.1603 31.575C 18.1253 31.575 17.3003 30.87 17.1953 29.85L 22.2353 29.85C 22.2653 29.685 22.2803 29.49 22.2803 29.295C 22.2803 27.27 20.8553 25.575 18.8453 25.575C 16.6853 25.575 15.3053 27.345 15.3053 29.37C 15.3053 31.65 16.9403 33.15 19.1153 33.15C 20.2403 33.15 21.3953 32.685 22.1003 31.845L 20.9903 30.735ZM 17.2853 28.425C 17.3753 27.765 18.0353 27.15 18.8453 27.15C 19.6403 27.15 20.2253 27.78 20.2853 28.425L 17.2853 28.425ZM 25.8826 28.275C 26.2876 27.735 26.9326 27.375 27.6826 27.375C 28.8226 27.375 29.5576 28.32 29.5576 29.37C 29.5576 30.51 28.7326 31.35 27.6376 31.35C 26.9026 31.35 26.2576 30.99 25.8826 30.45L 25.8826 28.275ZM 25.8076 33L 25.8076 32.415C 26.4076 32.925 27.0976 33.15 27.8326 33.15C 28.9126 33.15 29.9326 32.67 30.5776 31.92C 31.1476 31.26 31.5076 30.36 31.5076 29.37C 31.5076 27.225 29.9176 25.575 27.9376 25.575C 27.1426 25.575 26.4526 25.8 25.8826 26.25L 25.8826 22.35L 23.9326 22.35L 23.9326 33L 25.8076 33ZM 32.4411 32.175C 33.2961 32.805 34.3611 33.15 35.3661 33.15C 36.8961 33.15 38.2611 32.295 38.2611 30.9C 38.2611 28.38 34.7361 28.755 34.7361 27.81C 34.7361 27.435 35.1861 27.225 35.7261 27.225C 36.2511 27.225 36.7461 27.45 37.1211 27.72L 38.0361 26.31C 37.5561 25.935 36.5211 25.575 35.5761 25.575C 34.1361 25.575 32.7861 26.445 32.7861 27.84C 32.7861 30.18 36.3111 29.79 36.3111 30.885C 36.3111 31.245 35.9061 31.5 35.3811 31.5C 34.6461 31.5 33.8811 31.23 33.3861 30.78L 32.4411 32.175ZM 42.0105 25.725L 40.0605 25.725L 40.0605 33L 42.0105 33L 42.0105 25.725ZM 39.7605 23.145C 39.7605 23.85 40.3305 24.39 41.0355 24.39C 41.7405 24.39 42.3105 23.85 42.3105 23.145C 42.3105 22.44 41.7405 21.9 41.0355 21.9C 40.3305 21.9 39.7605 22.44 39.7605 23.145ZM 49.4396 31.35C 49.3046 31.38 48.9296 31.425 48.6446 31.425C 48.1646 31.425 47.8496 31.29 47.6546 31.065C 47.4896 30.87 47.4146 30.6 47.4146 30.15L 47.4146 27.375L 49.8146 27.375L 49.8146 25.725L 47.4146 25.725L 47.4146 23.7L 45.4646 23.7L 45.4646 25.725L 43.4396 25.725L 43.4396 27.375L 45.4646 27.375L 45.4646 29.925C 45.4646 30.96 45.6296 31.605 46.0046 32.1C 46.4996 32.76 47.3546 33.15 48.5246 33.15C 48.8996 33.15 49.4846 33.09 49.7396 33L 49.4396 31.35ZM 56.7764 30.735C 56.4314 31.11 55.7714 31.575 54.9464 31.575C 53.9114 31.575 53.0864 30.87 52.9814 29.85L 58.0214 29.85C 58.0514 29.685 58.0664 29.49 58.0664 29.295C 58.0664 27.27 56.6414 25.575 54.6314 25.575C 52.4714 25.575 51.0914 27.345 51.0914 29.37C 51.0914 31.65 52.7264 33.15 54.9014 33.15C 56.0264 33.15 57.1814 32.685 57.8864 31.845L 56.7764 30.735ZM 53.0714 28.425C 53.1614 27.765 53.8214 27.15 54.6314 27.15C 55.4264 27.15 56.0114 27.78 56.0714 28.425L 53.0714 28.425Z"/>
<path id="path8_fill" d="M 2.475 5.75C 2.475 3.77 3.945 2.15 5.925 2.15C 7.905 2.15 9.375 3.77 9.375 5.75C 9.375 7.73 7.905 9.35 5.925 9.35C 3.945 9.35 2.475 7.73 2.475 5.75ZM 0.45 5.75C 0.45 8.735 2.685 11.15 5.925 11.15C 9.165 11.15 11.4 8.735 11.4 5.75C 11.4 2.765 9.165 0.35 5.925 0.35C 2.685 0.35 0.45 2.765 0.45 5.75ZM 12.2256 0.5L 12.2256 2.3L 15.0006 2.3L 15.0006 11L 17.0256 11L 17.0256 2.3L 19.8006 2.3L 19.8006 0.5L 12.2256 0.5ZM 26.1409 2.15C 27.1759 2.15 28.0609 2.6 28.6909 3.23L 29.9959 1.85C 29.0509 0.935 27.7159 0.35 26.1559 0.35C 22.8859 0.35 20.6209 2.735 20.6209 5.75C 20.6209 8.765 22.9159 11.15 26.1859 11.15C 28.1059 11.15 29.6659 10.325 30.5959 9.14L 29.2009 7.895C 28.5859 8.69 27.5959 9.35 26.2309 9.35C 24.2059 9.35 22.6459 7.79 22.6459 5.75C 22.6459 3.755 24.1459 2.15 26.1409 2.15ZM 1.125 36.6L 3.075 36.6L 3.075 32.49C 3.66 32.94 4.29 33.15 5.025 33.15C 6.105 33.15 7.14 32.67 7.785 31.92C 8.355 31.26 8.7 30.36 8.7 29.37C 8.7 27.225 7.11 25.575 5.13 25.575C 4.305 25.575 3.57 25.845 3 26.31L 3 25.725L 1.125 25.725L 1.125 36.6ZM 3.075 28.275C 3.48 27.735 4.125 27.375 4.875 27.375C 6.015 27.375 6.75 28.32 6.75 29.37C 6.75 30.51 5.925 31.35 4.83 31.35C 4.095 31.35 3.45 30.99 3.075 30.45L 3.075 28.275ZM 15.3785 30.45C 15.0035 30.99 14.3585 31.35 13.6235 31.35C 12.5285 31.35 11.7035 30.51 11.7035 29.37C 11.7035 28.32 12.4385 27.375 13.5785 27.375C 14.3285 27.375 14.9735 27.735 15.3785 28.275L 15.3785 30.45ZM 17.3285 25.725L 15.4535 25.725L 15.4535 26.31C 14.8835 25.845 14.1485 25.575 13.3235 25.575C 11.3435 25.575 9.75352 27.225 9.75352 29.37C 9.75352 30.36 10.1135 31.26 10.6835 31.92C 11.3285 32.67 12.3485 33.15 13.4285 33.15C 14.1635 33.15 14.8535 32.925 15.4535 32.415L 15.4535 33L 17.3285 33L 17.3285 25.725ZM 18.862 32.175C 19.717 32.805 20.782 33.15 21.787 33.15C 23.317 33.15 24.682 32.295 24.682 30.9C 24.682 28.38 21.157 28.755 21.157 27.81C 21.157 27.435 21.607 27.225 22.147 27.225C 22.672 27.225 23.167 27.45 23.542 27.72L 24.457 26.31C 23.977 25.935 22.942 25.575 21.997 25.575C 20.557 25.575 19.207 26.445 19.207 27.84C 19.207 30.18 22.732 29.79 22.732 30.885C 22.732 31.245 22.327 31.5 21.802 31.5C 21.067 31.5 20.302 31.23 19.807 30.78L 18.862 32.175ZM 25.7614 32.175C 26.6164 32.805 27.6814 33.15 28.6864 33.15C 30.2164 33.15 31.5814 32.295 31.5814 30.9C 31.5814 28.38 28.0564 28.755 28.0564 27.81C 28.0564 27.435 28.5064 27.225 29.0464 27.225C 29.5714 27.225 30.0664 27.45 30.4414 27.72L 31.3564 26.31C 30.8764 25.935 29.8414 25.575 28.8964 25.575C 27.4564 25.575 26.1064 26.445 26.1064 27.84C 26.1064 30.18 29.6314 29.79 29.6314 30.885C 29.6314 31.245 29.2264 31.5 28.7014 31.5C 27.9664 31.5 27.2014 31.23 26.7064 30.78L 25.7614 32.175ZM 38.5559 31.35C 38.4209 31.38 38.0459 31.425 37.7609 31.425C 37.2809 31.425 36.9659 31.29 36.7709 31.065C 36.6059 30.87 36.5309 30.6 36.5309 30.15L 36.5309 27.375L 38.9309 27.375L 38.9309 25.725L 36.5309 25.725L 36.5309 23.7L 34.5809 23.7L 34.5809 25.725L 32.5559 25.725L 32.5559 27.375L 34.5809 27.375L 34.5809 29.925C 34.5809 30.96 34.7459 31.605 35.1209 32.1C 35.6159 32.76 36.4709 33.15 37.6409 33.15C 38.0159 33.15 38.6009 33.09 38.8559 33L 38.5559 31.35ZM 42.7576 28.275C 43.0276 27.9 43.7026 27.375 44.5276 27.375C 44.9776 27.375 45.3676 27.525 45.6226 27.78C 45.8926 28.05 46.0576 28.425 46.0576 29.145L 46.0576 33L 48.0076 33L 48.0076 29.295C 48.0076 28.05 47.7376 27.315 47.2576 26.745C 46.6576 26.025 45.7426 25.575 44.7376 25.575C 43.9876 25.575 43.2976 25.83 42.7576 26.25L 42.7576 22.35L 40.8076 22.35L 40.8076 33L 42.7576 33L 42.7576 28.275ZM 54.7594 25.635C 54.5494 25.605 54.3844 25.575 54.0994 25.575C 53.2144 25.575 52.4194 25.92 51.9844 26.46L 51.9844 25.725L 50.1094 25.725L 50.1094 33L 52.0594 33L 52.0594 28.425C 52.2994 27.99 52.9744 27.375 53.8294 27.375C 54.1144 27.375 54.3994 27.405 54.5344 27.45L 54.7594 25.635ZM 55.6617 29.37C 55.6617 31.47 57.3267 33.15 59.5317 33.15C 61.7367 33.15 63.4017 31.47 63.4017 29.37C 63.4017 27.27 61.7367 25.575 59.5317 25.575C 57.3267 25.575 55.6617 27.27 55.6617 29.37ZM 57.6117 29.37C 57.6117 28.275 58.3917 27.375 59.5317 27.375C 60.6717 27.375 61.4517 28.275 61.4517 29.37C 61.4517 30.465 60.6717 31.35 59.5317 31.35C 58.3917 31.35 57.6117 30.465 57.6117 29.37ZM 70.0008 25.725L 70.0008 30.45C 69.7308 30.795 69.1308 31.35 68.3058 31.35C 67.9308 31.35 67.5108 31.23 67.2108 30.9C 66.9858 30.645 66.8508 30.315 66.8508 29.655L 66.8508 25.725L 64.9008 25.725L 64.9008 29.58C 64.9008 30.66 65.1708 31.41 65.6358 31.98C 66.2058 32.685 67.1058 33.15 68.1108 33.15C 68.8158 33.15 69.5058 32.925 70.0758 32.415L 70.0758 33L 71.9508 33L 71.9508 25.725L 70.0008 25.725ZM 81.1811 25.725L 79.3061 25.725L 79.3061 26.31C 78.7361 25.845 78.0011 25.575 77.1761 25.575C 75.1961 25.575 73.6061 27.225 73.6061 29.37C 73.6061 30.36 73.9511 31.26 74.5211 31.92C 75.1661 32.67 76.2011 33.15 77.2811 33.15C 78.0161 33.15 78.6461 32.94 79.2311 32.49L 79.2311 32.73C 79.2311 33.66 79.0811 34.11 78.7811 34.44C 78.4511 34.83 77.9261 35.025 77.2961 35.025C 76.0961 35.025 75.4211 34.395 75.0311 33.975L 73.8011 35.25C 74.5211 36.09 75.8711 36.75 77.2961 36.75C 78.6911 36.75 79.8611 36.21 80.5211 35.295C 80.9561 34.68 81.1811 33.9 81.1811 32.595L 81.1811 25.725ZM 79.2311 30.45C 78.8561 30.99 78.2111 31.35 77.4761 31.35C 76.3811 31.35 75.5561 30.51 75.5561 29.37C 75.5561 28.32 76.2911 27.375 77.4311 27.375C 78.1811 27.375 78.8261 27.735 79.2311 28.275L 79.2311 30.45ZM 85.3846 28.275C 85.6546 27.9 86.3296 27.375 87.1546 27.375C 87.6046 27.375 87.9946 27.525 88.2496 27.78C 88.5196 28.05 88.6846 28.425 88.6846 29.145L 88.6846 33L 90.6346 33L 90.6346 29.295C 90.6346 28.05 90.3646 27.315 89.8846 26.745C 89.2846 26.025 88.3696 25.575 87.3646 25.575C 86.6146 25.575 85.9246 25.83 85.3846 26.25L 85.3846 22.35L 83.4346 22.35L 83.4346 33L 85.3846 33L 85.3846 28.275Z"/>
<path id="path9_fill" d="M 2.625 0.5L 1.2 0.5L 1.2 11L 3.225 11L 3.225 5.15L 5.745 9.275L 7.155 9.275L 9.675 5.15L 9.675 11L 11.7 11L 11.7 0.5L 10.275 0.5L 6.45 6.785L 2.625 0.5ZM 13.4303 7.37C 13.4303 9.47 15.0953 11.15 17.3003 11.15C 19.5053 11.15 21.1703 9.47 21.1703 7.37C 21.1703 5.27 19.5053 3.575 17.3003 3.575C 15.0953 3.575 13.4303 5.27 13.4303 7.37ZM 15.3803 7.37C 15.3803 6.275 16.1603 5.375 17.3003 5.375C 18.4403 5.375 19.2203 6.275 19.2203 7.37C 19.2203 8.465 18.4403 9.35 17.3003 9.35C 16.1603 9.35 15.3803 8.465 15.3803 7.37ZM 24.7693 6.275C 25.1743 5.735 25.8193 5.375 26.5693 5.375C 27.7093 5.375 28.4443 6.32 28.4443 7.37C 28.4443 8.51 27.6193 9.35 26.5243 9.35C 25.7893 9.35 25.1443 8.99 24.7693 8.45L 24.7693 6.275ZM 24.6943 11L 24.6943 10.415C 25.2943 10.925 25.9843 11.15 26.7193 11.15C 27.7993 11.15 28.8193 10.67 29.4643 9.92C 30.0343 9.26 30.3943 8.36 30.3943 7.37C 30.3943 5.225 28.8043 3.575 26.8243 3.575C 26.0293 3.575 25.3393 3.8 24.7693 4.25L 24.7693 0.35L 22.8193 0.35L 22.8193 11L 24.6943 11ZM 33.9979 3.725L 32.0479 3.725L 32.0479 11L 33.9979 11L 33.9979 3.725ZM 31.7479 1.145C 31.7479 1.85 32.3179 2.39 33.0229 2.39C 33.7279 2.39 34.2979 1.85 34.2979 1.145C 34.2979 0.44 33.7279 -0.1 33.0229 -0.1C 32.3179 -0.1 31.7479 0.44 31.7479 1.145ZM 38.202 0.35L 36.252 0.35L 36.252 11L 38.202 11L 38.202 0.35ZM 45.5411 8.735C 45.1961 9.11 44.5361 9.575 43.7111 9.575C 42.6761 9.575 41.8511 8.87 41.7461 7.85L 46.7861 7.85C 46.8161 7.685 46.8311 7.49 46.8311 7.295C 46.8311 5.27 45.4061 3.575 43.3961 3.575C 41.2361 3.575 39.8561 5.345 39.8561 7.37C 39.8561 9.65 41.4911 11.15 43.6661 11.15C 44.7911 11.15 45.9461 10.685 46.6511 9.845L 45.5411 8.735ZM 41.8361 6.425C 41.9261 5.765 42.5861 5.15 43.3961 5.15C 44.1911 5.15 44.7761 5.78 44.8361 6.425L 41.8361 6.425ZM 3.63 33L 5.055 33L 7.38 26.355L 9.72 33L 11.145 33L 14.625 22.5L 12.585 22.5L 10.41 29.055L 8.1 22.5L 6.675 22.5L 4.365 29.055L 2.19 22.5L 0.15 22.5L 3.63 33ZM 20.9303 30.45C 20.5553 30.99 19.9103 31.35 19.1753 31.35C 18.0803 31.35 17.2553 30.51 17.2553 29.37C 17.2553 28.32 17.9903 27.375 19.1303 27.375C 19.8803 27.375 20.5253 27.735 20.9303 28.275L 20.9303 30.45ZM 22.8803 25.725L 21.0053 25.725L 21.0053 26.31C 20.4353 25.845 19.7003 25.575 18.8753 25.575C 16.8953 25.575 15.3053 27.225 15.3053 29.37C 15.3053 30.36 15.6653 31.26 16.2353 31.92C 16.8803 32.67 17.9003 33.15 18.9803 33.15C 19.7153 33.15 20.4053 32.925 21.0053 32.415L 21.0053 33L 22.8803 33L 22.8803 25.725ZM 27.0838 22.35L 25.1338 22.35L 25.1338 33L 27.0838 33L 27.0838 22.35ZM 31.2879 22.35L 29.3379 22.35L 29.3379 33L 31.2879 33L 31.2879 22.35ZM 38.627 30.735C 38.282 31.11 37.622 31.575 36.797 31.575C 35.762 31.575 34.937 30.87 34.832 29.85L 39.872 29.85C 39.902 29.685 39.917 29.49 39.917 29.295C 39.917 27.27 38.492 25.575 36.482 25.575C 34.322 25.575 32.942 27.345 32.942 29.37C 32.942 31.65 34.577 33.15 36.752 33.15C 37.877 33.15 39.032 32.685 39.737 31.845L 38.627 30.735ZM 34.922 28.425C 35.012 27.765 35.672 27.15 36.482 27.15C 37.277 27.15 37.862 27.78 37.922 28.425L 34.922 28.425ZM 46.7443 31.35C 46.6093 31.38 46.2343 31.425 45.9493 31.425C 45.4693 31.425 45.1543 31.29 44.9593 31.065C 44.7943 30.87 44.7193 30.6 44.7193 30.15L 44.7193 27.375L 47.1193 27.375L 47.1193 25.725L 44.7193 25.725L 44.7193 23.7L 42.7693 23.7L 42.7693 25.725L 40.7443 25.725L 40.7443 27.375L 42.7693 27.375L 42.7693 29.925C 42.7693 30.96 42.9343 31.605 43.3093 32.1C 43.8043 32.76 44.6593 33.15 45.8293 33.15C 46.2043 33.15 46.7893 33.09 47.0443 33L 46.7443 31.35ZM 53.1141 33L 55.1391 33L 55.1391 22.5L 53.1141 22.5L 53.1141 33ZM 58.8129 27.75C 58.8129 25.77 60.2829 24.15 62.2629 24.15C 64.2429 24.15 65.7129 25.77 65.7129 27.75C 65.7129 29.73 64.2429 31.35 62.2629 31.35C 60.2829 31.35 58.8129 29.73 58.8129 27.75ZM 56.7879 27.75C 56.7879 30.735 59.0229 33.15 62.2629 33.15C 65.5029 33.15 67.7379 30.735 67.7379 27.75C 67.7379 24.765 65.5029 22.35 62.2629 22.35C 59.0229 22.35 56.7879 24.765 56.7879 27.75ZM 68.3385 31.575C 69.4185 32.565 70.7235 33.15 72.1335 33.15C 74.0235 33.15 75.6885 31.86 75.6885 30C 75.6885 26.46 70.8435 26.985 70.8435 25.29C 70.8435 24.48 71.6985 24.15 72.4635 24.15C 73.1535 24.15 73.8585 24.45 74.2785 24.84L 75.3285 23.34C 74.3385 22.605 73.3485 22.35 72.2835 22.35C 70.5435 22.35 68.8185 23.43 68.8185 25.305C 68.8185 26.49 69.4785 27.21 70.3035 27.69C 71.7135 28.515 73.6635 28.68 73.6635 30.03C 73.6635 30.795 73.0335 31.35 72.1335 31.35C 71.1735 31.35 70.2585 30.855 69.6585 30.195L 68.3385 31.575Z"/>
<path id="path10_fill" d="M 0.15 9.575C 1.23 10.565 2.535 11.15 3.945 11.15C 5.835 11.15 7.5 9.86 7.5 8C 7.5 4.46 2.655 4.985 2.655 3.29C 2.655 2.48 3.51 2.15 4.275 2.15C 4.965 2.15 5.67 2.45 6.09 2.84L 7.14 1.34C 6.15 0.605 5.16 0.35 4.095 0.35C 2.355 0.35 0.63 1.43 0.63 3.305C 0.63 4.49 1.29 5.21 2.115 5.69C 3.525 6.515 5.475 6.68 5.475 8.03C 5.475 8.795 4.845 9.35 3.945 9.35C 2.985 9.35 2.07 8.855 1.47 8.195L 0.15 9.575ZM 11.1023 3.725L 9.15234 3.725L 9.15234 11L 11.1023 11L 11.1023 3.725ZM 8.85234 1.145C 8.85234 1.85 9.42234 2.39 10.1273 2.39C 10.8323 2.39 11.4023 1.85 11.4023 1.145C 11.4023 0.44 10.8323 -0.1 10.1273 -0.1C 9.42234 -0.1 8.85234 0.44 8.85234 1.145ZM 20.3314 3.725L 18.4564 3.725L 18.4564 4.31C 17.8864 3.845 17.1514 3.575 16.3264 3.575C 14.3464 3.575 12.7564 5.225 12.7564 7.37C 12.7564 8.36 13.1014 9.26 13.6714 9.92C 14.3164 10.67 15.3514 11.15 16.4314 11.15C 17.1664 11.15 17.7964 10.94 18.3814 10.49L 18.3814 10.73C 18.3814 11.66 18.2314 12.11 17.9314 12.44C 17.6014 12.83 17.0764 13.025 16.4464 13.025C 15.2464 13.025 14.5714 12.395 14.1814 11.975L 12.9514 13.25C 13.6714 14.09 15.0214 14.75 16.4464 14.75C 17.8414 14.75 19.0114 14.21 19.6714 13.295C 20.1064 12.68 20.3314 11.9 20.3314 10.595L 20.3314 3.725ZM 18.3814 8.45C 18.0064 8.99 17.3614 9.35 16.6264 9.35C 15.5314 9.35 14.7064 8.51 14.7064 7.37C 14.7064 6.32 15.4414 5.375 16.5814 5.375C 17.3314 5.375 17.9764 5.735 18.3814 6.275L 18.3814 8.45ZM 24.535 11L 24.535 6.275C 24.805 5.9 25.48 5.375 26.305 5.375C 26.755 5.375 27.145 5.525 27.4 5.78C 27.67 6.05 27.835 6.425 27.835 7.145L 27.835 11L 29.785 11L 29.785 7.295C 29.785 6.05 29.515 5.315 29.035 4.745C 28.435 4.025 27.52 3.575 26.515 3.575C 25.705 3.575 25.015 3.86 24.46 4.31L 24.46 3.725L 22.585 3.725L 22.585 11L 24.535 11ZM 36.9117 8.45C 36.5367 8.99 35.8917 9.35 35.1567 9.35C 34.0617 9.35 33.2367 8.51 33.2367 7.37C 33.2367 6.32 33.9717 5.375 35.1117 5.375C 35.8617 5.375 36.5067 5.735 36.9117 6.275L 36.9117 8.45ZM 38.8617 3.725L 36.9867 3.725L 36.9867 4.31C 36.4167 3.845 35.6817 3.575 34.8567 3.575C 32.8767 3.575 31.2867 5.225 31.2867 7.37C 31.2867 8.36 31.6467 9.26 32.2167 9.92C 32.8617 10.67 33.8817 11.15 34.9617 11.15C 35.6967 11.15 36.3867 10.925 36.9867 10.415L 36.9867 11L 38.8617 11L 38.8617 3.725ZM 43.0652 0.35L 41.1152 0.35L 41.1152 11L 43.0652 11L 43.0652 0.35Z"/>
<path id="path11_fill" d="M 2.115 11L 3.105 8.675L 7.32 8.675L 8.31 11L 10.425 11L 5.925 0.5L 4.5 0.5L 0 11L 2.115 11ZM 5.205 3.77L 6.54 6.875L 3.87 6.875L 5.205 3.77ZM 16.5797 8.45C 16.2047 8.99 15.5597 9.35 14.8247 9.35C 13.7297 9.35 12.9047 8.51 12.9047 7.37C 12.9047 6.32 13.6397 5.375 14.7797 5.375C 15.5297 5.375 16.1747 5.735 16.5797 6.275L 16.5797 8.45ZM 18.5297 11L 18.5297 0.35L 16.5797 0.35L 16.5797 4.25C 16.0097 3.8 15.3197 3.575 14.5247 3.575C 12.5447 3.575 10.9547 5.225 10.9547 7.37C 10.9547 8.36 11.3147 9.26 11.8847 9.92C 12.5297 10.67 13.5497 11.15 14.6297 11.15C 15.3647 11.15 16.0547 10.925 16.6547 10.415L 16.6547 11L 18.5297 11ZM 21.8332 3.725L 19.8082 3.725L 23.1532 11L 24.5032 11L 27.8482 3.725L 25.8232 3.725L 23.8282 8.165L 21.8332 3.725ZM 34.1432 8.45C 33.7682 8.99 33.1232 9.35 32.3882 9.35C 31.2932 9.35 30.4682 8.51 30.4682 7.37C 30.4682 6.32 31.2032 5.375 32.3432 5.375C 33.0932 5.375 33.7382 5.735 34.1432 6.275L 34.1432 8.45ZM 36.0932 3.725L 34.2182 3.725L 34.2182 4.31C 33.6482 3.845 32.9132 3.575 32.0882 3.575C 30.1082 3.575 28.5182 5.225 28.5182 7.37C 28.5182 8.36 28.8782 9.26 29.4482 9.92C 30.0932 10.67 31.1132 11.15 32.1932 11.15C 32.9282 11.15 33.6182 10.925 34.2182 10.415L 34.2182 11L 36.0932 11L 36.0932 3.725ZM 40.2967 11L 40.2967 6.275C 40.5667 5.9 41.2417 5.375 42.0667 5.375C 42.5167 5.375 42.9067 5.525 43.1617 5.78C 43.4317 6.05 43.5967 6.425 43.5967 7.145L 43.5967 11L 45.5467 11L 45.5467 7.295C 45.5467 6.05 45.2767 5.315 44.7967 4.745C 44.1967 4.025 43.2817 3.575 42.2767 3.575C 41.4667 3.575 40.7767 3.86 40.2217 4.31L 40.2217 3.725L 38.3467 3.725L 38.3467 11L 40.2967 11ZM 52.7484 8.39C 52.4334 8.87 51.8034 9.35 51.0084 9.35C 49.8234 9.35 48.9984 8.51 48.9984 7.37C 48.9984 6.26 49.8384 5.375 50.9634 5.375C 51.6684 5.375 52.2534 5.735 52.6434 6.245L 54.0234 5.03C 53.3484 4.16 52.2234 3.575 50.9634 3.575C 48.7434 3.575 47.0484 5.255 47.0484 7.37C 47.0484 9.47 48.6984 11.15 50.9484 11.15C 52.3134 11.15 53.3934 10.655 54.2484 9.515L 52.7484 8.39ZM 60.834 8.735C 60.489 9.11 59.829 9.575 59.004 9.575C 57.969 9.575 57.144 8.87 57.039 7.85L 62.079 7.85C 62.109 7.685 62.124 7.49 62.124 7.295C 62.124 5.27 60.699 3.575 58.689 3.575C 56.529 3.575 55.149 5.345 55.149 7.37C 55.149 9.65 56.784 11.15 58.959 11.15C 60.084 11.15 61.239 10.685 61.944 9.845L 60.834 8.735ZM 57.129 6.425C 57.219 5.765 57.879 5.15 58.689 5.15C 59.484 5.15 60.069 5.78 60.129 6.425L 57.129 6.425ZM 68.8014 8.45C 68.4264 8.99 67.7814 9.35 67.0464 9.35C 65.9514 9.35 65.1264 8.51 65.1264 7.37C 65.1264 6.32 65.8614 5.375 67.0014 5.375C 67.7514 5.375 68.3964 5.735 68.8014 6.275L 68.8014 8.45ZM 70.7514 11L 70.7514 0.35L 68.8014 0.35L 68.8014 4.25C 68.2314 3.8 67.5414 3.575 66.7464 3.575C 64.7664 3.575 63.1764 5.225 63.1764 7.37C 63.1764 8.36 63.5364 9.26 64.1064 9.92C 64.7514 10.67 65.7714 11.15 66.8514 11.15C 67.5864 11.15 68.2764 10.925 68.8764 10.415L 68.8764 11L 70.7514 11ZM 0.15 31.575C 1.23 32.565 2.535 33.15 3.945 33.15C 5.835 33.15 7.5 31.86 7.5 30C 7.5 26.46 2.655 26.985 2.655 25.29C 2.655 24.48 3.51 24.15 4.275 24.15C 4.965 24.15 5.67 24.45 6.09 24.84L 7.14 23.34C 6.15 22.605 5.16 22.35 4.095 22.35C 2.355 22.35 0.63 23.43 0.63 25.305C 0.63 26.49 1.29 27.21 2.115 27.69C 3.525 28.515 5.475 28.68 5.475 30.03C 5.475 30.795 4.845 31.35 3.945 31.35C 2.985 31.35 2.07 30.855 1.47 30.195L 0.15 31.575ZM 9.15234 36.6L 11.1023 36.6L 11.1023 32.49C 11.6873 32.94 12.3173 33.15 13.0523 33.15C 14.1323 33.15 15.1673 32.67 15.8123 31.92C 16.3823 31.26 16.7273 30.36 16.7273 29.37C 16.7273 27.225 15.1373 25.575 13.1573 25.575C 12.3323 25.575 11.5973 25.845 11.0273 26.31L 11.0273 25.725L 9.15234 25.725L 9.15234 36.6ZM 11.1023 28.275C 11.5073 27.735 12.1523 27.375 12.9023 27.375C 14.0423 27.375 14.7773 28.32 14.7773 29.37C 14.7773 30.51 13.9523 31.35 12.8573 31.35C 12.1223 31.35 11.4773 30.99 11.1023 30.45L 11.1023 28.275ZM 23.4659 30.735C 23.1209 31.11 22.4609 31.575 21.6359 31.575C 20.6009 31.575 19.7759 30.87 19.6709 29.85L 24.7109 29.85C 24.7409 29.685 24.7559 29.49 24.7559 29.295C 24.7559 27.27 23.3309 25.575 21.3209 25.575C 19.1609 25.575 17.7809 27.345 17.7809 29.37C 17.7809 31.65 19.4159 33.15 21.5909 33.15C 22.7159 33.15 23.8709 32.685 24.5759 31.845L 23.4659 30.735ZM 19.7609 28.425C 19.8509 27.765 20.5109 27.15 21.3209 27.15C 22.1159 27.15 22.7009 27.78 22.7609 28.425L 19.7609 28.425ZM 28.3582 33L 28.3582 28.275C 28.6282 27.9 29.3032 27.375 30.1282 27.375C 30.5782 27.375 30.9682 27.525 31.2232 27.78C 31.4932 28.05 31.6582 28.425 31.6582 29.145L 31.6582 33L 33.6082 33L 33.6082 29.295C 33.6082 28.05 33.3382 27.315 32.8582 26.745C 32.2582 26.025 31.3432 25.575 30.3382 25.575C 29.5282 25.575 28.8382 25.86 28.2832 26.31L 28.2832 25.725L 26.4082 25.725L 26.4082 33L 28.3582 33ZM 40.735 30.45C 40.36 30.99 39.715 31.35 38.98 31.35C 37.885 31.35 37.06 30.51 37.06 29.37C 37.06 28.32 37.795 27.375 38.935 27.375C 39.685 27.375 40.33 27.735 40.735 28.275L 40.735 30.45ZM 42.685 33L 42.685 22.35L 40.735 22.35L 40.735 26.25C 40.165 25.8 39.475 25.575 38.68 25.575C 36.7 25.575 35.11 27.225 35.11 29.37C 35.11 30.36 35.47 31.26 36.04 31.92C 36.685 32.67 37.705 33.15 38.785 33.15C 39.52 33.15 40.21 32.925 40.81 32.415L 40.81 33L 42.685 33ZM 49.0564 22.5L 49.0564 33L 53.1514 33C 54.5014 33 55.3114 32.64 55.8964 32.055C 56.4814 31.485 56.8564 30.675 56.8564 29.79C 56.8564 28.62 56.2114 27.57 55.2814 27.105C 55.6264 26.745 55.9564 26.04 55.9564 25.35C 55.9564 24.495 55.5664 23.745 54.9814 23.235C 54.4714 22.785 53.8114 22.5 52.6264 22.5L 49.0564 22.5ZM 51.0814 24.3L 52.5064 24.3C 53.1364 24.3 53.4214 24.45 53.6314 24.675C 53.8114 24.87 53.9314 25.14 53.9314 25.425C 53.9314 25.71 53.8114 25.98 53.6314 26.175C 53.4214 26.4 53.1364 26.55 52.5064 26.55L 51.0814 26.55L 51.0814 24.3ZM 51.0814 31.2L 51.0814 28.35L 53.1064 28.35C 53.8114 28.35 54.2014 28.53 54.4564 28.815C 54.6964 29.07 54.8314 29.4 54.8314 29.775C 54.8314 30.15 54.6964 30.48 54.4564 30.735C 54.2014 31.02 53.8114 31.2 53.1064 31.2L 51.0814 31.2ZM 63.3064 25.725L 63.3064 30.45C 63.0364 30.795 62.4364 31.35 61.6114 31.35C 61.2364 31.35 60.8164 31.23 60.5164 30.9C 60.2914 30.645 60.1564 30.315 60.1564 29.655L 60.1564 25.725L 58.2064 25.725L 58.2064 29.58C 58.2064 30.66 58.4764 31.41 58.9414 31.98C 59.5114 32.685 60.4114 33.15 61.4164 33.15C 62.1214 33.15 62.8114 32.925 63.3814 32.415L 63.3814 33L 65.2564 33L 65.2564 25.725L 63.3064 25.725ZM 69.4617 25.725L 67.5117 25.725L 67.5117 33L 69.4617 33L 69.4617 25.725ZM 67.2117 23.145C 67.2117 23.85 67.7817 24.39 68.4867 24.39C 69.1917 24.39 69.7617 23.85 69.7617 23.145C 69.7617 22.44 69.1917 21.9 68.4867 21.9C 67.7817 21.9 67.2117 22.44 67.2117 23.145ZM 73.6658 22.35L 71.7158 22.35L 71.7158 33L 73.6658 33L 73.6658 22.35ZM 80.9449 30.45C 80.5699 30.99 79.9249 31.35 79.1899 31.35C 78.0949 31.35 77.2699 30.51 77.2699 29.37C 77.2699 28.32 78.0049 27.375 79.1449 27.375C 79.8949 27.375 80.5399 27.735 80.9449 28.275L 80.9449 30.45ZM 82.8949 33L 82.8949 22.35L 80.9449 22.35L 80.9449 26.25C 80.3749 25.8 79.6849 25.575 78.8899 25.575C 76.9099 25.575 75.3199 27.225 75.3199 29.37C 75.3199 30.36 75.6799 31.26 76.2499 31.92C 76.8949 32.67 77.9149 33.15 78.9949 33.15C 79.7299 33.15 80.4199 32.925 81.0199 32.415L 81.0199 33L 82.8949 33ZM 90.2334 30.735C 89.8884 31.11 89.2284 31.575 88.4034 31.575C 87.3684 31.575 86.5434 30.87 86.4384 29.85L 91.4784 29.85C 91.5084 29.685 91.5234 29.49 91.5234 29.295C 91.5234 27.27 90.0984 25.575 88.0884 25.575C 85.9284 25.575 84.5484 27.345 84.5484 29.37C 84.5484 31.65 86.1834 33.15 88.3584 33.15C 89.4834 33.15 90.6384 32.685 91.3434 31.845L 90.2334 30.735ZM 86.5284 28.425C 86.6184 27.765 87.2784 27.15 88.0884 27.15C 88.8834 27.15 89.4684 27.78 89.5284 28.425L 86.5284 28.425ZM 97.8258 25.635C 97.6158 25.605 97.4508 25.575 97.1658 25.575C 96.2808 25.575 95.4858 25.92 95.0508 26.46L 95.0508 25.725L 93.1758 25.725L 93.1758 33L 95.1258 33L 95.1258 28.425C 95.3658 27.99 96.0408 27.375 96.8958 27.375C 97.1808 27.375 97.4658 27.405 97.6008 27.45L 97.8258 25.635Z"/>
<path id="path12_fill" d="M 4.395 11L 5.82 11L 10.065 0.5L 7.98 0.5L 5.1 7.67L 2.235 0.5L 0.15 0.5L 4.395 11ZM 15.355 6.725C 16.705 6.725 17.515 6.395 18.085 5.795C 18.61 5.255 18.91 4.445 18.91 3.62C 18.91 2.795 18.61 1.985 18.085 1.445C 17.5 0.83 16.705 0.5 15.355 0.5L 11.41 0.5L 11.41 11L 13.435 11L 13.435 6.725L 15.355 6.725ZM 13.435 4.925L 13.435 2.3L 15.265 2.3C 15.955 2.3 16.3 2.465 16.54 2.72C 16.765 2.96 16.885 3.275 16.885 3.62C 16.885 3.965 16.765 4.265 16.54 4.505C 16.3 4.76 15.955 4.925 15.265 4.925L 13.435 4.925ZM 20.4041 11L 22.4291 11L 22.4291 4.16L 28.2791 11L 29.7041 11L 29.7041 0.5L 27.6791 0.5L 27.6791 7.34L 21.8291 0.5L 20.4041 0.5L 20.4041 11Z"/>
<path id="path13_fill" d="M 5.97 2.15C 7.005 2.15 7.89 2.6 8.52 3.23L 9.825 1.85C 8.88 0.935 7.545 0.35 5.985 0.35C 2.715 0.35 0.45 2.735 0.45 5.75C 0.45 8.765 2.745 11.15 6.015 11.15C 7.935 11.15 9.495 10.325 10.425 9.14L 9.03 7.895C 8.415 8.69 7.425 9.35 6.06 9.35C 4.035 9.35 2.475 7.79 2.475 5.75C 2.475 3.755 3.975 2.15 5.97 2.15ZM 11.2477 7.37C 11.2477 9.47 12.9127 11.15 15.1177 11.15C 17.3227 11.15 18.9877 9.47 18.9877 7.37C 18.9877 5.27 17.3227 3.575 15.1177 3.575C 12.9127 3.575 11.2477 5.27 11.2477 7.37ZM 13.1977 7.37C 13.1977 6.275 13.9777 5.375 15.1177 5.375C 16.2577 5.375 17.0377 6.275 17.0377 7.37C 17.0377 8.465 16.2577 9.35 15.1177 9.35C 13.9777 9.35 13.1977 8.465 13.1977 7.37ZM 22.5867 3.725L 20.6367 3.725L 20.6367 11L 22.5867 11L 22.5867 3.725ZM 20.3367 1.145C 20.3367 1.85 20.9067 2.39 21.6117 2.39C 22.3167 2.39 22.8867 1.85 22.8867 1.145C 22.8867 0.44 22.3167 -0.1 21.6117 -0.1C 20.9067 -0.1 20.3367 0.44 20.3367 1.145ZM 26.7908 11L 26.7908 6.275C 27.0608 5.9 27.7358 5.375 28.5608 5.375C 29.0108 5.375 29.4008 5.525 29.6558 5.78C 29.9258 6.05 30.0908 6.425 30.0908 7.145L 30.0908 11L 32.0408 11L 32.0408 7.295C 32.0408 6.05 31.7708 5.315 31.2908 4.745C 30.6908 4.025 29.7758 3.575 28.7708 3.575C 27.9608 3.575 27.2708 3.86 26.7158 4.31L 26.7158 3.725L 24.8408 3.725L 24.8408 11L 26.7908 11ZM 32.7176 14.645C 32.9276 14.69 33.3026 14.75 33.6926 14.75C 34.9526 14.75 35.7176 14.3 36.1676 13.67C 36.5426 13.13 36.6926 12.47 36.6926 11.375L 36.6926 3.725L 34.7426 3.725L 34.7426 11.375C 34.7426 12.095 34.6526 12.41 34.4576 12.62C 34.2476 12.845 33.9326 12.95 33.5276 12.95C 33.4226 12.95 33.1526 12.92 33.0176 12.875L 32.7176 14.645ZM 34.4426 1.145C 34.4426 1.85 35.0126 2.39 35.7176 2.39C 36.4226 2.39 36.9926 1.85 36.9926 1.145C 36.9926 0.44 36.4226 -0.1 35.7176 -0.1C 35.0126 -0.1 34.4426 0.44 34.4426 1.145ZM 38.3473 7.37C 38.3473 9.47 40.0123 11.15 42.2173 11.15C 44.4223 11.15 46.0873 9.47 46.0873 7.37C 46.0873 5.27 44.4223 3.575 42.2173 3.575C 40.0123 3.575 38.3473 5.27 38.3473 7.37ZM 40.2973 7.37C 40.2973 6.275 41.0773 5.375 42.2173 5.375C 43.3573 5.375 44.1373 6.275 44.1373 7.37C 44.1373 8.465 43.3573 9.35 42.2173 9.35C 41.0773 9.35 40.2973 8.465 40.2973 7.37ZM 49.6863 3.725L 47.7363 3.725L 47.7363 11L 49.6863 11L 49.6863 3.725ZM 47.4363 1.145C 47.4363 1.85 48.0063 2.39 48.7113 2.39C 49.4163 2.39 49.9863 1.85 49.9863 1.145C 49.9863 0.44 49.4163 -0.1 48.7113 -0.1C 48.0063 -0.1 47.4363 0.44 47.4363 1.145ZM 53.8904 11L 53.8904 6.275C 54.1604 5.9 54.8354 5.375 55.6604 5.375C 56.1104 5.375 56.5004 5.525 56.7554 5.78C 57.0254 6.05 57.1904 6.425 57.1904 7.145L 57.1904 11L 59.1404 11L 59.1404 7.295C 59.1404 6.05 58.8704 5.315 58.3904 4.745C 57.7904 4.025 56.8754 3.575 55.8704 3.575C 55.0604 3.575 54.3704 3.86 53.8154 4.31L 53.8154 3.725L 51.9404 3.725L 51.9404 11L 53.8904 11Z"/>
<path id="path14_fill" d="M 2.625 0.5L 1.2 0.5L 1.2 11L 3.225 11L 3.225 5.15L 5.745 9.275L 7.155 9.275L 9.675 5.15L 9.675 11L 11.7 11L 11.7 0.5L 10.275 0.5L 6.45 6.785L 2.625 0.5ZM 13.4303 7.37C 13.4303 9.47 15.0953 11.15 17.3003 11.15C 19.5053 11.15 21.1703 9.47 21.1703 7.37C 21.1703 5.27 19.5053 3.575 17.3003 3.575C 15.0953 3.575 13.4303 5.27 13.4303 7.37ZM 15.3803 7.37C 15.3803 6.275 16.1603 5.375 17.3003 5.375C 18.4403 5.375 19.2203 6.275 19.2203 7.37C 19.2203 8.465 18.4403 9.35 17.3003 9.35C 16.1603 9.35 15.3803 8.465 15.3803 7.37ZM 24.7693 6.275C 25.1743 5.735 25.8193 5.375 26.5693 5.375C 27.7093 5.375 28.4443 6.32 28.4443 7.37C 28.4443 8.51 27.6193 9.35 26.5243 9.35C 25.7893 9.35 25.1443 8.99 24.7693 8.45L 24.7693 6.275ZM 24.6943 11L 24.6943 10.415C 25.2943 10.925 25.9843 11.15 26.7193 11.15C 27.7993 11.15 28.8193 10.67 29.4643 9.92C 30.0343 9.26 30.3943 8.36 30.3943 7.37C 30.3943 5.225 28.8043 3.575 26.8243 3.575C 26.0293 3.575 25.3393 3.8 24.7693 4.25L 24.7693 0.35L 22.8193 0.35L 22.8193 11L 24.6943 11ZM 33.9979 3.725L 32.0479 3.725L 32.0479 11L 33.9979 11L 33.9979 3.725ZM 31.7479 1.145C 31.7479 1.85 32.3179 2.39 33.0229 2.39C 33.7279 2.39 34.2979 1.85 34.2979 1.145C 34.2979 0.44 33.7279 -0.1 33.0229 -0.1C 32.3179 -0.1 31.7479 0.44 31.7479 1.145ZM 38.202 0.35L 36.252 0.35L 36.252 11L 38.202 11L 38.202 0.35ZM 45.5411 8.735C 45.1961 9.11 44.5361 9.575 43.7111 9.575C 42.6761 9.575 41.8511 8.87 41.7461 7.85L 46.7861 7.85C 46.8161 7.685 46.8311 7.49 46.8311 7.295C 46.8311 5.27 45.4061 3.575 43.3961 3.575C 41.2361 3.575 39.8561 5.345 39.8561 7.37C 39.8561 9.65 41.4911 11.15 43.6661 11.15C 44.7911 11.15 45.9461 10.685 46.6511 9.845L 45.5411 8.735ZM 41.8361 6.425C 41.9261 5.765 42.5861 5.15 43.3961 5.15C 44.1911 5.15 44.7761 5.78 44.8361 6.425L 41.8361 6.425ZM 55.0314 11L 56.4564 11L 58.7814 4.355L 61.1214 11L 62.5464 11L 66.0264 0.5L 63.9864 0.5L 61.8114 7.055L 59.5014 0.5L 58.0764 0.5L 55.7664 7.055L 53.5914 0.5L 51.5514 0.5L 55.0314 11ZM 72.3316 8.45C 71.9566 8.99 71.3116 9.35 70.5766 9.35C 69.4816 9.35 68.6566 8.51 68.6566 7.37C 68.6566 6.32 69.3916 5.375 70.5316 5.375C 71.2816 5.375 71.9266 5.735 72.3316 6.275L 72.3316 8.45ZM 74.2816 3.725L 72.4066 3.725L 72.4066 4.31C 71.8366 3.845 71.1016 3.575 70.2766 3.575C 68.2966 3.575 66.7066 5.225 66.7066 7.37C 66.7066 8.36 67.0666 9.26 67.6366 9.92C 68.2816 10.67 69.3016 11.15 70.3816 11.15C 71.1166 11.15 71.8066 10.925 72.4066 10.415L 72.4066 11L 74.2816 11L 74.2816 3.725ZM 78.4852 0.35L 76.5352 0.35L 76.5352 11L 78.4852 11L 78.4852 0.35ZM 82.6893 0.35L 80.7393 0.35L 80.7393 11L 82.6893 11L 82.6893 0.35ZM 90.0284 8.735C 89.6834 9.11 89.0234 9.575 88.1984 9.575C 87.1634 9.575 86.3384 8.87 86.2334 7.85L 91.2734 7.85C 91.3034 7.685 91.3184 7.49 91.3184 7.295C 91.3184 5.27 89.8934 3.575 87.8834 3.575C 85.7234 3.575 84.3434 5.345 84.3434 7.37C 84.3434 9.65 85.9784 11.15 88.1534 11.15C 89.2784 11.15 90.4334 10.685 91.1384 9.845L 90.0284 8.735ZM 86.3234 6.425C 86.4134 5.765 87.0734 5.15 87.8834 5.15C 88.6784 5.15 89.2634 5.78 89.3234 6.425L 86.3234 6.425ZM 98.1457 9.35C 98.0107 9.38 97.6357 9.425 97.3507 9.425C 96.8707 9.425 96.5557 9.29 96.3607 9.065C 96.1957 8.87 96.1207 8.6 96.1207 8.15L 96.1207 5.375L 98.5207 5.375L 98.5207 3.725L 96.1207 3.725L 96.1207 1.7L 94.1707 1.7L 94.1707 3.725L 92.1457 3.725L 92.1457 5.375L 94.1707 5.375L 94.1707 7.925C 94.1707 8.96 94.3357 9.605 94.7107 10.1C 95.2057 10.76 96.0607 11.15 97.2307 11.15C 97.6057 11.15 98.1907 11.09 98.4457 11L 98.1457 9.35ZM 2.115 33L 3.105 30.675L 7.32 30.675L 8.31 33L 10.425 33L 5.925 22.5L 4.5 22.5L 0 33L 2.115 33ZM 5.205 25.77L 6.54 28.875L 3.87 28.875L 5.205 25.77ZM 13.5047 33L 13.5047 28.275C 13.7747 27.9 14.4497 27.375 15.2747 27.375C 15.7247 27.375 16.1147 27.525 16.3697 27.78C 16.6397 28.05 16.8047 28.425 16.8047 29.145L 16.8047 33L 18.7547 33L 18.7547 29.295C 18.7547 28.05 18.4847 27.315 18.0047 26.745C 17.4047 26.025 16.4897 25.575 15.4847 25.575C 14.6747 25.575 13.9847 25.86 13.4297 26.31L 13.4297 25.725L 11.5547 25.725L 11.5547 33L 13.5047 33ZM 25.8814 30.45C 25.5064 30.99 24.8614 31.35 24.1264 31.35C 23.0314 31.35 22.2064 30.51 22.2064 29.37C 22.2064 28.32 22.9414 27.375 24.0814 27.375C 24.8314 27.375 25.4764 27.735 25.8814 28.275L 25.8814 30.45ZM 27.8314 33L 27.8314 22.35L 25.8814 22.35L 25.8814 26.25C 25.3114 25.8 24.6214 25.575 23.8264 25.575C 21.8464 25.575 20.2564 27.225 20.2564 29.37C 20.2564 30.36 20.6164 31.26 21.1864 31.92C 21.8314 32.67 22.8514 33.15 23.9314 33.15C 24.6664 33.15 25.3564 32.925 25.9564 32.415L 25.9564 33L 27.8314 33ZM 34.735 25.635C 34.525 25.605 34.36 25.575 34.075 25.575C 33.19 25.575 32.395 25.92 31.96 26.46L 31.96 25.725L 30.085 25.725L 30.085 33L 32.035 33L 32.035 28.425C 32.275 27.99 32.95 27.375 33.805 27.375C 34.09 27.375 34.375 27.405 34.51 27.45L 34.735 25.635ZM 35.6373 29.37C 35.6373 31.47 37.3023 33.15 39.5073 33.15C 41.7123 33.15 43.3773 31.47 43.3773 29.37C 43.3773 27.27 41.7123 25.575 39.5073 25.575C 37.3023 25.575 35.6373 27.27 35.6373 29.37ZM 37.5873 29.37C 37.5873 28.275 38.3673 27.375 39.5073 27.375C 40.6473 27.375 41.4273 28.275 41.4273 29.37C 41.4273 30.465 40.6473 31.35 39.5073 31.35C 38.3673 31.35 37.5873 30.465 37.5873 29.37ZM 46.9764 25.725L 45.0264 25.725L 45.0264 33L 46.9764 33L 46.9764 25.725ZM 44.7264 23.145C 44.7264 23.85 45.2964 24.39 46.0014 24.39C 46.7064 24.39 47.2764 23.85 47.2764 23.145C 47.2764 22.44 46.7064 21.9 46.0014 21.9C 45.2964 21.9 44.7264 22.44 44.7264 23.145ZM 54.2555 30.45C 53.8805 30.99 53.2355 31.35 52.5005 31.35C 51.4055 31.35 50.5805 30.51 50.5805 29.37C 50.5805 28.32 51.3155 27.375 52.4555 27.375C 53.2055 27.375 53.8505 27.735 54.2555 28.275L 54.2555 30.45ZM 56.2055 33L 56.2055 22.35L 54.2555 22.35L 54.2555 26.25C 53.6855 25.8 52.9955 25.575 52.2005 25.575C 50.2205 25.575 48.6305 27.225 48.6305 29.37C 48.6305 30.36 48.9905 31.26 49.5605 31.92C 50.2055 32.67 51.2255 33.15 52.3055 33.15C 53.0405 33.15 53.7305 32.925 54.3305 32.415L 54.3305 33L 56.2055 33Z"/>
<path id="path15_fill" d="M 2.115 11L 3.105 8.675L 7.32 8.675L 8.31 11L 10.425 11L 5.925 0.5L 4.5 0.5L 0 11L 2.115 11ZM 5.205 3.77L 6.54 6.875L 3.87 6.875L 5.205 3.77ZM 16.8047 0.335C 16.3997 0.23 16.0397 0.2 15.6497 0.2C 14.6597 0.2 13.8947 0.56 13.3847 1.055C 12.8747 1.55 12.6047 2.255 12.6047 3.425L 12.6047 3.725L 10.7297 3.725L 10.7297 5.375L 12.6047 5.375L 12.6047 11L 14.5547 11L 14.5547 5.375L 16.8047 5.375L 16.8047 3.725L 14.5547 3.725L 14.5547 3.5C 14.5547 2.825 14.6597 2.555 14.8247 2.345C 15.0647 2.06 15.4397 1.925 15.9197 1.925C 16.0997 1.925 16.3397 1.955 16.5047 2L 16.8047 0.335ZM 23.7041 0.335C 23.2991 0.23 22.9391 0.2 22.5491 0.2C 21.5591 0.2 20.7941 0.56 20.2841 1.055C 19.7741 1.55 19.5041 2.255 19.5041 3.425L 19.5041 3.725L 17.6291 3.725L 17.6291 5.375L 19.5041 5.375L 19.5041 11L 21.4541 11L 21.4541 5.375L 23.7041 5.375L 23.7041 3.725L 21.4541 3.725L 21.4541 3.5C 21.4541 2.825 21.5591 2.555 21.7241 2.345C 21.9641 2.06 22.3391 1.925 22.8191 1.925C 22.9991 1.925 23.2391 1.955 23.4041 2L 23.7041 0.335ZM 27.3035 3.725L 25.3535 3.725L 25.3535 11L 27.3035 11L 27.3035 3.725ZM 25.0535 1.145C 25.0535 1.85 25.6235 2.39 26.3285 2.39C 27.0335 2.39 27.6035 1.85 27.6035 1.145C 27.6035 0.44 27.0335 -0.1 26.3285 -0.1C 25.6235 -0.1 25.0535 0.44 25.0535 1.145ZM 31.5076 0.35L 29.5576 0.35L 29.5576 11L 31.5076 11L 31.5076 0.35ZM 35.7117 3.725L 33.7617 3.725L 33.7617 11L 35.7117 11L 35.7117 3.725ZM 33.4617 1.145C 33.4617 1.85 34.0317 2.39 34.7367 2.39C 35.4417 2.39 36.0117 1.85 36.0117 1.145C 36.0117 0.44 35.4417 -0.1 34.7367 -0.1C 34.0317 -0.1 33.4617 0.44 33.4617 1.145ZM 42.9908 8.45C 42.6158 8.99 41.9708 9.35 41.2358 9.35C 40.1408 9.35 39.3158 8.51 39.3158 7.37C 39.3158 6.32 40.0508 5.375 41.1908 5.375C 41.9408 5.375 42.5858 5.735 42.9908 6.275L 42.9908 8.45ZM 44.9408 3.725L 43.0658 3.725L 43.0658 4.31C 42.4958 3.845 41.7608 3.575 40.9358 3.575C 38.9558 3.575 37.3658 5.225 37.3658 7.37C 37.3658 8.36 37.7258 9.26 38.2958 9.92C 38.9408 10.67 39.9608 11.15 41.0408 11.15C 41.7758 11.15 42.4658 10.925 43.0658 10.415L 43.0658 11L 44.9408 11L 44.9408 3.725ZM 52.3693 9.35C 52.2343 9.38 51.8593 9.425 51.5743 9.425C 51.0943 9.425 50.7793 9.29 50.5843 9.065C 50.4193 8.87 50.3443 8.6 50.3443 8.15L 50.3443 5.375L 52.7443 5.375L 52.7443 3.725L 50.3443 3.725L 50.3443 1.7L 48.3943 1.7L 48.3943 3.725L 46.3693 3.725L 46.3693 5.375L 48.3943 5.375L 48.3943 7.925C 48.3943 8.96 48.5593 9.605 48.9343 10.1C 49.4293 10.76 50.2843 11.15 51.4543 11.15C 51.8293 11.15 52.4143 11.09 52.6693 11L 52.3693 9.35ZM 59.7061 8.735C 59.3611 9.11 58.7011 9.575 57.8761 9.575C 56.8411 9.575 56.0161 8.87 55.9111 7.85L 60.9511 7.85C 60.9811 7.685 60.9961 7.49 60.9961 7.295C 60.9961 5.27 59.5711 3.575 57.5611 3.575C 55.4011 3.575 54.0211 5.345 54.0211 7.37C 54.0211 9.65 55.6561 11.15 57.8311 11.15C 58.9561 11.15 60.1111 10.685 60.8161 9.845L 59.7061 8.735ZM 56.0011 6.425C 56.0911 5.765 56.7511 5.15 57.5611 5.15C 58.3561 5.15 58.9411 5.78 59.0011 6.425L 56.0011 6.425ZM 1.125 36.6L 3.075 36.6L 3.075 32.49C 3.66 32.94 4.29 33.15 5.025 33.15C 6.105 33.15 7.14 32.67 7.785 31.92C 8.355 31.26 8.7 30.36 8.7 29.37C 8.7 27.225 7.11 25.575 5.13 25.575C 4.305 25.575 3.57 25.845 3 26.31L 3 25.725L 1.125 25.725L 1.125 36.6ZM 3.075 28.275C 3.48 27.735 4.125 27.375 4.875 27.375C 6.015 27.375 6.75 28.32 6.75 29.37C 6.75 30.51 5.925 31.35 4.83 31.35C 4.095 31.35 3.45 30.99 3.075 30.45L 3.075 28.275ZM 15.0035 25.635C 14.7935 25.605 14.6285 25.575 14.3435 25.575C 13.4585 25.575 12.6635 25.92 12.2285 26.46L 12.2285 25.725L 10.3535 25.725L 10.3535 33L 12.3035 33L 12.3035 28.425C 12.5435 27.99 13.2185 27.375 14.0735 27.375C 14.3585 27.375 14.6435 27.405 14.7785 27.45L 15.0035 25.635ZM 15.9059 29.37C 15.9059 31.47 17.5709 33.15 19.7759 33.15C 21.9809 33.15 23.6459 31.47 23.6459 29.37C 23.6459 27.27 21.9809 25.575 19.7759 25.575C 17.5709 25.575 15.9059 27.27 15.9059 29.37ZM 17.8559 29.37C 17.8559 28.275 18.6359 27.375 19.7759 27.375C 20.9159 27.375 21.6959 28.275 21.6959 29.37C 21.6959 30.465 20.9159 31.35 19.7759 31.35C 18.6359 31.35 17.8559 30.465 17.8559 29.37ZM 32.2699 25.725L 30.3949 25.725L 30.3949 26.31C 29.8249 25.845 29.0899 25.575 28.2649 25.575C 26.2849 25.575 24.6949 27.225 24.6949 29.37C 24.6949 30.36 25.0399 31.26 25.6099 31.92C 26.2549 32.67 27.2899 33.15 28.3699 33.15C 29.1049 33.15 29.7349 32.94 30.3199 32.49L 30.3199 32.73C 30.3199 33.66 30.1699 34.11 29.8699 34.44C 29.5399 34.83 29.0149 35.025 28.3849 35.025C 27.1849 35.025 26.5099 34.395 26.1199 33.975L 24.8899 35.25C 25.6099 36.09 26.9599 36.75 28.3849 36.75C 29.7799 36.75 30.9499 36.21 31.6099 35.295C 32.0449 34.68 32.2699 33.9 32.2699 32.595L 32.2699 25.725ZM 30.3199 30.45C 29.9449 30.99 29.2999 31.35 28.5649 31.35C 27.4699 31.35 26.6449 30.51 26.6449 29.37C 26.6449 28.32 27.3799 27.375 28.5199 27.375C 29.2699 27.375 29.9149 27.735 30.3199 28.275L 30.3199 30.45ZM 39.1734 25.635C 38.9634 25.605 38.7984 25.575 38.5134 25.575C 37.6284 25.575 36.8334 25.92 36.3984 26.46L 36.3984 25.725L 34.5234 25.725L 34.5234 33L 36.4734 33L 36.4734 28.425C 36.7134 27.99 37.3884 27.375 38.2434 27.375C 38.5284 27.375 38.8134 27.405 38.9484 27.45L 39.1734 25.635ZM 45.7008 30.45C 45.3258 30.99 44.6808 31.35 43.9458 31.35C 42.8508 31.35 42.0258 30.51 42.0258 29.37C 42.0258 28.32 42.7608 27.375 43.9008 27.375C 44.6508 27.375 45.2958 27.735 45.7008 28.275L 45.7008 30.45ZM 47.6508 25.725L 45.7758 25.725L 45.7758 26.31C 45.2058 25.845 44.4708 25.575 43.6458 25.575C 41.6658 25.575 40.0758 27.225 40.0758 29.37C 40.0758 30.36 40.4358 31.26 41.0058 31.92C 41.6508 32.67 42.6708 33.15 43.7508 33.15C 44.4858 33.15 45.1758 32.925 45.7758 32.415L 45.7758 33L 47.6508 33L 47.6508 25.725ZM 51.8543 33L 51.8543 28.275C 52.1243 27.93 52.7243 27.375 53.5493 27.375C 53.9243 27.375 54.3443 27.495 54.6443 27.825C 54.8693 28.08 55.0043 28.41 55.0043 29.07L 55.0043 33L 56.9543 33L 56.9543 29.145C 56.9543 28.845 56.9243 28.575 56.8943 28.335C 57.1493 27.96 57.8093 27.375 58.6493 27.375C 59.0243 27.375 59.4443 27.495 59.7443 27.825C 59.9693 28.08 60.1043 28.41 60.1043 29.07L 60.1043 33L 62.0543 33L 62.0543 29.145C 62.0543 28.065 61.7843 27.315 61.3193 26.745C 60.7343 26.025 59.7743 25.575 58.7693 25.575C 57.6893 25.575 56.7743 26.1 56.1893 26.715C 55.6193 26.025 54.7343 25.575 53.7443 25.575C 53.0393 25.575 52.3493 25.8 51.7793 26.31L 51.7793 25.725L 49.9043 25.725L 49.9043 33L 51.8543 33ZM 70.9752 29.25C 70.9752 27.105 71.6202 25.005 72.7602 23.37L 71.3052 22.35C 69.9402 24.3 69.1752 26.7 69.1752 29.25C 69.1752 31.8 69.9402 34.2 71.3052 36.15L 72.7602 35.13C 71.6202 33.495 70.9752 31.395 70.9752 29.25ZM 76.3764 27.75C 76.3764 25.77 77.8464 24.15 79.8264 24.15C 81.8064 24.15 83.2764 25.77 83.2764 27.75C 83.2764 29.73 81.8064 31.35 79.8264 31.35C 77.8464 31.35 76.3764 29.73 76.3764 27.75ZM 74.3514 27.75C 74.3514 30.735 76.5864 33.15 79.8264 33.15C 83.0664 33.15 85.3014 30.735 85.3014 27.75C 85.3014 24.765 83.0664 22.35 79.8264 22.35C 76.5864 22.35 74.3514 24.765 74.3514 27.75ZM 86.127 22.5L 86.127 24.3L 88.902 24.3L 88.902 33L 90.927 33L 90.927 24.3L 93.702 24.3L 93.702 22.5L 86.127 22.5ZM 100.042 24.15C 101.077 24.15 101.962 24.6 102.592 25.23L 103.897 23.85C 102.952 22.935 101.617 22.35 100.057 22.35C 96.7873 22.35 94.5223 24.735 94.5223 27.75C 94.5223 30.765 96.8173 33.15 100.087 33.15C 102.007 33.15 103.567 32.325 104.497 31.14L 103.102 29.895C 102.487 30.69 101.497 31.35 100.132 31.35C 98.1073 31.35 96.5473 29.79 96.5473 27.75C 96.5473 25.755 98.0473 24.15 100.042 24.15ZM 107.72 29.25C 107.72 31.395 107.075 33.495 105.935 35.13L 107.39 36.15C 108.755 34.2 109.52 31.8 109.52 29.25C 109.52 26.7 108.755 24.3 107.39 22.35L 105.935 23.37C 107.075 25.005 107.72 27.105 107.72 29.25Z"/>
<path id="path16_fill" d="M 8.475 11L 10.5 11L 10.5 0.5L 8.475 0.5L 8.475 4.475L 3.225 4.475L 3.225 0.5L 1.2 0.5L 1.2 11L 3.225 11L 3.225 6.275L 8.475 6.275L 8.475 11ZM 17.8541 8.45C 17.4791 8.99 16.8341 9.35 16.0991 9.35C 15.0041 9.35 14.1791 8.51 14.1791 7.37C 14.1791 6.32 14.9141 5.375 16.0541 5.375C 16.8041 5.375 17.4491 5.735 17.8541 6.275L 17.8541 8.45ZM 19.8041 3.725L 17.9291 3.725L 17.9291 4.31C 17.3591 3.845 16.6241 3.575 15.7991 3.575C 13.8191 3.575 12.2291 5.225 12.2291 7.37C 12.2291 8.36 12.5891 9.26 13.1591 9.92C 13.8041 10.67 14.8241 11.15 15.9041 11.15C 16.6391 11.15 17.3291 10.925 17.9291 10.415L 17.9291 11L 19.8041 11L 19.8041 3.725ZM 26.7076 3.635C 26.4976 3.605 26.3326 3.575 26.0476 3.575C 25.1626 3.575 24.3676 3.92 23.9326 4.46L 23.9326 3.725L 22.0576 3.725L 22.0576 11L 24.0076 11L 24.0076 6.425C 24.2476 5.99 24.9226 5.375 25.7776 5.375C 26.0626 5.375 26.3476 5.405 26.4826 5.45L 26.7076 3.635ZM 33.235 8.45C 32.86 8.99 32.215 9.35 31.48 9.35C 30.385 9.35 29.56 8.51 29.56 7.37C 29.56 6.32 30.295 5.375 31.435 5.375C 32.185 5.375 32.83 5.735 33.235 6.275L 33.235 8.45ZM 35.185 11L 35.185 0.35L 33.235 0.35L 33.235 4.25C 32.665 3.8 31.975 3.575 31.18 3.575C 29.2 3.575 27.61 5.225 27.61 7.37C 27.61 8.36 27.97 9.26 28.54 9.92C 29.185 10.67 30.205 11.15 31.285 11.15C 32.02 11.15 32.71 10.925 33.31 10.415L 33.31 11L 35.185 11ZM 42.7035 6.77L 44.5335 11L 45.8835 11L 48.9435 3.725L 46.9785 3.725L 45.1935 7.97L 43.3785 3.725L 42.0285 3.725L 40.1985 7.97L 38.4285 3.725L 36.4635 3.725L 39.5235 11L 40.8735 11L 42.7035 6.77ZM 55.2369 8.45C 54.8619 8.99 54.2169 9.35 53.4819 9.35C 52.3869 9.35 51.5619 8.51 51.5619 7.37C 51.5619 6.32 52.2969 5.375 53.4369 5.375C 54.1869 5.375 54.8319 5.735 55.2369 6.275L 55.2369 8.45ZM 57.1869 3.725L 55.3119 3.725L 55.3119 4.31C 54.7419 3.845 54.0069 3.575 53.1819 3.575C 51.2019 3.575 49.6119 5.225 49.6119 7.37C 49.6119 8.36 49.9719 9.26 50.5419 9.92C 51.1869 10.67 52.2069 11.15 53.2869 11.15C 54.0219 11.15 54.7119 10.925 55.3119 10.415L 55.3119 11L 57.1869 11L 57.1869 3.725ZM 64.0904 3.635C 63.8804 3.605 63.7154 3.575 63.4304 3.575C 62.5454 3.575 61.7504 3.92 61.3154 4.46L 61.3154 3.725L 59.4404 3.725L 59.4404 11L 61.3904 11L 61.3904 6.425C 61.6304 5.99 62.3054 5.375 63.1604 5.375C 63.4454 5.375 63.7304 5.405 63.8654 5.45L 64.0904 3.635ZM 70.6778 8.735C 70.3328 9.11 69.6728 9.575 68.8478 9.575C 67.8128 9.575 66.9878 8.87 66.8828 7.85L 71.9228 7.85C 71.9528 7.685 71.9678 7.49 71.9678 7.295C 71.9678 5.27 70.5428 3.575 68.5328 3.575C 66.3728 3.575 64.9928 5.345 64.9928 7.37C 64.9928 9.65 66.6278 11.15 68.8028 11.15C 69.9278 11.15 71.0828 10.685 71.7878 9.845L 70.6778 8.735ZM 66.9728 6.425C 67.0628 5.765 67.7228 5.15 68.5328 5.15C 69.3278 5.15 69.9128 5.78 69.9728 6.425L 66.9728 6.425ZM 6.39 28.77L 8.22 33L 9.57 33L 12.63 25.725L 10.665 25.725L 8.88 29.97L 7.065 25.725L 5.715 25.725L 3.885 29.97L 2.115 25.725L 0.15 25.725L 3.21 33L 4.56 33L 6.39 28.77ZM 18.9234 30.45C 18.5484 30.99 17.9034 31.35 17.1684 31.35C 16.0734 31.35 15.2484 30.51 15.2484 29.37C 15.2484 28.32 15.9834 27.375 17.1234 27.375C 17.8734 27.375 18.5184 27.735 18.9234 28.275L 18.9234 30.45ZM 20.8734 25.725L 18.9984 25.725L 18.9984 26.31C 18.4284 25.845 17.6934 25.575 16.8684 25.575C 14.8884 25.575 13.2984 27.225 13.2984 29.37C 13.2984 30.36 13.6584 31.26 14.2284 31.92C 14.8734 32.67 15.8934 33.15 16.9734 33.15C 17.7084 33.15 18.3984 32.925 18.9984 32.415L 18.9984 33L 20.8734 33L 20.8734 25.725ZM 25.077 22.35L 23.127 22.35L 23.127 33L 25.077 33L 25.077 22.35ZM 29.2811 22.35L 27.3311 22.35L 27.3311 33L 29.2811 33L 29.2811 22.35ZM 36.6202 30.735C 36.2752 31.11 35.6152 31.575 34.7902 31.575C 33.7552 31.575 32.9302 30.87 32.8252 29.85L 37.8652 29.85C 37.8952 29.685 37.9102 29.49 37.9102 29.295C 37.9102 27.27 36.4852 25.575 34.4752 25.575C 32.3152 25.575 30.9352 27.345 30.9352 29.37C 30.9352 31.65 32.5702 33.15 34.7452 33.15C 35.8702 33.15 37.0252 32.685 37.7302 31.845L 36.6202 30.735ZM 32.9152 28.425C 33.0052 27.765 33.6652 27.15 34.4752 27.15C 35.2702 27.15 35.8552 27.78 35.9152 28.425L 32.9152 28.425ZM 44.7375 31.35C 44.6025 31.38 44.2275 31.425 43.9425 31.425C 43.4625 31.425 43.1475 31.29 42.9525 31.065C 42.7875 30.87 42.7125 30.6 42.7125 30.15L 42.7125 27.375L 45.1125 27.375L 45.1125 25.725L 42.7125 25.725L 42.7125 23.7L 40.7625 23.7L 40.7625 25.725L 38.7375 25.725L 38.7375 27.375L 40.7625 27.375L 40.7625 29.925C 40.7625 30.96 40.9275 31.605 41.3025 32.1C 41.7975 32.76 42.6525 33.15 43.8225 33.15C 44.1975 33.15 44.7825 33.09 45.0375 33L 44.7375 31.35Z"/>
<path id="path17_fill" d="M 1.2 0.5L 1.2 11L 5.295 11C 6.645 11 7.455 10.64 8.04 10.055C 8.625 9.485 9 8.675 9 7.79C 9 6.62 8.355 5.57 7.425 5.105C 7.77 4.745 8.1 4.04 8.1 3.35C 8.1 2.495 7.71 1.745 7.125 1.235C 6.615 0.785 5.955 0.5 4.77 0.5L 1.2 0.5ZM 3.225 2.3L 4.65 2.3C 5.28 2.3 5.565 2.45 5.775 2.675C 5.955 2.87 6.075 3.14 6.075 3.425C 6.075 3.71 5.955 3.98 5.775 4.175C 5.565 4.4 5.28 4.55 4.65 4.55L 3.225 4.55L 3.225 2.3ZM 3.225 9.2L 3.225 6.35L 5.25 6.35C 5.955 6.35 6.345 6.53 6.6 6.815C 6.84 7.07 6.975 7.4 6.975 7.775C 6.975 8.15 6.84 8.48 6.6 8.735C 6.345 9.02 5.955 9.2 5.25 9.2L 3.225 9.2ZM 10.575 0.5L 10.575 11L 14.67 11C 16.02 11 16.83 10.64 17.415 10.055C 18 9.485 18.375 8.675 18.375 7.79C 18.375 6.62 17.73 5.57 16.8 5.105C 17.145 4.745 17.475 4.04 17.475 3.35C 17.475 2.495 17.085 1.745 16.5 1.235C 15.99 0.785 15.33 0.5 14.145 0.5L 10.575 0.5ZM 12.6 2.3L 14.025 2.3C 14.655 2.3 14.94 2.45 15.15 2.675C 15.33 2.87 15.45 3.14 15.45 3.425C 15.45 3.71 15.33 3.98 15.15 4.175C 14.94 4.4 14.655 4.55 14.025 4.55L 12.6 4.55L 12.6 2.3ZM 12.6 9.2L 12.6 6.35L 14.625 6.35C 15.33 6.35 15.72 6.53 15.975 6.815C 16.215 7.07 16.35 7.4 16.35 7.775C 16.35 8.15 16.215 8.48 15.975 8.735C 15.72 9.02 15.33 9.2 14.625 9.2L 12.6 9.2ZM 18.9 9.575C 19.98 10.565 21.285 11.15 22.695 11.15C 24.585 11.15 26.25 9.86 26.25 8C 26.25 4.46 21.405 4.985 21.405 3.29C 21.405 2.48 22.26 2.15 23.025 2.15C 23.715 2.15 24.42 2.45 24.84 2.84L 25.89 1.34C 24.9 0.605 23.91 0.35 22.845 0.35C 21.105 0.35 19.38 1.43 19.38 3.305C 19.38 4.49 20.04 5.21 20.865 5.69C 22.275 6.515 24.225 6.68 24.225 8.03C 24.225 8.795 23.595 9.35 22.695 9.35C 21.735 9.35 20.82 8.855 20.22 8.195L 18.9 9.575Z"/>
<path id="path18_fill" d="M 8.175 5.75C 8.175 6.62 7.89 7.43 7.41 8.03C 6.825 8.765 5.97 9.2 4.725 9.2L 3.225 9.2L 3.225 2.3L 4.725 2.3C 5.97 2.3 6.825 2.735 7.41 3.47C 7.89 4.07 8.175 4.88 8.175 5.75ZM 1.2 0.5L 1.2 11L 4.5 11C 6.165 11 7.26 10.64 8.115 10.01C 9.405 9.05 10.2 7.49 10.2 5.75C 10.2 4.01 9.405 2.45 8.115 1.49C 7.26 0.86 6.165 0.5 4.5 0.5L 1.2 0.5ZM 16.8594 8.735C 16.5144 9.11 15.8544 9.575 15.0294 9.575C 13.9944 9.575 13.1694 8.87 13.0644 7.85L 18.1044 7.85C 18.1344 7.685 18.1494 7.49 18.1494 7.295C 18.1494 5.27 16.7244 3.575 14.7144 3.575C 12.5544 3.575 11.1744 5.345 11.1744 7.37C 11.1744 9.65 12.8094 11.15 14.9844 11.15C 16.1094 11.15 17.2644 10.685 17.9694 9.845L 16.8594 8.735ZM 13.1544 6.425C 13.2444 5.765 13.9044 5.15 14.7144 5.15C 15.5094 5.15 16.0944 5.78 16.1544 6.425L 13.1544 6.425ZM 19.0818 10.175C 19.9368 10.805 21.0018 11.15 22.0068 11.15C 23.5368 11.15 24.9018 10.295 24.9018 8.9C 24.9018 6.38 21.3768 6.755 21.3768 5.81C 21.3768 5.435 21.8268 5.225 22.3668 5.225C 22.8918 5.225 23.3868 5.45 23.7618 5.72L 24.6768 4.31C 24.1968 3.935 23.1618 3.575 22.2168 3.575C 20.7768 3.575 19.4268 4.445 19.4268 5.84C 19.4268 8.18 22.9518 7.79 22.9518 8.885C 22.9518 9.245 22.5468 9.5 22.0218 9.5C 21.2868 9.5 20.5218 9.23 20.0268 8.78L 19.0818 10.175ZM 33.9012 3.725L 31.1562 3.725L 28.6512 6.08L 28.6512 0.35L 26.7012 0.35L 26.7012 11L 28.6512 11L 28.6512 7.85L 31.7262 11L 34.3512 11L 30.3462 6.995L 33.9012 3.725ZM 40.7971 9.35C 40.6621 9.38 40.2871 9.425 40.0021 9.425C 39.5221 9.425 39.2071 9.29 39.0121 9.065C 38.8471 8.87 38.7721 8.6 38.7721 8.15L 38.7721 5.375L 41.1721 5.375L 41.1721 3.725L 38.7721 3.725L 38.7721 1.7L 36.8221 1.7L 36.8221 3.725L 34.7971 3.725L 34.7971 5.375L 36.8221 5.375L 36.8221 7.925C 36.8221 8.96 36.9871 9.605 37.3621 10.1C 37.8571 10.76 38.7121 11.15 39.8821 11.15C 40.2571 11.15 40.8421 11.09 41.0971 11L 40.7971 9.35ZM 42.4488 7.37C 42.4488 9.47 44.1138 11.15 46.3188 11.15C 48.5238 11.15 50.1888 9.47 50.1888 7.37C 50.1888 5.27 48.5238 3.575 46.3188 3.575C 44.1138 3.575 42.4488 5.27 42.4488 7.37ZM 44.3988 7.37C 44.3988 6.275 45.1788 5.375 46.3188 5.375C 47.4588 5.375 48.2388 6.275 48.2388 7.37C 48.2388 8.465 47.4588 9.35 46.3188 9.35C 45.1788 9.35 44.3988 8.465 44.3988 7.37ZM 51.8379 14.6L 53.7879 14.6L 53.7879 10.49C 54.3729 10.94 55.0029 11.15 55.7379 11.15C 56.8179 11.15 57.8529 10.67 58.4979 9.92C 59.0679 9.26 59.4129 8.36 59.4129 7.37C 59.4129 5.225 57.8229 3.575 55.8429 3.575C 55.0179 3.575 54.2829 3.845 53.7129 4.31L 53.7129 3.725L 51.8379 3.725L 51.8379 14.6ZM 53.7879 6.275C 54.1929 5.735 54.8379 5.375 55.5879 5.375C 56.7279 5.375 57.4629 6.32 57.4629 7.37C 57.4629 8.51 56.6379 9.35 55.5429 9.35C 54.8079 9.35 54.1629 8.99 53.7879 8.45L 53.7879 6.275ZM 60.9914 6.275L 60.9914 7.925L 65.9414 7.925L 65.9414 6.275L 60.9914 6.275ZM 70.0623 0.35L 68.1123 0.35L 68.1123 11L 70.0623 11L 70.0623 0.35ZM 74.2664 3.725L 72.3164 3.725L 72.3164 11L 74.2664 11L 74.2664 3.725ZM 72.0164 1.145C 72.0164 1.85 72.5864 2.39 73.2914 2.39C 73.9964 2.39 74.5664 1.85 74.5664 1.145C 74.5664 0.44 73.9964 -0.1 73.2914 -0.1C 72.5864 -0.1 72.0164 0.44 72.0164 1.145ZM 81.6955 9.35C 81.5605 9.38 81.1855 9.425 80.9005 9.425C 80.4205 9.425 80.1055 9.29 79.9105 9.065C 79.7455 8.87 79.6705 8.6 79.6705 8.15L 79.6705 5.375L 82.0705 5.375L 82.0705 3.725L 79.6705 3.725L 79.6705 1.7L 77.7205 1.7L 77.7205 3.725L 75.6955 3.725L 75.6955 5.375L 77.7205 5.375L 77.7205 7.925C 77.7205 8.96 77.8855 9.605 78.2605 10.1C 78.7555 10.76 79.6105 11.15 80.7805 11.15C 81.1555 11.15 81.7405 11.09 81.9955 11L 81.6955 9.35ZM 89.0323 8.735C 88.6873 9.11 88.0273 9.575 87.2023 9.575C 86.1673 9.575 85.3423 8.87 85.2373 7.85L 90.2773 7.85C 90.3073 7.685 90.3223 7.49 90.3223 7.295C 90.3223 5.27 88.8973 3.575 86.8873 3.575C 84.7273 3.575 83.3473 5.345 83.3473 7.37C 83.3473 9.65 84.9823 11.15 87.1573 11.15C 88.2823 11.15 89.4373 10.685 90.1423 9.845L 89.0323 8.735ZM 85.3273 6.425C 85.4173 5.765 86.0773 5.15 86.8873 5.15C 87.6823 5.15 88.2673 5.78 88.3273 6.425L 85.3273 6.425ZM 3.63 33L 5.055 33L 7.38 26.355L 9.72 33L 11.145 33L 14.625 22.5L 12.585 22.5L 10.41 29.055L 8.1 22.5L 6.675 22.5L 4.365 29.055L 2.19 22.5L 0.15 22.5L 3.63 33ZM 20.9303 30.45C 20.5553 30.99 19.9103 31.35 19.1753 31.35C 18.0803 31.35 17.2553 30.51 17.2553 29.37C 17.2553 28.32 17.9903 27.375 19.1303 27.375C 19.8803 27.375 20.5253 27.735 20.9303 28.275L 20.9303 30.45ZM 22.8803 25.725L 21.0053 25.725L 21.0053 26.31C 20.4353 25.845 19.7003 25.575 18.8753 25.575C 16.8953 25.575 15.3053 27.225 15.3053 29.37C 15.3053 30.36 15.6653 31.26 16.2353 31.92C 16.8803 32.67 17.9003 33.15 18.9803 33.15C 19.7153 33.15 20.4053 32.925 21.0053 32.415L 21.0053 33L 22.8803 33L 22.8803 25.725ZM 27.0838 22.35L 25.1338 22.35L 25.1338 33L 27.0838 33L 27.0838 22.35ZM 31.2879 22.35L 29.3379 22.35L 29.3379 33L 31.2879 33L 31.2879 22.35ZM 38.627 30.735C 38.282 31.11 37.622 31.575 36.797 31.575C 35.762 31.575 34.937 30.87 34.832 29.85L 39.872 29.85C 39.902 29.685 39.917 29.49 39.917 29.295C 39.917 27.27 38.492 25.575 36.482 25.575C 34.322 25.575 32.942 27.345 32.942 29.37C 32.942 31.65 34.577 33.15 36.752 33.15C 37.877 33.15 39.032 32.685 39.737 31.845L 38.627 30.735ZM 34.922 28.425C 35.012 27.765 35.672 27.15 36.482 27.15C 37.277 27.15 37.862 27.78 37.922 28.425L 34.922 28.425ZM 46.7443 31.35C 46.6093 31.38 46.2343 31.425 45.9493 31.425C 45.4693 31.425 45.1543 31.29 44.9593 31.065C 44.7943 30.87 44.7193 30.6 44.7193 30.15L 44.7193 27.375L 47.1193 27.375L 47.1193 25.725L 44.7193 25.725L 44.7193 23.7L 42.7693 23.7L 42.7693 25.725L 40.7443 25.725L 40.7443 27.375L 42.7693 27.375L 42.7693 29.925C 42.7693 30.96 42.9343 31.605 43.3093 32.1C 43.8043 32.76 44.6593 33.15 45.8293 33.15C 46.2043 33.15 46.7893 33.09 47.0443 33L 46.7443 31.35Z"/>
<path id="path19_fill" d="M 3.63 11L 5.055 11L 7.38 4.355L 9.72 11L 11.145 11L 14.625 0.5L 12.585 0.5L 10.41 7.055L 8.1 0.5L 6.675 0.5L 4.365 7.055L 2.19 0.5L 0.15 0.5L 3.63 11ZM 20.9903 8.735C 20.6453 9.11 19.9853 9.575 19.1603 9.575C 18.1253 9.575 17.3003 8.87 17.1953 7.85L 22.2353 7.85C 22.2653 7.685 22.2803 7.49 22.2803 7.295C 22.2803 5.27 20.8553 3.575 18.8453 3.575C 16.6853 3.575 15.3053 5.345 15.3053 7.37C 15.3053 9.65 16.9403 11.15 19.1153 11.15C 20.2403 11.15 21.3953 10.685 22.1003 9.845L 20.9903 8.735ZM 17.2853 6.425C 17.3753 5.765 18.0353 5.15 18.8453 5.15C 19.6403 5.15 20.2253 5.78 20.2853 6.425L 17.2853 6.425ZM 25.8826 6.275C 26.2876 5.735 26.9326 5.375 27.6826 5.375C 28.8226 5.375 29.5576 6.32 29.5576 7.37C 29.5576 8.51 28.7326 9.35 27.6376 9.35C 26.9026 9.35 26.2576 8.99 25.8826 8.45L 25.8826 6.275ZM 25.8076 11L 25.8076 10.415C 26.4076 10.925 27.0976 11.15 27.8326 11.15C 28.9126 11.15 29.9326 10.67 30.5776 9.92C 31.1476 9.26 31.5076 8.36 31.5076 7.37C 31.5076 5.225 29.9176 3.575 27.9376 3.575C 27.1426 3.575 26.4526 3.8 25.8826 4.25L 25.8826 0.35L 23.9326 0.35L 23.9326 11L 25.8076 11ZM 39.7091 11L 41.1341 11L 43.4591 4.355L 45.7991 11L 47.2241 11L 50.7041 0.5L 48.6641 0.5L 46.4891 7.055L 44.1791 0.5L 42.7541 0.5L 40.4441 7.055L 38.2691 0.5L 36.2291 0.5L 39.7091 11ZM 57.0094 8.45C 56.6344 8.99 55.9894 9.35 55.2544 9.35C 54.1594 9.35 53.3344 8.51 53.3344 7.37C 53.3344 6.32 54.0694 5.375 55.2094 5.375C 55.9594 5.375 56.6044 5.735 57.0094 6.275L 57.0094 8.45ZM 58.9594 3.725L 57.0844 3.725L 57.0844 4.31C 56.5144 3.845 55.7794 3.575 54.9544 3.575C 52.9744 3.575 51.3844 5.225 51.3844 7.37C 51.3844 8.36 51.7444 9.26 52.3144 9.92C 52.9594 10.67 53.9794 11.15 55.0594 11.15C 55.7944 11.15 56.4844 10.925 57.0844 10.415L 57.0844 11L 58.9594 11L 58.9594 3.725ZM 63.1629 0.35L 61.2129 0.35L 61.2129 11L 63.1629 11L 63.1629 0.35ZM 67.367 0.35L 65.417 0.35L 65.417 11L 67.367 11L 67.367 0.35ZM 74.7061 8.735C 74.3611 9.11 73.7011 9.575 72.8761 9.575C 71.8411 9.575 71.0161 8.87 70.9111 7.85L 75.9511 7.85C 75.9811 7.685 75.9961 7.49 75.9961 7.295C 75.9961 5.27 74.5711 3.575 72.5611 3.575C 70.4011 3.575 69.0211 5.345 69.0211 7.37C 69.0211 9.65 70.6561 11.15 72.8311 11.15C 73.9561 11.15 75.1111 10.685 75.8161 9.845L 74.7061 8.735ZM 71.0011 6.425C 71.0911 5.765 71.7511 5.15 72.5611 5.15C 73.3561 5.15 73.9411 5.78 74.0011 6.425L 71.0011 6.425ZM 82.8234 9.35C 82.6884 9.38 82.3134 9.425 82.0284 9.425C 81.5484 9.425 81.2334 9.29 81.0384 9.065C 80.8734 8.87 80.7984 8.6 80.7984 8.15L 80.7984 5.375L 83.1984 5.375L 83.1984 3.725L 80.7984 3.725L 80.7984 1.7L 78.8484 1.7L 78.8484 3.725L 76.8234 3.725L 76.8234 5.375L 78.8484 5.375L 78.8484 7.925C 78.8484 8.96 79.0134 9.605 79.3884 10.1C 79.8834 10.76 80.7384 11.15 81.9084 11.15C 82.2834 11.15 82.8684 11.09 83.1234 11L 82.8234 9.35Z"/>
<path id="path20_fill" fill-rule="evenodd" d="M 1140 3L 0 3L 0 0L 1140 0L 1140 3Z"/>
<path id="path21_fill" fill-rule="evenodd" d="M 1074 3L 0 3L 0 0L 1074 0L 1074 3Z"/>
<path id="path22_fill" fill-rule="evenodd" d="M 1012 3L 0 3L 0 0L 1012 0L 1012 3Z"/>
<path id="path23_fill" fill-rule="evenodd" d="M 947 3L 0 3L 0 0L 947 0L 947 3Z"/>
<path id="path24_fill" fill-rule="evenodd" d="M 887 3L 0 3L 0 0L 887 0L 887 3Z"/>
<path id="path25_fill" fill-rule="evenodd" d="M 822 3L 0 3L 0 0L 822 0L 822 3Z"/>
<path id="path26_fill" fill-rule="evenodd" d="M 761 3L 0 3L 0 0L 761 0L 761 3Z"/>
<path id="path27_fill" fill-rule="evenodd" d="M 697 3L 0 3L 0 0L 697 0L 697 3Z"/>
<path id="path28_fill" fill-rule="evenodd" d="M 637 3L 0 3L 0 0L 637 0L 637 3Z"/>
<path id="path29_fill" fill-rule="evenodd" d="M 571 3L 0 3L 0 0L 571 0L 571 3Z"/>
<path id="path30_fill" fill-rule="evenodd" d="M 510 3L 0 3L 0 0L 510 0L 510 3Z"/>
<path id="path31_fill" fill-rule="evenodd" d="M 444 3L 0 3L 0 0L 444 0L 444 3Z"/>
<path id="path32_fill" fill-rule="evenodd" d="M 380 3L 0 3L 0 0L 380 0L 380 3Z"/>
<path id="path33_fill" fill-rule="evenodd" d="M 318 3L 0 3L 0 0L 318 0L 318 3Z"/>
<path id="path34_fill" fill-rule="evenodd" d="M 256 3L 0 3L 0 0L 256 0L 256 3Z"/>
<path id="path35_fill" fill-rule="evenodd" d="M 183 3L 0 3L 0 0L 183 0L 183 3Z"/>
<path id="path36_fill" fill-rule="evenodd" d="M 120.602 3L 0 3L 0 0L 120.602 0L 120.602 3Z"/>
<path id="path37_stroke" d="M 0.5 221L 0.5 0L -0.5 0L -0.5 221L 0.5 221Z"/>
<path id="path38_stroke" d="M 0.5 201L 0.5 0L -0.5 0L -0.5 201L 0.5 201Z"/>
<path id="path39_stroke" d="M 0.5 179L 0.5 0L -0.5 0L -0.5 179L 0.5 179Z"/>
<path id="path40_stroke" d="M 0.5 155L 0.5 0L -0.5 0L -0.5 155L 0.5 155Z"/>
<path id="path41_stroke" d="M 0.5 135L 0.5 0L -0.5 0L -0.5 135L 0.5 135Z"/>
<path id="path42_stroke" d="M 0.5 116L 0.5 0L -0.5 0L -0.5 116L 0.5 116Z"/>
<path id="path43_stroke" d="M 0.5 48L 0.5 0L -0.5 0L -0.5 48L 0.5 48Z"/>
<path id="path44_stroke" d="M 0.5 68L 0.5 0L -0.5 0L -0.5 68L 0.5 68Z"/>
<path id="path45_stroke" d="M 0.5 88L 0.5 0L -0.5 0L -0.5 88L 0.5 88Z"/>
<path id="path46_stroke" d="M 0.5 108L 0.5 0L -0.5 0L -0.5 108L 0.5 108Z"/>
<path id="path47_stroke" d="M 0.5 128L 0.5 0L -0.5 0L -0.5 128L 0.5 128Z"/>
<path id="path48_stroke" d="M 0.5 148L 0.5 0L -0.5 0L -0.5 148L 0.5 148Z"/>
<path id="path49_stroke" d="M 0.5 168L 0.5 0L -0.5 0L -0.5 168L 0.5 168Z"/>
<path id="path50_stroke" d="M 0.5 97L 0.5 0L -0.5 0L -0.5 97L 0.5 97Z"/>
<path id="path51_stroke" d="M 0.5 78L 0.5 0L -0.5 0L -0.5 78L 0.5 78Z"/>
<path id="path52_stroke" d="M 0.5 188L 0.5 0L -0.5 0L -0.5 188L 0.5 188Z"/>
<path id="path53_stroke" d="M 0.5 208L 0.5 0L -0.5 0L -0.5 208L 0.5 208Z"/>
</defs>
</svg>
