<?xml version="1.0" encoding="UTF-8"?>
<svg width="273px" height="721px" viewBox="0 0 273 721" version="1.1" xmlns="http://www.w3.org/2000/svg" xmlns:xlink="http://www.w3.org/1999/xlink">
    <!-- Generator: Sketch 49.1 (51147) - http://www.bohemiancoding.com/sketch -->
    <title>Artboard</title>
    <desc>Created with Sketch.</desc>
    <defs>
        <polygon id="path-1" points="-22 -88 297 -88 297 775 -22 775"></polygon>
    </defs>
    <g id="Artboard" stroke="none" stroke-width="1" fill="none" fill-rule="evenodd">
        <mask id="mask-2" fill="white">
            <use xlink:href="#path-1"></use>
        </mask>
        <g id="Shape"></g>
        <g id="development-roadmap" mask="url(#mask-2)" fill-rule="nonzero">
            <g id="OTC" transform="translate(97.000000, 9.000000)" fill="#333333">
                <g id="path1_fill-link">
                    <path d="M2.475,5.75 C2.475,3.77 3.945,2.15 5.925,2.15 C7.905,2.15 9.375,3.77 9.375,5.75 C9.375,7.73 7.905,9.35 5.925,9.35 C3.945,9.35 2.475,7.73 2.475,5.75 Z M0.45,5.75 C0.45,8.735 2.685,11.15 5.925,11.15 C9.165,11.15 11.4,8.735 11.4,5.75 C11.4,2.765 9.165,0.35 5.925,0.35 C2.685,0.35 0.45,2.765 0.45,5.75 Z M12.2256,0.5 L12.2256,2.3 L15.0006,2.3 L15.0006,11 L17.0256,11 L17.0256,2.3 L19.8006,2.3 L19.8006,0.5 L12.2256,0.5 Z M26.1409,2.15 C27.1759,2.15 28.0609,2.6 28.6909,3.23 L29.9959,1.85 C29.0509,0.935 27.7159,0.35 26.1559,0.35 C22.8859,0.35 20.6209,2.735 20.6209,5.75 C20.6209,8.765 22.9159,11.15 26.1859,11.15 C28.1059,11.15 29.6659,10.325 30.5959,9.14 L29.2009,7.895 C28.5859,8.69 27.5959,9.35 26.2309,9.35 C24.2059,9.35 22.6459,7.79 22.6459,5.75 C22.6459,3.755 24.1459,2.15 26.1409,2.15 Z" id="path1_fill"></path>
                </g>
            </g>
            <g id="Wallet-Encryption" transform="translate(97.000000, 53.000000)" fill="#333333">
                <g id="path2_fill-link">
                    <path d="M3.63,12 L5.055,12 L7.38,5.355 L9.72,12 L11.145,12 L14.625,1.5 L12.585,1.5 L10.41,8.055 L8.1,1.5 L6.675,1.5 L4.365,8.055 L2.19,1.5 L0.15,1.5 L3.63,12 Z M20.9303,9.45 C20.5553,9.99 19.9103,10.35 19.1753,10.35 C18.0803,10.35 17.2553,9.51 17.2553,8.37 C17.2553,7.32 17.9903,6.375 19.1303,6.375 C19.8803,6.375 20.5253,6.735 20.9303,7.275 L20.9303,9.45 Z M22.8803,4.725 L21.0053,4.725 L21.0053,5.31 C20.4353,4.845 19.7003,4.575 18.8753,4.575 C16.8953,4.575 15.3053,6.225 15.3053,8.37 C15.3053,9.36 15.6653,10.26 16.2353,10.92 C16.8803,11.67 17.9003,12.15 18.9803,12.15 C19.7153,12.15 20.4053,11.925 21.0053,11.415 L21.0053,12 L22.8803,12 L22.8803,4.725 Z M27.0838,1.35 L25.1338,1.35 L25.1338,12 L27.0838,12 L27.0838,1.35 Z M31.2879,1.35 L29.3379,1.35 L29.3379,12 L31.2879,12 L31.2879,1.35 Z M38.627,9.735 C38.282,10.11 37.622,10.575 36.797,10.575 C35.762,10.575 34.937,9.87 34.832,8.85 L39.872,8.85 C39.902,8.685 39.917,8.49 39.917,8.295 C39.917,6.27 38.492,4.575 36.482,4.575 C34.322,4.575 32.942,6.345 32.942,8.37 C32.942,10.65 34.577,12.15 36.752,12.15 C37.877,12.15 39.032,11.685 39.737,10.845 L38.627,9.735 Z M34.922,7.425 C35.012,6.765 35.672,6.15 36.482,6.15 C37.277,6.15 37.862,6.78 37.922,7.425 L34.922,7.425 Z M46.7443,10.35 C46.6093,10.38 46.2343,10.425 45.9493,10.425 C45.4693,10.425 45.1543,10.29 44.9593,10.065 C44.7943,9.87 44.7193,9.6 44.7193,9.15 L44.7193,6.375 L47.1193,6.375 L47.1193,4.725 L44.7193,4.725 L44.7193,2.7 L42.7693,2.7 L42.7693,4.725 L40.7443,4.725 L40.7443,6.375 L42.7693,6.375 L42.7693,8.925 C42.7693,9.96 42.9343,10.605 43.3093,11.1 C43.8043,11.76 44.6593,12.15 45.8293,12.15 C46.2043,12.15 46.7893,12.09 47.0443,12 L46.7443,10.35 Z M59.4141,3.3 L59.4141,1.5 L53.1141,1.5 L53.1141,12 L59.5641,12 L59.5641,10.2 L55.1391,10.2 L55.1391,7.275 L58.3641,7.275 L58.3641,5.475 L55.1391,5.475 L55.1391,3.3 L59.4141,3.3 Z M63.2361,12 L63.2361,7.275 C63.5061,6.9 64.1811,6.375 65.0061,6.375 C65.4561,6.375 65.8461,6.525 66.1011,6.78 C66.3711,7.05 66.5361,7.425 66.5361,8.145 L66.5361,12 L68.4861,12 L68.4861,8.295 C68.4861,7.05 68.2161,6.315 67.7361,5.745 C67.1361,5.025 66.2211,4.575 65.2161,4.575 C64.4061,4.575 63.7161,4.86 63.1611,5.31 L63.1611,4.725 L61.2861,4.725 L61.2861,12 L63.2361,12 Z M75.6879,9.39 C75.3729,9.87 74.7429,10.35 73.9479,10.35 C72.7629,10.35 71.9379,9.51 71.9379,8.37 C71.9379,7.26 72.7779,6.375 73.9029,6.375 C74.6079,6.375 75.1929,6.735 75.5829,7.245 L76.9629,6.03 C76.2879,5.16 75.1629,4.575 73.9029,4.575 C71.6829,4.575 69.9879,6.255 69.9879,8.37 C69.9879,10.47 71.6379,12.15 73.8879,12.15 C75.2529,12.15 76.3329,11.655 77.1879,10.515 L75.6879,9.39 Z M83.3385,4.635 C83.1285,4.605 82.9635,4.575 82.6785,4.575 C81.7935,4.575 80.9985,4.92 80.5635,5.46 L80.5635,4.725 L78.6885,4.725 L78.6885,12 L80.6385,12 L80.6385,7.425 C80.8785,6.99 81.5535,6.375 82.4085,6.375 C82.6935,6.375 82.9785,6.405 83.1135,6.45 L83.3385,4.635 Z M87.1508,15.6 L92.1608,4.725 L90.1058,4.725 L88.1408,9.09 L86.0108,4.725 L83.8658,4.725 L87.1208,11.265 L85.1108,15.6 L87.1508,15.6 Z M93.4395,15.6 L95.3895,15.6 L95.3895,11.49 C95.9745,11.94 96.6045,12.15 97.3395,12.15 C98.4195,12.15 99.4545,11.67 100.099,10.92 C100.669,10.26 101.014,9.36 101.014,8.37 C101.014,6.225 99.4245,4.575 97.4445,4.575 C96.6195,4.575 95.8845,4.845 95.3145,5.31 L95.3145,4.725 L93.4395,4.725 L93.4395,15.6 Z M95.3895,7.275 C95.7945,6.735 96.4395,6.375 97.1895,6.375 C98.3295,6.375 99.0645,7.32 99.0645,8.37 C99.0645,9.51 98.2395,10.35 97.1445,10.35 C96.4095,10.35 95.7645,9.99 95.3895,9.45 L95.3895,7.275 Z M107.843,10.35 C107.708,10.38 107.333,10.425 107.048,10.425 C106.568,10.425 106.253,10.29 106.058,10.065 C105.893,9.87 105.818,9.6 105.818,9.15 L105.818,6.375 L108.218,6.375 L108.218,4.725 L105.818,4.725 L105.818,2.7 L103.868,2.7 L103.868,4.725 L101.843,4.725 L101.843,6.375 L103.868,6.375 L103.868,8.925 C103.868,9.96 104.033,10.605 104.408,11.1 C104.903,11.76 105.758,12.15 106.928,12.15 C107.303,12.15 107.888,12.09 108.143,12 L107.843,10.35 Z M112.045,4.725 L110.095,4.725 L110.095,12 L112.045,12 L112.045,4.725 Z M109.795,2.145 C109.795,2.85 110.365,3.39 111.07,3.39 C111.775,3.39 112.345,2.85 112.345,2.145 C112.345,1.44 111.775,0.9 111.07,0.9 C110.365,0.9 109.795,1.44 109.795,2.145 Z M113.699,8.37 C113.699,10.47 115.364,12.15 117.569,12.15 C119.774,12.15 121.439,10.47 121.439,8.37 C121.439,6.27 119.774,4.575 117.569,4.575 C115.364,4.575 113.699,6.27 113.699,8.37 Z M115.649,8.37 C115.649,7.275 116.429,6.375 117.569,6.375 C118.709,6.375 119.489,7.275 119.489,8.37 C119.489,9.465 118.709,10.35 117.569,10.35 C116.429,10.35 115.649,9.465 115.649,8.37 Z M125.038,12 L125.038,7.275 C125.308,6.9 125.983,6.375 126.808,6.375 C127.258,6.375 127.648,6.525 127.903,6.78 C128.173,7.05 128.338,7.425 128.338,8.145 L128.338,12 L130.288,12 L130.288,8.295 C130.288,7.05 130.018,6.315 129.538,5.745 C128.938,5.025 128.023,4.575 127.018,4.575 C126.208,4.575 125.518,4.86 124.963,5.31 L124.963,4.725 L123.088,4.725 L123.088,12 L125.038,12 Z" id="path2_fill"></path>
                </g>
            </g>
            <g id="Skyledger-support-desk" transform="translate(97.000000, 95.000000)" fill="#333333">
                <g id="path3_fill-link">
                    <path d="M0.15,9.575 C1.23,10.565 2.535,11.15 3.945,11.15 C5.835,11.15 7.5,9.86 7.5,8 C7.5,4.46 2.655,4.985 2.655,3.29 C2.655,2.48 3.51,2.15 4.275,2.15 C4.965,2.15 5.67,2.45 6.09,2.84 L7.14,1.34 C6.15,0.605 5.16,0.35 4.095,0.35 C2.355,0.35 0.63,1.43 0.63,3.305 C0.63,4.49 1.29,5.21 2.115,5.69 C3.525,6.515 5.475,6.68 5.475,8.03 C5.475,8.795 4.845,9.35 3.945,9.35 C2.985,9.35 2.07,8.855 1.47,8.195 L0.15,9.575 Z M16.3523,3.725 L13.6073,3.725 L11.1023,6.08 L11.1023,0.35 L9.15234,0.35 L9.15234,11 L11.1023,11 L11.1023,7.85 L14.1773,11 L16.8023,11 L12.7973,6.995 L16.3523,3.725 Z M20.3832,14.6 L25.3932,3.725 L23.3382,3.725 L21.3732,8.09 L19.2432,3.725 L17.0982,3.725 L20.3532,10.265 L18.3432,14.6 L20.3832,14.6 Z M28.6219,0.35 L26.6719,0.35 L26.6719,11 L28.6219,11 L28.6219,0.35 Z M35.961,8.735 C35.616,9.11 34.956,9.575 34.131,9.575 C33.096,9.575 32.271,8.87 32.166,7.85 L37.206,7.85 C37.236,7.685 37.251,7.49 37.251,7.295 C37.251,5.27 35.826,3.575 33.816,3.575 C31.656,3.575 30.276,5.345 30.276,7.37 C30.276,9.65 31.911,11.15 34.086,11.15 C35.211,11.15 36.366,10.685 37.071,9.845 L35.961,8.735 Z M32.256,6.425 C32.346,5.765 33.006,5.15 33.816,5.15 C34.611,5.15 35.196,5.78 35.256,6.425 L32.256,6.425 Z M43.9283,8.45 C43.5533,8.99 42.9083,9.35 42.1733,9.35 C41.0783,9.35 40.2533,8.51 40.2533,7.37 C40.2533,6.32 40.9883,5.375 42.1283,5.375 C42.8783,5.375 43.5233,5.735 43.9283,6.275 L43.9283,8.45 Z M45.8783,11 L45.8783,0.35 L43.9283,0.35 L43.9283,4.25 C43.3583,3.8 42.6683,3.575 41.8733,3.575 C39.8933,3.575 38.3033,5.225 38.3033,7.37 C38.3033,8.36 38.6633,9.26 39.2333,9.92 C39.8783,10.67 40.8983,11.15 41.9783,11.15 C42.7133,11.15 43.4033,10.925 44.0033,10.415 L44.0033,11 L45.8783,11 Z M55.1068,3.725 L53.2318,3.725 L53.2318,4.31 C52.6618,3.845 51.9268,3.575 51.1018,3.575 C49.1218,3.575 47.5318,5.225 47.5318,7.37 C47.5318,8.36 47.8768,9.26 48.4468,9.92 C49.0918,10.67 50.1268,11.15 51.2068,11.15 C51.9418,11.15 52.5718,10.94 53.1568,10.49 L53.1568,10.73 C53.1568,11.66 53.0068,12.11 52.7068,12.44 C52.3768,12.83 51.8518,13.025 51.2218,13.025 C50.0218,13.025 49.3468,12.395 48.9568,11.975 L47.7268,13.25 C48.4468,14.09 49.7968,14.75 51.2218,14.75 C52.6168,14.75 53.7868,14.21 54.4468,13.295 C54.8818,12.68 55.1068,11.9 55.1068,10.595 L55.1068,3.725 Z M53.1568,8.45 C52.7818,8.99 52.1368,9.35 51.4018,9.35 C50.3068,9.35 49.4818,8.51 49.4818,7.37 C49.4818,6.32 50.2168,5.375 51.3568,5.375 C52.1068,5.375 52.7518,5.735 53.1568,6.275 L53.1568,8.45 Z M62.4454,8.735 C62.1004,9.11 61.4404,9.575 60.6154,9.575 C59.5804,9.575 58.7554,8.87 58.6504,7.85 L63.6904,7.85 C63.7204,7.685 63.7354,7.49 63.7354,7.295 C63.7354,5.27 62.3104,3.575 60.3004,3.575 C58.1404,3.575 56.7604,5.345 56.7604,7.37 C56.7604,9.65 58.3954,11.15 60.5704,11.15 C61.6954,11.15 62.8504,10.685 63.5554,9.845 L62.4454,8.735 Z M58.7404,6.425 C58.8304,5.765 59.4904,5.15 60.3004,5.15 C61.0954,5.15 61.6804,5.78 61.7404,6.425 L58.7404,6.425 Z M70.0377,3.635 C69.8277,3.605 69.6627,3.575 69.3777,3.575 C68.4927,3.575 67.6977,3.92 67.2627,4.46 L67.2627,3.725 L65.3877,3.725 L65.3877,11 L67.3377,11 L67.3377,6.425 C67.5777,5.99 68.2527,5.375 69.1077,5.375 C69.3927,5.375 69.6777,5.405 69.8127,5.45 L70.0377,3.635 Z M74.863,10.175 C75.718,10.805 76.783,11.15 77.788,11.15 C79.318,11.15 80.683,10.295 80.683,8.9 C80.683,6.38 77.158,6.755 77.158,5.81 C77.158,5.435 77.608,5.225 78.148,5.225 C78.673,5.225 79.168,5.45 79.543,5.72 L80.458,4.31 C79.978,3.935 78.943,3.575 77.998,3.575 C76.558,3.575 75.208,4.445 75.208,5.84 C75.208,8.18 78.733,7.79 78.733,8.885 C78.733,9.245 78.328,9.5 77.803,9.5 C77.068,9.5 76.303,9.23 75.808,8.78 L74.863,10.175 Z M87.4324,3.725 L87.4324,8.45 C87.1624,8.795 86.5624,9.35 85.7374,9.35 C85.3624,9.35 84.9424,9.23 84.6424,8.9 C84.4174,8.645 84.2824,8.315 84.2824,7.655 L84.2824,3.725 L82.3324,3.725 L82.3324,7.58 C82.3324,8.66 82.6024,9.41 83.0674,9.98 C83.6374,10.685 84.5374,11.15 85.5424,11.15 C86.2474,11.15 86.9374,10.925 87.5074,10.415 L87.5074,11 L89.3824,11 L89.3824,3.725 L87.4324,3.725 Z M91.6377,14.6 L93.5877,14.6 L93.5877,10.49 C94.1727,10.94 94.8027,11.15 95.5377,11.15 C96.6177,11.15 97.6527,10.67 98.2977,9.92 C98.8677,9.26 99.2127,8.36 99.2127,7.37 C99.2127,5.225 97.6227,3.575 95.6427,3.575 C94.8177,3.575 94.0827,3.845 93.5127,4.31 L93.5127,3.725 L91.6377,3.725 L91.6377,14.6 Z M93.5877,6.275 C93.9927,5.735 94.6377,5.375 95.3877,5.375 C96.5277,5.375 97.2627,6.32 97.2627,7.37 C97.2627,8.51 96.4377,9.35 95.3427,9.35 C94.6077,9.35 93.9627,8.99 93.5877,8.45 L93.5877,6.275 Z M100.866,14.6 L102.816,14.6 L102.816,10.49 C103.401,10.94 104.031,11.15 104.766,11.15 C105.846,11.15 106.881,10.67 107.526,9.92 C108.096,9.26 108.441,8.36 108.441,7.37 C108.441,5.225 106.851,3.575 104.871,3.575 C104.046,3.575 103.311,3.845 102.741,4.31 L102.741,3.725 L100.866,3.725 L100.866,14.6 Z M102.816,6.275 C103.221,5.735 103.866,5.375 104.616,5.375 C105.756,5.375 106.491,6.32 106.491,7.37 C106.491,8.51 105.666,9.35 104.571,9.35 C103.836,9.35 103.191,8.99 102.816,8.45 L102.816,6.275 Z M109.495,7.37 C109.495,9.47 111.16,11.15 113.365,11.15 C115.57,11.15 117.235,9.47 117.235,7.37 C117.235,5.27 115.57,3.575 113.365,3.575 C111.16,3.575 109.495,5.27 109.495,7.37 Z M111.445,7.37 C111.445,6.275 112.225,5.375 113.365,5.375 C114.505,5.375 115.285,6.275 115.285,7.37 C115.285,8.465 114.505,9.35 113.365,9.35 C112.225,9.35 111.445,8.465 111.445,7.37 Z M123.534,3.635 C123.324,3.605 123.159,3.575 122.874,3.575 C121.989,3.575 121.194,3.92 120.759,4.46 L120.759,3.725 L118.884,3.725 L118.884,11 L120.834,11 L120.834,6.425 C121.074,5.99 121.749,5.375 122.604,5.375 C122.889,5.375 123.174,5.405 123.309,5.45 L123.534,3.635 Z M130.211,9.35 C130.076,9.38 129.701,9.425 129.416,9.425 C128.936,9.425 128.621,9.29 128.426,9.065 C128.261,8.87 128.186,8.6 128.186,8.15 L128.186,5.375 L130.586,5.375 L130.586,3.725 L128.186,3.725 L128.186,1.7 L126.236,1.7 L126.236,3.725 L124.211,3.725 L124.211,5.375 L126.236,5.375 L126.236,7.925 C126.236,8.96 126.401,9.605 126.776,10.1 C127.271,10.76 128.126,11.15 129.296,11.15 C129.671,11.15 130.256,11.09 130.511,11 L130.211,9.35 Z M141.531,8.45 C141.156,8.99 140.511,9.35 139.776,9.35 C138.681,9.35 137.856,8.51 137.856,7.37 C137.856,6.32 138.591,5.375 139.731,5.375 C140.481,5.375 141.126,5.735 141.531,6.275 L141.531,8.45 Z M143.481,11 L143.481,0.35 L141.531,0.35 L141.531,4.25 C140.961,3.8 140.271,3.575 139.476,3.575 C137.496,3.575 135.906,5.225 135.906,7.37 C135.906,8.36 136.266,9.26 136.836,9.92 C137.481,10.67 138.501,11.15 139.581,11.15 C140.316,11.15 141.006,10.925 141.606,10.415 L141.606,11 L143.481,11 Z M150.819,8.735 C150.474,9.11 149.814,9.575 148.989,9.575 C147.954,9.575 147.129,8.87 147.024,7.85 L152.064,7.85 C152.094,7.685 152.109,7.49 152.109,7.295 C152.109,5.27 150.684,3.575 148.674,3.575 C146.514,3.575 145.134,5.345 145.134,7.37 C145.134,9.65 146.769,11.15 148.944,11.15 C150.069,11.15 151.224,10.685 151.929,9.845 L150.819,8.735 Z M147.114,6.425 C147.204,5.765 147.864,5.15 148.674,5.15 C149.469,5.15 150.054,5.78 150.114,6.425 L147.114,6.425 Z M153.042,10.175 C153.897,10.805 154.962,11.15 155.967,11.15 C157.497,11.15 158.862,10.295 158.862,8.9 C158.862,6.38 155.337,6.755 155.337,5.81 C155.337,5.435 155.787,5.225 156.327,5.225 C156.852,5.225 157.347,5.45 157.722,5.72 L158.637,4.31 C158.157,3.935 157.122,3.575 156.177,3.575 C154.737,3.575 153.387,4.445 153.387,5.84 C153.387,8.18 156.912,7.79 156.912,8.885 C156.912,9.245 156.507,9.5 155.982,9.5 C155.247,9.5 154.482,9.23 153.987,8.78 L153.042,10.175 Z M167.861,3.725 L165.116,3.725 L162.611,6.08 L162.611,0.35 L160.661,0.35 L160.661,11 L162.611,11 L162.611,7.85 L165.686,11 L168.311,11 L164.306,6.995 L167.861,3.725 Z" id="path3_fill"></path>
                </g>
            </g>
            <g id="New-Website" transform="translate(98.000000, 140.000000)" fill="#333333">
                <g id="path4_fill-link">
                    <path d="M0.2,12 L2.225,12 L2.225,5.16 L8.075,12 L9.5,12 L9.5,1.5 L7.475,1.5 L7.475,8.34 L1.625,1.5 L0.2,1.5 L0.2,12 Z M16.9141,9.735 C16.5691,10.11 15.9091,10.575 15.0841,10.575 C14.0491,10.575 13.2241,9.87 13.1191,8.85 L18.1591,8.85 C18.1891,8.685 18.2041,8.49 18.2041,8.295 C18.2041,6.27 16.7791,4.575 14.7691,4.575 C12.6091,4.575 11.2291,6.345 11.2291,8.37 C11.2291,10.65 12.8641,12.15 15.0391,12.15 C16.1641,12.15 17.3191,11.685 18.0241,10.845 L16.9141,9.735 Z M13.2091,7.425 C13.2991,6.765 13.9591,6.15 14.7691,6.15 C15.5641,6.15 16.1491,6.78 16.2091,7.425 L13.2091,7.425 Z M25.1214,7.77 L26.9514,12 L28.3014,12 L31.3614,4.725 L29.3964,4.725 L27.6114,8.97 L25.7964,4.725 L24.4464,4.725 L22.6164,8.97 L20.8464,4.725 L18.8814,4.725 L21.9414,12 L23.2914,12 L25.1214,7.77 Z M39.1779,12 L40.6029,12 L42.9279,5.355 L45.2679,12 L46.6929,12 L50.1729,1.5 L48.1329,1.5 L45.9579,8.055 L43.6479,1.5 L42.2229,1.5 L39.9129,8.055 L37.7379,1.5 L35.6979,1.5 L39.1779,12 Z M56.5381,9.735 C56.1931,10.11 55.5331,10.575 54.7081,10.575 C53.6731,10.575 52.8481,9.87 52.7431,8.85 L57.7831,8.85 C57.8131,8.685 57.8281,8.49 57.8281,8.295 C57.8281,6.27 56.4031,4.575 54.3931,4.575 C52.2331,4.575 50.8531,6.345 50.8531,8.37 C50.8531,10.65 52.4881,12.15 54.6631,12.15 C55.7881,12.15 56.9431,11.685 57.6481,10.845 L56.5381,9.735 Z M52.8331,7.425 C52.9231,6.765 53.5831,6.15 54.3931,6.15 C55.1881,6.15 55.7731,6.78 55.8331,7.425 L52.8331,7.425 Z M61.4305,7.275 C61.8355,6.735 62.4805,6.375 63.2305,6.375 C64.3705,6.375 65.1055,7.32 65.1055,8.37 C65.1055,9.51 64.2805,10.35 63.1855,10.35 C62.4505,10.35 61.8055,9.99 61.4305,9.45 L61.4305,7.275 Z M61.3555,12 L61.3555,11.415 C61.9555,11.925 62.6455,12.15 63.3805,12.15 C64.4605,12.15 65.4805,11.67 66.1255,10.92 C66.6955,10.26 67.0555,9.36 67.0555,8.37 C67.0555,6.225 65.4655,4.575 63.4855,4.575 C62.6905,4.575 62.0005,4.8 61.4305,5.25 L61.4305,1.35 L59.4805,1.35 L59.4805,12 L61.3555,12 Z M67.989,11.175 C68.844,11.805 69.909,12.15 70.914,12.15 C72.444,12.15 73.809,11.295 73.809,9.9 C73.809,7.38 70.284,7.755 70.284,6.81 C70.284,6.435 70.734,6.225 71.274,6.225 C71.799,6.225 72.294,6.45 72.669,6.72 L73.584,5.31 C73.104,4.935 72.069,4.575 71.124,4.575 C69.684,4.575 68.334,5.445 68.334,6.84 C68.334,9.18 71.859,8.79 71.859,9.885 C71.859,10.245 71.454,10.5 70.929,10.5 C70.194,10.5 69.429,10.23 68.934,9.78 L67.989,11.175 Z M77.5584,4.725 L75.6084,4.725 L75.6084,12 L77.5584,12 L77.5584,4.725 Z M75.3084,2.145 C75.3084,2.85 75.8784,3.39 76.5834,3.39 C77.2884,3.39 77.8584,2.85 77.8584,2.145 C77.8584,1.44 77.2884,0.9 76.5834,0.9 C75.8784,0.9 75.3084,1.44 75.3084,2.145 Z M84.9875,10.35 C84.8525,10.38 84.4775,10.425 84.1925,10.425 C83.7125,10.425 83.3975,10.29 83.2025,10.065 C83.0375,9.87 82.9625,9.6 82.9625,9.15 L82.9625,6.375 L85.3625,6.375 L85.3625,4.725 L82.9625,4.725 L82.9625,2.7 L81.0125,2.7 L81.0125,4.725 L78.9875,4.725 L78.9875,6.375 L81.0125,6.375 L81.0125,8.925 C81.0125,9.96 81.1775,10.605 81.5525,11.1 C82.0475,11.76 82.9025,12.15 84.0725,12.15 C84.4475,12.15 85.0325,12.09 85.2875,12 L84.9875,10.35 Z M92.3243,9.735 C91.9793,10.11 91.3193,10.575 90.4943,10.575 C89.4593,10.575 88.6343,9.87 88.5293,8.85 L93.5693,8.85 C93.5993,8.685 93.6143,8.49 93.6143,8.295 C93.6143,6.27 92.1893,4.575 90.1793,4.575 C88.0193,4.575 86.6393,6.345 86.6393,8.37 C86.6393,10.65 88.2743,12.15 90.4493,12.15 C91.5743,12.15 92.7293,11.685 93.4343,10.845 L92.3243,9.735 Z M88.6193,7.425 C88.7093,6.765 89.3693,6.15 90.1793,6.15 C90.9743,6.15 91.5593,6.78 91.6193,7.425 L88.6193,7.425 Z" id="path4_fill"></path>
                </g>
            </g>
            <g id="OTC-passthrough" transform="translate(97.000000, 184.000000)" fill="#333333">
                <g id="path5_fill-link">
                    <path d="M2.475,5.75 C2.475,3.77 3.945,2.15 5.925,2.15 C7.905,2.15 9.375,3.77 9.375,5.75 C9.375,7.73 7.905,9.35 5.925,9.35 C3.945,9.35 2.475,7.73 2.475,5.75 Z M0.45,5.75 C0.45,8.735 2.685,11.15 5.925,11.15 C9.165,11.15 11.4,8.735 11.4,5.75 C11.4,2.765 9.165,0.35 5.925,0.35 C2.685,0.35 0.45,2.765 0.45,5.75 Z M12.2256,0.5 L12.2256,2.3 L15.0006,2.3 L15.0006,11 L17.0256,11 L17.0256,2.3 L19.8006,2.3 L19.8006,0.5 L12.2256,0.5 Z M26.1409,2.15 C27.1759,2.15 28.0609,2.6 28.6909,3.23 L29.9959,1.85 C29.0509,0.935 27.7159,0.35 26.1559,0.35 C22.8859,0.35 20.6209,2.735 20.6209,5.75 C20.6209,8.765 22.9159,11.15 26.1859,11.15 C28.1059,11.15 29.6659,10.325 30.5959,9.14 L29.2009,7.895 C28.5859,8.69 27.5959,9.35 26.2309,9.35 C24.2059,9.35 22.6459,7.79 22.6459,5.75 C22.6459,3.755 24.1459,2.15 26.1409,2.15 Z M36.0615,14.6 L38.0115,14.6 L38.0115,10.49 C38.5965,10.94 39.2265,11.15 39.9615,11.15 C41.0415,11.15 42.0765,10.67 42.7215,9.92 C43.2915,9.26 43.6365,8.36 43.6365,7.37 C43.6365,5.225 42.0465,3.575 40.0665,3.575 C39.2415,3.575 38.5065,3.845 37.9365,4.31 L37.9365,3.725 L36.0615,3.725 L36.0615,14.6 Z M38.0115,6.275 C38.4165,5.735 39.0615,5.375 39.8115,5.375 C40.9515,5.375 41.6865,6.32 41.6865,7.37 C41.6865,8.51 40.8615,9.35 39.7665,9.35 C39.0315,9.35 38.3865,8.99 38.0115,8.45 L38.0115,6.275 Z M50.315,8.45 C49.94,8.99 49.295,9.35 48.56,9.35 C47.465,9.35 46.64,8.51 46.64,7.37 C46.64,6.32 47.375,5.375 48.515,5.375 C49.265,5.375 49.91,5.735 50.315,6.275 L50.315,8.45 Z M52.265,3.725 L50.39,3.725 L50.39,4.31 C49.82,3.845 49.085,3.575 48.26,3.575 C46.28,3.575 44.69,5.225 44.69,7.37 C44.69,8.36 45.05,9.26 45.62,9.92 C46.265,10.67 47.285,11.15 48.365,11.15 C49.1,11.15 49.79,10.925 50.39,10.415 L50.39,11 L52.265,11 L52.265,3.725 Z M53.7986,10.175 C54.6536,10.805 55.7186,11.15 56.7236,11.15 C58.2536,11.15 59.6186,10.295 59.6186,8.9 C59.6186,6.38 56.0936,6.755 56.0936,5.81 C56.0936,5.435 56.5436,5.225 57.0836,5.225 C57.6086,5.225 58.1036,5.45 58.4786,5.72 L59.3936,4.31 C58.9136,3.935 57.8786,3.575 56.9336,3.575 C55.4936,3.575 54.1436,4.445 54.1436,5.84 C54.1436,8.18 57.6686,7.79 57.6686,8.885 C57.6686,9.245 57.2636,9.5 56.7386,9.5 C56.0036,9.5 55.2386,9.23 54.7436,8.78 L53.7986,10.175 Z M60.698,10.175 C61.553,10.805 62.618,11.15 63.623,11.15 C65.153,11.15 66.518,10.295 66.518,8.9 C66.518,6.38 62.993,6.755 62.993,5.81 C62.993,5.435 63.443,5.225 63.983,5.225 C64.508,5.225 65.003,5.45 65.378,5.72 L66.293,4.31 C65.813,3.935 64.778,3.575 63.833,3.575 C62.393,3.575 61.043,4.445 61.043,5.84 C61.043,8.18 64.568,7.79 64.568,8.885 C64.568,9.245 64.163,9.5 63.638,9.5 C62.903,9.5 62.138,9.23 61.643,8.78 L60.698,10.175 Z M73.4924,9.35 C73.3574,9.38 72.9824,9.425 72.6974,9.425 C72.2174,9.425 71.9024,9.29 71.7074,9.065 C71.5424,8.87 71.4674,8.6 71.4674,8.15 L71.4674,5.375 L73.8674,5.375 L73.8674,3.725 L71.4674,3.725 L71.4674,1.7 L69.5174,1.7 L69.5174,3.725 L67.4924,3.725 L67.4924,5.375 L69.5174,5.375 L69.5174,7.925 C69.5174,8.96 69.6824,9.605 70.0574,10.1 C70.5524,10.76 71.4074,11.15 72.5774,11.15 C72.9524,11.15 73.5374,11.09 73.7924,11 L73.4924,9.35 Z M77.6941,6.275 C77.9641,5.9 78.6391,5.375 79.4641,5.375 C79.9141,5.375 80.3041,5.525 80.5591,5.78 C80.8291,6.05 80.9941,6.425 80.9941,7.145 L80.9941,11 L82.9441,11 L82.9441,7.295 C82.9441,6.05 82.6741,5.315 82.1941,4.745 C81.5941,4.025 80.6791,3.575 79.6741,3.575 C78.9241,3.575 78.2341,3.83 77.6941,4.25 L77.6941,0.35 L75.7441,0.35 L75.7441,11 L77.6941,11 L77.6941,6.275 Z M89.6959,3.635 C89.4859,3.605 89.3209,3.575 89.0359,3.575 C88.1509,3.575 87.3559,3.92 86.9209,4.46 L86.9209,3.725 L85.0459,3.725 L85.0459,11 L86.9959,11 L86.9959,6.425 C87.2359,5.99 87.9109,5.375 88.7659,5.375 C89.0509,5.375 89.3359,5.405 89.4709,5.45 L89.6959,3.635 Z M90.5982,7.37 C90.5982,9.47 92.2632,11.15 94.4682,11.15 C96.6732,11.15 98.3382,9.47 98.3382,7.37 C98.3382,5.27 96.6732,3.575 94.4682,3.575 C92.2632,3.575 90.5982,5.27 90.5982,7.37 Z M92.5482,7.37 C92.5482,6.275 93.3282,5.375 94.4682,5.375 C95.6082,5.375 96.3882,6.275 96.3882,7.37 C96.3882,8.465 95.6082,9.35 94.4682,9.35 C93.3282,9.35 92.5482,8.465 92.5482,7.37 Z M104.937,3.725 L104.937,8.45 C104.667,8.795 104.067,9.35 103.242,9.35 C102.867,9.35 102.447,9.23 102.147,8.9 C101.922,8.645 101.787,8.315 101.787,7.655 L101.787,3.725 L99.8373,3.725 L99.8373,7.58 C99.8373,8.66 100.107,9.41 100.572,9.98 C101.142,10.685 102.042,11.15 103.047,11.15 C103.752,11.15 104.442,10.925 105.012,10.415 L105.012,11 L106.887,11 L106.887,3.725 L104.937,3.725 Z M116.118,3.725 L114.243,3.725 L114.243,4.31 C113.673,3.845 112.938,3.575 112.113,3.575 C110.133,3.575 108.543,5.225 108.543,7.37 C108.543,8.36 108.888,9.26 109.458,9.92 C110.103,10.67 111.138,11.15 112.218,11.15 C112.953,11.15 113.583,10.94 114.168,10.49 L114.168,10.73 C114.168,11.66 114.018,12.11 113.718,12.44 C113.388,12.83 112.863,13.025 112.233,13.025 C111.033,13.025 110.358,12.395 109.968,11.975 L108.738,13.25 C109.458,14.09 110.808,14.75 112.233,14.75 C113.628,14.75 114.798,14.21 115.458,13.295 C115.893,12.68 116.118,11.9 116.118,10.595 L116.118,3.725 Z M114.168,8.45 C113.793,8.99 113.148,9.35 112.413,9.35 C111.318,9.35 110.493,8.51 110.493,7.37 C110.493,6.32 111.228,5.375 112.368,5.375 C113.118,5.375 113.763,5.735 114.168,6.275 L114.168,8.45 Z M120.321,6.275 C120.591,5.9 121.266,5.375 122.091,5.375 C122.541,5.375 122.931,5.525 123.186,5.78 C123.456,6.05 123.621,6.425 123.621,7.145 L123.621,11 L125.571,11 L125.571,7.295 C125.571,6.05 125.301,5.315 124.821,4.745 C124.221,4.025 123.306,3.575 122.301,3.575 C121.551,3.575 120.861,3.83 120.321,4.25 L120.321,0.35 L118.371,0.35 L118.371,11 L120.321,11 L120.321,6.275 Z" id="path5_fill"></path>
                </g>
            </g>
            <g id="Mobile-Wallet-Android" transform="translate(98.000000, 227.000000)" fill="#333333">
                <g id="path6_fill-link">
                    <path d="M1.625,1.5 L0.2,1.5 L0.2,12 L2.225,12 L2.225,6.15 L4.745,10.275 L6.155,10.275 L8.675,6.15 L8.675,12 L10.7,12 L10.7,1.5 L9.275,1.5 L5.45,7.785 L1.625,1.5 Z M12.4303,8.37 C12.4303,10.47 14.0953,12.15 16.3003,12.15 C18.5053,12.15 20.1703,10.47 20.1703,8.37 C20.1703,6.27 18.5053,4.575 16.3003,4.575 C14.0953,4.575 12.4303,6.27 12.4303,8.37 Z M14.3803,8.37 C14.3803,7.275 15.1603,6.375 16.3003,6.375 C17.4403,6.375 18.2203,7.275 18.2203,8.37 C18.2203,9.465 17.4403,10.35 16.3003,10.35 C15.1603,10.35 14.3803,9.465 14.3803,8.37 Z M23.7693,7.275 C24.1743,6.735 24.8193,6.375 25.5693,6.375 C26.7093,6.375 27.4443,7.32 27.4443,8.37 C27.4443,9.51 26.6193,10.35 25.5243,10.35 C24.7893,10.35 24.1443,9.99 23.7693,9.45 L23.7693,7.275 Z M23.6943,12 L23.6943,11.415 C24.2943,11.925 24.9843,12.15 25.7193,12.15 C26.7993,12.15 27.8193,11.67 28.4643,10.92 C29.0343,10.26 29.3943,9.36 29.3943,8.37 C29.3943,6.225 27.8043,4.575 25.8243,4.575 C25.0293,4.575 24.3393,4.8 23.7693,5.25 L23.7693,1.35 L21.8193,1.35 L21.8193,12 L23.6943,12 Z M32.9979,4.725 L31.0479,4.725 L31.0479,12 L32.9979,12 L32.9979,4.725 Z M30.7479,2.145 C30.7479,2.85 31.3179,3.39 32.0229,3.39 C32.7279,3.39 33.2979,2.85 33.2979,2.145 C33.2979,1.44 32.7279,0.9 32.0229,0.9 C31.3179,0.9 30.7479,1.44 30.7479,2.145 Z M37.202,1.35 L35.252,1.35 L35.252,12 L37.202,12 L37.202,1.35 Z M44.5411,9.735 C44.1961,10.11 43.5361,10.575 42.7111,10.575 C41.6761,10.575 40.8511,9.87 40.7461,8.85 L45.7861,8.85 C45.8161,8.685 45.8311,8.49 45.8311,8.295 C45.8311,6.27 44.4061,4.575 42.3961,4.575 C40.2361,4.575 38.8561,6.345 38.8561,8.37 C38.8561,10.65 40.4911,12.15 42.6661,12.15 C43.7911,12.15 44.9461,11.685 45.6511,10.845 L44.5411,9.735 Z M40.8361,7.425 C40.9261,6.765 41.5861,6.15 42.3961,6.15 C43.1911,6.15 43.7761,6.78 43.8361,7.425 L40.8361,7.425 Z M54.0314,12 L55.4564,12 L57.7814,5.355 L60.1214,12 L61.5464,12 L65.0264,1.5 L62.9864,1.5 L60.8114,8.055 L58.5014,1.5 L57.0764,1.5 L54.7664,8.055 L52.5914,1.5 L50.5514,1.5 L54.0314,12 Z M71.3316,9.45 C70.9566,9.99 70.3116,10.35 69.5766,10.35 C68.4816,10.35 67.6566,9.51 67.6566,8.37 C67.6566,7.32 68.3916,6.375 69.5316,6.375 C70.2816,6.375 70.9266,6.735 71.3316,7.275 L71.3316,9.45 Z M73.2816,4.725 L71.4066,4.725 L71.4066,5.31 C70.8366,4.845 70.1016,4.575 69.2766,4.575 C67.2966,4.575 65.7066,6.225 65.7066,8.37 C65.7066,9.36 66.0666,10.26 66.6366,10.92 C67.2816,11.67 68.3016,12.15 69.3816,12.15 C70.1166,12.15 70.8066,11.925 71.4066,11.415 L71.4066,12 L73.2816,12 L73.2816,4.725 Z M77.4852,1.35 L75.5352,1.35 L75.5352,12 L77.4852,12 L77.4852,1.35 Z M81.6893,1.35 L79.7393,1.35 L79.7393,12 L81.6893,12 L81.6893,1.35 Z M89.0284,9.735 C88.6834,10.11 88.0234,10.575 87.1984,10.575 C86.1634,10.575 85.3384,9.87 85.2334,8.85 L90.2734,8.85 C90.3034,8.685 90.3184,8.49 90.3184,8.295 C90.3184,6.27 88.8934,4.575 86.8834,4.575 C84.7234,4.575 83.3434,6.345 83.3434,8.37 C83.3434,10.65 84.9784,12.15 87.1534,12.15 C88.2784,12.15 89.4334,11.685 90.1384,10.845 L89.0284,9.735 Z M85.3234,7.425 C85.4134,6.765 86.0734,6.15 86.8834,6.15 C87.6784,6.15 88.2634,6.78 88.3234,7.425 L85.3234,7.425 Z M97.1457,10.35 C97.0107,10.38 96.6357,10.425 96.3507,10.425 C95.8707,10.425 95.5557,10.29 95.3607,10.065 C95.1957,9.87 95.1207,9.6 95.1207,9.15 L95.1207,6.375 L97.5207,6.375 L97.5207,4.725 L95.1207,4.725 L95.1207,2.7 L93.1707,2.7 L93.1707,4.725 L91.1457,4.725 L91.1457,6.375 L93.1707,6.375 L93.1707,8.925 C93.1707,9.96 93.3357,10.605 93.7107,11.1 C94.2057,11.76 95.0607,12.15 96.2307,12.15 C96.6057,12.15 97.1907,12.09 97.4457,12 L97.1457,10.35 Z M104.43,12 L105.42,9.675 L109.635,9.675 L110.625,12 L112.74,12 L108.24,1.5 L106.815,1.5 L102.315,12 L104.43,12 Z M107.52,4.77 L108.855,7.875 L106.185,7.875 L107.52,4.77 Z M115.82,12 L115.82,7.275 C116.09,6.9 116.765,6.375 117.59,6.375 C118.04,6.375 118.43,6.525 118.685,6.78 C118.955,7.05 119.12,7.425 119.12,8.145 L119.12,12 L121.07,12 L121.07,8.295 C121.07,7.05 120.8,6.315 120.32,5.745 C119.72,5.025 118.805,4.575 117.8,4.575 C116.99,4.575 116.3,4.86 115.745,5.31 L115.745,4.725 L113.87,4.725 L113.87,12 L115.82,12 Z M128.197,9.45 C127.822,9.99 127.177,10.35 126.442,10.35 C125.347,10.35 124.522,9.51 124.522,8.37 C124.522,7.32 125.257,6.375 126.397,6.375 C127.147,6.375 127.792,6.735 128.197,7.275 L128.197,9.45 Z M130.147,12 L130.147,1.35 L128.197,1.35 L128.197,5.25 C127.627,4.8 126.937,4.575 126.142,4.575 C124.162,4.575 122.572,6.225 122.572,8.37 C122.572,9.36 122.932,10.26 123.502,10.92 C124.147,11.67 125.167,12.15 126.247,12.15 C126.982,12.15 127.672,11.925 128.272,11.415 L128.272,12 L130.147,12 Z M137.05,4.635 C136.84,4.605 136.675,4.575 136.39,4.575 C135.505,4.575 134.71,4.92 134.275,5.46 L134.275,4.725 L132.4,4.725 L132.4,12 L134.35,12 L134.35,7.425 C134.59,6.99 135.265,6.375 136.12,6.375 C136.405,6.375 136.69,6.405 136.825,6.45 L137.05,4.635 Z M137.953,8.37 C137.953,10.47 139.618,12.15 141.823,12.15 C144.028,12.15 145.693,10.47 145.693,8.37 C145.693,6.27 144.028,4.575 141.823,4.575 C139.618,4.575 137.953,6.27 137.953,8.37 Z M139.903,8.37 C139.903,7.275 140.683,6.375 141.823,6.375 C142.963,6.375 143.743,7.275 143.743,8.37 C143.743,9.465 142.963,10.35 141.823,10.35 C140.683,10.35 139.903,9.465 139.903,8.37 Z M149.292,4.725 L147.342,4.725 L147.342,12 L149.292,12 L149.292,4.725 Z M147.042,2.145 C147.042,2.85 147.612,3.39 148.317,3.39 C149.022,3.39 149.592,2.85 149.592,2.145 C149.592,1.44 149.022,0.9 148.317,0.9 C147.612,0.9 147.042,1.44 147.042,2.145 Z M156.571,9.45 C156.196,9.99 155.551,10.35 154.816,10.35 C153.721,10.35 152.896,9.51 152.896,8.37 C152.896,7.32 153.631,6.375 154.771,6.375 C155.521,6.375 156.166,6.735 156.571,7.275 L156.571,9.45 Z M158.521,12 L158.521,1.35 L156.571,1.35 L156.571,5.25 C156.001,4.8 155.311,4.575 154.516,4.575 C152.536,4.575 150.946,6.225 150.946,8.37 C150.946,9.36 151.306,10.26 151.876,10.92 C152.521,11.67 153.541,12.15 154.621,12.15 C155.356,12.15 156.046,11.925 156.646,11.415 L156.646,12 L158.521,12 Z" id="path6_fill"></path>
                </g>
            </g>
            <g id="Mobile-Wallet-IOS" transform="translate(98.000000, 270.000000)" fill="#333333">
                <g id="path7_fill-link">
                    <path d="M1.625,1.5 L0.2,1.5 L0.2,12 L2.225,12 L2.225,6.15 L4.745,10.275 L6.155,10.275 L8.675,6.15 L8.675,12 L10.7,12 L10.7,1.5 L9.275,1.5 L5.45,7.785 L1.625,1.5 Z M12.4303,8.37 C12.4303,10.47 14.0953,12.15 16.3003,12.15 C18.5053,12.15 20.1703,10.47 20.1703,8.37 C20.1703,6.27 18.5053,4.575 16.3003,4.575 C14.0953,4.575 12.4303,6.27 12.4303,8.37 Z M14.3803,8.37 C14.3803,7.275 15.1603,6.375 16.3003,6.375 C17.4403,6.375 18.2203,7.275 18.2203,8.37 C18.2203,9.465 17.4403,10.35 16.3003,10.35 C15.1603,10.35 14.3803,9.465 14.3803,8.37 Z M23.7693,7.275 C24.1743,6.735 24.8193,6.375 25.5693,6.375 C26.7093,6.375 27.4443,7.32 27.4443,8.37 C27.4443,9.51 26.6193,10.35 25.5243,10.35 C24.7893,10.35 24.1443,9.99 23.7693,9.45 L23.7693,7.275 Z M23.6943,12 L23.6943,11.415 C24.2943,11.925 24.9843,12.15 25.7193,12.15 C26.7993,12.15 27.8193,11.67 28.4643,10.92 C29.0343,10.26 29.3943,9.36 29.3943,8.37 C29.3943,6.225 27.8043,4.575 25.8243,4.575 C25.0293,4.575 24.3393,4.8 23.7693,5.25 L23.7693,1.35 L21.8193,1.35 L21.8193,12 L23.6943,12 Z M32.9979,4.725 L31.0479,4.725 L31.0479,12 L32.9979,12 L32.9979,4.725 Z M30.7479,2.145 C30.7479,2.85 31.3179,3.39 32.0229,3.39 C32.7279,3.39 33.2979,2.85 33.2979,2.145 C33.2979,1.44 32.7279,0.9 32.0229,0.9 C31.3179,0.9 30.7479,1.44 30.7479,2.145 Z M37.202,1.35 L35.252,1.35 L35.252,12 L37.202,12 L37.202,1.35 Z M44.5411,9.735 C44.1961,10.11 43.5361,10.575 42.7111,10.575 C41.6761,10.575 40.8511,9.87 40.7461,8.85 L45.7861,8.85 C45.8161,8.685 45.8311,8.49 45.8311,8.295 C45.8311,6.27 44.4061,4.575 42.3961,4.575 C40.2361,4.575 38.8561,6.345 38.8561,8.37 C38.8561,10.65 40.4911,12.15 42.6661,12.15 C43.7911,12.15 44.9461,11.685 45.6511,10.845 L44.5411,9.735 Z M40.8361,7.425 C40.9261,6.765 41.5861,6.15 42.3961,6.15 C43.1911,6.15 43.7761,6.78 43.8361,7.425 L40.8361,7.425 Z M54.0314,12 L55.4564,12 L57.7814,5.355 L60.1214,12 L61.5464,12 L65.0264,1.5 L62.9864,1.5 L60.8114,8.055 L58.5014,1.5 L57.0764,1.5 L54.7664,8.055 L52.5914,1.5 L50.5514,1.5 L54.0314,12 Z M71.3316,9.45 C70.9566,9.99 70.3116,10.35 69.5766,10.35 C68.4816,10.35 67.6566,9.51 67.6566,8.37 C67.6566,7.32 68.3916,6.375 69.5316,6.375 C70.2816,6.375 70.9266,6.735 71.3316,7.275 L71.3316,9.45 Z M73.2816,4.725 L71.4066,4.725 L71.4066,5.31 C70.8366,4.845 70.1016,4.575 69.2766,4.575 C67.2966,4.575 65.7066,6.225 65.7066,8.37 C65.7066,9.36 66.0666,10.26 66.6366,10.92 C67.2816,11.67 68.3016,12.15 69.3816,12.15 C70.1166,12.15 70.8066,11.925 71.4066,11.415 L71.4066,12 L73.2816,12 L73.2816,4.725 Z M77.4852,1.35 L75.5352,1.35 L75.5352,12 L77.4852,12 L77.4852,1.35 Z M81.6893,1.35 L79.7393,1.35 L79.7393,12 L81.6893,12 L81.6893,1.35 Z M89.0284,9.735 C88.6834,10.11 88.0234,10.575 87.1984,10.575 C86.1634,10.575 85.3384,9.87 85.2334,8.85 L90.2734,8.85 C90.3034,8.685 90.3184,8.49 90.3184,8.295 C90.3184,6.27 88.8934,4.575 86.8834,4.575 C84.7234,4.575 83.3434,6.345 83.3434,8.37 C83.3434,10.65 84.9784,12.15 87.1534,12.15 C88.2784,12.15 89.4334,11.685 90.1384,10.845 L89.0284,9.735 Z M85.3234,7.425 C85.4134,6.765 86.0734,6.15 86.8834,6.15 C87.6784,6.15 88.2634,6.78 88.3234,7.425 L85.3234,7.425 Z M97.1457,10.35 C97.0107,10.38 96.6357,10.425 96.3507,10.425 C95.8707,10.425 95.5557,10.29 95.3607,10.065 C95.1957,9.87 95.1207,9.6 95.1207,9.15 L95.1207,6.375 L97.5207,6.375 L97.5207,4.725 L95.1207,4.725 L95.1207,2.7 L93.1707,2.7 L93.1707,4.725 L91.1457,4.725 L91.1457,6.375 L93.1707,6.375 L93.1707,8.925 C93.1707,9.96 93.3357,10.605 93.7107,11.1 C94.2057,11.76 95.0607,12.15 96.2307,12.15 C96.6057,12.15 97.1907,12.09 97.4457,12 L97.1457,10.35 Z M103.515,12 L105.54,12 L105.54,1.5 L103.515,1.5 L103.515,12 Z M109.214,6.75 C109.214,4.77 110.684,3.15 112.664,3.15 C114.644,3.15 116.114,4.77 116.114,6.75 C116.114,8.73 114.644,10.35 112.664,10.35 C110.684,10.35 109.214,8.73 109.214,6.75 Z M107.189,6.75 C107.189,9.735 109.424,12.15 112.664,12.15 C115.904,12.15 118.139,9.735 118.139,6.75 C118.139,3.765 115.904,1.35 112.664,1.35 C109.424,1.35 107.189,3.765 107.189,6.75 Z M118.74,10.575 C119.82,11.565 121.125,12.15 122.535,12.15 C124.425,12.15 126.09,10.86 126.09,9 C126.09,5.46 121.245,5.985 121.245,4.29 C121.245,3.48 122.1,3.15 122.865,3.15 C123.555,3.15 124.26,3.45 124.68,3.84 L125.73,2.34 C124.74,1.605 123.75,1.35 122.685,1.35 C120.945,1.35 119.22,2.43 119.22,4.305 C119.22,5.49 119.88,6.21 120.705,6.69 C122.115,7.515 124.065,7.68 124.065,9.03 C124.065,9.795 123.435,10.35 122.535,10.35 C121.575,10.35 120.66,9.855 120.06,9.195 L118.74,10.575 Z" id="path7_fill"></path>
                </g>
            </g>
            <g id="Affiliate-program-(OTC)" transform="translate(97.000000, 314.000000)" fill="#333333">
                <g id="path8_fill-link">
                    <path d="M2.115,12 L3.105,9.675 L7.32,9.675 L8.31,12 L10.425,12 L5.925,1.5 L4.5,1.5 L0,12 L2.115,12 Z M5.205,4.77 L6.54,7.875 L3.87,7.875 L5.205,4.77 Z M16.8047,1.335 C16.3997,1.23 16.0397,1.2 15.6497,1.2 C14.6597,1.2 13.8947,1.56 13.3847,2.055 C12.8747,2.55 12.6047,3.255 12.6047,4.425 L12.6047,4.725 L10.7297,4.725 L10.7297,6.375 L12.6047,6.375 L12.6047,12 L14.5547,12 L14.5547,6.375 L16.8047,6.375 L16.8047,4.725 L14.5547,4.725 L14.5547,4.5 C14.5547,3.825 14.6597,3.555 14.8247,3.345 C15.0647,3.06 15.4397,2.925 15.9197,2.925 C16.0997,2.925 16.3397,2.955 16.5047,3 L16.8047,1.335 Z M23.7041,1.335 C23.2991,1.23 22.9391,1.2 22.5491,1.2 C21.5591,1.2 20.7941,1.56 20.2841,2.055 C19.7741,2.55 19.5041,3.255 19.5041,4.425 L19.5041,4.725 L17.6291,4.725 L17.6291,6.375 L19.5041,6.375 L19.5041,12 L21.4541,12 L21.4541,6.375 L23.7041,6.375 L23.7041,4.725 L21.4541,4.725 L21.4541,4.5 C21.4541,3.825 21.5591,3.555 21.7241,3.345 C21.9641,3.06 22.3391,2.925 22.8191,2.925 C22.9991,2.925 23.2391,2.955 23.4041,3 L23.7041,1.335 Z M27.3035,4.725 L25.3535,4.725 L25.3535,12 L27.3035,12 L27.3035,4.725 Z M25.0535,2.145 C25.0535,2.85 25.6235,3.39 26.3285,3.39 C27.0335,3.39 27.6035,2.85 27.6035,2.145 C27.6035,1.44 27.0335,0.9 26.3285,0.9 C25.6235,0.9 25.0535,1.44 25.0535,2.145 Z M31.5076,1.35 L29.5576,1.35 L29.5576,12 L31.5076,12 L31.5076,1.35 Z M35.7117,4.725 L33.7617,4.725 L33.7617,12 L35.7117,12 L35.7117,4.725 Z M33.4617,2.145 C33.4617,2.85 34.0317,3.39 34.7367,3.39 C35.4417,3.39 36.0117,2.85 36.0117,2.145 C36.0117,1.44 35.4417,0.9 34.7367,0.9 C34.0317,0.9 33.4617,1.44 33.4617,2.145 Z M42.9908,9.45 C42.6158,9.99 41.9708,10.35 41.2358,10.35 C40.1408,10.35 39.3158,9.51 39.3158,8.37 C39.3158,7.32 40.0508,6.375 41.1908,6.375 C41.9408,6.375 42.5858,6.735 42.9908,7.275 L42.9908,9.45 Z M44.9408,4.725 L43.0658,4.725 L43.0658,5.31 C42.4958,4.845 41.7608,4.575 40.9358,4.575 C38.9558,4.575 37.3658,6.225 37.3658,8.37 C37.3658,9.36 37.7258,10.26 38.2958,10.92 C38.9408,11.67 39.9608,12.15 41.0408,12.15 C41.7758,12.15 42.4658,11.925 43.0658,11.415 L43.0658,12 L44.9408,12 L44.9408,4.725 Z M52.3693,10.35 C52.2343,10.38 51.8593,10.425 51.5743,10.425 C51.0943,10.425 50.7793,10.29 50.5843,10.065 C50.4193,9.87 50.3443,9.6 50.3443,9.15 L50.3443,6.375 L52.7443,6.375 L52.7443,4.725 L50.3443,4.725 L50.3443,2.7 L48.3943,2.7 L48.3943,4.725 L46.3693,4.725 L46.3693,6.375 L48.3943,6.375 L48.3943,8.925 C48.3943,9.96 48.5593,10.605 48.9343,11.1 C49.4293,11.76 50.2843,12.15 51.4543,12.15 C51.8293,12.15 52.4143,12.09 52.6693,12 L52.3693,10.35 Z M59.7061,9.735 C59.3611,10.11 58.7011,10.575 57.8761,10.575 C56.8411,10.575 56.0161,9.87 55.9111,8.85 L60.9511,8.85 C60.9811,8.685 60.9961,8.49 60.9961,8.295 C60.9961,6.27 59.5711,4.575 57.5611,4.575 C55.4011,4.575 54.0211,6.345 54.0211,8.37 C54.0211,10.65 55.6561,12.15 57.8311,12.15 C58.9561,12.15 60.1111,11.685 60.8161,10.845 L59.7061,9.735 Z M56.0011,7.425 C56.0911,6.765 56.7511,6.15 57.5611,6.15 C58.3561,6.15 58.9411,6.78 59.0011,7.425 L56.0011,7.425 Z M66.6914,15.6 L68.6414,15.6 L68.6414,11.49 C69.2264,11.94 69.8564,12.15 70.5914,12.15 C71.6714,12.15 72.7064,11.67 73.3514,10.92 C73.9214,10.26 74.2664,9.36 74.2664,8.37 C74.2664,6.225 72.6764,4.575 70.6964,4.575 C69.8714,4.575 69.1364,4.845 68.5664,5.31 L68.5664,4.725 L66.6914,4.725 L66.6914,15.6 Z M68.6414,7.275 C69.0464,6.735 69.6914,6.375 70.4414,6.375 C71.5814,6.375 72.3164,7.32 72.3164,8.37 C72.3164,9.51 71.4914,10.35 70.3964,10.35 C69.6614,10.35 69.0164,9.99 68.6414,9.45 L68.6414,7.275 Z M80.5699,4.635 C80.3599,4.605 80.1949,4.575 79.9099,4.575 C79.0249,4.575 78.2299,4.92 77.7949,5.46 L77.7949,4.725 L75.9199,4.725 L75.9199,12 L77.8699,12 L77.8699,7.425 C78.1099,6.99 78.7849,6.375 79.6399,6.375 C79.9249,6.375 80.2099,6.405 80.3449,6.45 L80.5699,4.635 Z M81.4723,8.37 C81.4723,10.47 83.1373,12.15 85.3423,12.15 C87.5473,12.15 89.2123,10.47 89.2123,8.37 C89.2123,6.27 87.5473,4.575 85.3423,4.575 C83.1373,4.575 81.4723,6.27 81.4723,8.37 Z M83.4223,8.37 C83.4223,7.275 84.2023,6.375 85.3423,6.375 C86.4823,6.375 87.2623,7.275 87.2623,8.37 C87.2623,9.465 86.4823,10.35 85.3423,10.35 C84.2023,10.35 83.4223,9.465 83.4223,8.37 Z M97.8363,4.725 L95.9613,4.725 L95.9613,5.31 C95.3913,4.845 94.6563,4.575 93.8313,4.575 C91.8513,4.575 90.2613,6.225 90.2613,8.37 C90.2613,9.36 90.6063,10.26 91.1763,10.92 C91.8213,11.67 92.8563,12.15 93.9363,12.15 C94.6713,12.15 95.3013,11.94 95.8863,11.49 L95.8863,11.73 C95.8863,12.66 95.7363,13.11 95.4363,13.44 C95.1063,13.83 94.5813,14.025 93.9513,14.025 C92.7513,14.025 92.0763,13.395 91.6863,12.975 L90.4563,14.25 C91.1763,15.09 92.5263,15.75 93.9513,15.75 C95.3463,15.75 96.5163,15.21 97.1763,14.295 C97.6113,13.68 97.8363,12.9 97.8363,11.595 L97.8363,4.725 Z M95.8863,9.45 C95.5113,9.99 94.8663,10.35 94.1313,10.35 C93.0363,10.35 92.2113,9.51 92.2113,8.37 C92.2113,7.32 92.9463,6.375 94.0863,6.375 C94.8363,6.375 95.4813,6.735 95.8863,7.275 L95.8863,9.45 Z M104.74,4.635 C104.53,4.605 104.365,4.575 104.08,4.575 C103.195,4.575 102.4,4.92 101.965,5.46 L101.965,4.725 L100.09,4.725 L100.09,12 L102.04,12 L102.04,7.425 C102.28,6.99 102.955,6.375 103.81,6.375 C104.095,6.375 104.38,6.405 104.515,6.45 L104.74,4.635 Z M111.267,9.45 C110.892,9.99 110.247,10.35 109.512,10.35 C108.417,10.35 107.592,9.51 107.592,8.37 C107.592,7.32 108.327,6.375 109.467,6.375 C110.217,6.375 110.862,6.735 111.267,7.275 L111.267,9.45 Z M113.217,4.725 L111.342,4.725 L111.342,5.31 C110.772,4.845 110.037,4.575 109.212,4.575 C107.232,4.575 105.642,6.225 105.642,8.37 C105.642,9.36 106.002,10.26 106.572,10.92 C107.217,11.67 108.237,12.15 109.317,12.15 C110.052,12.15 110.742,11.925 111.342,11.415 L111.342,12 L113.217,12 L113.217,4.725 Z M117.421,12 L117.421,7.275 C117.691,6.93 118.291,6.375 119.116,6.375 C119.491,6.375 119.911,6.495 120.211,6.825 C120.436,7.08 120.571,7.41 120.571,8.07 L120.571,12 L122.521,12 L122.521,8.145 C122.521,7.845 122.491,7.575 122.461,7.335 C122.716,6.96 123.376,6.375 124.216,6.375 C124.591,6.375 125.011,6.495 125.311,6.825 C125.536,7.08 125.671,7.41 125.671,8.07 L125.671,12 L127.621,12 L127.621,8.145 C127.621,7.065 127.351,6.315 126.886,5.745 C126.301,5.025 125.341,4.575 124.336,4.575 C123.256,4.575 122.341,5.1 121.756,5.715 C121.186,5.025 120.301,4.575 119.311,4.575 C118.606,4.575 117.916,4.8 117.346,5.31 L117.346,4.725 L115.471,4.725 L115.471,12 L117.421,12 Z M136.542,8.25 C136.542,6.105 137.187,4.005 138.327,2.37 L136.872,1.35 C135.507,3.3 134.742,5.7 134.742,8.25 C134.742,10.8 135.507,13.2 136.872,15.15 L138.327,14.13 C137.187,12.495 136.542,10.395 136.542,8.25 Z M141.943,6.75 C141.943,4.77 143.413,3.15 145.393,3.15 C147.373,3.15 148.843,4.77 148.843,6.75 C148.843,8.73 147.373,10.35 145.393,10.35 C143.413,10.35 141.943,8.73 141.943,6.75 Z M139.918,6.75 C139.918,9.735 142.153,12.15 145.393,12.15 C148.633,12.15 150.868,9.735 150.868,6.75 C150.868,3.765 148.633,1.35 145.393,1.35 C142.153,1.35 139.918,3.765 139.918,6.75 Z M151.693,1.5 L151.693,3.3 L154.468,3.3 L154.468,12 L156.493,12 L156.493,3.3 L159.268,3.3 L159.268,1.5 L151.693,1.5 Z M165.609,3.15 C166.644,3.15 167.529,3.6 168.159,4.23 L169.464,2.85 C168.519,1.935 167.184,1.35 165.624,1.35 C162.354,1.35 160.089,3.735 160.089,6.75 C160.089,9.765 162.384,12.15 165.654,12.15 C167.574,12.15 169.134,11.325 170.064,10.14 L168.669,8.895 C168.054,9.69 167.064,10.35 165.699,10.35 C163.674,10.35 162.114,8.79 162.114,6.75 C162.114,4.755 163.614,3.15 165.609,3.15 Z M173.286,8.25 C173.286,10.395 172.641,12.495 171.501,14.13 L172.956,15.15 C174.321,13.2 175.086,10.8 175.086,8.25 C175.086,5.7 174.321,3.3 172.956,1.35 L171.501,2.37 C172.641,4.005 173.286,6.105 173.286,8.25 Z" id="path8_fill"></path>
                </g>
            </g>
            <g id="Signal" transform="translate(97.000000, 359.000000)" fill="#333333">
                <g id="path9_fill-link">
                    <path d="M0.15,10.575 C1.23,11.565 2.535,12.15 3.945,12.15 C5.835,12.15 7.5,10.86 7.5,9 C7.5,5.46 2.655,5.985 2.655,4.29 C2.655,3.48 3.51,3.15 4.275,3.15 C4.965,3.15 5.67,3.45 6.09,3.84 L7.14,2.34 C6.15,1.605 5.16,1.35 4.095,1.35 C2.355,1.35 0.63,2.43 0.63,4.305 C0.63,5.49 1.29,6.21 2.115,6.69 C3.525,7.515 5.475,7.68 5.475,9.03 C5.475,9.795 4.845,10.35 3.945,10.35 C2.985,10.35 2.07,9.855 1.47,9.195 L0.15,10.575 Z M11.1023,4.725 L9.15234,4.725 L9.15234,12 L11.1023,12 L11.1023,4.725 Z M8.85234,2.145 C8.85234,2.85 9.42234,3.39 10.1273,3.39 C10.8323,3.39 11.4023,2.85 11.4023,2.145 C11.4023,1.44 10.8323,0.9 10.1273,0.9 C9.42234,0.9 8.85234,1.44 8.85234,2.145 Z M20.3314,4.725 L18.4564,4.725 L18.4564,5.31 C17.8864,4.845 17.1514,4.575 16.3264,4.575 C14.3464,4.575 12.7564,6.225 12.7564,8.37 C12.7564,9.36 13.1014,10.26 13.6714,10.92 C14.3164,11.67 15.3514,12.15 16.4314,12.15 C17.1664,12.15 17.7964,11.94 18.3814,11.49 L18.3814,11.73 C18.3814,12.66 18.2314,13.11 17.9314,13.44 C17.6014,13.83 17.0764,14.025 16.4464,14.025 C15.2464,14.025 14.5714,13.395 14.1814,12.975 L12.9514,14.25 C13.6714,15.09 15.0214,15.75 16.4464,15.75 C17.8414,15.75 19.0114,15.21 19.6714,14.295 C20.1064,13.68 20.3314,12.9 20.3314,11.595 L20.3314,4.725 Z M18.3814,9.45 C18.0064,9.99 17.3614,10.35 16.6264,10.35 C15.5314,10.35 14.7064,9.51 14.7064,8.37 C14.7064,7.32 15.4414,6.375 16.5814,6.375 C17.3314,6.375 17.9764,6.735 18.3814,7.275 L18.3814,9.45 Z M24.535,12 L24.535,7.275 C24.805,6.9 25.48,6.375 26.305,6.375 C26.755,6.375 27.145,6.525 27.4,6.78 C27.67,7.05 27.835,7.425 27.835,8.145 L27.835,12 L29.785,12 L29.785,8.295 C29.785,7.05 29.515,6.315 29.035,5.745 C28.435,5.025 27.52,4.575 26.515,4.575 C25.705,4.575 25.015,4.86 24.46,5.31 L24.46,4.725 L22.585,4.725 L22.585,12 L24.535,12 Z M36.9117,9.45 C36.5367,9.99 35.8917,10.35 35.1567,10.35 C34.0617,10.35 33.2367,9.51 33.2367,8.37 C33.2367,7.32 33.9717,6.375 35.1117,6.375 C35.8617,6.375 36.5067,6.735 36.9117,7.275 L36.9117,9.45 Z M38.8617,4.725 L36.9867,4.725 L36.9867,5.31 C36.4167,4.845 35.6817,4.575 34.8567,4.575 C32.8767,4.575 31.2867,6.225 31.2867,8.37 C31.2867,9.36 31.6467,10.26 32.2167,10.92 C32.8617,11.67 33.8817,12.15 34.9617,12.15 C35.6967,12.15 36.3867,11.925 36.9867,11.415 L36.9867,12 L38.8617,12 L38.8617,4.725 Z M43.0652,1.35 L41.1152,1.35 L41.1152,12 L43.0652,12 L43.0652,1.35 Z" id="path9_fill"></path>
                </g>
            </g>
            <g id="Hardware-wallet" transform="translate(98.000000, 402.000000)" fill="#333333">
                <g id="path10_fill-link">
                    <path d="M7.475,11 L9.5,11 L9.5,0.5 L7.475,0.5 L7.475,4.475 L2.225,4.475 L2.225,0.5 L0.2,0.5 L0.2,11 L2.225,11 L2.225,6.275 L7.475,6.275 L7.475,11 Z M16.8541,8.45 C16.4791,8.99 15.8341,9.35 15.0991,9.35 C14.0041,9.35 13.1791,8.51 13.1791,7.37 C13.1791,6.32 13.9141,5.375 15.0541,5.375 C15.8041,5.375 16.4491,5.735 16.8541,6.275 L16.8541,8.45 Z M18.8041,3.725 L16.9291,3.725 L16.9291,4.31 C16.3591,3.845 15.6241,3.575 14.7991,3.575 C12.8191,3.575 11.2291,5.225 11.2291,7.37 C11.2291,8.36 11.5891,9.26 12.1591,9.92 C12.8041,10.67 13.8241,11.15 14.9041,11.15 C15.6391,11.15 16.3291,10.925 16.9291,10.415 L16.9291,11 L18.8041,11 L18.8041,3.725 Z M25.7076,3.635 C25.4976,3.605 25.3326,3.575 25.0476,3.575 C24.1626,3.575 23.3676,3.92 22.9326,4.46 L22.9326,3.725 L21.0576,3.725 L21.0576,11 L23.0076,11 L23.0076,6.425 C23.2476,5.99 23.9226,5.375 24.7776,5.375 C25.0626,5.375 25.3476,5.405 25.4826,5.45 L25.7076,3.635 Z M32.235,8.45 C31.86,8.99 31.215,9.35 30.48,9.35 C29.385,9.35 28.56,8.51 28.56,7.37 C28.56,6.32 29.295,5.375 30.435,5.375 C31.185,5.375 31.83,5.735 32.235,6.275 L32.235,8.45 Z M34.185,11 L34.185,0.35 L32.235,0.35 L32.235,4.25 C31.665,3.8 30.975,3.575 30.18,3.575 C28.2,3.575 26.61,5.225 26.61,7.37 C26.61,8.36 26.97,9.26 27.54,9.92 C28.185,10.67 29.205,11.15 30.285,11.15 C31.02,11.15 31.71,10.925 32.31,10.415 L32.31,11 L34.185,11 Z M41.7035,6.77 L43.5335,11 L44.8835,11 L47.9435,3.725 L45.9785,3.725 L44.1935,7.97 L42.3785,3.725 L41.0285,3.725 L39.1985,7.97 L37.4285,3.725 L35.4635,3.725 L38.5235,11 L39.8735,11 L41.7035,6.77 Z M54.2369,8.45 C53.8619,8.99 53.2169,9.35 52.4819,9.35 C51.3869,9.35 50.5619,8.51 50.5619,7.37 C50.5619,6.32 51.2969,5.375 52.4369,5.375 C53.1869,5.375 53.8319,5.735 54.2369,6.275 L54.2369,8.45 Z M56.1869,3.725 L54.3119,3.725 L54.3119,4.31 C53.7419,3.845 53.0069,3.575 52.1819,3.575 C50.2019,3.575 48.6119,5.225 48.6119,7.37 C48.6119,8.36 48.9719,9.26 49.5419,9.92 C50.1869,10.67 51.2069,11.15 52.2869,11.15 C53.0219,11.15 53.7119,10.925 54.3119,10.415 L54.3119,11 L56.1869,11 L56.1869,3.725 Z M63.0904,3.635 C62.8804,3.605 62.7154,3.575 62.4304,3.575 C61.5454,3.575 60.7504,3.92 60.3154,4.46 L60.3154,3.725 L58.4404,3.725 L58.4404,11 L60.3904,11 L60.3904,6.425 C60.6304,5.99 61.3054,5.375 62.1604,5.375 C62.4454,5.375 62.7304,5.405 62.8654,5.45 L63.0904,3.635 Z M69.6778,8.735 C69.3328,9.11 68.6728,9.575 67.8478,9.575 C66.8128,9.575 65.9878,8.87 65.8828,7.85 L70.9228,7.85 C70.9528,7.685 70.9678,7.49 70.9678,7.295 C70.9678,5.27 69.5428,3.575 67.5328,3.575 C65.3728,3.575 63.9928,5.345 63.9928,7.37 C63.9928,9.65 65.6278,11.15 67.8028,11.15 C68.9278,11.15 70.0828,10.685 70.7878,9.845 L69.6778,8.735 Z M65.9728,6.425 C66.0628,5.765 66.7228,5.15 67.5328,5.15 C68.3278,5.15 68.9128,5.78 68.9728,6.425 L65.9728,6.425 Z M81.9281,6.77 L83.7581,11 L85.1081,11 L88.1681,3.725 L86.2031,3.725 L84.4181,7.97 L82.6031,3.725 L81.2531,3.725 L79.4231,7.97 L77.6531,3.725 L75.6881,3.725 L78.7481,11 L80.0981,11 L81.9281,6.77 Z M94.4615,8.45 C94.0865,8.99 93.4415,9.35 92.7065,9.35 C91.6115,9.35 90.7865,8.51 90.7865,7.37 C90.7865,6.32 91.5215,5.375 92.6615,5.375 C93.4115,5.375 94.0565,5.735 94.4615,6.275 L94.4615,8.45 Z M96.4115,3.725 L94.5365,3.725 L94.5365,4.31 C93.9665,3.845 93.2315,3.575 92.4065,3.575 C90.4265,3.575 88.8365,5.225 88.8365,7.37 C88.8365,8.36 89.1965,9.26 89.7665,9.92 C90.4115,10.67 91.4315,11.15 92.5115,11.15 C93.2465,11.15 93.9365,10.925 94.5365,10.415 L94.5365,11 L96.4115,11 L96.4115,3.725 Z M100.615,0.35 L98.665,0.35 L98.665,11 L100.615,11 L100.615,0.35 Z M104.819,0.35 L102.869,0.35 L102.869,11 L104.819,11 L104.819,0.35 Z M112.158,8.735 C111.813,9.11 111.153,9.575 110.328,9.575 C109.293,9.575 108.468,8.87 108.363,7.85 L113.403,7.85 C113.433,7.685 113.448,7.49 113.448,7.295 C113.448,5.27 112.023,3.575 110.013,3.575 C107.853,3.575 106.473,5.345 106.473,7.37 C106.473,9.65 108.108,11.15 110.283,11.15 C111.408,11.15 112.563,10.685 113.268,9.845 L112.158,8.735 Z M108.453,6.425 C108.543,5.765 109.203,5.15 110.013,5.15 C110.808,5.15 111.393,5.78 111.453,6.425 L108.453,6.425 Z M120.276,9.35 C120.141,9.38 119.766,9.425 119.481,9.425 C119.001,9.425 118.686,9.29 118.491,9.065 C118.326,8.87 118.251,8.6 118.251,8.15 L118.251,5.375 L120.651,5.375 L120.651,3.725 L118.251,3.725 L118.251,1.7 L116.301,1.7 L116.301,3.725 L114.276,3.725 L114.276,5.375 L116.301,5.375 L116.301,7.925 C116.301,8.96 116.466,9.605 116.841,10.1 C117.336,10.76 118.191,11.15 119.361,11.15 C119.736,11.15 120.321,11.09 120.576,11 L120.276,9.35 Z" id="path10_fill"></path>
                </g>
            </g>
            <g id="Advanced-Spend-Builder" transform="translate(97.000000, 446.000000)" fill="#333333">
                <g id="path11_fill-link">
                    <path d="M2.115,12 L3.105,9.675 L7.32,9.675 L8.31,12 L10.425,12 L5.925,1.5 L4.5,1.5 L0,12 L2.115,12 Z M5.205,4.77 L6.54,7.875 L3.87,7.875 L5.205,4.77 Z M16.5797,9.45 C16.2047,9.99 15.5597,10.35 14.8247,10.35 C13.7297,10.35 12.9047,9.51 12.9047,8.37 C12.9047,7.32 13.6397,6.375 14.7797,6.375 C15.5297,6.375 16.1747,6.735 16.5797,7.275 L16.5797,9.45 Z M18.5297,12 L18.5297,1.35 L16.5797,1.35 L16.5797,5.25 C16.0097,4.8 15.3197,4.575 14.5247,4.575 C12.5447,4.575 10.9547,6.225 10.9547,8.37 C10.9547,9.36 11.3147,10.26 11.8847,10.92 C12.5297,11.67 13.5497,12.15 14.6297,12.15 C15.3647,12.15 16.0547,11.925 16.6547,11.415 L16.6547,12 L18.5297,12 Z M21.8332,4.725 L19.8082,4.725 L23.1532,12 L24.5032,12 L27.8482,4.725 L25.8232,4.725 L23.8282,9.165 L21.8332,4.725 Z M34.1432,9.45 C33.7682,9.99 33.1232,10.35 32.3882,10.35 C31.2932,10.35 30.4682,9.51 30.4682,8.37 C30.4682,7.32 31.2032,6.375 32.3432,6.375 C33.0932,6.375 33.7382,6.735 34.1432,7.275 L34.1432,9.45 Z M36.0932,4.725 L34.2182,4.725 L34.2182,5.31 C33.6482,4.845 32.9132,4.575 32.0882,4.575 C30.1082,4.575 28.5182,6.225 28.5182,8.37 C28.5182,9.36 28.8782,10.26 29.4482,10.92 C30.0932,11.67 31.1132,12.15 32.1932,12.15 C32.9282,12.15 33.6182,11.925 34.2182,11.415 L34.2182,12 L36.0932,12 L36.0932,4.725 Z M40.2967,12 L40.2967,7.275 C40.5667,6.9 41.2417,6.375 42.0667,6.375 C42.5167,6.375 42.9067,6.525 43.1617,6.78 C43.4317,7.05 43.5967,7.425 43.5967,8.145 L43.5967,12 L45.5467,12 L45.5467,8.295 C45.5467,7.05 45.2767,6.315 44.7967,5.745 C44.1967,5.025 43.2817,4.575 42.2767,4.575 C41.4667,4.575 40.7767,4.86 40.2217,5.31 L40.2217,4.725 L38.3467,4.725 L38.3467,12 L40.2967,12 Z M52.7484,9.39 C52.4334,9.87 51.8034,10.35 51.0084,10.35 C49.8234,10.35 48.9984,9.51 48.9984,8.37 C48.9984,7.26 49.8384,6.375 50.9634,6.375 C51.6684,6.375 52.2534,6.735 52.6434,7.245 L54.0234,6.03 C53.3484,5.16 52.2234,4.575 50.9634,4.575 C48.7434,4.575 47.0484,6.255 47.0484,8.37 C47.0484,10.47 48.6984,12.15 50.9484,12.15 C52.3134,12.15 53.3934,11.655 54.2484,10.515 L52.7484,9.39 Z M60.834,9.735 C60.489,10.11 59.829,10.575 59.004,10.575 C57.969,10.575 57.144,9.87 57.039,8.85 L62.079,8.85 C62.109,8.685 62.124,8.49 62.124,8.295 C62.124,6.27 60.699,4.575 58.689,4.575 C56.529,4.575 55.149,6.345 55.149,8.37 C55.149,10.65 56.784,12.15 58.959,12.15 C60.084,12.15 61.239,11.685 61.944,10.845 L60.834,9.735 Z M57.129,7.425 C57.219,6.765 57.879,6.15 58.689,6.15 C59.484,6.15 60.069,6.78 60.129,7.425 L57.129,7.425 Z M68.8014,9.45 C68.4264,9.99 67.7814,10.35 67.0464,10.35 C65.9514,10.35 65.1264,9.51 65.1264,8.37 C65.1264,7.32 65.8614,6.375 67.0014,6.375 C67.7514,6.375 68.3964,6.735 68.8014,7.275 L68.8014,9.45 Z M70.7514,12 L70.7514,1.35 L68.8014,1.35 L68.8014,5.25 C68.2314,4.8 67.5414,4.575 66.7464,4.575 C64.7664,4.575 63.1764,6.225 63.1764,8.37 C63.1764,9.36 63.5364,10.26 64.1064,10.92 C64.7514,11.67 65.7714,12.15 66.8514,12.15 C67.5864,12.15 68.2764,11.925 68.8764,11.415 L68.8764,12 L70.7514,12 Z M76.0729,10.575 C77.1529,11.565 78.4579,12.15 79.8679,12.15 C81.7579,12.15 83.4229,10.86 83.4229,9 C83.4229,5.46 78.5779,5.985 78.5779,4.29 C78.5779,3.48 79.4329,3.15 80.1979,3.15 C80.8879,3.15 81.5929,3.45 82.0129,3.84 L83.0629,2.34 C82.0729,1.605 81.0829,1.35 80.0179,1.35 C78.2779,1.35 76.5529,2.43 76.5529,4.305 C76.5529,5.49 77.2129,6.21 78.0379,6.69 C79.4479,7.515 81.3979,7.68 81.3979,9.03 C81.3979,9.795 80.7679,10.35 79.8679,10.35 C78.9079,10.35 77.9929,9.855 77.3929,9.195 L76.0729,10.575 Z M85.0752,15.6 L87.0252,15.6 L87.0252,11.49 C87.6102,11.94 88.2402,12.15 88.9752,12.15 C90.0552,12.15 91.0902,11.67 91.7352,10.92 C92.3052,10.26 92.6502,9.36 92.6502,8.37 C92.6502,6.225 91.0602,4.575 89.0802,4.575 C88.2552,4.575 87.5202,4.845 86.9502,5.31 L86.9502,4.725 L85.0752,4.725 L85.0752,15.6 Z M87.0252,7.275 C87.4302,6.735 88.0752,6.375 88.8252,6.375 C89.9652,6.375 90.7002,7.32 90.7002,8.37 C90.7002,9.51 89.8752,10.35 88.7802,10.35 C88.0452,10.35 87.4002,9.99 87.0252,9.45 L87.0252,7.275 Z M99.3887,9.735 C99.0437,10.11 98.3837,10.575 97.5587,10.575 C96.5237,10.575 95.6987,9.87 95.5937,8.85 L100.634,8.85 C100.664,8.685 100.679,8.49 100.679,8.295 C100.679,6.27 99.2537,4.575 97.2437,4.575 C95.0837,4.575 93.7037,6.345 93.7037,8.37 C93.7037,10.65 95.3387,12.15 97.5137,12.15 C98.6387,12.15 99.7937,11.685 100.499,10.845 L99.3887,9.735 Z M95.6837,7.425 C95.7737,6.765 96.4337,6.15 97.2437,6.15 C98.0387,6.15 98.6237,6.78 98.6837,7.425 L95.6837,7.425 Z M104.281,12 L104.281,7.275 C104.551,6.9 105.226,6.375 106.051,6.375 C106.501,6.375 106.891,6.525 107.146,6.78 C107.416,7.05 107.581,7.425 107.581,8.145 L107.581,12 L109.531,12 L109.531,8.295 C109.531,7.05 109.261,6.315 108.781,5.745 C108.181,5.025 107.266,4.575 106.261,4.575 C105.451,4.575 104.761,4.86 104.206,5.31 L104.206,4.725 L102.331,4.725 L102.331,12 L104.281,12 Z M116.658,9.45 C116.283,9.99 115.638,10.35 114.903,10.35 C113.808,10.35 112.983,9.51 112.983,8.37 C112.983,7.32 113.718,6.375 114.858,6.375 C115.608,6.375 116.253,6.735 116.658,7.275 L116.658,9.45 Z M118.608,12 L118.608,1.35 L116.658,1.35 L116.658,5.25 C116.088,4.8 115.398,4.575 114.603,4.575 C112.623,4.575 111.033,6.225 111.033,8.37 C111.033,9.36 111.393,10.26 111.963,10.92 C112.608,11.67 113.628,12.15 114.708,12.15 C115.443,12.15 116.133,11.925 116.733,11.415 L116.733,12 L118.608,12 Z M124.979,1.5 L124.979,12 L129.074,12 C130.424,12 131.234,11.64 131.819,11.055 C132.404,10.485 132.779,9.675 132.779,8.79 C132.779,7.62 132.134,6.57 131.204,6.105 C131.549,5.745 131.879,5.04 131.879,4.35 C131.879,3.495 131.489,2.745 130.904,2.235 C130.394,1.785 129.734,1.5 128.549,1.5 L124.979,1.5 Z M127.004,3.3 L128.429,3.3 C129.059,3.3 129.344,3.45 129.554,3.675 C129.734,3.87 129.854,4.14 129.854,4.425 C129.854,4.71 129.734,4.98 129.554,5.175 C129.344,5.4 129.059,5.55 128.429,5.55 L127.004,5.55 L127.004,3.3 Z M127.004,10.2 L127.004,7.35 L129.029,7.35 C129.734,7.35 130.124,7.53 130.379,7.815 C130.619,8.07 130.754,8.4 130.754,8.775 C130.754,9.15 130.619,9.48 130.379,9.735 C130.124,10.02 129.734,10.2 129.029,10.2 L127.004,10.2 Z M139.229,4.725 L139.229,9.45 C138.959,9.795 138.359,10.35 137.534,10.35 C137.159,10.35 136.739,10.23 136.439,9.9 C136.214,9.645 136.079,9.315 136.079,8.655 L136.079,4.725 L134.129,4.725 L134.129,8.58 C134.129,9.66 134.399,10.41 134.864,10.98 C135.434,11.685 136.334,12.15 137.339,12.15 C138.044,12.15 138.734,11.925 139.304,11.415 L139.304,12 L141.179,12 L141.179,4.725 L139.229,4.725 Z M145.385,4.725 L143.435,4.725 L143.435,12 L145.385,12 L145.385,4.725 Z M143.135,2.145 C143.135,2.85 143.705,3.39 144.41,3.39 C145.115,3.39 145.685,2.85 145.685,2.145 C145.685,1.44 145.115,0.9 144.41,0.9 C143.705,0.9 143.135,1.44 143.135,2.145 Z M149.589,1.35 L147.639,1.35 L147.639,12 L149.589,12 L149.589,1.35 Z M156.868,9.45 C156.493,9.99 155.848,10.35 155.113,10.35 C154.018,10.35 153.193,9.51 153.193,8.37 C153.193,7.32 153.928,6.375 155.068,6.375 C155.818,6.375 156.463,6.735 156.868,7.275 L156.868,9.45 Z M158.818,12 L158.818,1.35 L156.868,1.35 L156.868,5.25 C156.298,4.8 155.608,4.575 154.813,4.575 C152.833,4.575 151.243,6.225 151.243,8.37 C151.243,9.36 151.603,10.26 152.173,10.92 C152.818,11.67 153.838,12.15 154.918,12.15 C155.653,12.15 156.343,11.925 156.943,11.415 L156.943,12 L158.818,12 Z M166.156,9.735 C165.811,10.11 165.151,10.575 164.326,10.575 C163.291,10.575 162.466,9.87 162.361,8.85 L167.401,8.85 C167.431,8.685 167.446,8.49 167.446,8.295 C167.446,6.27 166.021,4.575 164.011,4.575 C161.851,4.575 160.471,6.345 160.471,8.37 C160.471,10.65 162.106,12.15 164.281,12.15 C165.406,12.15 166.561,11.685 167.266,10.845 L166.156,9.735 Z M162.451,7.425 C162.541,6.765 163.201,6.15 164.011,6.15 C164.806,6.15 165.391,6.78 165.451,7.425 L162.451,7.425 Z M173.749,4.635 C173.539,4.605 173.374,4.575 173.089,4.575 C172.204,4.575 171.409,4.92 170.974,5.46 L170.974,4.725 L169.099,4.725 L169.099,12 L171.049,12 L171.049,7.425 C171.289,6.99 171.964,6.375 172.819,6.375 C173.104,6.375 173.389,6.405 173.524,6.45 L173.749,4.635 Z" id="path11_fill"></path>
                </g>
            </g>
            <g id="Mobile-Wallet-Android" transform="translate(98.000000, 489.000000)" fill="#333333">
                <g id="path6_fill-link">
                    <path d="M1.625,1.5 L0.2,1.5 L0.2,12 L2.225,12 L2.225,6.15 L4.745,10.275 L6.155,10.275 L8.675,6.15 L8.675,12 L10.7,12 L10.7,1.5 L9.275,1.5 L5.45,7.785 L1.625,1.5 Z M12.4303,8.37 C12.4303,10.47 14.0953,12.15 16.3003,12.15 C18.5053,12.15 20.1703,10.47 20.1703,8.37 C20.1703,6.27 18.5053,4.575 16.3003,4.575 C14.0953,4.575 12.4303,6.27 12.4303,8.37 Z M14.3803,8.37 C14.3803,7.275 15.1603,6.375 16.3003,6.375 C17.4403,6.375 18.2203,7.275 18.2203,8.37 C18.2203,9.465 17.4403,10.35 16.3003,10.35 C15.1603,10.35 14.3803,9.465 14.3803,8.37 Z M23.7693,7.275 C24.1743,6.735 24.8193,6.375 25.5693,6.375 C26.7093,6.375 27.4443,7.32 27.4443,8.37 C27.4443,9.51 26.6193,10.35 25.5243,10.35 C24.7893,10.35 24.1443,9.99 23.7693,9.45 L23.7693,7.275 Z M23.6943,12 L23.6943,11.415 C24.2943,11.925 24.9843,12.15 25.7193,12.15 C26.7993,12.15 27.8193,11.67 28.4643,10.92 C29.0343,10.26 29.3943,9.36 29.3943,8.37 C29.3943,6.225 27.8043,4.575 25.8243,4.575 C25.0293,4.575 24.3393,4.8 23.7693,5.25 L23.7693,1.35 L21.8193,1.35 L21.8193,12 L23.6943,12 Z M32.9979,4.725 L31.0479,4.725 L31.0479,12 L32.9979,12 L32.9979,4.725 Z M30.7479,2.145 C30.7479,2.85 31.3179,3.39 32.0229,3.39 C32.7279,3.39 33.2979,2.85 33.2979,2.145 C33.2979,1.44 32.7279,0.9 32.0229,0.9 C31.3179,0.9 30.7479,1.44 30.7479,2.145 Z M37.202,1.35 L35.252,1.35 L35.252,12 L37.202,12 L37.202,1.35 Z M44.5411,9.735 C44.1961,10.11 43.5361,10.575 42.7111,10.575 C41.6761,10.575 40.8511,9.87 40.7461,8.85 L45.7861,8.85 C45.8161,8.685 45.8311,8.49 45.8311,8.295 C45.8311,6.27 44.4061,4.575 42.3961,4.575 C40.2361,4.575 38.8561,6.345 38.8561,8.37 C38.8561,10.65 40.4911,12.15 42.6661,12.15 C43.7911,12.15 44.9461,11.685 45.6511,10.845 L44.5411,9.735 Z M40.8361,7.425 C40.9261,6.765 41.5861,6.15 42.3961,6.15 C43.1911,6.15 43.7761,6.78 43.8361,7.425 L40.8361,7.425 Z M54.0314,12 L55.4564,12 L57.7814,5.355 L60.1214,12 L61.5464,12 L65.0264,1.5 L62.9864,1.5 L60.8114,8.055 L58.5014,1.5 L57.0764,1.5 L54.7664,8.055 L52.5914,1.5 L50.5514,1.5 L54.0314,12 Z M71.3316,9.45 C70.9566,9.99 70.3116,10.35 69.5766,10.35 C68.4816,10.35 67.6566,9.51 67.6566,8.37 C67.6566,7.32 68.3916,6.375 69.5316,6.375 C70.2816,6.375 70.9266,6.735 71.3316,7.275 L71.3316,9.45 Z M73.2816,4.725 L71.4066,4.725 L71.4066,5.31 C70.8366,4.845 70.1016,4.575 69.2766,4.575 C67.2966,4.575 65.7066,6.225 65.7066,8.37 C65.7066,9.36 66.0666,10.26 66.6366,10.92 C67.2816,11.67 68.3016,12.15 69.3816,12.15 C70.1166,12.15 70.8066,11.925 71.4066,11.415 L71.4066,12 L73.2816,12 L73.2816,4.725 Z M77.4852,1.35 L75.5352,1.35 L75.5352,12 L77.4852,12 L77.4852,1.35 Z M81.6893,1.35 L79.7393,1.35 L79.7393,12 L81.6893,12 L81.6893,1.35 Z M89.0284,9.735 C88.6834,10.11 88.0234,10.575 87.1984,10.575 C86.1634,10.575 85.3384,9.87 85.2334,8.85 L90.2734,8.85 C90.3034,8.685 90.3184,8.49 90.3184,8.295 C90.3184,6.27 88.8934,4.575 86.8834,4.575 C84.7234,4.575 83.3434,6.345 83.3434,8.37 C83.3434,10.65 84.9784,12.15 87.1534,12.15 C88.2784,12.15 89.4334,11.685 90.1384,10.845 L89.0284,9.735 Z M85.3234,7.425 C85.4134,6.765 86.0734,6.15 86.8834,6.15 C87.6784,6.15 88.2634,6.78 88.3234,7.425 L85.3234,7.425 Z M97.1457,10.35 C97.0107,10.38 96.6357,10.425 96.3507,10.425 C95.8707,10.425 95.5557,10.29 95.3607,10.065 C95.1957,9.87 95.1207,9.6 95.1207,9.15 L95.1207,6.375 L97.5207,6.375 L97.5207,4.725 L95.1207,4.725 L95.1207,2.7 L93.1707,2.7 L93.1707,4.725 L91.1457,4.725 L91.1457,6.375 L93.1707,6.375 L93.1707,8.925 C93.1707,9.96 93.3357,10.605 93.7107,11.1 C94.2057,11.76 95.0607,12.15 96.2307,12.15 C96.6057,12.15 97.1907,12.09 97.4457,12 L97.1457,10.35 Z M104.43,12 L105.42,9.675 L109.635,9.675 L110.625,12 L112.74,12 L108.24,1.5 L106.815,1.5 L102.315,12 L104.43,12 Z M107.52,4.77 L108.855,7.875 L106.185,7.875 L107.52,4.77 Z M115.82,12 L115.82,7.275 C116.09,6.9 116.765,6.375 117.59,6.375 C118.04,6.375 118.43,6.525 118.685,6.78 C118.955,7.05 119.12,7.425 119.12,8.145 L119.12,12 L121.07,12 L121.07,8.295 C121.07,7.05 120.8,6.315 120.32,5.745 C119.72,5.025 118.805,4.575 117.8,4.575 C116.99,4.575 116.3,4.86 115.745,5.31 L115.745,4.725 L113.87,4.725 L113.87,12 L115.82,12 Z M128.197,9.45 C127.822,9.99 127.177,10.35 126.442,10.35 C125.347,10.35 124.522,9.51 124.522,8.37 C124.522,7.32 125.257,6.375 126.397,6.375 C127.147,6.375 127.792,6.735 128.197,7.275 L128.197,9.45 Z M130.147,12 L130.147,1.35 L128.197,1.35 L128.197,5.25 C127.627,4.8 126.937,4.575 126.142,4.575 C124.162,4.575 122.572,6.225 122.572,8.37 C122.572,9.36 122.932,10.26 123.502,10.92 C124.147,11.67 125.167,12.15 126.247,12.15 C126.982,12.15 127.672,11.925 128.272,11.415 L128.272,12 L130.147,12 Z M137.05,4.635 C136.84,4.605 136.675,4.575 136.39,4.575 C135.505,4.575 134.71,4.92 134.275,5.46 L134.275,4.725 L132.4,4.725 L132.4,12 L134.35,12 L134.35,7.425 C134.59,6.99 135.265,6.375 136.12,6.375 C136.405,6.375 136.69,6.405 136.825,6.45 L137.05,4.635 Z M137.953,8.37 C137.953,10.47 139.618,12.15 141.823,12.15 C144.028,12.15 145.693,10.47 145.693,8.37 C145.693,6.27 144.028,4.575 141.823,4.575 C139.618,4.575 137.953,6.27 137.953,8.37 Z M139.903,8.37 C139.903,7.275 140.683,6.375 141.823,6.375 C142.963,6.375 143.743,7.275 143.743,8.37 C143.743,9.465 142.963,10.35 141.823,10.35 C140.683,10.35 139.903,9.465 139.903,8.37 Z M149.292,4.725 L147.342,4.725 L147.342,12 L149.292,12 L149.292,4.725 Z M147.042,2.145 C147.042,2.85 147.612,3.39 148.317,3.39 C149.022,3.39 149.592,2.85 149.592,2.145 C149.592,1.44 149.022,0.9 148.317,0.9 C147.612,0.9 147.042,1.44 147.042,2.145 Z M156.571,9.45 C156.196,9.99 155.551,10.35 154.816,10.35 C153.721,10.35 152.896,9.51 152.896,8.37 C152.896,7.32 153.631,6.375 154.771,6.375 C155.521,6.375 156.166,6.735 156.571,7.275 L156.571,9.45 Z M158.521,12 L158.521,1.35 L156.571,1.35 L156.571,5.25 C156.001,4.8 155.311,4.575 154.516,4.575 C152.536,4.575 150.946,6.225 150.946,8.37 C150.946,9.36 151.306,10.26 151.876,10.92 C152.521,11.67 153.541,12.15 154.621,12.15 C155.356,12.15 156.046,11.925 156.646,11.415 L156.646,12 L158.521,12 Z" id="path6_fill"></path>
                </g>
            </g>
            <g id="VPN" transform="translate(97.000000, 534.000000)" fill="#333333">
                <g id="path12_fill-link">
                    <path d="M4.395,11 L5.82,11 L10.065,0.5 L7.98,0.5 L5.1,7.67 L2.235,0.5 L0.15,0.5 L4.395,11 Z M15.355,6.725 C16.705,6.725 17.515,6.395 18.085,5.795 C18.61,5.255 18.91,4.445 18.91,3.62 C18.91,2.795 18.61,1.985 18.085,1.445 C17.5,0.83 16.705,0.5 15.355,0.5 L11.41,0.5 L11.41,11 L13.435,11 L13.435,6.725 L15.355,6.725 Z M13.435,4.925 L13.435,2.3 L15.265,2.3 C15.955,2.3 16.3,2.465 16.54,2.72 C16.765,2.96 16.885,3.275 16.885,3.62 C16.885,3.965 16.765,4.265 16.54,4.505 C16.3,4.76 15.955,4.925 15.265,4.925 L13.435,4.925 Z M20.4041,11 L22.4291,11 L22.4291,4.16 L28.2791,11 L29.7041,11 L29.7041,0.5 L27.6791,0.5 L27.6791,7.34 L21.8291,0.5 L20.4041,0.5 L20.4041,11 Z" id="path12_fill"></path>
                </g>
            </g>
            <g id="BBS" transform="translate(98.000000, 576.000000)" fill="#333333">
                <g id="path13_fill-link">
                    <path d="M0.2,0.5 L0.2,11 L4.295,11 C5.645,11 6.455,10.64 7.04,10.055 C7.625,9.485 8,8.675 8,7.79 C8,6.62 7.355,5.57 6.425,5.105 C6.77,4.745 7.1,4.04 7.1,3.35 C7.1,2.495 6.71,1.745 6.125,1.235 C5.615,0.785 4.955,0.5 3.77,0.5 L0.2,0.5 Z M2.225,2.3 L3.65,2.3 C4.28,2.3 4.565,2.45 4.775,2.675 C4.955,2.87 5.075,3.14 5.075,3.425 C5.075,3.71 4.955,3.98 4.775,4.175 C4.565,4.4 4.28,4.55 3.65,4.55 L2.225,4.55 L2.225,2.3 Z M2.225,9.2 L2.225,6.35 L4.25,6.35 C4.955,6.35 5.345,6.53 5.6,6.815 C5.84,7.07 5.975,7.4 5.975,7.775 C5.975,8.15 5.84,8.48 5.6,8.735 C5.345,9.02 4.955,9.2 4.25,9.2 L2.225,9.2 Z M9.575,0.5 L9.575,11 L13.67,11 C15.02,11 15.83,10.64 16.415,10.055 C17,9.485 17.375,8.675 17.375,7.79 C17.375,6.62 16.73,5.57 15.8,5.105 C16.145,4.745 16.475,4.04 16.475,3.35 C16.475,2.495 16.085,1.745 15.5,1.235 C14.99,0.785 14.33,0.5 13.145,0.5 L9.575,0.5 Z M11.6,2.3 L13.025,2.3 C13.655,2.3 13.94,2.45 14.15,2.675 C14.33,2.87 14.45,3.14 14.45,3.425 C14.45,3.71 14.33,3.98 14.15,4.175 C13.94,4.4 13.655,4.55 13.025,4.55 L11.6,4.55 L11.6,2.3 Z M11.6,9.2 L11.6,6.35 L13.625,6.35 C14.33,6.35 14.72,6.53 14.975,6.815 C15.215,7.07 15.35,7.4 15.35,7.775 C15.35,8.15 15.215,8.48 14.975,8.735 C14.72,9.02 14.33,9.2 13.625,9.2 L11.6,9.2 Z M17.9,9.575 C18.98,10.565 20.285,11.15 21.695,11.15 C23.585,11.15 25.25,9.86 25.25,8 C25.25,4.46 20.405,4.985 20.405,3.29 C20.405,2.48 21.26,2.15 22.025,2.15 C22.715,2.15 23.42,2.45 23.84,2.84 L24.89,1.34 C23.9,0.605 22.91,0.35 21.845,0.35 C20.105,0.35 18.38,1.43 18.38,3.305 C18.38,4.49 19.04,5.21 19.865,5.69 C21.275,6.515 23.225,6.68 23.225,8.03 C23.225,8.795 22.595,9.35 21.695,9.35 C20.735,9.35 19.82,8.855 19.22,8.195 L17.9,9.575 Z" id="path13_fill"></path>
                </g>
            </g>
            <g id="Coinjoin" transform="translate(97.000000, 619.000000)" fill="#333333">
                <g id="path14_fill-link">
                    <path d="M5.97,3.15 C7.005,3.15 7.89,3.6 8.52,4.23 L9.825,2.85 C8.88,1.935 7.545,1.35 5.985,1.35 C2.715,1.35 0.45,3.735 0.45,6.75 C0.45,9.765 2.745,12.15 6.015,12.15 C7.935,12.15 9.495,11.325 10.425,10.14 L9.03,8.895 C8.415,9.69 7.425,10.35 6.06,10.35 C4.035,10.35 2.475,8.79 2.475,6.75 C2.475,4.755 3.975,3.15 5.97,3.15 Z M11.2477,8.37 C11.2477,10.47 12.9127,12.15 15.1177,12.15 C17.3227,12.15 18.9877,10.47 18.9877,8.37 C18.9877,6.27 17.3227,4.575 15.1177,4.575 C12.9127,4.575 11.2477,6.27 11.2477,8.37 Z M13.1977,8.37 C13.1977,7.275 13.9777,6.375 15.1177,6.375 C16.2577,6.375 17.0377,7.275 17.0377,8.37 C17.0377,9.465 16.2577,10.35 15.1177,10.35 C13.9777,10.35 13.1977,9.465 13.1977,8.37 Z M22.5867,4.725 L20.6367,4.725 L20.6367,12 L22.5867,12 L22.5867,4.725 Z M20.3367,2.145 C20.3367,2.85 20.9067,3.39 21.6117,3.39 C22.3167,3.39 22.8867,2.85 22.8867,2.145 C22.8867,1.44 22.3167,0.9 21.6117,0.9 C20.9067,0.9 20.3367,1.44 20.3367,2.145 Z M26.7908,12 L26.7908,7.275 C27.0608,6.9 27.7358,6.375 28.5608,6.375 C29.0108,6.375 29.4008,6.525 29.6558,6.78 C29.9258,7.05 30.0908,7.425 30.0908,8.145 L30.0908,12 L32.0408,12 L32.0408,8.295 C32.0408,7.05 31.7708,6.315 31.2908,5.745 C30.6908,5.025 29.7758,4.575 28.7708,4.575 C27.9608,4.575 27.2708,4.86 26.7158,5.31 L26.7158,4.725 L24.8408,4.725 L24.8408,12 L26.7908,12 Z M32.7176,15.645 C32.9276,15.69 33.3026,15.75 33.6926,15.75 C34.9526,15.75 35.7176,15.3 36.1676,14.67 C36.5426,14.13 36.6926,13.47 36.6926,12.375 L36.6926,4.725 L34.7426,4.725 L34.7426,12.375 C34.7426,13.095 34.6526,13.41 34.4576,13.62 C34.2476,13.845 33.9326,13.95 33.5276,13.95 C33.4226,13.95 33.1526,13.92 33.0176,13.875 L32.7176,15.645 Z M34.4426,2.145 C34.4426,2.85 35.0126,3.39 35.7176,3.39 C36.4226,3.39 36.9926,2.85 36.9926,2.145 C36.9926,1.44 36.4226,0.9 35.7176,0.9 C35.0126,0.9 34.4426,1.44 34.4426,2.145 Z M38.3473,8.37 C38.3473,10.47 40.0123,12.15 42.2173,12.15 C44.4223,12.15 46.0873,10.47 46.0873,8.37 C46.0873,6.27 44.4223,4.575 42.2173,4.575 C40.0123,4.575 38.3473,6.27 38.3473,8.37 Z M40.2973,8.37 C40.2973,7.275 41.0773,6.375 42.2173,6.375 C43.3573,6.375 44.1373,7.275 44.1373,8.37 C44.1373,9.465 43.3573,10.35 42.2173,10.35 C41.0773,10.35 40.2973,9.465 40.2973,8.37 Z M49.6863,4.725 L47.7363,4.725 L47.7363,12 L49.6863,12 L49.6863,4.725 Z M47.4363,2.145 C47.4363,2.85 48.0063,3.39 48.7113,3.39 C49.4163,3.39 49.9863,2.85 49.9863,2.145 C49.9863,1.44 49.4163,0.9 48.7113,0.9 C48.0063,0.9 47.4363,1.44 47.4363,2.145 Z M53.8904,12 L53.8904,7.275 C54.1604,6.9 54.8354,6.375 55.6604,6.375 C56.1104,6.375 56.5004,6.525 56.7554,6.78 C57.0254,7.05 57.1904,7.425 57.1904,8.145 L57.1904,12 L59.1404,12 L59.1404,8.295 C59.1404,7.05 58.8704,6.315 58.3904,5.745 C57.7904,5.025 56.8754,4.575 55.8704,4.575 C55.0604,4.575 54.3704,4.86 53.8154,5.31 L53.8154,4.725 L51.9404,4.725 L51.9404,12 L53.8904,12 Z" id="path14_fill"></path>
                </g>
            </g>
            <g id="Web-Wallet" transform="translate(97.000000, 663.000000)" fill="#333333">
                <g id="path15_fill-link">
                    <path d="M3.63,11 L5.055,11 L7.38,4.355 L9.72,11 L11.145,11 L14.625,0.5 L12.585,0.5 L10.41,7.055 L8.1,0.5 L6.675,0.5 L4.365,7.055 L2.19,0.5 L0.15,0.5 L3.63,11 Z M20.9903,8.735 C20.6453,9.11 19.9853,9.575 19.1603,9.575 C18.1253,9.575 17.3003,8.87 17.1953,7.85 L22.2353,7.85 C22.2653,7.685 22.2803,7.49 22.2803,7.295 C22.2803,5.27 20.8553,3.575 18.8453,3.575 C16.6853,3.575 15.3053,5.345 15.3053,7.37 C15.3053,9.65 16.9403,11.15 19.1153,11.15 C20.2403,11.15 21.3953,10.685 22.1003,9.845 L20.9903,8.735 Z M17.2853,6.425 C17.3753,5.765 18.0353,5.15 18.8453,5.15 C19.6403,5.15 20.2253,5.78 20.2853,6.425 L17.2853,6.425 Z M25.8826,6.275 C26.2876,5.735 26.9326,5.375 27.6826,5.375 C28.8226,5.375 29.5576,6.32 29.5576,7.37 C29.5576,8.51 28.7326,9.35 27.6376,9.35 C26.9026,9.35 26.2576,8.99 25.8826,8.45 L25.8826,6.275 Z M25.8076,11 L25.8076,10.415 C26.4076,10.925 27.0976,11.15 27.8326,11.15 C28.9126,11.15 29.9326,10.67 30.5776,9.92 C31.1476,9.26 31.5076,8.36 31.5076,7.37 C31.5076,5.225 29.9176,3.575 27.9376,3.575 C27.1426,3.575 26.4526,3.8 25.8826,4.25 L25.8826,0.35 L23.9326,0.35 L23.9326,11 L25.8076,11 Z M39.7091,11 L41.1341,11 L43.4591,4.355 L45.7991,11 L47.2241,11 L50.7041,0.5 L48.6641,0.5 L46.4891,7.055 L44.1791,0.5 L42.7541,0.5 L40.4441,7.055 L38.2691,0.5 L36.2291,0.5 L39.7091,11 Z M57.0094,8.45 C56.6344,8.99 55.9894,9.35 55.2544,9.35 C54.1594,9.35 53.3344,8.51 53.3344,7.37 C53.3344,6.32 54.0694,5.375 55.2094,5.375 C55.9594,5.375 56.6044,5.735 57.0094,6.275 L57.0094,8.45 Z M58.9594,3.725 L57.0844,3.725 L57.0844,4.31 C56.5144,3.845 55.7794,3.575 54.9544,3.575 C52.9744,3.575 51.3844,5.225 51.3844,7.37 C51.3844,8.36 51.7444,9.26 52.3144,9.92 C52.9594,10.67 53.9794,11.15 55.0594,11.15 C55.7944,11.15 56.4844,10.925 57.0844,10.415 L57.0844,11 L58.9594,11 L58.9594,3.725 Z M63.1629,0.35 L61.2129,0.35 L61.2129,11 L63.1629,11 L63.1629,0.35 Z M67.367,0.35 L65.417,0.35 L65.417,11 L67.367,11 L67.367,0.35 Z M74.7061,8.735 C74.3611,9.11 73.7011,9.575 72.8761,9.575 C71.8411,9.575 71.0161,8.87 70.9111,7.85 L75.9511,7.85 C75.9811,7.685 75.9961,7.49 75.9961,7.295 C75.9961,5.27 74.5711,3.575 72.5611,3.575 C70.4011,3.575 69.0211,5.345 69.0211,7.37 C69.0211,9.65 70.6561,11.15 72.8311,11.15 C73.9561,11.15 75.1111,10.685 75.8161,9.845 L74.7061,8.735 Z M71.0011,6.425 C71.0911,5.765 71.7511,5.15 72.5611,5.15 C73.3561,5.15 73.9411,5.78 74.0011,6.425 L71.0011,6.425 Z M82.8234,9.35 C82.6884,9.38 82.3134,9.425 82.0284,9.425 C81.5484,9.425 81.2334,9.29 81.0384,9.065 C80.8734,8.87 80.7984,8.6 80.7984,8.15 L80.7984,5.375 L83.1984,5.375 L83.1984,3.725 L80.7984,3.725 L80.7984,1.7 L78.8484,1.7 L78.8484,3.725 L76.8234,3.725 L76.8234,5.375 L78.8484,5.375 L78.8484,7.925 C78.8484,8.96 79.0134,9.605 79.3884,10.1 C79.8834,10.76 80.7384,11.15 81.9084,11.15 C82.2834,11.15 82.8684,11.09 83.1234,11 L82.8234,9.35 Z" id="path15_fill"></path>
                </g>
            </g>
            <g id="2018-Q1" transform="translate(11.000000, 22.000000)" fill="#0575FF">
                <g id="path16_fill-link">
                    <path d="M2.197,3.357 C2.379,2.746 2.821,2.33 3.432,2.33 C4.121,2.33 4.615,2.915 4.615,3.552 C4.615,4.02 4.42,4.54 3.718,5.333 L0.52,8.96 L0.52,10 L6.435,10 L6.435,8.44 L3.263,8.44 L5.2,6.191 C5.811,5.489 6.37,4.683 6.37,3.578 C6.37,1.94 5.018,0.77 3.458,0.77 C2.119,0.77 0.975,1.628 0.585,2.876 L2.197,3.357 Z M12.414,5.45 C12.414,7.166 12.037,8.57 10.984,8.57 C9.93098,8.57 9.55398,7.166 9.55398,5.45 C9.55398,3.734 9.93098,2.33 10.984,2.33 C12.037,2.33 12.414,3.734 12.414,5.45 Z M7.79898,5.45 C7.79898,8.037 8.65698,10.13 10.984,10.13 C13.311,10.13 14.169,8.037 14.169,5.45 C14.169,2.863 13.311,0.77 10.984,0.77 C8.65698,0.77 7.79898,2.863 7.79898,5.45 Z M15.5939,3.864 L17.2839,2.928 L17.2839,10 L19.0389,10 L19.0389,0.9000002 L17.8039,0.9000002 L15.5939,2.2 L15.5939,3.864 Z M24.3014,4.215 C23.7554,4.215 23.3914,3.799 23.3914,3.279 C23.3914,2.759 23.7554,2.33 24.3014,2.33 C24.8474,2.33 25.2114,2.759 25.2114,3.279 C25.2114,3.799 24.8474,4.215 24.3014,4.215 Z M24.3014,8.57 C23.4434,8.57 22.8064,7.959 22.8064,7.179 C22.8064,6.399 23.4434,5.775 24.3014,5.775 C25.1594,5.775 25.7964,6.399 25.7964,7.179 C25.7964,7.959 25.1594,8.57 24.3014,8.57 Z M24.3014,10.13 C26.1214,10.13 27.5514,8.83 27.5514,7.179 C27.5514,6.113 26.9924,5.372 26.2384,4.878 C26.6284,4.527 26.9664,4.02 26.9664,3.279 C26.9664,1.888 25.8354,0.77 24.3014,0.77 C22.7674,0.77 21.6364,1.888 21.6364,3.279 C21.6364,4.02 21.9744,4.527 22.3644,4.878 C21.6104,5.372 21.0514,6.113 21.0514,7.179 C21.0514,8.83 22.4814,10.13 24.3014,10.13 Z M32.0902,5.45 C32.0902,8.037 34.0272,10.13 36.8352,10.13 C37.8752,10.13 38.7852,9.844 39.5392,9.35 L40.1112,10 L42.1002,10 L40.6182,8.349 C41.2292,7.556 41.5802,6.542 41.5802,5.45 C41.5802,2.863 39.6432,0.77 36.8352,0.77 C34.0272,0.77 32.0902,2.863 32.0902,5.45 Z M33.8452,5.45 C33.8452,3.734 35.1192,2.33 36.8352,2.33 C38.5512,2.33 39.8252,3.734 39.8252,5.45 C39.8252,6.022 39.6822,6.555 39.4352,7.01 L37.5632,4.904 L36.4582,5.866 L38.4342,8.102 C37.9792,8.401 37.4332,8.57 36.8352,8.57 C35.1192,8.57 33.8452,7.166 33.8452,5.45 Z M42.8127,3.864 L44.5027,2.928 L44.5027,10 L46.2577,10 L46.2577,0.9000002 L45.0227,0.9000002 L42.8127,2.2 L42.8127,3.864 Z" id="path16_fill"></path>
                </g>
            </g>
            <g id="2018-Q2" transform="translate(11.000000, 197.000000)" fill="#0575FF">
                <g id="path17_fill-link">
                    <path d="M2.197,3.357 C2.379,2.746 2.821,2.33 3.432,2.33 C4.121,2.33 4.615,2.915 4.615,3.552 C4.615,4.02 4.42,4.54 3.718,5.333 L0.52,8.96 L0.52,10 L6.435,10 L6.435,8.44 L3.263,8.44 L5.2,6.191 C5.811,5.489 6.37,4.683 6.37,3.578 C6.37,1.94 5.018,0.77 3.458,0.77 C2.119,0.77 0.975,1.628 0.585,2.876 L2.197,3.357 Z M12.414,5.45 C12.414,7.166 12.037,8.57 10.984,8.57 C9.93098,8.57 9.55398,7.166 9.55398,5.45 C9.55398,3.734 9.93098,2.33 10.984,2.33 C12.037,2.33 12.414,3.734 12.414,5.45 Z M7.79898,5.45 C7.79898,8.037 8.65698,10.13 10.984,10.13 C13.311,10.13 14.169,8.037 14.169,5.45 C14.169,2.863 13.311,0.77 10.984,0.77 C8.65698,0.77 7.79898,2.863 7.79898,5.45 Z M15.5939,3.864 L17.2839,2.928 L17.2839,10 L19.0389,10 L19.0389,0.9000002 L17.8039,0.9000002 L15.5939,2.2 L15.5939,3.864 Z M24.3014,4.215 C23.7554,4.215 23.3914,3.799 23.3914,3.279 C23.3914,2.759 23.7554,2.33 24.3014,2.33 C24.8474,2.33 25.2114,2.759 25.2114,3.279 C25.2114,3.799 24.8474,4.215 24.3014,4.215 Z M24.3014,8.57 C23.4434,8.57 22.8064,7.959 22.8064,7.179 C22.8064,6.399 23.4434,5.775 24.3014,5.775 C25.1594,5.775 25.7964,6.399 25.7964,7.179 C25.7964,7.959 25.1594,8.57 24.3014,8.57 Z M24.3014,10.13 C26.1214,10.13 27.5514,8.83 27.5514,7.179 C27.5514,6.113 26.9924,5.372 26.2384,4.878 C26.6284,4.527 26.9664,4.02 26.9664,3.279 C26.9664,1.888 25.8354,0.77 24.3014,0.77 C22.7674,0.77 21.6364,1.888 21.6364,3.279 C21.6364,4.02 21.9744,4.527 22.3644,4.878 C21.6104,5.372 21.0514,6.113 21.0514,7.179 C21.0514,8.83 22.4814,10.13 24.3014,10.13 Z M32.0902,5.45 C32.0902,8.037 34.0272,10.13 36.8352,10.13 C37.8752,10.13 38.7852,9.844 39.5392,9.35 L40.1112,10 L42.1002,10 L40.6182,8.349 C41.2292,7.556 41.5802,6.542 41.5802,5.45 C41.5802,2.863 39.6432,0.77 36.8352,0.77 C34.0272,0.77 32.0902,2.863 32.0902,5.45 Z M33.8452,5.45 C33.8452,3.734 35.1192,2.33 36.8352,2.33 C38.5512,2.33 39.8252,3.734 39.8252,5.45 C39.8252,6.022 39.6822,6.555 39.4352,7.01 L37.5632,4.904 L36.4582,5.866 L38.4342,8.102 C37.9792,8.401 37.4332,8.57 36.8352,8.57 C35.1192,8.57 33.8452,7.166 33.8452,5.45 Z M44.2947,3.357 C44.4767,2.746 44.9187,2.33 45.5297,2.33 C46.2187,2.33 46.7127,2.915 46.7127,3.552 C46.7127,4.02 46.5177,4.54 45.8157,5.333 L42.6177,8.96 L42.6177,10 L48.5327,10 L48.5327,8.44 L45.3607,8.44 L47.2977,6.191 C47.9087,5.489 48.4677,4.683 48.4677,3.578 C48.4677,1.94 47.1157,0.77 45.5557,0.77 C44.2167,0.77 43.0727,1.628 42.6827,2.876 L44.2947,3.357 Z" id="path17_fill"></path>
                </g>
            </g>
            <g id="2018-Q3" transform="translate(11.000000, 373.000000)" fill="#0575FF">
                <g id="path18_fill-link">
                    <path d="M2.197,3.357 C2.379,2.746 2.821,2.33 3.432,2.33 C4.121,2.33 4.615,2.915 4.615,3.552 C4.615,4.02 4.42,4.54 3.718,5.333 L0.52,8.96 L0.52,10 L6.435,10 L6.435,8.44 L3.263,8.44 L5.2,6.191 C5.811,5.489 6.37,4.683 6.37,3.578 C6.37,1.94 5.018,0.77 3.458,0.77 C2.119,0.77 0.975,1.628 0.585,2.876 L2.197,3.357 Z M12.414,5.45 C12.414,7.166 12.037,8.57 10.984,8.57 C9.93098,8.57 9.55398,7.166 9.55398,5.45 C9.55398,3.734 9.93098,2.33 10.984,2.33 C12.037,2.33 12.414,3.734 12.414,5.45 Z M7.79898,5.45 C7.79898,8.037 8.65698,10.13 10.984,10.13 C13.311,10.13 14.169,8.037 14.169,5.45 C14.169,2.863 13.311,0.77 10.984,0.77 C8.65698,0.77 7.79898,2.863 7.79898,5.45 Z M15.5939,3.864 L17.2839,2.928 L17.2839,10 L19.0389,10 L19.0389,0.9000002 L17.8039,0.9000002 L15.5939,2.2 L15.5939,3.864 Z M24.3014,4.215 C23.7554,4.215 23.3914,3.799 23.3914,3.279 C23.3914,2.759 23.7554,2.33 24.3014,2.33 C24.8474,2.33 25.2114,2.759 25.2114,3.279 C25.2114,3.799 24.8474,4.215 24.3014,4.215 Z M24.3014,8.57 C23.4434,8.57 22.8064,7.959 22.8064,7.179 C22.8064,6.399 23.4434,5.775 24.3014,5.775 C25.1594,5.775 25.7964,6.399 25.7964,7.179 C25.7964,7.959 25.1594,8.57 24.3014,8.57 Z M24.3014,10.13 C26.1214,10.13 27.5514,8.83 27.5514,7.179 C27.5514,6.113 26.9924,5.372 26.2384,4.878 C26.6284,4.527 26.9664,4.02 26.9664,3.279 C26.9664,1.888 25.8354,0.77 24.3014,0.77 C22.7674,0.77 21.6364,1.888 21.6364,3.279 C21.6364,4.02 21.9744,4.527 22.3644,4.878 C21.6104,5.372 21.0514,6.113 21.0514,7.179 C21.0514,8.83 22.4814,10.13 24.3014,10.13 Z M32.0902,5.45 C32.0902,8.037 34.0272,10.13 36.8352,10.13 C37.8752,10.13 38.7852,9.844 39.5392,9.35 L40.1112,10 L42.1002,10 L40.6182,8.349 C41.2292,7.556 41.5802,6.542 41.5802,5.45 C41.5802,2.863 39.6432,0.77 36.8352,0.77 C34.0272,0.77 32.0902,2.863 32.0902,5.45 Z M33.8452,5.45 C33.8452,3.734 35.1192,2.33 36.8352,2.33 C38.5512,2.33 39.8252,3.734 39.8252,5.45 C39.8252,6.022 39.6822,6.555 39.4352,7.01 L37.5632,4.904 L36.4582,5.866 L38.4342,8.102 C37.9792,8.401 37.4332,8.57 36.8352,8.57 C35.1192,8.57 33.8452,7.166 33.8452,5.45 Z M42.4227,8.713 C43.2287,9.623 44.3077,10.13 45.4387,10.13 C47.3237,10.13 48.8317,8.843 48.8317,6.919 C48.8317,5.541 47.9737,4.449 46.7257,3.968 L48.3767,1.94 L48.3767,0.9000002 L42.8517,0.9000002 L42.8517,2.46 L45.8937,2.46 L44.1907,4.475 L44.1907,5.515 C44.5287,5.346 44.9187,5.255 45.2827,5.255 C46.2967,5.255 47.0767,5.97 47.0767,6.919 C47.0767,7.894 46.2317,8.57 45.3737,8.57 C44.6847,8.57 44.0607,8.193 43.6837,7.66 L42.4227,8.713 Z" id="path18_fill"></path>
                </g>
            </g>
            <g id="2018-Q4" transform="translate(11.000000, 548.000000)" fill="#0575FF">
                <g id="path19_fill-link">
                    <path d="M2.197,3.357 C2.379,2.746 2.821,2.33 3.432,2.33 C4.121,2.33 4.615,2.915 4.615,3.552 C4.615,4.02 4.42,4.54 3.718,5.333 L0.52,8.96 L0.52,10 L6.435,10 L6.435,8.44 L3.263,8.44 L5.2,6.191 C5.811,5.489 6.37,4.683 6.37,3.578 C6.37,1.94 5.018,0.77 3.458,0.77 C2.119,0.77 0.975,1.628 0.585,2.876 L2.197,3.357 Z M12.414,5.45 C12.414,7.166 12.037,8.57 10.984,8.57 C9.93098,8.57 9.55398,7.166 9.55398,5.45 C9.55398,3.734 9.93098,2.33 10.984,2.33 C12.037,2.33 12.414,3.734 12.414,5.45 Z M7.79898,5.45 C7.79898,8.037 8.65698,10.13 10.984,10.13 C13.311,10.13 14.169,8.037 14.169,5.45 C14.169,2.863 13.311,0.77 10.984,0.77 C8.65698,0.77 7.79898,2.863 7.79898,5.45 Z M15.5939,3.864 L17.2839,2.928 L17.2839,10 L19.0389,10 L19.0389,0.9000002 L17.8039,0.9000002 L15.5939,2.2 L15.5939,3.864 Z M24.3014,4.215 C23.7554,4.215 23.3914,3.799 23.3914,3.279 C23.3914,2.759 23.7554,2.33 24.3014,2.33 C24.8474,2.33 25.2114,2.759 25.2114,3.279 C25.2114,3.799 24.8474,4.215 24.3014,4.215 Z M24.3014,8.57 C23.4434,8.57 22.8064,7.959 22.8064,7.179 C22.8064,6.399 23.4434,5.775 24.3014,5.775 C25.1594,5.775 25.7964,6.399 25.7964,7.179 C25.7964,7.959 25.1594,8.57 24.3014,8.57 Z M24.3014,10.13 C26.1214,10.13 27.5514,8.83 27.5514,7.179 C27.5514,6.113 26.9924,5.372 26.2384,4.878 C26.6284,4.527 26.9664,4.02 26.9664,3.279 C26.9664,1.888 25.8354,0.77 24.3014,0.77 C22.7674,0.77 21.6364,1.888 21.6364,3.279 C21.6364,4.02 21.9744,4.527 22.3644,4.878 C21.6104,5.372 21.0514,6.113 21.0514,7.179 C21.0514,8.83 22.4814,10.13 24.3014,10.13 Z M32.0902,5.45 C32.0902,8.037 34.0272,10.13 36.8352,10.13 C37.8752,10.13 38.7852,9.844 39.5392,9.35 L40.1112,10 L42.1002,10 L40.6182,8.349 C41.2292,7.556 41.5802,6.542 41.5802,5.45 C41.5802,2.863 39.6432,0.77 36.8352,0.77 C34.0272,0.77 32.0902,2.863 32.0902,5.45 Z M33.8452,5.45 C33.8452,3.734 35.1192,2.33 36.8352,2.33 C38.5512,2.33 39.8252,3.734 39.8252,5.45 C39.8252,6.022 39.6822,6.555 39.4352,7.01 L37.5632,4.904 L36.4582,5.866 L38.4342,8.102 C37.9792,8.401 37.4332,8.57 36.8352,8.57 C35.1192,8.57 33.8452,7.166 33.8452,5.45 Z M47.1027,0.9000002 L42.3577,6.88 L42.3577,7.92 L46.5827,7.92 L46.5827,10 L48.3377,10 L48.3377,7.92 L49.8327,7.92 L49.8327,6.36 L48.3377,6.36 L48.3377,0.9000002 L47.1027,0.9000002 Z M44.8797,6.36 L46.5827,4.228 L46.5827,6.36 L44.8797,6.36 Z" id="path19_fill"></path>
                </g>
            </g>
            <g id="Desktop-lite-Wallet" transform="translate(98.000000, 704.000000)" fill="#333333">
                <g id="path20_fill-link">
                    <path d="M7.175,6.75 C7.175,7.62 6.89,8.43 6.41,9.03 C5.825,9.765 4.97,10.2 3.725,10.2 L2.225,10.2 L2.225,3.3 L3.725,3.3 C4.97,3.3 5.825,3.735 6.41,4.47 C6.89,5.07 7.175,5.88 7.175,6.75 Z M0.2,1.5 L0.2,12 L3.5,12 C5.165,12 6.26,11.64 7.115,11.01 C8.405,10.05 9.2,8.49 9.2,6.75 C9.2,5.01 8.405,3.45 7.115,2.49 C6.26,1.86 5.165,1.5 3.5,1.5 L0.2,1.5 Z M15.8594,9.735 C15.5144,10.11 14.8544,10.575 14.0294,10.575 C12.9944,10.575 12.1694,9.87 12.0644,8.85 L17.1044,8.85 C17.1344,8.685 17.1494,8.49 17.1494,8.295 C17.1494,6.27 15.7244,4.575 13.7144,4.575 C11.5544,4.575 10.1744,6.345 10.1744,8.37 C10.1744,10.65 11.8094,12.15 13.9844,12.15 C15.1094,12.15 16.2644,11.685 16.9694,10.845 L15.8594,9.735 Z M12.1544,7.425 C12.2444,6.765 12.9044,6.15 13.7144,6.15 C14.5094,6.15 15.0944,6.78 15.1544,7.425 L12.1544,7.425 Z M18.0818,11.175 C18.9368,11.805 20.0018,12.15 21.0068,12.15 C22.5368,12.15 23.9018,11.295 23.9018,9.9 C23.9018,7.38 20.3768,7.755 20.3768,6.81 C20.3768,6.435 20.8268,6.225 21.3668,6.225 C21.8918,6.225 22.3868,6.45 22.7618,6.72 L23.6768,5.31 C23.1968,4.935 22.1618,4.575 21.2168,4.575 C19.7768,4.575 18.4268,5.445 18.4268,6.84 C18.4268,9.18 21.9518,8.79 21.9518,9.885 C21.9518,10.245 21.5468,10.5 21.0218,10.5 C20.2868,10.5 19.5218,10.23 19.0268,9.78 L18.0818,11.175 Z M32.9012,4.725 L30.1562,4.725 L27.6512,7.08 L27.6512,1.35 L25.7012,1.35 L25.7012,12 L27.6512,12 L27.6512,8.85 L30.7262,12 L33.3512,12 L29.3462,7.995 L32.9012,4.725 Z M39.7971,10.35 C39.6621,10.38 39.2871,10.425 39.0021,10.425 C38.5221,10.425 38.2071,10.29 38.0121,10.065 C37.8471,9.87 37.7721,9.6 37.7721,9.15 L37.7721,6.375 L40.1721,6.375 L40.1721,4.725 L37.7721,4.725 L37.7721,2.7 L35.8221,2.7 L35.8221,4.725 L33.7971,4.725 L33.7971,6.375 L35.8221,6.375 L35.8221,8.925 C35.8221,9.96 35.9871,10.605 36.3621,11.1 C36.8571,11.76 37.7121,12.15 38.8821,12.15 C39.2571,12.15 39.8421,12.09 40.0971,12 L39.7971,10.35 Z M41.4488,8.37 C41.4488,10.47 43.1138,12.15 45.3188,12.15 C47.5238,12.15 49.1888,10.47 49.1888,8.37 C49.1888,6.27 47.5238,4.575 45.3188,4.575 C43.1138,4.575 41.4488,6.27 41.4488,8.37 Z M43.3988,8.37 C43.3988,7.275 44.1788,6.375 45.3188,6.375 C46.4588,6.375 47.2388,7.275 47.2388,8.37 C47.2388,9.465 46.4588,10.35 45.3188,10.35 C44.1788,10.35 43.3988,9.465 43.3988,8.37 Z M50.8379,15.6 L52.7879,15.6 L52.7879,11.49 C53.3729,11.94 54.0029,12.15 54.7379,12.15 C55.8179,12.15 56.8529,11.67 57.4979,10.92 C58.0679,10.26 58.4129,9.36 58.4129,8.37 C58.4129,6.225 56.8229,4.575 54.8429,4.575 C54.0179,4.575 53.2829,4.845 52.7129,5.31 L52.7129,4.725 L50.8379,4.725 L50.8379,15.6 Z M52.7879,7.275 C53.1929,6.735 53.8379,6.375 54.5879,6.375 C55.7279,6.375 56.4629,7.32 56.4629,8.37 C56.4629,9.51 55.6379,10.35 54.5429,10.35 C53.8079,10.35 53.1629,9.99 52.7879,9.45 L52.7879,7.275 Z M59.9914,7.275 L59.9914,8.925 L64.9414,8.925 L64.9414,7.275 L59.9914,7.275 Z M69.0623,1.35 L67.1123,1.35 L67.1123,12 L69.0623,12 L69.0623,1.35 Z M73.2664,4.725 L71.3164,4.725 L71.3164,12 L73.2664,12 L73.2664,4.725 Z M71.0164,2.145 C71.0164,2.85 71.5864,3.39 72.2914,3.39 C72.9964,3.39 73.5664,2.85 73.5664,2.145 C73.5664,1.44 72.9964,0.9 72.2914,0.9 C71.5864,0.9 71.0164,1.44 71.0164,2.145 Z M80.6955,10.35 C80.5605,10.38 80.1855,10.425 79.9005,10.425 C79.4205,10.425 79.1055,10.29 78.9105,10.065 C78.7455,9.87 78.6705,9.6 78.6705,9.15 L78.6705,6.375 L81.0705,6.375 L81.0705,4.725 L78.6705,4.725 L78.6705,2.7 L76.7205,2.7 L76.7205,4.725 L74.6955,4.725 L74.6955,6.375 L76.7205,6.375 L76.7205,8.925 C76.7205,9.96 76.8855,10.605 77.2605,11.1 C77.7555,11.76 78.6105,12.15 79.7805,12.15 C80.1555,12.15 80.7405,12.09 80.9955,12 L80.6955,10.35 Z M88.0323,9.735 C87.6873,10.11 87.0273,10.575 86.2023,10.575 C85.1673,10.575 84.3423,9.87 84.2373,8.85 L89.2773,8.85 C89.3073,8.685 89.3223,8.49 89.3223,8.295 C89.3223,6.27 87.8973,4.575 85.8873,4.575 C83.7273,4.575 82.3473,6.345 82.3473,8.37 C82.3473,10.65 83.9823,12.15 86.1573,12.15 C87.2823,12.15 88.4373,11.685 89.1423,10.845 L88.0323,9.735 Z M84.3273,7.425 C84.4173,6.765 85.0773,6.15 85.8873,6.15 C86.6823,6.15 87.2673,6.78 87.3273,7.425 L84.3273,7.425 Z M97.5226,12 L98.9476,12 L101.273,5.355 L103.613,12 L105.038,12 L108.518,1.5 L106.478,1.5 L104.303,8.055 L101.993,1.5 L100.568,1.5 L98.2576,8.055 L96.0826,1.5 L94.0426,1.5 L97.5226,12 Z M114.823,9.45 C114.448,9.99 113.803,10.35 113.068,10.35 C111.973,10.35 111.148,9.51 111.148,8.37 C111.148,7.32 111.883,6.375 113.023,6.375 C113.773,6.375 114.418,6.735 114.823,7.275 L114.823,9.45 Z M116.773,4.725 L114.898,4.725 L114.898,5.31 C114.328,4.845 113.593,4.575 112.768,4.575 C110.788,4.575 109.198,6.225 109.198,8.37 C109.198,9.36 109.558,10.26 110.128,10.92 C110.773,11.67 111.793,12.15 112.873,12.15 C113.608,12.15 114.298,11.925 114.898,11.415 L114.898,12 L116.773,12 L116.773,4.725 Z M120.976,1.35 L119.026,1.35 L119.026,12 L120.976,12 L120.976,1.35 Z M125.18,1.35 L123.23,1.35 L123.23,12 L125.18,12 L125.18,1.35 Z M132.52,9.735 C132.175,10.11 131.515,10.575 130.69,10.575 C129.655,10.575 128.83,9.87 128.725,8.85 L133.765,8.85 C133.795,8.685 133.81,8.49 133.81,8.295 C133.81,6.27 132.385,4.575 130.375,4.575 C128.215,4.575 126.835,6.345 126.835,8.37 C126.835,10.65 128.47,12.15 130.645,12.15 C131.77,12.15 132.925,11.685 133.63,10.845 L132.52,9.735 Z M128.815,7.425 C128.905,6.765 129.565,6.15 130.375,6.15 C131.17,6.15 131.755,6.78 131.815,7.425 L128.815,7.425 Z M140.637,10.35 C140.502,10.38 140.127,10.425 139.842,10.425 C139.362,10.425 139.047,10.29 138.852,10.065 C138.687,9.87 138.612,9.6 138.612,9.15 L138.612,6.375 L141.012,6.375 L141.012,4.725 L138.612,4.725 L138.612,2.7 L136.662,2.7 L136.662,4.725 L134.637,4.725 L134.637,6.375 L136.662,6.375 L136.662,8.925 C136.662,9.96 136.827,10.605 137.202,11.1 C137.697,11.76 138.552,12.15 139.722,12.15 C140.097,12.15 140.682,12.09 140.937,12 L140.637,10.35 Z" id="path20_fill"></path>
                </g>
            </g>
            <g id="Vector-9.5" transform="translate(0.000000, 707.000000)" fill="#000000" fill-opacity="0.1">
                <g id="path21_stroke-link" transform="translate(41.500000, 1.499998) rotate(90.000003) translate(-41.500000, -1.499998) translate(40.500000, -40.000002)">
                    <polygon id="path21_stroke" points="1.5 83 1.500001 8.68962e-09 0.500001 -8.68962e-09 0.5 83"></polygon>
                </g>
            </g>
            <g id="Vector-9.6" transform="translate(0.000000, 10.000000)" fill="#000000" fill-opacity="0.1">
                <g id="path21_stroke-link" transform="translate(41.500000, 1.499998) rotate(90.000003) translate(-41.500000, -1.499998) translate(40.500000, -40.000002)">
                    <polygon id="path21_stroke" points="1.5 83 1.500001 8.68962e-09 0.500001 -8.68962e-09 0.5 83"></polygon>
                </g>
            </g>
            <g id="Vector-9.7" transform="translate(0.000000, 54.000000)" fill="#000000" fill-opacity="0.1">
                <g id="path21_stroke-link" transform="translate(41.500000, 1.499998) rotate(90.000003) translate(-41.500000, -1.499998) translate(40.500000, -40.000002)">
                    <polygon id="path21_stroke" points="1.5 83 1.500001 8.68962e-09 0.500001 -8.68962e-09 0.5 83"></polygon>
                </g>
            </g>
            <g id="Vector-9.9" transform="translate(0.000000, 141.000000)" fill="#000000" fill-opacity="0.1">
                <g id="path21_stroke-link" transform="translate(41.500000, 1.499998) rotate(90.000003) translate(-41.500000, -1.499998) translate(40.500000, -40.000002)">
                    <polygon id="path21_stroke" points="1.5 83 1.500001 8.68962e-09 0.500001 -8.68962e-09 0.5 83"></polygon>
                </g>
            </g>
            <g id="Vector-9.14" transform="translate(0.000000, 359.000000)" fill="#000000" fill-opacity="0.1">
                <g id="path21_stroke-link" transform="translate(41.500000, 1.499998) rotate(90.000003) translate(-41.500000, -1.499998) translate(40.500000, -40.000002)">
                    <polygon id="path21_stroke" points="1.5 83 1.500001 8.68962e-09 0.500001 -8.68962e-09 0.5 83"></polygon>
                </g>
            </g>
            <g id="Vector-9.13" transform="translate(0.000000, 315.000000)" fill="#000000" fill-opacity="0.1">
                <g id="path21_stroke-link" transform="translate(41.500000, 1.499998) rotate(90.000003) translate(-41.500000, -1.499998) translate(40.500000, -40.000002)">
                    <polygon id="path21_stroke" points="1.5 83 1.500001 8.68962e-09 0.500001 -8.68962e-09 0.5 83"></polygon>
                </g>
            </g>
            <g id="Vector-9.21" transform="translate(0.000000, 663.000000)" fill="#000000" fill-opacity="0.1">
                <g id="path21_stroke-link" transform="translate(41.500000, 1.499998) rotate(90.000003) translate(-41.500000, -1.499998) translate(40.500000, -40.000002)">
                    <polygon id="path21_stroke" points="1.5 83 1.500001 8.68962e-09 0.500001 -8.68962e-09 0.5 83"></polygon>
                </g>
            </g>
            <g id="Vector-9.16" transform="translate(0.000000, 446.000000)" fill="#000000" fill-opacity="0.1">
                <g id="path21_stroke-link" transform="translate(41.500000, 1.499998) rotate(90.000003) translate(-41.500000, -1.499998) translate(40.500000, -40.000002)">
                    <polygon id="path21_stroke" points="1.5 83 1.500001 8.68962e-09 0.500001 -8.68962e-09 0.5 83"></polygon>
                </g>
            </g>
            <g id="Vector-9.15" transform="translate(0.000000, 402.000000)" fill="#000000" fill-opacity="0.1">
                <g id="path21_stroke-link" transform="translate(41.500000, 1.499998) rotate(90.000003) translate(-41.500000, -1.499998) translate(40.500000, -40.000002)">
                    <polygon id="path21_stroke" points="1.5 83 1.500001 8.68962e-09 0.500001 -8.68962e-09 0.5 83"></polygon>
                </g>
            </g>
            <g id="Vector-9.20" transform="translate(0.000000, 620.000000)" fill="#000000" fill-opacity="0.1">
                <g id="path21_stroke-link" transform="translate(41.500000, 1.499998) rotate(90.000003) translate(-41.500000, -1.499998) translate(40.500000, -40.000002)">
                    <polygon id="path21_stroke" points="1.5 83 1.500001 8.68962e-09 0.500001 -8.68962e-09 0.5 83"></polygon>
                </g>
            </g>
            <g id="Vector-9.19" transform="translate(0.000000, 576.000000)" fill="#000000" fill-opacity="0.1">
                <g id="path21_stroke-link" transform="translate(41.500000, 1.499998) rotate(90.000003) translate(-41.500000, -1.499998) translate(40.500000, -40.000002)">
                    <polygon id="path21_stroke" points="1.5 83 1.500001 8.68962e-09 0.500001 -8.68962e-09 0.5 83"></polygon>
                </g>
            </g>
            <g id="Vector-9.18" transform="translate(0.000000, 533.000000)" fill="#000000" fill-opacity="0.1">
                <g id="path21_stroke-link" transform="translate(41.500000, 1.499998) rotate(90.000003) translate(-41.500000, -1.499998) translate(40.500000, -40.000002)">
                    <polygon id="path21_stroke" points="1.5 83 1.500001 8.68962e-09 0.500001 -8.68962e-09 0.5 83"></polygon>
                </g>
            </g>
            <g id="Vector-9.17" transform="translate(0.000000, 489.000000)" fill="#000000" fill-opacity="0.1">
                <g id="path21_stroke-link" transform="translate(41.500000, 1.499998) rotate(90.000003) translate(-41.500000, -1.499998) translate(40.500000, -40.000002)">
                    <polygon id="path21_stroke" points="1.5 83 1.500001 8.68962e-09 0.500001 -8.68962e-09 0.5 83"></polygon>
                </g>
            </g>
            <g id="Vector-9.12" transform="translate(0.000000, 271.000000)" fill="#000000" fill-opacity="0.1">
                <g id="path21_stroke-link" transform="translate(41.500000, 1.499998) rotate(90.000003) translate(-41.500000, -1.499998) translate(40.500000, -40.000002)">
                    <polygon id="path21_stroke" points="1.5 83 1.500001 8.68962e-09 0.500001 -8.68962e-09 0.5 83"></polygon>
                </g>
            </g>
            <g id="Vector-9.11" transform="translate(0.000000, 228.000000)" fill="#000000" fill-opacity="0.1">
                <g id="path21_stroke-link" transform="translate(41.500000, 1.499998) rotate(90.000003) translate(-41.500000, -1.499998) translate(40.500000, -40.000002)">
                    <polygon id="path21_stroke" points="1.5 83 1.500001 8.68962e-09 0.500001 -8.68962e-09 0.5 83"></polygon>
                </g>
            </g>
            <g id="Vector-9.8" transform="translate(0.000000, 97.000000)" fill="#000000" fill-opacity="0.1">
                <g id="path21_stroke-link" transform="translate(41.500000, 1.499998) rotate(90.000003) translate(-41.500000, -1.499998) translate(40.500000, -40.000002)">
                    <polygon id="path21_stroke" points="1.5 83 1.500001 8.68962e-09 0.500001 -8.68962e-09 0.5 83"></polygon>
                </g>
            </g>
            <g id="Vector-9.10" transform="translate(0.000000, 184.000000)" fill="#000000" fill-opacity="0.1">
                <g id="path21_stroke-link" transform="translate(41.500000, 1.499998) rotate(90.000003) translate(-41.500000, -1.499998) translate(40.500000, -40.000002)">
                    <polygon id="path21_stroke" points="1.5 83 1.500001 8.68962e-09 0.500001 -8.68962e-09 0.5 83"></polygon>
                </g>
            </g>
            <g id="Vector-8-(Stroke)" fill="#0575FF">
                <g id="path22_fill-link" transform="translate(1.499984, 360.500000) rotate(90.000003) translate(-1.499984, -360.500000) translate(-358.500016, 359.000000)">
                    <polygon id="path22_fill" points="720 3.00002 0 3 0 0 720 1.83588e-05"></polygon>
                </g>
            </g>
        </g>
    </g>
</svg>