<svg width="273" height="721" viewBox="0 0 273 721" version="1.1" xmlns="http://www.w3.org/2000/svg" xmlns:xlink="http://www.w3.org/1999/xlink">
<title>roadmap_mobile</title>
<desc>Created using Figma</desc>
<g id="Canvas" transform="translate(5156 -21800)">
<g id="roadmap_mobile">
<g id="OTC">
<use xlink:href="#path0_fill" transform="translate(-5059 21809)" fill="#333333"/>
</g>
<g id="Wallet Encryption">
<use xlink:href="#path1_fill" transform="translate(-5059 21854)" fill="#333333"/>
</g>
<g id="Fiber support desk">
<use xlink:href="#path2_fill" transform="translate(-5059 21895)" fill="#333333"/>
</g>
<g id="New Website">
<use xlink:href="#path3_fill" transform="translate(-5059 21941)" fill="#333333"/>
</g>
<g id="OTC passthrough">
<use xlink:href="#path4_fill" transform="translate(-5059 21984)" fill="#333333"/>
</g>
<g id="Mobile Wallet Android">
<use xlink:href="#path5_fill" transform="translate(-5059 22028)" fill="#333333"/>
</g>
<g id="Mobile Wallet IOS">
<use xlink:href="#path6_fill" transform="translate(-5059 22071)" fill="#333333"/>
</g>
<g id="Affiliate program (OTC)">
<use xlink:href="#path7_fill" transform="translate(-5059 22115)" fill="#333333"/>
</g>
<g id="Signal">
<use xlink:href="#path8_fill" transform="translate(-5059 22160)" fill="#333333"/>
</g>
<g id="Hardware wallet">
<use xlink:href="#path9_fill" transform="translate(-5059 22202)" fill="#333333"/>
</g>
<g id="Advanced Spend Builder">
<use xlink:href="#path10_fill" transform="translate(-5059 22247)" fill="#333333"/>
</g>
<g id="Sky Exchange">
<use xlink:href="#path11_fill" transform="translate(-5059 22290)" fill="#333333"/>
</g>
<g id="SDN">
<use xlink:href="#path12_fill" transform="translate(-5059 22334)" fill="#333333"/>
</g>
<g id="BBS">
<use xlink:href="#path13_fill" transform="translate(-5059 22376)" fill="#333333"/>
</g>
<g id="Coinjoin">
<use xlink:href="#path14_fill" transform="translate(-5059 22420)" fill="#333333"/>
</g>
<g id="Web Wallet">
<use xlink:href="#path15_fill" transform="translate(-5059 22463)" fill="#333333"/>
</g>
<g id="Desktop-lite Wallet">
<use xlink:href="#path16_fill" transform="translate(-5059 22505)" fill="#333333"/>
</g>
<g id="Group">
<g id="2018 Q1">
<use xlink:href="#path17_fill" transform="translate(-5145 21823)" fill="#0575FF"/>
</g>
<g id="2018 Q2">
<use xlink:href="#path18_fill" transform="translate(-5145 21998)" fill="#0575FF"/>
</g>
<g id="2018 Q3">
<use xlink:href="#path19_fill" transform="translate(-5145 22174)" fill="#0575FF"/>
</g>
<g id="2018 Q4">
<use xlink:href="#path20_fill" transform="translate(-5145 22349)" fill="#0575FF"/>
</g>
<g id="Vector 9.5">
<use xlink:href="#path21_stroke" transform="matrix(-4.37114e-08 1 -1 -4.37114e-08 -5073 22508.5)" fill="#000000" fill-opacity="0.1"/>
</g>
<g id="Vector 9.6">
<use xlink:href="#path21_stroke" transform="matrix(-4.37114e-08 1 -1 -4.37114e-08 -5073 21811.5)" fill="#000000" fill-opacity="0.1"/>
</g>
<g id="Vector 9.7">
<use xlink:href="#path21_stroke" transform="matrix(-4.37114e-08 1 -1 -4.37114e-08 -5073 21855.5)" fill="#000000" fill-opacity="0.1"/>
</g>
<g id="Vector 9.9">
<use xlink:href="#path21_stroke" transform="matrix(-4.37114e-08 1 -1 -4.37114e-08 -5073 21942.5)" fill="#000000" fill-opacity="0.1"/>
</g>
<g id="Vector 9.14">
<use xlink:href="#path21_stroke" transform="matrix(-4.37114e-08 1 -1 -4.37114e-08 -5073 22160.5)" fill="#000000" fill-opacity="0.1"/>
</g>
<g id="Vector 9.13">
<use xlink:href="#path21_stroke" transform="matrix(-4.37114e-08 1 -1 -4.37114e-08 -5073 22116.5)" fill="#000000" fill-opacity="0.1"/>
</g>
<g id="Vector 9.21">
<use xlink:href="#path21_stroke" transform="matrix(-4.37114e-08 1 -1 -4.37114e-08 -5073 22464.5)" fill="#000000" fill-opacity="0.1"/>
</g>
<g id="Vector 9.16">
<use xlink:href="#path21_stroke" transform="matrix(-4.37114e-08 1 -1 -4.37114e-08 -5073 22247.5)" fill="#000000" fill-opacity="0.1"/>
</g>
<g id="Vector 9.15">
<use xlink:href="#path21_stroke" transform="matrix(-4.37114e-08 1 -1 -4.37114e-08 -5073 22203.5)" fill="#000000" fill-opacity="0.1"/>
</g>
<g id="Vector 9.20">
<use xlink:href="#path21_stroke" transform="matrix(-4.37114e-08 1 -1 -4.37114e-08 -5073 22421.5)" fill="#000000" fill-opacity="0.1"/>
</g>
<g id="Vector 9.19">
<use xlink:href="#path21_stroke" transform="matrix(-4.37114e-08 1 -1 -4.37114e-08 -5073 22377.5)" fill="#000000" fill-opacity="0.1"/>
</g>
<g id="Vector 9.18">
<use xlink:href="#path21_stroke" transform="matrix(-4.37114e-08 1 -1 -4.37114e-08 -5073 22334.5)" fill="#000000" fill-opacity="0.1"/>
</g>
<g id="Vector 9.17">
<use xlink:href="#path21_stroke" transform="matrix(-4.37114e-08 1 -1 -4.37114e-08 -5073 22290.5)" fill="#000000" fill-opacity="0.1"/>
</g>
<g id="Vector 9.12">
<use xlink:href="#path21_stroke" transform="matrix(-4.37114e-08 1 -1 -4.37114e-08 -5073 22072.5)" fill="#000000" fill-opacity="0.1"/>
</g>
<g id="Vector 9.11">
<use xlink:href="#path21_stroke" transform="matrix(-4.37114e-08 1 -1 -4.37114e-08 -5073 22029.5)" fill="#000000" fill-opacity="0.1"/>
</g>
<g id="Vector 9.8">
<use xlink:href="#path21_stroke" transform="matrix(-4.37114e-08 1 -1 -4.37114e-08 -5073 21898.5)" fill="#000000" fill-opacity="0.1"/>
</g>
<g id="Vector 9.10">
<use xlink:href="#path21_stroke" transform="matrix(-4.37114e-08 1 -1 -4.37114e-08 -5073 21985.5)" fill="#000000" fill-opacity="0.1"/>
</g>
<g id="Vector 8 (Stroke)">
<use xlink:href="#path22_fill" transform="matrix(-4.37114e-08 1 -1 -4.37114e-08 -5153 21800.5)" fill="#0575FF"/>
</g>
</g>
</g>
</g>
<defs>
<path id="path0_fill" d="M 2.475 5.75C 2.475 3.77 3.945 2.15 5.925 2.15C 7.905 2.15 9.375 3.77 9.375 5.75C 9.375 7.73 7.905 9.35 5.925 9.35C 3.945 9.35 2.475 7.73 2.475 5.75ZM 0.45 5.75C 0.45 8.735 2.685 11.15 5.925 11.15C 9.165 11.15 11.4 8.735 11.4 5.75C 11.4 2.765 9.165 0.35 5.925 0.35C 2.685 0.35 0.45 2.765 0.45 5.75ZM 12.2256 0.5L 12.2256 2.3L 15.0006 2.3L 15.0006 11L 17.0256 11L 17.0256 2.3L 19.8006 2.3L 19.8006 0.5L 12.2256 0.5ZM 26.1409 2.15C 27.1759 2.15 28.0609 2.6 28.6909 3.23L 29.9959 1.85C 29.0509 0.935 27.7159 0.35 26.1559 0.35C 22.8859 0.35 20.6209 2.735 20.6209 5.75C 20.6209 8.765 22.9159 11.15 26.1859 11.15C 28.1059 11.15 29.6659 10.325 30.5959 9.14L 29.2009 7.895C 28.5859 8.69 27.5959 9.35 26.2309 9.35C 24.2059 9.35 22.6459 7.79 22.6459 5.75C 22.6459 3.755 24.1459 2.15 26.1409 2.15Z"/>
<path id="path1_fill" d="M 3.63 11L 5.055 11L 7.38 4.355L 9.72 11L 11.145 11L 14.625 0.5L 12.585 0.5L 10.41 7.055L 8.1 0.5L 6.675 0.5L 4.365 7.055L 2.19 0.5L 0.15 0.5L 3.63 11ZM 20.9303 8.45C 20.5553 8.99 19.9103 9.35 19.1753 9.35C 18.0803 9.35 17.2553 8.51 17.2553 7.37C 17.2553 6.32 17.9903 5.375 19.1303 5.375C 19.8803 5.375 20.5253 5.735 20.9303 6.275L 20.9303 8.45ZM 22.8803 3.725L 21.0053 3.725L 21.0053 4.31C 20.4353 3.845 19.7003 3.575 18.8753 3.575C 16.8953 3.575 15.3053 5.225 15.3053 7.37C 15.3053 8.36 15.6653 9.26 16.2353 9.92C 16.8803 10.67 17.9003 11.15 18.9803 11.15C 19.7153 11.15 20.4053 10.925 21.0053 10.415L 21.0053 11L 22.8803 11L 22.8803 3.725ZM 27.0838 0.35L 25.1338 0.35L 25.1338 11L 27.0838 11L 27.0838 0.35ZM 31.2879 0.35L 29.3379 0.35L 29.3379 11L 31.2879 11L 31.2879 0.35ZM 38.627 8.735C 38.282 9.11 37.622 9.575 36.797 9.575C 35.762 9.575 34.937 8.87 34.832 7.85L 39.872 7.85C 39.902 7.685 39.917 7.49 39.917 7.295C 39.917 5.27 38.492 3.575 36.482 3.575C 34.322 3.575 32.942 5.345 32.942 7.37C 32.942 9.65 34.577 11.15 36.752 11.15C 37.877 11.15 39.032 10.685 39.737 9.845L 38.627 8.735ZM 34.922 6.425C 35.012 5.765 35.672 5.15 36.482 5.15C 37.277 5.15 37.862 5.78 37.922 6.425L 34.922 6.425ZM 46.7443 9.35C 46.6093 9.38 46.2343 9.425 45.9493 9.425C 45.4693 9.425 45.1543 9.29 44.9593 9.065C 44.7943 8.87 44.7193 8.6 44.7193 8.15L 44.7193 5.375L 47.1193 5.375L 47.1193 3.725L 44.7193 3.725L 44.7193 1.7L 42.7693 1.7L 42.7693 3.725L 40.7443 3.725L 40.7443 5.375L 42.7693 5.375L 42.7693 7.925C 42.7693 8.96 42.9343 9.605 43.3093 10.1C 43.8043 10.76 44.6593 11.15 45.8293 11.15C 46.2043 11.15 46.7893 11.09 47.0443 11L 46.7443 9.35ZM 59.4141 2.3L 59.4141 0.5L 53.1141 0.5L 53.1141 11L 59.5641 11L 59.5641 9.2L 55.1391 9.2L 55.1391 6.275L 58.3641 6.275L 58.3641 4.475L 55.1391 4.475L 55.1391 2.3L 59.4141 2.3ZM 63.2361 11L 63.2361 6.275C 63.5061 5.9 64.1811 5.375 65.0061 5.375C 65.4561 5.375 65.8461 5.525 66.1011 5.78C 66.3711 6.05 66.5361 6.425 66.5361 7.145L 66.5361 11L 68.4861 11L 68.4861 7.295C 68.4861 6.05 68.2161 5.315 67.7361 4.745C 67.1361 4.025 66.2211 3.575 65.2161 3.575C 64.4061 3.575 63.7161 3.86 63.1611 4.31L 63.1611 3.725L 61.2861 3.725L 61.2861 11L 63.2361 11ZM 75.6879 8.39C 75.3729 8.87 74.7429 9.35 73.9479 9.35C 72.7629 9.35 71.9379 8.51 71.9379 7.37C 71.9379 6.26 72.7779 5.375 73.9029 5.375C 74.6079 5.375 75.1929 5.735 75.5829 6.245L 76.9629 5.03C 76.2879 4.16 75.1629 3.575 73.9029 3.575C 71.6829 3.575 69.9879 5.255 69.9879 7.37C 69.9879 9.47 71.6379 11.15 73.8879 11.15C 75.2529 11.15 76.3329 10.655 77.1879 9.515L 75.6879 8.39ZM 83.3385 3.635C 83.1285 3.605 82.9635 3.575 82.6785 3.575C 81.7935 3.575 80.9985 3.92 80.5635 4.46L 80.5635 3.725L 78.6885 3.725L 78.6885 11L 80.6385 11L 80.6385 6.425C 80.8785 5.99 81.5535 5.375 82.4085 5.375C 82.6935 5.375 82.9785 5.405 83.1135 5.45L 83.3385 3.635ZM 87.1508 14.6L 92.1608 3.725L 90.1058 3.725L 88.1408 8.09L 86.0108 3.725L 83.8658 3.725L 87.1208 10.265L 85.1108 14.6L 87.1508 14.6ZM 93.4395 14.6L 95.3895 14.6L 95.3895 10.49C 95.9745 10.94 96.6045 11.15 97.3395 11.15C 98.4195 11.15 99.4545 10.67 100.099 9.92C 100.669 9.26 101.014 8.36 101.014 7.37C 101.014 5.225 99.4245 3.575 97.4445 3.575C 96.6195 3.575 95.8845 3.845 95.3145 4.31L 95.3145 3.725L 93.4395 3.725L 93.4395 14.6ZM 95.3895 6.275C 95.7945 5.735 96.4395 5.375 97.1895 5.375C 98.3295 5.375 99.0645 6.32 99.0645 7.37C 99.0645 8.51 98.2395 9.35 97.1445 9.35C 96.4095 9.35 95.7645 8.99 95.3895 8.45L 95.3895 6.275ZM 107.843 9.35C 107.708 9.38 107.333 9.425 107.048 9.425C 106.568 9.425 106.253 9.29 106.058 9.065C 105.893 8.87 105.818 8.6 105.818 8.15L 105.818 5.375L 108.218 5.375L 108.218 3.725L 105.818 3.725L 105.818 1.7L 103.868 1.7L 103.868 3.725L 101.843 3.725L 101.843 5.375L 103.868 5.375L 103.868 7.925C 103.868 8.96 104.033 9.605 104.408 10.1C 104.903 10.76 105.758 11.15 106.928 11.15C 107.303 11.15 107.888 11.09 108.143 11L 107.843 9.35ZM 112.045 3.725L 110.095 3.725L 110.095 11L 112.045 11L 112.045 3.725ZM 109.795 1.145C 109.795 1.85 110.365 2.39 111.07 2.39C 111.775 2.39 112.345 1.85 112.345 1.145C 112.345 0.44 111.775 -0.1 111.07 -0.1C 110.365 -0.1 109.795 0.44 109.795 1.145ZM 113.699 7.37C 113.699 9.47 115.364 11.15 117.569 11.15C 119.774 11.15 121.439 9.47 121.439 7.37C 121.439 5.27 119.774 3.575 117.569 3.575C 115.364 3.575 113.699 5.27 113.699 7.37ZM 115.649 7.37C 115.649 6.275 116.429 5.375 117.569 5.375C 118.709 5.375 119.489 6.275 119.489 7.37C 119.489 8.465 118.709 9.35 117.569 9.35C 116.429 9.35 115.649 8.465 115.649 7.37ZM 125.038 11L 125.038 6.275C 125.308 5.9 125.983 5.375 126.808 5.375C 127.258 5.375 127.648 5.525 127.903 5.78C 128.173 6.05 128.338 6.425 128.338 7.145L 128.338 11L 130.288 11L 130.288 7.295C 130.288 6.05 130.018 5.315 129.538 4.745C 128.938 4.025 128.023 3.575 127.018 3.575C 126.208 3.575 125.518 3.86 124.963 4.31L 124.963 3.725L 123.088 3.725L 123.088 11L 125.038 11Z"/>
<path id="path2_fill" d="M 7.5 2.3L 7.5 0.5L 1.2 0.5L 1.2 11L 3.225 11L 3.225 6.275L 6.45 6.275L 6.45 4.475L 3.225 4.475L 3.225 2.3L 7.5 2.3ZM 10.868 3.725L 8.91797 3.725L 8.91797 11L 10.868 11L 10.868 3.725ZM 8.61797 1.145C 8.61797 1.85 9.18797 2.39 9.89297 2.39C 10.598 2.39 11.168 1.85 11.168 1.145C 11.168 0.44 10.598 -0.1 9.89297 -0.1C 9.18797 -0.1 8.61797 0.44 8.61797 1.145ZM 15.0721 6.275C 15.4771 5.735 16.1221 5.375 16.8721 5.375C 18.0121 5.375 18.7471 6.32 18.7471 7.37C 18.7471 8.51 17.9221 9.35 16.8271 9.35C 16.0921 9.35 15.4471 8.99 15.0721 8.45L 15.0721 6.275ZM 14.9971 11L 14.9971 10.415C 15.5971 10.925 16.2871 11.15 17.0221 11.15C 18.1021 11.15 19.1221 10.67 19.7671 9.92C 20.3371 9.26 20.6971 8.36 20.6971 7.37C 20.6971 5.225 19.1071 3.575 17.1271 3.575C 16.3321 3.575 15.6421 3.8 15.0721 4.25L 15.0721 0.35L 13.1221 0.35L 13.1221 11L 14.9971 11ZM 27.4356 8.735C 27.0906 9.11 26.4306 9.575 25.6056 9.575C 24.5706 9.575 23.7456 8.87 23.6406 7.85L 28.6806 7.85C 28.7106 7.685 28.7256 7.49 28.7256 7.295C 28.7256 5.27 27.3006 3.575 25.2906 3.575C 23.1306 3.575 21.7506 5.345 21.7506 7.37C 21.7506 9.65 23.3856 11.15 25.5606 11.15C 26.6856 11.15 27.8406 10.685 28.5456 9.845L 27.4356 8.735ZM 23.7306 6.425C 23.8206 5.765 24.4806 5.15 25.2906 5.15C 26.0856 5.15 26.6706 5.78 26.7306 6.425L 23.7306 6.425ZM 35.0279 3.635C 34.8179 3.605 34.6529 3.575 34.3679 3.575C 33.4829 3.575 32.6879 3.92 32.2529 4.46L 32.2529 3.725L 30.3779 3.725L 30.3779 11L 32.3279 11L 32.3279 6.425C 32.5679 5.99 33.2429 5.375 34.0979 5.375C 34.3829 5.375 34.6679 5.405 34.8029 5.45L 35.0279 3.635ZM 39.8532 10.175C 40.7082 10.805 41.7732 11.15 42.7782 11.15C 44.3082 11.15 45.6732 10.295 45.6732 8.9C 45.6732 6.38 42.1482 6.755 42.1482 5.81C 42.1482 5.435 42.5982 5.225 43.1382 5.225C 43.6632 5.225 44.1582 5.45 44.5332 5.72L 45.4482 4.31C 44.9682 3.935 43.9332 3.575 42.9882 3.575C 41.5482 3.575 40.1982 4.445 40.1982 5.84C 40.1982 8.18 43.7232 7.79 43.7232 8.885C 43.7232 9.245 43.3182 9.5 42.7932 9.5C 42.0582 9.5 41.2932 9.23 40.7982 8.78L 39.8532 10.175ZM 52.4227 3.725L 52.4227 8.45C 52.1527 8.795 51.5527 9.35 50.7277 9.35C 50.3527 9.35 49.9327 9.23 49.6327 8.9C 49.4077 8.645 49.2727 8.315 49.2727 7.655L 49.2727 3.725L 47.3227 3.725L 47.3227 7.58C 47.3227 8.66 47.5927 9.41 48.0577 9.98C 48.6277 10.685 49.5277 11.15 50.5327 11.15C 51.2377 11.15 51.9277 10.925 52.4977 10.415L 52.4977 11L 54.3727 11L 54.3727 3.725L 52.4227 3.725ZM 56.6279 14.6L 58.5779 14.6L 58.5779 10.49C 59.1629 10.94 59.7929 11.15 60.5279 11.15C 61.6079 11.15 62.6429 10.67 63.2879 9.92C 63.8579 9.26 64.2029 8.36 64.2029 7.37C 64.2029 5.225 62.6129 3.575 60.6329 3.575C 59.8079 3.575 59.0729 3.845 58.5029 4.31L 58.5029 3.725L 56.6279 3.725L 56.6279 14.6ZM 58.5779 6.275C 58.9829 5.735 59.6279 5.375 60.3779 5.375C 61.5179 5.375 62.2529 6.32 62.2529 7.37C 62.2529 8.51 61.4279 9.35 60.3329 9.35C 59.5979 9.35 58.9529 8.99 58.5779 8.45L 58.5779 6.275ZM 65.8564 14.6L 67.8064 14.6L 67.8064 10.49C 68.3914 10.94 69.0214 11.15 69.7564 11.15C 70.8364 11.15 71.8714 10.67 72.5164 9.92C 73.0864 9.26 73.4314 8.36 73.4314 7.37C 73.4314 5.225 71.8414 3.575 69.8614 3.575C 69.0364 3.575 68.3014 3.845 67.7314 4.31L 67.7314 3.725L 65.8564 3.725L 65.8564 14.6ZM 67.8064 6.275C 68.2114 5.735 68.8564 5.375 69.6064 5.375C 70.7464 5.375 71.4814 6.32 71.4814 7.37C 71.4814 8.51 70.6564 9.35 69.5614 9.35C 68.8264 9.35 68.1814 8.99 67.8064 8.45L 67.8064 6.275ZM 74.485 7.37C 74.485 9.47 76.15 11.15 78.355 11.15C 80.56 11.15 82.225 9.47 82.225 7.37C 82.225 5.27 80.56 3.575 78.355 3.575C 76.15 3.575 74.485 5.27 74.485 7.37ZM 76.435 7.37C 76.435 6.275 77.215 5.375 78.355 5.375C 79.495 5.375 80.275 6.275 80.275 7.37C 80.275 8.465 79.495 9.35 78.355 9.35C 77.215 9.35 76.435 8.465 76.435 7.37ZM 88.524 3.635C 88.314 3.605 88.149 3.575 87.864 3.575C 86.979 3.575 86.184 3.92 85.749 4.46L 85.749 3.725L 83.874 3.725L 83.874 11L 85.824 11L 85.824 6.425C 86.064 5.99 86.739 5.375 87.594 5.375C 87.879 5.375 88.164 5.405 88.299 5.45L 88.524 3.635ZM 95.2014 9.35C 95.0664 9.38 94.6914 9.425 94.4064 9.425C 93.9264 9.425 93.6114 9.29 93.4164 9.065C 93.2514 8.87 93.1764 8.6 93.1764 8.15L 93.1764 5.375L 95.5764 5.375L 95.5764 3.725L 93.1764 3.725L 93.1764 1.7L 91.2264 1.7L 91.2264 3.725L 89.2014 3.725L 89.2014 5.375L 91.2264 5.375L 91.2264 7.925C 91.2264 8.96 91.3914 9.605 91.7664 10.1C 92.2614 10.76 93.1164 11.15 94.2864 11.15C 94.6614 11.15 95.2464 11.09 95.5014 11L 95.2014 9.35ZM 106.521 8.45C 106.146 8.99 105.501 9.35 104.766 9.35C 103.671 9.35 102.846 8.51 102.846 7.37C 102.846 6.32 103.581 5.375 104.721 5.375C 105.471 5.375 106.116 5.735 106.521 6.275L 106.521 8.45ZM 108.471 11L 108.471 0.35L 106.521 0.35L 106.521 4.25C 105.951 3.8 105.261 3.575 104.466 3.575C 102.486 3.575 100.896 5.225 100.896 7.37C 100.896 8.36 101.256 9.26 101.826 9.92C 102.471 10.67 103.491 11.15 104.571 11.15C 105.306 11.15 105.996 10.925 106.596 10.415L 106.596 11L 108.471 11ZM 115.81 8.735C 115.465 9.11 114.805 9.575 113.98 9.575C 112.945 9.575 112.12 8.87 112.015 7.85L 117.055 7.85C 117.085 7.685 117.1 7.49 117.1 7.295C 117.1 5.27 115.675 3.575 113.665 3.575C 111.505 3.575 110.125 5.345 110.125 7.37C 110.125 9.65 111.76 11.15 113.935 11.15C 115.06 11.15 116.215 10.685 116.92 9.845L 115.81 8.735ZM 112.105 6.425C 112.195 5.765 112.855 5.15 113.665 5.15C 114.46 5.15 115.045 5.78 115.105 6.425L 112.105 6.425ZM 118.032 10.175C 118.887 10.805 119.952 11.15 120.957 11.15C 122.487 11.15 123.852 10.295 123.852 8.9C 123.852 6.38 120.327 6.755 120.327 5.81C 120.327 5.435 120.777 5.225 121.317 5.225C 121.842 5.225 122.337 5.45 122.712 5.72L 123.627 4.31C 123.147 3.935 122.112 3.575 121.167 3.575C 119.727 3.575 118.377 4.445 118.377 5.84C 118.377 8.18 121.902 7.79 121.902 8.885C 121.902 9.245 121.497 9.5 120.972 9.5C 120.237 9.5 119.472 9.23 118.977 8.78L 118.032 10.175ZM 132.851 3.725L 130.106 3.725L 127.601 6.08L 127.601 0.35L 125.651 0.35L 125.651 11L 127.601 11L 127.601 7.85L 130.676 11L 133.301 11L 129.296 6.995L 132.851 3.725Z"/>
<path id="path3_fill" d="M 1.2 11L 3.225 11L 3.225 4.16L 9.075 11L 10.5 11L 10.5 0.5L 8.475 0.5L 8.475 7.34L 2.625 0.5L 1.2 0.5L 1.2 11ZM 17.9141 8.735C 17.5691 9.11 16.9091 9.575 16.0841 9.575C 15.0491 9.575 14.2241 8.87 14.1191 7.85L 19.1591 7.85C 19.1891 7.685 19.2041 7.49 19.2041 7.295C 19.2041 5.27 17.7791 3.575 15.7691 3.575C 13.6091 3.575 12.2291 5.345 12.2291 7.37C 12.2291 9.65 13.8641 11.15 16.0391 11.15C 17.1641 11.15 18.3191 10.685 19.0241 9.845L 17.9141 8.735ZM 14.2091 6.425C 14.2991 5.765 14.9591 5.15 15.7691 5.15C 16.5641 5.15 17.1491 5.78 17.2091 6.425L 14.2091 6.425ZM 26.1214 6.77L 27.9514 11L 29.3014 11L 32.3614 3.725L 30.3964 3.725L 28.6114 7.97L 26.7964 3.725L 25.4464 3.725L 23.6164 7.97L 21.8464 3.725L 19.8814 3.725L 22.9414 11L 24.2914 11L 26.1214 6.77ZM 40.1779 11L 41.6029 11L 43.9279 4.355L 46.2679 11L 47.6929 11L 51.1729 0.5L 49.1329 0.5L 46.9579 7.055L 44.6479 0.5L 43.2229 0.5L 40.9129 7.055L 38.7379 0.5L 36.6979 0.5L 40.1779 11ZM 57.5381 8.735C 57.1931 9.11 56.5331 9.575 55.7081 9.575C 54.6731 9.575 53.8481 8.87 53.7431 7.85L 58.7831 7.85C 58.8131 7.685 58.8281 7.49 58.8281 7.295C 58.8281 5.27 57.4031 3.575 55.3931 3.575C 53.2331 3.575 51.8531 5.345 51.8531 7.37C 51.8531 9.65 53.4881 11.15 55.6631 11.15C 56.7881 11.15 57.9431 10.685 58.6481 9.845L 57.5381 8.735ZM 53.8331 6.425C 53.9231 5.765 54.5831 5.15 55.3931 5.15C 56.1881 5.15 56.7731 5.78 56.8331 6.425L 53.8331 6.425ZM 62.4305 6.275C 62.8355 5.735 63.4805 5.375 64.2305 5.375C 65.3705 5.375 66.1055 6.32 66.1055 7.37C 66.1055 8.51 65.2805 9.35 64.1855 9.35C 63.4505 9.35 62.8055 8.99 62.4305 8.45L 62.4305 6.275ZM 62.3555 11L 62.3555 10.415C 62.9555 10.925 63.6455 11.15 64.3805 11.15C 65.4605 11.15 66.4805 10.67 67.1255 9.92C 67.6955 9.26 68.0555 8.36 68.0555 7.37C 68.0555 5.225 66.4655 3.575 64.4855 3.575C 63.6905 3.575 63.0005 3.8 62.4305 4.25L 62.4305 0.35L 60.4805 0.35L 60.4805 11L 62.3555 11ZM 68.989 10.175C 69.844 10.805 70.909 11.15 71.914 11.15C 73.444 11.15 74.809 10.295 74.809 8.9C 74.809 6.38 71.284 6.755 71.284 5.81C 71.284 5.435 71.734 5.225 72.274 5.225C 72.799 5.225 73.294 5.45 73.669 5.72L 74.584 4.31C 74.104 3.935 73.069 3.575 72.124 3.575C 70.684 3.575 69.334 4.445 69.334 5.84C 69.334 8.18 72.859 7.79 72.859 8.885C 72.859 9.245 72.454 9.5 71.929 9.5C 71.194 9.5 70.429 9.23 69.934 8.78L 68.989 10.175ZM 78.5584 3.725L 76.6084 3.725L 76.6084 11L 78.5584 11L 78.5584 3.725ZM 76.3084 1.145C 76.3084 1.85 76.8784 2.39 77.5834 2.39C 78.2884 2.39 78.8584 1.85 78.8584 1.145C 78.8584 0.44 78.2884 -0.1 77.5834 -0.1C 76.8784 -0.1 76.3084 0.44 76.3084 1.145ZM 85.9875 9.35C 85.8525 9.38 85.4775 9.425 85.1925 9.425C 84.7125 9.425 84.3975 9.29 84.2025 9.065C 84.0375 8.87 83.9625 8.6 83.9625 8.15L 83.9625 5.375L 86.3625 5.375L 86.3625 3.725L 83.9625 3.725L 83.9625 1.7L 82.0125 1.7L 82.0125 3.725L 79.9875 3.725L 79.9875 5.375L 82.0125 5.375L 82.0125 7.925C 82.0125 8.96 82.1775 9.605 82.5525 10.1C 83.0475 10.76 83.9025 11.15 85.0725 11.15C 85.4475 11.15 86.0325 11.09 86.2875 11L 85.9875 9.35ZM 93.3243 8.735C 92.9793 9.11 92.3193 9.575 91.4943 9.575C 90.4593 9.575 89.6343 8.87 89.5293 7.85L 94.5693 7.85C 94.5993 7.685 94.6143 7.49 94.6143 7.295C 94.6143 5.27 93.1893 3.575 91.1793 3.575C 89.0193 3.575 87.6393 5.345 87.6393 7.37C 87.6393 9.65 89.2743 11.15 91.4493 11.15C 92.5743 11.15 93.7293 10.685 94.4343 9.845L 93.3243 8.735ZM 89.6193 6.425C 89.7093 5.765 90.3693 5.15 91.1793 5.15C 91.9743 5.15 92.5593 5.78 92.6193 6.425L 89.6193 6.425Z"/>
<path id="path4_fill" d="M 2.475 5.75C 2.475 3.77 3.945 2.15 5.925 2.15C 7.905 2.15 9.375 3.77 9.375 5.75C 9.375 7.73 7.905 9.35 5.925 9.35C 3.945 9.35 2.475 7.73 2.475 5.75ZM 0.45 5.75C 0.45 8.735 2.685 11.15 5.925 11.15C 9.165 11.15 11.4 8.735 11.4 5.75C 11.4 2.765 9.165 0.35 5.925 0.35C 2.685 0.35 0.45 2.765 0.45 5.75ZM 12.2256 0.5L 12.2256 2.3L 15.0006 2.3L 15.0006 11L 17.0256 11L 17.0256 2.3L 19.8006 2.3L 19.8006 0.5L 12.2256 0.5ZM 26.1409 2.15C 27.1759 2.15 28.0609 2.6 28.6909 3.23L 29.9959 1.85C 29.0509 0.935 27.7159 0.35 26.1559 0.35C 22.8859 0.35 20.6209 2.735 20.6209 5.75C 20.6209 8.765 22.9159 11.15 26.1859 11.15C 28.1059 11.15 29.6659 10.325 30.5959 9.14L 29.2009 7.895C 28.5859 8.69 27.5959 9.35 26.2309 9.35C 24.2059 9.35 22.6459 7.79 22.6459 5.75C 22.6459 3.755 24.1459 2.15 26.1409 2.15ZM 36.0615 14.6L 38.0115 14.6L 38.0115 10.49C 38.5965 10.94 39.2265 11.15 39.9615 11.15C 41.0415 11.15 42.0765 10.67 42.7215 9.92C 43.2915 9.26 43.6365 8.36 43.6365 7.37C 43.6365 5.225 42.0465 3.575 40.0665 3.575C 39.2415 3.575 38.5065 3.845 37.9365 4.31L 37.9365 3.725L 36.0615 3.725L 36.0615 14.6ZM 38.0115 6.275C 38.4165 5.735 39.0615 5.375 39.8115 5.375C 40.9515 5.375 41.6865 6.32 41.6865 7.37C 41.6865 8.51 40.8615 9.35 39.7665 9.35C 39.0315 9.35 38.3865 8.99 38.0115 8.45L 38.0115 6.275ZM 50.315 8.45C 49.94 8.99 49.295 9.35 48.56 9.35C 47.465 9.35 46.64 8.51 46.64 7.37C 46.64 6.32 47.375 5.375 48.515 5.375C 49.265 5.375 49.91 5.735 50.315 6.275L 50.315 8.45ZM 52.265 3.725L 50.39 3.725L 50.39 4.31C 49.82 3.845 49.085 3.575 48.26 3.575C 46.28 3.575 44.69 5.225 44.69 7.37C 44.69 8.36 45.05 9.26 45.62 9.92C 46.265 10.67 47.285 11.15 48.365 11.15C 49.1 11.15 49.79 10.925 50.39 10.415L 50.39 11L 52.265 11L 52.265 3.725ZM 53.7986 10.175C 54.6536 10.805 55.7186 11.15 56.7236 11.15C 58.2536 11.15 59.6186 10.295 59.6186 8.9C 59.6186 6.38 56.0936 6.755 56.0936 5.81C 56.0936 5.435 56.5436 5.225 57.0836 5.225C 57.6086 5.225 58.1036 5.45 58.4786 5.72L 59.3936 4.31C 58.9136 3.935 57.8786 3.575 56.9336 3.575C 55.4936 3.575 54.1436 4.445 54.1436 5.84C 54.1436 8.18 57.6686 7.79 57.6686 8.885C 57.6686 9.245 57.2636 9.5 56.7386 9.5C 56.0036 9.5 55.2386 9.23 54.7436 8.78L 53.7986 10.175ZM 60.698 10.175C 61.553 10.805 62.618 11.15 63.623 11.15C 65.153 11.15 66.518 10.295 66.518 8.9C 66.518 6.38 62.993 6.755 62.993 5.81C 62.993 5.435 63.443 5.225 63.983 5.225C 64.508 5.225 65.003 5.45 65.378 5.72L 66.293 4.31C 65.813 3.935 64.778 3.575 63.833 3.575C 62.393 3.575 61.043 4.445 61.043 5.84C 61.043 8.18 64.568 7.79 64.568 8.885C 64.568 9.245 64.163 9.5 63.638 9.5C 62.903 9.5 62.138 9.23 61.643 8.78L 60.698 10.175ZM 73.4924 9.35C 73.3574 9.38 72.9824 9.425 72.6974 9.425C 72.2174 9.425 71.9024 9.29 71.7074 9.065C 71.5424 8.87 71.4674 8.6 71.4674 8.15L 71.4674 5.375L 73.8674 5.375L 73.8674 3.725L 71.4674 3.725L 71.4674 1.7L 69.5174 1.7L 69.5174 3.725L 67.4924 3.725L 67.4924 5.375L 69.5174 5.375L 69.5174 7.925C 69.5174 8.96 69.6824 9.605 70.0574 10.1C 70.5524 10.76 71.4074 11.15 72.5774 11.15C 72.9524 11.15 73.5374 11.09 73.7924 11L 73.4924 9.35ZM 77.6941 6.275C 77.9641 5.9 78.6391 5.375 79.4641 5.375C 79.9141 5.375 80.3041 5.525 80.5591 5.78C 80.8291 6.05 80.9941 6.425 80.9941 7.145L 80.9941 11L 82.9441 11L 82.9441 7.295C 82.9441 6.05 82.6741 5.315 82.1941 4.745C 81.5941 4.025 80.6791 3.575 79.6741 3.575C 78.9241 3.575 78.2341 3.83 77.6941 4.25L 77.6941 0.35L 75.7441 0.35L 75.7441 11L 77.6941 11L 77.6941 6.275ZM 89.6959 3.635C 89.4859 3.605 89.3209 3.575 89.0359 3.575C 88.1509 3.575 87.3559 3.92 86.9209 4.46L 86.9209 3.725L 85.0459 3.725L 85.0459 11L 86.9959 11L 86.9959 6.425C 87.2359 5.99 87.9109 5.375 88.7659 5.375C 89.0509 5.375 89.3359 5.405 89.4709 5.45L 89.6959 3.635ZM 90.5982 7.37C 90.5982 9.47 92.2632 11.15 94.4682 11.15C 96.6732 11.15 98.3382 9.47 98.3382 7.37C 98.3382 5.27 96.6732 3.575 94.4682 3.575C 92.2632 3.575 90.5982 5.27 90.5982 7.37ZM 92.5482 7.37C 92.5482 6.275 93.3282 5.375 94.4682 5.375C 95.6082 5.375 96.3882 6.275 96.3882 7.37C 96.3882 8.465 95.6082 9.35 94.4682 9.35C 93.3282 9.35 92.5482 8.465 92.5482 7.37ZM 104.937 3.725L 104.937 8.45C 104.667 8.795 104.067 9.35 103.242 9.35C 102.867 9.35 102.447 9.23 102.147 8.9C 101.922 8.645 101.787 8.315 101.787 7.655L 101.787 3.725L 99.8373 3.725L 99.8373 7.58C 99.8373 8.66 100.107 9.41 100.572 9.98C 101.142 10.685 102.042 11.15 103.047 11.15C 103.752 11.15 104.442 10.925 105.012 10.415L 105.012 11L 106.887 11L 106.887 3.725L 104.937 3.725ZM 116.118 3.725L 114.243 3.725L 114.243 4.31C 113.673 3.845 112.938 3.575 112.113 3.575C 110.133 3.575 108.543 5.225 108.543 7.37C 108.543 8.36 108.888 9.26 109.458 9.92C 110.103 10.67 111.138 11.15 112.218 11.15C 112.953 11.15 113.583 10.94 114.168 10.49L 114.168 10.73C 114.168 11.66 114.018 12.11 113.718 12.44C 113.388 12.83 112.863 13.025 112.233 13.025C 111.033 13.025 110.358 12.395 109.968 11.975L 108.738 13.25C 109.458 14.09 110.808 14.75 112.233 14.75C 113.628 14.75 114.798 14.21 115.458 13.295C 115.893 12.68 116.118 11.9 116.118 10.595L 116.118 3.725ZM 114.168 8.45C 113.793 8.99 113.148 9.35 112.413 9.35C 111.318 9.35 110.493 8.51 110.493 7.37C 110.493 6.32 111.228 5.375 112.368 5.375C 113.118 5.375 113.763 5.735 114.168 6.275L 114.168 8.45ZM 120.321 6.275C 120.591 5.9 121.266 5.375 122.091 5.375C 122.541 5.375 122.931 5.525 123.186 5.78C 123.456 6.05 123.621 6.425 123.621 7.145L 123.621 11L 125.571 11L 125.571 7.295C 125.571 6.05 125.301 5.315 124.821 4.745C 124.221 4.025 123.306 3.575 122.301 3.575C 121.551 3.575 120.861 3.83 120.321 4.25L 120.321 0.35L 118.371 0.35L 118.371 11L 120.321 11L 120.321 6.275Z"/>
<path id="path5_fill" d="M 2.625 0.5L 1.2 0.5L 1.2 11L 3.225 11L 3.225 5.15L 5.745 9.275L 7.155 9.275L 9.675 5.15L 9.675 11L 11.7 11L 11.7 0.5L 10.275 0.5L 6.45 6.785L 2.625 0.5ZM 13.4303 7.37C 13.4303 9.47 15.0953 11.15 17.3003 11.15C 19.5053 11.15 21.1703 9.47 21.1703 7.37C 21.1703 5.27 19.5053 3.575 17.3003 3.575C 15.0953 3.575 13.4303 5.27 13.4303 7.37ZM 15.3803 7.37C 15.3803 6.275 16.1603 5.375 17.3003 5.375C 18.4403 5.375 19.2203 6.275 19.2203 7.37C 19.2203 8.465 18.4403 9.35 17.3003 9.35C 16.1603 9.35 15.3803 8.465 15.3803 7.37ZM 24.7693 6.275C 25.1743 5.735 25.8193 5.375 26.5693 5.375C 27.7093 5.375 28.4443 6.32 28.4443 7.37C 28.4443 8.51 27.6193 9.35 26.5243 9.35C 25.7893 9.35 25.1443 8.99 24.7693 8.45L 24.7693 6.275ZM 24.6943 11L 24.6943 10.415C 25.2943 10.925 25.9843 11.15 26.7193 11.15C 27.7993 11.15 28.8193 10.67 29.4643 9.92C 30.0343 9.26 30.3943 8.36 30.3943 7.37C 30.3943 5.225 28.8043 3.575 26.8243 3.575C 26.0293 3.575 25.3393 3.8 24.7693 4.25L 24.7693 0.35L 22.8193 0.35L 22.8193 11L 24.6943 11ZM 33.9979 3.725L 32.0479 3.725L 32.0479 11L 33.9979 11L 33.9979 3.725ZM 31.7479 1.145C 31.7479 1.85 32.3179 2.39 33.0229 2.39C 33.7279 2.39 34.2979 1.85 34.2979 1.145C 34.2979 0.44 33.7279 -0.1 33.0229 -0.1C 32.3179 -0.1 31.7479 0.44 31.7479 1.145ZM 38.202 0.35L 36.252 0.35L 36.252 11L 38.202 11L 38.202 0.35ZM 45.5411 8.735C 45.1961 9.11 44.5361 9.575 43.7111 9.575C 42.6761 9.575 41.8511 8.87 41.7461 7.85L 46.7861 7.85C 46.8161 7.685 46.8311 7.49 46.8311 7.295C 46.8311 5.27 45.4061 3.575 43.3961 3.575C 41.2361 3.575 39.8561 5.345 39.8561 7.37C 39.8561 9.65 41.4911 11.15 43.6661 11.15C 44.7911 11.15 45.9461 10.685 46.6511 9.845L 45.5411 8.735ZM 41.8361 6.425C 41.9261 5.765 42.5861 5.15 43.3961 5.15C 44.1911 5.15 44.7761 5.78 44.8361 6.425L 41.8361 6.425ZM 55.0314 11L 56.4564 11L 58.7814 4.355L 61.1214 11L 62.5464 11L 66.0264 0.5L 63.9864 0.5L 61.8114 7.055L 59.5014 0.5L 58.0764 0.5L 55.7664 7.055L 53.5914 0.5L 51.5514 0.5L 55.0314 11ZM 72.3316 8.45C 71.9566 8.99 71.3116 9.35 70.5766 9.35C 69.4816 9.35 68.6566 8.51 68.6566 7.37C 68.6566 6.32 69.3916 5.375 70.5316 5.375C 71.2816 5.375 71.9266 5.735 72.3316 6.275L 72.3316 8.45ZM 74.2816 3.725L 72.4066 3.725L 72.4066 4.31C 71.8366 3.845 71.1016 3.575 70.2766 3.575C 68.2966 3.575 66.7066 5.225 66.7066 7.37C 66.7066 8.36 67.0666 9.26 67.6366 9.92C 68.2816 10.67 69.3016 11.15 70.3816 11.15C 71.1166 11.15 71.8066 10.925 72.4066 10.415L 72.4066 11L 74.2816 11L 74.2816 3.725ZM 78.4852 0.35L 76.5352 0.35L 76.5352 11L 78.4852 11L 78.4852 0.35ZM 82.6893 0.35L 80.7393 0.35L 80.7393 11L 82.6893 11L 82.6893 0.35ZM 90.0284 8.735C 89.6834 9.11 89.0234 9.575 88.1984 9.575C 87.1634 9.575 86.3384 8.87 86.2334 7.85L 91.2734 7.85C 91.3034 7.685 91.3184 7.49 91.3184 7.295C 91.3184 5.27 89.8934 3.575 87.8834 3.575C 85.7234 3.575 84.3434 5.345 84.3434 7.37C 84.3434 9.65 85.9784 11.15 88.1534 11.15C 89.2784 11.15 90.4334 10.685 91.1384 9.845L 90.0284 8.735ZM 86.3234 6.425C 86.4134 5.765 87.0734 5.15 87.8834 5.15C 88.6784 5.15 89.2634 5.78 89.3234 6.425L 86.3234 6.425ZM 98.1457 9.35C 98.0107 9.38 97.6357 9.425 97.3507 9.425C 96.8707 9.425 96.5557 9.29 96.3607 9.065C 96.1957 8.87 96.1207 8.6 96.1207 8.15L 96.1207 5.375L 98.5207 5.375L 98.5207 3.725L 96.1207 3.725L 96.1207 1.7L 94.1707 1.7L 94.1707 3.725L 92.1457 3.725L 92.1457 5.375L 94.1707 5.375L 94.1707 7.925C 94.1707 8.96 94.3357 9.605 94.7107 10.1C 95.2057 10.76 96.0607 11.15 97.2307 11.15C 97.6057 11.15 98.1907 11.09 98.4457 11L 98.1457 9.35ZM 105.43 11L 106.42 8.675L 110.635 8.675L 111.625 11L 113.74 11L 109.24 0.5L 107.815 0.5L 103.315 11L 105.43 11ZM 108.52 3.77L 109.855 6.875L 107.185 6.875L 108.52 3.77ZM 116.82 11L 116.82 6.275C 117.09 5.9 117.765 5.375 118.59 5.375C 119.04 5.375 119.43 5.525 119.685 5.78C 119.955 6.05 120.12 6.425 120.12 7.145L 120.12 11L 122.07 11L 122.07 7.295C 122.07 6.05 121.8 5.315 121.32 4.745C 120.72 4.025 119.805 3.575 118.8 3.575C 117.99 3.575 117.3 3.86 116.745 4.31L 116.745 3.725L 114.87 3.725L 114.87 11L 116.82 11ZM 129.197 8.45C 128.822 8.99 128.177 9.35 127.442 9.35C 126.347 9.35 125.522 8.51 125.522 7.37C 125.522 6.32 126.257 5.375 127.397 5.375C 128.147 5.375 128.792 5.735 129.197 6.275L 129.197 8.45ZM 131.147 11L 131.147 0.35L 129.197 0.35L 129.197 4.25C 128.627 3.8 127.937 3.575 127.142 3.575C 125.162 3.575 123.572 5.225 123.572 7.37C 123.572 8.36 123.932 9.26 124.502 9.92C 125.147 10.67 126.167 11.15 127.247 11.15C 127.982 11.15 128.672 10.925 129.272 10.415L 129.272 11L 131.147 11ZM 138.05 3.635C 137.84 3.605 137.675 3.575 137.39 3.575C 136.505 3.575 135.71 3.92 135.275 4.46L 135.275 3.725L 133.4 3.725L 133.4 11L 135.35 11L 135.35 6.425C 135.59 5.99 136.265 5.375 137.12 5.375C 137.405 5.375 137.69 5.405 137.825 5.45L 138.05 3.635ZM 138.953 7.37C 138.953 9.47 140.618 11.15 142.823 11.15C 145.028 11.15 146.693 9.47 146.693 7.37C 146.693 5.27 145.028 3.575 142.823 3.575C 140.618 3.575 138.953 5.27 138.953 7.37ZM 140.903 7.37C 140.903 6.275 141.683 5.375 142.823 5.375C 143.963 5.375 144.743 6.275 144.743 7.37C 144.743 8.465 143.963 9.35 142.823 9.35C 141.683 9.35 140.903 8.465 140.903 7.37ZM 150.292 3.725L 148.342 3.725L 148.342 11L 150.292 11L 150.292 3.725ZM 148.042 1.145C 148.042 1.85 148.612 2.39 149.317 2.39C 150.022 2.39 150.592 1.85 150.592 1.145C 150.592 0.44 150.022 -0.1 149.317 -0.1C 148.612 -0.1 148.042 0.44 148.042 1.145ZM 157.571 8.45C 157.196 8.99 156.551 9.35 155.816 9.35C 154.721 9.35 153.896 8.51 153.896 7.37C 153.896 6.32 154.631 5.375 155.771 5.375C 156.521 5.375 157.166 5.735 157.571 6.275L 157.571 8.45ZM 159.521 11L 159.521 0.35L 157.571 0.35L 157.571 4.25C 157.001 3.8 156.311 3.575 155.516 3.575C 153.536 3.575 151.946 5.225 151.946 7.37C 151.946 8.36 152.306 9.26 152.876 9.92C 153.521 10.67 154.541 11.15 155.621 11.15C 156.356 11.15 157.046 10.925 157.646 10.415L 157.646 11L 159.521 11Z"/>
<path id="path6_fill" d="M 2.625 0.5L 1.2 0.5L 1.2 11L 3.225 11L 3.225 5.15L 5.745 9.275L 7.155 9.275L 9.675 5.15L 9.675 11L 11.7 11L 11.7 0.5L 10.275 0.5L 6.45 6.785L 2.625 0.5ZM 13.4303 7.37C 13.4303 9.47 15.0953 11.15 17.3003 11.15C 19.5053 11.15 21.1703 9.47 21.1703 7.37C 21.1703 5.27 19.5053 3.575 17.3003 3.575C 15.0953 3.575 13.4303 5.27 13.4303 7.37ZM 15.3803 7.37C 15.3803 6.275 16.1603 5.375 17.3003 5.375C 18.4403 5.375 19.2203 6.275 19.2203 7.37C 19.2203 8.465 18.4403 9.35 17.3003 9.35C 16.1603 9.35 15.3803 8.465 15.3803 7.37ZM 24.7693 6.275C 25.1743 5.735 25.8193 5.375 26.5693 5.375C 27.7093 5.375 28.4443 6.32 28.4443 7.37C 28.4443 8.51 27.6193 9.35 26.5243 9.35C 25.7893 9.35 25.1443 8.99 24.7693 8.45L 24.7693 6.275ZM 24.6943 11L 24.6943 10.415C 25.2943 10.925 25.9843 11.15 26.7193 11.15C 27.7993 11.15 28.8193 10.67 29.4643 9.92C 30.0343 9.26 30.3943 8.36 30.3943 7.37C 30.3943 5.225 28.8043 3.575 26.8243 3.575C 26.0293 3.575 25.3393 3.8 24.7693 4.25L 24.7693 0.35L 22.8193 0.35L 22.8193 11L 24.6943 11ZM 33.9979 3.725L 32.0479 3.725L 32.0479 11L 33.9979 11L 33.9979 3.725ZM 31.7479 1.145C 31.7479 1.85 32.3179 2.39 33.0229 2.39C 33.7279 2.39 34.2979 1.85 34.2979 1.145C 34.2979 0.44 33.7279 -0.1 33.0229 -0.1C 32.3179 -0.1 31.7479 0.44 31.7479 1.145ZM 38.202 0.35L 36.252 0.35L 36.252 11L 38.202 11L 38.202 0.35ZM 45.5411 8.735C 45.1961 9.11 44.5361 9.575 43.7111 9.575C 42.6761 9.575 41.8511 8.87 41.7461 7.85L 46.7861 7.85C 46.8161 7.685 46.8311 7.49 46.8311 7.295C 46.8311 5.27 45.4061 3.575 43.3961 3.575C 41.2361 3.575 39.8561 5.345 39.8561 7.37C 39.8561 9.65 41.4911 11.15 43.6661 11.15C 44.7911 11.15 45.9461 10.685 46.6511 9.845L 45.5411 8.735ZM 41.8361 6.425C 41.9261 5.765 42.5861 5.15 43.3961 5.15C 44.1911 5.15 44.7761 5.78 44.8361 6.425L 41.8361 6.425ZM 55.0314 11L 56.4564 11L 58.7814 4.355L 61.1214 11L 62.5464 11L 66.0264 0.5L 63.9864 0.5L 61.8114 7.055L 59.5014 0.5L 58.0764 0.5L 55.7664 7.055L 53.5914 0.5L 51.5514 0.5L 55.0314 11ZM 72.3316 8.45C 71.9566 8.99 71.3116 9.35 70.5766 9.35C 69.4816 9.35 68.6566 8.51 68.6566 7.37C 68.6566 6.32 69.3916 5.375 70.5316 5.375C 71.2816 5.375 71.9266 5.735 72.3316 6.275L 72.3316 8.45ZM 74.2816 3.725L 72.4066 3.725L 72.4066 4.31C 71.8366 3.845 71.1016 3.575 70.2766 3.575C 68.2966 3.575 66.7066 5.225 66.7066 7.37C 66.7066 8.36 67.0666 9.26 67.6366 9.92C 68.2816 10.67 69.3016 11.15 70.3816 11.15C 71.1166 11.15 71.8066 10.925 72.4066 10.415L 72.4066 11L 74.2816 11L 74.2816 3.725ZM 78.4852 0.35L 76.5352 0.35L 76.5352 11L 78.4852 11L 78.4852 0.35ZM 82.6893 0.35L 80.7393 0.35L 80.7393 11L 82.6893 11L 82.6893 0.35ZM 90.0284 8.735C 89.6834 9.11 89.0234 9.575 88.1984 9.575C 87.1634 9.575 86.3384 8.87 86.2334 7.85L 91.2734 7.85C 91.3034 7.685 91.3184 7.49 91.3184 7.295C 91.3184 5.27 89.8934 3.575 87.8834 3.575C 85.7234 3.575 84.3434 5.345 84.3434 7.37C 84.3434 9.65 85.9784 11.15 88.1534 11.15C 89.2784 11.15 90.4334 10.685 91.1384 9.845L 90.0284 8.735ZM 86.3234 6.425C 86.4134 5.765 87.0734 5.15 87.8834 5.15C 88.6784 5.15 89.2634 5.78 89.3234 6.425L 86.3234 6.425ZM 98.1457 9.35C 98.0107 9.38 97.6357 9.425 97.3507 9.425C 96.8707 9.425 96.5557 9.29 96.3607 9.065C 96.1957 8.87 96.1207 8.6 96.1207 8.15L 96.1207 5.375L 98.5207 5.375L 98.5207 3.725L 96.1207 3.725L 96.1207 1.7L 94.1707 1.7L 94.1707 3.725L 92.1457 3.725L 92.1457 5.375L 94.1707 5.375L 94.1707 7.925C 94.1707 8.96 94.3357 9.605 94.7107 10.1C 95.2057 10.76 96.0607 11.15 97.2307 11.15C 97.6057 11.15 98.1907 11.09 98.4457 11L 98.1457 9.35ZM 104.515 11L 106.54 11L 106.54 0.5L 104.515 0.5L 104.515 11ZM 110.214 5.75C 110.214 3.77 111.684 2.15 113.664 2.15C 115.644 2.15 117.114 3.77 117.114 5.75C 117.114 7.73 115.644 9.35 113.664 9.35C 111.684 9.35 110.214 7.73 110.214 5.75ZM 108.189 5.75C 108.189 8.735 110.424 11.15 113.664 11.15C 116.904 11.15 119.139 8.735 119.139 5.75C 119.139 2.765 116.904 0.35 113.664 0.35C 110.424 0.35 108.189 2.765 108.189 5.75ZM 119.74 9.575C 120.82 10.565 122.125 11.15 123.535 11.15C 125.425 11.15 127.09 9.86 127.09 8C 127.09 4.46 122.245 4.985 122.245 3.29C 122.245 2.48 123.1 2.15 123.865 2.15C 124.555 2.15 125.26 2.45 125.68 2.84L 126.73 1.34C 125.74 0.605 124.75 0.35 123.685 0.35C 121.945 0.35 120.22 1.43 120.22 3.305C 120.22 4.49 120.88 5.21 121.705 5.69C 123.115 6.515 125.065 6.68 125.065 8.03C 125.065 8.795 124.435 9.35 123.535 9.35C 122.575 9.35 121.66 8.855 121.06 8.195L 119.74 9.575Z"/>
<path id="path7_fill" d="M 2.115 11L 3.105 8.675L 7.32 8.675L 8.31 11L 10.425 11L 5.925 0.5L 4.5 0.5L 0 11L 2.115 11ZM 5.205 3.77L 6.54 6.875L 3.87 6.875L 5.205 3.77ZM 16.8047 0.335C 16.3997 0.23 16.0397 0.2 15.6497 0.2C 14.6597 0.2 13.8947 0.56 13.3847 1.055C 12.8747 1.55 12.6047 2.255 12.6047 3.425L 12.6047 3.725L 10.7297 3.725L 10.7297 5.375L 12.6047 5.375L 12.6047 11L 14.5547 11L 14.5547 5.375L 16.8047 5.375L 16.8047 3.725L 14.5547 3.725L 14.5547 3.5C 14.5547 2.825 14.6597 2.555 14.8247 2.345C 15.0647 2.06 15.4397 1.925 15.9197 1.925C 16.0997 1.925 16.3397 1.955 16.5047 2L 16.8047 0.335ZM 23.7041 0.335C 23.2991 0.23 22.9391 0.2 22.5491 0.2C 21.5591 0.2 20.7941 0.56 20.2841 1.055C 19.7741 1.55 19.5041 2.255 19.5041 3.425L 19.5041 3.725L 17.6291 3.725L 17.6291 5.375L 19.5041 5.375L 19.5041 11L 21.4541 11L 21.4541 5.375L 23.7041 5.375L 23.7041 3.725L 21.4541 3.725L 21.4541 3.5C 21.4541 2.825 21.5591 2.555 21.7241 2.345C 21.9641 2.06 22.3391 1.925 22.8191 1.925C 22.9991 1.925 23.2391 1.955 23.4041 2L 23.7041 0.335ZM 27.3035 3.725L 25.3535 3.725L 25.3535 11L 27.3035 11L 27.3035 3.725ZM 25.0535 1.145C 25.0535 1.85 25.6235 2.39 26.3285 2.39C 27.0335 2.39 27.6035 1.85 27.6035 1.145C 27.6035 0.44 27.0335 -0.1 26.3285 -0.1C 25.6235 -0.1 25.0535 0.44 25.0535 1.145ZM 31.5076 0.35L 29.5576 0.35L 29.5576 11L 31.5076 11L 31.5076 0.35ZM 35.7117 3.725L 33.7617 3.725L 33.7617 11L 35.7117 11L 35.7117 3.725ZM 33.4617 1.145C 33.4617 1.85 34.0317 2.39 34.7367 2.39C 35.4417 2.39 36.0117 1.85 36.0117 1.145C 36.0117 0.44 35.4417 -0.1 34.7367 -0.1C 34.0317 -0.1 33.4617 0.44 33.4617 1.145ZM 42.9908 8.45C 42.6158 8.99 41.9708 9.35 41.2358 9.35C 40.1408 9.35 39.3158 8.51 39.3158 7.37C 39.3158 6.32 40.0508 5.375 41.1908 5.375C 41.9408 5.375 42.5858 5.735 42.9908 6.275L 42.9908 8.45ZM 44.9408 3.725L 43.0658 3.725L 43.0658 4.31C 42.4958 3.845 41.7608 3.575 40.9358 3.575C 38.9558 3.575 37.3658 5.225 37.3658 7.37C 37.3658 8.36 37.7258 9.26 38.2958 9.92C 38.9408 10.67 39.9608 11.15 41.0408 11.15C 41.7758 11.15 42.4658 10.925 43.0658 10.415L 43.0658 11L 44.9408 11L 44.9408 3.725ZM 52.3693 9.35C 52.2343 9.38 51.8593 9.425 51.5743 9.425C 51.0943 9.425 50.7793 9.29 50.5843 9.065C 50.4193 8.87 50.3443 8.6 50.3443 8.15L 50.3443 5.375L 52.7443 5.375L 52.7443 3.725L 50.3443 3.725L 50.3443 1.7L 48.3943 1.7L 48.3943 3.725L 46.3693 3.725L 46.3693 5.375L 48.3943 5.375L 48.3943 7.925C 48.3943 8.96 48.5593 9.605 48.9343 10.1C 49.4293 10.76 50.2843 11.15 51.4543 11.15C 51.8293 11.15 52.4143 11.09 52.6693 11L 52.3693 9.35ZM 59.7061 8.735C 59.3611 9.11 58.7011 9.575 57.8761 9.575C 56.8411 9.575 56.0161 8.87 55.9111 7.85L 60.9511 7.85C 60.9811 7.685 60.9961 7.49 60.9961 7.295C 60.9961 5.27 59.5711 3.575 57.5611 3.575C 55.4011 3.575 54.0211 5.345 54.0211 7.37C 54.0211 9.65 55.6561 11.15 57.8311 11.15C 58.9561 11.15 60.1111 10.685 60.8161 9.845L 59.7061 8.735ZM 56.0011 6.425C 56.0911 5.765 56.7511 5.15 57.5611 5.15C 58.3561 5.15 58.9411 5.78 59.0011 6.425L 56.0011 6.425ZM 66.6914 14.6L 68.6414 14.6L 68.6414 10.49C 69.2264 10.94 69.8564 11.15 70.5914 11.15C 71.6714 11.15 72.7064 10.67 73.3514 9.92C 73.9214 9.26 74.2664 8.36 74.2664 7.37C 74.2664 5.225 72.6764 3.575 70.6964 3.575C 69.8714 3.575 69.1364 3.845 68.5664 4.31L 68.5664 3.725L 66.6914 3.725L 66.6914 14.6ZM 68.6414 6.275C 69.0464 5.735 69.6914 5.375 70.4414 5.375C 71.5814 5.375 72.3164 6.32 72.3164 7.37C 72.3164 8.51 71.4914 9.35 70.3964 9.35C 69.6614 9.35 69.0164 8.99 68.6414 8.45L 68.6414 6.275ZM 80.5699 3.635C 80.3599 3.605 80.1949 3.575 79.9099 3.575C 79.0249 3.575 78.2299 3.92 77.7949 4.46L 77.7949 3.725L 75.9199 3.725L 75.9199 11L 77.8699 11L 77.8699 6.425C 78.1099 5.99 78.7849 5.375 79.6399 5.375C 79.9249 5.375 80.2099 5.405 80.3449 5.45L 80.5699 3.635ZM 81.4723 7.37C 81.4723 9.47 83.1373 11.15 85.3423 11.15C 87.5473 11.15 89.2123 9.47 89.2123 7.37C 89.2123 5.27 87.5473 3.575 85.3423 3.575C 83.1373 3.575 81.4723 5.27 81.4723 7.37ZM 83.4223 7.37C 83.4223 6.275 84.2023 5.375 85.3423 5.375C 86.4823 5.375 87.2623 6.275 87.2623 7.37C 87.2623 8.465 86.4823 9.35 85.3423 9.35C 84.2023 9.35 83.4223 8.465 83.4223 7.37ZM 97.8363 3.725L 95.9613 3.725L 95.9613 4.31C 95.3913 3.845 94.6563 3.575 93.8313 3.575C 91.8513 3.575 90.2613 5.225 90.2613 7.37C 90.2613 8.36 90.6063 9.26 91.1763 9.92C 91.8213 10.67 92.8563 11.15 93.9363 11.15C 94.6713 11.15 95.3013 10.94 95.8863 10.49L 95.8863 10.73C 95.8863 11.66 95.7363 12.11 95.4363 12.44C 95.1063 12.83 94.5813 13.025 93.9513 13.025C 92.7513 13.025 92.0763 12.395 91.6863 11.975L 90.4563 13.25C 91.1763 14.09 92.5263 14.75 93.9513 14.75C 95.3463 14.75 96.5163 14.21 97.1763 13.295C 97.6113 12.68 97.8363 11.9 97.8363 10.595L 97.8363 3.725ZM 95.8863 8.45C 95.5113 8.99 94.8663 9.35 94.1313 9.35C 93.0363 9.35 92.2113 8.51 92.2113 7.37C 92.2113 6.32 92.9463 5.375 94.0863 5.375C 94.8363 5.375 95.4813 5.735 95.8863 6.275L 95.8863 8.45ZM 104.74 3.635C 104.53 3.605 104.365 3.575 104.08 3.575C 103.195 3.575 102.4 3.92 101.965 4.46L 101.965 3.725L 100.09 3.725L 100.09 11L 102.04 11L 102.04 6.425C 102.28 5.99 102.955 5.375 103.81 5.375C 104.095 5.375 104.38 5.405 104.515 5.45L 104.74 3.635ZM 111.267 8.45C 110.892 8.99 110.247 9.35 109.512 9.35C 108.417 9.35 107.592 8.51 107.592 7.37C 107.592 6.32 108.327 5.375 109.467 5.375C 110.217 5.375 110.862 5.735 111.267 6.275L 111.267 8.45ZM 113.217 3.725L 111.342 3.725L 111.342 4.31C 110.772 3.845 110.037 3.575 109.212 3.575C 107.232 3.575 105.642 5.225 105.642 7.37C 105.642 8.36 106.002 9.26 106.572 9.92C 107.217 10.67 108.237 11.15 109.317 11.15C 110.052 11.15 110.742 10.925 111.342 10.415L 111.342 11L 113.217 11L 113.217 3.725ZM 117.421 11L 117.421 6.275C 117.691 5.93 118.291 5.375 119.116 5.375C 119.491 5.375 119.911 5.495 120.211 5.825C 120.436 6.08 120.571 6.41 120.571 7.07L 120.571 11L 122.521 11L 122.521 7.145C 122.521 6.845 122.491 6.575 122.461 6.335C 122.716 5.96 123.376 5.375 124.216 5.375C 124.591 5.375 125.011 5.495 125.311 5.825C 125.536 6.08 125.671 6.41 125.671 7.07L 125.671 11L 127.621 11L 127.621 7.145C 127.621 6.065 127.351 5.315 126.886 4.745C 126.301 4.025 125.341 3.575 124.336 3.575C 123.256 3.575 122.341 4.1 121.756 4.715C 121.186 4.025 120.301 3.575 119.311 3.575C 118.606 3.575 117.916 3.8 117.346 4.31L 117.346 3.725L 115.471 3.725L 115.471 11L 117.421 11ZM 136.542 7.25C 136.542 5.105 137.187 3.005 138.327 1.37L 136.872 0.35C 135.507 2.3 134.742 4.7 134.742 7.25C 134.742 9.8 135.507 12.2 136.872 14.15L 138.327 13.13C 137.187 11.495 136.542 9.395 136.542 7.25ZM 141.943 5.75C 141.943 3.77 143.413 2.15 145.393 2.15C 147.373 2.15 148.843 3.77 148.843 5.75C 148.843 7.73 147.373 9.35 145.393 9.35C 143.413 9.35 141.943 7.73 141.943 5.75ZM 139.918 5.75C 139.918 8.735 142.153 11.15 145.393 11.15C 148.633 11.15 150.868 8.735 150.868 5.75C 150.868 2.765 148.633 0.35 145.393 0.35C 142.153 0.35 139.918 2.765 139.918 5.75ZM 151.693 0.5L 151.693 2.3L 154.468 2.3L 154.468 11L 156.493 11L 156.493 2.3L 159.268 2.3L 159.268 0.5L 151.693 0.5ZM 165.609 2.15C 166.644 2.15 167.529 2.6 168.159 3.23L 169.464 1.85C 168.519 0.935 167.184 0.35 165.624 0.35C 162.354 0.35 160.089 2.735 160.089 5.75C 160.089 8.765 162.384 11.15 165.654 11.15C 167.574 11.15 169.134 10.325 170.064 9.14L 168.669 7.895C 168.054 8.69 167.064 9.35 165.699 9.35C 163.674 9.35 162.114 7.79 162.114 5.75C 162.114 3.755 163.614 2.15 165.609 2.15ZM 173.286 7.25C 173.286 9.395 172.641 11.495 171.501 13.13L 172.956 14.15C 174.321 12.2 175.086 9.8 175.086 7.25C 175.086 4.7 174.321 2.3 172.956 0.35L 171.501 1.37C 172.641 3.005 173.286 5.105 173.286 7.25Z"/>
<path id="path8_fill" d="M 0.15 9.575C 1.23 10.565 2.535 11.15 3.945 11.15C 5.835 11.15 7.5 9.86 7.5 8C 7.5 4.46 2.655 4.985 2.655 3.29C 2.655 2.48 3.51 2.15 4.275 2.15C 4.965 2.15 5.67 2.45 6.09 2.84L 7.14 1.34C 6.15 0.605 5.16 0.35 4.095 0.35C 2.355 0.35 0.63 1.43 0.63 3.305C 0.63 4.49 1.29 5.21 2.115 5.69C 3.525 6.515 5.475 6.68 5.475 8.03C 5.475 8.795 4.845 9.35 3.945 9.35C 2.985 9.35 2.07 8.855 1.47 8.195L 0.15 9.575ZM 11.1023 3.725L 9.15234 3.725L 9.15234 11L 11.1023 11L 11.1023 3.725ZM 8.85234 1.145C 8.85234 1.85 9.42234 2.39 10.1273 2.39C 10.8323 2.39 11.4023 1.85 11.4023 1.145C 11.4023 0.44 10.8323 -0.1 10.1273 -0.1C 9.42234 -0.1 8.85234 0.44 8.85234 1.145ZM 20.3314 3.725L 18.4564 3.725L 18.4564 4.31C 17.8864 3.845 17.1514 3.575 16.3264 3.575C 14.3464 3.575 12.7564 5.225 12.7564 7.37C 12.7564 8.36 13.1014 9.26 13.6714 9.92C 14.3164 10.67 15.3514 11.15 16.4314 11.15C 17.1664 11.15 17.7964 10.94 18.3814 10.49L 18.3814 10.73C 18.3814 11.66 18.2314 12.11 17.9314 12.44C 17.6014 12.83 17.0764 13.025 16.4464 13.025C 15.2464 13.025 14.5714 12.395 14.1814 11.975L 12.9514 13.25C 13.6714 14.09 15.0214 14.75 16.4464 14.75C 17.8414 14.75 19.0114 14.21 19.6714 13.295C 20.1064 12.68 20.3314 11.9 20.3314 10.595L 20.3314 3.725ZM 18.3814 8.45C 18.0064 8.99 17.3614 9.35 16.6264 9.35C 15.5314 9.35 14.7064 8.51 14.7064 7.37C 14.7064 6.32 15.4414 5.375 16.5814 5.375C 17.3314 5.375 17.9764 5.735 18.3814 6.275L 18.3814 8.45ZM 24.535 11L 24.535 6.275C 24.805 5.9 25.48 5.375 26.305 5.375C 26.755 5.375 27.145 5.525 27.4 5.78C 27.67 6.05 27.835 6.425 27.835 7.145L 27.835 11L 29.785 11L 29.785 7.295C 29.785 6.05 29.515 5.315 29.035 4.745C 28.435 4.025 27.52 3.575 26.515 3.575C 25.705 3.575 25.015 3.86 24.46 4.31L 24.46 3.725L 22.585 3.725L 22.585 11L 24.535 11ZM 36.9117 8.45C 36.5367 8.99 35.8917 9.35 35.1567 9.35C 34.0617 9.35 33.2367 8.51 33.2367 7.37C 33.2367 6.32 33.9717 5.375 35.1117 5.375C 35.8617 5.375 36.5067 5.735 36.9117 6.275L 36.9117 8.45ZM 38.8617 3.725L 36.9867 3.725L 36.9867 4.31C 36.4167 3.845 35.6817 3.575 34.8567 3.575C 32.8767 3.575 31.2867 5.225 31.2867 7.37C 31.2867 8.36 31.6467 9.26 32.2167 9.92C 32.8617 10.67 33.8817 11.15 34.9617 11.15C 35.6967 11.15 36.3867 10.925 36.9867 10.415L 36.9867 11L 38.8617 11L 38.8617 3.725ZM 43.0652 0.35L 41.1152 0.35L 41.1152 11L 43.0652 11L 43.0652 0.35Z"/>
<path id="path9_fill" d="M 8.475 11L 10.5 11L 10.5 0.5L 8.475 0.5L 8.475 4.475L 3.225 4.475L 3.225 0.5L 1.2 0.5L 1.2 11L 3.225 11L 3.225 6.275L 8.475 6.275L 8.475 11ZM 17.8541 8.45C 17.4791 8.99 16.8341 9.35 16.0991 9.35C 15.0041 9.35 14.1791 8.51 14.1791 7.37C 14.1791 6.32 14.9141 5.375 16.0541 5.375C 16.8041 5.375 17.4491 5.735 17.8541 6.275L 17.8541 8.45ZM 19.8041 3.725L 17.9291 3.725L 17.9291 4.31C 17.3591 3.845 16.6241 3.575 15.7991 3.575C 13.8191 3.575 12.2291 5.225 12.2291 7.37C 12.2291 8.36 12.5891 9.26 13.1591 9.92C 13.8041 10.67 14.8241 11.15 15.9041 11.15C 16.6391 11.15 17.3291 10.925 17.9291 10.415L 17.9291 11L 19.8041 11L 19.8041 3.725ZM 26.7076 3.635C 26.4976 3.605 26.3326 3.575 26.0476 3.575C 25.1626 3.575 24.3676 3.92 23.9326 4.46L 23.9326 3.725L 22.0576 3.725L 22.0576 11L 24.0076 11L 24.0076 6.425C 24.2476 5.99 24.9226 5.375 25.7776 5.375C 26.0626 5.375 26.3476 5.405 26.4826 5.45L 26.7076 3.635ZM 33.235 8.45C 32.86 8.99 32.215 9.35 31.48 9.35C 30.385 9.35 29.56 8.51 29.56 7.37C 29.56 6.32 30.295 5.375 31.435 5.375C 32.185 5.375 32.83 5.735 33.235 6.275L 33.235 8.45ZM 35.185 11L 35.185 0.35L 33.235 0.35L 33.235 4.25C 32.665 3.8 31.975 3.575 31.18 3.575C 29.2 3.575 27.61 5.225 27.61 7.37C 27.61 8.36 27.97 9.26 28.54 9.92C 29.185 10.67 30.205 11.15 31.285 11.15C 32.02 11.15 32.71 10.925 33.31 10.415L 33.31 11L 35.185 11ZM 42.7035 6.77L 44.5335 11L 45.8835 11L 48.9435 3.725L 46.9785 3.725L 45.1935 7.97L 43.3785 3.725L 42.0285 3.725L 40.1985 7.97L 38.4285 3.725L 36.4635 3.725L 39.5235 11L 40.8735 11L 42.7035 6.77ZM 55.2369 8.45C 54.8619 8.99 54.2169 9.35 53.4819 9.35C 52.3869 9.35 51.5619 8.51 51.5619 7.37C 51.5619 6.32 52.2969 5.375 53.4369 5.375C 54.1869 5.375 54.8319 5.735 55.2369 6.275L 55.2369 8.45ZM 57.1869 3.725L 55.3119 3.725L 55.3119 4.31C 54.7419 3.845 54.0069 3.575 53.1819 3.575C 51.2019 3.575 49.6119 5.225 49.6119 7.37C 49.6119 8.36 49.9719 9.26 50.5419 9.92C 51.1869 10.67 52.2069 11.15 53.2869 11.15C 54.0219 11.15 54.7119 10.925 55.3119 10.415L 55.3119 11L 57.1869 11L 57.1869 3.725ZM 64.0904 3.635C 63.8804 3.605 63.7154 3.575 63.4304 3.575C 62.5454 3.575 61.7504 3.92 61.3154 4.46L 61.3154 3.725L 59.4404 3.725L 59.4404 11L 61.3904 11L 61.3904 6.425C 61.6304 5.99 62.3054 5.375 63.1604 5.375C 63.4454 5.375 63.7304 5.405 63.8654 5.45L 64.0904 3.635ZM 70.6778 8.735C 70.3328 9.11 69.6728 9.575 68.8478 9.575C 67.8128 9.575 66.9878 8.87 66.8828 7.85L 71.9228 7.85C 71.9528 7.685 71.9678 7.49 71.9678 7.295C 71.9678 5.27 70.5428 3.575 68.5328 3.575C 66.3728 3.575 64.9928 5.345 64.9928 7.37C 64.9928 9.65 66.6278 11.15 68.8028 11.15C 69.9278 11.15 71.0828 10.685 71.7878 9.845L 70.6778 8.735ZM 66.9728 6.425C 67.0628 5.765 67.7228 5.15 68.5328 5.15C 69.3278 5.15 69.9128 5.78 69.9728 6.425L 66.9728 6.425ZM 82.9281 6.77L 84.7581 11L 86.1081 11L 89.1681 3.725L 87.2031 3.725L 85.4181 7.97L 83.6031 3.725L 82.2531 3.725L 80.4231 7.97L 78.6531 3.725L 76.6881 3.725L 79.7481 11L 81.0981 11L 82.9281 6.77ZM 95.4615 8.45C 95.0865 8.99 94.4415 9.35 93.7065 9.35C 92.6115 9.35 91.7865 8.51 91.7865 7.37C 91.7865 6.32 92.5215 5.375 93.6615 5.375C 94.4115 5.375 95.0565 5.735 95.4615 6.275L 95.4615 8.45ZM 97.4115 3.725L 95.5365 3.725L 95.5365 4.31C 94.9665 3.845 94.2315 3.575 93.4065 3.575C 91.4265 3.575 89.8365 5.225 89.8365 7.37C 89.8365 8.36 90.1965 9.26 90.7665 9.92C 91.4115 10.67 92.4315 11.15 93.5115 11.15C 94.2465 11.15 94.9365 10.925 95.5365 10.415L 95.5365 11L 97.4115 11L 97.4115 3.725ZM 101.615 0.35L 99.665 0.35L 99.665 11L 101.615 11L 101.615 0.35ZM 105.819 0.35L 103.869 0.35L 103.869 11L 105.819 11L 105.819 0.35ZM 113.158 8.735C 112.813 9.11 112.153 9.575 111.328 9.575C 110.293 9.575 109.468 8.87 109.363 7.85L 114.403 7.85C 114.433 7.685 114.448 7.49 114.448 7.295C 114.448 5.27 113.023 3.575 111.013 3.575C 108.853 3.575 107.473 5.345 107.473 7.37C 107.473 9.65 109.108 11.15 111.283 11.15C 112.408 11.15 113.563 10.685 114.268 9.845L 113.158 8.735ZM 109.453 6.425C 109.543 5.765 110.203 5.15 111.013 5.15C 111.808 5.15 112.393 5.78 112.453 6.425L 109.453 6.425ZM 121.276 9.35C 121.141 9.38 120.766 9.425 120.481 9.425C 120.001 9.425 119.686 9.29 119.491 9.065C 119.326 8.87 119.251 8.6 119.251 8.15L 119.251 5.375L 121.651 5.375L 121.651 3.725L 119.251 3.725L 119.251 1.7L 117.301 1.7L 117.301 3.725L 115.276 3.725L 115.276 5.375L 117.301 5.375L 117.301 7.925C 117.301 8.96 117.466 9.605 117.841 10.1C 118.336 10.76 119.191 11.15 120.361 11.15C 120.736 11.15 121.321 11.09 121.576 11L 121.276 9.35Z"/>
<path id="path10_fill" d="M 2.115 11L 3.105 8.675L 7.32 8.675L 8.31 11L 10.425 11L 5.925 0.5L 4.5 0.5L 0 11L 2.115 11ZM 5.205 3.77L 6.54 6.875L 3.87 6.875L 5.205 3.77ZM 16.5797 8.45C 16.2047 8.99 15.5597 9.35 14.8247 9.35C 13.7297 9.35 12.9047 8.51 12.9047 7.37C 12.9047 6.32 13.6397 5.375 14.7797 5.375C 15.5297 5.375 16.1747 5.735 16.5797 6.275L 16.5797 8.45ZM 18.5297 11L 18.5297 0.35L 16.5797 0.35L 16.5797 4.25C 16.0097 3.8 15.3197 3.575 14.5247 3.575C 12.5447 3.575 10.9547 5.225 10.9547 7.37C 10.9547 8.36 11.3147 9.26 11.8847 9.92C 12.5297 10.67 13.5497 11.15 14.6297 11.15C 15.3647 11.15 16.0547 10.925 16.6547 10.415L 16.6547 11L 18.5297 11ZM 21.8332 3.725L 19.8082 3.725L 23.1532 11L 24.5032 11L 27.8482 3.725L 25.8232 3.725L 23.8282 8.165L 21.8332 3.725ZM 34.1432 8.45C 33.7682 8.99 33.1232 9.35 32.3882 9.35C 31.2932 9.35 30.4682 8.51 30.4682 7.37C 30.4682 6.32 31.2032 5.375 32.3432 5.375C 33.0932 5.375 33.7382 5.735 34.1432 6.275L 34.1432 8.45ZM 36.0932 3.725L 34.2182 3.725L 34.2182 4.31C 33.6482 3.845 32.9132 3.575 32.0882 3.575C 30.1082 3.575 28.5182 5.225 28.5182 7.37C 28.5182 8.36 28.8782 9.26 29.4482 9.92C 30.0932 10.67 31.1132 11.15 32.1932 11.15C 32.9282 11.15 33.6182 10.925 34.2182 10.415L 34.2182 11L 36.0932 11L 36.0932 3.725ZM 40.2967 11L 40.2967 6.275C 40.5667 5.9 41.2417 5.375 42.0667 5.375C 42.5167 5.375 42.9067 5.525 43.1617 5.78C 43.4317 6.05 43.5967 6.425 43.5967 7.145L 43.5967 11L 45.5467 11L 45.5467 7.295C 45.5467 6.05 45.2767 5.315 44.7967 4.745C 44.1967 4.025 43.2817 3.575 42.2767 3.575C 41.4667 3.575 40.7767 3.86 40.2217 4.31L 40.2217 3.725L 38.3467 3.725L 38.3467 11L 40.2967 11ZM 52.7484 8.39C 52.4334 8.87 51.8034 9.35 51.0084 9.35C 49.8234 9.35 48.9984 8.51 48.9984 7.37C 48.9984 6.26 49.8384 5.375 50.9634 5.375C 51.6684 5.375 52.2534 5.735 52.6434 6.245L 54.0234 5.03C 53.3484 4.16 52.2234 3.575 50.9634 3.575C 48.7434 3.575 47.0484 5.255 47.0484 7.37C 47.0484 9.47 48.6984 11.15 50.9484 11.15C 52.3134 11.15 53.3934 10.655 54.2484 9.515L 52.7484 8.39ZM 60.834 8.735C 60.489 9.11 59.829 9.575 59.004 9.575C 57.969 9.575 57.144 8.87 57.039 7.85L 62.079 7.85C 62.109 7.685 62.124 7.49 62.124 7.295C 62.124 5.27 60.699 3.575 58.689 3.575C 56.529 3.575 55.149 5.345 55.149 7.37C 55.149 9.65 56.784 11.15 58.959 11.15C 60.084 11.15 61.239 10.685 61.944 9.845L 60.834 8.735ZM 57.129 6.425C 57.219 5.765 57.879 5.15 58.689 5.15C 59.484 5.15 60.069 5.78 60.129 6.425L 57.129 6.425ZM 68.8014 8.45C 68.4264 8.99 67.7814 9.35 67.0464 9.35C 65.9514 9.35 65.1264 8.51 65.1264 7.37C 65.1264 6.32 65.8614 5.375 67.0014 5.375C 67.7514 5.375 68.3964 5.735 68.8014 6.275L 68.8014 8.45ZM 70.7514 11L 70.7514 0.35L 68.8014 0.35L 68.8014 4.25C 68.2314 3.8 67.5414 3.575 66.7464 3.575C 64.7664 3.575 63.1764 5.225 63.1764 7.37C 63.1764 8.36 63.5364 9.26 64.1064 9.92C 64.7514 10.67 65.7714 11.15 66.8514 11.15C 67.5864 11.15 68.2764 10.925 68.8764 10.415L 68.8764 11L 70.7514 11ZM 76.0729 9.575C 77.1529 10.565 78.4579 11.15 79.8679 11.15C 81.7579 11.15 83.4229 9.86 83.4229 8C 83.4229 4.46 78.5779 4.985 78.5779 3.29C 78.5779 2.48 79.4329 2.15 80.1979 2.15C 80.8879 2.15 81.5929 2.45 82.0129 2.84L 83.0629 1.34C 82.0729 0.605 81.0829 0.35 80.0179 0.35C 78.2779 0.35 76.5529 1.43 76.5529 3.305C 76.5529 4.49 77.2129 5.21 78.0379 5.69C 79.4479 6.515 81.3979 6.68 81.3979 8.03C 81.3979 8.795 80.7679 9.35 79.8679 9.35C 78.9079 9.35 77.9929 8.855 77.3929 8.195L 76.0729 9.575ZM 85.0752 14.6L 87.0252 14.6L 87.0252 10.49C 87.6102 10.94 88.2402 11.15 88.9752 11.15C 90.0552 11.15 91.0902 10.67 91.7352 9.92C 92.3052 9.26 92.6502 8.36 92.6502 7.37C 92.6502 5.225 91.0602 3.575 89.0802 3.575C 88.2552 3.575 87.5202 3.845 86.9502 4.31L 86.9502 3.725L 85.0752 3.725L 85.0752 14.6ZM 87.0252 6.275C 87.4302 5.735 88.0752 5.375 88.8252 5.375C 89.9652 5.375 90.7002 6.32 90.7002 7.37C 90.7002 8.51 89.8752 9.35 88.7802 9.35C 88.0452 9.35 87.4002 8.99 87.0252 8.45L 87.0252 6.275ZM 99.3887 8.735C 99.0437 9.11 98.3837 9.575 97.5587 9.575C 96.5237 9.575 95.6987 8.87 95.5937 7.85L 100.634 7.85C 100.664 7.685 100.679 7.49 100.679 7.295C 100.679 5.27 99.2537 3.575 97.2437 3.575C 95.0837 3.575 93.7037 5.345 93.7037 7.37C 93.7037 9.65 95.3387 11.15 97.5137 11.15C 98.6387 11.15 99.7937 10.685 100.499 9.845L 99.3887 8.735ZM 95.6837 6.425C 95.7737 5.765 96.4337 5.15 97.2437 5.15C 98.0387 5.15 98.6237 5.78 98.6837 6.425L 95.6837 6.425ZM 104.281 11L 104.281 6.275C 104.551 5.9 105.226 5.375 106.051 5.375C 106.501 5.375 106.891 5.525 107.146 5.78C 107.416 6.05 107.581 6.425 107.581 7.145L 107.581 11L 109.531 11L 109.531 7.295C 109.531 6.05 109.261 5.315 108.781 4.745C 108.181 4.025 107.266 3.575 106.261 3.575C 105.451 3.575 104.761 3.86 104.206 4.31L 104.206 3.725L 102.331 3.725L 102.331 11L 104.281 11ZM 116.658 8.45C 116.283 8.99 115.638 9.35 114.903 9.35C 113.808 9.35 112.983 8.51 112.983 7.37C 112.983 6.32 113.718 5.375 114.858 5.375C 115.608 5.375 116.253 5.735 116.658 6.275L 116.658 8.45ZM 118.608 11L 118.608 0.35L 116.658 0.35L 116.658 4.25C 116.088 3.8 115.398 3.575 114.603 3.575C 112.623 3.575 111.033 5.225 111.033 7.37C 111.033 8.36 111.393 9.26 111.963 9.92C 112.608 10.67 113.628 11.15 114.708 11.15C 115.443 11.15 116.133 10.925 116.733 10.415L 116.733 11L 118.608 11ZM 124.979 0.5L 124.979 11L 129.074 11C 130.424 11 131.234 10.64 131.819 10.055C 132.404 9.485 132.779 8.675 132.779 7.79C 132.779 6.62 132.134 5.57 131.204 5.105C 131.549 4.745 131.879 4.04 131.879 3.35C 131.879 2.495 131.489 1.745 130.904 1.235C 130.394 0.785 129.734 0.5 128.549 0.5L 124.979 0.5ZM 127.004 2.3L 128.429 2.3C 129.059 2.3 129.344 2.45 129.554 2.675C 129.734 2.87 129.854 3.14 129.854 3.425C 129.854 3.71 129.734 3.98 129.554 4.175C 129.344 4.4 129.059 4.55 128.429 4.55L 127.004 4.55L 127.004 2.3ZM 127.004 9.2L 127.004 6.35L 129.029 6.35C 129.734 6.35 130.124 6.53 130.379 6.815C 130.619 7.07 130.754 7.4 130.754 7.775C 130.754 8.15 130.619 8.48 130.379 8.735C 130.124 9.02 129.734 9.2 129.029 9.2L 127.004 9.2ZM 139.229 3.725L 139.229 8.45C 138.959 8.795 138.359 9.35 137.534 9.35C 137.159 9.35 136.739 9.23 136.439 8.9C 136.214 8.645 136.079 8.315 136.079 7.655L 136.079 3.725L 134.129 3.725L 134.129 7.58C 134.129 8.66 134.399 9.41 134.864 9.98C 135.434 10.685 136.334 11.15 137.339 11.15C 138.044 11.15 138.734 10.925 139.304 10.415L 139.304 11L 141.179 11L 141.179 3.725L 139.229 3.725ZM 145.385 3.725L 143.435 3.725L 143.435 11L 145.385 11L 145.385 3.725ZM 143.135 1.145C 143.135 1.85 143.705 2.39 144.41 2.39C 145.115 2.39 145.685 1.85 145.685 1.145C 145.685 0.44 145.115 -0.1 144.41 -0.1C 143.705 -0.1 143.135 0.44 143.135 1.145ZM 149.589 0.35L 147.639 0.35L 147.639 11L 149.589 11L 149.589 0.35ZM 156.868 8.45C 156.493 8.99 155.848 9.35 155.113 9.35C 154.018 9.35 153.193 8.51 153.193 7.37C 153.193 6.32 153.928 5.375 155.068 5.375C 155.818 5.375 156.463 5.735 156.868 6.275L 156.868 8.45ZM 158.818 11L 158.818 0.35L 156.868 0.35L 156.868 4.25C 156.298 3.8 155.608 3.575 154.813 3.575C 152.833 3.575 151.243 5.225 151.243 7.37C 151.243 8.36 151.603 9.26 152.173 9.92C 152.818 10.67 153.838 11.15 154.918 11.15C 155.653 11.15 156.343 10.925 156.943 10.415L 156.943 11L 158.818 11ZM 166.156 8.735C 165.811 9.11 165.151 9.575 164.326 9.575C 163.291 9.575 162.466 8.87 162.361 7.85L 167.401 7.85C 167.431 7.685 167.446 7.49 167.446 7.295C 167.446 5.27 166.021 3.575 164.011 3.575C 161.851 3.575 160.471 5.345 160.471 7.37C 160.471 9.65 162.106 11.15 164.281 11.15C 165.406 11.15 166.561 10.685 167.266 9.845L 166.156 8.735ZM 162.451 6.425C 162.541 5.765 163.201 5.15 164.011 5.15C 164.806 5.15 165.391 5.78 165.451 6.425L 162.451 6.425ZM 173.749 3.635C 173.539 3.605 173.374 3.575 173.089 3.575C 172.204 3.575 171.409 3.92 170.974 4.46L 170.974 3.725L 169.099 3.725L 169.099 11L 171.049 11L 171.049 6.425C 171.289 5.99 171.964 5.375 172.819 5.375C 173.104 5.375 173.389 5.405 173.524 5.45L 173.749 3.635Z"/>
<path id="path11_fill" d="M 0.15 9.575C 1.23 10.565 2.535 11.15 3.945 11.15C 5.835 11.15 7.5 9.86 7.5 8C 7.5 4.46 2.655 4.985 2.655 3.29C 2.655 2.48 3.51 2.15 4.275 2.15C 4.965 2.15 5.67 2.45 6.09 2.84L 7.14 1.34C 6.15 0.605 5.16 0.35 4.095 0.35C 2.355 0.35 0.63 1.43 0.63 3.305C 0.63 4.49 1.29 5.21 2.115 5.69C 3.525 6.515 5.475 6.68 5.475 8.03C 5.475 8.795 4.845 9.35 3.945 9.35C 2.985 9.35 2.07 8.855 1.47 8.195L 0.15 9.575ZM 16.3523 3.725L 13.6073 3.725L 11.1023 6.08L 11.1023 0.35L 9.15234 0.35L 9.15234 11L 11.1023 11L 11.1023 7.85L 14.1773 11L 16.8023 11L 12.7973 6.995L 16.3523 3.725ZM 20.3832 14.6L 25.3932 3.725L 23.3382 3.725L 21.3732 8.09L 19.2432 3.725L 17.0982 3.725L 20.3532 10.265L 18.3432 14.6L 20.3832 14.6ZM 37.0898 2.3L 37.0898 0.5L 30.7898 0.5L 30.7898 11L 37.2398 11L 37.2398 9.2L 32.8148 9.2L 32.8148 6.275L 36.0398 6.275L 36.0398 4.475L 32.8148 4.475L 32.8148 2.3L 37.0898 2.3ZM 40.4919 3.725L 38.2569 3.725L 40.7019 7.115L 37.9119 11L 40.2219 11L 41.9319 8.54L 43.6419 11L 45.9519 11L 43.1619 7.115L 45.6069 3.725L 43.3719 3.725L 41.9319 5.795L 40.4919 3.725ZM 52.2504 8.39C 51.9354 8.87 51.3054 9.35 50.5104 9.35C 49.3254 9.35 48.5004 8.51 48.5004 7.37C 48.5004 6.26 49.3404 5.375 50.4654 5.375C 51.1704 5.375 51.7554 5.735 52.1454 6.245L 53.5254 5.03C 52.8504 4.16 51.7254 3.575 50.4654 3.575C 48.2454 3.575 46.5504 5.255 46.5504 7.37C 46.5504 9.47 48.2004 11.15 50.4504 11.15C 51.8154 11.15 52.8954 10.655 53.7504 9.515L 52.2504 8.39ZM 57.201 6.275C 57.471 5.9 58.146 5.375 58.971 5.375C 59.421 5.375 59.811 5.525 60.066 5.78C 60.336 6.05 60.501 6.425 60.501 7.145L 60.501 11L 62.451 11L 62.451 7.295C 62.451 6.05 62.181 5.315 61.701 4.745C 61.101 4.025 60.186 3.575 59.181 3.575C 58.431 3.575 57.741 3.83 57.201 4.25L 57.201 0.35L 55.251 0.35L 55.251 11L 57.201 11L 57.201 6.275ZM 69.5777 8.45C 69.2027 8.99 68.5577 9.35 67.8227 9.35C 66.7277 9.35 65.9027 8.51 65.9027 7.37C 65.9027 6.32 66.6377 5.375 67.7777 5.375C 68.5277 5.375 69.1727 5.735 69.5777 6.275L 69.5777 8.45ZM 71.5277 3.725L 69.6527 3.725L 69.6527 4.31C 69.0827 3.845 68.3477 3.575 67.5227 3.575C 65.5427 3.575 63.9527 5.225 63.9527 7.37C 63.9527 8.36 64.3127 9.26 64.8827 9.92C 65.5277 10.67 66.5477 11.15 67.6277 11.15C 68.3627 11.15 69.0527 10.925 69.6527 10.415L 69.6527 11L 71.5277 11L 71.5277 3.725ZM 75.7312 11L 75.7312 6.275C 76.0013 5.9 76.6763 5.375 77.5013 5.375C 77.9512 5.375 78.3413 5.525 78.5962 5.78C 78.8663 6.05 79.0313 6.425 79.0313 7.145L 79.0313 11L 80.9813 11L 80.9813 7.295C 80.9813 6.05 80.7113 5.315 80.2312 4.745C 79.6313 4.025 78.7163 3.575 77.7113 3.575C 76.9012 3.575 76.2113 3.86 75.6563 4.31L 75.6563 3.725L 73.7813 3.725L 73.7813 11L 75.7312 11ZM 90.058 3.725L 88.183 3.725L 88.183 4.31C 87.613 3.845 86.878 3.575 86.053 3.575C 84.073 3.575 82.483 5.225 82.483 7.37C 82.483 8.36 82.828 9.26 83.398 9.92C 84.043 10.67 85.078 11.15 86.158 11.15C 86.893 11.15 87.523 10.94 88.108 10.49L 88.108 10.73C 88.108 11.66 87.958 12.11 87.658 12.44C 87.328 12.83 86.803 13.025 86.173 13.025C 84.973 13.025 84.298 12.395 83.908 11.975L 82.678 13.25C 83.398 14.09 84.748 14.75 86.173 14.75C 87.568 14.75 88.738 14.21 89.398 13.295C 89.833 12.68 90.058 11.9 90.058 10.595L 90.058 3.725ZM 88.108 8.45C 87.733 8.99 87.088 9.35 86.353 9.35C 85.258 9.35 84.433 8.51 84.433 7.37C 84.433 6.32 85.168 5.375 86.308 5.375C 87.058 5.375 87.703 5.735 88.108 6.275L 88.108 8.45ZM 97.3965 8.735C 97.0515 9.11 96.3915 9.575 95.5665 9.575C 94.5315 9.575 93.7065 8.87 93.6015 7.85L 98.6415 7.85C 98.6715 7.685 98.6865 7.49 98.6865 7.295C 98.6865 5.27 97.2615 3.575 95.2515 3.575C 93.0915 3.575 91.7115 5.345 91.7115 7.37C 91.7115 9.65 93.3465 11.15 95.5215 11.15C 96.6465 11.15 97.8015 10.685 98.5065 9.845L 97.3965 8.735ZM 93.6915 6.425C 93.7815 5.765 94.4415 5.15 95.2515 5.15C 96.0465 5.15 96.6315 5.78 96.6915 6.425L 93.6915 6.425Z"/>
<path id="path12_fill" d="M 0.15 9.575C 1.23 10.565 2.535 11.15 3.945 11.15C 5.835 11.15 7.5 9.86 7.5 8C 7.5 4.46 2.655 4.985 2.655 3.29C 2.655 2.48 3.51 2.15 4.275 2.15C 4.965 2.15 5.67 2.45 6.09 2.84L 7.14 1.34C 6.15 0.605 5.16 0.35 4.095 0.35C 2.355 0.35 0.63 1.43 0.63 3.305C 0.63 4.49 1.29 5.21 2.115 5.69C 3.525 6.515 5.475 6.68 5.475 8.03C 5.475 8.795 4.845 9.35 3.945 9.35C 2.985 9.35 2.07 8.855 1.47 8.195L 0.15 9.575ZM 16.2023 5.75C 16.2023 6.62 15.9173 7.43 15.4373 8.03C 14.8523 8.765 13.9973 9.2 12.7523 9.2L 11.2523 9.2L 11.2523 2.3L 12.7523 2.3C 13.9973 2.3 14.8523 2.735 15.4373 3.47C 15.9173 4.07 16.2023 4.88 16.2023 5.75ZM 9.22734 0.5L 9.22734 11L 12.5273 11C 14.1923 11 15.2873 10.64 16.1423 10.01C 17.4323 9.05 18.2273 7.49 18.2273 5.75C 18.2273 4.01 17.4323 2.45 16.1423 1.49C 15.2873 0.86 14.1923 0.5 12.5273 0.5L 9.22734 0.5ZM 19.8768 11L 21.9018 11L 21.9018 4.16L 27.7518 11L 29.1768 11L 29.1768 0.5L 27.1518 0.5L 27.1518 7.34L 21.3018 0.5L 19.8768 0.5L 19.8768 11Z"/>
<path id="path13_fill" d="M 1.2 0.5L 1.2 11L 5.295 11C 6.645 11 7.455 10.64 8.04 10.055C 8.625 9.485 9 8.675 9 7.79C 9 6.62 8.355 5.57 7.425 5.105C 7.77 4.745 8.1 4.04 8.1 3.35C 8.1 2.495 7.71 1.745 7.125 1.235C 6.615 0.785 5.955 0.5 4.77 0.5L 1.2 0.5ZM 3.225 2.3L 4.65 2.3C 5.28 2.3 5.565 2.45 5.775 2.675C 5.955 2.87 6.075 3.14 6.075 3.425C 6.075 3.71 5.955 3.98 5.775 4.175C 5.565 4.4 5.28 4.55 4.65 4.55L 3.225 4.55L 3.225 2.3ZM 3.225 9.2L 3.225 6.35L 5.25 6.35C 5.955 6.35 6.345 6.53 6.6 6.815C 6.84 7.07 6.975 7.4 6.975 7.775C 6.975 8.15 6.84 8.48 6.6 8.735C 6.345 9.02 5.955 9.2 5.25 9.2L 3.225 9.2ZM 10.575 0.5L 10.575 11L 14.67 11C 16.02 11 16.83 10.64 17.415 10.055C 18 9.485 18.375 8.675 18.375 7.79C 18.375 6.62 17.73 5.57 16.8 5.105C 17.145 4.745 17.475 4.04 17.475 3.35C 17.475 2.495 17.085 1.745 16.5 1.235C 15.99 0.785 15.33 0.5 14.145 0.5L 10.575 0.5ZM 12.6 2.3L 14.025 2.3C 14.655 2.3 14.94 2.45 15.15 2.675C 15.33 2.87 15.45 3.14 15.45 3.425C 15.45 3.71 15.33 3.98 15.15 4.175C 14.94 4.4 14.655 4.55 14.025 4.55L 12.6 4.55L 12.6 2.3ZM 12.6 9.2L 12.6 6.35L 14.625 6.35C 15.33 6.35 15.72 6.53 15.975 6.815C 16.215 7.07 16.35 7.4 16.35 7.775C 16.35 8.15 16.215 8.48 15.975 8.735C 15.72 9.02 15.33 9.2 14.625 9.2L 12.6 9.2ZM 18.9 9.575C 19.98 10.565 21.285 11.15 22.695 11.15C 24.585 11.15 26.25 9.86 26.25 8C 26.25 4.46 21.405 4.985 21.405 3.29C 21.405 2.48 22.26 2.15 23.025 2.15C 23.715 2.15 24.42 2.45 24.84 2.84L 25.89 1.34C 24.9 0.605 23.91 0.35 22.845 0.35C 21.105 0.35 19.38 1.43 19.38 3.305C 19.38 4.49 20.04 5.21 20.865 5.69C 22.275 6.515 24.225 6.68 24.225 8.03C 24.225 8.795 23.595 9.35 22.695 9.35C 21.735 9.35 20.82 8.855 20.22 8.195L 18.9 9.575Z"/>
<path id="path14_fill" d="M 5.97 2.15C 7.005 2.15 7.89 2.6 8.52 3.23L 9.825 1.85C 8.88 0.935 7.545 0.35 5.985 0.35C 2.715 0.35 0.45 2.735 0.45 5.75C 0.45 8.765 2.745 11.15 6.015 11.15C 7.935 11.15 9.495 10.325 10.425 9.14L 9.03 7.895C 8.415 8.69 7.425 9.35 6.06 9.35C 4.035 9.35 2.475 7.79 2.475 5.75C 2.475 3.755 3.975 2.15 5.97 2.15ZM 11.2477 7.37C 11.2477 9.47 12.9127 11.15 15.1177 11.15C 17.3227 11.15 18.9877 9.47 18.9877 7.37C 18.9877 5.27 17.3227 3.575 15.1177 3.575C 12.9127 3.575 11.2477 5.27 11.2477 7.37ZM 13.1977 7.37C 13.1977 6.275 13.9777 5.375 15.1177 5.375C 16.2577 5.375 17.0377 6.275 17.0377 7.37C 17.0377 8.465 16.2577 9.35 15.1177 9.35C 13.9777 9.35 13.1977 8.465 13.1977 7.37ZM 22.5867 3.725L 20.6367 3.725L 20.6367 11L 22.5867 11L 22.5867 3.725ZM 20.3367 1.145C 20.3367 1.85 20.9067 2.39 21.6117 2.39C 22.3167 2.39 22.8867 1.85 22.8867 1.145C 22.8867 0.44 22.3167 -0.1 21.6117 -0.1C 20.9067 -0.1 20.3367 0.44 20.3367 1.145ZM 26.7908 11L 26.7908 6.275C 27.0608 5.9 27.7358 5.375 28.5608 5.375C 29.0108 5.375 29.4008 5.525 29.6558 5.78C 29.9258 6.05 30.0908 6.425 30.0908 7.145L 30.0908 11L 32.0408 11L 32.0408 7.295C 32.0408 6.05 31.7708 5.315 31.2908 4.745C 30.6908 4.025 29.7758 3.575 28.7708 3.575C 27.9608 3.575 27.2708 3.86 26.7158 4.31L 26.7158 3.725L 24.8408 3.725L 24.8408 11L 26.7908 11ZM 32.7176 14.645C 32.9276 14.69 33.3026 14.75 33.6926 14.75C 34.9526 14.75 35.7176 14.3 36.1676 13.67C 36.5426 13.13 36.6926 12.47 36.6926 11.375L 36.6926 3.725L 34.7426 3.725L 34.7426 11.375C 34.7426 12.095 34.6526 12.41 34.4576 12.62C 34.2476 12.845 33.9326 12.95 33.5276 12.95C 33.4226 12.95 33.1526 12.92 33.0176 12.875L 32.7176 14.645ZM 34.4426 1.145C 34.4426 1.85 35.0126 2.39 35.7176 2.39C 36.4226 2.39 36.9926 1.85 36.9926 1.145C 36.9926 0.44 36.4226 -0.1 35.7176 -0.1C 35.0126 -0.1 34.4426 0.44 34.4426 1.145ZM 38.3473 7.37C 38.3473 9.47 40.0123 11.15 42.2173 11.15C 44.4223 11.15 46.0873 9.47 46.0873 7.37C 46.0873 5.27 44.4223 3.575 42.2173 3.575C 40.0123 3.575 38.3473 5.27 38.3473 7.37ZM 40.2973 7.37C 40.2973 6.275 41.0773 5.375 42.2173 5.375C 43.3573 5.375 44.1373 6.275 44.1373 7.37C 44.1373 8.465 43.3573 9.35 42.2173 9.35C 41.0773 9.35 40.2973 8.465 40.2973 7.37ZM 49.6863 3.725L 47.7363 3.725L 47.7363 11L 49.6863 11L 49.6863 3.725ZM 47.4363 1.145C 47.4363 1.85 48.0063 2.39 48.7113 2.39C 49.4163 2.39 49.9863 1.85 49.9863 1.145C 49.9863 0.44 49.4163 -0.1 48.7113 -0.1C 48.0063 -0.1 47.4363 0.44 47.4363 1.145ZM 53.8904 11L 53.8904 6.275C 54.1604 5.9 54.8354 5.375 55.6604 5.375C 56.1104 5.375 56.5004 5.525 56.7554 5.78C 57.0254 6.05 57.1904 6.425 57.1904 7.145L 57.1904 11L 59.1404 11L 59.1404 7.295C 59.1404 6.05 58.8704 5.315 58.3904 4.745C 57.7904 4.025 56.8754 3.575 55.8704 3.575C 55.0604 3.575 54.3704 3.86 53.8154 4.31L 53.8154 3.725L 51.9404 3.725L 51.9404 11L 53.8904 11Z"/>
<path id="path15_fill" d="M 3.63 11L 5.055 11L 7.38 4.355L 9.72 11L 11.145 11L 14.625 0.5L 12.585 0.5L 10.41 7.055L 8.1 0.5L 6.675 0.5L 4.365 7.055L 2.19 0.5L 0.15 0.5L 3.63 11ZM 20.9903 8.735C 20.6453 9.11 19.9853 9.575 19.1603 9.575C 18.1253 9.575 17.3003 8.87 17.1953 7.85L 22.2353 7.85C 22.2653 7.685 22.2803 7.49 22.2803 7.295C 22.2803 5.27 20.8553 3.575 18.8453 3.575C 16.6853 3.575 15.3053 5.345 15.3053 7.37C 15.3053 9.65 16.9403 11.15 19.1153 11.15C 20.2403 11.15 21.3953 10.685 22.1003 9.845L 20.9903 8.735ZM 17.2853 6.425C 17.3753 5.765 18.0353 5.15 18.8453 5.15C 19.6403 5.15 20.2253 5.78 20.2853 6.425L 17.2853 6.425ZM 25.8826 6.275C 26.2876 5.735 26.9326 5.375 27.6826 5.375C 28.8226 5.375 29.5576 6.32 29.5576 7.37C 29.5576 8.51 28.7326 9.35 27.6376 9.35C 26.9026 9.35 26.2576 8.99 25.8826 8.45L 25.8826 6.275ZM 25.8076 11L 25.8076 10.415C 26.4076 10.925 27.0976 11.15 27.8326 11.15C 28.9126 11.15 29.9326 10.67 30.5776 9.92C 31.1476 9.26 31.5076 8.36 31.5076 7.37C 31.5076 5.225 29.9176 3.575 27.9376 3.575C 27.1426 3.575 26.4526 3.8 25.8826 4.25L 25.8826 0.35L 23.9326 0.35L 23.9326 11L 25.8076 11ZM 39.7091 11L 41.1341 11L 43.4591 4.355L 45.7991 11L 47.2241 11L 50.7041 0.5L 48.6641 0.5L 46.4891 7.055L 44.1791 0.5L 42.7541 0.5L 40.4441 7.055L 38.2691 0.5L 36.2291 0.5L 39.7091 11ZM 57.0094 8.45C 56.6344 8.99 55.9894 9.35 55.2544 9.35C 54.1594 9.35 53.3344 8.51 53.3344 7.37C 53.3344 6.32 54.0694 5.375 55.2094 5.375C 55.9594 5.375 56.6044 5.735 57.0094 6.275L 57.0094 8.45ZM 58.9594 3.725L 57.0844 3.725L 57.0844 4.31C 56.5144 3.845 55.7794 3.575 54.9544 3.575C 52.9744 3.575 51.3844 5.225 51.3844 7.37C 51.3844 8.36 51.7444 9.26 52.3144 9.92C 52.9594 10.67 53.9794 11.15 55.0594 11.15C 55.7944 11.15 56.4844 10.925 57.0844 10.415L 57.0844 11L 58.9594 11L 58.9594 3.725ZM 63.1629 0.35L 61.2129 0.35L 61.2129 11L 63.1629 11L 63.1629 0.35ZM 67.367 0.35L 65.417 0.35L 65.417 11L 67.367 11L 67.367 0.35ZM 74.7061 8.735C 74.3611 9.11 73.7011 9.575 72.8761 9.575C 71.8411 9.575 71.0161 8.87 70.9111 7.85L 75.9511 7.85C 75.9811 7.685 75.9961 7.49 75.9961 7.295C 75.9961 5.27 74.5711 3.575 72.5611 3.575C 70.4011 3.575 69.0211 5.345 69.0211 7.37C 69.0211 9.65 70.6561 11.15 72.8311 11.15C 73.9561 11.15 75.1111 10.685 75.8161 9.845L 74.7061 8.735ZM 71.0011 6.425C 71.0911 5.765 71.7511 5.15 72.5611 5.15C 73.3561 5.15 73.9411 5.78 74.0011 6.425L 71.0011 6.425ZM 82.8234 9.35C 82.6884 9.38 82.3134 9.425 82.0284 9.425C 81.5484 9.425 81.2334 9.29 81.0384 9.065C 80.8734 8.87 80.7984 8.6 80.7984 8.15L 80.7984 5.375L 83.1984 5.375L 83.1984 3.725L 80.7984 3.725L 80.7984 1.7L 78.8484 1.7L 78.8484 3.725L 76.8234 3.725L 76.8234 5.375L 78.8484 5.375L 78.8484 7.925C 78.8484 8.96 79.0134 9.605 79.3884 10.1C 79.8834 10.76 80.7384 11.15 81.9084 11.15C 82.2834 11.15 82.8684 11.09 83.1234 11L 82.8234 9.35Z"/>
<path id="path16_fill" d="M 8.175 5.75C 8.175 6.62 7.89 7.43 7.41 8.03C 6.825 8.765 5.97 9.2 4.725 9.2L 3.225 9.2L 3.225 2.3L 4.725 2.3C 5.97 2.3 6.825 2.735 7.41 3.47C 7.89 4.07 8.175 4.88 8.175 5.75ZM 1.2 0.5L 1.2 11L 4.5 11C 6.165 11 7.26 10.64 8.115 10.01C 9.405 9.05 10.2 7.49 10.2 5.75C 10.2 4.01 9.405 2.45 8.115 1.49C 7.26 0.86 6.165 0.5 4.5 0.5L 1.2 0.5ZM 16.8594 8.735C 16.5144 9.11 15.8544 9.575 15.0294 9.575C 13.9944 9.575 13.1694 8.87 13.0644 7.85L 18.1044 7.85C 18.1344 7.685 18.1494 7.49 18.1494 7.295C 18.1494 5.27 16.7244 3.575 14.7144 3.575C 12.5544 3.575 11.1744 5.345 11.1744 7.37C 11.1744 9.65 12.8094 11.15 14.9844 11.15C 16.1094 11.15 17.2644 10.685 17.9694 9.845L 16.8594 8.735ZM 13.1544 6.425C 13.2444 5.765 13.9044 5.15 14.7144 5.15C 15.5094 5.15 16.0944 5.78 16.1544 6.425L 13.1544 6.425ZM 19.0818 10.175C 19.9368 10.805 21.0018 11.15 22.0068 11.15C 23.5368 11.15 24.9018 10.295 24.9018 8.9C 24.9018 6.38 21.3768 6.755 21.3768 5.81C 21.3768 5.435 21.8268 5.225 22.3668 5.225C 22.8918 5.225 23.3868 5.45 23.7618 5.72L 24.6768 4.31C 24.1968 3.935 23.1618 3.575 22.2168 3.575C 20.7768 3.575 19.4268 4.445 19.4268 5.84C 19.4268 8.18 22.9518 7.79 22.9518 8.885C 22.9518 9.245 22.5468 9.5 22.0218 9.5C 21.2868 9.5 20.5218 9.23 20.0268 8.78L 19.0818 10.175ZM 33.9012 3.725L 31.1562 3.725L 28.6512 6.08L 28.6512 0.35L 26.7012 0.35L 26.7012 11L 28.6512 11L 28.6512 7.85L 31.7262 11L 34.3512 11L 30.3462 6.995L 33.9012 3.725ZM 40.7971 9.35C 40.6621 9.38 40.2871 9.425 40.0021 9.425C 39.5221 9.425 39.2071 9.29 39.0121 9.065C 38.8471 8.87 38.7721 8.6 38.7721 8.15L 38.7721 5.375L 41.1721 5.375L 41.1721 3.725L 38.7721 3.725L 38.7721 1.7L 36.8221 1.7L 36.8221 3.725L 34.7971 3.725L 34.7971 5.375L 36.8221 5.375L 36.8221 7.925C 36.8221 8.96 36.9871 9.605 37.3621 10.1C 37.8571 10.76 38.7121 11.15 39.8821 11.15C 40.2571 11.15 40.8421 11.09 41.0971 11L 40.7971 9.35ZM 42.4488 7.37C 42.4488 9.47 44.1138 11.15 46.3188 11.15C 48.5238 11.15 50.1888 9.47 50.1888 7.37C 50.1888 5.27 48.5238 3.575 46.3188 3.575C 44.1138 3.575 42.4488 5.27 42.4488 7.37ZM 44.3988 7.37C 44.3988 6.275 45.1788 5.375 46.3188 5.375C 47.4588 5.375 48.2388 6.275 48.2388 7.37C 48.2388 8.465 47.4588 9.35 46.3188 9.35C 45.1788 9.35 44.3988 8.465 44.3988 7.37ZM 51.8379 14.6L 53.7879 14.6L 53.7879 10.49C 54.3729 10.94 55.0029 11.15 55.7379 11.15C 56.8179 11.15 57.8529 10.67 58.4979 9.92C 59.0679 9.26 59.4129 8.36 59.4129 7.37C 59.4129 5.225 57.8229 3.575 55.8429 3.575C 55.0179 3.575 54.2829 3.845 53.7129 4.31L 53.7129 3.725L 51.8379 3.725L 51.8379 14.6ZM 53.7879 6.275C 54.1929 5.735 54.8379 5.375 55.5879 5.375C 56.7279 5.375 57.4629 6.32 57.4629 7.37C 57.4629 8.51 56.6379 9.35 55.5429 9.35C 54.8079 9.35 54.1629 8.99 53.7879 8.45L 53.7879 6.275ZM 60.9914 6.275L 60.9914 7.925L 65.9414 7.925L 65.9414 6.275L 60.9914 6.275ZM 70.0623 0.35L 68.1123 0.35L 68.1123 11L 70.0623 11L 70.0623 0.35ZM 74.2664 3.725L 72.3164 3.725L 72.3164 11L 74.2664 11L 74.2664 3.725ZM 72.0164 1.145C 72.0164 1.85 72.5864 2.39 73.2914 2.39C 73.9964 2.39 74.5664 1.85 74.5664 1.145C 74.5664 0.44 73.9964 -0.1 73.2914 -0.1C 72.5864 -0.1 72.0164 0.44 72.0164 1.145ZM 81.6955 9.35C 81.5605 9.38 81.1855 9.425 80.9005 9.425C 80.4205 9.425 80.1055 9.29 79.9105 9.065C 79.7455 8.87 79.6705 8.6 79.6705 8.15L 79.6705 5.375L 82.0705 5.375L 82.0705 3.725L 79.6705 3.725L 79.6705 1.7L 77.7205 1.7L 77.7205 3.725L 75.6955 3.725L 75.6955 5.375L 77.7205 5.375L 77.7205 7.925C 77.7205 8.96 77.8855 9.605 78.2605 10.1C 78.7555 10.76 79.6105 11.15 80.7805 11.15C 81.1555 11.15 81.7405 11.09 81.9955 11L 81.6955 9.35ZM 89.0323 8.735C 88.6873 9.11 88.0273 9.575 87.2023 9.575C 86.1673 9.575 85.3423 8.87 85.2373 7.85L 90.2773 7.85C 90.3073 7.685 90.3223 7.49 90.3223 7.295C 90.3223 5.27 88.8973 3.575 86.8873 3.575C 84.7273 3.575 83.3473 5.345 83.3473 7.37C 83.3473 9.65 84.9823 11.15 87.1573 11.15C 88.2823 11.15 89.4373 10.685 90.1423 9.845L 89.0323 8.735ZM 85.3273 6.425C 85.4173 5.765 86.0773 5.15 86.8873 5.15C 87.6823 5.15 88.2673 5.78 88.3273 6.425L 85.3273 6.425ZM 98.5226 11L 99.9476 11L 102.273 4.355L 104.613 11L 106.038 11L 109.518 0.5L 107.478 0.5L 105.303 7.055L 102.993 0.5L 101.568 0.5L 99.2576 7.055L 97.0826 0.5L 95.0426 0.5L 98.5226 11ZM 115.823 8.45C 115.448 8.99 114.803 9.35 114.068 9.35C 112.973 9.35 112.148 8.51 112.148 7.37C 112.148 6.32 112.883 5.375 114.023 5.375C 114.773 5.375 115.418 5.735 115.823 6.275L 115.823 8.45ZM 117.773 3.725L 115.898 3.725L 115.898 4.31C 115.328 3.845 114.593 3.575 113.768 3.575C 111.788 3.575 110.198 5.225 110.198 7.37C 110.198 8.36 110.558 9.26 111.128 9.92C 111.773 10.67 112.793 11.15 113.873 11.15C 114.608 11.15 115.298 10.925 115.898 10.415L 115.898 11L 117.773 11L 117.773 3.725ZM 121.976 0.35L 120.026 0.35L 120.026 11L 121.976 11L 121.976 0.35ZM 126.18 0.35L 124.23 0.35L 124.23 11L 126.18 11L 126.18 0.35ZM 133.52 8.735C 133.175 9.11 132.515 9.575 131.69 9.575C 130.655 9.575 129.83 8.87 129.725 7.85L 134.765 7.85C 134.795 7.685 134.81 7.49 134.81 7.295C 134.81 5.27 133.385 3.575 131.375 3.575C 129.215 3.575 127.835 5.345 127.835 7.37C 127.835 9.65 129.47 11.15 131.645 11.15C 132.77 11.15 133.925 10.685 134.63 9.845L 133.52 8.735ZM 129.815 6.425C 129.905 5.765 130.565 5.15 131.375 5.15C 132.17 5.15 132.755 5.78 132.815 6.425L 129.815 6.425ZM 141.637 9.35C 141.502 9.38 141.127 9.425 140.842 9.425C 140.362 9.425 140.047 9.29 139.852 9.065C 139.687 8.87 139.612 8.6 139.612 8.15L 139.612 5.375L 142.012 5.375L 142.012 3.725L 139.612 3.725L 139.612 1.7L 137.662 1.7L 137.662 3.725L 135.637 3.725L 135.637 5.375L 137.662 5.375L 137.662 7.925C 137.662 8.96 137.827 9.605 138.202 10.1C 138.697 10.76 139.552 11.15 140.722 11.15C 141.097 11.15 141.682 11.09 141.937 11L 141.637 9.35Z"/>
<path id="path17_fill" d="M 2.197 2.357C 2.379 1.746 2.821 1.33 3.432 1.33C 4.121 1.33 4.615 1.915 4.615 2.552C 4.615 3.02 4.42 3.54 3.718 4.333L 0.52 7.96L 0.52 9L 6.435 9L 6.435 7.44L 3.263 7.44L 5.2 5.191C 5.811 4.489 6.37 3.683 6.37 2.578C 6.37 0.94 5.018 -0.23 3.458 -0.23C 2.119 -0.23 0.975 0.628 0.585 1.876L 2.197 2.357ZM 12.414 4.45C 12.414 6.166 12.037 7.57 10.984 7.57C 9.93098 7.57 9.55398 6.166 9.55398 4.45C 9.55398 2.734 9.93098 1.33 10.984 1.33C 12.037 1.33 12.414 2.734 12.414 4.45ZM 7.79898 4.45C 7.79898 7.037 8.65698 9.13 10.984 9.13C 13.311 9.13 14.169 7.037 14.169 4.45C 14.169 1.863 13.311 -0.23 10.984 -0.23C 8.65698 -0.23 7.79898 1.863 7.79898 4.45ZM 15.5939 2.864L 17.2839 1.928L 17.2839 9L 19.0389 9L 19.0389 -0.0999998L 17.8039 -0.0999998L 15.5939 1.2L 15.5939 2.864ZM 24.3014 3.215C 23.7554 3.215 23.3914 2.799 23.3914 2.279C 23.3914 1.759 23.7554 1.33 24.3014 1.33C 24.8474 1.33 25.2114 1.759 25.2114 2.279C 25.2114 2.799 24.8474 3.215 24.3014 3.215ZM 24.3014 7.57C 23.4434 7.57 22.8064 6.959 22.8064 6.179C 22.8064 5.399 23.4434 4.775 24.3014 4.775C 25.1594 4.775 25.7964 5.399 25.7964 6.179C 25.7964 6.959 25.1594 7.57 24.3014 7.57ZM 24.3014 9.13C 26.1214 9.13 27.5514 7.83 27.5514 6.179C 27.5514 5.113 26.9924 4.372 26.2384 3.878C 26.6284 3.527 26.9664 3.02 26.9664 2.279C 26.9664 0.888 25.8354 -0.23 24.3014 -0.23C 22.7674 -0.23 21.6364 0.888 21.6364 2.279C 21.6364 3.02 21.9744 3.527 22.3644 3.878C 21.6104 4.372 21.0514 5.113 21.0514 6.179C 21.0514 7.83 22.4814 9.13 24.3014 9.13ZM 32.0902 4.45C 32.0902 7.037 34.0272 9.13 36.8352 9.13C 37.8752 9.13 38.7852 8.844 39.5392 8.35L 40.1112 9L 42.1002 9L 40.6182 7.349C 41.2292 6.556 41.5802 5.542 41.5802 4.45C 41.5802 1.863 39.6432 -0.23 36.8352 -0.23C 34.0272 -0.23 32.0902 1.863 32.0902 4.45ZM 33.8452 4.45C 33.8452 2.734 35.1192 1.33 36.8352 1.33C 38.5512 1.33 39.8252 2.734 39.8252 4.45C 39.8252 5.022 39.6822 5.555 39.4352 6.01L 37.5632 3.904L 36.4582 4.866L 38.4342 7.102C 37.9792 7.401 37.4332 7.57 36.8352 7.57C 35.1192 7.57 33.8452 6.166 33.8452 4.45ZM 42.8127 2.864L 44.5027 1.928L 44.5027 9L 46.2577 9L 46.2577 -0.0999998L 45.0227 -0.0999998L 42.8127 1.2L 42.8127 2.864Z"/>
<path id="path18_fill" d="M 2.197 2.357C 2.379 1.746 2.821 1.33 3.432 1.33C 4.121 1.33 4.615 1.915 4.615 2.552C 4.615 3.02 4.42 3.54 3.718 4.333L 0.52 7.96L 0.52 9L 6.435 9L 6.435 7.44L 3.263 7.44L 5.2 5.191C 5.811 4.489 6.37 3.683 6.37 2.578C 6.37 0.94 5.018 -0.23 3.458 -0.23C 2.119 -0.23 0.975 0.628 0.585 1.876L 2.197 2.357ZM 12.414 4.45C 12.414 6.166 12.037 7.57 10.984 7.57C 9.93098 7.57 9.55398 6.166 9.55398 4.45C 9.55398 2.734 9.93098 1.33 10.984 1.33C 12.037 1.33 12.414 2.734 12.414 4.45ZM 7.79898 4.45C 7.79898 7.037 8.65698 9.13 10.984 9.13C 13.311 9.13 14.169 7.037 14.169 4.45C 14.169 1.863 13.311 -0.23 10.984 -0.23C 8.65698 -0.23 7.79898 1.863 7.79898 4.45ZM 15.5939 2.864L 17.2839 1.928L 17.2839 9L 19.0389 9L 19.0389 -0.0999998L 17.8039 -0.0999998L 15.5939 1.2L 15.5939 2.864ZM 24.3014 3.215C 23.7554 3.215 23.3914 2.799 23.3914 2.279C 23.3914 1.759 23.7554 1.33 24.3014 1.33C 24.8474 1.33 25.2114 1.759 25.2114 2.279C 25.2114 2.799 24.8474 3.215 24.3014 3.215ZM 24.3014 7.57C 23.4434 7.57 22.8064 6.959 22.8064 6.179C 22.8064 5.399 23.4434 4.775 24.3014 4.775C 25.1594 4.775 25.7964 5.399 25.7964 6.179C 25.7964 6.959 25.1594 7.57 24.3014 7.57ZM 24.3014 9.13C 26.1214 9.13 27.5514 7.83 27.5514 6.179C 27.5514 5.113 26.9924 4.372 26.2384 3.878C 26.6284 3.527 26.9664 3.02 26.9664 2.279C 26.9664 0.888 25.8354 -0.23 24.3014 -0.23C 22.7674 -0.23 21.6364 0.888 21.6364 2.279C 21.6364 3.02 21.9744 3.527 22.3644 3.878C 21.6104 4.372 21.0514 5.113 21.0514 6.179C 21.0514 7.83 22.4814 9.13 24.3014 9.13ZM 32.0902 4.45C 32.0902 7.037 34.0272 9.13 36.8352 9.13C 37.8752 9.13 38.7852 8.844 39.5392 8.35L 40.1112 9L 42.1002 9L 40.6182 7.349C 41.2292 6.556 41.5802 5.542 41.5802 4.45C 41.5802 1.863 39.6432 -0.23 36.8352 -0.23C 34.0272 -0.23 32.0902 1.863 32.0902 4.45ZM 33.8452 4.45C 33.8452 2.734 35.1192 1.33 36.8352 1.33C 38.5512 1.33 39.8252 2.734 39.8252 4.45C 39.8252 5.022 39.6822 5.555 39.4352 6.01L 37.5632 3.904L 36.4582 4.866L 38.4342 7.102C 37.9792 7.401 37.4332 7.57 36.8352 7.57C 35.1192 7.57 33.8452 6.166 33.8452 4.45ZM 44.2947 2.357C 44.4767 1.746 44.9187 1.33 45.5297 1.33C 46.2187 1.33 46.7127 1.915 46.7127 2.552C 46.7127 3.02 46.5177 3.54 45.8157 4.333L 42.6177 7.96L 42.6177 9L 48.5327 9L 48.5327 7.44L 45.3607 7.44L 47.2977 5.191C 47.9087 4.489 48.4677 3.683 48.4677 2.578C 48.4677 0.94 47.1157 -0.23 45.5557 -0.23C 44.2167 -0.23 43.0727 0.628 42.6827 1.876L 44.2947 2.357Z"/>
<path id="path19_fill" d="M 2.197 2.357C 2.379 1.746 2.821 1.33 3.432 1.33C 4.121 1.33 4.615 1.915 4.615 2.552C 4.615 3.02 4.42 3.54 3.718 4.333L 0.52 7.96L 0.52 9L 6.435 9L 6.435 7.44L 3.263 7.44L 5.2 5.191C 5.811 4.489 6.37 3.683 6.37 2.578C 6.37 0.94 5.018 -0.23 3.458 -0.23C 2.119 -0.23 0.975 0.628 0.585 1.876L 2.197 2.357ZM 12.414 4.45C 12.414 6.166 12.037 7.57 10.984 7.57C 9.93098 7.57 9.55398 6.166 9.55398 4.45C 9.55398 2.734 9.93098 1.33 10.984 1.33C 12.037 1.33 12.414 2.734 12.414 4.45ZM 7.79898 4.45C 7.79898 7.037 8.65698 9.13 10.984 9.13C 13.311 9.13 14.169 7.037 14.169 4.45C 14.169 1.863 13.311 -0.23 10.984 -0.23C 8.65698 -0.23 7.79898 1.863 7.79898 4.45ZM 15.5939 2.864L 17.2839 1.928L 17.2839 9L 19.0389 9L 19.0389 -0.0999998L 17.8039 -0.0999998L 15.5939 1.2L 15.5939 2.864ZM 24.3014 3.215C 23.7554 3.215 23.3914 2.799 23.3914 2.279C 23.3914 1.759 23.7554 1.33 24.3014 1.33C 24.8474 1.33 25.2114 1.759 25.2114 2.279C 25.2114 2.799 24.8474 3.215 24.3014 3.215ZM 24.3014 7.57C 23.4434 7.57 22.8064 6.959 22.8064 6.179C 22.8064 5.399 23.4434 4.775 24.3014 4.775C 25.1594 4.775 25.7964 5.399 25.7964 6.179C 25.7964 6.959 25.1594 7.57 24.3014 7.57ZM 24.3014 9.13C 26.1214 9.13 27.5514 7.83 27.5514 6.179C 27.5514 5.113 26.9924 4.372 26.2384 3.878C 26.6284 3.527 26.9664 3.02 26.9664 2.279C 26.9664 0.888 25.8354 -0.23 24.3014 -0.23C 22.7674 -0.23 21.6364 0.888 21.6364 2.279C 21.6364 3.02 21.9744 3.527 22.3644 3.878C 21.6104 4.372 21.0514 5.113 21.0514 6.179C 21.0514 7.83 22.4814 9.13 24.3014 9.13ZM 32.0902 4.45C 32.0902 7.037 34.0272 9.13 36.8352 9.13C 37.8752 9.13 38.7852 8.844 39.5392 8.35L 40.1112 9L 42.1002 9L 40.6182 7.349C 41.2292 6.556 41.5802 5.542 41.5802 4.45C 41.5802 1.863 39.6432 -0.23 36.8352 -0.23C 34.0272 -0.23 32.0902 1.863 32.0902 4.45ZM 33.8452 4.45C 33.8452 2.734 35.1192 1.33 36.8352 1.33C 38.5512 1.33 39.8252 2.734 39.8252 4.45C 39.8252 5.022 39.6822 5.555 39.4352 6.01L 37.5632 3.904L 36.4582 4.866L 38.4342 7.102C 37.9792 7.401 37.4332 7.57 36.8352 7.57C 35.1192 7.57 33.8452 6.166 33.8452 4.45ZM 42.4227 7.713C 43.2287 8.623 44.3077 9.13 45.4387 9.13C 47.3237 9.13 48.8317 7.843 48.8317 5.919C 48.8317 4.541 47.9737 3.449 46.7257 2.968L 48.3767 0.94L 48.3767 -0.0999998L 42.8517 -0.0999998L 42.8517 1.46L 45.8937 1.46L 44.1907 3.475L 44.1907 4.515C 44.5287 4.346 44.9187 4.255 45.2827 4.255C 46.2967 4.255 47.0767 4.97 47.0767 5.919C 47.0767 6.894 46.2317 7.57 45.3737 7.57C 44.6847 7.57 44.0607 7.193 43.6837 6.66L 42.4227 7.713Z"/>
<path id="path20_fill" d="M 2.197 2.357C 2.379 1.746 2.821 1.33 3.432 1.33C 4.121 1.33 4.615 1.915 4.615 2.552C 4.615 3.02 4.42 3.54 3.718 4.333L 0.52 7.96L 0.52 9L 6.435 9L 6.435 7.44L 3.263 7.44L 5.2 5.191C 5.811 4.489 6.37 3.683 6.37 2.578C 6.37 0.94 5.018 -0.23 3.458 -0.23C 2.119 -0.23 0.975 0.628 0.585 1.876L 2.197 2.357ZM 12.414 4.45C 12.414 6.166 12.037 7.57 10.984 7.57C 9.93098 7.57 9.55398 6.166 9.55398 4.45C 9.55398 2.734 9.93098 1.33 10.984 1.33C 12.037 1.33 12.414 2.734 12.414 4.45ZM 7.79898 4.45C 7.79898 7.037 8.65698 9.13 10.984 9.13C 13.311 9.13 14.169 7.037 14.169 4.45C 14.169 1.863 13.311 -0.23 10.984 -0.23C 8.65698 -0.23 7.79898 1.863 7.79898 4.45ZM 15.5939 2.864L 17.2839 1.928L 17.2839 9L 19.0389 9L 19.0389 -0.0999998L 17.8039 -0.0999998L 15.5939 1.2L 15.5939 2.864ZM 24.3014 3.215C 23.7554 3.215 23.3914 2.799 23.3914 2.279C 23.3914 1.759 23.7554 1.33 24.3014 1.33C 24.8474 1.33 25.2114 1.759 25.2114 2.279C 25.2114 2.799 24.8474 3.215 24.3014 3.215ZM 24.3014 7.57C 23.4434 7.57 22.8064 6.959 22.8064 6.179C 22.8064 5.399 23.4434 4.775 24.3014 4.775C 25.1594 4.775 25.7964 5.399 25.7964 6.179C 25.7964 6.959 25.1594 7.57 24.3014 7.57ZM 24.3014 9.13C 26.1214 9.13 27.5514 7.83 27.5514 6.179C 27.5514 5.113 26.9924 4.372 26.2384 3.878C 26.6284 3.527 26.9664 3.02 26.9664 2.279C 26.9664 0.888 25.8354 -0.23 24.3014 -0.23C 22.7674 -0.23 21.6364 0.888 21.6364 2.279C 21.6364 3.02 21.9744 3.527 22.3644 3.878C 21.6104 4.372 21.0514 5.113 21.0514 6.179C 21.0514 7.83 22.4814 9.13 24.3014 9.13ZM 32.0902 4.45C 32.0902 7.037 34.0272 9.13 36.8352 9.13C 37.8752 9.13 38.7852 8.844 39.5392 8.35L 40.1112 9L 42.1002 9L 40.6182 7.349C 41.2292 6.556 41.5802 5.542 41.5802 4.45C 41.5802 1.863 39.6432 -0.23 36.8352 -0.23C 34.0272 -0.23 32.0902 1.863 32.0902 4.45ZM 33.8452 4.45C 33.8452 2.734 35.1192 1.33 36.8352 1.33C 38.5512 1.33 39.8252 2.734 39.8252 4.45C 39.8252 5.022 39.6822 5.555 39.4352 6.01L 37.5632 3.904L 36.4582 4.866L 38.4342 7.102C 37.9792 7.401 37.4332 7.57 36.8352 7.57C 35.1192 7.57 33.8452 6.166 33.8452 4.45ZM 47.1027 -0.0999998L 42.3577 5.88L 42.3577 6.92L 46.5827 6.92L 46.5827 9L 48.3377 9L 48.3377 6.92L 49.8327 6.92L 49.8327 5.36L 48.3377 5.36L 48.3377 -0.0999998L 47.1027 -0.0999998ZM 44.8797 5.36L 46.5827 3.228L 46.5827 5.36L 44.8797 5.36Z"/>
<path id="path21_stroke" d="M 0.5 83L 0.500001 8.68962e-09L -0.499999 -8.68962e-09L -0.5 83L 0.5 83Z"/>
<path id="path22_fill" fill-rule="evenodd" d="M 720 3.00002L 0 3L 0 0L 720 1.83588e-05L 720 3.00002Z"/>
</defs>
</svg>
