<svg width="73" height="122" viewBox="0 0 73 122" version="1.1" xmlns="http://www.w3.org/2000/svg" xmlns:xlink="http://www.w3.org/1999/xlink">
<title>award</title>
<desc>Created using Figma</desc>
<g id="Canvas" transform="translate(1591 -33939)">
<g id="award">
<g id="Vector">
<use xlink:href="#path0_fill" transform="matrix(-1 0 0 1 -1570.11 33940.4)" fill="#0072FF"/>
<use xlink:href="#path1_stroke" transform="matrix(-1 0 0 1 -1570.11 33940.4)" fill="#FFFFF2"/>
</g>
<g id="Vector">
<use xlink:href="#path2_fill" transform="matrix(-1 0 0 1 -1577.99 33951.1)" fill="#0072FF"/>
<use xlink:href="#path3_stroke" transform="matrix(-1 0 0 1 -1577.99 33951.1)" fill="#FFFFF2"/>
</g>
<g id="Vector">
<use xlink:href="#path4_stroke" transform="matrix(-1 0 0 1 -1574.13 33942.5)" fill="#FFFFF2"/>
</g>
<g id="Vector">
<use xlink:href="#path5_fill" transform="matrix(-1 0 0 1 -1532.13 34017.6)" fill="#0072FF"/>
<use xlink:href="#path6_stroke" transform="matrix(-1 0 0 1 -1532.13 34017.6)" fill="#FFFFF2"/>
</g>
<g id="Vector">
<use xlink:href="#path7_fill" transform="matrix(-1 0 0 1 -1532.13 34032.8)" fill="#0072FF"/>
<use xlink:href="#path8_stroke" transform="matrix(-1 0 0 1 -1532.13 34032.8)" fill="#FFFFF2"/>
</g>
<g id="Vector">
<use xlink:href="#path9_fill" transform="matrix(-1 0 0 1 -1532.13 33948.9)" fill="#0072FF"/>
<use xlink:href="#path10_stroke" transform="matrix(-1 0 0 1 -1532.13 33948.9)" fill="#FFFFF2"/>
</g>
<g id="Vector">
<use xlink:href="#path11_fill" transform="matrix(-1 0 0 1 -1532.13 33964.1)" fill="#0072FF"/>
<use xlink:href="#path12_stroke" transform="matrix(-1 0 0 1 -1532.13 33964.1)" fill="#FFFFF2"/>
</g>
<g id="Vector">
<use xlink:href="#path13_fill" transform="matrix(-1 0 0 1 -1538.17 33952.4)" fill="#0072FF"/>
<use xlink:href="#path14_stroke" transform="matrix(-1 0 0 1 -1538.17 33952.4)" fill="#FFFFF2"/>
</g>
<g id="Vector">
<use xlink:href="#path15_fill" transform="matrix(-1 0 0 1 -1519.47 33970.4)" fill="#0072FF"/>
<use xlink:href="#path16_stroke" transform="matrix(-1 0 0 1 -1519.47 33970.4)" fill="#FFFFF2"/>
</g>
<g id="Vector">
<use xlink:href="#path17_stroke" transform="matrix(-1 0 0 1 -1519.47 33973.3)" fill="#FFFFF2"/>
</g>
<g id="Vector">
<use xlink:href="#path18_fill" transform="matrix(-1 0 0 1 -1523.33 33981.9)" fill="#0072FF"/>
<use xlink:href="#path19_stroke" transform="matrix(-1 0 0 1 -1523.33 33981.9)" fill="#FFFFF2"/>
</g>
<g id="Vector">
<use xlink:href="#path20_stroke" transform="matrix(-1 0 0 1 -1534.37 34000.8)" fill="#FFFFF2"/>
</g>
</g>
</g>
<defs>
<path id="path0_fill" d="M 0 9.85535L 16.686 1.37409e-08L 19.8506 2.13244C 19.8506 2.13244 18.9875 14.6389 14.3845 26.5691C 9.78144 38.4992 0 9.85535 0 9.85535Z"/>
<path id="path1_stroke" d="M 0 9.85535L -0.254278 9.42483L -0.604688 9.6318L -0.473172 10.0169L 0 9.85535ZM 16.686 1.37409e-08L 16.9654 -0.414646L 16.7036 -0.591081L 16.4317 -0.430515L 16.686 1.37409e-08ZM 19.8506 2.13244L 20.3494 2.16687L 20.3692 1.87903L 20.13 1.7178L 19.8506 2.13244ZM 0.254278 10.2859L 16.9403 0.430515L 16.4317 -0.430515L -0.254278 9.42483L 0.254278 10.2859ZM 16.4066 0.414646L 19.5712 2.54709L 20.13 1.7178L 16.9654 -0.414646L 16.4066 0.414646ZM 19.8506 2.13244C 19.3517 2.09802 19.3518 2.09799 19.3517 2.09802C 19.3517 2.09809 19.3517 2.09816 19.3517 2.0983C 19.3517 2.09858 19.3517 2.09905 19.3516 2.09972C 19.3515 2.10104 19.3514 2.10312 19.3512 2.10595C 19.3508 2.11161 19.3502 2.12027 19.3493 2.13188C 19.3476 2.1551 19.3449 2.19012 19.3413 2.23654C 19.334 2.32939 19.3226 2.46784 19.3065 2.6487C 19.2742 3.01043 19.2229 3.54174 19.1469 4.21711C 18.995 5.56798 18.7445 7.49447 18.3508 9.79253C 17.563 14.3914 16.2035 20.4656 13.918 26.3891L 14.8509 26.7491C 17.1685 20.7425 18.5421 14.5983 19.3365 9.96139C 19.7339 7.64156 19.9869 5.69579 20.1407 4.32887C 20.2175 3.64535 20.2696 3.10639 20.3025 2.73757C 20.319 2.55315 20.3306 2.41125 20.3382 2.31507C 20.342 2.26699 20.3448 2.23032 20.3466 2.20549C 20.3475 2.19307 20.3482 2.18361 20.3487 2.17716C 20.3489 2.17393 20.3491 2.17146 20.3492 2.16974C 20.3492 2.16888 20.3493 2.16821 20.3493 2.16773C 20.3493 2.16749 20.3493 2.16728 20.3494 2.16716C 20.3494 2.16699 20.3494 2.16687 19.8506 2.13244ZM 13.918 26.3891C 13.3563 27.8449 12.7586 28.5568 12.2189 28.8301C 11.7254 29.08 11.1604 29.0177 10.4658 28.5703C 9.76049 28.1159 8.99912 27.3068 8.21452 26.2292C 7.43518 25.1588 6.65628 23.8566 5.90737 22.4509C 4.40974 19.64 3.05114 16.452 2.06519 13.9606C 1.57274 12.7162 1.17433 11.6483 0.899161 10.8919C 0.761593 10.5137 0.654872 10.2136 0.582649 10.0082C 0.546539 9.90555 0.519056 9.82661 0.500657 9.77349C 0.491457 9.74693 0.484529 9.72684 0.479929 9.71346C 0.477629 9.70677 0.475911 9.70177 0.474783 9.69847C 0.474218 9.69683 0.473801 9.69561 0.473533 9.69482C 0.473398 9.69443 0.473308 9.69416 0.473241 9.69397C 0.473188 9.69381 0.473172 9.69377 0 9.85535C -0.473172 10.0169 -0.473113 10.0171 -0.473017 10.0174C -0.472935 10.0176 -0.472802 10.018 -0.472639 10.0185C -0.472313 10.0194 -0.471838 10.0208 -0.471215 10.0226C -0.46997 10.0263 -0.468134 10.0316 -0.465715 10.0387C -0.460877 10.0527 -0.453705 10.0735 -0.444257 10.1008C -0.42536 10.1554 -0.397356 10.2358 -0.360701 10.34C -0.287394 10.5484 -0.179471 10.852 -0.0405878 11.2338C 0.237147 11.9972 0.638873 13.074 1.13535 14.3285C 2.12727 16.835 3.50172 20.0624 5.02482 22.9211C 5.78629 24.3504 6.58968 25.6965 7.40611 26.8178C 8.21729 27.9319 9.06518 28.8576 9.92422 29.4109C 10.7939 29.9712 11.7482 30.1894 12.6707 29.7222C 13.547 29.2785 14.2619 28.2758 14.8509 26.7491L 13.918 26.3891Z"/>
<path id="path2_fill" d="M -1.75592e-06 2.99695L 5.81133 4.3971e-07L 4.37288 7.2042"/>
<path id="path3_stroke" d="M 5.81133 4.3971e-07L 6.05649 0.0489511L 6.15813 -0.460139L 5.69674 -0.222193L 5.81133 4.3971e-07ZM 0.114585 3.21914L 5.92591 0.222194L 5.69674 -0.222193L -0.114589 2.77475L 0.114585 3.21914ZM 5.56616 -0.0489503L 4.12772 7.15525L 4.61804 7.25315L 6.05649 0.0489511L 5.56616 -0.0489503Z"/>
<path id="path4_stroke" d="M 15.6947 -0.214623L -0.128206 9.23729L 0.128206 9.66654L 15.9511 0.214623L 15.6947 -0.214623Z"/>
<path id="path5_fill" d="M 26.8702 -1.75884e-06C 12.0254 -1.75884e-06 0 6.80076 0 15.1576L 0 26.7996C 0 35.1565 12.0254 41.9573 26.8702 41.9573C 41.7149 41.9573 53.7404 35.1565 53.7404 26.7996L 53.7404 15.1576C 53.7404 6.74313 41.7149 -1.75884e-06 26.8702 -1.75884e-06Z"/>
<path id="path6_stroke" d="M 26.8702 -0.500002C 19.3778 -0.500002 12.5723 1.21516 7.62249 4.00958C 2.68822 6.79521 -0.5 10.719 -0.5 15.1576L 0.5 15.1576C 0.5 11.2394 3.32448 7.58437 8.11411 4.8804C 12.8882 2.18522 19.5178 0.499998 26.8702 0.499998L 26.8702 -0.500002ZM -0.5 15.1576L -0.5 26.7996L 0.5 26.7996L 0.5 15.1576L -0.5 15.1576ZM -0.5 26.7996C -0.5 31.2383 2.68822 35.162 7.62249 37.9477C 12.5723 40.7421 19.3778 42.4573 26.8702 42.4573L 26.8702 41.4573C 19.5178 41.4573 12.8882 39.772 8.11411 37.0769C 3.32448 34.3729 0.5 30.7179 0.5 26.7996L -0.5 26.7996ZM 26.8702 42.4573C 34.3626 42.4573 41.168 40.7421 46.1179 37.9477C 51.0521 35.162 54.2404 31.2383 54.2404 26.7996L 53.2404 26.7996C 53.2404 30.7179 50.4159 34.3729 45.6262 37.0769C 40.8522 39.772 34.2226 41.4573 26.8702 41.4573L 26.8702 42.4573ZM 54.2404 26.7996L 54.2404 15.1576L 53.2404 15.1576L 53.2404 26.7996L 54.2404 26.7996ZM 54.2404 15.1576C 54.2404 10.6907 51.0529 6.7667 46.1174 3.9877C 41.1672 1.20044 34.3618 -0.500002 26.8702 -0.500002L 26.8702 0.499998C 34.2233 0.499998 40.853 2.17113 45.6267 4.85906C 50.4151 7.55524 53.2404 11.21 53.2404 15.1576L 54.2404 15.1576Z"/>
<path id="path7_fill" d="M 53.7404 -3.51768e-06C 53.7404 8.35687 41.7149 15.1576 26.8702 15.1576C 12.0254 15.1576 0 8.35687 0 -3.51768e-06"/>
<path id="path8_stroke" d="M 53.4904 -3.51768e-06C 53.4904 4.04833 50.5749 7.77055 45.7491 10.4949C 40.9311 13.2149 34.2576 14.9076 26.8702 14.9076L 26.8702 15.4076C 34.3276 15.4076 41.0891 13.7 45.995 10.9303C 50.8931 8.16513 53.9904 4.30853 53.9904 -3.51768e-06L 53.4904 -3.51768e-06ZM 26.8702 14.9076C 19.4828 14.9076 12.8092 13.2149 7.9912 10.4949C 3.16542 7.77055 0.25 4.04833 0.25 -3.51768e-06L -0.25 -3.51768e-06C -0.25 4.30853 2.84729 8.16513 7.7454 10.9303C 12.6513 13.7 19.4128 15.4076 26.8702 15.4076L 26.8702 14.9076Z"/>
<path id="path9_fill" d="M 32.7966 72.5031C 32.4514 69.679 32.1061 65.126 32.624 59.8813C 33.487 51.0634 52.4745 45.0695 54.0856 15.1576L 54.0856 14.9271C 54.0856 6.57023 41.7725 -8.19023e-15 26.9277 -8.19023e-15C 12.083 -8.19023e-15 0 6.80076 0 15.1576C 0 15.5611 0.0575381 15.9069 0.0575381 16.2527C 2.07136 45.1847 20.541 51.121 21.4041 59.8237C 21.9219 65.0683 21.5767 69.679 21.2315 72.5031C 13.4063 73.8863 7.71007 77.9206 7.71007 82.7042C 7.71007 88.6405 16.3983 93.4241 27.1003 93.4241C 37.8024 93.4241 46.4906 88.6405 46.4906 82.7042C 46.5481 77.9206 40.7368 73.8286 32.7966 72.5031Z"/>
<path id="path10_stroke" d="M 32.7966 72.5031L 32.3003 72.5637L 32.3456 72.9347L 32.7142 72.9962L 32.7966 72.5031ZM 32.624 59.8813L 33.1215 59.9304L 33.1216 59.93L 32.624 59.8813ZM 54.0856 15.1576L 54.5849 15.1845L 54.5856 15.1711L 54.5856 15.1576L 54.0856 15.1576ZM 0.0575381 16.2527L -0.442462 16.2527L -0.442462 16.2701L -0.441255 16.2874L 0.0575381 16.2527ZM 21.4041 59.8237L 21.9017 59.7745L 21.9016 59.7743L 21.4041 59.8237ZM 21.2315 72.5031L 21.3185 72.9954L 21.6829 72.931L 21.7278 72.5637L 21.2315 72.5031ZM 46.4906 82.7042L 45.9906 82.6982L 45.9906 82.7042L 46.4906 82.7042ZM 33.2929 72.4424C 32.9505 69.6414 32.6084 65.1272 33.1215 59.9304L 32.1264 59.8322C 31.6038 65.1247 31.9522 69.7166 32.3003 72.5637L 33.2929 72.4424ZM 33.1216 59.93C 33.321 57.8921 34.5737 55.9674 36.4961 53.7031C 37.4526 52.5764 38.5507 51.392 39.7398 50.0778C 40.925 48.7678 42.1914 47.3386 43.4652 45.7414C 48.5739 39.3358 53.7728 30.2625 54.5849 15.1845L 53.5863 15.1307C 52.7873 29.9646 47.6869 38.8441 42.6834 45.1179C 41.4291 46.6906 40.1791 48.1017 38.9983 49.4068C 37.8213 50.7077 36.7038 51.9133 35.7337 53.0559C 33.8028 55.3303 32.3584 57.4615 32.1263 59.8326L 33.1216 59.93ZM 54.5856 15.1576L 54.5856 14.9271L 53.5856 14.9271L 53.5856 15.1576L 54.5856 15.1576ZM 54.5856 14.9271C 54.5856 10.4805 51.3153 6.61531 46.3126 3.89063C 41.2921 1.15626 34.4171 -0.5 26.9277 -0.5L 26.9277 0.5C 34.2831 0.5 40.9871 2.12885 45.8343 4.76882C 50.6993 7.41848 53.5856 11.0168 53.5856 14.9271L 54.5856 14.9271ZM 26.9277 -0.5C 19.4354 -0.5 12.6158 1.21515 7.65181 4.00927C 2.70395 6.79434 -0.5 10.718 -0.5 15.1576L 0.5 15.1576C 0.5 11.2404 3.33753 7.58524 8.14233 4.88071C 12.931 2.18523 19.5753 0.5 26.9277 0.5L 26.9277 -0.5ZM -0.5 15.1576C -0.5 15.3816 -0.48398 15.5871 -0.469644 15.7666C -0.45484 15.9519 -0.442462 16.1036 -0.442462 16.2527L 0.557538 16.2527C 0.557538 16.0559 0.541148 15.8618 0.527182 15.687C 0.512749 15.5063 0.5 15.3371 0.5 15.1576L -0.5 15.1576ZM -0.441255 16.2874C 0.574102 30.8747 5.74514 39.6863 10.7727 45.9376C 12.0263 47.4963 13.2694 48.8939 14.4309 50.1772C 15.596 51.4644 16.6708 52.6278 17.6057 53.7354C 19.4845 55.9612 20.7071 57.8618 20.9065 59.873L 21.9016 59.7743C 21.6696 57.4342 20.2598 55.3293 18.3699 53.0903C 17.4203 51.9654 16.3267 50.7816 15.1723 49.5062C 14.0143 48.2268 12.7869 46.8463 11.552 45.3108C 6.6255 39.1853 1.5548 30.5627 0.556331 16.218L -0.441255 16.2874ZM 20.9065 59.8728C 21.4196 65.0697 21.0776 69.6416 20.7352 72.4424L 21.7278 72.5637C 22.0758 69.7165 22.4242 65.067 21.9017 59.7745L 20.9065 59.8728ZM 21.1444 72.0107C 17.1764 72.7121 13.7182 74.0901 11.2387 75.9267C 8.7627 77.7608 7.21007 80.0975 7.21007 82.7042L 8.21007 82.7042C 8.21007 80.5273 9.50557 78.455 11.834 76.7303C 14.1589 75.0081 17.4614 73.6772 21.3185 72.9954L 21.1444 72.0107ZM 7.21007 82.7042C 7.21007 85.9376 9.57038 88.7513 13.1503 90.7279C 16.7473 92.7141 21.6813 93.9241 27.1003 93.9241L 27.1003 92.9241C 21.8173 92.9241 17.0562 91.7423 13.6336 89.8525C 10.1939 87.9533 8.21007 85.4071 8.21007 82.7042L 7.21007 82.7042ZM 27.1003 93.9241C 32.5193 93.9241 37.4533 92.7141 41.0504 90.7279C 44.6303 88.7513 46.9906 85.9376 46.9906 82.7042L 45.9906 82.7042C 45.9906 85.4071 44.0068 87.9533 40.567 89.8525C 37.1445 91.7423 32.3834 92.9241 27.1003 92.9241L 27.1003 93.9241ZM 46.9906 82.7102C 47.022 80.0973 45.4496 77.7438 42.9383 75.9036C 40.4222 74.0599 36.9057 72.6821 32.8789 72.0099L 32.7142 72.9962C 36.6277 73.6496 39.9869 74.9806 42.3472 76.7102C 44.7122 78.4432 46.0167 80.5275 45.9906 82.6982L 46.9906 82.7102Z"/>
<path id="path11_fill" d="M 54.028 -4.39709e-07C 54.028 8.35687 42.0026 15.1576 27.1579 15.1576C 12.3131 15.1576 0 8.35687 0 -4.39709e-07"/>
<path id="path12_stroke" d="M 53.528 -4.39709e-07C 53.528 3.91824 50.7036 7.57327 45.9139 10.2772C 41.1399 12.9724 34.5102 14.6576 27.1579 14.6576L 27.1579 15.6576C 34.6502 15.6576 41.4557 13.9425 46.4055 11.1481C 51.3398 8.36242 54.528 4.43863 54.528 -4.39709e-07L 53.528 -4.39709e-07ZM 27.1579 14.6576C 19.8054 14.6576 13.1025 12.9723 8.25522 10.2757C 3.3897 7.56893 0.5 3.91303 0.5 -4.39709e-07L -0.5 -4.39709e-07C -0.5 4.44384 2.76684 8.36675 7.76907 11.1496C 12.7895 13.9425 19.6656 15.6576 27.1579 15.6576L 27.1579 14.6576Z"/>
<path id="path13_fill" d="M 20.8287 23.5145C 32.3321 23.5145 41.6574 18.2506 41.6574 11.7573C 41.6574 5.2639 32.3321 0 20.8287 0C 9.32533 0 0 5.2639 0 11.7573C 0 18.2506 9.32533 23.5145 20.8287 23.5145Z"/>
<path id="path14_stroke" d="M 41.4074 11.7573C 41.4074 14.8739 39.1669 17.746 35.4339 19.8532C 31.7087 21.956 26.5454 23.2645 20.8287 23.2645L 20.8287 23.7645C 26.6153 23.7645 31.8665 22.4411 35.6797 20.2886C 39.4853 18.1405 41.9074 15.1339 41.9074 11.7573L 41.4074 11.7573ZM 20.8287 23.2645C 15.112 23.2645 9.94875 21.956 6.22348 19.8532C 2.49055 17.746 0.25 14.8739 0.25 11.7573L -0.25 11.7573C -0.25 15.1339 2.17212 18.1405 5.97769 20.2886C 9.79093 22.4411 15.0421 23.7645 20.8287 23.7645L 20.8287 23.2645ZM 0.25 11.7573C 0.25 8.64056 2.49055 5.76847 6.22348 3.66133C 9.94875 1.55851 15.112 0.25 20.8287 0.25L 20.8287 -0.25C 15.0421 -0.25 9.79093 1.07344 5.97769 3.22591C 2.17212 5.37406 -0.25 8.38059 -0.25 11.7573L 0.25 11.7573ZM 20.8287 0.25C 26.5454 0.25 31.7087 1.55851 35.4339 3.66133C 39.1669 5.76847 41.4074 8.64056 41.4074 11.7573L 41.9074 11.7573C 41.9074 8.38059 39.4853 5.37406 35.6797 3.22591C 31.8665 1.07344 26.6153 -0.25 20.8287 -0.25L 20.8287 0.25Z"/>
<path id="path15_fill" d="M 14.9598 -4.3971e-07L 0 9.16374C 0 9.16374 1.03568 32.7359 13.3488 37.6924C 25.6619 42.6489 34.983 35.0412 34.983 35.0412L 33.6021 31.5256L 30.2649 29.3931C 30.2649 29.3931 19.3903 36.2515 14.6146 29.3931C 9.83897 22.5347 9.14852 13.0252 9.14852 13.0252L 18.1244 7.2042L 17.9518 2.82405L 14.9598 -4.3971e-07Z"/>
<path id="path16_stroke" d="M 14.9598 -4.3971e-07L 15.303 -0.36361L 15.0249 -0.626179L 14.6987 -0.426367L 14.9598 -4.3971e-07ZM 0 9.16374L -0.261173 8.73737L -0.512453 8.8913L -0.499518 9.18569L 0 9.16374ZM 34.983 35.0412L 35.2992 35.4286L 35.5818 35.1979L 35.4484 34.8584L 34.983 35.0412ZM 33.6021 31.5256L 34.0675 31.3428L 34.0081 31.1917L 33.8713 31.1043L 33.6021 31.5256ZM 30.2649 29.3931L 30.5341 28.9718L 30.2667 28.8009L 29.9982 28.9702L 30.2649 29.3931ZM 9.14852 13.0252L 8.87646 12.6057L 8.62842 12.7665L 8.64983 13.0614L 9.14852 13.0252ZM 18.1244 7.2042L 18.3965 7.62371L 18.6352 7.46887L 18.624 7.18451L 18.1244 7.2042ZM 17.9518 2.82405L 18.4514 2.80436L 18.4434 2.60049L 18.295 2.46044L 17.9518 2.82405ZM 14.6987 -0.426367L -0.261173 8.73737L 0.261173 9.59011L 15.221 0.426366L 14.6987 -0.426367ZM 0 9.16374C -0.499518 9.18569 -0.499509 9.1859 -0.499495 9.18621C -0.499485 9.18643 -0.499468 9.18682 -0.499448 9.18727C -0.499408 9.18815 -0.499352 9.18939 -0.499278 9.19099C -0.499132 9.19419 -0.498916 9.1988 -0.498627 9.20482C -0.49805 9.21685 -0.497178 9.23449 -0.495974 9.25757C -0.493565 9.30373 -0.489824 9.37166 -0.484437 9.46008C -0.473665 9.63691 -0.456307 9.89572 -0.429855 10.2262C -0.376956 10.887 -0.287653 11.8349 -0.141826 12.9871C 0.149663 15.2903 0.667794 18.4165 1.57501 21.7024C 2.48147 24.9856 3.78146 28.4472 5.64522 31.41C 7.5091 34.3729 9.95522 36.8653 13.1621 38.1562L 13.5355 37.2285C 10.5858 36.0412 8.28504 33.7284 6.49167 30.8775C 4.69818 28.0265 3.43055 24.6657 2.53895 21.4363C 1.64811 18.2097 1.13775 15.1331 0.850261 12.8616C 0.706601 11.7265 0.618795 10.794 0.566957 10.1464C 0.541041 9.82262 0.524123 9.57016 0.513712 9.39927C 0.508507 9.31383 0.504929 9.2488 0.502667 9.20546C 0.501536 9.18378 0.500734 9.16754 0.500223 9.15687C 0.499967 9.15154 0.499783 9.1476 0.499667 9.14508C 0.49961 9.14382 0.499569 9.14292 0.499544 9.14237C 0.499531 9.14209 0.499525 9.14195 0.499519 9.14181C 0.499517 9.14176 0.499518 9.14179 0 9.16374ZM 13.1621 38.1562C 19.4519 40.6881 24.9855 40.0109 28.9406 38.7001C 30.9163 38.0453 32.4993 37.2324 33.5903 36.5819C 34.136 36.2565 34.5594 35.9713 34.8482 35.7659C 34.9926 35.6632 35.1034 35.5805 35.1791 35.5226C 35.2169 35.4937 35.246 35.471 35.266 35.4551C 35.2761 35.4472 35.2839 35.4409 35.2894 35.4365C 35.2922 35.4343 35.2944 35.4325 35.296 35.4312C 35.2968 35.4305 35.2975 35.43 35.298 35.4295C 35.2983 35.4293 35.2986 35.4291 35.2987 35.429C 35.2989 35.4288 35.2992 35.4286 34.983 35.0412C 34.6669 34.6539 34.667 34.6537 34.6671 34.6537C 34.6671 34.6537 34.6672 34.6536 34.6672 34.6536C 34.6671 34.6537 34.667 34.6538 34.6666 34.6541C 34.666 34.6546 34.6648 34.6555 34.663 34.657C 34.6595 34.6598 34.6537 34.6644 34.6458 34.6707C 34.6298 34.6833 34.605 34.7027 34.5716 34.7283C 34.5047 34.7794 34.4032 34.8553 34.2687 34.951C 33.9996 35.1423 33.5986 35.4127 33.0781 35.723C 32.0366 36.3441 30.5198 37.1233 28.626 37.7509C 24.8423 39.0048 19.5588 39.6531 13.5355 37.2285L 13.1621 38.1562ZM 35.4484 34.8584L 34.0675 31.3428L 33.1367 31.7084L 34.5176 35.224L 35.4484 34.8584ZM 33.8713 31.1043L 30.5341 28.9718L 29.9957 29.8145L 33.3329 31.9469L 33.8713 31.1043ZM 30.2649 29.3931C 29.9982 28.9702 29.9983 28.9702 29.9983 28.9701C 29.9983 28.9702 29.9983 28.9701 29.9982 28.9702C 29.9981 28.9703 29.9978 28.9705 29.9973 28.9708C 29.9963 28.9714 29.9947 28.9724 29.9925 28.9738C 29.988 28.9766 29.9809 28.981 29.9713 28.9869C 29.9521 28.9987 29.9229 29.0166 29.8841 29.0399C 29.8066 29.0865 29.691 29.1547 29.5414 29.2396C 29.2422 29.4095 28.8079 29.6458 28.2712 29.9086C 27.1958 30.4352 25.7201 31.0635 24.1055 31.481C 20.8459 32.3238 17.2255 32.2677 15.0249 29.1074L 14.2043 29.6789C 16.7794 33.377 20.9841 33.3209 24.3558 32.4491C 26.0568 32.0093 27.5982 31.3516 28.711 30.8066C 29.2685 30.5336 29.721 30.2876 30.0352 30.1092C 30.1923 30.02 30.315 29.9476 30.3991 29.8971C 30.4412 29.8718 30.4736 29.852 30.4959 29.8383C 30.507 29.8314 30.5156 29.8261 30.5216 29.8224C 30.5245 29.8205 30.5269 29.819 30.5286 29.818C 30.5294 29.8175 30.5301 29.817 30.5306 29.8167C 30.5309 29.8165 30.5311 29.8164 30.5312 29.8163C 30.5315 29.8162 30.5316 29.8161 30.2649 29.3931ZM 15.0249 29.1074C 12.6878 25.7509 11.3398 21.7271 10.5771 18.5215C 10.1967 16.9224 9.96383 15.5353 9.82622 14.5491C 9.75744 14.0562 9.71252 13.6639 9.68487 13.3959C 9.67105 13.2619 9.66155 13.159 9.65555 13.0902C 9.65254 13.0558 9.65042 13.0299 9.64906 13.0129C 9.64838 13.0044 9.6479 12.9982 9.64759 12.9941C 9.64744 12.9921 9.64733 12.9907 9.64727 12.9898C 9.64724 12.9894 9.64722 12.9891 9.64721 12.989C 9.6472 12.9889 9.6472 12.9889 9.6472 12.9889C 9.6472 12.9889 9.64721 12.989 9.14852 13.0252C 8.64983 13.0614 8.64984 13.0615 8.64985 13.0617C 8.64986 13.0618 8.64988 13.0621 8.64989 13.0623C 8.64993 13.0627 8.64997 13.0633 8.65002 13.064C 8.65013 13.0655 8.65028 13.0675 8.65048 13.0701C 8.65088 13.0753 8.65145 13.0827 8.65223 13.0924C 8.65378 13.1119 8.65611 13.1402 8.65933 13.1771C 8.66577 13.251 8.67577 13.3591 8.69015 13.4985C 8.71892 13.7774 8.76525 14.1816 8.83582 14.6873C 8.97691 15.6985 9.21516 17.1174 9.60428 18.753C 10.3808 22.0168 11.7658 26.1769 14.2043 29.6789L 15.0249 29.1074ZM 9.42057 13.4447L 18.3965 7.62371L 17.8524 6.7847L 8.87646 12.6057L 9.42057 13.4447ZM 18.624 7.18451L 18.4514 2.80436L 17.4522 2.84374L 17.6248 7.22389L 18.624 7.18451ZM 18.295 2.46044L 15.303 -0.36361L 14.6166 0.363609L 17.6086 3.18766L 18.295 2.46044Z"/>
<path id="path17_stroke" d="M 3.85504 8.64504L 3.72673 8.8596L 3.85667 8.9373L 3.98573 8.85815L 3.85504 8.64504ZM -0.12831 6.55426L 3.72673 8.8596L 3.98335 8.43048L 0.12831 6.12513L -0.12831 6.55426ZM 3.98573 8.85815L 18.0825 0.213117L 17.8211 -0.213116L 3.72434 8.43192L 3.98573 8.85815Z"/>
<path id="path18_fill" d="M 0.000900075 -1.75884e-06C 0.000900075 -1.75884e-06 -0.344326 22.016 12.4866 26.9149L 0.000900075 -1.75884e-06Z"/>
<path id="path19_stroke" d="M 0.000900075 -1.75884e-06C -0.249069 -0.00392145 -0.249072 -0.0037658 -0.249075 -0.00352645C -0.249078 -0.00333483 -0.249083 -0.00301154 -0.249089 -0.00262879C -0.2491 -0.00186319 -0.249115 -0.000763641 -0.249134 0.000667518C -0.249173 0.00352983 -0.249225 0.00771862 -0.249286 0.0132152C -0.249407 0.0242083 -0.24956 0.0404329 -0.249694 0.0617396C -0.24996 0.104352 -0.250148 0.167296 -0.249843 0.249374C -0.249232 0.413527 -0.246651 0.654241 -0.238792 0.961951C -0.223074 1.57733 -0.186238 2.4609 -0.101791 3.53612C 0.0670463 5.68582 0.426478 8.60525 1.18951 11.6806C 2.71098 17.8127 5.85991 24.6524 12.3974 27.1484L 12.5758 26.6813C 6.28238 24.2785 3.18845 17.6608 1.6748 11.5602C 0.92027 8.51913 0.564074 5.62838 0.396674 3.49697C 0.313004 2.43164 0.276568 1.55695 0.261045 0.949184C 0.253284 0.645325 0.250752 0.408254 0.250154 0.247515C 0.249855 0.167147 0.25004 0.105867 0.250296 0.0648686C 0.250425 0.0443694 0.250571 0.0289411 0.250684 0.0187328C 0.25074 0.0136286 0.250788 0.00982953 0.250821 0.00735416C 0.250838 0.00611647 0.25085 0.00520972 0.250859 0.00463624C 0.250863 0.00434944 0.250866 0.00416999 0.250868 0.00402626C 0.250869 0.00393025 0.250869 0.00391793 0.000900075 -1.75884e-06Z"/>
<path id="path20_stroke" d="M 18.5461 0.979538C 11.3953 3.95923 6.80153 3.64277 4.01318 2.6182C 2.6167 2.10507 1.66299 1.41088 1.06053 0.849152C 0.759109 0.568117 0.5454 0.320027 0.408173 0.144093C 0.339568 0.0561363 0.290116 -0.0137384 0.258413 -0.0606132C 0.242563 -0.0840484 0.231155 -0.101727 0.224014 -0.113032C 0.220443 -0.118684 0.21794 -0.122743 0.216481 -0.12513C 0.215752 -0.126323 0.215285 -0.127099 0.215075 -0.127447C 0.214971 -0.127621 0.214931 -0.127688 0.214955 -0.127647C 0.214967 -0.127627 0.215034 -0.127514 0.21504 -0.127504C 0.215123 -0.127365 0.215221 -0.127199 -2.19489e-07 8.79419e-07C -0.215222 0.1272 -0.215091 0.127422 -0.214943 0.127671C -0.214872 0.12779 -0.214708 0.128067 -0.214565 0.128306C -0.21428 0.128784 -0.213929 0.129372 -0.213511 0.130067C -0.212675 0.131459 -0.211572 0.133282 -0.2102 0.135529C -0.207456 0.140021 -0.203632 0.146205 -0.198708 0.154001C -0.188859 0.169591 -0.174603 0.191635 -0.155756 0.219501C -0.118065 0.27523 -0.0619935 0.35428 0.0139202 0.451606C 0.165731 0.646238 0.397041 0.914149 0.719551 1.21485C 1.36494 1.8166 2.37471 2.54884 3.84073 3.08752C 6.7774 4.16659 11.5048 4.45528 18.7384 1.44107L 18.5461 0.979538Z"/>
</defs>
</svg>
