<svg width="93" height="157" viewBox="0 0 93 157" version="1.1" xmlns="http://www.w3.org/2000/svg" xmlns:xlink="http://www.w3.org/1999/xlink">
<title>award</title>
<desc>Created using Figma</desc>
<g id="Canvas" transform="translate(1702 -21847)">
<g id="award">
<g id="Vector">
<use xlink:href="#path0_fill" transform="matrix(-1 0 0 1 -1675.37 21848)" fill="#0072FF"/>
<use xlink:href="#path1_stroke" transform="matrix(-1 0 0 1 -1675.37 21848)" fill="#FFFFF2"/>
</g>
<g id="Vector">
<use xlink:href="#path2_fill" transform="matrix(-1 0 0 1 -1685.55 21861.9)" fill="#0072FF"/>
<use xlink:href="#path3_stroke" transform="matrix(-1 0 0 1 -1685.55 21861.9)" fill="#FFFFF2"/>
</g>
<g id="Vector">
<use xlink:href="#path4_stroke" transform="matrix(-1 0 0 1 -1680.57 21850.8)" fill="#FFFFF2"/>
</g>
<g id="Vector">
<use xlink:href="#path5_fill" transform="matrix(-1 0 0 1 -1626.34 21948.5)" fill="#0072FF"/>
<use xlink:href="#path6_stroke" transform="matrix(-1 0 0 1 -1626.34 21948.5)" fill="#FFFFF2"/>
</g>
<g id="Vector">
<use xlink:href="#path7_fill" transform="matrix(-1 0 0 1 -1626.34 21968.1)" fill="#0072FF"/>
<use xlink:href="#path8_stroke" transform="matrix(-1 0 0 1 -1626.34 21968.1)" fill="#FFFFF2"/>
</g>
<g id="Vector">
<use xlink:href="#path9_fill" transform="matrix(-1 0 0 1 -1626.34 21859.2)" fill="#0072FF"/>
<use xlink:href="#path10_stroke" transform="matrix(-1 0 0 1 -1626.34 21859.2)" fill="#FFFFF2"/>
</g>
<g id="Vector">
<use xlink:href="#path11_fill" transform="matrix(-1 0 0 1 -1626.34 21878.9)" fill="#0072FF"/>
<use xlink:href="#path12_stroke" transform="matrix(-1 0 0 1 -1626.34 21878.9)" fill="#FFFFF2"/>
</g>
<g id="Vector">
<use xlink:href="#path13_fill" transform="matrix(-1 0 0 1 -1634.14 21863.6)" fill="#0072FF"/>
<use xlink:href="#path14_stroke" transform="matrix(-1 0 0 1 -1634.14 21863.6)" fill="#FFFFF2"/>
</g>
<g id="Vector">
<use xlink:href="#path15_fill" transform="matrix(-1 0 0 1 -1610 21887.1)" fill="#0072FF"/>
<use xlink:href="#path16_stroke" transform="matrix(-1 0 0 1 -1610 21887.1)" fill="#FFFFF2"/>
</g>
<g id="Vector">
<use xlink:href="#path17_stroke" transform="matrix(-1 0 0 1 -1610 21890.8)" fill="#FFFFF2"/>
</g>
<g id="Vector">
<use xlink:href="#path18_fill" transform="matrix(-1 0 0 1 -1614.98 21902)" fill="#0072FF"/>
<use xlink:href="#path19_stroke" transform="matrix(-1 0 0 1 -1614.98 21902)" fill="#FFFFF2"/>
</g>
<g id="Vector">
<use xlink:href="#path20_stroke" transform="matrix(-1 0 0 1 -1629.24 21926.5)" fill="#FFFFF2"/>
</g>
</g>
</g>
<defs>
<path id="path0_fill" d="M 0 12.8106L 21.5429 1.78613e-08L 25.6286 2.77188C 25.6286 2.77188 24.5143 19.0286 18.5714 34.5361C 12.6286 50.0436 0 12.8106 0 12.8106Z"/>
<path id="path1_stroke" d="M 0 12.8106L -0.255557 12.3808L -0.603553 12.5877L -0.473505 12.9712L 0 12.8106ZM 21.5429 1.78613e-08L 21.8236 -0.413765L 21.5605 -0.592226L 21.2873 -0.429757L 21.5429 1.78613e-08ZM 25.6286 2.77188L 26.1274 2.80607L 26.1471 2.51942L 25.9093 2.35811L 25.6286 2.77188ZM 0.255557 13.2403L 21.7984 0.429757L 21.2873 -0.429757L -0.255557 12.3808L 0.255557 13.2403ZM 21.2621 0.413765L 25.3479 3.18564L 25.9093 2.35811L 21.8236 -0.413765L 21.2621 0.413765ZM 25.6286 2.77188C 25.1297 2.73768 25.1297 2.73767 25.1297 2.73772C 25.1297 2.73782 25.1297 2.73794 25.1297 2.73814C 25.1297 2.73853 25.1296 2.73918 25.1296 2.74007C 25.1295 2.74185 25.1293 2.74461 25.129 2.74835C 25.1285 2.75583 25.1277 2.76721 25.1265 2.78243C 25.1243 2.81286 25.1209 2.85863 25.1161 2.91923C 25.1067 3.04043 25.0919 3.22092 25.071 3.45656C 25.0293 3.92784 24.9629 4.61964 24.8647 5.49878C 24.6683 7.25718 24.3445 9.76429 23.8357 12.7548C 22.8175 18.7385 21.0601 26.6447 18.1045 34.3572L 19.0383 34.715C 22.0256 26.9199 23.7968 18.9441 24.8215 12.9225C 25.334 9.91041 25.6603 7.38413 25.8585 5.6098C 25.9576 4.72256 26.0247 4.02316 26.0671 3.54483C 26.0883 3.30566 26.1033 3.12174 26.1131 2.99723C 26.118 2.93498 26.1215 2.88758 26.1239 2.85554C 26.125 2.83952 26.1259 2.82735 26.1265 2.81908C 26.1268 2.81495 26.127 2.81179 26.1272 2.80962C 26.1272 2.80853 26.1273 2.80769 26.1273 2.8071C 26.1274 2.80681 26.1274 2.80655 26.1274 2.8064C 26.1274 2.8062 26.1274 2.80607 25.6286 2.77188ZM 18.1045 34.3572C 17.375 36.2608 16.5858 37.2293 15.8401 37.6095C 15.1417 37.9655 14.3568 37.8623 13.4346 37.2642C 12.5016 36.6591 11.5059 35.5901 10.4889 34.1838C 9.47714 32.7849 8.46786 31.0855 7.49908 29.2548C 5.56169 25.5937 3.80525 21.4438 2.53141 18.203C 1.89501 16.5839 1.38014 15.1945 1.02449 14.2102C 0.846676 13.7181 0.70871 13.3274 0.615301 13.06C 0.568597 12.9263 0.533036 12.8235 0.509206 12.7542C 0.497291 12.7196 0.48831 12.6934 0.482335 12.6759C 0.479347 12.6671 0.477112 12.6606 0.475637 12.6562C 0.4749 12.6541 0.474353 12.6525 0.473997 12.6514C 0.473819 12.6509 0.473696 12.6505 0.473607 12.6503C 0.473532 12.65 0.473505 12.65 0 12.8106C -0.473505 12.9712 -0.473436 12.9714 -0.473318 12.9717C -0.473215 12.972 -0.473049 12.9725 -0.472843 12.9731C -0.47243 12.9743 -0.471826 12.9761 -0.471031 12.9784C -0.469441 12.9831 -0.467089 12.99 -0.463983 12.9991C -0.457773 13.0173 -0.44855 13.0442 -0.43639 13.0796C -0.412068 13.1503 -0.375991 13.2546 -0.32875 13.3898C -0.234268 13.6603 -0.0951137 14.0543 0.0839966 14.55C 0.442185 15.5414 0.960343 16.9396 1.60073 18.5688C 2.88046 21.8246 4.65259 26.0138 6.61521 29.7225C 7.59643 31.5767 8.63 33.3199 9.67855 34.7698C 10.7218 36.2124 11.8038 37.3984 12.8904 38.1032C 13.9878 38.8149 15.1646 39.0763 16.2943 38.5004C 17.3767 37.9485 18.2821 36.6882 19.0383 34.715L 18.1045 34.3572Z"/>
<path id="path2_fill" d="M -2.26702e-06 3.89561L 7.50286 5.7156e-07L 5.64572 9.36445"/>
<path id="path3_stroke" d="M 7.50286 5.7156e-07L 7.74808 0.0486331L 7.84926 -0.461547L 7.38766 -0.221875L 7.50286 5.7156e-07ZM 0.115199 4.11748L 7.61806 0.221876L 7.38766 -0.221875L -0.115204 3.67373L 0.115199 4.11748ZM 7.25764 -0.0486319L 5.40049 9.31581L 5.89094 9.41308L 7.74808 0.0486331L 7.25764 -0.0486319Z"/>
<path id="path4_stroke" d="M 20.2997 -0.214239L -0.128848 12.0719L 0.128848 12.5004L 20.5574 0.214239L 20.2997 -0.214239Z"/>
<path id="path5_fill" d="M 34.6914 -2.28624e-06C 15.5257 -2.28624e-06 0 8.84004 0 19.7028L 0 34.8357C 0 45.6985 15.5257 54.5385 34.6914 54.5385C 53.8571 54.5385 69.3829 45.6985 69.3829 34.8357L 69.3829 19.7028C 69.3829 8.76512 53.8571 -2.28624e-06 34.6914 -2.28624e-06Z"/>
<path id="path6_stroke" d="M 34.6914 -0.500002C 25.038 -0.500002 16.2768 1.72522 9.9115 5.34317C 3.56112 8.95265 -0.5 14.0129 -0.5 19.7028L 0.5 19.7028C 0.5 14.5299 4.20173 9.73878 10.4056 6.21255C 16.5946 2.6948 25.1791 0.499998 34.6914 0.499998L 34.6914 -0.500002ZM -0.5 19.7028L -0.5 34.8357L 0.5 34.8357L 0.5 19.7028L -0.5 19.7028ZM -0.5 34.8357C -0.5 40.5256 3.56112 45.5859 9.9115 49.1954C 16.2768 52.8133 25.038 55.0385 34.6914 55.0385L 34.6914 54.0385C 25.1791 54.0385 16.5946 51.8437 10.4056 48.326C 4.20173 44.7997 0.5 40.0086 0.5 34.8357L -0.5 34.8357ZM 34.6914 55.0385C 44.3448 55.0385 53.1061 52.8133 59.4714 49.1954C 65.8217 45.5859 69.8829 40.5256 69.8829 34.8357L 68.8829 34.8357C 68.8829 40.0086 65.1811 44.7997 58.9772 48.326C 52.7882 51.8437 44.2037 54.0385 34.6914 54.0385L 34.6914 55.0385ZM 69.8829 34.8357L 69.8829 19.7028L 68.8829 19.7028L 68.8829 34.8357L 69.8829 34.8357ZM 69.8829 19.7028C 69.8829 13.976 65.8225 8.9155 59.4709 5.3148C 53.1053 1.70617 44.3441 -0.500002 34.6914 -0.500002L 34.6914 0.499998C 44.2045 0.499998 52.789 2.67639 58.9777 6.18474C 65.1804 9.70102 68.8829 14.4919 68.8829 19.7028L 69.8829 19.7028Z"/>
<path id="path7_fill" d="M 69.3829 -4.57248e-06C 69.3829 10.8628 53.8571 19.7028 34.6914 19.7028C 15.5257 19.7028 0 10.8628 0 -4.57248e-06"/>
<path id="path8_stroke" d="M 69.1329 -4.57248e-06C 69.1329 5.30213 65.3413 10.1605 59.1007 13.7076C 52.8677 17.2504 44.239 19.4528 34.6914 19.4528L 34.6914 19.9528C 44.3096 19.9528 53.0266 17.7352 59.3478 14.1423C 65.6616 10.5536 69.6329 5.56061 69.6329 -4.57248e-06L 69.1329 -4.57248e-06ZM 34.6914 19.4528C 25.1439 19.4528 16.5152 17.2504 10.2821 13.7076C 4.04158 10.1605 0.25 5.30213 0.25 -4.57248e-06L -0.25 -4.57248e-06C -0.25 5.56061 3.72128 10.5536 10.035 14.1423C 16.3562 17.7352 25.0733 19.9528 34.6914 19.9528L 34.6914 19.4528Z"/>
<path id="path9_fill" d="M 42.3429 94.2438C 41.8971 90.5729 41.4514 84.6546 42.12 77.8373C 43.2343 66.3752 67.7486 58.584 69.8286 19.7028L 69.8286 19.4031C 69.8286 8.54037 53.9314 -1.06461e-14 34.7657 -1.06461e-14C 15.6 -1.06461e-14 0 8.84003 0 19.7028C 0 20.2272 0.074286 20.6767 0.074286 21.1262C 2.67429 58.7338 26.52 66.4501 27.6343 77.7623C 28.3029 84.5797 27.8571 90.5729 27.4114 94.2438C 17.3086 96.0417 9.95429 101.286 9.95429 107.504C 9.95429 115.22 21.1714 121.438 34.9886 121.438C 48.8057 121.438 60.0229 115.22 60.0229 107.504C 60.0971 101.286 52.5943 95.9668 42.3429 94.2438Z"/>
<path id="path10_stroke" d="M 42.3429 94.2438L 41.8465 94.304L 41.8915 94.6749L 42.26 94.7368L 42.3429 94.2438ZM 42.12 77.8373L 42.6176 77.8861L 42.6176 77.8856L 42.12 77.8373ZM 69.8286 19.7028L 70.3279 19.7295L 70.3286 19.7162L 70.3286 19.7028L 69.8286 19.7028ZM 0.074286 21.1262L -0.425714 21.1262L -0.425714 21.1434L -0.424523 21.1607L 0.074286 21.1262ZM 27.6343 77.7623L 28.1319 77.7135L 28.1319 77.7133L 27.6343 77.7623ZM 27.4114 94.2438L 27.499 94.736L 27.8632 94.6712L 27.9078 94.304L 27.4114 94.2438ZM 60.0229 107.504L 59.5229 107.498L 59.5229 107.504L 60.0229 107.504ZM 42.8392 94.1835C 42.3963 90.5356 41.9537 84.6558 42.6176 77.8861L 41.6224 77.7885C 40.9492 84.6533 41.398 90.6103 41.8465 94.304L 42.8392 94.1835ZM 42.6176 77.8856C 42.8801 75.1858 44.5264 72.6526 47.0093 69.7082C 48.2462 68.2413 49.6669 66.6985 51.2003 64.9922C 52.7298 63.2901 54.3624 61.4351 56.0041 59.3627C 62.5842 51.0559 69.2814 39.2913 70.3279 19.7295L 69.3293 19.6761C 68.2958 38.9955 61.6958 50.567 55.2202 58.7417C 53.5979 60.7897 51.9817 62.6266 50.4565 64.3238C 48.9352 66.0167 47.4953 67.5806 46.2448 69.0635C 43.7529 72.0187 41.917 74.7577 41.6223 77.7889L 42.6176 77.8856ZM 70.3286 19.7028L 70.3286 19.4031L 69.3286 19.4031L 69.3286 19.7028L 70.3286 19.7028ZM 70.3286 19.4031C 70.3286 13.7054 66.1646 8.72087 59.7247 5.18962C 53.2678 1.64902 44.4161 -0.5 34.7657 -0.5L 34.7657 0.5C 44.281 0.5 52.9608 2.62117 59.2439 6.06645C 65.544 9.52107 69.3286 14.2381 69.3286 19.4031L 70.3286 19.4031ZM 34.7657 -0.5C 25.1123 -0.5 16.3328 1.72521 9.94919 5.34286C 3.58103 8.95177 -0.5 14.0119 -0.5 19.7028L 0.5 19.7028C 0.5 14.5309 4.21897 9.73966 10.4422 6.21286C 16.6501 2.69481 25.2534 0.5 34.7657 0.5L 34.7657 -0.5ZM -0.5 19.7028C -0.5 19.9871 -0.479815 20.2486 -0.461291 20.4821C -0.442306 20.7214 -0.425714 20.9251 -0.425714 21.1262L 0.574286 21.1262C 0.574286 20.8777 0.553735 20.6319 0.535577 20.403C 0.516958 20.1683 0.5 19.9429 0.5 19.7028L -0.5 19.7028ZM -0.424523 21.1607C 0.883806 40.0849 7.54475 51.5101 14.0208 59.6171C 15.6365 61.6397 17.2391 63.4539 18.7382 65.1215C 20.2408 66.7929 21.6313 68.3082 22.8404 69.7504C 25.2675 72.6453 26.8742 75.1468 27.1367 77.8114L 28.1319 77.7133C 27.8372 74.7217 26.0454 72.0166 23.6067 69.1079C 22.383 67.6483 20.9739 66.1126 19.4818 64.4529C 17.9863 62.7893 16.3992 60.9924 14.8021 58.993C 8.42668 51.0119 1.86477 39.775 0.573095 21.0917L -0.424523 21.1607ZM 27.1367 77.8111C 27.8006 84.581 27.358 90.5357 26.9151 94.1835L 27.9078 94.304C 28.3563 90.6101 28.8051 84.5783 28.1319 77.7135L 27.1367 77.8111ZM 27.3238 93.7515C 22.2165 94.6604 17.7741 96.4448 14.5954 98.8155C 11.4198 101.184 9.45429 104.181 9.45429 107.504L 10.4543 107.504C 10.4543 104.608 12.1659 101.875 15.1932 99.6171C 18.2173 97.3617 22.5035 95.6251 27.499 94.736L 27.3238 93.7515ZM 9.45429 107.504C 9.45429 111.625 12.4446 115.243 17.0471 117.802C 21.666 120.369 28.0115 121.938 34.9886 121.938L 34.9886 120.938C 28.1485 120.938 21.9769 119.398 17.5329 116.928C 13.0725 114.448 10.4543 111.098 10.4543 107.504L 9.45429 107.504ZM 34.9886 121.938C 41.9657 121.938 48.3111 120.369 52.9301 117.802C 57.5325 115.243 60.5229 111.625 60.5229 107.504L 59.5229 107.504C 59.5229 111.098 56.9046 114.448 52.4442 116.928C 48.0003 119.398 41.8286 120.938 34.9886 120.938L 34.9886 121.938ZM 60.5228 107.51C 60.5626 104.181 58.5732 101.162 55.3518 98.7858C 52.126 96.406 47.6086 94.6218 42.4257 93.7507L 42.26 94.7368C 47.3286 95.5888 51.6882 97.3257 54.7582 99.5905C 57.8325 101.859 59.5574 104.608 59.5229 107.498L 60.5228 107.51Z"/>
<path id="path11_fill" d="M 69.7543 -5.7156e-07C 69.7543 10.8628 54.2286 19.7028 35.0629 19.7028C 15.8971 19.7028 0 10.8628 0 -5.7156e-07"/>
<path id="path12_stroke" d="M 69.2543 -5.7156e-07C 69.2543 5.1729 65.5526 9.96401 59.3486 13.4902C 53.1596 17.008 44.5751 19.2028 35.0629 19.2028L 35.0629 20.2028C 44.7163 20.2028 53.4775 17.9776 59.8428 14.3596C 66.1932 10.7501 70.2543 5.68985 70.2543 -5.7156e-07L 69.2543 -5.7156e-07ZM 35.0629 19.2028C 25.5504 19.2028 16.8718 17.0079 10.5886 13.4887C 4.28794 9.95967 0.5 5.1677 0.5 -5.7156e-07L -0.5 -5.7156e-07C -0.5 5.69505 3.66063 10.7545 10.0999 14.3612C 16.5568 17.9776 25.4096 20.2028 35.0629 20.2028L 35.0629 19.2028Z"/>
<path id="path13_fill" d="M 26.8914 30.5655C 41.7431 30.5655 53.7829 23.7232 53.7829 15.2828C 53.7829 6.84233 41.7431 0 26.8914 0C 12.0397 0 0 6.84233 0 15.2828C 0 23.7232 12.0397 30.5655 26.8914 30.5655Z"/>
<path id="path14_stroke" d="M 53.5329 15.2828C 53.5329 19.3739 50.6126 23.1272 45.783 25.872C 40.9607 28.6125 34.2821 30.3155 26.8914 30.3155L 26.8914 30.8155C 34.3525 30.8155 41.1196 29.0974 46.0301 26.3067C 50.9332 23.5201 54.0329 19.6321 54.0329 15.2828L 53.5329 15.2828ZM 26.8914 30.3155C 19.5008 30.3155 12.8221 28.6125 7.99984 25.872C 3.17022 23.1272 0.25 19.3739 0.25 15.2828L -0.25 15.2828C -0.25 19.6321 2.84963 23.5201 7.75279 26.3067C 12.6633 29.0974 19.4303 30.8155 26.8914 30.8155L 26.8914 30.3155ZM 0.25 15.2828C 0.25 11.1917 3.17022 7.43831 7.99984 4.69357C 12.8221 1.953 19.5008 0.25 26.8914 0.25L 26.8914 -0.25C 19.4303 -0.25 12.6633 1.46816 7.75279 4.25887C 2.84963 7.04541 -0.25 10.9334 -0.25 15.2828L 0.25 15.2828ZM 26.8914 0.25C 34.2821 0.25 40.9607 1.953 45.783 4.69357C 50.6126 7.43831 53.5329 11.1917 53.5329 15.2828L 54.0329 15.2828C 54.0329 10.9334 50.9332 7.04541 46.0301 4.25887C 41.1196 1.46816 34.3525 -0.25 26.8914 -0.25L 26.8914 0.25Z"/>
<path id="path15_fill" d="M 19.3143 -5.7156e-07L 0 11.9116C 0 11.9116 1.33714 42.552 17.2343 48.9948C 33.1314 55.4375 45.1657 45.5487 45.1657 45.5487L 43.3829 40.9788L 39.0743 38.2069C 39.0743 38.2069 25.0343 47.1219 18.8686 38.2069C 12.7029 29.292 11.8114 16.9309 11.8114 16.9309L 23.4 9.36445L 23.1771 3.67086L 19.3143 -5.7156e-07Z"/>
<path id="path16_stroke" d="M 19.3143 -5.7156e-07L 19.6587 -0.362446L 19.3796 -0.62771L 19.0518 -0.425575L 19.3143 -5.7156e-07ZM 0 11.9116L -0.262462 11.486L -0.512323 11.6401L -0.499525 11.9334L 0 11.9116ZM 45.1657 45.5487L 45.4832 45.935L 45.7633 45.7048L 45.6315 45.3669L 45.1657 45.5487ZM 43.3829 40.9788L 43.8487 40.7971L 43.7897 40.646L 43.6534 40.5583L 43.3829 40.9788ZM 39.0743 38.2069L 39.3448 37.7864L 39.076 37.6135L 38.8063 37.7848L 39.0743 38.2069ZM 11.8114 16.9309L 11.5381 16.5123L 11.2915 16.6732L 11.3127 16.9669L 11.8114 16.9309ZM 23.4 9.36445L 23.6734 9.78311L 23.9107 9.62814L 23.8996 9.34489L 23.4 9.36445ZM 23.1771 3.67086L 23.6768 3.65131L 23.6688 3.44834L 23.5216 3.30842L 23.1771 3.67086ZM 19.0518 -0.425575L -0.262462 11.486L 0.262462 12.3371L 19.5767 0.425574L 19.0518 -0.425575ZM 0 11.9116C -0.499525 11.9334 -0.499514 11.9336 -0.499498 11.934C -0.499486 11.9342 -0.499465 11.9347 -0.499441 11.9353C -0.499392 11.9364 -0.499321 11.9379 -0.499229 11.94C -0.499044 11.944 -0.498771 11.9499 -0.498403 11.9576C -0.497667 11.973 -0.496553 11.9958 -0.495009 12.0255C -0.491921 12.0851 -0.487116 12.173 -0.480189 12.2875C -0.466336 12.5164 -0.443993 12.8518 -0.409923 13.2804C -0.341788 14.1374 -0.226719 15.3671 -0.0387742 16.8622C 0.33695 19.8511 1.00471 23.9072 2.17352 28.1694C 3.34156 32.4288 5.01506 36.9131 7.41079 40.7474C 9.80654 44.5818 12.9433 47.7952 17.0465 49.4582L 17.4221 48.5314C 13.5767 46.9729 10.5849 43.9403 8.25886 40.2175C 5.9328 36.4947 4.2913 32.1109 3.13791 27.9049C 1.98529 23.7017 1.32519 19.695 0.953417 16.7374C 0.767612 15.2594 0.65402 14.0449 0.586932 13.2011C 0.55339 12.7792 0.531481 12.4501 0.517985 12.2271C 0.511237 12.1155 0.506593 12.0306 0.503651 11.9738C 0.502179 11.9454 0.501133 11.9241 0.500462 11.91C 0.500127 11.903 0.499885 11.8977 0.499731 11.8944C 0.499654 11.8927 0.499599 11.8914 0.499565 11.8907C 0.499548 11.8903 0.499538 11.8901 0.499529 11.8899C 0.499524 11.8898 0.499525 11.8898 0 11.9116ZM 17.0465 49.4582C 25.129 52.7338 32.2378 51.8577 37.3197 50.162C 39.8587 49.3149 41.893 48.2631 43.2943 47.4218C 43.9953 47.001 44.5387 46.6324 44.9086 46.3675C 45.0936 46.2351 45.2353 46.1285 45.3317 46.0543C 45.3799 46.0172 45.4168 45.9882 45.4421 45.968C 45.4548 45.9579 45.4646 45.9501 45.4714 45.9445C 45.4748 45.9418 45.4775 45.9396 45.4795 45.938C 45.4805 45.9372 45.4813 45.9365 45.4819 45.936C 45.4822 45.9358 45.4825 45.9355 45.4826 45.9354C 45.4829 45.9352 45.4832 45.935 45.1657 45.5487C 44.8483 45.1623 44.8484 45.1622 44.8485 45.1622C 44.8485 45.1622 44.8485 45.1622 44.8485 45.1622C 44.8483 45.1623 44.848 45.1625 44.8475 45.1629C 44.8466 45.1637 44.8449 45.1651 44.8425 45.1671C 44.8376 45.171 44.8299 45.1772 44.8193 45.1857C 44.7981 45.2025 44.7655 45.2282 44.7216 45.262C 44.634 45.3295 44.5016 45.4291 44.3265 45.5544C 43.9762 45.8052 43.4553 46.1588 42.7796 46.5644C 41.4277 47.376 39.4599 48.3937 37.0032 49.2134C 32.0937 50.8516 25.2367 51.6985 17.4221 48.5314L 17.0465 49.4582ZM 45.6315 45.3669L 43.8487 40.7971L 42.917 41.1605L 44.6999 45.7304L 45.6315 45.3669ZM 43.6534 40.5583L 39.3448 37.7864L 38.8038 38.6274L 43.1123 41.3993L 43.6534 40.5583ZM 39.0743 38.2069C 38.8063 37.7848 38.8063 37.7848 38.8064 37.7848C 38.8063 37.7848 38.8063 37.7848 38.8062 37.7849C 38.8059 37.7851 38.8055 37.7854 38.8048 37.7858C 38.8034 37.7866 38.8013 37.788 38.7982 37.7899C 38.7922 37.7937 38.7829 37.7995 38.7702 37.8074C 38.745 37.823 38.7068 37.8465 38.6563 37.8771C 38.5552 37.9382 38.405 38.0275 38.2108 38.1385C 37.8224 38.3606 37.2589 38.6691 36.5631 39.0121C 35.1693 39.6994 33.2546 40.5203 31.1576 41.0662C 26.9341 42.1656 22.1757 42.1097 19.2798 37.9225L 18.4573 38.4913C 21.7271 43.2191 27.0716 43.1632 31.4095 42.0339C 33.5933 41.4654 35.574 40.6148 37.0053 39.9091C 37.7221 39.5557 38.3036 39.2373 38.7071 39.0067C 38.9089 38.8913 39.0663 38.7978 39.1739 38.7327C 39.2277 38.7001 39.2691 38.6747 39.2974 38.6571C 39.3115 38.6484 39.3224 38.6416 39.3299 38.6368C 39.3337 38.6345 39.3366 38.6326 39.3387 38.6313C 39.3397 38.6307 39.3405 38.6302 39.3411 38.6298C 39.3414 38.6296 39.3417 38.6294 39.3419 38.6293C 39.3421 38.6292 39.3423 38.629 39.0743 38.2069ZM 19.2798 37.9225C 16.2472 33.5377 14.5012 28.2866 13.5145 24.1108C 13.0219 22.0266 12.7205 20.2187 12.5423 18.933C 12.4532 18.2903 12.395 17.7785 12.3592 17.4285C 12.3412 17.2535 12.3289 17.119 12.3211 17.0287C 12.3172 16.9836 12.3144 16.9496 12.3126 16.9272C 12.3117 16.9159 12.3111 16.9076 12.3107 16.9022C 12.3105 16.8995 12.3103 16.8975 12.3102 16.8963C 12.3102 16.8957 12.3102 16.8953 12.3101 16.8951C 12.3101 16.895 12.3101 16.8949 12.3101 16.8949C 12.3101 16.8949 12.3101 16.895 11.8114 16.9309C 11.3127 16.9669 11.3127 16.967 11.3127 16.9672C 11.3128 16.9674 11.3128 16.9676 11.3128 16.9679C 11.3128 16.9684 11.3129 16.9691 11.313 16.97C 11.3131 16.9718 11.3133 16.9743 11.3135 16.9776C 11.314 16.9842 11.3148 16.9937 11.3157 17.0061C 11.3177 17.031 11.3207 17.0675 11.3248 17.1151C 11.3331 17.2103 11.3459 17.35 11.3644 17.5304C 11.4013 17.8912 11.4609 18.4148 11.5518 19.0703C 11.7334 20.3808 12.0402 22.2204 12.5413 24.3408C 13.5417 28.5743 15.3243 33.9613 18.4573 38.4913L 19.2798 37.9225ZM 12.0848 17.3496L 23.6734 9.78311L 23.1266 8.94579L 11.5381 16.5123L 12.0848 17.3496ZM 23.8996 9.34489L 23.6768 3.65131L 22.6775 3.69042L 22.9004 9.384L 23.8996 9.34489ZM 23.5216 3.30842L 19.6587 -0.362446L 18.9699 0.362445L 22.8327 4.03331L 23.5216 3.30842Z"/>
<path id="path17_stroke" d="M 4.97714 11.2373L 4.84819 11.4515L 4.97878 11.5301L 5.10848 11.45L 4.97714 11.2373ZM -0.128951 8.45488L 4.84819 11.4515L 5.10609 11.0232L 0.128951 8.02653L -0.128951 8.45488ZM 5.10848 11.45L 23.3085 0.21272L 23.0458 -0.212719L 4.8458 11.0246L 5.10848 11.45Z"/>
<path id="path18_fill" d="M 0.00116206 -2.28624e-06C 0.00116206 -2.28624e-06 -0.444551 28.6177 16.1212 34.9856L 0.00116206 -2.28624e-06Z"/>
<path id="path19_stroke" d="M 0.00116206 -2.28624e-06C -0.248808 -0.00389549 -0.24881 -0.00371514 -0.248815 -0.003426C -0.248818 -0.00318426 -0.248824 -0.00278608 -0.248831 -0.00230328C -0.248845 -0.00133755 -0.248865 6.21477e-05 -0.248889 0.00189279C -0.248938 0.00555408 -0.249005 0.0109392 -0.249083 0.0180238C -0.249238 0.032193 -0.249435 0.0531606 -0.249606 0.0807325C -0.249949 0.135876 -0.25019 0.217438 -0.249797 0.323866C -0.249011 0.536719 -0.245687 0.849055 -0.235554 1.24844C -0.215291 2.04718 -0.167794 3.19434 -0.0588841 4.59046C 0.158878 7.38196 0.62244 11.1724 1.60628 15.1647C 3.56931 23.1302 7.62643 31.988 16.0315 35.2189L 16.2109 34.7522C 8.05018 31.6153 4.04731 22.9803 2.09176 15.045C 1.11631 11.0869 0.655946 7.3249 0.439601 4.55157C 0.331458 3.16528 0.284356 2.02693 0.264285 1.23576C 0.25425 0.840199 0.250973 0.531482 0.250199 0.32202C 0.249812 0.217291 0.250051 0.13738 0.250384 0.0838404C 0.250551 0.0570705 0.25074 0.0368938 0.250887 0.0235041C 0.250961 0.0168092 0.251023 0.0118112 0.251067 0.00853426C 0.251089 0.00689578 0.251105 0.00568757 0.251117 0.00491267C 0.251122 0.00452517 0.251126 0.00426985 0.251129 0.00407568C 0.251131 0.00392891 0.251132 0.00389092 0.00116206 -2.28624e-06Z"/>
<path id="path20_stroke" d="M 23.9719 1.34269C 14.7277 5.22085 8.77785 4.81346 5.15674 3.47385C 3.3438 2.80316 2.10435 1.89528 1.32021 1.15918C 0.92796 0.790968 0.649445 0.46554 0.470108 0.234054C 0.380448 0.118322 0.315617 0.0261204 0.273793 -0.0361397C 0.252882 -0.0672675 0.237729 -0.0909027 0.228104 -0.106243C 0.223292 -0.113912 0.219862 -0.119508 0.217787 -0.122927C 0.21675 -0.124637 0.216051 -0.125803 0.215687 -0.126413C 0.215505 -0.126718 0.215407 -0.126883 0.215392 -0.126908C 0.215385 -0.126921 0.215436 -0.126834 0.215432 -0.12684C 0.215505 -0.126718 0.215597 -0.12656 -2.83377e-07 1.14312e-06C -0.215598 0.126562 -0.215463 0.126791 -0.215307 0.127056C -0.215227 0.127192 -0.215049 0.127493 -0.214889 0.127765C -0.214567 0.128308 -0.21416 0.128994 -0.213667 0.129819C -0.212682 0.131471 -0.211353 0.133683 -0.209677 0.136445C -0.206326 0.141968 -0.201588 0.149685 -0.195432 0.159496C -0.183121 0.179117 -0.16514 0.207115 -0.141254 0.242672C -0.0934855 0.313782 -0.0220784 0.415161 0.0748467 0.540271C 0.268679 0.790468 0.564717 1.13577 0.978002 1.52373C 1.80493 2.29999 3.10048 3.24627 4.98326 3.94279C 8.75358 5.3376 14.838 5.71682 24.1653 1.80376L 23.9719 1.34269Z"/>
</defs>
</svg>
