<svg width="94" height="24" viewBox="0 0 94 24" fill="none" xmlns="http://www.w3.org/2000/svg">
<g opacity="0.9">
<path d="M26.844 23.8072C28.0465 23.5308 29.0051 23.1089 29.862 22.4788C31.9463 20.9463 33.0884 18.5964 33.1938 15.6235C33.2978 12.6928 32.4 10.1945 30.664 8.58365C29.2548 7.27608 27.4791 6.64931 25.1836 6.64931C22.7503 6.64931 20.7906 7.3921 19.283 8.88588C17.668 10.486 16.8138 12.7181 16.8138 15.338C16.8138 18.0558 17.5856 20.2498 19.0823 21.7869C19.9075 22.6344 20.7108 23.1426 21.8628 23.5461C22.27 23.6887 22.5697 23.7572 23.6587 23.9565C23.7519 23.9736 24.3771 23.9767 25.048 23.9636C25.9563 23.9457 26.4151 23.9058 26.844 23.8072ZM24.2725 22.859C23.1593 22.3618 22.3699 20.8505 21.9743 18.4592C21.7235 16.9433 21.6998 13.5722 21.9284 11.9204C22.2493 9.60077 22.9272 8.23034 23.9828 7.7674C24.7064 7.45009 25.7091 7.63781 26.3539 8.21129C27.7858 9.48494 28.5086 13.1066 28.1967 17.4459C27.973 20.5597 27.2866 22.2485 26.0063 22.8354C25.5421 23.0481 24.7211 23.0593 24.2725 22.859ZM56.2229 23.8963C58.2816 23.5924 59.7917 22.8963 61.0706 21.6619C62.9191 19.8776 63.8095 17.3593 63.6892 14.2557C63.6272 12.6578 63.3621 11.614 62.6895 10.3191C61.7782 8.56477 60.2195 7.33424 58.4498 6.97188C57.1223 6.70007 55.4142 6.91297 54.1156 7.51211C53.792 7.66143 53.4822 7.7836 53.4272 7.7836C53.3398 7.7836 53.3304 7.28951 53.3526 3.8918L53.3781 0L53.1062 0.053659C52.9567 0.0831718 51.4315 0.362962 49.7168 0.675416C48.0022 0.987869 46.5325 1.25895 46.4507 1.27782C46.3265 1.3065 46.3047 1.35313 46.318 1.56203C46.3329 1.79483 46.3523 1.81589 46.6022 1.87003C47.4613 2.05615 47.6143 2.12248 47.9337 2.44735C48.3251 2.84533 48.5018 3.35353 48.6178 4.4141C48.7102 5.25922 48.7307 19.8196 48.6425 21.9688L48.5902 23.2431L49.2891 23.3903C51.9354 23.9474 54.5732 24.1399 56.2229 23.8963ZM53.8052 22.8813C53.6683 22.8671 53.5218 22.8146 53.4796 22.7646C53.3635 22.6268 53.2376 13.5694 53.3151 10.9196L53.3765 8.8178L53.9187 8.66391C54.7186 8.43687 55.5797 8.47216 56.1902 8.757C57.4162 9.32902 58.2217 10.742 58.6399 13.0547C58.7762 13.808 58.7561 16.4245 58.6068 17.3555C58.2953 19.2996 57.7284 20.8 56.9392 21.7693C56.5566 22.2393 55.9212 22.6837 55.4244 22.829C55.1039 22.9227 54.417 22.9449 53.8052 22.8813ZM74.8921 23.8942C76.4624 23.6434 78.0087 22.9014 79.1201 21.8653C79.7289 21.2977 79.9308 21.0238 79.8461 20.8804C79.6202 20.4975 79.63 20.4979 79.0531 20.8468C78.1347 21.4022 77.6744 21.5554 76.5953 21.6644C75.3349 21.7917 74.1723 21.5843 73.098 21.0405C72.3853 20.6797 71.5313 19.85 71.1045 19.1036C70.522 18.0851 70.2059 16.8954 70.1116 15.3664C70.0721 14.7244 70.0806 14.5645 70.1572 14.5167C70.2094 14.4842 72.4692 14.4574 75.2159 14.4569L80.1801 14.4559V14.2628C80.1801 13.8239 80.0338 12.6443 79.9027 12.0259C79.3753 9.5392 77.9831 7.76604 75.998 7.05275C75.2078 6.76885 74.4603 6.64931 73.4752 6.64931C71.141 6.64931 69.2346 7.40311 67.7599 8.9092C66.5842 10.11 65.8866 11.4589 65.4608 13.3549C65.3325 13.9264 65.311 14.2233 65.311 15.4233C65.311 16.6145 65.3329 16.9217 65.4574 17.4726C66.2476 20.9722 68.5861 23.2769 71.9459 23.8672C72.7973 24.0168 74.052 24.0283 74.8921 23.8942V23.8942ZM70.126 13.3374C70.075 13.2561 70.2015 12.0685 70.3266 11.4533C70.6283 9.97061 71.1114 8.8999 71.776 8.24057C72.1336 7.88591 72.2967 7.77536 72.5883 7.6901C72.789 7.63143 73.0163 7.5836 73.0934 7.5838C73.4043 7.58463 73.7713 7.74085 74.0444 7.98869C74.7774 8.65391 75.1968 10.0824 75.2799 12.1969L75.3209 13.2406L74.6161 13.2793C73.2013 13.3569 70.1629 13.3962 70.126 13.3374ZM88.6516 23.9001C91.5309 23.4696 93.39 21.9495 93.8776 19.6269C94.1131 18.5053 94.0032 17.2582 93.5954 16.4242C93.0245 15.2566 92.0592 14.5516 89.6681 13.5564C87.8923 12.8172 86.8278 12.1906 86.3918 11.6279C86.0317 11.163 85.9146 10.8056 85.9194 10.1856C85.9267 9.25047 86.2867 8.53425 86.9741 8.08768C87.5495 7.71379 88.2707 7.62257 89.1103 7.81747C90.125 8.05299 90.888 8.66612 91.5771 9.79964C91.7964 10.1604 92.2472 11.173 92.4668 11.7979C92.5008 11.8948 92.5401 11.8989 92.7767 11.8301C92.9258 11.7868 93.0686 11.7307 93.0942 11.7055C93.1198 11.6803 93.1181 10.7245 93.0905 9.58141L93.0402 7.50312L92.7943 7.40061C92.3794 7.22763 91.2963 6.93757 90.583 6.80838C90.0463 6.71116 89.5741 6.68599 88.3127 6.68736C86.8071 6.68898 86.6842 6.69868 86.0623 6.86477C84.256 7.34724 82.9168 8.35082 82.217 9.7464C81.845 10.4881 81.7165 11.0598 81.7207 11.9538C81.7267 13.223 82.0781 14.16 82.855 14.9786C83.5235 15.683 84.3926 16.1855 85.8729 16.7237C87.0379 17.1472 88.2404 17.7385 88.6962 18.112C88.9641 18.3314 89.1745 18.5815 89.3315 18.8667C89.5547 19.2723 89.5662 19.326 89.5663 19.9605C89.5663 20.5718 89.5484 20.6652 89.3513 21.0748C88.8364 22.145 87.8062 22.6763 86.4568 22.5677C84.6233 22.4201 83.3325 21.2264 82.2816 18.7063C82.0075 18.049 81.9887 18.0354 81.572 18.1914L81.3807 18.263L81.4285 20.613C81.471 22.6987 81.4892 22.9726 81.59 23.0488C81.8914 23.2763 83.842 23.7321 85.1952 23.8912C86.2457 24.0148 87.8572 24.0189 88.6516 23.9001H88.6516ZM12.1376 23.1632C12.1376 22.9613 12.1192 22.7962 12.0969 22.7962C11.7739 22.7962 10.2692 22.4767 10.0273 22.3568C9.16673 21.9302 8.76891 20.9163 8.61455 18.7559C8.50482 17.2203 8.39563 12.7087 8.4665 12.6389C8.53076 12.5756 11.3961 12.688 11.7309 12.7669C12.6568 12.9852 13.3705 13.8819 13.7278 15.2759L13.8853 15.8904L14.2991 15.9103L14.7129 15.9301V12.057V8.18393H14.2724C13.8605 8.18393 13.8318 8.19372 13.8318 8.33427C13.8318 8.58708 13.5748 9.38707 13.3314 9.89156C12.9503 10.6817 12.4135 11.1586 11.7309 11.3136C11.5632 11.3517 10.7714 11.4127 9.97143 11.4492C8.84313 11.5006 8.50459 11.4973 8.46204 11.4344C8.38339 11.3181 8.56267 2.53329 8.65203 2.1251L8.68571 1.97122L11.1741 1.99165L13.6624 2.01209L14.2415 2.21625C15.5827 2.68916 16.5478 3.65485 17.3541 5.33084C17.5353 5.70737 17.7675 6.25565 17.8701 6.54923C17.9727 6.84281 18.0635 7.09234 18.0719 7.10375C18.0803 7.11516 18.3029 7.05998 18.5666 6.98112L19.0461 6.83773L19.0124 4.65844C18.9938 3.45983 18.961 2.02126 18.9395 1.46163L18.9004 0.444107H9.45022H0L0.0201768 0.860829L0.0403535 1.27755L0.650297 1.35266C1.46397 1.45285 1.76231 1.54013 2.08996 1.7738C2.58663 2.12802 2.89208 2.64838 3.08442 3.46795C3.38324 4.74124 3.49079 7.61276 3.44098 12.988C3.38835 18.6676 3.31559 19.8488 2.94782 20.9947C2.64534 21.9371 2.08237 22.4367 1.15248 22.5879C0.89655 22.6295 0.534 22.6959 0.346811 22.7354L0.00646777 22.8072V23.1687V23.5301H6.07201H12.1376V23.1632ZM43.3802 23.1689V22.8076L42.855 22.7639C41.6436 22.6632 41.3117 22.5435 40.9935 22.0924C40.5325 21.4388 40.4321 20.2326 40.4321 15.3453V11.5308L40.6002 11.3547C40.8121 11.1326 41.4748 10.8226 41.9434 10.7264C42.8949 10.5311 44.1113 10.6998 45.0626 11.1592C45.3357 11.291 45.5705 11.3876 45.5845 11.3738C45.6125 11.3462 47.175 7.28102 47.2235 7.10955C47.2455 7.03174 47.1555 6.96394 46.8927 6.86039C46.3301 6.63878 45.8423 6.56278 45.213 6.59873C43.5299 6.69489 42.0361 7.79579 40.9602 9.73308C40.7816 10.0547 40.5966 10.3181 40.5491 10.3184C40.4801 10.3189 40.4721 9.94947 40.5092 8.48022L40.5556 6.64139L40.3922 6.67931C40.3023 6.70017 38.948 6.97031 37.3824 7.27963C34.0248 7.94303 33.5581 8.03971 33.4781 8.08843C33.4449 8.10859 33.4178 8.22783 33.4178 8.3534C33.4178 8.60535 33.3879 8.59075 34.1508 8.71155C35.1996 8.8776 35.57 9.38105 35.7264 10.8528C35.9303 12.7718 35.8488 20.2526 35.6129 21.2739C35.4923 21.7961 35.1806 22.299 34.8668 22.4777C34.7505 22.544 34.3845 22.6502 34.0535 22.7139L33.4517 22.8295L33.4312 23.1798L33.4107 23.5301H38.3955H43.3802V23.1689Z" fill="white"/>
</g>
</svg>
