<svg width="129" height="15" viewBox="0 0 129 15" fill="none" xmlns="http://www.w3.org/2000/svg">
<path d="M17.2522 14.0581H22.5302L25.3599 0.9375H20.0819L19.0383 5.6362H14.4626L15.5062 0.9375H10.2281L7.39844 14.0581H12.6765L13.7401 9.14804H18.3158L17.2522 14.0581Z" fill="white"/>
<path d="M26.9688 0.953404L25.5382 8.09419C25.413 8.65083 25.3594 9.19155 25.3594 9.70047C25.3594 13.4856 29.079 14.0581 31.3144 14.0581C35.9997 14.0581 38.0204 12.6745 38.7536 8.93709L40.3273 0.9375H35.6241L34.2829 7.64889C33.8537 9.74819 33.5497 10.8455 31.7972 10.8455C30.6527 10.8455 30.0983 10.3048 30.0983 9.19155C30.0983 8.76215 30.1699 8.23733 30.3129 7.58527L31.672 0.9375H26.9688V0.953404Z" fill="white"/>
<path d="M64.2764 14.0581H68.9868L69.6495 10.6805H71.8704C75.9718 10.6805 78.2465 8.66697 78.2465 4.99709C78.2465 2.41519 76.2763 0.9375 72.8196 0.9375H66.8017L64.2764 14.0581ZM71.6196 7.44909H70.2584L70.8853 4.3638H72.1569C73.1957 4.3638 73.751 4.83471 73.751 5.69534C73.751 6.78331 72.945 7.44909 71.6196 7.44909Z" fill="white"/>
<path d="M87.5758 0C82.3617 0 79.2441 3.0887 79.2441 8.28104C79.2441 11.8873 81.7236 14.0577 85.8803 14.0577C91.0945 14.0577 94.212 10.969 94.212 5.7767C94.2302 2.15374 91.7508 0 87.5758 0ZM86.172 10.5683C84.9323 10.5683 84.203 9.75026 84.203 8.38122C84.203 7.86365 84.2577 7.41287 84.3671 6.8953C84.7318 5.12557 85.3516 3.50609 87.3024 3.50609C88.5421 3.50609 89.2713 4.32417 89.2713 5.69322C89.2713 6.21078 89.2166 6.66157 89.1073 7.17913C88.7426 8.93217 88.1228 10.5683 86.172 10.5683Z" fill="white"/>
<path d="M110.999 14.0581H115.428L117.179 4.44933H120.514L121.154 0.9375H109.82L109.18 4.44933H112.716L110.999 14.0581Z" fill="white"/>
<path d="M103.161 5.2821C101.571 4.8475 100.919 4.66363 100.919 4.01172C100.919 3.57712 101.245 3.05894 102.203 3.05894C102.912 3.05894 103.506 3.40996 103.736 3.92814L108.182 2.87507C107.665 0.969499 105.787 0 102.548 0C96.454 0 95.9749 3.5604 95.9749 4.64691C95.9749 6.85336 97.3164 8.20731 100.229 8.90936C100.996 9.09323 101.877 9.29382 101.877 10.0293C101.877 10.6143 101.379 10.9821 100.517 10.9821C99.731 10.9821 98.8878 10.5809 98.6003 9.87886L94.2119 10.9152C94.691 12.9211 96.8565 14.0577 100.248 14.0577C102.835 14.0577 107.166 13.456 107.166 9.3774C107.186 7.33811 105.863 6.00087 103.161 5.2821Z" fill="white"/>
<path d="M5.11796 14.0581L7.39813 0.9375H0.413086V14.0581H5.11796Z" fill="white"/>
<path d="M123.418 0.9375L121.154 14.0581H128.139V0.9375H123.418Z" fill="white"/>
<path d="M42.6961 0.9375L40.3281 14.0581H44.745L45.4504 10.1934H49.1619L49.7665 6.89698H46.055L46.4748 4.46123H51.6642L52.3024 0.9375H42.6961Z" fill="white"/>
<path d="M54.8671 0.9375L52.3018 14.0581H57.0868L57.8327 10.1934H61.8718L62.5268 6.89698H58.5059L58.9607 4.46123H64.5827L65.274 0.9375H54.8671Z" fill="white"/>
</svg>
