<svg width="1400" height="937" viewBox="0 0 1400 937" fill="none" xmlns="http://www.w3.org/2000/svg">
<g clip-path="url(#clip0)">
<path d="M756.879 -45.2113L1064.41 179.273L1285.34 308.837L1462.55 764.698L1011.49 1110.44M120.351 -45.2114L-190.533 617.528L444.273 1110.44" stroke="#338EFF" stroke-miterlimit="10"/>
<path d="M1064.41 179.275L834.727 1052.8L1462.55 764.7L1064.41 179.275Z" stroke="#338EFF" stroke-miterlimit="10"/>
<path d="M1064.72 179.53L1323.95 -69.2754L1285.34 308.837L1512.7 370.735" stroke="#338EFF"/>
<path d="M964.81 1109.03L834.724 1052.8L547.53 1109.02" stroke="#338EFF" stroke-miterlimit="10"/>
<path d="M-190.538 617.534L834.723 1052.81L321.172 371.291L-190.538 617.534Z" stroke="#338EFF" stroke-miterlimit="10"/>
<path d="M964.809 203.736L321.173 371.29L128.836 -46.631L1064.41 179.278L964.809 203.736Z" stroke="#338EFF" stroke-miterlimit="10"/>
</g>
<defs>
<clipPath id="clip0">
<rect width="1400" height="937" fill="white"/>
</clipPath>
</defs>
</svg>
