<?xml version="1.0" encoding="utf-8"?>
<!-- Generator: Adobe Illustrator 15.1.0, SVG Export Plug-In . SVG Version: 6.00 Build 0)  -->
<!DOCTYPE svg PUBLIC "-//W3C//DTD SVG 1.1//EN" "http://www.w3.org/Graphics/SVG/1.1/DTD/svg11.dtd">
<svg version="1.1" id="Шар_1" xmlns="http://www.w3.org/2000/svg" xmlns:xlink="http://www.w3.org/1999/xlink" x="0px" y="0px"
	 width="260px" height="260px" viewBox="-118.375 -108.5 260 260" enable-background="new -118.375 -108.5 260 260"
	 xml:space="preserve">
<g>
	<path fill="#0072FF" d="M102.09-7.459l-54.249,117.5H26.169L83.266-13.6C89.956-12.563,96.294-10.488,102.09-7.459z M7.2-76.499
		l-83.463,180.813c-21.297-9.874-36.111-31.449-36.111-56.509c0-34.396,27.759-62.235,62-62.235
		C-50.375-47.332-24.964-74.175,7.2-76.499L7.2-76.499z M73.625-14.43L16.154,110.04H-7.324L64.856-46.294
		C70.384-36.959,73.625-26.13,73.625-14.43h0.021H73.625z M95.005,106.182l36.797-79.702c2.411,6.639,3.823,13.815,3.823,21.326
		c0,26.803-16.954,49.621-40.641,58.376H95.005z M111.253-1.569c5.174,3.984,9.662,8.672,13.359,14.023l-44.92,97.253
		c-2.016,0.249-4.031,0.332-6.067,0.332H59.663L111.211-1.569H111.253z M11.854-76.665c8.788,0,17.141,1.909,24.703,5.27
		L-47.217,110.04h-3.158c-7.771,0-15.188-1.494-22.066-4.108L11.854-76.665z M59.932-53.389L-15.552,110.04h-25.307L41.753-68.823
		c7.001,3.942,13.172,9.169,18.179,15.394V-53.389z"/>
</g>
</svg>
