<svg width="586" height="410" viewBox="0 0 586 410" version="1.1" xmlns="http://www.w3.org/2000/svg" xmlns:xlink="http://www.w3.org/1999/xlink">
<title>mail</title>
<desc>Created using Figma</desc>
<g id="Canvas" transform="translate(1905 -38105)">
<g id="mail">
<g id="Vector">
<use xlink:href="#path0_stroke" transform="matrix(0.588307 0.808638 -0.808638 0.588307 -1584.76 37953.3)" fill="#FFFFFF"/>
</g>
<g id="Vector">
<use xlink:href="#path1_stroke" transform="matrix(0.588307 0.808638 -0.808638 0.588307 -1460.75 38185.2)" fill="#FFFFFF"/>
</g>
<g id="Vector">
<use xlink:href="#path2_stroke" transform="matrix(0.588307 0.808638 -0.808638 0.588307 -1547.01 38443.7)" fill="#FFFFFF"/>
</g>
<g id="Vector">
<use xlink:href="#path3_stroke" transform="matrix(0.588307 0.808638 -0.808638 0.588307 -1740.57 38221)" fill="#FFFFFF"/>
</g>
<g id="Vector">
<use xlink:href="#path4_stroke" transform="matrix(0.588307 0.808638 -0.808638 0.588307 -1613.2 37975.7)" fill="#FFFFFF"/>
</g>
<g id="Group">
<g id="Vector">
<use xlink:href="#path5_fill" transform="translate(-1759.96 38205.4)" fill="#0072FF"/>
<use xlink:href="#path6_stroke" transform="translate(-1759.96 38205.4)" fill="#FFFFFF"/>
</g>
<g id="Vector">
<use xlink:href="#path7_stroke" transform="translate(-1654.19 38265.8)" fill="#FFFFFF"/>
</g>
<g id="Vector">
<use xlink:href="#path8_stroke" transform="translate(-1730.95 38275.7)" fill="#FFFFFF"/>
</g>
<g id="Vector">
<use xlink:href="#path9_stroke" transform="translate(-1683.31 38252.5)" fill="#FFFFFF"/>
</g>
<g id="Vector">
<use xlink:href="#path10_stroke" transform="translate(-1625.53 38222.3)" fill="#FFFFFF"/>
</g>
<g id="Vector">
<use xlink:href="#path11_stroke" transform="translate(-1631.4 38282.2)" fill="#FFFFFF"/>
</g>
<g id="Vector">
<use xlink:href="#path12_stroke" transform="translate(-1750.06 38311.9)" fill="#FFFFFF"/>
</g>
</g>
</g>
</g>
<defs>
<path id="path0_stroke" d="M 510.619 44.0895L 510.869 44.0832L 510.864 43.8956L 510.683 43.8477L 510.619 44.0895ZM 343.522 0L 343.586 -0.241727L 343.502 -0.26388L 343.422 -0.229219L 343.522 0ZM 260.488 36.15L 260.565 36.388L 260.576 36.3842L 260.588 36.3792L 260.488 36.15ZM 124.786 485.998L 124.567 486.118L 124.663 486.293L 124.856 486.238L 124.786 485.998ZM 510.683 43.8477L 343.586 -0.241727L 343.458 0.241727L 510.555 44.3312L 510.683 43.8477ZM 343.422 -0.229219L 260.388 35.9208L 260.588 36.3792L 343.622 0.229219L 343.422 -0.229219ZM 260.411 35.912L 132.292 77.134L 132.446 77.61L 260.565 36.388L 260.411 35.912ZM -0.219009 259.436L 124.567 486.118L 125.005 485.877L 0.219009 259.195L -0.219009 259.436ZM 124.856 486.238L 397.758 407.289L 397.619 406.809L 124.717 485.758L 124.856 486.238ZM 515.894 244.911L 510.869 44.0832L 510.369 44.0957L 515.394 244.924L 515.894 244.911Z"/>
<path id="path1_stroke" d="M 0 0L 0.00793133 -0.249874L -0.540993 -0.267298L -0.19365 0.158113L 0 0ZM 201.923 247.306L 201.73 247.465L 202.064 247.874L 202.168 247.356L 201.923 247.306ZM 250.131 7.93948L 250.376 7.98884L 250.434 7.69899L 250.139 7.68961L 250.131 7.93948ZM -0.19365 0.158113L 201.73 247.465L 202.117 247.148L 0.19365 -0.158113L -0.19365 0.158113ZM 202.168 247.356L 250.376 7.98884L 249.886 7.89012L 201.678 247.257L 202.168 247.356ZM 250.139 7.68961L 0.00793133 -0.249874L -0.00793133 0.249874L 250.123 8.18935L 250.139 7.68961Z"/>
<path id="path2_stroke" d="M 43.6528 25.4914L 43.5256 25.2762L 43.4589 25.3156L 43.4262 25.3859L 43.6528 25.4914ZM 86.6484 -0.215179L 43.5256 25.2762L 43.78 25.7066L 86.9029 0.215242L 86.6484 -0.215179ZM 43.4262 25.3859L -0.22665 119.168L 0.22665 119.379L 43.8795 25.5969L 43.4262 25.3859Z"/>
<path id="path3_stroke" d="M 0 202.541L -0.245941 202.496L -0.345082 203.04L 0.128608 202.756L 0 202.541ZM 337.625 1.03104e-05L 337.754 0.214393L 338.554 -0.265631L 337.621 -0.249954L 337.625 1.03104e-05ZM 36.0271 5.06777L 36.0229 4.8178L 35.8179 4.82124L 35.7811 5.0229L 36.0271 5.06777ZM 0.128608 202.756L 337.754 0.214393L 337.497 -0.214372L -0.128608 202.327L 0.128608 202.756ZM 337.621 -0.249954L 36.0229 4.8178L 36.0313 5.31773L 337.629 0.249975L 337.621 -0.249954ZM 35.7811 5.0229L -0.245941 202.496L 0.245941 202.586L 36.273 5.11263L 35.7811 5.0229Z"/>
<path id="path4_stroke" d="M 245.409 33.555L 245.177 33.4603L 245.176 33.4636L 245.409 33.555ZM 159.455 252.374L 159.406 252.619L 159.611 252.66L 159.688 252.466L 159.455 252.374ZM 0 220.443L -0.16199 220.252L -0.55491 220.586L -0.0490892 220.688L 0 220.443ZM 259.13 0L 259.361 0.0946222L 259.75 -0.855635L 258.968 -0.190419L 259.13 0ZM 245.176 33.4636L 159.222 252.283L 159.688 252.466L 245.642 33.6464L 245.176 33.4636ZM 159.504 252.129L 0.0490892 220.197L -0.0490892 220.688L 159.406 252.619L 159.504 252.129ZM 0.16199 220.633L 259.292 0.190419L 258.968 -0.190419L -0.16199 220.252L 0.16199 220.633ZM 258.898 -0.0946222L 245.177 33.4604L 245.64 33.6496L 259.361 0.0946222L 258.898 -0.0946222Z"/>
<path id="path5_fill" d="M 257 105.458L 257 125.725L 126.716 199.924C 121.537 202.901 115.552 202.099 111.294 198.893L 7.48097 139.58C 3.10748 137.29 0 132.824 0 127.328C 0 111.641 8.4017 97.2137 22.0976 89.4275L 102.547 43.7405C 110.603 39.1603 117.624 32.7481 122.918 25.1908L 140.412 1.36499e-08L 246.296 60.5725L 256.309 73.5114L 240.312 95.7252L 257 105.458Z"/>
<path id="path6_stroke" d="M 257 105.458L 257.5 105.458L 257.5 105.171L 257.252 105.026L 257 105.458ZM 257 125.725L 257.247 126.16L 257.5 126.016L 257.5 125.725L 257 125.725ZM 126.716 199.924L 126.469 199.489L 126.467 199.49L 126.716 199.924ZM 111.294 198.893L 111.595 198.494L 111.569 198.475L 111.542 198.459L 111.294 198.893ZM 7.48097 139.58L 7.72901 139.146L 7.72104 139.141L 7.71291 139.137L 7.48097 139.58ZM 22.0976 89.4275L 21.8507 88.9927L 21.8505 88.9928L 22.0976 89.4275ZM 102.547 43.7405L 102.794 44.1752L 102.794 44.1751L 102.547 43.7405ZM 122.918 25.1908L 123.328 25.4777L 123.329 25.476L 122.918 25.1908ZM 140.412 1.36499e-08L 140.66 -0.434003L 140.263 -0.661483L 140.001 -0.285201L 140.412 1.36499e-08ZM 246.296 60.5725L 246.692 60.2665L 246.631 60.1879L 246.545 60.1385L 246.296 60.5725ZM 256.309 73.5114L 256.715 73.8036L 256.933 73.5007L 256.705 73.2054L 256.309 73.5114ZM 240.312 95.7252L 239.906 95.433L 239.584 95.8797L 240.06 96.1571L 240.312 95.7252ZM 256.5 105.458L 256.5 125.725L 257.5 125.725L 257.5 105.458L 256.5 105.458ZM 256.753 125.291L 126.469 199.489L 126.964 200.358L 257.247 126.16L 256.753 125.291ZM 126.467 199.49C 121.477 202.358 115.708 201.591 111.595 198.494L 110.993 199.293C 115.396 202.608 121.597 203.443 126.965 200.357L 126.467 199.49ZM 111.542 198.459L 7.72901 139.146L 7.23292 140.014L 111.046 199.327L 111.542 198.459ZM 7.71291 139.137C 3.4899 136.926 0.5 132.623 0.5 127.328L -0.5 127.328C -0.5 133.026 2.72505 137.654 7.24903 140.023L 7.71291 139.137ZM 0.5 127.328C 0.5 111.822 8.80462 97.5598 22.3447 89.8621L 21.8505 88.9928C 7.99879 96.8676 -0.5 111.461 -0.5 127.328L 0.5 127.328ZM 22.3445 89.8623L 102.794 44.1752L 102.3 43.3057L 21.8507 88.9927L 22.3445 89.8623ZM 102.794 44.1751C 110.915 39.5581 117.991 33.0953 123.328 25.4777L 122.509 24.904C 117.257 32.4009 110.291 38.7625 102.3 43.3058L 102.794 44.1751ZM 123.329 25.476L 140.823 0.285201L 140.001 -0.285201L 122.507 24.9056L 123.329 25.476ZM 140.164 0.434003L 246.048 61.0065L 246.545 60.1385L 140.66 -0.434003L 140.164 0.434003ZM 245.901 60.8785L 255.914 73.8175L 256.705 73.2054L 246.692 60.2665L 245.901 60.8785ZM 255.904 73.2192L 239.906 95.433L 240.717 96.0174L 256.715 73.8036L 255.904 73.2192ZM 240.06 96.1571L 256.748 105.89L 257.252 105.026L 240.564 95.2933L 240.06 96.1571Z"/>
<path id="path7_stroke" d="M 151.231 45L 151.481 45L 151.481 44.5711L 151.107 44.7825L 151.231 45ZM 22.6731 117.824L 22.5499 117.607L 22.5476 117.608L 22.6731 117.824ZM 23.4787 109.58L 23.5988 109.799L 23.6025 109.797L 23.4787 109.58ZM 108.301 61.2595L 108.178 61.0422L 108.178 61.0423L 108.301 61.2595ZM 128.673 42.9389L 128.875 43.0859L 128.875 43.0857L 128.673 42.9389ZM 150.425 12.9389L 150.627 13.0857L 150.737 12.9341L 150.623 12.7859L 150.425 12.9389ZM 140.412 -1.74719e-06L 140.61 -0.153005L 140.401 -0.422584L 140.207 -0.142602L 140.412 -1.74719e-06ZM 122.918 25.1908L 122.713 25.0482L 122.712 25.0488L 122.918 25.1908ZM 102.547 43.7405L 102.425 43.5224L 102.423 43.5231L 102.547 43.7405ZM 22.0976 89.4275L 21.9742 89.2101L 21.9741 89.2101L 22.0976 89.4275ZM 151.481 65.2672L 151.481 45L 150.981 45L 150.981 65.2672L 151.481 65.2672ZM 151.107 44.7825L 22.5499 117.607L 22.7963 118.042L 151.354 45.2175L 151.107 44.7825ZM 22.5476 117.608C 21.3422 118.308 19.9307 117.413 19.9307 116.107L 19.4307 116.107C 19.4307 117.778 21.2418 118.944 22.7986 118.041L 22.5476 117.608ZM 19.9307 116.107C 19.9307 113.448 21.3789 111.014 23.5987 109.799L 23.3587 109.361C 20.9749 110.665 19.4307 113.27 19.4307 116.107L 19.9307 116.107ZM 23.6025 109.797L 108.425 61.4768L 108.178 61.0423L 23.355 109.363L 23.6025 109.797ZM 108.425 61.4769C 116.514 56.8784 123.446 50.5562 128.875 43.0859L 128.47 42.792C 123.081 50.2072 116.202 56.4804 108.178 61.0422L 108.425 61.4769ZM 128.875 43.0857L 150.627 13.0857L 150.223 12.7922L 128.47 42.7922L 128.875 43.0857ZM 150.623 12.7859L 140.61 -0.153005L 140.214 0.153001L 150.227 13.0919L 150.623 12.7859ZM 140.207 -0.142602L 122.713 25.0482L 123.123 25.3334L 140.617 0.142599L 140.207 -0.142602ZM 122.712 25.0488C 117.44 32.6892 110.563 38.9609 102.425 43.5224L 102.669 43.9585C 110.874 39.3597 117.808 33.036 123.124 25.3328L 122.712 25.0488ZM 102.423 43.5231L 21.9742 89.2101L 22.2211 89.6449L 102.67 43.9579L 102.423 43.5231ZM 21.9741 89.2101C 8.20024 97.0407 -0.249998 111.551 -0.249998 127.328L 0.250002 127.328C 0.250002 111.731 8.60316 97.3868 22.2212 89.6448L 21.9741 89.2101ZM -0.249998 127.328C -0.249998 138.172 11.4683 144.929 20.9546 139.569L 20.7086 139.133C 11.5501 144.308 0.250002 137.782 0.250002 127.328L -0.249998 127.328Z"/>
<path id="path8_stroke" d="M 8.78081e-07 25.5343L -0.123855 25.3172L -0.49875 25.531L -0.126758 25.7498L 8.78081e-07 25.5343ZM 44.7707 8.73595e-07L 44.8966 -0.216009L 44.772 -0.288562L 44.6469 -0.217162L 44.7707 8.73595e-07ZM 128.097 48.5496L 128.228 48.7629L 128.585 48.5444L 128.223 48.3336L 128.097 48.5496ZM 84.4774 75.229L 84.3506 75.4445L 84.4799 75.5205L 84.6078 75.4423L 84.4774 75.229ZM 0.123857 25.7515L 44.8946 0.217164L 44.6469 -0.217162L -0.123855 25.3172L 0.123857 25.7515ZM 44.6449 0.21601L 127.971 48.7656L 128.223 48.3336L 44.8966 -0.216009L 44.6449 0.21601ZM 127.967 48.3363L 84.3469 75.0157L 84.6078 75.4423L 128.228 48.7629L 127.967 48.3363ZM 84.6041 75.0135L 0.12676 25.3189L -0.126758 25.7498L 84.3506 75.4445L 84.6041 75.0135Z"/>
<path id="path9_stroke" d="M 48.2235 48.6641L 48.0985 48.8807L 48.2241 48.9531L 48.3493 48.8802L 48.2235 48.6641ZM 84.5925 27.4809L 84.7183 27.6969L 85.0915 27.4796L 84.7172 27.2642L 84.5925 27.4809ZM 36.8294 0L 36.9541 -0.216693L 36.8304 -0.287832L 36.7063 -0.217582L 36.8294 0ZM -1.75616e-06 20.8397L -0.123119 20.6221L -0.503905 20.8376L -0.124943 21.0562L -1.75616e-06 20.8397ZM 48.3493 48.8802L 84.7183 27.6969L 84.4667 27.2649L 48.0976 48.4481L 48.3493 48.8802ZM 84.7172 27.2642L 36.9541 -0.216693L 36.7047 0.216693L 84.4678 27.6976L 84.7172 27.2642ZM 36.7063 -0.217582L -0.123119 20.6221L 0.123116 21.0573L 36.9525 0.217582L 36.7063 -0.217582ZM -0.124943 21.0562L 48.0985 48.8807L 48.3484 48.4476L 0.12494 20.6232L -0.124943 21.0562Z"/>
<path id="path10_stroke" d="M 3.51232e-06 17.8626L -0.208917 17.7253L -0.352292 17.9435L -0.128136 18.0773L 3.51232e-06 17.8626ZM 11.7394 4.36797e-07L 11.8636 -0.21696L 11.6596 -0.333761L 11.5304 -0.137303L 11.7394 4.36797e-07ZM 89.5414 44.542L 89.7518 44.6771L 89.894 44.4557L 89.6656 44.325L 89.5414 44.542ZM 77.1115 63.8931L 76.9834 64.1078L 77.1911 64.2318L 77.3219 64.0282L 77.1115 63.8931ZM 0.208924 17.9999L 11.9483 0.137304L 11.5304 -0.137303L -0.208917 17.7253L 0.208924 17.9999ZM 11.6152 0.216961L 89.4172 44.7589L 89.6656 44.325L 11.8636 -0.21696L 11.6152 0.216961ZM 89.3311 44.4069L 76.9012 63.758L 77.3219 64.0282L 89.7518 44.6771L 89.3311 44.4069ZM 77.2396 63.6785L 0.128143 17.6479L -0.128136 18.0773L 76.9834 64.1078L 77.2396 63.6785Z"/>
<path id="path11_stroke" d="M -3.51232e-06 20.8397L -0.12549 20.6235L -0.489753 20.8349L -0.129724 21.0534L -3.51232e-06 20.8397ZM 35.9086 1.74719e-06L 36.0336 -0.216527L 35.9083 -0.288846L 35.7831 -0.216223L 35.9086 1.74719e-06ZM 68.2494 18.6641L 68.3768 18.8793L 68.7449 18.6614L 68.3744 18.4476L 68.2494 18.6641ZM 31.8804 40.1908L 31.7507 40.4045L 31.8788 40.4823L 32.0078 40.406L 31.8804 40.1908ZM 0.125483 21.0559L 36.0341 0.216226L 35.7831 -0.216223L -0.12549 20.6235L 0.125483 21.0559ZM 35.7837 0.216531L 68.1245 18.8806L 68.3744 18.4476L 36.0336 -0.216527L 35.7837 0.216531ZM 68.1221 18.449L 31.7531 39.9757L 32.0078 40.406L 68.3768 18.8793L 68.1221 18.449ZM 32.0101 39.9771L 0.129717 20.626L -0.129724 21.0534L 31.7507 40.4045L 32.0101 39.9771Z"/>
<path id="path12_stroke" d="M 84.4774 76.145L 84.3529 76.3618L 84.8312 76.6364L 84.7225 76.0958L 84.4774 76.145ZM 84.3623 74.1985L 84.1123 74.1954L 84.1123 74.1985L 84.3623 74.1985ZM 92.8791 48.8931L 93.0791 49.0431L 93.2479 48.818L 93.0044 48.6768L 92.8791 48.8931ZM 8.51679 3.49438e-06L 8.64215 -0.216295L 8.44855 -0.328501L 8.31565 -0.148466L 8.51679 3.49438e-06ZM 0.115092 27.7099L -0.131473 27.7512L -0.111935 27.8679L -0.00938479 27.9267L 0.115092 27.7099ZM 84.7225 76.0958C 84.6133 75.5526 84.6123 74.8927 84.6123 74.1985L 84.1123 74.1985C 84.1123 74.8783 84.1113 75.5924 84.2323 76.1943L 84.7225 76.0958ZM 84.6123 74.2016C 84.7267 64.9789 87.7021 56.2137 93.0791 49.0431L 92.6791 48.7431C 87.2374 56 84.2281 64.8685 84.1123 74.1954L 84.6123 74.2016ZM 93.0044 48.6768L 8.64215 -0.216295L 8.39143 0.216302L 92.7537 49.1094L 93.0044 48.6768ZM 8.31565 -0.148466C 2.87552 7.22153 -0.25 16.3191 -0.25 25.7634L 0.25 25.7634C 0.25 16.429 3.33944 7.43496 8.71793 0.148473L 8.31565 -0.148466ZM -0.25 25.7634C -0.25 26.4489 -0.250451 27.041 -0.131473 27.7512L 0.361656 27.6686C 0.25045 27.0048 0.25 26.4518 0.25 25.7634L -0.25 25.7634ZM -0.00938479 27.9267L 84.3529 76.3618L 84.6019 75.9282L 0.239568 27.4931L -0.00938479 27.9267Z"/>
</defs>
</svg>
