<?xml version="1.0" encoding="UTF-8"?>
<svg width="20px" height="18px" viewBox="0 0 20 18" version="1.1" xmlns="http://www.w3.org/2000/svg" xmlns:xlink="http://www.w3.org/1999/xlink">
    <!-- Generator: Sketch 49.2 (51160) - http://www.bohemiancoding.com/sketch -->
    <title>ic/20x20/blue/icChat</title>
    <desc>Created with Sketch.</desc>
    <defs></defs>
    <g id="Page-1" stroke="none" stroke-width="1" fill="none" fill-rule="evenodd">
        <g id="skycoin-web-home-2" transform="translate(-1209.000000, -74.000000)" fill="#FFFFFF" fill-rule="nonzero">
            <g id="ic/20x20/white/icDiscord" transform="translate(1209.000000, 73.000000)">
                <path d="M18.4837787,2.0856758 L18.4176473,1.91794043 C18.4157115,1.91312706 18.4119968,1.9091508 18.4072357,1.90700572 L18.2430581,1.83245085 C16.8915484,1.21858963 14.9851936,1.06712554 13.2985271,1 L11.3988168,1 C11.3773659,1 11.370826,1.02898484 11.3901318,1.03824534 L15.2923073,2.90902311 C15.3143337,2.91953927 15.3021433,2.95229109 15.278495,2.94611742 C13.523552,2.4878012 11.7506634,2.25581785 10.0000106,2.25581785 C8.25500817,2.25581785 6.48787474,2.48638858 4.73832057,2.94177493 C4.71451533,2.94794859 4.7024296,2.91483054 4.7247699,2.90452365 L8.76386474,1.03845461 C8.78343213,1.02940339 8.77704918,1.00010464 8.75544135,1.00010464 L6.70154637,1.00010464 C5.0149322,1.06723018 3.10847273,1.21869427 1.75701538,1.83255549 L1.59283772,1.90711035 C1.58807667,1.90925544 1.58430969,1.91317938 1.5824262,1.91804507 L1.51629473,2.08578044 C0.133184255,5.59043462 -0.259837603,11.5401221 0.159291538,15.2673945 L0.181265603,15.4628591 L0.336758277,15.5834549 C2.49743675,17.258925 5.3865555,18.1203607 7.20407232,18.3489433 L7.43909019,18.3785037 C7.51547622,18.3881304 7.58846151,18.343973 7.61545822,18.2718771 L8.79839542,15.111431 C8.83528046,15.0129139 8.77249741,14.9053457 8.66859147,14.8890221 L8.30560084,14.8319941 C7.03984234,14.6331288 5.246497,14.1059605 3.73096662,12.7315351 C3.69863335,12.702184 3.7298156,12.6494462 3.77072922,12.6646188 C3.89388862,12.7103981 4.02970927,12.7634498 4.16955851,12.818071 C4.51224929,12.9519559 4.86665958,13.0903925 5.09791046,13.1453276 C6.7231542,13.5317573 8.37126144,13.727745 9.99990593,13.727745 L9.99990593,13.6987602 L10.0033067,13.6987602 L10.003516,13.727745 C11.6288643,13.727745 13.2769193,13.5318096 14.902006,13.1453276 C15.1333616,13.0903402 15.4877719,12.9519559 15.830515,12.8180187 C15.9702596,12.7633975 16.1060279,12.7103458 16.229135,12.6646188 C16.2700486,12.6494462 16.3012308,12.7022363 16.2688976,12.7315351 C14.7584422,14.0998915 12.9628471,14.6256995 11.6942633,14.8244078 L11.3313773,14.8812265 C11.2274714,14.8974978 11.1645837,15.0049614 11.2014164,15.1034785 L12.3845629,18.2717202 C12.4115073,18.3438684 12.4845449,18.3880781 12.560931,18.3784514 L12.7961581,18.348891 C14.6135703,18.1203084 17.5024798,17.2588727 19.6632105,15.5834025 L19.8187032,15.4628068 L19.8406773,15.2673422 C20.2598587,11.5401221 19.8668369,5.5903823 18.4837787,2.0856758 Z M6.13906261,10.6901967 C4.66978241,10.821204 3.44399579,9.59552198 3.57484612,8.12624179 C3.67519435,6.99996629 4.58209543,6.09296057 5.70842325,5.9925077 C7.17770344,5.86150041 8.40349007,7.0871824 8.27263974,8.5564626 C8.17223919,9.6827381 7.26533811,10.5897438 6.13906261,10.6901967 Z M14.2917549,10.6901967 C12.8224747,10.821204 11.596688,9.59552198 11.7275384,8.12624179 C11.8278866,6.99996629 12.7347877,6.09296057 13.8611155,5.9925077 C15.3303434,5.86150041 16.5561823,7.0871824 16.425332,8.5564626 C16.3249314,9.6827381 15.4180304,10.5897438 14.2917549,10.6901967 Z" id="Shape"></path>
            </g>
        </g>
    </g>
</svg>