<?xml version="1.0" encoding="UTF-8"?>
<svg width="20px" height="17px" viewBox="0 0 20 17" version="1.1" xmlns="http://www.w3.org/2000/svg" xmlns:xlink="http://www.w3.org/1999/xlink">
    <!-- Generator: Sketch 49.2 (51160) - http://www.bohemiancoding.com/sketch -->
    <title>ic/20x20/blue/icTelegram</title>
    <desc>Created with Sketch.</desc>
    <defs></defs>
    <g id="Page-1" stroke="none" stroke-width="1" fill="none" fill-rule="evenodd">
        <g id="skycoin-web-home-2" transform="translate(-1088.000000, -73.000000)" fill="#FFFFFF" fill-rule="nonzero">
            <g id="ic/20x20/white/icTelegram" transform="translate(1088.000000, 71.000000)">
                <path d="M0.35325945,10.1514382 L4.96166548,11.8306111 L6.74540115,17.430913 C6.85953464,17.7895922 7.30880189,17.9221687 7.60700228,17.6841557 L10.1758056,15.6397302 C10.4450727,15.425538 10.8286065,15.4148642 11.1100069,15.6142823 L15.7432129,18.8982368 C16.0622134,19.1245997 16.5141473,18.9539489 16.5941474,18.5776319 L19.9882185,2.63909211 C20.0755519,2.22802018 19.6618181,1.88509142 19.2608842,2.03647732 L0.347859443,9.15935947 C-0.118874501,9.33508687 -0.114807829,9.98020166 0.35325945,10.1514382 Z M6.45793411,10.9367444 L15.4644792,5.52128173 C15.6263461,5.42424115 15.7928797,5.63791265 15.6538795,5.76378553 L8.22086975,12.5091141 C7.95960274,12.7465414 7.79106919,13.0642825 7.74333579,13.4091638 L7.49013546,15.2410243 C7.45660208,15.4856108 7.10466829,15.5098872 7.03553487,15.2731759 L6.06173359,11.9327283 C5.95020011,11.5517252 6.11273366,11.1447536 6.45793411,10.9367444 Z" id="XMLID_497_"></path>
            </g>
        </g>
    </g>
</svg>