<?xml version="1.0" encoding="utf-8"?>
<!-- Generator: Adobe Illustrator 19.2.1, SVG Export Plug-In . SVG Version: 6.00 Build 0)  -->
<svg version="1.1" id="Слой_1" xmlns="http://www.w3.org/2000/svg" xmlns:xlink="http://www.w3.org/1999/xlink" x="0px" y="0px"
	 viewBox="0 0 552 539" style="enable-background:new 0 0 552 539;" xml:space="preserve">
<style type="text/css">
	.st0{fill:#BDCBDA;}
	.st1{fill:#0072FF;}
	.st2{fill:#101F34;}
</style>
<path class="st0" d="M249.9,538.3l-0.3-0.1l-192-86.7l-0.1-0.2L16.8,347.7L0.4,290.5l0.1-0.2L107.5,94.2l0.2-0.1L334.4,0l0.2,0.1
	l176.3,76.9l0,0.3l40.5,220l-0.2,0.2L249.9,538.3z M58.4,450.7l191.3,86.4l300.6-240.3L510.1,77.7L334.4,1L108.3,95L1.4,290.7
	l16.3,56.7L58.4,450.7z"/>
<path class="st0" d="M250,538.5l-0.5-0.4L17.1,348l-0.5,0l0.1-0.3l-0.2-0.2l0.4-0.3l90.7-253.1l251.6-36.7L333.9,0.7l0.9-0.4
	l25.4,57l150.3,19.5l-0.1,1L361,58.4l190.8,238.8l-0.7,0.2l-234.7,63.2L250,538.5z M18.8,348.1l230.8,188.8l65.7-176.1L18.8,348.1z
	 M18.6,347.1l297,12.7l43.6-300.6L18.6,347.1z M360.2,59.1l-43.6,300.5L550,296.7L360.2,59.1z M108.3,95.1L18.4,345.9l340-287.4
	L108.3,95.1z"/>
<path class="st1" d="M274.2,197.3c-0.6,0-1-0.4-1-1v-59c0-0.6,0.4-1,1-1s1,0.4,1,1v59C275.2,196.8,274.8,197.3,274.2,197.3z"/>
<path class="st1" d="M306.6,282.2c-0.2,0-0.3,0-0.5-0.1c-0.5-0.3-0.7-0.9-0.4-1.4l58.7-108.3c0.3-0.5,0.9-0.7,1.4-0.4
	c0.5,0.3,0.7,0.9,0.4,1.4l-58.7,108.3C307.3,282,307,282.2,306.6,282.2z"/>
<path class="st1" d="M241.4,284.5c-0.4,0-0.7-0.2-0.9-0.5l-56.4-110.2c-0.3-0.5-0.1-1.1,0.4-1.3c0.5-0.3,1.1-0.1,1.3,0.4L242.3,283
	c0.3,0.5,0.1,1.1-0.4,1.3C241.7,284.5,241.6,284.5,241.4,284.5z"/>
<path class="st1" d="M310.4,322.3c-0.4,0-0.7-0.2-0.9-0.5c-0.3-0.5-0.1-1.1,0.4-1.4l96.6-52.3c0.5-0.3,1.1-0.1,1.4,0.4
	c0.3,0.5,0.1,1.1-0.4,1.4l-96.6,52.3C310.7,322.3,310.6,322.3,310.4,322.3z"/>
<path class="st1" d="M239.6,323c-0.2,0-0.3,0-0.5-0.1l-96.6-53c-0.5-0.3-0.7-0.9-0.4-1.4s0.9-0.7,1.4-0.4l96.6,53
	c0.5,0.3,0.7,0.9,0.4,1.4C240.3,322.8,240,323,239.6,323z"/>
<path class="st1" d="M360.1,370.2c-0.1,0-0.2,0-0.3,0l-50.4-16.1c-0.5-0.2-0.8-0.7-0.6-1.3c0.2-0.5,0.7-0.8,1.3-0.6l50.4,16.1
	c0.5,0.2,0.8,0.7,0.6,1.3C360.9,369.9,360.5,370.2,360.1,370.2z"/>
<path class="st1" d="M188,368.8c-0.4,0-0.8-0.3-1-0.7c-0.2-0.5,0.1-1.1,0.7-1.2l49.4-14.7c0.5-0.2,1.1,0.1,1.2,0.7
	c0.2,0.5-0.1,1.1-0.7,1.2l-49.4,14.7C188.2,368.8,188.1,368.8,188,368.8z"/>
<path class="st2" d="M274.9,403C201.1,403,141,342.9,141,269s60-134,133.8-134c73.8,0,133.9,60.1,133.9,134S348.7,403,274.9,403z
	 M274.8,139C203.2,139,145,197.3,145,269c0,71.7,58.3,130,129.9,130c71.6,0,129.8-58.3,129.8-130C404.7,197.3,346.4,139,274.8,139z"
	/>
<path class="st2" d="M309.9,395.7l-7.7-169l-27.9-28.8L246,226.7l-7.7,169l-4-0.2l7.7-169.8c0-0.5,0.2-1,0.6-1.3l30.3-30.8
	c0.4-0.4,0.9-0.6,1.4-0.6c0,0,0,0,0,0c0.5,0,1.1,0.2,1.4,0.6l29.9,30.8c0.3,0.4,0.5,0.8,0.6,1.3l7.7,169.8L309.9,395.7z"/>
<path class="st2" d="M274.3,244.7c-0.3,0-0.7-0.1-1-0.3L243,227.5c-0.5-0.3-0.9-0.8-1-1.5c-0.1-0.6,0.1-1.2,0.6-1.7l30.3-30.8
	c0.6-0.6,1.4-0.8,2.2-0.4c0.8,0.3,1.2,1,1.2,1.9v47.7c0,0.7-0.4,1.4-1,1.7C275,244.6,274.6,244.7,274.3,244.7z M247.3,225.3l25,14
	v-39.4L247.3,225.3z"/>
<path class="st2" d="M274.3,244.7c-0.3,0-0.7-0.1-1-0.3c-0.6-0.4-1-1-1-1.7V195c0-0.8,0.5-1.5,1.2-1.9c0.8-0.3,1.6-0.1,2.2,0.5
	l29.9,30.8c0.4,0.4,0.6,1.1,0.5,1.7c-0.1,0.6-0.5,1.2-1,1.5l-29.9,16.9C275,244.6,274.6,244.7,274.3,244.7z M276.3,199.9v39.3
	l24.7-13.9L276.3,199.9z"/>
<rect x="272.3" y="242.7" class="st2" width="4" height="158.3"/>
</svg>
