<svg width="552" height="539" viewBox="0 0 552 539" fill="none" xmlns="http://www.w3.org/2000/svg">
<path d="M18.0759 179.532L186.784 1.49788L378.905 0L505.091 184.24L327.776 526.613L117.407 525.543L38.0454 447.439L0 402.075L18.0759 179.532Z" transform="matrix(0.913573 0.406675 -0.406396 0.913697 164.332 -76.7852)" stroke="#BDCBDA" stroke-miterlimit="10"/>
<path d="M360.829 0L215.361 43.4386L0 179.532L19.9695 447.439L298.166 337.666L487.015 184.24L215.361 43.4386L19.9695 447.439L309.7 526.613L298.166 337.666L215.361 43.4386L168.708 1.49788" transform="matrix(0.913573 0.406675 -0.406396 0.913697 180.845 -69.4336)" stroke="#BDCBDA" stroke-miterlimit="10"/>
<path d="M0 54.2774V-3.0629e-07" transform="translate(274.198 137.32)" stroke="#0072FF" stroke-width="2" stroke-miterlimit="10" stroke-linecap="round" stroke-linejoin="round"/>
<path d="M-4.89468e-06 109.839L59.0231 -6.12579e-07" transform="translate(306.597 171.363)" stroke="#0072FF" stroke-width="2" stroke-miterlimit="10" stroke-linecap="round" stroke-linejoin="round"/>
<path d="M-6.11835e-07 6.12579e-07L58.3816 110.161" transform="translate(185.022 173.295)" stroke="#0072FF" stroke-width="2" stroke-miterlimit="10" stroke-linecap="round" stroke-linejoin="round"/>
<path d="M-2.44734e-06 52.3504L96.5541 -4.90063e-06" transform="translate(310.446 268.998)" stroke="#0072FF" stroke-width="2" stroke-miterlimit="10" stroke-linecap="round" stroke-linejoin="round"/>
<path d="M-3.05918e-07 -4.90063e-06L96.5541 52.9927" transform="translate(143 268.998)" stroke="#0072FF" stroke-width="2" stroke-miterlimit="10" stroke-linecap="round" stroke-linejoin="round"/>
<path d="M-2.44734e-06 9.80127e-06L50.3621 16.0584" transform="translate(313.654 353.146)" stroke="#0072FF" stroke-width="2" stroke-miterlimit="10" stroke-linecap="round" stroke-linejoin="round"/>
<path d="M0 16.0584L50.3621 9.80127e-06" transform="translate(185.984 353.146)" stroke="#0072FF" stroke-width="2" stroke-miterlimit="10" stroke-linecap="round" stroke-linejoin="round"/>
<path d="M0 202.015L18.9259 18.3066L42.3427 -1.22516e-06L66.401 18.3066L85.6477 202.657" transform="translate(232.497 192.885)" stroke="#101F34" stroke-width="4" stroke-miterlimit="10"/>
<path d="M7.62939e-07 -1.22516e-06V207.474" transform="translate(274.84 192.885)" stroke="#101F34" stroke-width="4" stroke-miterlimit="10"/>
<path d="M263.679 132C263.679 204.902 204.653 264 131.84 264C59.0266 264 -3.05918e-07 204.902 -3.05918e-07 132C-3.05918e-07 59.0984 59.0266 0 131.84 0C204.653 0 263.679 59.0984 263.679 132Z" transform="translate(143 137)" stroke="#101F34" stroke-width="4" stroke-miterlimit="10"/>
</svg>
