<svg width="552" height="539" viewBox="0 0 552 539" version="1.1" xmlns="http://www.w3.org/2000/svg" xmlns:xlink="http://www.w3.org/1999/xlink">
<title>obelisk</title>
<desc>Created using Figma</desc>
<g id="Canvas" transform="translate(1936 -35685)">
<g id="obelisk">
<g id="Group">
<g id="Group">
<g id="Vector">
<use xlink:href="#path0_stroke" transform="matrix(0.913573 0.406675 -0.406396 0.913697 -1771.67 35608.6)" fill="#BDCBDA"/>
</g>
<g id="Vector">
<use xlink:href="#path1_stroke" transform="matrix(0.913573 0.406675 -0.406396 0.913697 -1755.16 35615.9)" fill="#BDCBDA"/>
</g>
</g>
</g>
<g id="Group">
<g id="Vector">
<use xlink:href="#path2_stroke" transform="translate(-1695.63 35889.4)" fill="#101F34"/>
</g>
<g id="Vector">
<use xlink:href="#path3_stroke" transform="translate(-1661.52 35889.4)" fill="#101F34"/>
</g>
<g id="Vector">
<use xlink:href="#path4_stroke" transform="translate(-1792.96 35822.4)" fill="#101F34"/>
</g>
</g>
</g>
</g>
<defs>
<path id="path0_stroke" d="M 18.0759 179.532L 17.7129 179.188L 17.5918 179.316L 17.5775 179.492L 18.0759 179.532ZM 186.784 1.49788L 186.78 0.997899L 186.567 0.999557L 186.421 1.15396L 186.784 1.49788ZM 378.905 0L 379.317 -0.282537L 379.167 -0.502059L 378.901 -0.499985L 378.905 0ZM 505.091 184.24L 505.535 184.47L 505.673 184.204L 505.504 183.957L 505.091 184.24ZM 327.776 526.613L 327.773 527.113L 328.079 527.115L 328.22 526.843L 327.776 526.613ZM 117.407 525.543L 117.056 525.899L 117.201 526.042L 117.405 526.043L 117.407 525.543ZM 38.0454 447.439L 37.6623 447.76L 37.6776 447.779L 37.6947 447.796L 38.0454 447.439ZM 0 402.075L -0.498359 402.034L -0.514972 402.239L -0.383105 402.396L 0 402.075ZM 18.4388 179.876L 187.147 1.8418L 186.421 1.15396L 17.7129 179.188L 18.4388 179.876ZM 186.788 1.99787L 378.909 0.499985L 378.901 -0.499985L 186.78 0.997899L 186.788 1.99787ZM 378.492 0.282537L 504.679 184.522L 505.504 183.957L 379.317 -0.282537L 378.492 0.282537ZM 504.647 184.01L 327.332 526.383L 328.22 526.843L 505.535 184.47L 504.647 184.01ZM 327.778 526.113L 117.41 525.043L 117.405 526.043L 327.773 527.113L 327.778 526.113ZM 117.758 525.187L 38.3961 447.083L 37.6947 447.796L 117.056 525.899L 117.758 525.187ZM 38.4285 447.118L 0.383105 401.753L -0.383105 402.396L 37.6623 447.76L 38.4285 447.118ZM 0.498359 402.115L 18.5742 179.573L 17.5775 179.492L -0.498359 402.034L 0.498359 402.115Z"/>
<path id="path1_stroke" d="M 215.361 43.4386L 215.218 42.9595L 215.152 42.9792L 215.094 43.0159L 215.361 43.4386ZM 0 179.532L -0.267103 179.109L -0.520937 179.27L -0.498617 179.569L 0 179.532ZM 19.9695 447.439L 19.4709 447.476L 19.5214 448.154L 20.1531 447.904L 19.9695 447.439ZM 298.166 337.666L 298.349 338.131L 298.421 338.102L 298.481 338.054L 298.166 337.666ZM 487.015 184.24L 487.331 184.628L 487.923 184.147L 487.246 183.796L 487.015 184.24ZM 215.361 43.4386L 215.591 42.9947L 215.135 42.7582L 214.911 43.2209L 215.361 43.4386ZM 19.9695 447.439L 19.5194 447.221L 19.2575 447.763L 19.8377 447.922L 19.9695 447.439ZM 309.7 526.613L 309.568 527.095L 310.241 527.279L 310.199 526.583L 309.7 526.613ZM 298.166 337.666L 298.665 337.635L 298.662 337.582L 298.647 337.53L 298.166 337.666ZM 215.361 43.4386L 215.842 43.3032L 215.803 43.1637L 215.695 43.0668L 215.361 43.4386ZM 360.686 -0.479096L 215.218 42.9595L 215.504 43.9177L 360.972 0.479096L 360.686 -0.479096ZM 215.094 43.0159L -0.267103 179.109L 0.267103 179.955L 215.628 43.8613L 215.094 43.0159ZM -0.498617 179.569L 19.4709 447.476L 20.4681 447.402L 0.498617 179.495L -0.498617 179.569ZM 20.1531 447.904L 298.349 338.131L 297.982 337.201L 19.786 446.974L 20.1531 447.904ZM 298.481 338.054L 487.331 184.628L 486.7 183.852L 297.85 337.278L 298.481 338.054ZM 487.246 183.796L 215.591 42.9947L 215.131 43.8825L 486.785 184.684L 487.246 183.796ZM 214.911 43.2209L 19.5194 447.221L 20.4196 447.657L 215.811 43.6563L 214.911 43.2209ZM 19.8377 447.922L 309.568 527.095L 309.832 526.131L 20.1013 446.957L 19.8377 447.922ZM 310.199 526.583L 298.665 337.635L 297.667 337.696L 309.201 526.643L 310.199 526.583ZM 298.647 337.53L 215.842 43.3032L 214.88 43.5741L 297.684 337.801L 298.647 337.53ZM 215.695 43.0668L 169.042 1.12605L 168.374 1.86972L 215.027 43.8105L 215.695 43.0668Z"/>
<path id="path2_stroke" d="M -1.93868e-06 20.1379L -1.0167 18.4156L -2 18.9961L -2 20.1379L -1.93868e-06 20.1379ZM 34.1138 -9.69338e-07L 35.1237 -1.7263L 34.1092 -2.31978L 33.0971 -1.7223L 34.1138 -9.69338e-07ZM 68.8628 20.3285L 70.8628 20.3285L 70.8628 19.1814L 69.8727 18.6022L 68.8628 20.3285ZM 2 190.834L 2 20.1379L -2 20.1379L -2 190.834L 2 190.834ZM 1.0167 21.8602L 35.1305 1.7223L 33.0971 -1.7223L -1.0167 18.4156L 1.0167 21.8602ZM 33.1039 1.7263L 67.8529 22.0548L 69.8727 18.6022L 35.1237 -1.7263L 33.1039 1.7263ZM 66.8628 20.3285L 66.8628 191.469L 70.8628 191.469L 70.8628 20.3285L 66.8628 20.3285Z"/>
<path id="path3_stroke" d="M -2.00001 -9.69338e-07L -2.00001 195.916L 1.99999 195.916L 1.99999 -9.69338e-07L -2.00001 -9.69338e-07Z"/>
<path id="path4_stroke" d="M 261 131.5C 261 203.021 203.021 261 131.5 261L 131.5 265C 205.23 265 265 205.23 265 131.5L 261 131.5ZM 131.5 261C 59.9791 261 2 203.021 2 131.5L -2 131.5C -2 205.23 57.77 265 131.5 265L 131.5 261ZM 2 131.5C 2 59.9791 59.9791 2 131.5 2L 131.5 -2C 57.77 -2 -2 57.77 -2 131.5L 2 131.5ZM 131.5 2C 203.021 2 261 59.9791 261 131.5L 265 131.5C 265 57.77 205.23 -2 131.5 -2L 131.5 2Z"/>
</defs>
</svg>
