<?xml version="1.0" encoding="utf-8"?>
<!-- Generator: Adobe Illustrator 19.2.1, SVG Export Plug-In . SVG Version: 6.00 Build 0)  -->
<svg version="1.1" id="Слой_1" xmlns="http://www.w3.org/2000/svg" xmlns:xlink="http://www.w3.org/1999/xlink" x="0px" y="0px"
	 viewBox="0 0 570 390" style="enable-background:new 0 0 570 390;" xml:space="preserve">
<style type="text/css">
	.st0{fill:#1473FC;}
	.st1{fill:none;stroke:#FFFFFF;stroke-miterlimit:10;}
	.st2{fill:#1473FC;stroke:#FFFFFF;stroke-miterlimit:10;}
	.st3{opacity:0.5;fill:#1473FC;stroke:#FFFFFF;stroke-miterlimit:10;}
	.st4{fill:#1473FC;stroke:#FFFFFF;stroke-linejoin:round;stroke-miterlimit:10;}
	.st5{fill:none;stroke:#FFFFFF;stroke-width:0.5;stroke-miterlimit:10;}
	.st6{fill:none;stroke:#FFFFFF;stroke-linejoin:round;stroke-miterlimit:10;}
	.st7{fill:#101F34;stroke:#FFFFFF;stroke-linejoin:round;stroke-miterlimit:10;}
	.st8{fill:none;stroke:#FFFFFF;stroke-width:0.25;stroke-linejoin:round;stroke-miterlimit:10;}
	.st9{fill:none;stroke:#FFFFFF;stroke-width:0.5;stroke-linejoin:round;stroke-miterlimit:10;}
	.st10{fill:#FFFFFF;}
	.st11{fill:#1473FC;stroke:#FFFFFF;stroke-width:0.5;stroke-miterlimit:10;}
	.st12{fill:#1473FC;stroke:#FFFFFF;stroke-width:0.25;stroke-miterlimit:10;}
	.st13{fill:#1473FC;stroke:#FFFFFF;stroke-width:0.5;stroke-linejoin:round;stroke-miterlimit:10;}
	.st14{fill:none;stroke:#FFFFFF;stroke-width:0.25;stroke-miterlimit:10;}
</style>
<rect y="0" class="st0" width="570" height="390"/>
<line class="st1" x1="178.5" y1="160.9" x2="4.9" y2="57.3"/>
<g>
	<path class="st2" d="M65.7,76.7c0,0-0.4-4.8-0.8-6.8c-0.5-2-0.9-4.3-0.9-4.3l13.7,6.9c0,0,1.1,4.3,0.6,7.1c-0.5,2.8-9.4,4-9.4,4
		L65.7,76.7z"/>
	<path class="st2" d="M77.8,234.8c0,0,0.4,3.4,4,5.9c3.6,2.5,9.4,5.4,9.2,8.5c-0.2,3.1-3.4,3.6-8.1,2.7c-4.7-0.9-7.2-4.3-7.2-4.3
		s-4.7-0.7-6.1-1.4c-1.4-0.7-2.9-2.7-2.9-2.7s0.5-7,1.3-9C68.6,232.5,77.8,234.8,77.8,234.8z"/>
	<path class="st2" d="M82.9,251.9c-4.7-0.9-7.2-4.3-7.2-4.3s-4.7-0.7-6.1-1.4c-1.4-0.7-2.9-2.7-2.9-2.7s0.1-0.9,0.2-2.1
		c2.2,4.7,8.6,4.7,8.6,4.7s3.6,3.1,7.9,4.3c3.1,0.9,4.8,1.1,7.3,0.1C89.8,252.4,86.8,252.7,82.9,251.9z"/>
	<path class="st2" d="M57.8,242.7c0,0-0.5,6.5-0.4,9s2.9,11.7-0.4,14.9c-3.2,3.2-7.7-0.2-8.8-5.4s0.2-14.2,0.9-17.5s2.5-5.4,2.5-5.4
		L57.8,242.7z"/>
	<path class="st2" d="M57.1,266.7c-3.2,3.2-7.7-0.2-8.8-5.4c-0.1-0.7-0.2-1.5-0.3-2.3c2,6.2,5.1,7.3,7,7.3c1.2,0,2.7-1.5,3.6-3.3
		C58.4,264.5,58,265.8,57.1,266.7z"/>
	<path class="st2" d="M90.8,134.5c2.7,14-1.2,46.2-3.4,55.8c-2.6,11-8.5,45.7-8.5,45.7s-2.9,4.1-7.4,3.2s-5.4-5-5.4-5
		s6.3-37.3,7.2-44.7c0.9-7.4,0.2-21.4,0.2-21.4s-5.8,30.3-7.6,39.6c-1.8,9.4-6.8,36.6-6.8,36.6s-2,5-7,3.6c-5-1.4-4.9-5.8-4.9-5.8
		s5.4-39.4,6.1-49.3c0.7-9.9,3.8-53.5,3.8-53.5L90.8,134.5z"/>
	<path class="st3" d="M77.3,154.5c1.1-0.9-1.4,28.3-2.7,36.2c-0.6,3.8-2.1,9.3-3.6,14c1.1-6.7,2-12.6,2.3-15.1
		c0.9-7.4,0.2-21.4,0.2-21.4S76.2,155.4,77.3,154.5z"/>
	<path class="st2" d="M47.2,242.2c0,0,5.4-39.4,6.1-49.3c0.7-9.9,3.8-53.5,3.8-53.5l5-0.7c-1.6,13.2-5.3,47.5-6.5,57.8
		c-1,8.8-5.3,38.8-6.8,49.7C47.1,244.3,47.2,242.2,47.2,242.2z"/>
	<path class="st2" d="M89.9,80.3c0,0,2.7,51.5,2.2,53.3c-0.5,1.8-7.4,8.1-14.6,8.5C70.2,142.4,60,141,60,141l0.5-56.4l5.2-7.9
		c0,0,3.2,5,8.1,3.8c4.9-1.3,3.6-5.9,3.6-5.9L89.9,80.3z"/>
	<path class="st2" d="M67.4,155.9c0,0,4.7-33,4.3-49.2s-5.9-30.1-5.9-30.1s-10.6,4.9-13.5,7.9c-2.9,3.1,0.7,22,0.4,29.9
		c-0.4,7.9-3.2,36.7-3.2,36.7s3.3,3.3,7.6,4C63.2,156.1,67.4,155.9,67.4,155.9z"/>
	<path class="st2" d="M55.6,146.8c0,0,3.7,8,2.9,9.1c-0.8,1.1-4.6,1.4-6.8,0.1c-2.1-1.3-3.3-9.4-3.3-9.4L55.6,146.8z"/>
	<path class="st2" d="M54.8,141.1l2,5.3c0,0-0.5,2.3-3.3,2.6c-2.7,0.4-4.3-0.6-4.3-0.6l-2.2-5.6L54.8,141.1z"/>
	<path class="st2" d="M78.7,75.1c0,0,6.1,2.9,7,14.2c0.9,11.3-0.7,18.7,1.1,30.1c1.8,11.3,5.4,30.1,5.4,30.1s3.1-0.5,3.4-4.3
		s-2.3-22.7-2.5-33.3s1.3-18.6,0.7-25.4c-0.5-6.3-5-10.3-9.4-11C82,75,78.7,75.1,78.7,75.1z"/>
	<path class="st2" d="M52.4,83.9c-5.8,5.1-12.9,31-13.4,34.2c-0.5,3.2,8.5,27.5,8.5,27.5s2.6,0.5,5.3-0.5s3.3-2.7,3.3-2.7
		s-5.6-19.5-5.5-23.1s6.2-18.3,7.7-23.5C59.6,90.5,57.6,79.4,52.4,83.9z"/>
	<path class="st2" d="M82.9,62.6c0,0-0.1,8.2-1.4,11.1c-1.3,2.9-6.7,2.6-10,1.1c-3.2-1.5-7.2-5.2-7.8-7.4c-0.5-1.8-1.4-2.6-1.4-2.6
		s-2.8-1.3-3.4-3.7c-0.6-2.4,0.9-3.5,0.9-3.5s1.9-8.2,3.7-9.5c1.8-1.3,10-4.2,13.9-2S83.3,55.7,83,57C82.7,58.4,83,60.3,82.9,62.6z"
		/>
	<path class="st2" d="M82.8,53.9c0,0,1.7-3.6,0.5-5.8c-1.2-2.3-3.9-2.6-3.9-2.6s0.4-3.6-3.8-4.5c-4.2-0.9-13.8,0-16.5,7.6
		s0.6,9.2,0.6,9.2s2-0.4,2.4,1.4c0.4,1.8,1.2,2.8,1.8,3.1c0.6,0.3,0.1-5.9,1.7-7.6c1.7-1.7,3.7-0.6,6.8-1.3c3.1-0.7,6.6-5.4,6.6-5.4
		S82.1,51,82.8,53.9z"/>
	<path class="st2" d="M77.5,73.7c0.4-2.2-1-6.4-1-6.4s2.2-0.6,2.3-1.6c0.1-1.1-2.2-6.5-1.4-7.4c0.7-0.9,4-0.7,5.6-1.2
		c-0.3,1.3,0,3.3-0.2,5.6c0,0-0.1,8.2-1.4,11.1c-1.1,2.4-5,2.6-8.1,1.8C74.5,75.6,77.1,75.9,77.5,73.7z"/>
	<path class="st2" d="M92.7,82.1c5.5,11.8,7.1,28,7.9,33.5c0.8,5.5-5.1,21.3-5.1,21.3"/>
</g>
<path class="st4" d="M333.6,69.5l-289.8,169l-6.7,4c-4.6,2.3-8.8,6.7-11.5,12.5c-5,10.9-2.8,22.7,5.1,26.4l137.3,80.7"/>
<g>
	<path class="st2" d="M292.3,189.2c0,0-6.6-3.5-7.7-5.2s-1.6-5.1,1.3-6.2c2.8-1,4.7,1.5,4.7,1.5l6.1,3.6L292.3,189.2z"/>
	<path class="st2" d="M295.7,193.1l-5.5-4.6c0,0-1.2-2.6,0.8-4.8s4.6-2.3,4.6-2.3l6.8,5.4L295.7,193.1z"/>
	<path class="st2" d="M350,192c-11-5.5-33.5,2.3-37.6,1.5c-4-0.8-13.8-10.6-13.8-10.6s-4.7-0.6-5.1,4.5s2.1,5.9,2.1,5.9
		s10.2,9.6,15.5,10.6c5.3,1.1,38.6,1.5,39.3,1.3S350,192,350,192z"/>
</g>
<line class="st1" x1="246.3" y1="2.7" x2="246.3" y2="120.5"/>
<polyline class="st1" points="569.4,389.4 386.7,282.6 386.7,45.2 313,2.2 "/>
<ellipse transform="matrix(0.4188 -0.9081 0.9081 0.4188 -208.1705 361.7153)" class="st1" cx="178.5" cy="343.5" rx="17.4" ry="12.5"/>
<line class="st1" x1="341.1" y1="259.8" x2="316.5" y2="245.5"/>
<line class="st1" x1="356.4" y1="228.6" x2="350.9" y2="225.4"/>
<line class="st1" x1="264.3" y1="304.6" x2="239.7" y2="290.3"/>
<line class="st1" x1="279.6" y1="273.3" x2="274.1" y2="270.2"/>
<line class="st5" x1="216.8" y1="312.5" x2="209.2" y2="308.1"/>
<line class="st1" x1="186.3" y1="327.9" x2="180.8" y2="324.7"/>
<path class="st1" d="M386.7,242.9L189.1,357.7l-9.5,5.4c-3.4,1.2-6.8,1.2-9.8-0.2c-7.9-3.6-10.1-15.4-5.1-26.4
	c2.7-5.8,6.9-10.3,11.5-12.5l6.7-4l203.4-118.7"/>
<path class="st5" d="M386.8,239L187.4,355.1l-7.9,4.5c-2.8,1-5.6,1-8.2-0.1c-6.5-3-8.4-12.8-4.2-21.9c2.2-4.9,5.8-8.5,9.6-10.4
	l5.6-3.3l204.2-119.3"/>
<ellipse transform="matrix(0.4188 -0.9081 0.9081 0.4188 -208.1705 361.7153)" class="st5" cx="178.5" cy="343.5" rx="5.4" ry="3.9"/>
<ellipse transform="matrix(0.4188 -0.9081 0.9081 0.4188 -151.9216 377.8227)" class="st5" cx="219.2" cy="307.6" rx="5.4" ry="3.9"/>
<line class="st5" x1="303.2" y1="261.9" x2="295.6" y2="257.4"/>
<ellipse transform="matrix(0.4188 -0.9081 0.9081 0.4188 -55.7025 426.8467)" class="st5" cx="305.6" cy="256.9" rx="5.4" ry="3.9"/>
<line class="st5" x1="378.6" y1="217.9" x2="370.9" y2="213.5"/>
<ellipse transform="matrix(0.4188 -0.9081 0.9081 0.4188 28.0067 469.7337)" class="st5" cx="380.9" cy="213" rx="5.4" ry="3.9"/>
<ellipse transform="matrix(0.4188 -0.9081 0.9081 0.4188 -19.0754 458.5127)" class="st1" cx="348.6" cy="244.2" rx="17.4" ry="12.5"/>
<ellipse transform="matrix(0.4188 -0.9081 0.9081 0.4188 -19.0754 458.5127)" class="st5" cx="348.6" cy="244.2" rx="5.4" ry="3.9"/>
<ellipse transform="matrix(0.4188 -0.9081 0.9081 0.4188 -104.3029 414.7434)" class="st1" cx="271.8" cy="288.9" rx="17.4" ry="12.5"/>
<ellipse transform="matrix(0.4188 -0.9081 0.9081 0.4188 -104.3029 414.7434)" class="st5" cx="271.8" cy="288.9" rx="5.4" ry="3.9"/>
<g>
	<g>
		<polygon class="st6" points="58.8,282 58.8,338.2 101.8,363.5 101.8,307.2 		"/>
		<polygon class="st7" points="24.5,302 24.5,358.2 58.8,338.2 58.8,282 		"/>
		<path class="st7" d="M24.5,358.2l43.1,25.2l34.3-20l-43.1-25.2L24.5,358.2z M30.2,358.4L59,341.6l37.4,21.9l-28.8,16.7L30.2,358.4
			z"/>
		<polygon class="st4" points="24.6,302 58.8,282.1 101.8,307.3 101.8,307.2 101.8,363.5 67.6,383.4 24.5,358.2 24.5,302 		"/>
		<line class="st8" x1="85.5" y1="316.9" x2="42.8" y2="291.5"/>
		<path class="st6" d="M24.5,302"/>
		<polyline class="st9" points="101.8,307.3 67.6,327.3 67.6,383.4 		"/>
		<line class="st9" x1="24.5" y1="302" x2="67.6" y2="327.3"/>
	</g>
	<path id="path0_fill_5_" class="st10" d="M44.2,327.7l6.1,25.6l-2.4-1.3l-5.7-23.5C42.8,328.1,43.4,327.8,44.2,327.7z M53.2,354.5
		c-0.6-0.1-1.4-0.2-2.1-0.6l-0.3-0.2l-6.2-26c0.7,0,1.5,0.2,2.4,0.7L53.2,354.5z M40.8,348.2l-1.3-0.7c-0.2-0.1-0.4-0.3-0.5-0.4
		l-3.3-14c0.4-0.4,0.9-0.8,1.4-1L40.8,348.2z M34.4,336.6c0.1-0.8,0.2-1.7,0.5-2.3l2.8,11.5C35.5,343.5,34.1,339.9,34.4,336.6z
		 M41.8,329.2l5.4,22.4l-2.2-1.2l-4.3-17.9C40.8,331.1,41.2,330,41.8,329.2z M52.3,339c3.2,1.8,5.5,6.6,5.2,10.7
		c-0.2,2.9-1.8,4.8-3.8,4.9l-6.2-26C50.4,330.5,52.6,335.1,52.3,339z M39.8,332.2l4.2,17.7l-2-1.1l-4-16.9
		C38.6,331.8,39.1,331.9,39.8,332.2z"/>
</g>
<polyline class="st5" points="337.6,2.7 406.5,42.9 406.5,294.7 "/>
<line class="st5" x1="226.4" y1="131.8" x2="226.4" y2="1.7"/>
<g>
	<g>
		<polygon class="st6" points="219.7,165.2 219.7,221.5 262.7,196.2 262.7,140 		"/>
		<polygon class="st7" points="262.7,140 262.7,196.2 297,216.2 297,159.9 		"/>
		<path class="st7" d="M262.7,196.2l-43.1,25.2l34.3,20l43.1-25.2L262.7,196.2z M253.9,238.3l-28.8-16.7l37.4-21.9l28.8,16.7
			L253.9,238.3z"/>
		<polygon class="st4" points="297,160 262.7,140 219.7,165.3 219.7,165.2 219.7,221.5 253.9,241.4 297,216.2 297,159.9 		"/>
		<line class="st8" x1="236" y1="174.8" x2="278.7" y2="149.5"/>
		<path class="st6" d="M297,160"/>
		<polyline class="st9" points="219.7,165.3 253.9,185.2 253.9,241.4 		"/>
		<line class="st9" x1="297" y1="160" x2="253.9" y2="185.2"/>
	</g>
	<path id="path0_fill_3_" class="st10" d="M279.2,186.6l-5.7,23.5l-2.4,1.3l6.1-25.6C278.1,185.7,278.7,186.1,279.2,186.6z
		 M274.5,186.3c0.8-0.5,1.6-0.7,2.4-0.7l-6.2,26l-0.3,0.2c-0.7,0.4-1.4,0.6-2.1,0.6L274.5,186.3z M284.5,190.1c0.5,0.2,1,0.6,1.4,1
		l-3.3,14c-0.2,0.1-0.4,0.3-0.5,0.4l-1.3,0.7L284.5,190.1z M283.9,203.8l2.8-11.5c0.3,0.6,0.5,1.5,0.5,2.3
		C287.4,197.9,286,201.5,283.9,203.8z M280.8,190.5l-4.3,17.9l-2.2,1.2l5.4-22.4C280.3,188,280.7,189.1,280.8,190.5z M274.1,186.5
		l-6.2,26c-2.1-0.1-3.6-1.9-3.8-4.9c-0.3-4.1,2-8.9,5.2-10.7C268.9,193,271.1,188.5,274.1,186.5z M283.5,189.8l-4,16.9l-2,1.1
		l4.2-17.7C282.4,189.8,283,189.8,283.5,189.8z"/>
</g>
<polyline class="st1" points="333.6,14.6 333.6,69.5 385.9,100.7 "/>
<line class="st5" x1="345.9" y1="77.5" x2="345.9" y2="21.9"/>
<line class="st5" x1="359.3" y1="84.8" x2="359.3" y2="29.1"/>
<line class="st5" x1="372.8" y1="93.4" x2="372.8" y2="37.8"/>
<g>
	<path class="st2" d="M348.8,353.2c0,0,1.6,5,1.8,7.4c0.2,2.4,0,5.2,0,5.2s-2.4,2.6-6,1s-4.2-6.4-4.2-6.4s-7.4-3.6-9-5.8
		c-1.6-2.2-3.4-8.4,2.2-6.8s9.2,4.4,9.2,4.4L348.8,353.2z"/>
	<path class="st2" d="M261.7,220.1c-0.6-2.9-5.3-4.6-6.2-5.5s-1.3-4.4-1.8-5.1c-0.6-0.8-2.1-1.1-2.1,2.5c0,3.6,0.6,5.6,1.5,7.5
		c0.9,1.9,5.9,7,5.9,7L261.7,220.1z"/>
	<path class="st2" d="M329.5,364.3c0,0,2,6,2.4,8.8c0.4,2.8,0.8,5.6,0.8,5.6s-2.6,2.6-5.6,2.6s-7.4-2.2-7.4-2.2s-9.8-0.6-13.8-3.2
		c-4-2.6-5.4-5.2-4.2-7.2c1.2-2,11-0.2,11-0.2l7.6-0.6l1.2-4.8L329.5,364.3z"/>
	<path class="st5" d="M348.8,353.2c0,0,1.1,3.3,1.6,5.9c-1.7,1.4-3.1,2-5,1.5c-2.8-0.8-4.8-3.2-4.8-5.2c0-0.7,0-2.5,0.1-4.5
		c1.3,0.8,2.1,1.4,2.1,1.4L348.8,353.2z"/>
	<path class="st5" d="M316.8,370.1c0.4-1.6,3.6-2.2,3.6-2.2l1.2-4.8l8,1.2c0,0,1.1,3.4,1.9,6.3c-1.9,1.9-4.3,3.5-8,2.9
		C318.5,372.7,316.4,371.7,316.8,370.1z"/>
	<path class="st2" d="M349.9,254.5c0,0,2.7,6.7,2.3,17.3c-0.4,8.4-4.1,27.8-4.4,34.4s4.8,43.7,3.9,46.6c-0.9,3-3,4.9-7,4
		c-4-0.9-5.5-6.4-5.5-6.4s-6.1-35.7-6.6-41.7c-0.4-6,0.6-29.9,0.6-29.9s-4.3,2.4-5.1,9.9s-1.5,21.8-1.3,28.3s5.4,43.8,5.2,45.9
		c-0.1,2.1-2.2,5.1-6.6,4.6c-4.3-0.4-6.6-4.2-6.6-4.2s-7-38.6-7.5-47.2c-0.4-8.7-0.3-47.1-0.3-47.1L349.9,254.5z"/>
	<path class="st5" d="M333,312c-0.2-1.4-0.3-2.5-0.4-3.2c-0.4-6,0.6-29.9,0.6-29.9l6.4-3.6C339.6,275.3,333.7,299.8,333,312z"/>
	<path class="st5" d="M315.8,267.2c0.5,21.4-0.8,39.5,0.2,49.2c0.9,9.1,5.4,41.5,7.3,50.5c-2.9-1.2-4.4-3.7-4.4-3.7
		s-7-38.6-7.5-47.2c-0.4-8.7-0.3-47.1-0.3-47.1L315.8,267.2z"/>
	<path class="st2" d="M268,222.8l-3.9-3.1c0,0-4.5-1.5-5.8,1.5c-1.3,3,0.4,7.5,0.4,7.5l5.1,4.3L268,222.8z"/>
	<path class="st2" d="M323.6,198.3l-1.6-5.5c0,0-5.1,1-7.8,0.4c-2.7-0.6-4.6-6.7-5.1-8.7c-0.4-1.9-1.5-8.2-1.5-8.2s0.1-6.4,2.7-10.2
		c2.5-3.7,17.3-3.3,19.4,0c2.1,3.3,2.5,15.8,2.4,18.7c-0.1,2.8,2.5,6.3,2.5,6.3L323.6,198.3z"/>
	<path class="st5" d="M320.5,187.2c1.5-3.3,1.5-7,1.5-7l2.8,4.3l6.9,7.2l-0.8,1.9l-7.3,4.7l-1.6-5.5c0,0-5.1,1-7.8,0.4
		C316.5,192.6,319,190.5,320.5,187.2z"/>
	<path class="st2" d="M352.1,236.6c0,9.2,1.9,21,1.9,21s-0.3,5.1-14.5,11.1c-14.2,6-21.1,6.7-25.9,5.4c-4.8-1.3-6.9-4.6-6.9-4.6
		s3.4-19.3,3.6-26.8c0.1-7.5-0.7-14.4-0.7-14.4s-16,18.8-21.1,19.6s-26.6-15.8-26.6-15.8s-2.7-3.9,0.1-8.1c2.8-4.2,6.9-1.9,6.9-1.9
		s14.7,11.1,16.4,10.8c1.8-0.3,13.9-19.6,19.6-24.4c5.7-4.8,26.3-15.1,26.3-15.1s18.7-6.7,22.6,2.4
		C357.9,205.2,352.1,222.8,352.1,236.6z"/>
	<path class="st11" d="M336,189c0,0,2.8,2.4,2.1,4.8c-0.7,2.4-6.1,6.4-11.4,6.7s-9.3,0-9.3,0s5.8-5.5,10.2-8.2
		C332,189.6,336,189,336,189z"/>
	<path class="st5" d="M306.7,269.5c0,0,3.4-19.3,3.6-26.8c0.1-7.5-0.7-14.4-0.7-14.4c2.4-3.4,5.2-1.9,5.8,6
		c0.6,7.7-0.7,22.2-2.7,39.4C308.5,272.3,306.7,269.5,306.7,269.5z"/>
	<path class="st12" d="M268.5,228.4c-2.3-1.7-4.2-3.6-5.7-5.3c2.8-2.9,6.1-1,6.1-1s14.7,11.1,16.4,10.8
		C279.9,234.4,274.5,232.8,268.5,228.4z"/>
	<path class="st2" d="M331.4,159.6c6.8,3,7.6,12.9,6.4,17.9c-1.2,5.1-5.4,9.3-5.4,9.3s-4,1.9-6.6,0.4c-1.9-1-4.5-2.7-4.5-2.7
		s1.9-5.1-1-7.3c-3-2.2-5.1,2.7-5.1,2.7s-2.2,0.4-3-2.8c-0.7-3.3,1.3-9.9,1.3-9.9s-4.8,0.9-5.2-1.3c-0.4-2.2,1-7.9,5.8-7.8
		c4.8,0.1,6.6,0.7,6.6,0.7S325,156.7,331.4,159.6z"/>
	<path class="st5" d="M313.6,167.2c-0.7,0.1-1.3,0.1-2,0.2c-1.4,0-3-0.3-3.2-1.5c-0.4-2.2,1-7.9,5.8-7.8c4.8,0.1,6.6,0.7,6.6,0.7
		s4.2-2.1,10.6,0.7c0.1,0.1,0.3,0.1,0.4,0.2C329.1,163.6,320.7,166.3,313.6,167.2z"/>
</g>
<g>
	<polygon class="st13" points="524.7,306.1 524.7,285.5 421,224.9 421,245.2 	"/>
	<line class="st14" x1="421" y1="245.2" x2="435.7" y2="233.2"/>
	<line class="st14" x1="510" y1="297.3" x2="524.7" y2="285.3"/>
	<line class="st14" x1="495.2" y1="288.6" x2="509.8" y2="276.6"/>
	<line class="st14" x1="480.3" y1="279.9" x2="495" y2="268"/>
	<line class="st14" x1="465.5" y1="271.3" x2="480.2" y2="259.3"/>
	<line class="st14" x1="450.7" y1="262.6" x2="465.3" y2="250.6"/>
	<line class="st14" x1="435.9" y1="253.9" x2="450.5" y2="241.9"/>
</g>
<g>
	<polygon class="st13" points="213.9,125.4 213.9,104.7 110.2,44.2 110.2,64.5 	"/>
	<line class="st14" x1="110.2" y1="64.5" x2="124.8" y2="52.5"/>
	<line class="st14" x1="199.1" y1="116.6" x2="213.8" y2="104.6"/>
	<line class="st14" x1="184.3" y1="107.9" x2="199" y2="95.9"/>
	<line class="st14" x1="169.5" y1="99.2" x2="184.1" y2="87.2"/>
	<line class="st14" x1="154.7" y1="90.5" x2="169.3" y2="78.5"/>
	<line class="st14" x1="139.8" y1="81.8" x2="154.5" y2="69.8"/>
	<line class="st14" x1="125" y1="73.1" x2="139.6" y2="61.2"/>
</g>
<g>
	<g>
		<polygon class="st6" points="282.4,77.6 282.4,133.8 325.5,108.5 325.5,52.3 		"/>
		<polygon class="st7" points="325.5,52.3 325.5,108.5 359.8,128.5 359.8,72.3 		"/>
		<path class="st7" d="M325.5,108.5l-43.1,25.2l34.3,20l43.1-25.2L325.5,108.5z M316.7,150.6l-28.8-16.7l37.4-21.9l28.8,16.7
			L316.7,150.6z"/>
		<polygon class="st4" points="359.7,72.3 325.5,52.4 282.5,77.6 282.4,77.6 282.4,133.8 316.7,153.7 359.8,128.5 359.8,72.3 		"/>
		<line class="st8" x1="298.8" y1="87.2" x2="341.5" y2="61.8"/>
		<path class="st6" d="M359.8,72.3"/>
		<polyline class="st9" points="282.4,77.6 316.7,97.6 316.7,153.7 		"/>
		<line class="st9" x1="359.8" y1="72.3" x2="316.7" y2="97.6"/>
	</g>
	<path id="path0_fill_2_" class="st10" d="M342,98.9l-5.7,23.5l-2.4,1.3l6.1-25.6C340.9,98.1,341.5,98.4,342,98.9z M337.3,98.6
		c0.8-0.5,1.6-0.7,2.4-0.7l-6.2,26l-0.3,0.2c-0.7,0.4-1.4,0.6-2.1,0.6L337.3,98.6z M347.2,102.4c0.5,0.2,1,0.6,1.4,1l-3.3,14
		c-0.2,0.1-0.4,0.3-0.5,0.4l-1.3,0.7L347.2,102.4z M346.6,116.1l2.8-11.5c0.3,0.6,0.5,1.5,0.5,2.3
		C350.2,110.2,348.8,113.8,346.6,116.1z M343.6,102.8l-4.3,17.9l-2.2,1.2l5.4-22.4C343.1,100.3,343.5,101.4,343.6,102.8z
		 M336.9,98.8l-6.2,26c-2.1-0.1-3.6-1.9-3.8-4.9c-0.3-4.1,2-8.9,5.2-10.7C331.7,105.4,333.9,100.8,336.9,98.8z M346.3,102.2l-4,16.9
		l-2,1.1l4.2-17.7C345.2,102.2,345.7,102.1,346.3,102.2z"/>
</g>
</svg>
