<svg width="116" height="101" viewBox="0 0 116 101" fill="none" xmlns="http://www.w3.org/2000/svg">
<path d="M51.0974 11.7821L7.05606 86.956C3.93158 92.2892 7.77766 99 13.9587 99H102.041C108.222 99 112.068 92.2892 108.944 86.956L64.9026 11.7821C61.8124 6.50737 54.1876 6.50738 51.0974 11.7821Z" stroke="white" stroke-width="4"/>
<path d="M37.4268 4.29355L2.72227 62.1994C1.52386 64.199 2.96429 66.7416 5.29551 66.7416H74.7045C77.0357 66.7416 78.4762 64.199 77.2777 62.1994L42.5732 4.29356C41.4083 2.34984 38.5917 2.34984 37.4268 4.29355Z" transform="translate(18 21.1348)" stroke="white" stroke-width="2"/>
<path d="M8.68571 12.7183V3.71428C8.68571 1.66294 7.02277 0 4.97143 0V0C2.92008 0 1.25714 1.66294 1.25714 3.71429V12.7183L2.20574 25.2387C2.31532 26.6851 3.52088 27.8028 4.97143 27.8028V27.8028C6.42197 27.8028 7.62753 26.6851 7.73712 25.2387L8.68571 12.7183ZM0 36.8535C0 39.7521 2.17143 42 4.97143 42C7.77143 42 10 39.7521 10 36.8535C10 33.9549 7.77143 31.6479 4.97143 31.6479C2.17143 31.6479 0 33.9549 0 36.8535Z" transform="translate(53 39)" fill="white"/>
</svg>
