<?xml version="1.0" encoding="UTF-8"?>
<svg width="100px" height="100px" viewBox="0 0 100 100" version="1.1" xmlns="http://www.w3.org/2000/svg" xmlns:xlink="http://www.w3.org/1999/xlink">
    <!-- Generator: Sketch 49.3 (51167) - http://www.bohemiancoding.com/sketch -->
    <title>CXO_icon</title>
    <desc>Created with Sketch.</desc>
    <defs></defs>
    <g id="CXO_icon" stroke="none" stroke-width="1" fill="none" fill-rule="evenodd">
        <g transform="translate(25.000000, 18.000000)">
            <g id="Group" transform="translate(9.000000, 26.000000)" stroke="#0072FF" stroke-linecap="round" stroke-linejoin="round">
                <g id="Vector">
                    <path d="M0.0789,0 L34.5,0" id="Shape"></path>
                </g>
                <g id="Vector_2" transform="translate(0.000000, 10.000000)">
                    <path d="M0.0789,0 L34.5,0" id="Shape"></path>
                </g>
                <g id="Vector_3" transform="translate(0.000000, 19.000000)">
                    <path d="M0.0789,0 L19.8947,0" id="Shape"></path>
                </g>
                <g id="Vector_4" transform="translate(23.000000, 16.000000)">
                    <polyline id="Shape" points="0.131600602 0.298798796 3.44739 3.61323 0.131600602 6.84874"></polyline>
                </g>
            </g>
            <g id="Vector_5" stroke="#92A4BA" stroke-width="2">
                <path d="M45.3947,0 L50.9211,0 L50.9211,14.1258 L7.02632,14.1258 C3.15789,14.1258 0,10.9692 0,7.02343 C0,3.1566 3.15789,0 7.02632,0 L22.3421,0 L45.3947,0 Z" id="Shape"></path>
            </g>
            <g id="Vector_6" transform="translate(0.000000, 8.000000)" stroke="#92A4BA" stroke-width="2">
                <path d="M0,0.207029699 L0,46.60903 C0,51.81743 4.18421,55.99983 9.39474,55.99983 L51,55.99983 L51,40.69043 L51,20.48813 L51,6.12565" id="Shape"></path>
            </g>
            <g id="Vector_7" transform="translate(0.000000, 7.000000)" stroke="#92A4BA" stroke-width="2">
                <path d="M0,0.023439699 C0,3.89027 3.15789,7.04687 7.02632,7.04687 L50.9211,7.04687" id="Shape"></path>
            </g>
        </g>
    </g>
</svg>