<svg width="119" height="99" viewBox="0 0 119 99" fill="none" xmlns="http://www.w3.org/2000/svg">
<path d="M18.0598 2H38.2608C43.314 2 47.5731 5.76976 48.1868 10.7855L54.061 58.7963H2.25962L8.13385 10.7855C8.74754 5.76977 13.0067 2 18.0598 2Z" transform="translate(31.7939 37.2031)" stroke="white" stroke-width="4"/>
<path d="M0 0H74.4886" transform="translate(21.8015 96.1855)" stroke="white" stroke-width="4"/>
<path d="M0 19.963V0" transform="translate(59.0459)" stroke="white" stroke-width="4"/>
<path d="M0 19.9847V0" transform="translate(0 57.166) rotate(-90)" stroke="white" stroke-width="4"/>
<path d="M0 19.9847V0" transform="translate(99.0154 57.166) rotate(-90)" stroke="white" stroke-width="4"/>
<path d="M0 19.9739V0" transform="translate(102.246 16.334) scale(1.00054 0.999455) rotate(45)" stroke="white" stroke-width="4"/>
<path d="M0 19.9739V0" transform="translate(16.3511 16.334) scale(-1.00054 0.999455) rotate(45)" stroke="white" stroke-width="4"/>
</svg>
