<?xml version="1.0" encoding="utf-8"?>
<!-- Generator: Adobe Illustrator 15.1.0, SVG Export Plug-In . SVG Version: 6.00 Build 0)  -->
<!DOCTYPE svg PUBLIC "-//W3C//DTD SVG 1.1//EN" "http://www.w3.org/Graphics/SVG/1.1/DTD/svg11.dtd">
<svg version="1.1" id="Livello_1" xmlns="http://www.w3.org/2000/svg" xmlns:xlink="http://www.w3.org/1999/xlink" x="0px" y="0px"
	 width="30px" height="35.262px" viewBox="0 0 30 35.262" enable-background="new 0 0 30 35.262" xml:space="preserve">
<path fill="none" d="M27.176,10.992c-0.85,0-1.606,0.379-2.129,0.973v-0.501c0-0.01,0-0.021,0-0.041c0-0.021,0-0.041,0-0.062
	c0-3.234-1.78-6.098-4.491-7.766l1.125-2.026c0.276-0.501,0.093-1.125-0.399-1.401l0,0c-0.501-0.277-1.125-0.093-1.401,0.399
	l-1.176,2.118C17.558,2.264,16.31,2.029,15,2.029s-2.558,0.235-3.704,0.655L10.13,0.566C9.854,0.064,9.219-0.11,8.728,0.167l0,0
	c-0.502,0.276-0.686,0.9-0.409,1.401l1.125,2.026C6.743,5.272,4.953,8.126,4.953,11.36c0,0.021,0,0.041,0,0.062
	c0,0.01,0,0.02,0,0.041v0.501c-0.522-0.594-1.279-0.973-2.129-0.973C1.269,10.992,0,12.261,0,13.816v8.697
	c0,1.555,1.269,2.824,2.824,2.824c0.85,0,1.606-0.378,2.129-0.972v1.217c0,1.647,1.339,2.988,2.987,2.988h0.757v3.868
	c0,1.556,1.269,2.824,2.824,2.824c1.555,0,2.824-1.269,2.824-2.824V28.57h1.311v3.868c0,1.556,1.269,2.824,2.824,2.824
	c1.555,0,2.824-1.269,2.824-2.824V28.57h0.757c1.648,0,2.987-1.34,2.987-2.988v-1.217c0.522,0.594,1.279,0.972,2.129,0.972
	c1.555,0,2.824-1.269,2.824-2.824v-8.697C30,12.261,28.731,10.992,27.176,10.992z"/>
<path fill="#0072FF" d="M27.176,11.729c-1.146,0-2.088,0.941-2.088,2.087v8.697c0,1.146,0.942,2.087,2.088,2.087
	c1.146,0,2.087-0.942,2.087-2.087v-8.697C29.263,12.66,28.322,11.729,27.176,11.729z M2.824,11.729
	c-1.146,0-2.087,0.941-2.087,2.087v8.697c0,1.146,0.941,2.087,2.087,2.087c1.146,0,2.088-0.942,2.088-2.087v-8.697
	C4.912,12.66,3.97,11.729,2.824,11.729z M24.311,12.087v13.496c0,1.249-1.002,2.251-2.25,2.251h-1.494v4.604
	c0,1.146-0.941,2.087-2.087,2.087s-2.087-0.941-2.087-2.087v-4.604h-2.783v4.604c0,1.146-0.941,2.087-2.087,2.087
	s-2.087-0.941-2.087-2.087v-4.604H7.94c-1.249,0-2.25-1.003-2.25-2.251V12.087H24.311z M19.563,3.871l1.474-2.661
	c0.082-0.143,0.03-0.327-0.113-0.399c-0.041-0.02-0.092-0.041-0.144-0.041c-0.102,0-0.204,0.051-0.256,0.154l-1.494,2.681
	C17.813,3.062,16.443,2.755,15,2.755s-2.813,0.307-4.031,0.849L9.485,0.924C9.403,0.781,9.229,0.729,9.086,0.811
	C8.942,0.893,8.892,1.067,8.974,1.21l1.473,2.661c-2.834,1.474-4.737,4.267-4.748,7.48h18.622
	C24.311,8.137,22.398,5.344,19.563,3.871z M10.702,7.942c-0.429,0-0.777-0.348-0.777-0.777s0.348-0.778,0.777-0.778
	c0.43,0,0.778,0.348,0.778,0.778S11.132,7.942,10.702,7.942z M19.298,7.942c-0.431,0-0.778-0.348-0.778-0.777
	s0.348-0.778,0.778-0.778c0.429,0,0.777,0.348,0.777,0.778S19.727,7.942,19.298,7.942z"/>
</svg>
