<?xml version="1.0" encoding="UTF-8"?>
<svg width="226px" height="226px" viewBox="0 0 226 226" version="1.1" xmlns="http://www.w3.org/2000/svg" xmlns:xlink="http://www.w3.org/1999/xlink">
    <!-- Generator: Sketch 49.1 (51147) - http://www.bohemiancoding.com/sketch -->
    <title>Artboard</title>
    <desc>Created with Sketch.</desc>
    <defs></defs>
    <g id="Artboard" stroke="none" stroke-width="1" fill="none" fill-rule="evenodd">
        <g id="face_outline" transform="translate(1.000000, 8.000000)" stroke="#A8B0BA">
            <path d="M223.8,217.6 C224.2,193.6 228.9,163.5 197.2,148.7 C184.1,142.6 162.2,134.4 157.8,132.9 C153.4,131.4 150.7,129 148.1,125.4 C145.6,121.7 141.9,121.2 141.9,121.2 C141.9,121.2 141.3,118.9 141.1,116.4 C140.9,113.9 141.3,110.8 141.3,110.8 C141.3,110.8 143.6,106.2 145.2,101.5 C146.7,96.9 147.9,90.9 147.9,90.9 C149.8,91.9 152.6,92.8 154.3,86.8 C155.6,81.9 155.7,78.3 158.5,69.4 C161.3,60.5 154.6,62.1 154.6,62.1 C154.6,62.1 160.8,38.5 151.9,24.2 C143,9.9 137,5.1 110.8,1.6 C84.5,-1.9 83.4,10.5 83.4,10.5 C83.4,10.5 70.7,9.9 67.2,28.1 C63.7,46.3 71.3,62.3 71.3,62.3 C71.3,62.3 66.3,60.4 66.3,67.1 C66.3,73.8 68.4,75 69.4,77.7 C70.4,80.4 70.4,82.5 72.3,88.1 C74.2,93.7 77.7,91.8 77.7,91.8 C77.7,91.8 78.3,94.9 80,100.1 C81.7,105.3 84.4,109.6 84.4,109.6 L83.8,122.7 C83.8,122.7 80.1,124.1 78,126 C75.9,127.9 73.8,130.8 70.5,133.1 C67.2,135.4 42.7,143.9 32.1,147.6 C21.5,151.3 3.3,155.5 1.4,182.7 C-0.1,203.4 0.1,213.8 0.3,217.6" id="Shape"></path>
        </g>
    </g>
</svg>