<?xml version="1.0" encoding="UTF-8"?>
<svg width="414px" height="414px" viewBox="0 0 414 414" version="1.1" xmlns="http://www.w3.org/2000/svg" xmlns:xlink="http://www.w3.org/1999/xlink">
    <!-- Generator: Sketch 49.1 (51147) - http://www.bohemiancoding.com/sketch -->
    <title>Artboard</title>
    <desc>Created with Sketch.</desc>
    <defs></defs>
    <g id="Artboard" stroke="none" stroke-width="1" fill="none" fill-rule="evenodd">
        <g id="silhouette_outline" transform="translate(0.000000, 15.000000)" stroke="#A8B0BA">
            <path d="M411.7,398.8 C412.4,354.7 421.1,299.4 362.8,272.2 C338.7,261 298.5,245.9 290.4,243.2 C282.3,240.4 277.4,236 272.6,229.4 C268,222.6 261.2,221.7 261.2,221.7 C261.2,221.7 260.1,217.5 259.7,212.9 C259.3,208.3 260.1,202.6 260.1,202.6 C260.1,202.6 264.3,194.1 267.3,185.5 C270.1,177 272.3,166 272.3,166 C275.8,167.8 280.9,169.5 284.1,158.5 C286.5,149.5 286.7,142.9 291.8,126.5 C296.9,110.1 284.6,113.1 284.6,113.1 C284.6,113.1 296,69.7 279.6,43.4 C263.2,17.1 252.2,8.3 204.1,1.9 C155.8,-4.5 153.7,18.3 153.7,18.3 C153.7,18.3 130.4,17.2 123.9,50.6 C117.5,84 131.4,113.5 131.4,113.5 C131.4,113.5 122.2,110 122.2,122.3 C122.2,134.6 126.1,136.8 127.9,141.8 C129.7,146.8 129.7,150.6 133.2,160.9 C136.7,171.2 143.1,167.7 143.1,167.7 C143.1,167.7 144.2,173.4 147.3,183 C150.4,192.6 155.4,200.5 155.4,200.5 L154.3,224.6 C154.3,224.6 147.5,227.2 143.6,230.7 C139.7,234.2 135.9,239.5 129.8,243.7 C123.7,247.9 78.7,263.5 59.2,270.3 C39.7,277.1 6.5,284.7 3,334.7 C0.2,372.7 0.6,391.9 1,398.8" id="Shape"></path>
        </g>
    </g>
</svg>