<svg width="1260" height="356" viewBox="0 0 1260 356" fill="none" xmlns="http://www.w3.org/2000/svg">
<rect width="1260" height="356" fill="#101F34"/>
<mask id="mask0" mask-type="alpha" maskUnits="userSpaceOnUse" x="0" y="0" width="1260" height="356">
<rect width="1260" height="356" fill="#101F34"/>
</mask>
<g mask="url(#mask0)">
<path d="M4.26654e-05 39.51V12.7339L22.1941 6.65424e-07L44.4757 12.9955V39.7716L22.2816 52.5055L4.26654e-05 39.51Z" transform="translate(1160.39 35.0664)" fill="#101F34" stroke="white" stroke-miterlimit="10" stroke-linejoin="round"/>
<path d="M4.26654e-05 39.51V12.8211L22.1941 -1.33085e-06" transform="translate(1182.67 48.0625)" stroke="white" stroke-width="0.5" stroke-miterlimit="10" stroke-linejoin="round"/>
<path d="M22.2816 13.0828L4.26654e-05 -6.65424e-07" transform="translate(1160.39 47.8008)" stroke="white" stroke-width="0.5" stroke-miterlimit="10" stroke-linejoin="round"/>
<path d="M-2.66658e-06 54.2281L42.9903 28.9348C108.35 -9.6158 189.524 -9.61579 254.971 28.7603L269.913 37.4822" transform="translate(117.437 146.639)" stroke="white" stroke-opacity="0.33" stroke-miterlimit="10" stroke-linejoin="round"/>
<path d="M125.126 156.295C194.232 156.295 250.252 121.308 250.252 78.1477C250.252 34.9879 194.232 -2.6617e-06 125.126 -2.6617e-06C56.0209 -2.6617e-06 -1.06663e-05 34.9879 -1.06663e-05 78.1477C-1.06663e-05 121.308 56.0209 156.295 125.126 156.295Z" transform="translate(505.485 157.609)" fill="#101F34" stroke="#00C3FF" stroke-width="3" stroke-miterlimit="10" stroke-linejoin="round"/>
<path d="M366.117 61.0529L253.66 124.897L43.6893 -2.6617e-06L2.66658e-06 25.2933" transform="translate(144.175 196.857)" stroke="#00C3FF" stroke-miterlimit="10" stroke-linecap="round" stroke-linejoin="round"/>
<path d="M-1.06663e-05 29.3054L105.641 90.4455L262.66 5.32339e-06L324.786 38.1144" transform="translate(749.709 232.092)" stroke="#00C3FF" stroke-miterlimit="10" stroke-linejoin="round"/>
<path d="M-1.06663e-05 48.4062L84.3204 -2.6617e-06L123.553 23.2001" transform="translate(413.301 161.533)" stroke="#00C3FF" stroke-miterlimit="10" stroke-linejoin="round"/>
<path d="M184.718 2.6617e-06L58.5437 72.3041L4.26654e-05 37.6784" transform="translate(1074.76 94.8984)" stroke="#00C3FF" stroke-miterlimit="10" stroke-linejoin="round"/>
<path d="M-1.06663e-05 45.7897L79.0777 -2.6617e-06L120.146 23.4618" transform="translate(739.66 152.812)" stroke="#00C3FF" stroke-miterlimit="10" stroke-linejoin="round"/>
<path d="M0 127.775L220.718 6.65424e-07L335.359 65.3266" transform="translate(700.078 43.7891)" stroke="#00C3FF" stroke-miterlimit="10" stroke-linejoin="round"/>
<path d="M-1.06663e-05 60.6168L106.515 6.65424e-07L297.087 106.843" transform="translate(312.815 51.6367)" stroke="#00C3FF" stroke-miterlimit="10" stroke-linejoin="round"/>
<path d="M27.7258 0C-10.2431 23.9923 -8.95771 78.6523 30 101" transform="translate(824 255)" stroke="white" stroke-opacity="0.33" stroke-miterlimit="10" stroke-linejoin="round"/>
<path d="M89.749 92.2771L12.7684 47.1852C-4.18307 36.0212 -4.27043 11.3384 12.5936 1.33085e-06" transform="translate(263.785 124.203)" stroke="white" stroke-opacity="0.33" stroke-miterlimit="10" stroke-linejoin="round"/>
<path d="M129.648 133.27L18.4151 68.1176C-6.05093 52.0694 -6.13835 16.3099 18.1529 1.33085e-06" transform="translate(1004.79 124.203)" stroke="white" stroke-opacity="0.33" stroke-miterlimit="10" stroke-linejoin="round"/>
<path d="M0 119.07L85.4661 68.1176C109.932 52.0694 110.019 16.3098 85.7282 0" transform="translate(65 235.93)" stroke="white" stroke-opacity="0.33" stroke-miterlimit="10" stroke-linejoin="round"/>
<path d="M0 97.2012L133.553 15.6343C168.33 -4.68756 212.107 -5.12365 244 13.89" transform="translate(1016 258.799)" stroke="white" stroke-opacity="0.33" stroke-miterlimit="10" stroke-linejoin="round"/>
<path d="M428.068 76.7542C399.757 95.5934 363.058 96.5528 333.786 79.1963L241.427 25.0337C179.388 -11.6853 101.01 -6.01608 42.5534 29.0457L0 53.7285" transform="translate(436.281 119.318)" stroke="white" stroke-opacity="0.33" stroke-miterlimit="10" stroke-linejoin="round"/>
<path d="M-1.33329e-06 33.0558L56.7961 -2.6617e-06L78.7281 17.0948V21.4557L24.1165 53.8138L-1.33329e-06 39.6844V33.0558Z" transform="translate(94.1943 199.91)" fill="#101F34" stroke="white" stroke-miterlimit="10" stroke-linejoin="round"/>
<path d="M-2.66658e-06 20.5836L1.13592 26.5144C1.57282 28.7821 2.97088 30.7009 4.89321 31.8347L17.9126 39.51C21.4951 41.6904 26.0388 41.6904 29.6214 39.5972L45.1748 30.6137C46.9223 29.5671 46.7476 27.0377 44.9126 26.2528L28.3981 18.9264C25.7767 17.7926 23.9417 15.3504 23.5922 12.4722L21.932 -2.6617e-06L-2.66658e-06 20.5836Z" transform="translate(78.1165 177.67)" fill="#101F34" stroke="white" stroke-miterlimit="10"/>
<path d="M1.33329e-06 2.6617e-06C1.33329e-06 2.6617e-06 0.262133 4.97145 2.4466 6.6286C4.63107 8.28575 12.6699 13.2572 16.0777 15.0888C19.4854 16.9204 23.3301 16.7459 26.1262 15.176C28.9223 13.6061 43.3398 5.23311 43.3398 5.23311" transform="translate(80.9126 199.561)" stroke="white" stroke-width="0.5" stroke-miterlimit="10"/>
<path d="M0.168659 59.2112L11.091 119.305C12.9259 127.939 21.4017 128.986 24.023 127.59L102.052 81.888C105.635 79.7947 107.557 75.6955 106.945 71.5962L96.2852 2.51919C95.8483 -0.184584 90.8677 -0.620676 88.4211 0.774819L5.23662 48.3089C1.39196 50.5765 -0.617749 54.9375 0.168659 59.2112Z" transform="translate(36.6179 86.623)" fill="#101F34" stroke="white" stroke-miterlimit="10"/>
<path d="M89.456 -1.33085e-06L5.48508 48.2318C1.64042 50.4123 -0.631429 52.9416 0.154979 57.2153L11.8637 121.844C12.388 124.81 15.7958 126.38 18.4171 124.81" transform="translate(43.0977 88.6191)" stroke="white" stroke-width="0.5" stroke-miterlimit="10"/>
<path d="M1.33329e-06 51.7205L88.5146 -5.32339e-06" transform="translate(53.8252 152.549)" stroke="white" stroke-width="0.5" stroke-miterlimit="10"/>
<path d="M0 23.3745L40.5437 -2.6617e-06" transform="translate(54.3494 124.467)" stroke="#0074FF" stroke-miterlimit="10" stroke-linejoin="round"/>
<path d="M-1.33329e-06 15.6121L27.3495 0" transform="translate(56.1843 142.607)" stroke="#0074FF" stroke-miterlimit="10" stroke-linejoin="round"/>
<path d="M-2.66658e-06 31.3114L54.4369 0" transform="translate(58.0193 137.373)" stroke="#0074FF" stroke-miterlimit="10" stroke-linejoin="round"/>
<path d="M-1.33329e-06 15.961L24.1165 32.5325L78.7281 2.6617e-06" transform="translate(94.1943 217.004)" stroke="white" stroke-width="0.5" stroke-miterlimit="10" stroke-linejoin="round"/>
<path d="M12.3204 2.6617e-06L2.13327e-05 11.164V13.6933L21.3204 26.2527L34.8641 18.3159V13.0828L12.3204 2.6617e-06Z" transform="translate(879.116 215.26)" fill="#101F34" stroke="white" stroke-miterlimit="10" stroke-linejoin="round"/>
<path d="M34.8641 1.91881L21.233 12.8211L2.13327e-05 5.32339e-06" transform="translate(879.116 226.426)" stroke="white" stroke-width="0.5" stroke-miterlimit="10" stroke-linejoin="round"/>
<path d="M18.699 21.7174L11.9709 7.93688L1.06663e-05 -5.32339e-06L6.11646 14.391L18.699 21.7174Z" transform="translate(891.611 204.445)" fill="#101F34" stroke="white" stroke-miterlimit="10" stroke-linejoin="round"/>
<path d="M20.8835 21.7174L17.3883 24.2467L4.10682 16.9204L1.06663e-05 2.09325L2.18448 -5.32339e-06L14.1554 7.93688L20.8835 21.7174Z" transform="translate(889.427 204.445)" fill="#101F34" stroke="white" stroke-miterlimit="10" stroke-linejoin="round"/>
<path d="M17.3883 22.1535L11.1845 6.89025L1.06663e-05 2.6617e-06" transform="translate(889.427 206.539)" stroke="white" stroke-width="0.5" stroke-miterlimit="10" stroke-linejoin="round"/>
<path d="M5.94176 3.3143L11.1845 2.6617e-06L95.6796 47.5341L90.1747 116.088L83.0971 120.187L2.13327e-05 72.2169L5.94176 3.3143Z" transform="translate(851.155 116.703)" fill="#101F34" stroke="white" stroke-miterlimit="10"/>
<path d="M25.8641 15.0016L2.13327e-05 5.32339e-06" transform="translate(867.32 137.461)" stroke="#0074FF" stroke-miterlimit="10" stroke-linejoin="round"/>
<path d="M37.0485 21.0196L-1.06663e-05 -5.32339e-06" transform="translate(863.301 169.994)" stroke="#0074FF" stroke-miterlimit="10" stroke-linejoin="round"/>
<path d="M44.3883 25.0317L2.13327e-05 0" transform="translate(866.01 147.84)" stroke="#0074FF" stroke-miterlimit="10" stroke-linejoin="round"/>
<path d="M29.6214 17.0948L-2.13327e-05 2.6617e-06" transform="translate(864.874 158.568)" stroke="#0074FF" stroke-miterlimit="10" stroke-linejoin="round"/>
<path d="M77.6796 33.928L19.4855 5.32339e-06L-2.13327e-05 13.6061V17.5309L56.1845 50.7611L77.6796 38.2017V33.928Z" transform="translate(823.369 221.191)" fill="#101F34" stroke="white" stroke-miterlimit="10" stroke-linejoin="round"/>
<path d="M77.6796 20.3219L56.1845 33.4919L-2.13327e-05 -2.6617e-06" transform="translate(823.369 234.797)" stroke="white" stroke-width="0.5" stroke-miterlimit="10" stroke-linejoin="round"/>
<path d="M77.1553 116.873L84.4952 47.6213L1.06663e-05 -1.33085e-06" transform="translate(857.097 120.018)" stroke="white" stroke-width="0.5" stroke-miterlimit="10"/>
<path d="M0.207863 79.0627C-0.141651 78.2778 0.644756 77.58 2.82922 76.359L40.5768 54.4671L45.0331 1.96163C45.0331 -0.131608 46.4312 -0.567708 48.703 0.740568L102.179 32.052C104.101 33.2731 104.625 34.4069 103.926 37.3723L99.5574 88.1334V92.3199L59.8001 115.694C56.6545 117.264 55.2564 116.043 51.1496 113.601L1.43119 84.3831C0.382642 83.7725 -0.141635 83.2492 0.0331219 82.6387C0.295258 82.1154 0.207863 79.6733 0.207863 79.0627Z" transform="translate(345.375 142.477)" fill="#101F34" stroke="white" stroke-miterlimit="10" stroke-linejoin="round"/>
<path d="M54.3495 76.7522L58.0194 31.8347L3.84467 5.32339e-06L1.06663e-05 45.528L54.3495 76.7522Z" transform="translate(388.748 147.928)" stroke="white" stroke-width="0.5" stroke-miterlimit="10" stroke-linejoin="round"/>
<path d="M65.6214 26.4272L45.5243 38.2017L0 11.9489L20.0971 5.32339e-06L65.6214 26.4272Z" transform="translate(366.729 202.439)" stroke="white" stroke-width="0.5" stroke-miterlimit="10" stroke-linejoin="round"/>
<path d="M5.33317e-06 2.6617e-06L58.9806 33.6663" transform="translate(386.039 196.943)" stroke="white" stroke-width="0.5" stroke-miterlimit="10" stroke-linejoin="round"/>
<path d="M23.5922 8.46019L14.5049 13.7805L-5.33317e-06 5.40755L9.08737 5.32339e-06L23.5922 8.46019Z" transform="translate(371.01 225.553)" stroke="white" stroke-width="0.5" stroke-miterlimit="10" stroke-linejoin="round"/>
<path d="M16.8641 9.59403L-1.06663e-05 2.6617e-06" transform="translate(399.757 162.93)" stroke="#0074FF" stroke-miterlimit="10" stroke-linejoin="round"/>
<path d="M16.7767 9.68125L-1.06663e-05 -2.6617e-06" transform="translate(398.447 182.031)" stroke="#0074FF" stroke-miterlimit="10" stroke-linejoin="round"/>
<path d="M33.9029 19.1881L-5.33317e-06 2.6617e-06" transform="translate(398.097 172.086)" stroke="#0074FF" stroke-miterlimit="10" stroke-linejoin="round"/>
<path d="M6.72817 3.66317L0 -2.6617e-06" transform="translate(416.097 158.916)" stroke="white" stroke-miterlimit="10" stroke-linejoin="round"/>
<path d="M2.72989 -5.32339e-06C-0.503116 1.74436 -0.765252 2.61656 1.41921 3.83761L51.1377 33.0558C55.2445 35.4979 56.6425 36.719 59.7882 35.149L99.6328 11.7745" transform="translate(345.474 218.834)" stroke="white" stroke-width="0.5" stroke-miterlimit="10" stroke-linejoin="round"/>
<path d="M50.1596 106.151L10.315 82.776L0.178987 37.3352C-0.520043 34.2826 0.878058 31.23 3.49942 29.66L53.3926 0.529074C55.6644 -0.779203 58.6353 0.44185 59.1596 3.0584L69.2956 49.1097L106.169 70.5655C108.266 71.8737 108.266 75.0136 106.082 76.3219L58.7227 104.145C54.6159 106.499 53.2179 107.721 50.1596 106.151Z" transform="translate(1071 215.863)" fill="#101F34" stroke="white" stroke-miterlimit="10" stroke-linejoin="round"/>
<path d="M9.17478 70.2109L2.13327e-05 29.3054L50.1554 -2.6617e-06L59.4175 40.4694L9.17478 70.2109Z" transform="translate(1075.72 220.406)" stroke="white" stroke-width="0.5" stroke-miterlimit="10" stroke-linejoin="round"/>
<path d="M4.26654e-05 26.4272L20.0971 38.2017L65.6214 11.9489L45.5243 5.32339e-06L4.26654e-05 26.4272Z" transform="translate(1093.98 270.469)" stroke="white" stroke-width="0.5" stroke-miterlimit="10" stroke-linejoin="round"/>
<path d="M58.9806 1.06468e-05L4.28151 31.7475L4.26654e-05 33.6663" transform="translate(1081.31 264.887)" stroke="white" stroke-width="0.5" stroke-miterlimit="10" stroke-linejoin="round"/>
<path d="M-4.26654e-05 5.32339e-06L39.7572 25.8167" transform="translate(1085.59 296.635)" stroke="white" stroke-width="0.5" stroke-miterlimit="10" stroke-linejoin="round"/>
<path d="M-2.13327e-05 6.89026L7.33981 11.164L19.0486 4.36093L11.7087 5.32339e-06L-2.13327e-05 6.89026Z" transform="translate(1134 294.891)" stroke="white" stroke-width="0.5" stroke-miterlimit="10" stroke-linejoin="round"/>
<path d="M4.26654e-05 16.4843L28.9224 -5.32339e-06" transform="translate(1086.55 238.461)" stroke="#0074FF" stroke-miterlimit="10" stroke-linejoin="round"/>
<path d="M-4.26654e-05 13.3444L23.3301 0" transform="translate(1088.21 250.758)" stroke="#0074FF" stroke-miterlimit="10" stroke-linejoin="round"/>
<path d="M50.1596 106.238L10.315 82.8633L0.179035 37.4225C-0.519995 34.3698 0.878053 31.3172 3.49941 29.7472L53.3926 0.529068C55.6645 -0.779208 58.6353 0.441849 59.1596 3.0584L69.2955 49.1097L106.169 70.5655C108.266 71.8738 108.266 75.0136 106.082 76.3219L58.7227 104.145C54.6159 106.587 53.2179 107.808 50.1596 106.238Z" transform="translate(244.307 28.6055)" fill="#101F34" stroke="white" stroke-miterlimit="10" stroke-linejoin="round"/>
<path d="M9.26213 70.1236L1.06663e-05 29.3054L50.2427 3.32712e-07L59.4175 40.4694L9.26213 70.1236Z" transform="translate(248.942 33.2344)" stroke="white" stroke-width="0.5" stroke-miterlimit="10" stroke-linejoin="round"/>
<path d="M1.06663e-05 26.5144L20.0971 38.2889L65.6214 12.0361L45.4369 1.33085e-06L1.06663e-05 26.5144Z" transform="translate(267.291 83.2109)" stroke="white" stroke-width="0.5" stroke-miterlimit="10" stroke-linejoin="round"/>
<path d="M58.9806 -1.33085e-06L4.28156 31.7475L1.06663e-05 33.6663" transform="translate(254.622 77.7148)" stroke="white" stroke-width="0.5" stroke-miterlimit="10" stroke-linejoin="round"/>
<path d="M5.33317e-06 0L39.7573 25.8167" transform="translate(258.903 109.463)" stroke="white" stroke-width="0.5" stroke-miterlimit="10" stroke-linejoin="round"/>
<path d="M0 6.89026L7.3398 11.164L19.0485 4.36092L11.7087 0L0 6.89026Z" transform="translate(307.311 107.719)" stroke="white" stroke-width="0.5" stroke-miterlimit="10" stroke-linejoin="round"/>
<path d="M1.06663e-05 16.4843L28.9223 -6.65424e-07" transform="translate(259.864 51.2871)" stroke="#0074FF" stroke-miterlimit="10" stroke-linejoin="round"/>
<path d="M5.33317e-06 13.4316L23.3301 -6.65424e-07" transform="translate(261.524 63.498)" stroke="#0074FF" stroke-miterlimit="10" stroke-linejoin="round"/>
<path d="M0.207874 79.0627C-0.141641 78.2778 0.644746 77.58 2.91659 76.359L40.6642 54.4671L45.1205 1.96163C45.1205 -0.131614 46.5185 -0.567705 48.7904 0.740571L102.266 32.052C104.188 33.273 104.713 34.4069 104.014 37.3723L99.6448 88.1335V92.3199L59.8001 115.694C56.6544 117.264 55.2565 116.043 51.1497 113.601L1.4312 84.3831C0.382652 83.7725 -0.141598 83.2492 0.0331592 82.6387C0.382674 82.1154 0.207874 79.7605 0.207874 79.0627Z" transform="translate(999.142 26.8262)" fill="#101F34" stroke="white" stroke-miterlimit="10" stroke-linejoin="round"/>
<path d="M54.2621 76.7522L57.9321 31.7475L3.84468 3.32712e-07L0 45.528L54.2621 76.7522Z" transform="translate(1042.6 32.3633)" stroke="white" stroke-width="0.5" stroke-miterlimit="10" stroke-linejoin="round"/>
<path d="M65.6214 26.5144L45.6117 38.2017L-4.26654e-05 12.0361L20.1845 0L65.6214 26.5144Z" transform="translate(1020.5 86.7891)" stroke="white" stroke-width="0.5" stroke-miterlimit="10" stroke-linejoin="round"/>
<path d="M4.26654e-05 -2.6617e-06L58.9806 33.6663" transform="translate(1039.81 81.293)" stroke="white" stroke-width="0.5" stroke-miterlimit="10" stroke-linejoin="round"/>
<path d="M23.5922 8.46019L14.5048 13.7805L-2.13327e-05 5.40755L9.17474 -1.33085e-06L23.5922 8.46019Z" transform="translate(1024.78 109.988)" stroke="white" stroke-width="0.5" stroke-miterlimit="10" stroke-linejoin="round"/>
<path d="M16.7767 9.68125L-2.13327e-05 6.65424e-07" transform="translate(1053.61 47.2773)" stroke="#0074FF" stroke-miterlimit="10" stroke-linejoin="round"/>
<path d="M16.7767 9.68124L0 -1.33085e-06" transform="translate(1052.21 66.3789)" stroke="#0074FF" stroke-miterlimit="10" stroke-linejoin="round"/>
<path d="M33.9903 19.2753L-2.13327e-05 6.65424e-07" transform="translate(1051.86 56.4336)" stroke="#0074FF" stroke-miterlimit="10" stroke-linejoin="round"/>
<path d="M6.72818 3.66318L-4.26654e-05 6.65424e-07" transform="translate(1069.86 43.3516)" stroke="white" stroke-miterlimit="10" stroke-linejoin="round"/>
<path d="M2.72988 2.6617e-06C-0.503127 1.74437 -0.765263 2.61655 1.4192 3.83761L51.1377 33.0558C55.2445 35.4979 56.6425 36.719 59.7882 35.149L99.6328 11.7745" transform="translate(999.328 103.184)" stroke="white" stroke-width="0.5" stroke-miterlimit="10" stroke-linejoin="round"/>
<path d="M35.8252 1.33085e-06L-1.06663e-05 21.1069" transform="translate(491.942 71.4355)" stroke="#00C3FF" stroke-miterlimit="10" stroke-linejoin="round"/>
<path d="M165 -5.93227e-06L0 97" transform="translate(126 259)" stroke="#00C3FF" stroke-miterlimit="10" stroke-linejoin="round"/>
<path d="M0 0L159.835 92.3222" transform="translate(679 -1)" stroke="#00C3FF" stroke-miterlimit="10" stroke-linejoin="round"/>
<path d="M0 0L147.029 84.4725" transform="translate(102 -1)" stroke="#00C3FF" stroke-miterlimit="10" stroke-linejoin="round"/>
<path d="M1.04163e-08 1.33085e-06L93.4952 55.0348" transform="translate(0 51.377)" stroke="#00C3FF" stroke-miterlimit="10" stroke-linejoin="round"/>
<path d="M0 -6.79517e-06L96.0001 56" transform="translate(1163 301)" stroke="#00C3FF" stroke-miterlimit="10" stroke-linejoin="round"/>
<path d="M0 1.33085e-06L44.8253 26.34" transform="translate(1194.2 80.1582)" stroke="#00C3FF" stroke-miterlimit="10" stroke-linejoin="round"/>
<path d="M0 -5.32339e-06L44.8252 26.34" transform="translate(450.612 292.1)" stroke="#00C3FF" stroke-miterlimit="10" stroke-linejoin="round"/>
<path d="M0 -8.48833e-06L72 42" transform="translate(645 314)" stroke="#00C3FF" stroke-miterlimit="10" stroke-linejoin="round"/>
<path d="M-5.33317e-06 22.4151V7.23913L12.5825 6.65424e-07L25.2524 7.41357V22.5896L12.5825 29.8287L-5.33317e-06 22.4151Z" transform="translate(407.272 40.2988)" fill="#101F34" stroke="white" stroke-miterlimit="10" stroke-linejoin="round"/>
<path d="M-1.06663e-05 22.4151V7.23913L12.6699 6.65424e-07" transform="translate(419.855 47.7129)" stroke="white" stroke-width="0.5" stroke-miterlimit="10" stroke-linejoin="round"/>
<path d="M12.5825 7.41357L-5.33317e-06 0" transform="translate(407.272 47.5391)" stroke="white" stroke-width="0.5" stroke-miterlimit="10" stroke-linejoin="round"/>
<path d="M2.66658e-06 22.4151V7.23913L12.5825 -5.32339e-06L25.2524 7.32635V22.5024L12.6699 29.8287L2.66658e-06 22.4151Z" transform="translate(178.689 175.227)" fill="#101F34" stroke="white" stroke-miterlimit="10" stroke-linejoin="round"/>
<path d="M2.66658e-06 22.5024V7.32635L12.5825 2.6617e-06" transform="translate(191.359 182.553)" stroke="white" stroke-width="0.5" stroke-miterlimit="10" stroke-linejoin="round"/>
<path d="M12.6699 7.41356L2.66658e-06 -2.6617e-06" transform="translate(178.689 182.467)" stroke="white" stroke-width="0.5" stroke-miterlimit="10" stroke-linejoin="round"/>
<path d="M-1.06663e-05 22.4151V7.23914L12.5825 -5.32339e-06L25.2524 7.32634V22.5024L12.6699 29.8287L-1.06663e-05 22.4151Z" transform="translate(488.01 300.82)" fill="#101F34" stroke="white" stroke-miterlimit="10" stroke-linejoin="round"/>
<path d="M-1.06663e-05 22.5024V7.32636L12.5825 -1.06468e-05" transform="translate(500.68 308.146)" stroke="white" stroke-width="0.5" stroke-miterlimit="10" stroke-linejoin="round"/>
<path d="M12.6699 7.41358L-1.06663e-05 1.06468e-05" transform="translate(488.01 308.061)" stroke="white" stroke-width="0.5" stroke-miterlimit="10" stroke-linejoin="round"/>
<path d="M4.26654e-05 22.4151V7.23913L12.5825 -5.32339e-06L25.2524 7.32635V22.5024L12.6699 29.8287L4.26654e-05 22.4151Z" transform="translate(1120.63 145.572)" fill="#101F34" stroke="white" stroke-miterlimit="10" stroke-linejoin="round"/>
<path d="M4.26654e-05 22.5024V7.32635L12.5825 2.6617e-06" transform="translate(1133.3 152.898)" stroke="white" stroke-width="0.5" stroke-miterlimit="10" stroke-linejoin="round"/>
<path d="M12.6699 7.41356L4.26654e-05 -2.6617e-06" transform="translate(1120.63 152.812)" stroke="white" stroke-width="0.5" stroke-miterlimit="10" stroke-linejoin="round"/>
<path d="M2.13327e-05 22.5024V7.23913L12.5826 5.32339e-06L25.2525 7.41357V22.5896L12.5826 29.8287L2.13327e-05 22.5024Z" transform="translate(1004.07 216.83)" fill="#101F34" stroke="white" stroke-miterlimit="10" stroke-linejoin="round"/>
<path d="M4.26654e-05 22.4151V7.23912L12.6699 5.32339e-06" transform="translate(1016.65 224.242)" stroke="white" stroke-width="0.5" stroke-miterlimit="10" stroke-linejoin="round"/>
<path d="M12.5826 7.41356L2.13327e-05 -5.32339e-06" transform="translate(1004.07 224.07)" stroke="white" stroke-width="0.5" stroke-miterlimit="10" stroke-linejoin="round"/>
<path d="M-5.33317e-06 33.928V10.9895L19.1359 -5.32339e-06L38.2719 11.164V34.1896L19.2233 45.1792L-5.33317e-06 33.928Z" transform="translate(277.078 231.047)" fill="#101F34" stroke="white" stroke-miterlimit="10" stroke-linejoin="round"/>
<path d="M0.0873733 34.0152L-1.06663e-05 10.9895L19.1359 1.06468e-05" transform="translate(296.214 242.211)" stroke="white" stroke-width="0.5" stroke-miterlimit="10" stroke-linejoin="round"/>
<path d="M19.1359 11.1639L-5.33317e-06 0" transform="translate(277.078 242.035)" stroke="white" stroke-width="0.5" stroke-miterlimit="10" stroke-linejoin="round"/>
<path d="M2.13327e-05 33.928V10.9895L19.136 1.33085e-06L38.2718 11.164V34.1896L19.2233 45.1791L2.13327e-05 33.928Z" transform="translate(919.311 90.623)" fill="#101F34" stroke="white" stroke-miterlimit="10" stroke-linejoin="round"/>
<path d="M0.0874 34.0152L4.26654e-05 10.9895L19.1359 -2.6617e-06" transform="translate(938.447 101.789)" stroke="white" stroke-width="0.5" stroke-miterlimit="10" stroke-linejoin="round"/>
<path d="M19.136 11.164L2.13327e-05 0" transform="translate(919.311 101.613)" stroke="white" stroke-width="0.5" stroke-miterlimit="10" stroke-linejoin="round"/>
<path d="M0 39.5972V12.8211L22.1942 6.65424e-07L44.4757 13.0828V39.7716L22.2816 52.5927L0 39.5972Z" transform="translate(817.602 53.8184)" fill="#101F34" stroke="white" stroke-miterlimit="10" stroke-linejoin="round"/>
<path d="M0 39.51V12.8211L22.1942 6.65424e-07" transform="translate(839.884 66.9023)" stroke="white" stroke-width="0.5" stroke-miterlimit="10" stroke-linejoin="round"/>
<path d="M22.2816 13.0828L0 1.33085e-06" transform="translate(817.602 66.6387)" stroke="white" stroke-width="0.5" stroke-miterlimit="10" stroke-linejoin="round"/>
<path d="M0 39.5972V12.8211L22.1942 1.06468e-05L44.4757 13.0828V39.7716L22.2816 52.5927L0 39.5972Z" transform="translate(843.815 287.564)" fill="#101F34" stroke="white" stroke-miterlimit="10" stroke-linejoin="round"/>
<path d="M0 39.51V12.8211L22.1942 1.06468e-05" transform="translate(866.097 300.648)" stroke="white" stroke-width="0.5" stroke-miterlimit="10" stroke-linejoin="round"/>
<path d="M22.2816 13.0828L0 -5.32339e-06" transform="translate(843.815 300.385)" stroke="white" stroke-width="0.5" stroke-miterlimit="10" stroke-linejoin="round"/>
<path d="M0 39.5972V12.8211L22.1942 -1.66356e-07L44.4757 13.0828V39.7716L22.2816 52.5927L0 39.5972Z" transform="translate(515.272 25.0371)" fill="#101F34" stroke="white" stroke-miterlimit="10" stroke-linejoin="round"/>
<path d="M0 39.51V12.8211L22.1942 6.65424e-07" transform="translate(537.553 38.1191)" stroke="white" stroke-width="0.5" stroke-miterlimit="10" stroke-linejoin="round"/>
<path d="M22.2816 13.0828L0 -3.32712e-07" transform="translate(515.272 37.8574)" stroke="white" stroke-width="0.5" stroke-miterlimit="10" stroke-linejoin="round"/>
<path d="M6.37864 12.7339C9.90147 12.7339 12.7573 9.88331 12.7573 6.36694C12.7573 2.85057 9.90147 5.32339e-06 6.37864 5.32339e-06C2.85582 5.32339e-06 0 2.85057 0 6.36694C0 9.88331 2.85582 12.7339 6.37864 12.7339Z" transform="translate(211.194 295.762)" stroke="#00C3FF" stroke-width="0.5" stroke-miterlimit="10" stroke-linejoin="round"/>
<path d="M2.18447 4.36092C3.39092 4.36092 4.36893 3.38469 4.36893 2.18046C4.36893 0.97622 3.39092 -5.32339e-06 2.18447 -5.32339e-06C0.978021 -5.32339e-06 2.66658e-06 0.97622 2.66658e-06 2.18046C2.66658e-06 3.38469 0.978021 4.36092 2.18447 4.36092Z" transform="translate(215.388 299.949)" fill="#00C3FF"/>
<path d="M6.37868 12.7339C9.90151 12.7339 12.7573 9.88331 12.7573 6.36695C12.7573 2.85058 9.90151 0 6.37868 0C2.85586 0 0 2.85058 0 6.36695C0 9.88331 2.85586 12.7339 6.37868 12.7339Z" transform="translate(890.126 52.6855)" stroke="#00C3FF" stroke-width="0.5" stroke-miterlimit="10" stroke-linejoin="round"/>
<path d="M2.18451 4.36092C3.39096 4.36092 4.36897 3.3847 4.36897 2.18046C4.36897 0.976226 3.39096 0 2.18451 0C0.978061 0 -1.06663e-05 0.976226 -1.06663e-05 2.18046C-1.06663e-05 3.3847 0.978061 4.36092 2.18451 4.36092Z" transform="translate(894.32 56.873)" fill="#00C3FF"/>
<path d="M6.37868 12.7339C9.90151 12.7339 12.7573 9.88332 12.7573 6.36696C12.7573 2.85059 9.90151 -5.32339e-06 6.37868 -5.32339e-06C2.85586 -5.32339e-06 0 2.85059 0 6.36696C0 9.88332 2.85586 12.7339 6.37868 12.7339Z" transform="translate(1047.41 251.543)" stroke="#00C3FF" stroke-width="0.5" stroke-miterlimit="10" stroke-linejoin="round"/>
<path d="M2.18451 4.36093C3.39096 4.36093 4.36897 3.38471 4.36897 2.18047C4.36897 0.976236 3.39096 1.06468e-05 2.18451 1.06468e-05C0.978061 1.06468e-05 4.26653e-05 0.976236 4.26653e-05 2.18047C4.26653e-05 3.38471 0.978061 4.36093 2.18451 4.36093Z" transform="translate(1051.6 255.73)" fill="#00C3FF"/>
<path d="M8.56311 17.0948C13.2924 17.0948 17.1262 13.268 17.1262 8.5474C17.1262 3.8268 13.2924 -5.32339e-06 8.56311 -5.32339e-06C3.83383 -5.32339e-06 -2.66658e-06 3.8268 -2.66658e-06 8.5474C-2.66658e-06 13.268 3.83383 17.0948 8.56311 17.0948Z" transform="translate(220.98 213.166)" stroke="#00C3FF" stroke-width="0.5" stroke-miterlimit="10" stroke-linejoin="round"/>
<path d="M2.18447 4.36092C3.39091 4.36092 4.36893 3.38469 4.36893 2.18046C4.36893 0.976223 3.39091 -2.6617e-06 2.18447 -2.6617e-06C0.978019 -2.6617e-06 0 0.976223 0 2.18046C0 3.38469 0.978019 4.36092 2.18447 4.36092Z" transform="translate(227.359 219.533)" fill="#00C3FF"/>
<path d="M8.56311 17.0948C13.2924 17.0948 17.1262 13.268 17.1262 8.54742C17.1262 3.82682 13.2924 -5.32339e-06 8.56311 -5.32339e-06C3.83383 -5.32339e-06 1.06663e-05 3.82682 1.06663e-05 8.54742C1.06663e-05 13.268 3.83383 17.0948 8.56311 17.0948Z" transform="translate(426.757 292.1)" stroke="#00C3FF" stroke-width="0.5" stroke-miterlimit="10" stroke-linejoin="round"/>
<path d="M2.18447 4.36093C3.39091 4.36093 4.36893 3.38471 4.36893 2.18047C4.36893 0.976236 3.39091 1.06468e-05 2.18447 1.06468e-05C0.978019 1.06468e-05 0 0.976236 0 2.18047C0 3.38471 0.978019 4.36093 2.18447 4.36093Z" transform="translate(433.136 298.467)" fill="#00C3FF"/>
<path d="M8.5631 17.0948C13.2924 17.0948 17.1262 13.268 17.1262 8.54742C17.1262 3.82682 13.2924 -5.32339e-06 8.5631 -5.32339e-06C3.83382 -5.32339e-06 0 3.82682 0 8.54742C0 13.268 3.83382 17.0948 8.5631 17.0948Z" transform="translate(780.903 275.527)" stroke="#00C3FF" stroke-width="0.5" stroke-miterlimit="10" stroke-linejoin="round"/>
<path d="M2.18446 4.36093C3.3909 4.36093 4.36892 3.38471 4.36892 2.18047C4.36892 0.976236 3.3909 1.06468e-05 2.18446 1.06468e-05C0.978008 1.06468e-05 -1.06663e-05 0.976236 -1.06663e-05 2.18047C-1.06663e-05 3.38471 0.978008 4.36093 2.18446 4.36093Z" transform="translate(787.282 281.895)" fill="#00C3FF"/>
<path d="M8.5631 17.0948C13.2924 17.0948 17.1262 13.268 17.1262 8.5474C17.1262 3.8268 13.2924 0 8.5631 0C3.83382 0 0 3.8268 0 8.5474C0 13.268 3.83382 17.0948 8.5631 17.0948Z" transform="translate(762.99 122.895)" stroke="#00C3FF" stroke-width="0.5" stroke-miterlimit="10" stroke-linejoin="round"/>
<path d="M2.18446 4.36092C3.3909 4.36092 4.36892 3.38469 4.36892 2.18046C4.36892 0.976223 3.3909 -2.6617e-06 2.18446 -2.6617e-06C0.978008 -2.6617e-06 -1.06663e-05 0.976223 -1.06663e-05 2.18046C-1.06663e-05 3.38469 0.978008 4.36092 2.18446 4.36092Z" transform="translate(769.369 129.264)" fill="#00C3FF"/>
<path d="M8.56315 17.0948C13.2924 17.0948 17.1262 13.268 17.1262 8.5474C17.1262 3.8268 13.2924 0 8.56315 0C3.83388 0 0 3.8268 0 8.5474C0 13.268 3.83388 17.0948 8.56315 17.0948Z" transform="translate(1186.78 123.768)" stroke="#00C3FF" stroke-width="0.5" stroke-miterlimit="10" stroke-linejoin="round"/>
<path d="M2.18451 4.36092C3.39096 4.36092 4.36897 3.38469 4.36897 2.18046C4.36897 0.976223 3.39096 -2.6617e-06 2.18451 -2.6617e-06C0.978061 -2.6617e-06 4.26653e-05 0.976223 4.26653e-05 2.18046C4.26653e-05 3.38469 0.978061 4.36092 2.18451 4.36092Z" transform="translate(1193.16 130.135)" fill="#00C3FF"/>
<path d="M6.37863 12.7339C9.90146 12.7339 12.7573 9.88332 12.7573 6.36695C12.7573 2.85058 9.90146 0 6.37863 0C2.8558 0 0 2.85058 0 6.36695C0 9.88332 2.8558 12.7339 6.37863 12.7339Z" transform="translate(356.68 77.2793)" stroke="#00C3FF" stroke-width="0.5" stroke-miterlimit="10" stroke-linejoin="round"/>
<path d="M2.18446 4.36092C3.3909 4.36092 4.36892 3.3847 4.36892 2.18046C4.36892 0.976227 3.3909 0 2.18446 0C0.978008 0 -1.06663e-05 0.976227 -1.06663e-05 2.18046C-1.06663e-05 3.3847 0.978008 4.36092 2.18446 4.36092Z" transform="translate(360.874 81.4668)" fill="#00C3FF"/>
<path d="M0 240.112L9.0874 38.6378L45 3.32712e-07L80.4757 38.6378L89.5631 240.112L45 265.755L0 240.112Z" transform="translate(585.175 25.3828)" fill="#101F34" stroke="white" stroke-width="2" stroke-miterlimit="10" stroke-linejoin="round"/>
<path d="M35.9126 59.8318V3.32712e-07L2.13327e-05 38.6378L35.9126 59.8318Z" transform="translate(594.262 25.3828)" fill="#101F34" stroke="white" stroke-width="2" stroke-miterlimit="10" stroke-linejoin="round"/>
<path d="M35.4757 38.6378L0 3.32712e-07V59.8318L35.4757 38.6378Z" transform="translate(630.175 25.3828)" fill="#101F34" stroke="white" stroke-width="2" stroke-miterlimit="10" stroke-linejoin="round"/>
<path d="M0 -2.6617e-06V205.923" transform="translate(630.175 85.2168)" stroke="white" stroke-width="2" stroke-miterlimit="10" stroke-linejoin="round"/>
</g>
</svg>
